<svg width="40" height="40" viewBox="0 0 40 40" fill="none" xmlns="http://www.w3.org/2000/svg">
<path d="M27 1.66663V4.99996H13V1.66663H10V4.99996H8.33333C6.48333 4.99996 5.01667 6.49996 5.01667 8.33329L5 31.6666C5 33.5 6.48333 35 8.33333 35H31.6667C33.5 35 35 33.5 35 31.6666V8.33329C35 6.49996 33.5 4.99996 31.6667 4.99996H30V1.66663H27ZM32 32H8V13H32V32Z" fill="#3870DE"/>
<path d="M10 15H13V18H10V15Z" fill="#3870DE"/>
<path d="M15 15V18H18V15H15Z" fill="#3870DE"/>
<path d="M20 15V18H23V15H20Z" fill="#3870DE"/>
</svg>
