<svg width="40" height="40" viewBox="0 0 40 40" fill="none" xmlns="http://www.w3.org/2000/svg">
<path d="M28.925 21.8162H19.8103C20.7275 21.1099 21.6779 20.4596 22.4963 19.8325C22.6992 19.6775 22.8968 19.5181 23.0917 19.3574H28.9249C29.7534 19.3574 30.4247 18.686 30.4247 17.8577C30.4247 17.0293 29.7535 16.358 28.9249 16.358H25.8644C26.2817 15.719 26.6377 15.0335 26.8996 14.2772C27.5742 12.327 27.2377 10.0814 26.1096 8.37473C23.2646 4.0702 17.4195 4.38842 13.3492 6.5267C11.6365 7.42657 13.1525 10.0155 14.8631 9.11687C16.8835 8.05551 19.1265 7.57638 21.336 8.3028C22.8474 8.79971 24.1028 10.1718 24.2337 11.7848C24.3815 13.6132 23.2742 15.1466 21.9967 16.3588H10.4998C9.67149 16.3588 9 17.0302 9 17.8585C9 18.6869 9.67142 19.3582 10.4998 19.3582H18.1432C17.4452 19.8738 16.7596 20.4046 16.1177 20.9936C15.8367 21.2521 15.5731 21.5279 15.3251 21.8171H10.4998C9.67149 21.8171 9 22.4883 9 23.3168C9 24.1449 9.67142 24.8166 10.4998 24.8166H13.5756C12.601 27.5235 12.9079 30.5967 15.1012 32.8592C18.135 35.9892 23.339 35.2217 26.8612 33.5057C28.6002 32.6583 27.0787 30.0723 25.3472 30.9154C22.6205 32.2445 17.6231 32.9571 16.3285 29.3069C15.7062 27.552 16.0329 26.087 16.8375 24.817H28.9249C29.7534 24.817 30.4246 24.1454 30.4246 23.3172C30.4247 22.4887 29.7535 21.8162 28.925 21.8162Z" fill="#3870DE"/>
</svg>
