<svg width="32" height="24" viewBox="0 0 32 24" fill="none" xmlns="http://www.w3.org/2000/svg">
<path d="M32 2.99987C32 1.34302 30.6679 0 29.0111 0C22.942 0 9.22398 0 2.99855 0C1.34149 0 0.000232452 1.34334 0.000273314 3.0004C0.000277462 3.1686 0.000279742 3.34064 0.000279742 3.51562V20.4844C0.000279742 20.6595 0.000279742 20.8318 0.000279742 21.0001C0.000279742 22.657 1.33234 24 2.98919 24C9.05835 24 22.7768 24 29.002 24C30.6588 24 32 22.657 32 21.0001C32 20.8318 32 20.6595 32 20.4844V3.51562C32 3.34046 32 3.16824 32 2.99987Z" fill="#3870DE"/>
<path d="M19.2335 4H12.7665C10.1382 4 8 6.13823 8 8.76649V15.2335C8 17.8618 10.1382 20 12.7665 20H19.2335C21.8618 20 24 17.8618 24 15.2335V8.76649C24 6.13823 21.8617 4 19.2335 4ZM22.3904 15.2335C22.3904 16.977 20.977 18.3904 19.2335 18.3904H12.7665C11.023 18.3904 9.6096 16.977 9.6096 15.2335V8.76649C9.6096 7.02297 11.023 5.6096 12.7665 5.6096H19.2335C20.977 5.6096 22.3904 7.02297 22.3904 8.76649V15.2335Z" fill="white"/>
<path d="M16 8C13.7944 8 12 9.7944 12 12C12 14.2056 13.7944 16 16 16C18.2056 16 20 14.2056 20 12C20 9.79437 18.2056 8 16 8ZM16 14.4442C14.6501 14.4442 13.5559 13.3499 13.5559 12C13.5559 10.6501 14.6502 9.55586 16 9.55586C17.3499 9.55586 18.4441 10.6501 18.4441 12C18.4441 13.3499 17.3498 14.4442 16 14.4442Z" fill="white"/>
<path d="M20 9C20.5523 9 21 8.55228 21 8C21 7.44772 20.5523 7 20 7C19.4477 7 19 7.44772 19 8C19 8.55228 19.4477 9 20 9Z" fill="white"/>
</svg>
