<svg width="54" height="54" viewBox="0 0 54 54" fill="none" xmlns="http://www.w3.org/2000/svg">
<path d="M27 8C17.626 8 10 15.626 10 25C10 32.112 14.391 38.412 21 40.9V50C21 50.553 21.447 51 22 51H23V53C23 53.553 23.447 54 24 54H30C30.553 54 31 53.553 31 53V51H32C32.553 51 33 50.553 33 50V40.9C39.609 38.412 44 32.112 44 25C44 15.626 36.374 8 27 8ZM30 49C29.447 49 29 49.447 29 50V52H25V50C25 49.447 24.553 49 24 49H23V44H31V49H30ZM31.688 39.242C31.277 39.377 31 39.761 31 40.192V42H23V40.192C23 39.76 22.723 39.377 22.312 39.242C16.145 37.214 12 31.49 12 25C12 16.729 18.729 10 27 10C35.271 10 42 16.729 42 25C42 31.49 37.855 37.214 31.688 39.242Z" fill="#3870DE"/>
<path d="M27 6C27.553 6 28 5.553 28 5V1C28 0.447 27.553 0 27 0C26.447 0 26 0.447 26 1V5C26 5.553 26.447 6 27 6Z" fill="#3870DE"/>
<path d="M51 24H47C46.447 24 46 24.447 46 25C46 25.553 46.447 26 47 26H51C51.553 26 52 25.553 52 25C52 24.447 51.553 24 51 24Z" fill="#3870DE"/>
<path d="M7 24H3C2.447 24 2 24.447 2 25C2 25.553 2.447 26 3 26H7C7.553 26 8 25.553 8 25C8 24.447 7.553 24 7 24Z" fill="#3870DE"/>
<path d="M43.2638 7.322L40.4358 10.15C40.0448 10.541 40.0448 11.173 40.4358 11.564C40.6308 11.759 40.8868 11.857 41.1428 11.857C41.3988 11.857 41.6548 11.759 41.8498 11.564L44.6778 8.736C45.0688 8.345 45.0688 7.713 44.6778 7.322C44.2868 6.931 43.6538 6.932 43.2638 7.322Z" fill="#3870DE"/>
<path d="M12.1505 38.436L9.32255 41.264C8.93155 41.655 8.93155 42.287 9.32255 42.678C9.51755 42.873 9.77355 42.971 10.0295 42.971C10.2855 42.971 10.5415 42.873 10.7365 42.678L13.5645 39.85C13.9555 39.459 13.9555 38.827 13.5645 38.436C13.1735 38.045 12.5415 38.045 12.1505 38.436Z" fill="#3870DE"/>
<path d="M41.8498 38.436C41.4588 38.045 40.8268 38.045 40.4358 38.436C40.0448 38.827 40.0448 39.459 40.4358 39.85L43.2638 42.678C43.4588 42.873 43.7148 42.971 43.9708 42.971C44.2268 42.971 44.4828 42.873 44.6778 42.678C45.0688 42.287 45.0688 41.655 44.6778 41.264L41.8498 38.436Z" fill="#3870DE"/>
<path d="M12.1505 11.564C12.3455 11.759 12.6015 11.857 12.8575 11.857C13.1135 11.857 13.3695 11.759 13.5645 11.564C13.9555 11.173 13.9555 10.541 13.5645 10.15L10.7365 7.322C10.3455 6.931 9.71355 6.931 9.32255 7.322C8.93155 7.713 8.93155 8.345 9.32255 8.736L12.1505 11.564Z" fill="#3870DE"/>
<path d="M27 13C20.383 13 15 18.383 15 25C15 25.553 15.447 26 16 26C16.553 26 17 25.553 17 25C17 19.486 21.486 15 27 15C27.553 15 28 14.553 28 14C28 13.447 27.553 13 27 13Z" fill="#3870DE"/>
</svg>
