<svg width="24" height="24" viewBox="0 0 24 24" fill="none" xmlns="http://www.w3.org/2000/svg">
<g clip-path="url(#clip0)">
<path d="M6.01867 23.6384H1.21299V9.22135H6.01867V23.6384ZM3.61583 6.49814C2.01394 6.49814 0.732422 5.21662 0.732422 3.61473C0.732422 2.01284 2.01394 0.731323 3.61583 0.731323C5.21772 0.731323 6.49923 2.01284 6.49923 3.61473C6.49923 5.21662 5.21772 6.49814 3.61583 6.49814ZM23.6395 23.6384H18.8338V15.1484C18.8338 13.8669 17.7125 12.7455 16.431 12.7455C15.1495 12.7455 14.0281 13.8669 14.0281 15.1484V23.6384H9.22245V9.22135H14.0281V11.1436C14.8291 9.86211 16.5912 8.90097 18.0329 8.90097C21.0765 8.90097 23.6395 11.464 23.6395 14.5076V23.6384Z" fill="#3870DE"/>
</g>
<defs>
<clipPath id="clip0">
<rect width="23.9979" height="23.9979" fill="white"/>
</clipPath>
</defs>
</svg>
