<svg width="54" height="54" viewBox="0 0 54 54" fill="none" xmlns="http://www.w3.org/2000/svg">
<g clip-path="url(#clip0)">
<path d="M51.4275 2.57148C47.997 -0.857158 42.4171 -0.857158 38.9865 2.57148L3.74042 37.8176C3.7238 37.8342 3.71403 37.8547 3.69937 37.8723C3.67884 37.8958 3.66125 37.9212 3.64268 37.9466C3.59088 38.0189 3.55081 38.0961 3.52051 38.1802C3.51171 38.2056 3.499 38.2281 3.49216 38.2535C3.48923 38.2633 3.48337 38.273 3.48043 38.2828L0.0254118 52.7969C0.00977376 52.8623 0.00586425 52.9288 0.0039095 52.9943C0.0039095 53.007 0 53.0187 0 53.0314C0.000977376 53.1428 0.0254118 53.2513 0.0635294 53.3559C0.0723258 53.3803 0.0820995 53.4018 0.0928507 53.4253C0.140742 53.5299 0.200362 53.6306 0.284416 53.7146C0.377267 53.8075 0.486733 53.8788 0.604995 53.9277C0.723258 53.9765 0.849339 54.001 0.975421 54.001C1.05068 54.001 1.12691 53.9922 1.20119 53.9746L15.7152 50.5196C15.7416 50.5137 15.7651 50.499 15.7905 50.4902C15.8237 50.4795 15.855 50.4668 15.8872 50.4521C15.9576 50.4199 16.0231 50.3798 16.0837 50.3319C16.1071 50.3133 16.1316 50.2997 16.1541 50.2791C16.1619 50.2713 16.1717 50.2674 16.1795 50.2596L51.4266 15.0125C54.8572 11.5819 54.8572 6.00109 51.4275 2.57148ZM50.0455 3.95348C52.4772 6.38617 52.6845 10.2058 50.6808 12.8838L41.1153 3.31819C43.7942 1.31457 47.6138 1.52177 50.0455 3.95348ZM45.2075 18.4675L35.5315 8.79149L36.9135 7.40948L46.5895 17.0855L45.2075 18.4675ZM4.84876 49.1503C4.46661 48.7681 3.8489 48.7681 3.46675 49.1503L2.72688 49.8901L5.22309 39.4049L9.54505 38.925L8.98892 43.9311C8.98501 43.9682 8.9987 44.0024 8.9987 44.0386C8.9987 44.0757 8.98501 44.109 8.98892 44.1461C8.99283 44.1784 9.00945 44.2047 9.01629 44.236C9.02802 44.2927 9.04463 44.3445 9.06516 44.3973C9.09057 44.4608 9.12087 44.5185 9.15801 44.5742C9.18831 44.6191 9.21861 44.6592 9.25575 44.6983C9.30266 44.7482 9.35348 44.7902 9.40919 44.8293C9.45318 44.8596 9.4952 44.8879 9.54407 44.9114C9.60858 44.9417 9.67602 44.9593 9.74639 44.9759C9.78353 44.9847 9.81383 45.0052 9.85195 45.0101C9.88713 45.014 9.92232 45.016 9.95848 45.016H9.95946H9.96043H9.96141H9.96239C9.99757 45.016 10.0337 45.014 10.0689 45.0101L15.075 44.454L14.5951 48.7759L4.10889 51.2721L4.84876 50.5323C5.22994 50.1511 5.22994 49.5324 4.84876 49.1503ZM17.1148 43.7952L38.9865 21.9225C39.3687 21.5404 39.3687 20.9227 38.9865 20.5405C38.6044 20.1584 37.9867 20.1584 37.6045 20.5405L15.7328 42.4132L11.0678 42.9312L11.5858 38.2662L33.4595 16.3945C33.8416 16.0123 33.8416 15.3946 33.4595 15.0125C33.0773 14.6303 32.4596 14.6303 32.0775 15.0125L10.2038 36.8842L7.09281 37.2302L34.1495 10.1735L43.8255 19.8495L16.7688 46.9062L17.1148 43.7952ZM47.9715 15.7035L38.2955 6.02747L39.6785 4.64449L49.3545 14.3205L47.9715 15.7035Z" fill="#3870DE"/>
<path d="M9 9H11V22C11 22.5523 10.5523 23 10 23C9.44772 23 9 22.5523 9 22V9Z" fill="#3870DE"/>
<path d="M9 11L9 9L22 9C22.5523 9 23 9.44772 23 10C23 10.5523 22.5523 11 22 11L9 11Z" fill="#3870DE"/>
<path d="M45 45H43V32C43 31.4477 43.4477 31 44 31C44.5523 31 45 31.4477 45 32V45Z" fill="#3870DE"/>
<path d="M45 43L45 45L32 45C31.4477 45 31 44.5523 31 44C31 43.4477 31.4477 43 32 43L45 43Z" fill="#3870DE"/>
</g>
<defs>
<clipPath id="clip0">
<rect width="54" height="54" fill="white"/>
</clipPath>
</defs>
</svg>
