<svg width="54" height="54" viewBox="0 0 54 54" fill="none" xmlns="http://www.w3.org/2000/svg">
<path d="M21.3059 37.8424C21.102 37.8424 20.8965 37.7722 20.7289 37.6294L14.9599 32.7172C14.7609 32.5475 14.6465 32.2998 14.6465 32.0381C14.6465 31.7769 14.7614 31.5292 14.9599 31.3595L20.7289 26.4473C21.1035 26.1279 21.6661 26.1731 21.9855 26.5478C22.3044 26.9229 22.2596 27.4855 21.8845 27.8044L16.9131 32.0381L21.8845 36.2718C22.2596 36.5912 22.3044 37.1538 21.9855 37.5285C21.8089 37.7359 21.5582 37.8424 21.3059 37.8424Z" fill="#3870DE"/>
<path d="M32.6947 37.8424C32.4425 37.8424 32.1917 37.7359 32.0156 37.5285C31.6962 37.1538 31.7415 36.5912 32.1161 36.2718L37.0876 32.0381L32.1161 27.8044C31.7415 27.4855 31.6962 26.9229 32.0156 26.5478C32.3345 26.1731 32.8977 26.1279 33.2718 26.4473L39.0407 31.3595C39.2397 31.5292 39.3541 31.7769 39.3541 32.0381C39.3541 32.2998 39.2397 32.5475 39.0407 32.7172L33.2718 37.6294C33.1041 37.7722 32.8987 37.8424 32.6947 37.8424Z" fill="#3870DE"/>
<path d="M24.9593 41.5268C24.8981 41.5268 24.8364 41.5203 24.7743 41.5074C24.2927 41.4059 23.9842 40.9328 24.0857 40.4512L27.6811 23.3807C27.7826 22.8991 28.2552 22.5907 28.7373 22.6922C29.2189 22.7937 29.5273 23.2663 29.4258 23.7484L25.8304 40.8189C25.7419 41.2387 25.3717 41.5268 24.9593 41.5268Z" fill="#3870DE"/>
<path d="M48.0142 50.827H5.98585C2.68547 50.827 0 48.142 0 44.8411V9.16981C0 5.86943 2.68547 3.18396 5.98585 3.18396H48.0142C51.3145 3.18396 54 5.86943 54 9.16981V44.8411C54 48.142 51.3145 50.827 48.0142 50.827ZM5.98585 4.96698C3.66852 4.96698 1.78302 6.85248 1.78302 9.16981V44.8411C1.78302 47.1585 3.66852 49.044 5.98585 49.044H48.0142C50.3315 49.044 52.217 47.1585 52.217 44.8411V9.16981C52.217 6.85248 50.3315 4.96698 48.0142 4.96698H5.98585Z" fill="#3870DE"/>
<path d="M53.1085 17.4596H0.891509C0.39899 17.4596 0 17.0606 0 16.5681C0 16.076 0.39899 15.6765 0.891509 15.6765H53.1085C53.601 15.6765 54 16.076 54 16.5681C54 17.0606 53.601 17.4596 53.1085 17.4596Z" fill="#3870DE"/>
<path d="M15.2314 13.1935C13.6763 13.1935 12.4102 11.9274 12.4102 10.3723C12.4102 8.81659 13.6763 7.55096 15.2314 7.55096C16.7871 7.55096 18.0527 8.81659 18.0527 10.3723C18.0527 11.9274 16.7871 13.1935 15.2314 13.1935ZM15.2314 9.33398C14.6593 9.33398 14.1932 9.79964 14.1932 10.3723C14.1932 10.9449 14.6593 11.4105 15.2314 11.4105C15.8041 11.4105 16.2697 10.9449 16.2697 10.3723C16.2697 9.79964 15.8041 9.33398 15.2314 9.33398Z" fill="#3870DE"/>
<path d="M6.56348 13.1662C5.00781 13.1662 3.74219 11.9006 3.74219 10.3449C3.74219 8.78923 5.00781 7.52361 6.56348 7.52361C8.11914 7.52361 9.38476 8.78923 9.38476 10.3449C9.38476 11.9006 8.11914 13.1662 6.56348 13.1662ZM6.56348 9.30662C5.99136 9.30662 5.52521 9.77278 5.52521 10.3449C5.52521 10.9175 5.99136 11.3832 6.56348 11.3832C7.13609 11.3832 7.60175 10.9175 7.60175 10.3449C7.60175 9.77278 7.13609 9.30662 6.56348 9.30662Z" fill="#3870DE"/>
<path d="M23.9009 13.2204C22.3457 13.2204 21.0801 11.9548 21.0801 10.3991C21.0801 8.84395 22.3457 7.57832 23.9009 7.57832C25.4565 7.57832 26.7222 8.84395 26.7222 10.3991C26.7222 11.9548 25.4565 13.2204 23.9009 13.2204ZM23.9009 9.36084C23.3288 9.36084 22.8631 9.8265 22.8631 10.3991C22.8631 10.9717 23.3288 11.4374 23.9009 11.4374C24.4735 11.4374 24.9391 10.9717 24.9391 10.3991C24.9391 9.8265 24.4735 9.36084 23.9009 9.36084Z" fill="#3870DE"/>
</svg>
