<svg width="54" height="54" viewBox="0 0 54 54" fill="none" xmlns="http://www.w3.org/2000/svg">
<path d="M6 8.4375H7.6875V10.125H6V8.4375Z" fill="#3870DE"/>
<path d="M9.375 8.4375H11.0625V10.125H9.375V8.4375Z" fill="#3870DE"/>
<path d="M12.75 8.4375H14.4375V10.125H12.75V8.4375Z" fill="#3870DE"/>
<path d="M22.875 32.9062H24.5625V45.5625H22.875V32.9062Z" fill="#3870DE"/>
<path d="M16.125 41.3438H17.8125V45.5625H16.125V41.3438Z" fill="#3870DE"/>
<path d="M48.7835 34.7347C47.5193 33.4697 45.9092 32.6069 44.1557 32.2549C42.4023 31.9028 40.5839 32.0772 38.9294 32.7561C38.7987 32.807 38.6829 32.8896 38.5922 32.9965C38.5015 33.1034 38.4389 33.2312 38.41 33.3684C38.3811 33.5056 38.3869 33.6478 38.4267 33.7822C38.4666 33.9166 38.5393 34.0389 38.6383 34.1382L43.3793 38.8792L42.7043 41.7868L39.7967 42.4618L35.0608 37.7157C34.9617 37.6166 34.8395 37.5438 34.7053 37.5037C34.571 37.4637 34.4289 37.4578 34.2917 37.4864C34.1546 37.515 34.0267 37.5774 33.9197 37.6678C33.8127 37.7582 33.7299 37.8738 33.6787 38.0042C32.9998 39.6586 32.8253 41.4769 33.1774 43.2302C33.5295 44.9835 34.3923 46.5935 35.6573 47.8575C36.8669 49.0667 38.3872 49.918 40.0501 50.3177C41.7131 50.7173 43.4542 50.6496 45.0811 50.1222L46.9914 52.0366L48.1845 50.8436L45.8945 48.5536C45.7785 48.4376 45.6311 48.3579 45.4704 48.3243C45.3098 48.2907 45.1428 48.3047 44.99 48.3646C43.6147 48.9038 42.1121 49.0304 40.666 48.7289C39.2199 48.4273 37.8931 47.7108 36.8478 46.667C35.9763 45.7979 35.3377 44.7231 34.9912 43.5421C34.6447 42.361 34.6013 41.1117 34.865 39.9094L38.9395 43.9839C39.0405 44.085 39.1656 44.1589 39.303 44.1984C39.4404 44.238 39.5857 44.242 39.725 44.21L43.6063 43.3148C43.7605 43.2793 43.9016 43.2011 44.0135 43.0892C44.1254 42.9773 44.2036 42.8362 44.2391 42.682L45.1343 38.8007C45.1664 38.6612 45.1625 38.5159 45.1229 38.3783C45.0834 38.2407 45.0095 38.1155 44.9082 38.0143L40.832 33.9424C42.0347 33.6786 43.2846 33.7222 44.466 34.0692C45.6474 34.4162 46.7223 35.0554 47.5913 35.9278C48.6355 36.9728 49.3521 38.2997 49.6535 39.7459C49.9549 41.1921 49.8279 42.6948 49.2881 44.0699C49.2282 44.2227 49.2142 44.3897 49.2478 44.5504C49.2813 44.711 49.361 44.8584 49.4771 44.9744L51.767 47.2635L52.9592 46.0688L51.0465 44.1568C51.5738 42.5303 51.6416 40.7896 51.2422 39.127C50.8429 37.4644 49.9921 35.9444 48.7835 34.7347Z" fill="#3870DE"/>
<path d="M27.0938 30.375V27C27.0938 26.7762 27.0049 26.5616 26.8466 26.4034C26.6884 26.2451 26.4738 26.1562 26.25 26.1562H24.5625V19.4062H22.875V26.1562H21.1875C20.9637 26.1562 20.7491 26.2451 20.5909 26.4034C20.4326 26.5616 20.3438 26.7762 20.3438 27V30.375C20.3438 30.5988 20.4326 30.8134 20.5909 30.9716C20.7491 31.1299 20.9637 31.2188 21.1875 31.2188H26.25C26.4738 31.2188 26.6884 31.1299 26.8466 30.9716C27.0049 30.8134 27.0938 30.5988 27.0938 30.375ZM25.4062 29.5312H22.0312V27.8438H25.4062V29.5312Z" fill="#3870DE"/>
<path d="M9.375 28.6875H11.0625V45.5625H9.375V28.6875Z" fill="#3870DE"/>
<path d="M13.5938 26.1562V22.7812C13.5938 22.5575 13.5049 22.3429 13.3466 22.1846C13.1884 22.0264 12.9738 21.9375 12.75 21.9375H11.0625V19.4062H9.375V21.9375H7.6875C7.46372 21.9375 7.24911 22.0264 7.09088 22.1846C6.93265 22.3429 6.84375 22.5575 6.84375 22.7812V26.1562C6.84375 26.38 6.93265 26.5946 7.09088 26.7529C7.24911 26.9111 7.46372 27 7.6875 27H12.75C12.9738 27 13.1884 26.9111 13.3466 26.7529C13.5049 26.5946 13.5938 26.38 13.5938 26.1562ZM11.9062 25.3125H8.53125V23.625H11.9062V25.3125Z" fill="#3870DE"/>
<path d="M20.3438 38.8125V35.4375C20.3438 35.2137 20.2549 34.9991 20.0966 34.8409C19.9384 34.6826 19.7238 34.5938 19.5 34.5938H17.8125V19.4062H16.125V34.5938H14.4375C14.2137 34.5938 13.9991 34.6826 13.8409 34.8409C13.6826 34.9991 13.5938 35.2137 13.5938 35.4375V38.8125C13.5938 39.0363 13.6826 39.2509 13.8409 39.4091C13.9991 39.5674 14.2137 39.6562 14.4375 39.6562H19.5C19.7238 39.6562 19.9384 39.5674 20.0966 39.4091C20.2549 39.2509 20.3438 39.0363 20.3438 38.8125ZM18.6562 37.9688H15.2812V36.2812H18.6562V37.9688Z" fill="#3870DE"/>
<path d="M47.2812 16.875C47.2812 16.6512 47.1924 16.4366 47.0341 16.2784C46.8759 16.1201 46.6613 16.0312 46.4375 16.0312H35.4688C35.245 16.0312 35.0304 16.1201 34.8721 16.2784C34.7139 16.4366 34.625 16.6512 34.625 16.875V21.9375C34.625 22.1613 34.7139 22.3759 34.8721 22.5341C35.0304 22.6924 35.245 22.7812 35.4688 22.7812H46.4375C46.6613 22.7812 46.8759 22.6924 47.0341 22.5341C47.1924 22.3759 47.2812 22.1613 47.2812 21.9375V16.875ZM45.5938 21.0938H36.3125V17.7188H45.5938V21.0938Z" fill="#3870DE"/>
<path d="M34.625 24.4688H36.3125V26.1562H34.625V24.4688Z" fill="#3870DE"/>
<path d="M38 24.4688H47.2812V26.1562H38V24.4688Z" fill="#3870DE"/>
<path d="M34.625 27.8438H47.2812V29.5312H34.625V27.8438Z" fill="#3870DE"/>
<path d="M9.375 16.0312H11.0625V17.7188H9.375V16.0312Z" fill="#3870DE"/>
<path d="M16.125 16.0312H17.8125V17.7188H16.125V16.0312Z" fill="#3870DE"/>
<path d="M22.875 16.0312H24.5625V17.7188H22.875V16.0312Z" fill="#3870DE"/>
<path d="M0 8.39623V46.6038C0 47.5045 0.397114 48.3684 1.10398 49.0053C1.81085 49.6422 2.76957 50 3.76923 50H32.0385V48.3019H3.76923C3.2694 48.3019 2.79004 48.123 2.43661 47.8045C2.08317 47.4861 1.88462 47.0541 1.88462 46.6038V13.4906H52.1154V33.0189H54V8.39623C54 7.49549 53.6029 6.63165 52.896 5.99473C52.1892 5.35782 51.2304 5 50.2308 5H3.76923C2.76957 5 1.81085 5.35782 1.10398 5.99473C0.397114 6.63165 0 7.49549 0 8.39623ZM52.1154 8.39623V11.7925H1.88462V8.39623C1.88462 7.94586 2.08317 7.51394 2.43661 7.19548C2.79004 6.87702 3.2694 6.69811 3.76923 6.69811H50.2308C50.7306 6.69811 51.21 6.87702 51.5634 7.19548C51.9168 7.51394 52.1154 7.94586 52.1154 8.39623Z" fill="#3870DE"/>
</svg>
