<svg width="54" height="54" viewBox="0 0 54 54" fill="none" xmlns="http://www.w3.org/2000/svg">
<g clip-path="url(#clip0)">
<path d="M51.3 2.70001H2.7C1.20883 2.70001 0 3.90884 0 5.40001V43.2C0 44.6912 1.20883 45.9 2.7 45.9H28.8C29.2971 45.9 29.7 45.4971 29.7 45C29.7 44.503 29.2971 44.1 28.8 44.1H3.0726L5.7726 41.4H28.8C29.2971 41.4 29.7 40.9971 29.7 40.5C29.7 40.003 29.2971 39.6 28.8 39.6H6.3V9.00001H11.7C12.1971 9.00001 12.6 8.59707 12.6 8.10001C12.6 7.60296 12.1971 7.20001 11.7 7.20001H5.7726L3.0726 4.50001H50.9274L48.2274 7.20001H16.2C15.7029 7.20001 15.3 7.60296 15.3 8.10001C15.3 8.59707 15.7029 9.00001 16.2 9.00001H47.7V39.6H44.1C43.6029 39.6 43.2 40.003 43.2 40.5C43.2 40.9971 43.6029 41.4 44.1 41.4H48.2274L50.8599 44.0325C50.7102 44.0749 50.5556 44.0976 50.4 44.1H44.1C43.6029 44.1 43.2 44.503 43.2 45C43.2 45.4971 43.6029 45.9 44.1 45.9H50.4C52.3882 45.9 54 44.2882 54 42.3V5.40001C54 3.90884 52.7912 2.70001 51.3 2.70001ZM4.5 40.1274L1.8 42.8274V5.77261L4.5 8.47261V40.1274ZM52.1325 42.7599L49.5 40.1274V8.47261L52.2 5.77261V42.3C52.1977 42.4556 52.175 42.6102 52.1325 42.7599Z" fill="#3870DE"/>
<path d="M33.3008 14.4C33.7979 14.4 34.2008 13.997 34.2008 13.5C34.2008 13.0029 33.7979 12.6 33.3008 12.6H20.7008C20.2037 12.6 19.8008 13.0029 19.8008 13.5C19.8008 13.997 20.2037 14.4 20.7008 14.4H33.3008Z" fill="#3870DE"/>
<path d="M24.2998 32.4H11.6998C11.2027 32.4 10.7998 32.803 10.7998 33.3C10.7998 33.7971 11.2027 34.2 11.6998 34.2H24.2998C24.7969 34.2 25.1998 33.7971 25.1998 33.3C25.1998 32.803 24.7969 32.4 24.2998 32.4Z" fill="#3870DE"/>
<path d="M36.9006 18C36.9006 17.503 36.4976 17.1 36.0006 17.1H18.0006C17.5035 17.1 17.1006 17.503 17.1006 18C17.1006 18.4971 17.5035 18.9 18.0006 18.9H36.0006C36.4976 18.9 36.9006 18.4971 36.9006 18Z" fill="#3870DE"/>
<path d="M29.7675 37.7316C30.2404 38.1521 30.8725 38.3468 31.5 38.2653V48.942C31.4978 49.568 31.821 50.1501 32.3534 50.4793C32.8858 50.8084 33.551 50.8374 34.11 50.5557L36.45 49.3767L38.7963 50.5593C39.3553 50.8383 40.0191 50.8074 40.5498 50.4777C41.0805 50.1481 41.4023 49.5668 41.4 48.942V38.2653C42.0278 38.347 42.6603 38.1523 43.1334 37.7316C44.2314 36.6327 43.2711 34.5816 43.5195 33.9777C43.7535 33.4152 45.9 32.6484 45.9 31.05C45.9 29.4516 43.7553 28.692 43.5195 28.1223C43.2765 27.5355 44.2278 25.4628 43.1325 24.3684C42.0372 23.274 39.9762 24.2289 39.3786 23.9805C38.8125 23.7465 38.0475 21.6 36.45 21.6C34.8525 21.6 34.0848 23.7474 33.5223 23.9805C32.8986 24.2298 30.87 23.2659 29.7666 24.3684C28.6632 25.4709 29.6289 27.5184 29.3805 28.1223C29.1465 28.6848 27 29.4516 27 31.05C27 32.6484 29.1447 33.408 29.3805 33.9777C29.6235 34.5645 28.6722 36.6372 29.7675 37.7316ZM37.26 47.7684C36.7499 47.5141 36.1501 47.5141 35.64 47.7684L33.3 48.942V38.088C33.375 38.0864 33.4498 38.097 33.5214 38.1195C34.0875 38.3535 34.8525 40.5 36.45 40.5C38.0475 40.5 38.8152 38.3526 39.3777 38.1195C39.4496 38.0967 39.5246 38.0858 39.6 38.087V48.9483L37.26 47.7684ZM28.8 31.0626C28.8459 30.8826 29.3751 30.4875 29.6586 30.2751C31.1364 29.1726 31.3821 28.6857 31.1112 26.7399C31.0448 26.3839 31.0146 26.022 31.0212 25.6599C31.3959 25.6146 31.7755 25.6323 32.1444 25.7121C34.0704 25.9821 34.5627 25.7526 35.6787 24.2604C35.8862 23.9366 36.1421 23.6464 36.4374 23.4C36.6174 23.4459 37.0116 23.9742 37.224 24.2586C38.3391 25.7508 38.8314 25.9803 40.7583 25.7112C41.1143 25.6445 41.4762 25.6143 41.8383 25.6212C41.8836 25.9956 41.8659 26.3749 41.7861 26.7435C41.6251 27.4273 41.6484 28.1416 41.8536 28.8135C42.2937 29.8665 43.938 30.6 44.1 31.05C43.9443 31.4865 42.2955 32.238 41.8599 33.2883C41.6546 33.9602 41.6313 34.6745 41.7924 35.3583C41.8588 35.7143 41.889 36.0762 41.8824 36.4383C41.5077 36.4836 41.1281 36.4659 40.7592 36.3861C38.8134 36.1161 38.3292 36.3645 37.2249 37.8378C37.0165 38.1615 36.7597 38.4514 36.4635 38.6973C36.2835 38.6514 35.8893 38.1231 35.6769 37.8387C34.5618 36.3456 34.0704 36.1179 32.1426 36.3861C31.7866 36.4528 31.4247 36.483 31.0626 36.4761C31.0173 36.1017 31.035 35.7224 31.1148 35.3538C31.3848 33.4107 31.1391 32.9238 29.6622 31.8186C29.3378 31.6122 29.047 31.3572 28.8 31.0626Z" fill="#3870DE"/>
<path d="M36.4504 35.1C38.6872 35.1 40.5004 33.2868 40.5004 31.05C40.5004 28.8132 38.6872 27 36.4504 27C34.2136 27 32.4004 28.8132 32.4004 31.05C32.4029 33.2857 34.2147 35.0975 36.4504 35.1ZM36.4504 28.8C37.693 28.8 38.7004 29.8074 38.7004 31.05C38.7004 32.2926 37.693 33.3 36.4504 33.3C35.2078 33.3 34.2004 32.2926 34.2004 31.05C34.2004 29.8074 35.2078 28.8 36.4504 28.8Z" fill="#3870DE"/>
<path d="M24.2998 28.8C22.6875 28.8075 21.0934 28.4587 19.6315 27.7785C20.5657 27.0603 21.1628 25.9889 21.2821 24.8166C21.2821 24.2766 21.0454 22.5 17.9998 22.5C14.9542 22.5 14.7175 24.273 14.7175 24.8166C14.8375 25.9875 15.4349 27.057 16.369 27.7731C14.9077 28.4564 13.313 28.8071 11.6998 28.8C11.2027 28.8 10.7998 29.2029 10.7998 29.7C10.7998 30.197 11.2027 30.6 11.6998 30.6C13.9112 30.6104 16.0867 30.0413 18.0097 28.9494C19.9295 30.0315 22.096 30.6 24.2998 30.6C24.7969 30.6 25.1998 30.197 25.1998 29.7C25.1998 29.2029 24.7969 28.8 24.2998 28.8ZM17.9926 26.7912C16.9216 25.9668 16.5175 25.1856 16.5175 24.8166C16.5175 24.4476 17.3158 24.3 17.9998 24.3C18.6838 24.3 19.4821 24.435 19.4821 24.8166C19.4821 25.29 18.9502 26.0586 17.9926 26.7912Z" fill="#3870DE"/>
</g>
<defs>
<clipPath id="clip0">
<rect width="54" height="54" fill="white"/>
</clipPath>
</defs>
</svg>
