<svg width="54" height="54" viewBox="0 0 54 54" fill="none" xmlns="http://www.w3.org/2000/svg">
<g clip-path="url(#clip0)">
<path d="M26.9991 0.00100708C22.2723 0.00100708 17.6285 1.24237 13.5323 3.60096H7.19911C4.71501 3.60391 2.70204 5.61688 2.69909 8.10098V15.239C0.912775 18.902 -0.0108116 22.9255 -0.000897585 27.0009C0.0159773 41.9055 12.0944 53.9839 26.999 54.0008C32.3796 54.0103 37.6378 52.3958 42.0858 49.3683L46.3155 52.0598C46.6485 52.2721 47.0809 52.2424 47.3818 51.9868C47.6827 51.7311 47.7817 51.3091 47.626 50.9462L45.7061 46.4658C45.9021 46.2782 46.0895 46.0902 46.2714 45.9009H46.7989C49.283 45.898 51.2959 43.885 51.2989 41.4009V38.762C53.0854 35.0994 54.0091 31.0761 53.9989 27.0009C53.9821 12.0962 41.9037 0.017882 26.9991 0.00100708ZM4.49912 8.10098C4.5007 6.6105 5.70863 5.40257 7.19911 5.40099H29.699C31.1895 5.40257 32.3974 6.6105 32.399 8.10098V23.4009C32.3974 24.8914 31.1895 26.0994 29.699 26.1009H17.0991C17.0738 26.1009 17.0526 26.1133 17.0278 26.1154C16.9085 26.1292 16.7924 26.163 16.6843 26.2153C16.662 26.2269 16.6374 26.2278 16.6157 26.2416L9.17411 30.9776L10.7263 27.3555L10.7266 27.3539C10.747 27.2911 10.7605 27.2264 10.7669 27.1607C10.7821 27.1091 10.7927 27.0563 10.7988 27.0028L10.7992 27.0009C10.7992 26.977 10.7875 26.9568 10.7856 26.9333C10.7814 26.8397 10.7628 26.7475 10.7303 26.6596C10.6689 26.5623 10.6056 26.4662 10.5403 26.3715C10.4698 26.3034 10.3885 26.2473 10.2998 26.2056C10.2827 26.1969 10.2716 26.1815 10.2539 26.1738L10.2523 26.1735C10.1997 26.1575 10.1458 26.1461 10.0912 26.1396C10.0288 26.1199 9.96449 26.107 9.89931 26.1009H7.19911C5.70863 26.0994 4.5007 24.8914 4.49912 23.4009V8.10098ZM26.9991 52.2008C19.137 52.2008 11.7253 48.5313 6.95875 42.2788C2.19221 36.0264 0.616725 27.9076 2.6992 20.3262V23.4008C2.70215 25.8849 4.71512 27.8979 7.19921 27.9009H8.53444L6.37213 32.9463C6.21667 33.3091 6.31571 33.7309 6.6165 33.9866C6.9173 34.2422 7.34951 34.2721 7.68258 34.0603L17.3615 27.901H19.7991V41.4009C19.802 43.885 21.815 45.898 24.2991 45.9009H36.6368L40.4214 48.3092C36.4095 50.8587 31.7526 52.2089 26.9991 52.2008ZM49.499 41.4008C49.4974 42.8913 48.2895 44.0992 46.799 44.1008H44.099L44.0974 44.1011C44.029 44.107 43.9615 44.1206 43.8962 44.1417C43.8453 44.148 43.7951 44.1586 43.7461 44.1733H43.7457L43.7329 44.182C43.6303 44.2273 43.5371 44.2914 43.4581 44.3709C43.393 44.4656 43.3296 44.5615 43.2681 44.6586C43.2274 44.7602 43.2056 44.8683 43.2038 44.9776C43.2036 44.9858 43.1991 44.9925 43.1991 45.0008L43.1992 45.0014C43.2047 45.0801 43.2205 45.1578 43.2459 45.2325C43.2516 45.273 43.2598 45.3132 43.2708 45.3525L43.2712 45.3545L44.8216 48.9734L42.5649 47.5379L42.543 47.524L37.3816 44.2409C37.3603 44.2274 37.3358 44.2264 37.3138 44.2149C37.2059 44.1628 37.0901 44.1291 36.971 44.1152C36.946 44.1131 36.9245 44.1007 36.899 44.1007H24.2991C22.8086 44.0991 21.6007 42.8912 21.5991 41.4007V27.9008H29.6991C32.1832 27.8978 34.1962 25.8848 34.1991 23.4007H46.7991C48.2896 23.4023 49.4975 24.6102 49.4991 26.1007V41.4008H49.499ZM46.799 21.6009H34.199V8.10098C34.196 5.61688 32.1831 3.60391 29.699 3.60096H17.6616C26.5435 0.0552178 36.6672 1.84375 43.7966 8.21794C50.9261 14.5921 53.8321 24.4533 51.2989 33.6753V26.1008C51.2961 23.6168 49.2831 21.6038 46.799 21.6009Z" fill="#3870DE"/>
<path d="M10.7982 18.9C12.7864 18.9 14.3981 17.2883 14.3981 15.3001C14.3981 13.3119 12.7864 11.7001 10.7982 11.7001C8.81001 11.7001 7.19824 13.3119 7.19824 15.3001C7.20046 17.2873 8.81085 18.8977 10.7982 18.9ZM10.7982 13.5001C11.7923 13.5001 12.5982 14.3059 12.5982 15.3001C12.5982 16.2942 11.7923 17.1001 10.7982 17.1001C9.80405 17.1001 8.99817 16.2942 8.99817 15.3001C8.99922 14.3063 9.80447 13.501 10.7982 13.5001Z" fill="#3870DE"/>
<path d="M18.8998 18.9C20.8879 18.9 22.4997 17.2883 22.4997 15.3001C22.4997 13.3119 20.8879 11.7001 18.8998 11.7001C16.9116 11.7001 15.2998 13.3119 15.2998 15.3001C15.302 17.2873 16.9124 18.8977 18.8998 18.9ZM18.8998 13.5001C19.8939 13.5001 20.6998 14.3059 20.6998 15.3001C20.6998 16.2942 19.8939 17.1001 18.8998 17.1001C17.9056 17.1001 17.0997 16.2942 17.0997 15.3001C17.1008 14.3063 17.906 13.501 18.8998 13.5001Z" fill="#3870DE"/>
<path d="M26.9984 18.9C28.9866 18.9 30.5984 17.2883 30.5984 15.3001C30.5984 13.3119 28.9866 11.7001 26.9984 11.7001C25.0102 11.7001 23.3984 13.3119 23.3984 15.3001C23.4007 17.2873 25.0111 18.8977 26.9984 18.9ZM26.9984 13.5001C27.9925 13.5001 28.7984 14.3059 28.7984 15.3001C28.7984 16.2942 27.9925 17.1001 26.9984 17.1001C26.0043 17.1001 25.1984 16.2942 25.1984 15.3001C25.1993 14.3063 26.0047 13.501 26.9984 13.5001Z" fill="#3870DE"/>
<path d="M26.9984 29.7C25.0102 29.7 23.3984 31.3118 23.3984 33.3C23.3984 35.2882 25.0102 36.8999 26.9984 36.8999C28.9866 36.8999 30.5984 35.2882 30.5984 33.3C30.5961 31.3128 28.9856 29.7023 26.9984 29.7ZM26.9984 35.1C26.0043 35.1 25.1984 34.2941 25.1984 33.3C25.1984 32.3058 26.0043 31.5 26.9984 31.5C27.9925 31.5 28.7984 32.3058 28.7984 33.3C28.7974 34.2937 27.992 35.099 26.9984 35.1Z" fill="#3870DE"/>
<path d="M35.1 29.7C33.1118 29.7 31.5 31.3118 31.5 33.3C31.5 35.2882 33.1118 36.8999 35.1 36.8999C37.0881 36.8999 38.6999 35.2882 38.6999 33.3C38.6977 31.3128 37.0872 29.7023 35.1 29.7ZM35.1 35.1C34.1058 35.1 33.2999 34.2941 33.2999 33.3C33.2999 32.3058 34.1058 31.5 35.1 31.5C36.0941 31.5 36.9 32.3058 36.9 33.3C36.8989 34.2937 36.0936 35.099 35.1 35.1Z" fill="#3870DE"/>
<path d="M43.1986 29.7C41.2104 29.7 39.5986 31.3118 39.5986 33.3C39.5986 35.2882 41.2104 36.8999 43.1986 36.8999C45.1868 36.8999 46.7985 35.2882 46.7985 33.3C46.7963 31.3128 45.1858 29.7023 43.1986 29.7ZM43.1986 35.1C42.2044 35.1 41.3986 34.2941 41.3986 33.3C41.3986 32.3058 42.2044 31.5 43.1986 31.5C44.1927 31.5 44.9986 32.3058 44.9986 33.3C44.9976 34.2937 44.1923 35.099 43.1986 35.1Z" fill="#3870DE"/>
</g>
<defs>
<clipPath id="clip0">
<rect width="54" height="54" fill="white"/>
</clipPath>
</defs>
</svg>
