<svg width="54" height="54" viewBox="0 0 54 54" fill="none" xmlns="http://www.w3.org/2000/svg">
<g clip-path="url(#clip0)">
<path d="M26.9996 -1.33514e-05C16.5664 0.01189 8.11151 8.46674 8.09961 18.9C8.09961 28.8441 14.5301 37.9845 19.7807 43.7931C14.6903 44.6832 11.6996 46.4337 11.6996 48.6C11.6996 52.1451 19.3964 54 26.9996 54C34.6028 54 42.2996 52.1451 42.2996 48.6C42.2996 46.4337 39.3089 44.6832 34.2185 43.7931C39.4691 37.9845 45.8996 28.8441 45.8996 18.9C45.8877 8.46674 37.4329 0.01189 26.9996 -1.33514e-05ZM26.9996 1.79999C36.4394 1.8104 44.0892 9.46024 44.0996 18.9C44.0996 32.877 30.0146 45.7344 26.9996 48.33C23.9828 45.7353 9.89961 32.8887 9.89961 18.9C9.91003 9.46024 17.5599 1.8104 26.9996 1.79999ZM40.4996 48.6C40.4996 50.0679 35.24 52.2 26.9996 52.2C18.7592 52.2 13.4996 50.0679 13.4996 48.6C13.4996 47.6937 15.9188 46.1259 21.263 45.3825C22.8903 47.0907 24.6181 48.7004 26.4371 50.2029C26.7659 50.4661 27.2333 50.4661 27.5621 50.2029C29.3811 48.7004 31.1089 47.0907 32.7362 45.3825C38.0804 46.1259 40.4996 47.6937 40.4996 48.6Z" fill="#3870DE"/>
<path d="M42.3002 18.9C42.3002 10.45 35.4502 3.59999 27.0002 3.59999C18.5502 3.59999 11.7002 10.45 11.7002 18.9C11.7002 27.35 18.5502 34.2 27.0002 34.2C35.4462 34.1906 42.2908 27.346 42.3002 18.9ZM13.5002 18.9C13.5002 11.4441 19.5444 5.39999 27.0002 5.39999C34.456 5.39999 40.5002 11.4441 40.5002 18.9C40.5002 26.3558 34.456 32.4 27.0002 32.4C19.5478 32.3916 13.5086 26.3523 13.5002 18.9Z" fill="#3870DE"/>
<path d="M19.485 18.6662C19.485 19.1162 19.5563 19.5437 19.6988 19.9487C19.8488 20.3537 20.0588 20.7137 20.3288 21.0287C20.5988 21.3362 20.9288 21.5837 21.3188 21.7712C21.7163 21.9512 22.1625 22.0412 22.6575 22.0412C23.145 22.0412 23.5838 21.9512 23.9738 21.7712C24.3713 21.5837 24.705 21.3362 24.975 21.0287C25.2525 20.7137 25.4663 20.3537 25.6163 19.9487C25.7663 19.5437 25.8413 19.1162 25.8413 18.6662C25.8413 18.2162 25.7663 17.7887 25.6163 17.3837C25.4663 16.9787 25.2525 16.6225 24.975 16.315C24.705 16 24.3713 15.7525 23.9738 15.5725C23.5838 15.385 23.145 15.2912 22.6575 15.2912C22.1625 15.2912 21.7163 15.385 21.3188 15.5725C20.9288 15.7525 20.5988 16 20.3288 16.315C20.0588 16.6225 19.8488 16.9787 19.6988 17.3837C19.5563 17.7887 19.485 18.2162 19.485 18.6662ZM27.2138 22.75H22.6575C22.08 22.75 21.5438 22.6487 21.0488 22.4462C20.5613 22.2437 20.1375 21.9625 19.7775 21.6025C19.4175 21.235 19.1363 20.8037 18.9338 20.3087C18.7313 19.8062 18.63 19.2587 18.63 18.6662C18.63 18.0737 18.7313 17.53 18.9338 17.035C19.1363 16.5325 19.4175 16.1012 19.7775 15.7412C20.1375 15.3737 20.5613 15.0887 21.0488 14.8862C21.5438 14.6837 22.08 14.5825 22.6575 14.5825C23.2275 14.5825 23.7563 14.6837 24.2438 14.8862C24.7388 15.0887 25.1663 15.3737 25.5263 15.7412C25.8863 16.1012 26.1675 16.5325 26.37 17.035C26.5725 17.53 26.6738 18.0737 26.6738 18.6662C26.6738 19.3712 26.5163 20.0162 26.2013 20.6012C25.8938 21.1787 25.4288 21.6475 24.8063 22.0075V22.03H27.2138V22.75ZM28.4825 22.75H27.5937L31.0362 14.785H31.8237L35.2437 22.75H34.3437L33.4662 20.6575H29.3487L28.4825 22.75ZM29.6525 19.915H33.1625L31.4075 15.685L29.6525 19.915Z" fill="#3870DE"/>
<path d="M19.6988 19.9487L19.2742 20.0981L19.2768 20.105L19.6988 19.9487ZM20.3288 21.0287L19.9871 21.3216L19.9906 21.3256L20.3288 21.0287ZM21.3188 21.7712L21.1237 22.1769L21.1331 22.1812L21.3188 21.7712ZM23.9738 21.7712L24.1623 22.1798L24.1657 22.1782L23.9738 21.7712ZM24.975 21.0287L24.6373 20.7313L24.6369 20.7318L24.975 21.0287ZM25.6163 19.9487L26.0382 20.105L26.0382 20.105L25.6163 19.9487ZM25.6163 17.3837L26.0382 17.2274L26.0382 17.2274L25.6163 17.3837ZM24.975 16.315L24.6332 16.6079L24.6409 16.6165L24.975 16.315ZM23.9738 15.5725L23.7787 15.9782L23.7881 15.9824L23.9738 15.5725ZM21.3188 15.5725L21.5073 15.9811L21.5107 15.9795L21.3188 15.5725ZM20.3288 16.315L20.6669 16.6119L20.6704 16.6078L20.3288 16.315ZM19.6988 17.3837L19.2767 17.2274L19.2743 17.2344L19.6988 17.3837ZM27.2138 22.75V23.2H27.6638V22.75H27.2138ZM21.0488 22.4462L20.8761 22.8618L20.8784 22.8627L21.0488 22.4462ZM19.7775 21.6025L19.456 21.9174L19.4593 21.9207L19.7775 21.6025ZM18.9338 20.3087L18.5164 20.4769L18.5173 20.4791L18.9338 20.3087ZM18.9338 17.035L19.3503 17.2054L19.3511 17.2032L18.9338 17.035ZM19.7775 15.7412L20.0957 16.0594L20.099 16.0561L19.7775 15.7412ZM21.0488 14.8862L20.8784 14.4697L20.8761 14.4707L21.0488 14.8862ZM24.2438 14.8862L24.0711 15.3018L24.0734 15.3027L24.2438 14.8862ZM25.5263 15.7412L25.2048 16.0562L25.2081 16.0594L25.5263 15.7412ZM26.37 17.035L25.9526 17.2032L25.9535 17.2054L26.37 17.035ZM26.2013 20.6012L25.805 20.3879L25.804 20.3897L26.2013 20.6012ZM24.8063 22.0075L24.581 21.6179L24.3563 21.7479V22.0075H24.8063ZM24.8063 22.03H24.3563V22.48H24.8063V22.03ZM27.2138 22.03H27.6638V21.58H27.2138V22.03ZM19.035 18.6662C19.035 19.1646 19.1141 19.6428 19.2743 20.0981L20.1232 19.7994C19.9984 19.4446 19.935 19.0678 19.935 18.6662H19.035ZM19.2768 20.105C19.4445 20.5579 19.681 20.9645 19.9871 21.3216L20.6704 20.7359C20.4365 20.4629 20.253 20.1496 20.1207 19.7924L19.2768 20.105ZM19.9906 21.3256C20.3028 21.6812 20.6824 21.9646 21.1238 22.1768L21.5137 21.3657C21.1751 21.2029 20.8947 20.9913 20.6669 20.7318L19.9906 21.3256ZM21.1331 22.1812C21.5963 22.3909 22.1071 22.4912 22.6575 22.4912V21.5912C22.2179 21.5912 21.8362 21.5116 21.5044 21.3613L21.1331 22.1812ZM22.6575 22.4912C23.2013 22.4912 23.7057 22.3906 24.1623 22.1798L23.7852 21.3627C23.4618 21.5119 23.0887 21.5912 22.6575 21.5912V22.4912ZM24.1657 22.1782C24.6148 21.9664 24.9995 21.6828 25.3131 21.3256L24.6369 20.7318C24.4105 20.9897 24.1277 21.2011 23.7818 21.3642L24.1657 22.1782ZM25.3127 21.3262C25.6278 20.9685 25.8696 20.5603 26.0382 20.105L25.1943 19.7924C25.0629 20.1471 24.8772 20.4589 24.6373 20.7313L25.3127 21.3262ZM26.0382 20.105C26.2075 19.6479 26.2913 19.1673 26.2913 18.6662H25.3913C25.3913 19.0652 25.325 19.4396 25.1943 19.7924L26.0382 20.105ZM26.2913 18.6662C26.2913 18.1652 26.2075 17.6846 26.0382 17.2274L25.1943 17.54C25.325 17.8929 25.3913 18.2673 25.3913 18.6662H26.2913ZM26.0382 17.2274C25.8693 16.7712 25.6265 16.3652 25.3091 16.0135L24.6409 16.6165C24.8786 16.8798 25.0632 17.1862 25.1943 17.54L26.0382 17.2274ZM25.3167 16.0221C25.0016 15.6546 24.6137 15.3683 24.1594 15.1626L23.7881 15.9824C24.1289 16.1367 24.4084 16.3454 24.6333 16.6078L25.3167 16.0221ZM24.1687 15.1669C23.7106 14.9467 23.2039 14.8412 22.6575 14.8412V15.7412C23.0861 15.7412 23.4569 15.8233 23.7788 15.978L24.1687 15.1669ZM22.6575 14.8412C22.1045 14.8412 21.5915 14.9463 21.1268 15.1655L21.5107 15.9795C21.841 15.8237 22.2205 15.7412 22.6575 15.7412V14.8412ZM21.1302 15.1639C20.6835 15.37 20.3007 15.6562 19.9871 16.0221L20.6704 16.6078C20.8968 16.3437 21.174 16.1349 21.5073 15.9811L21.1302 15.1639ZM19.9906 16.0181C19.6823 16.3692 19.4448 16.7737 19.2768 17.2274L20.1207 17.54C20.2527 17.1837 20.4352 16.8758 20.6669 16.6119L19.9906 16.0181ZM19.2743 17.2344C19.1141 17.6896 19.035 18.1678 19.035 18.6662H19.935C19.935 18.2646 19.9984 17.8878 20.1232 17.5331L19.2743 17.2344ZM27.2138 22.3H22.6575V23.2H27.2138V22.3ZM22.6575 22.3C22.1337 22.3 21.6559 22.2084 21.2191 22.0297L20.8784 22.8627C21.4316 23.0891 22.0263 23.2 22.6575 23.2V22.3ZM21.2214 22.0307C20.7863 21.8499 20.4125 21.6011 20.0957 21.2843L19.4593 21.9207C19.8625 22.3239 20.3362 22.6375 20.8761 22.8618L21.2214 22.0307ZM20.099 21.2876C19.7813 20.9633 19.5316 20.5817 19.3502 20.1383L18.5173 20.4791C18.7409 21.0258 19.0537 21.5067 19.456 21.9174L20.099 21.2876ZM19.3511 20.1405C19.1721 19.6963 19.08 19.2065 19.08 18.6662H18.18C18.18 19.311 18.2904 19.9162 18.5164 20.4769L19.3511 20.1405ZM19.08 18.6662C19.08 18.1259 19.1721 17.6407 19.3502 17.2054L18.5173 16.8646C18.2904 17.4192 18.18 18.0216 18.18 18.6662H19.08ZM19.3511 17.2032C19.5325 16.7532 19.7812 16.3739 20.0957 16.0594L19.4593 15.423C19.0538 15.8286 18.74 16.3118 18.5164 16.8668L19.3511 17.2032ZM20.099 16.0561C20.4155 15.733 20.7883 15.4817 21.2214 15.3018L20.8761 14.4707C20.3342 14.6957 19.8595 15.0145 19.456 15.4263L20.099 16.0561ZM21.2191 15.3027C21.6559 15.1241 22.1337 15.0325 22.6575 15.0325V14.1325C22.0263 14.1325 21.4316 14.2434 20.8784 14.4697L21.2191 15.3027ZM22.6575 15.0325C23.173 15.0325 23.6426 15.1238 24.0711 15.3018L24.4164 14.4707C23.8699 14.2437 23.282 14.1325 22.6575 14.1325V15.0325ZM24.0734 15.3027C24.5139 15.483 24.8894 15.7342 25.2048 16.0561L25.8477 15.4263C25.4431 15.0133 24.9636 14.6945 24.4141 14.4697L24.0734 15.3027ZM25.2081 16.0594C25.5225 16.3739 25.7713 16.7532 25.9526 17.2032L26.7874 16.8668C26.5637 16.3118 26.25 15.8286 25.8444 15.423L25.2081 16.0594ZM25.9535 17.2054C26.1316 17.6407 26.2238 18.1259 26.2238 18.6662H27.1238C27.1238 18.0216 27.0134 17.4192 26.7865 16.8646L25.9535 17.2054ZM26.2238 18.6662C26.2238 19.3015 26.0826 19.8725 25.805 20.3879L26.5975 20.8146C26.9499 20.16 27.1238 19.441 27.1238 18.6662H26.2238ZM25.804 20.3897C25.54 20.8857 25.1381 21.2957 24.581 21.6179L25.0315 22.397C25.7194 21.9992 26.2475 21.4717 26.5985 20.8127L25.804 20.3897ZM24.3563 22.0075V22.03H25.2563V22.0075H24.3563ZM24.8063 22.48H27.2138V21.58H24.8063V22.48ZM26.7638 22.03V22.75H27.6638V22.03H26.7638ZM28.4825 22.75V23.2H28.7832L28.8982 22.9221L28.4825 22.75ZM27.5937 22.75L27.1806 22.5715L26.909 23.2H27.5937V22.75ZM31.0362 14.785V14.335H30.7405L30.6231 14.6065L31.0362 14.785ZM31.8237 14.785L32.2372 14.6074L32.1202 14.335H31.8237V14.785ZM35.2437 22.75V23.2H35.9267L35.6572 22.5724L35.2437 22.75ZM34.3437 22.75L33.9287 22.924L34.0444 23.2H34.3437V22.75ZM33.4662 20.6575L33.8812 20.4835L33.7655 20.2075H33.4662V20.6575ZM29.3487 20.6575V20.2075H29.048L28.9329 20.4854L29.3487 20.6575ZM29.6525 19.915L29.2368 19.7425L28.9786 20.365H29.6525V19.915ZM33.1625 19.915V20.365H33.8363L33.5781 19.7425L33.1625 19.915ZM31.4075 15.685L31.8231 15.5125L31.4075 14.5107L30.9918 15.5125L31.4075 15.685ZM28.4825 22.3H27.5937V23.2H28.4825V22.3ZM28.0068 22.9285L31.4493 14.9635L30.6231 14.6065L27.1806 22.5715L28.0068 22.9285ZM31.0362 15.235H31.8237V14.335H31.0362V15.235ZM31.4102 14.9625L34.8302 22.9275L35.6572 22.5724L32.2372 14.6074L31.4102 14.9625ZM35.2437 22.3H34.3437V23.2H35.2437V22.3ZM34.7587 22.576L33.8812 20.4835L33.0512 20.8315L33.9287 22.924L34.7587 22.576ZM33.4662 20.2075H29.3487V21.1075H33.4662V20.2075ZM28.9329 20.4854L28.0667 22.5779L28.8982 22.9221L29.7645 20.8296L28.9329 20.4854ZM29.6525 20.365H33.1625V19.465H29.6525V20.365ZM33.5781 19.7425L31.8231 15.5125L30.9918 15.8574L32.7468 20.0874L33.5781 19.7425ZM30.9918 15.5125L29.2368 19.7425L30.0681 20.0874L31.8231 15.8574L30.9918 15.5125Z" fill="#3870DE"/>
</g>
<defs>
<clipPath id="clip0">
<rect width="54" height="54" fill="white"/>
</clipPath>
</defs>
</svg>
