<svg width="54" height="54" viewBox="0 0 54 54" fill="none" xmlns="http://www.w3.org/2000/svg">
<g clip-path="url(#clip0)">
<path d="M11.7 54H42.3C43.7912 54 45 52.7912 45 51.3V49.5C44.9967 48.3534 44.2679 47.3346 43.1838 46.9611C43.209 46.6794 43.2 46.971 43.2 41.4C43.2132 35.6531 39.994 30.387 34.8732 27.7785C34.5871 27.624 34.4088 27.3251 34.4088 27C34.4088 26.6749 34.5871 26.3759 34.8732 26.2215C39.994 23.613 43.2132 18.3469 43.2 12.6C43.2 6.61949 43.2063 7.28999 43.1838 7.03889C44.2679 6.66538 44.9967 5.64657 45 4.49999V2.69999C45 1.20882 43.7912 -1.33514e-05 42.3 -1.33514e-05H11.7C10.2088 -1.33514e-05 9 1.20882 9 2.69999V4.49999C9.00335 5.64657 9.73215 6.66538 10.8162 7.03889C10.791 7.31699 10.8 5.94539 10.8 12.6C10.7868 18.3469 14.006 23.613 19.1268 26.2215C19.4129 26.3759 19.5912 26.6749 19.5912 27C19.5912 27.3251 19.4129 27.624 19.1268 27.7785C14.006 30.387 10.7868 35.6531 10.8 41.4C10.8 47.3805 10.7937 46.71 10.8162 46.9611C9.73215 47.3346 9.00335 48.3534 9 49.5V51.3C9 52.7912 10.2088 54 11.7 54ZM10.8 2.69999C10.8 2.20293 11.2029 1.79999 11.7 1.79999H42.3C42.7971 1.79999 43.2 2.20293 43.2 2.69999V4.49999C43.2 4.99704 42.7971 5.39999 42.3 5.39999H11.7C11.2029 5.39999 10.8 4.99704 10.8 4.49999V2.69999ZM12.6 41.4C12.5884 36.3285 15.4294 31.6813 19.9485 29.3796C20.8341 28.9163 21.3891 27.9995 21.3891 27C21.3891 26.0005 20.8341 25.0837 19.9485 24.6204C15.4294 22.3187 12.5884 17.6715 12.6 12.6L12.6 7.19999H41.4L41.4 12.6C41.4117 17.6715 38.5706 22.3187 34.0515 24.6204C33.1659 25.0837 32.6109 26.0005 32.6109 27C32.6109 27.9995 33.1659 28.9163 34.0515 29.3796C38.5706 31.6813 41.4117 36.3285 41.4 41.4L41.4 46.8H32.3775C35.488 44.4823 36.7635 40.4323 35.5426 36.7504C34.3217 33.0686 30.879 30.5832 27 30.5832C23.121 30.5832 19.6783 33.0686 18.4574 36.7504C17.2365 40.4323 18.512 44.4823 21.6225 46.8H12.6L12.6 41.4ZM19.8 39.6C19.8 35.6235 23.0236 32.4 27 32.4C30.9765 32.4 34.2 35.6235 34.2 39.6C34.2 43.5764 30.9765 46.8 27 46.8C23.0254 46.7955 19.8045 43.5746 19.8 39.6ZM10.8 49.5C10.8 49.0029 11.2029 48.6 11.7 48.6H42.3C42.7971 48.6 43.2 49.0029 43.2 49.5V51.3C43.2 51.797 42.7971 52.2 42.3 52.2H11.7C11.2029 52.2 10.8 51.797 10.8 51.3V49.5Z" fill="#3870DE"/>
<path d="M27.6176 41.9557H24.9488C24.5947 41.9557 24.2717 41.9057 23.9801 41.8057C23.6926 41.7015 23.4447 41.5536 23.2363 41.362C23.0322 41.1661 22.8738 40.9286 22.7613 40.6495C22.6488 40.3661 22.5926 40.0453 22.5926 39.687C22.5926 39.3495 22.6509 39.0432 22.7676 38.7682C22.8884 38.489 23.0551 38.2495 23.2676 38.0495C23.4801 37.8495 23.7301 37.6953 24.0176 37.587C24.3092 37.4745 24.6238 37.4182 24.9613 37.4182C25.2988 37.4182 25.6113 37.4745 25.8988 37.587C26.1863 37.6953 26.4342 37.8495 26.6426 38.0495C26.8551 38.2495 27.0197 38.489 27.1363 38.7682C27.253 39.0432 27.3113 39.3495 27.3113 39.687C27.3113 39.887 27.2884 40.0703 27.2426 40.237C27.1967 40.4036 27.1363 40.5557 27.0613 40.6932C26.9905 40.8265 26.9072 40.9453 26.8113 41.0495C26.7197 41.1495 26.6238 41.2349 26.5238 41.3057V41.3182H27.6176V41.9557ZM24.9613 38.1245C24.7488 38.1245 24.5488 38.164 24.3613 38.2432C24.178 38.3224 24.0197 38.4307 23.8863 38.5682C23.753 38.7057 23.6467 38.8703 23.5676 39.062C23.4926 39.2536 23.4551 39.462 23.4551 39.687C23.4551 39.9245 23.4905 40.1411 23.5613 40.337C23.6363 40.5286 23.7384 40.6932 23.8676 40.8307C24.0009 40.9682 24.1592 41.0765 24.3426 41.1557C24.5259 41.2307 24.728 41.2682 24.9488 41.2682C25.1655 41.2682 25.3655 41.2307 25.5488 41.1557C25.7363 41.0765 25.8967 40.9682 26.0301 40.8307C26.1634 40.6932 26.2676 40.5286 26.3426 40.337C26.4176 40.1411 26.4551 39.9245 26.4551 39.687C26.4551 39.462 26.4197 39.2536 26.3488 39.062C26.278 38.8703 26.1759 38.7057 26.0426 38.5682C25.9134 38.4307 25.7572 38.3224 25.5738 38.2432C25.3905 38.164 25.1863 38.1245 24.9613 38.1245ZM29.5586 37.5307H30.2398L32.1461 41.9557H31.2461L30.8336 40.9432H28.9148L28.5148 41.9557H27.6336L29.5586 37.5307ZM30.5586 40.2682L29.8773 38.4682L29.1836 40.2682H30.5586Z" fill="#3870DE"/>
<path d="M27.6176 41.9557V42.2057H27.8676V41.9557H27.6176ZM23.9801 41.8057L23.8949 42.0408L23.899 42.0422L23.9801 41.8057ZM23.2363 41.362L23.0632 41.5424L23.0671 41.5459L23.2363 41.362ZM22.7613 40.6495L22.529 40.7417L22.5294 40.7429L22.7613 40.6495ZM22.7676 38.7682L22.5381 38.6689L22.5374 38.6706L22.7676 38.7682ZM23.2676 38.0495L23.4389 38.2315H23.4389L23.2676 38.0495ZM24.0176 37.587L24.1057 37.8209L24.1075 37.8202L24.0176 37.587ZM25.8988 37.587L25.8077 37.8198L25.8107 37.8209L25.8988 37.587ZM26.6426 38.0495L26.4694 38.2298L26.4712 38.2315L26.6426 38.0495ZM27.1363 38.7682L26.9057 38.8646L26.9062 38.8658L27.1363 38.7682ZM27.2426 40.237L27.0015 40.1707V40.1707L27.2426 40.237ZM27.0613 40.6932L26.8418 40.5735L26.8405 40.5759L27.0613 40.6932ZM26.8113 41.0495L26.6273 40.8802L26.627 40.8805L26.8113 41.0495ZM26.5238 41.3057L26.3793 41.1017L26.2738 41.1764V41.3057H26.5238ZM26.5238 41.3182H26.2738V41.5682H26.5238V41.3182ZM27.6176 41.3182H27.8676V41.0682H27.6176V41.3182ZM24.3613 38.2432L24.2641 38.0129L24.2622 38.0137L24.3613 38.2432ZM23.8863 38.5682L23.7069 38.3942H23.7069L23.8863 38.5682ZM23.5676 39.062L23.3365 38.9665L23.3348 38.9709L23.5676 39.062ZM23.5613 40.337L23.3262 40.422L23.3285 40.4281L23.5613 40.337ZM23.8676 40.8307L23.6853 41.0019L23.6881 41.0047L23.8676 40.8307ZM24.3426 41.1557L24.2435 41.3853L24.2479 41.3871L24.3426 41.1557ZM25.5488 41.1557L25.6435 41.3871L25.6461 41.386L25.5488 41.1557ZM26.3426 40.337L26.5754 40.4281L26.576 40.4264L26.3426 40.337ZM26.3488 39.062L26.1143 39.1486V39.1486L26.3488 39.062ZM26.0426 38.5682L25.8603 38.7394L25.8631 38.7422L26.0426 38.5682ZM25.5738 38.2432L25.4747 38.4727L25.4747 38.4727L25.5738 38.2432ZM27.6176 41.7057H24.9488V42.2057H27.6176V41.7057ZM24.9488 41.7057C24.6182 41.7057 24.3232 41.6591 24.0612 41.5692L23.899 42.0422C24.2203 42.1524 24.5711 42.2057 24.9488 42.2057V41.7057ZM24.0652 41.5707C23.8064 41.4769 23.5877 41.3455 23.4056 41.178L23.0671 41.5459C23.3017 41.7618 23.5788 41.9262 23.8949 42.0408L24.0652 41.5707ZM23.4094 41.1815C23.2324 41.0118 23.0933 40.8045 22.9932 40.556L22.5294 40.7429C22.6543 41.0528 22.832 41.3205 23.0633 41.5424L23.4094 41.1815ZM22.9937 40.5572C22.8947 40.3079 22.8426 40.0191 22.8426 39.687H22.3426C22.3426 40.0714 22.403 40.4244 22.529 40.7417L22.9937 40.5572ZM22.8426 39.687C22.8426 39.3787 22.8958 39.1062 22.9977 38.8658L22.5374 38.6706C22.4061 38.9802 22.3426 39.3203 22.3426 39.687H22.8426ZM22.997 38.8675C23.1049 38.6182 23.2523 38.4072 23.4389 38.2315L23.0962 37.8674C22.8579 38.0917 22.6719 38.3598 22.5381 38.6689L22.997 38.8675ZM23.4389 38.2315C23.6261 38.0553 23.8475 37.9182 24.1057 37.8209L23.9294 37.353C23.6127 37.4724 23.334 37.6436 23.0962 37.8674L23.4389 38.2315ZM24.1075 37.8202C24.3683 37.7196 24.6521 37.6682 24.9613 37.6682V37.1682C24.5955 37.1682 24.2502 37.2293 23.9276 37.3537L24.1075 37.8202ZM24.9613 37.6682C25.2706 37.6682 25.5519 37.7196 25.8077 37.8198L25.9899 37.3542C25.6708 37.2293 25.3271 37.1682 24.9613 37.1682V37.6682ZM25.8107 37.8209C26.0686 37.9181 26.2871 38.0547 26.4694 38.2298L26.8157 37.8691C26.5814 37.6442 26.3041 37.4725 25.987 37.353L25.8107 37.8209ZM26.4712 38.2315C26.6572 38.4066 26.802 38.6166 26.9057 38.8646L27.367 38.6718C27.2373 38.3615 27.0529 38.0924 26.8139 37.8674L26.4712 38.2315ZM26.9062 38.8658C27.0082 39.1062 27.0613 39.3787 27.0613 39.687H27.5613C27.5613 39.3203 27.4978 38.9802 27.3665 38.6706L26.9062 38.8658ZM27.0613 39.687C27.0613 39.868 27.0406 40.0287 27.0015 40.1707L27.4836 40.3033C27.5362 40.1119 27.5613 39.9059 27.5613 39.687H27.0613ZM27.0015 40.1707C26.9603 40.3207 26.9067 40.4546 26.8419 40.5735L27.2808 40.8129C27.3659 40.6569 27.4332 40.4866 27.4836 40.3033L27.0015 40.1707ZM26.8405 40.5759C26.7791 40.6917 26.7078 40.7927 26.6273 40.8802L26.9953 41.2187C27.1065 41.0979 27.2019 40.9614 27.2821 40.8105L26.8405 40.5759ZM26.627 40.8805C26.5461 40.9688 26.4634 41.0421 26.3793 41.1017L26.6683 41.5097C26.7842 41.4276 26.8932 41.3301 26.9956 41.2184L26.627 40.8805ZM26.2738 41.3057V41.3182H26.7738V41.3057H26.2738ZM26.5238 41.5682H27.6176V41.0682H26.5238V41.5682ZM27.3676 41.3182V41.9557H27.8676V41.3182H27.3676ZM24.9613 37.8745C24.7169 37.8745 24.4837 37.9202 24.2641 38.0129L24.4586 38.4735C24.6139 38.4079 24.7807 38.3745 24.9613 38.3745V37.8745ZM24.2622 38.0137C24.05 38.1053 23.864 38.2321 23.7069 38.3942L24.0658 38.7422C24.1753 38.6293 24.306 38.5394 24.4604 38.4727L24.2622 38.0137ZM23.7069 38.3942C23.5497 38.5562 23.4267 38.7481 23.3365 38.9665L23.7986 39.1574C23.8667 38.9925 23.9562 38.8552 24.0658 38.7422L23.7069 38.3942ZM23.3348 38.9709C23.2474 39.1942 23.2051 39.4337 23.2051 39.687H23.7051C23.7051 39.4902 23.7378 39.3131 23.8004 39.1531L23.3348 38.9709ZM23.2051 39.687C23.2051 39.9494 23.2443 40.1954 23.3262 40.422L23.7964 40.2519C23.7367 40.0869 23.7051 39.8995 23.7051 39.687H23.2051ZM23.3285 40.4281C23.4141 40.6467 23.5325 40.8391 23.6854 41.0019L24.0498 40.6595C23.9443 40.5473 23.8586 40.4106 23.7941 40.2459L23.3285 40.4281ZM23.6881 41.0047C23.8453 41.1668 24.0313 41.2936 24.2435 41.3852L24.4417 40.9262C24.2872 40.8595 24.1565 40.7696 24.0471 40.6567L23.6881 41.0047ZM24.2479 41.3871C24.4646 41.4757 24.6993 41.5182 24.9488 41.5182V41.0182C24.7567 41.0182 24.5873 40.9857 24.4372 40.9243L24.2479 41.3871ZM24.9488 41.5182C25.1949 41.5182 25.4274 41.4755 25.6435 41.3871L25.4542 40.9243C25.3036 40.9859 25.1361 41.0182 24.9488 41.0182V41.5182ZM25.6461 41.386C25.8625 41.2946 26.0514 41.1678 26.2096 41.0047L25.8506 40.6567C25.7421 40.7686 25.6101 40.8585 25.4516 40.9254L25.6461 41.386ZM26.2096 41.0047C26.3677 40.8417 26.4892 40.6483 26.5754 40.4281L26.1098 40.2459C26.046 40.4089 25.9591 40.5447 25.8506 40.6567L26.2096 41.0047ZM26.576 40.4264C26.6633 40.1985 26.7051 39.951 26.7051 39.687H26.2051C26.2051 39.8979 26.1718 40.0838 26.1091 40.2475L26.576 40.4264ZM26.7051 39.687C26.7051 39.4354 26.6654 39.1974 26.5833 38.9753L26.1143 39.1486C26.1739 39.3099 26.2051 39.4886 26.2051 39.687H26.7051ZM26.5833 38.9753C26.5013 38.7532 26.3812 38.5583 26.2221 38.3942L25.8631 38.7422C25.9706 38.8531 26.0547 38.9874 26.1143 39.1486L26.5833 38.9753ZM26.2248 38.397C26.0709 38.2332 25.8858 38.1056 25.6729 38.0137L25.4747 38.4727C25.6285 38.5391 25.756 38.6283 25.8604 38.7394L26.2248 38.397ZM25.6729 38.0137C25.4546 37.9194 25.2161 37.8745 24.9613 37.8745V38.3745C25.1566 38.3745 25.3264 38.4087 25.4747 38.4727L25.6729 38.0137ZM29.5586 37.5307V37.2807H29.3947L29.3293 37.431L29.5586 37.5307ZM30.2398 37.5307L30.4694 37.4318L30.4044 37.2807H30.2398V37.5307ZM32.1461 41.9557V42.2057H32.526L32.3757 41.8568L32.1461 41.9557ZM31.2461 41.9557L31.0146 42.05L31.078 42.2057H31.2461V41.9557ZM30.8336 40.9432L31.0651 40.8489L31.0017 40.6932H30.8336V40.9432ZM28.9148 40.9432V40.6932H28.7448L28.6823 40.8514L28.9148 40.9432ZM28.5148 41.9557V42.2057H28.6849L28.7474 42.0476L28.5148 41.9557ZM27.6336 41.9557L27.4043 41.856L27.2522 42.2057H27.6336V41.9557ZM30.5586 40.2682V40.5182H30.9205L30.7924 40.1797L30.5586 40.2682ZM29.8773 38.4682L30.1112 38.3797L29.8795 37.7675L29.6441 38.3783L29.8773 38.4682ZM29.1836 40.2682L28.9503 40.1783L28.8193 40.5182H29.1836V40.2682ZM29.5586 37.7807H30.2398V37.2807H29.5586V37.7807ZM30.0102 37.6296L31.9165 42.0546L32.3757 41.8568L30.4694 37.4318L30.0102 37.6296ZM32.1461 41.7057H31.2461V42.2057H32.1461V41.7057ZM31.4776 41.8614L31.0651 40.8489L30.6021 41.0375L31.0146 42.05L31.4776 41.8614ZM30.8336 40.6932H28.9148V41.1932H30.8336V40.6932ZM28.6823 40.8514L28.2823 41.8639L28.7474 42.0476L29.1474 41.0351L28.6823 40.8514ZM28.5148 41.7057H27.6336V42.2057H28.5148V41.7057ZM27.8628 42.0554L29.7878 37.6304L29.3293 37.431L27.4043 41.856L27.8628 42.0554ZM30.7924 40.1797L30.1112 38.3797L29.6435 38.5567L30.3248 40.3567L30.7924 40.1797ZM29.6441 38.3783L28.9503 40.1783L29.4169 40.3581L30.1106 38.5581L29.6441 38.3783ZM29.1836 40.5182H30.5586V40.0182H29.1836V40.5182Z" fill="#3870DE"/>
<path d="M22.4994 27C22.4941 27.7128 22.7779 28.3973 23.286 28.8972C23.9738 29.5941 24.9866 29.8608 25.9284 29.593C26.8702 29.3252 27.5912 28.5655 27.8094 27.6111C28.6828 27.944 29.6658 27.8064 30.4142 27.2466C31.1626 26.6867 31.5721 25.7826 31.4994 24.8508C31.4994 23.9436 31.8108 23.7492 33.1293 23.0751C37.1035 21.0989 39.6116 17.0383 39.5994 12.6V11.7C39.5994 10.2088 38.3906 8.99998 36.8994 8.99998H17.0994C15.6083 8.99998 14.3994 10.2088 14.3994 11.7V12.6C14.3913 17.008 16.8648 21.0453 20.7957 23.04C22.7613 24.0444 22.4994 24.066 22.4994 27ZM16.1994 12.6V11.7C16.1994 11.2029 16.6024 10.8 17.0994 10.8H36.8994C37.3965 10.8 37.7994 11.2029 37.7994 11.7V12.6C37.8102 16.3206 35.7272 19.7309 32.412 21.42C30.7794 22.2552 29.6994 22.8843 29.6994 24.8508C29.6994 26.4339 27.8994 26.244 27.8994 25.0992V22.5C27.8994 22.0029 27.4965 21.6 26.9994 21.6C26.5024 21.6 26.0994 22.0029 26.0994 22.5V26.8992C26.1349 27.2789 25.9287 27.6402 25.5836 27.8027C25.2386 27.9651 24.8287 27.8939 24.5586 27.6246C24.2103 27.2862 24.2994 27.0621 24.2994 25.0146C24.2994 22.8123 22.8747 22.0815 21.5877 21.4218C18.2733 19.7309 16.1904 16.3208 16.1994 12.6Z" fill="#3870DE"/>
<path d="M20.7 12.6H18.9C18.4029 12.6 18 13.0029 18 13.5C18 13.9971 18.4029 14.4 18.9 14.4H20.7C21.1971 14.4 21.6 13.9971 21.6 13.5C21.6 13.0029 21.1971 12.6 20.7 12.6Z" fill="#3870DE"/>
<path d="M24.3004 14.4H35.1004C35.5974 14.4 36.0004 13.9971 36.0004 13.5C36.0004 13.0029 35.5974 12.6 35.1004 12.6H24.3004C23.8033 12.6 23.4004 13.0029 23.4004 13.5C23.4004 13.9971 23.8033 14.4 24.3004 14.4Z" fill="#3870DE"/>
</g>
<defs>
<clipPath id="clip0">
<rect width="54" height="54" fill="white"/>
</clipPath>
</defs>
</svg>
