<?xml version="1.0" encoding="UTF-8"?>
<svg width="706px" height="815px" viewBox="0 0 706 815" version="1.1" xmlns="http://www.w3.org/2000/svg" xmlns:xlink="http://www.w3.org/1999/xlink">
    <!-- Generator: Sketch 48.2 (47327) - http://www.bohemiancoding.com/sketch -->
    <title>Пазлы</title>
    <desc>Created with Sketch.</desc>
    <defs></defs>
    <g id="Планшет/О-нас-" stroke="none" stroke-width="1" fill="none" fill-rule="evenodd" transform="translate(-31.000000, -1312.000000)">
        <g id="Пазлы" transform="translate(384.175276, 1726.000000) rotate(-270.000000) translate(-384.175276, -1726.000000) translate(-29.824724, 1372.500000)">
            <rect id="Rectangle-4" fill="#FFFFFF" x="0" y="1" width="814.382638" height="705"></rect>
            <g id="1" transform="translate(0.000000, 283.000000)">
                <g id="пазл" transform="translate(0.000000, 0.175276)">
                    <path d="M165.106389,50.1824967 C159.636192,49.8971152 154.302556,56.9106003 151.373939,57.5151761 C147.721481,58.2692052 145.726143,56.6630894 143.86029,54.340815 C140.28991,49.8971152 139.393423,45.2917895 141.373194,33.6486334 C141.380978,33.6026477 141.389468,33.5573383 141.400789,33.512029 C142.985031,26.1475653 145.062446,18.8574902 147.589873,11.7547389 C148.018658,9.72257977 146.960139,7.68703932 145.031313,6.78558569 C139.401914,4.67159916 135.379399,2.91264875 128.610818,1.53578484 C124.51047,0.85343922 117.458863,0 114.342033,0 C108.247763,0 105.520802,2.05515197 104.876916,4.34496592 C103.755423,8.33286694 113.719374,13.8680492 113.221247,19.4634185 C112.514389,27.4020263 99.9218282,31.6955965 86.5311329,31.6955965 C86.5205194,31.6955965 86.5099059,31.6949203 86.5,31.6949203 C86.4900941,31.6949203 86.4794806,31.6955965 86.4688671,31.6955965 C73.0781718,31.6955965 60.4856115,27.4020263 59.7787526,19.4634185 C59.2806258,13.8680492 69.2445767,8.33286694 68.1237914,4.34496592 C67.4799059,2.05515197 64.7529448,0 58.6579673,0 C55.541137,0 48.4895297,0.85343922 44.389182,1.53578484 C37.6206012,2.91264875 33.5980859,4.67159916 27.9693947,6.78558569 C26.0398609,7.68703932 24.9813415,9.72257977 25.4101268,11.7547389 C27.9375542,18.8574902 30.0156769,26.1475653 31.5992106,33.512029 C31.6105317,33.5573383 31.6190225,33.6026477 31.6268057,33.6486334 C33.6065767,45.2917895 32.71009,49.8971152 29.1397096,54.340815 C27.2738569,56.6630894 25.2785194,58.2692052 21.6260613,57.5151761 C18.6974438,56.9106003 13.3638078,49.8971152 7.89361145,50.1824967 C2.98805317,50.4381227 0,60.9025589 0,70.1490521 C0,79.3968979 2.98805317,89.8606578 7.89361145,90.1162838 C13.3638078,90.4023415 18.6974438,83.3881802 21.6260613,82.7836044 C25.2785194,82.0302515 27.2738569,83.6356911 29.1397096,85.9579655 C32.71009,90.4023415 33.6065767,95.0076673 31.6268057,106.650823 C31.6190225,106.696133 31.6105317,106.742118 31.5992106,106.788104 C30.0156769,114.151215 27.9375542,121.44129 25.4101268,128.544042 C24.9813415,130.576201 26.0398609,132.612417 27.9693947,133.513195 C33.5980859,135.627181 37.6206012,137.386808 44.389182,138.762996 C48.4895297,139.445341 55.541137,140.29878 58.6579673,140.29878 C64.7529448,140.29878 67.4799059,138.243629 68.1237914,135.953815 C69.2445767,131.965914 59.2806258,126.430731 59.7787526,120.836038 C60.4856115,112.896754 73.0781718,108.60386 86.4688671,108.60386 C86.4794806,108.60386 86.4900941,108.604536 86.5,108.604536 C86.5099059,108.604536 86.5205194,108.60386 86.5311329,108.60386 C99.9218282,108.60386 112.514389,112.896754 113.221247,120.836038 C113.719374,126.430731 103.755423,131.965914 104.876916,135.953815 C105.520802,138.243629 108.247763,140.29878 114.342033,140.29878 C117.458863,140.29878 124.51047,139.445341 128.610818,138.762996 C135.379399,137.386808 139.401914,135.627181 145.031313,133.513195 C146.960139,132.612417 148.018658,130.576201 147.589873,128.544042 C145.062446,121.44129 142.985031,114.151215 141.400789,106.788104 C141.389468,106.742118 141.380978,106.696133 141.373194,106.650823 C139.393423,95.0076673 140.28991,90.4023415 143.86029,85.9579655 C145.726143,83.6356911 147.721481,82.0302515 151.373939,82.7836044 C154.302556,83.3881802 159.636192,90.4023415 165.106389,90.1162838 C170.012654,89.8606578 173,79.3968979 173,70.1490521 C173,60.9025589 170.012654,50.4381227 165.106389,50.1824967" id="Fill-1" fill="#005ED2"></path>
                    <g id="noun_207657_cc" transform="translate(87.000000, 70.000000) rotate(-90.000000) translate(-87.000000, -70.000000) translate(65.000000, 39.000000)" fill="#FFFFFF" fill-rule="nonzero">
                        <path d="M43.3234675,37.2328042 C42.9132703,34.2804233 42.4210338,32.3121693 41.9287972,30.2619048 C41.4365606,28.2936508 40.8622846,26.0793651 40.370048,22.6349206 C39.8778114,19.4365079 40.370048,17.1402116 40.6982057,15.3359788 C41.0263634,13.6957672 41.2724817,12.3015873 40.7802451,11.0714286 C40.370048,10.0873016 39.4676143,9.84126984 38.7292594,9.5952381 C38.3190622,9.43121693 37.9088651,9.34920635 37.5807074,9.1031746 C36.1039976,7.95502646 34.463209,7.46296296 32.8224204,7.54497354 L35.037485,6.06878307 L34.5452484,5.0026455 L34.0530118,3.93650794 L31.1816318,4.83862434 C30.7714346,4.42857143 30.3612375,4.01851852 29.8690009,3.77248677 L30.4432769,0.984126984 L30.4432769,0.82010582 L29.3767643,0.41005291 L28.3102517,0 L27.0796603,2.78835979 C26.5053842,2.70634921 25.9311082,2.78835979 25.4388716,2.87037037 L23.798083,0.492063492 L22.7315704,0.984126984 L21.6650578,1.47619048 L22.5674916,4.18253968 C22.075255,4.59259259 21.6650578,5.0026455 21.3369001,5.49470899 L18.4655201,4.92063492 L18.0553229,5.98677249 L17.6451258,7.05291005 L20.2703875,8.36507937 C20.1883481,8.93915344 20.2703875,9.5952381 20.352427,10.0873016 L17.9732835,11.7275132 L18.4655201,12.7936508 L18.9577566,13.8597884 L21.7470973,12.957672 C22.1572944,13.3677249 22.4854522,13.6957672 22.9776887,14.0238095 L22.4854522,16.9761905 L23.5519647,17.3862434 L24.6184773,17.7962963 L26.0131477,15.1719577 C26.0131477,15.1719577 26.0951871,15.1719577 26.0951871,15.1719577 C25.9311082,15.6640212 25.8490688,16.2380952 26.0131477,16.8121693 C26.4233448,18.7804233 29.704922,20.5846561 31.5097895,21.4047619 C31.3457106,23.4550265 30.6893952,29.2777778 29.2947249,33.952381 C28.2282123,37.478836 28.2282123,40.1851852 28.4743306,42.0714286 C25.5209111,40.1031746 20.1063087,37.0687831 14.1174302,36.6587302 C5.58532948,36.0026455 1.40131852,39.7751323 1.23723966,39.9391534 C0.82704251,40.3492063 0.82704251,41.005291 1.15520023,41.4153439 C1.56539738,41.8253968 2.22171283,41.8253968 2.63190998,41.4973545 C2.63190998,41.4973545 6.40572378,38.1349206 13.9533514,38.7910053 C22.2393339,39.4470899 29.5408432,45.515873 29.5408432,45.5978836 L31.0995923,44.2857143 C31.0995923,44.2857143 29.3767643,41.005291 31.2636712,34.6904762 C32.9864992,28.7857143 33.5607753,21.3227513 33.5607753,20.994709 L33.6428147,20.2566138 L32.9864992,19.9285714 C30.7714346,18.9444444 28.2282123,17.3862434 28.0641334,16.5661376 C28.0641334,16.3201058 28.0641334,15.9920635 28.2282123,15.7460317 L29.3767643,17.468254 L30.4432769,16.9761905 L31.5097895,16.484127 L31.2636712,15.7460317 C31.3457106,15.7460317 31.6738684,15.9100529 31.7559078,15.9100529 C32.2481444,15.9100529 33.2326175,15.9920635 33.7248541,14.3518519 C33.888933,13.6957672 33.888933,13.1216931 33.888933,13.0396825 C33.888933,12.957672 33.888933,12.8756614 33.8068936,12.8756614 C33.7248541,12.3835979 33.314657,12.0555556 32.8224204,12.0555556 C32.4942627,12.0555556 32.1661049,12.2195767 32.0020261,12.4656085 C31.8379472,12.6296296 31.7559078,12.8756614 31.7559078,13.1216931 C31.7559078,13.531746 31.6738684,14.0238095 31.5918289,14.1058201 C31.3457106,14.1058201 30.9355135,13.9417989 30.5253163,13.6957672 C30.4432769,13.6957672 30.3612375,13.6137566 30.3612375,13.6137566 C30.3612375,13.6137566 29.704922,13.2037037 29.6228826,12.4656085 C29.6228826,12.3015873 29.5408432,12.0555556 29.6228826,11.8915344 C29.7869615,11.3994709 30.1971586,10.9074074 30.9355135,10.4973545 C31.0995923,10.4153439 31.2636712,10.3333333 31.4277501,10.2513228 C32.1661049,9.92328042 32.9044598,9.75925926 33.4787358,9.84126984 C34.6272879,9.84126984 35.611761,10.4153439 36.3501159,10.9074074 C36.9243919,11.3994709 37.5807074,11.5634921 38.1549834,11.7275132 C38.4011017,11.8095238 38.8112988,11.973545 38.8933382,11.973545 C39.221496,12.7116402 38.9753777,13.6957672 38.7292594,15.0079365 C38.3190622,16.8941799 37.8268256,19.5185185 38.4011017,23.0449735 C38.9753777,26.5714286 39.5496537,28.8677249 40.0418903,30.8359788 C40.5341269,32.968254 41.0263634,34.7724868 41.3545212,37.5608466 C42.0108366,42.6455026 42.2569549,45.4338624 41.5186,47.5661376 C41.1904423,48.7142857 41.0263634,49.8624339 40.944324,50.9285714 C40.7802451,52.6507937 40.6161663,54.1269841 39.6316931,55.1111111 C39.1394565,55.6031746 38.1549834,55.8492063 37.2525496,56.0132275 C36.5962342,56.1772487 35.8578793,56.2592593 35.2015639,56.5873016 C31.5918289,58.2275132 27.5718968,57.8994709 24.6184773,57.6534392 C22.4854522,57.489418 20.926703,57.3253968 19.9422298,57.9814815 C13.9533514,61.7539683 4.43677745,58.8835979 1.64743681,57.1613757 C1.15520023,56.8333333 0.498884788,56.9973545 0.170727066,57.489418 C-0.157430655,57.9814815 0.00664820552,58.6375661 0.498884788,58.9656085 C2.54987055,60.2777778 7.47223638,62 12.5586811,62 C15.5121006,62 18.5475595,61.4259259 21.0087424,59.7857143 C21.4189396,59.5396825 23.0597282,59.7037037 24.3723591,59.7857143 C27.5718968,60.031746 31.9199867,60.3597884 36.0219582,58.5555556 C36.4321553,58.3915344 37.0064313,58.3095238 37.5807074,58.1455026 C38.7292594,57.8994709 40.1239297,57.6534392 41.1084029,56.6693122 C42.5851126,55.1931217 42.7491915,53.2248677 42.9953098,51.2566138 C43.0773492,50.2724868 43.2414281,49.2063492 43.4875463,48.3042328 C44.3079407,45.6798942 44.0618224,42.6455026 43.3234675,37.2328042 Z M27.5718968,11.2354497 C27.5718968,11.3174603 27.5718968,11.3174603 27.5718968,11.3994709 C27.3257785,11.4814815 27.0796603,11.5634921 26.7515025,11.5634921 C25.5209111,11.5634921 24.4543985,10.4973545 24.4543985,9.26719577 C24.4543985,8.03703704 25.5209111,6.97089947 26.7515025,6.97089947 C27.982094,6.97089947 28.9665672,7.87301587 29.0486066,9.1031746 C28.2282123,9.67724868 27.7359757,10.4153439 27.5718968,11.2354497 Z" id="Shape"></path>
                        <path d="M10.1188669,50.8041288 C10.1654368,50.754766 14.911839,46.0248309 23.0932357,49.5045073 C23.4190179,49.6403534 23.799649,49.5019404 23.9432912,49.1917451 C24.0894172,48.8817473 23.9432912,48.5148836 23.61813,48.3790374 C14.6036499,44.5473062 9.22720895,49.9108611 9.17298092,49.9635805 C8.93040358,50.212566 8.94427106,50.6031238 9.20630425,50.8341413 C9.3304906,50.9447138 9.48737935,51 9.64488904,51 C9.81957784,51 9.99198988,50.9364208 10.1188669,50.8041288 Z" id="Shape-Copy"></path>
                    </g>
                </g>
                <g id="стрелки" transform="translate(45.500000, 205.000000) scale(1, -1) translate(-45.500000, -205.000000) translate(37.000000, 115.000000)">
                    <path d="M8.8,44.659 C7.805,44.659 7,43.853 7,42.859 C7,41.865 7.805,41 8.8,41 C9.794,41 10.6,41.746 10.6,42.74 L10.6,42.859 C10.6,43.853 9.794,44.659 8.8,44.659 M8.8,53.102 C7.805,53.102 7,52.297 7,51.303 C7,50.308 7.805,49.443 8.8,49.443 C9.794,49.443 10.6,50.189 10.6,51.183 L10.6,51.303 C10.6,52.297 9.794,53.102 8.8,53.102 M8.8,61.546 C7.805,61.546 7,60.74 7,59.746 C7,58.751 7.805,57.886 8.8,57.886 C9.794,57.886 10.6,58.633 10.6,59.627 L10.6,59.746 C10.6,60.74 9.794,61.546 8.8,61.546 M8.8,69.989 C7.805,69.989 7,69.183 7,68.189 C7,67.195 7.805,66.33 8.8,66.33 C9.794,66.33 10.6,67.076 10.6,68.07 L10.6,68.189 C10.6,69.183 9.794,69.989 8.8,69.989 M8.8,78.432 C7.805,78.432 7,77.627 7,76.633 C7,75.638 7.805,74.773 8.8,74.773 C9.794,74.773 10.6,75.519 10.6,76.513 L10.6,76.633 C10.6,77.627 9.794,78.432 8.8,78.432 M8.8,86.875 C7.805,86.875 7,86.07 7,85.076 C7,84.081 7.805,83.216 8.8,83.216 C9.794,83.216 10.6,83.962 10.6,84.956 L10.6,85.076 C10.6,86.07 9.794,86.875 8.8,86.875 M8.8,95.319 C7.805,95.319 7,94.513 7,93.519 C7,92.524 7.805,91.659 8.8,91.659 C9.794,91.659 10.6,92.406 10.6,93.4 L10.6,93.519 C10.6,94.513 9.794,95.319 8.8,95.319 M8.8,103.762 C7.805,103.762 7,102.956 7,101.962 C7,100.968 7.805,100.103 8.8,100.103 C9.794,100.103 10.6,100.849 10.6,101.843 L10.6,101.962 C10.6,102.956 9.794,103.762 8.8,103.762 M8.8,112.205 C7.805,112.205 7,111.4 7,110.406 C7,109.411 7.805,108.546 8.8,108.546 C9.794,108.546 10.6,109.292 10.6,110.286 L10.6,110.406 C10.6,111.4 9.794,112.205 8.8,112.205 M8.8,120.649 C7.805,120.649 7,119.843 7,118.849 C7,117.854 7.805,116.989 8.8,116.989 C9.794,116.989 10.6,117.736 10.6,118.73 L10.6,118.849 C10.6,119.843 9.794,120.649 8.8,120.649 M8.8,128.659 C7.805,128.659 7,127.853 7,126.859 C7,125.865 7.805,125 8.8,125 C9.794,125 10.6,125.746 10.6,126.74 L10.6,126.859 C10.6,127.853 9.794,128.659 8.8,128.659 M8.8,136.659 C7.805,136.659 7,135.853 7,134.859 C7,133.865 7.805,133 8.8,133 C9.794,133 10.6,133.746 10.6,134.74 L10.6,134.859 C10.6,135.853 9.794,136.659 8.8,136.659 M8.8,151.505654 C7.805,151.505654 7,150.699654 7,149.705654 C7,148.711654 7.805,147.846654 8.8,147.846654 C9.794,147.846654 10.6,148.592654 10.6,149.586654 L10.6,149.705654 C10.6,150.699654 9.794,151.505654 8.8,151.505654 M8.8,144.505654 C7.805,144.505654 7,143.699654 7,142.705654 C7,141.711654 7.805,140.846654 8.8,140.846654 C9.794,140.846654 10.6,141.592654 10.6,142.586654 L10.6,142.705654 C10.6,143.699654 9.794,144.505654 8.8,144.505654 M8.8,158.948654 C7.805,158.948654 7,158.143654 7,157.149654 C7,156.154654 7.805,155.289654 8.8,155.289654 C9.794,155.289654 10.6,156.035654 10.6,157.029654 L10.6,157.149654 C10.6,158.143654 9.794,158.948654 8.8,158.948654 M8.8,11.5056543 C7.805,11.5056543 7,10.6996543 7,9.70565425 C7,8.71165425 7.805,7.84665425 8.8,7.84665425 C9.794,7.84665425 10.6,8.59265425 10.6,9.58665425 L10.6,9.70565425 C10.6,10.6996543 9.794,11.5056543 8.8,11.5056543 M8.8,4.50565425 C7.805,4.50565425 7,3.69965425 7,2.70565425 C7,1.71165425 7.805,0.846654253 8.8,0.846654253 C9.794,0.846654253 10.6,1.59265425 10.6,2.58665425 L10.6,2.70565425 C10.6,3.69965425 9.794,4.50565425 8.8,4.50565425 M8.8,18.9486543 C7.805,18.9486543 7,18.1436543 7,17.1496543 C7,16.1546543 7.805,15.2896543 8.8,15.2896543 C9.794,15.2896543 10.6,16.0356543 10.6,17.0296543 L10.6,17.1496543 C10.6,18.1436543 9.794,18.9486543 8.8,18.9486543 M8.8,27.3926543 C7.805,27.3926543 7,26.5866543 7,25.5926543 C7,24.5976543 7.805,23.7326543 8.8,23.7326543 C9.794,23.7326543 10.6,24.4796543 10.6,25.4736543 L10.6,25.5926543 C10.6,26.5866543 9.794,27.3926543 8.8,27.3926543 M8.8,35.8356543 C7.805,35.8356543 7,35.0296543 7,34.0356543 C7,33.0416543 7.805,32.1766543 8.8,32.1766543 C9.794,32.1766543 10.6,32.9226543 10.6,33.9166543 L10.6,34.0356543 C10.6,35.0296543 9.794,35.8356543 8.8,35.8356543" id="Fill-200-Copy" fill="#D1D3D4"></path>
                    <g id="Group" transform="translate(0.000000, 163.000000)">
                        <path d="M16.822,8.411 C16.822,13.057 13.056,16.822 8.411,16.822 C3.765,16.822 0,13.057 0,8.411 C0,3.766 3.765,0 8.411,0 C13.056,0 16.822,3.766 16.822,8.411" id="Fill-202" fill="#D1D3D4"></path>
                        <path d="M12.9475,8.411 C12.9475,10.916 10.9165,12.948 8.4105,12.948 C5.9055,12.948 3.8735,10.916 3.8735,8.411 C3.8735,5.906 5.9055,3.874 8.4105,3.874 C10.9165,3.874 12.9475,5.906 12.9475,8.411" id="Fill-203" fill="#FFFFFF"></path>
                    </g>
                </g>
                <g id="мы-можем-все" transform="translate(33.000000, 176.000000)">
                    <text id="Мы-можем-все" transform="translate(11.000000, 182.751306) rotate(-90.000000) translate(-11.000000, -182.751306) " font-family="Avenir-Medium, sans-serif" font-size="18" font-weight="400" fill="#326EAA">
                        <tspan x="-53.5" y="188.751306">Мы можем все</tspan>
                    </text>
                    <text id="Мы-знаем,-что-нет-ни-Copy" transform="translate(90.724493, 123.675276) rotate(-90.000000) translate(-90.724493, -123.675276) " font-family="Avenir-Regular, sans-serif" font-size="14" font-weight="normal" fill="#103F6E">
                        <tspan x="-32.2755066" y="72.950783">Мы знаем, что нет ничего </tspan>
                        <tspan x="-32.2755066" y="90.950783">невозможного! И доказываем это </tspan>
                        <tspan x="-32.2755066" y="108.950783">созданием действительно </tspan>
                        <tspan x="-32.2755066" y="126.950783">качественных и востребованных </tspan>
                        <tspan x="-32.2755066" y="144.950783">приложений, решая самые сложные </tspan>
                        <tspan x="-32.2755066" y="162.950783">задачи и находя выход из самых </tspan>
                        <tspan x="-32.2755066" y="180.950783">запутанных ситуаций.</tspan>
                    </text>
                </g>
            </g>
            <g id="2" transform="translate(145.000000, 1.000000)">
                <g id="пазл" transform="translate(0.000000, 266.675276)">
                    <path d="M52.0862019,7.83196735 C51.7899904,13.2594449 59.0703365,18.5521306 59.6971538,21.4571755 C60.4797981,25.0811102 58.8134327,27.0608653 56.4023269,28.9121469 C51.7899904,32.4546449 47.0105962,33.3441306 34.9248846,31.3798204 C34.8778558,31.372098 34.8308269,31.3636735 34.7830962,31.3524408 C27.1391538,29.7812735 19.573125,27.7193796 12.200125,25.2116898 C10.0915481,24.7862531 7.97805769,25.8365061 7.04239423,27.7509714 C4.84888462,33.3357061 3.02248077,37.3268082 1.59336538,44.0425306 C0.885826923,48.1108571 0,55.1073959 0,58.1998857 C0,64.2472653 2.13314423,66.9529306 4.50985577,67.5917878 C8.64909615,68.7038204 14.3943365,58.8176816 20.2013462,59.3119184 C28.4419231,60.0132571 32.8977308,72.5074776 32.8977308,85.7936 C32.8977308,85.8041306 32.8977308,85.8146612 32.8977308,85.8244898 C32.8977308,85.8343184 32.8977308,85.845551 32.8977308,85.8553796 C32.8977308,99.141502 28.4419231,111.635722 20.2013462,112.337061 C14.3943365,112.831298 8.64909615,102.945159 4.50985577,104.057894 C2.13314423,104.696751 0,107.402416 0,113.449094 C0,116.541584 0.885826923,123.538122 1.59336538,127.606449 C3.02248077,134.322171 4.84888462,138.313273 7.04239423,143.898008 C7.97805769,145.813176 10.0915481,146.862727 12.200125,146.43729 C19.573125,143.9296 27.1391538,141.868408 34.7830962,140.296539 C34.8308269,140.285306 34.8778558,140.276882 34.9248846,140.269159 C47.0105962,138.304849 51.7899904,139.194335 56.4023269,142.736833 C58.8134327,144.588114 60.4797981,146.567869 59.6971538,150.191804 C59.0703365,153.097551 51.7899904,158.389535 52.0862019,163.817012 C52.3522308,168.684963 63.2130865,171.64898 72.8111827,171.64898 C82.4099808,171.64898 93.2701346,168.684963 93.5361635,163.817012 C93.8330769,158.389535 86.5527308,153.097551 85.9245096,150.191804 C85.1425673,146.567869 86.8089327,144.588114 89.2193365,142.736833 C93.8330769,139.194335 98.6124712,138.304849 110.697481,140.269159 C110.745212,140.276882 110.79224,140.285306 110.839971,140.296539 C118.483212,141.868408 126.04924,143.9296 133.42224,146.43729 C135.531519,146.862727 137.64501,145.813176 138.579971,143.898008 C140.774183,138.313273 142.600587,134.322171 144.028298,127.606449 C144.736538,123.538122 145.623067,116.541584 145.623067,113.449094 C145.623067,107.402416 143.489923,104.696751 141.11251,104.057894 C136.973971,102.945159 131.228731,112.831298 125.421721,112.337061 C117.180442,111.635722 112.725337,99.141502 112.725337,85.8553796 C112.725337,85.845551 112.725337,85.8343184 112.725337,85.8244898 C112.725337,85.8146612 112.725337,85.8041306 112.725337,85.7936 C112.725337,72.5074776 117.180442,60.0132571 125.421721,59.3119184 C131.228731,58.8176816 136.973971,68.7038204 141.11251,67.5917878 C143.489923,66.9529306 145.623067,64.2472653 145.623067,58.1998857 C145.623067,55.1073959 144.736538,48.1108571 144.028298,44.0425306 C142.600587,37.3268082 140.774183,33.3357061 138.579971,27.7509714 C137.64501,25.8365061 135.531519,24.7862531 133.42224,25.2116898 C126.04924,27.7193796 118.483212,29.7812735 110.839971,31.3524408 C110.79224,31.3636735 110.745212,31.372098 110.697481,31.3798204 C98.6124712,33.3441306 93.8330769,32.4546449 89.2193365,28.9121469 C86.8089327,27.0608653 85.1425673,25.0811102 85.9245096,21.4571755 C86.5527308,18.5521306 93.8330769,13.2594449 93.5361635,7.83196735 C93.2701346,2.96471837 82.4099808,0 72.8111827,0 C63.2130865,0 52.3522308,2.96471837 52.0862019,7.83196735" id="Fill-1" fill="#0073DB"></path>
                    <g id="praying" transform="translate(73.000000, 81.000000) rotate(-90.000000) translate(-73.000000, -81.000000) translate(42.000000, 50.000000)" fill="#FFFFFF" fill-rule="nonzero">
                        <path d="M11.7620952,40.8036311 L4.53385669,45.1355732 C4.04830781,45.4266684 3.88177608,46.071157 4.16210647,46.5764637 C4.35006471,46.9150241 4.69134166,47.1038961 5.04273669,47.1038961 C5.21438697,47.1038961 5.38913219,47.0585322 5.54959306,46.9626129 L12.7778316,42.6316597 C13.2633805,42.3405645 13.4299122,41.6949635 13.1495818,41.1907692 C12.8692515,40.6855861 12.2476441,40.5125359 11.7620952,40.8036311 Z" id="Shape"></path>
                        <path d="M14.4935065,30.7992318 C14.4935065,30.2439657 14.0297385,29.7932688 13.4583687,29.7932688 L1.03513782,29.7922078 C0.463767946,29.7922078 0,30.2429047 0,30.7981708 C0,31.3544979 0.463767946,31.8041338 1.03513782,31.8041338 L13.4583687,31.8051948 C14.0297385,31.8053127 14.4935065,31.3546158 14.4935065,30.7992318 Z" id="Shape"></path>
                        <path d="M17.725011,9.95902559 C17.9235694,10.2854377 18.2840933,10.4675325 18.6553058,10.4675325 C18.8366366,10.4675325 19.0222428,10.4237963 19.1907472,10.3313189 C19.7036794,10.0506688 19.879603,9.42823354 19.5834629,8.94225017 L16.898711,4.53491245 C16.6014391,4.0488099 15.9447752,3.88101574 15.432849,4.16273833 C14.9189108,4.44338836 14.7439932,5.06582367 15.0401333,5.55192622 L17.725011,9.95902559 Z" id="Shape"></path>
                        <path d="M4.54124783,16.8126321 L14.961123,22.8105329 C15.1228867,22.9038967 15.2999817,22.9480519 15.4751453,22.9480519 C15.831629,22.9480519 16.1777308,22.7643322 16.3682257,22.4346715 C16.6525193,21.9439101 16.484599,21.3156296 15.9912197,21.0332523 L5.57134451,15.034389 C5.08001749,14.7499664 4.44744903,14.9184062 4.16424186,15.4101301 C3.87994821,15.9010118 4.04786858,16.5292923 4.54124783,16.8126321 Z" id="Shape"></path>
                        <path d="M45.631835,22.4345584 C45.8224179,22.7641714 46.1684606,22.9480519 46.5247626,22.9480519 C46.6988098,22.9480519 46.8759952,22.9038869 47.0386968,22.8105026 L57.4588404,16.8133258 C57.9521352,16.5288404 58.1200268,15.9013842 57.8357818,15.409552 C57.5515368,14.9186824 56.9211285,14.7503258 56.4287993,15.0337281 L46.0086557,21.0318676 C45.5153609,21.3152699 45.3474693,21.9436888 45.631835,22.4345584 Z" id="Shape"></path>
                        <path d="M42.8095445,10.3313239 C42.9790569,10.4239171 43.1636595,10.4675325 43.3449925,10.4675325 C43.7163355,10.4675325 44.0768638,10.2855636 44.275299,9.9590444 L46.9600845,5.55186976 C47.2562282,5.06578519 47.0803025,4.44349209 46.5673638,4.16273327 C46.0522874,3.88102111 45.3977531,4.04880906 45.1014836,4.53489362 L42.4166981,8.94206826 C42.1206801,9.42839116 42.2954741,10.0506843 42.8095445,10.3313239 Z" id="Shape"></path>
                        <path d="M41.5561145,59.9893543 C41.5279029,59.9800452 38.6284836,59.013349 36.7319262,57.1440324 C34.8520506,55.2911579 33.8984976,53.4537582 33.8984976,51.6834567 L33.8984976,33.1136061 C33.8984976,32.9021565 33.9424096,31.0502491 35.468536,31.0502491 C36.5916041,31.0502491 37.0353852,33.195091 37.0417635,33.194003 L38.0884149,46.6045542 C38.1323269,47.1709588 38.6275023,47.6001448 39.2125869,47.5537202 C39.7882268,47.5104389 40.2206006,47.0141548 40.1755847,46.4456949 L39.1174033,32.9433825 C38.8693863,31.4743574 37.821631,28.987013 35.4686586,28.987013 C32.5703432,28.987013 31.8051948,31.6868952 31.8051948,33.1136061 L31.8051948,51.6834567 C31.8051948,54.0212509 32.964938,56.348648 35.2519197,58.6027813 C37.4938855,60.8136332 40.7564989,61.9020731 40.8946132,61.9474096 C41.0045159,61.9835579 41.1165038,62 41.2253026,62 C41.663932,62 42.072142,61.7266508 42.2185972,61.2943215 C42.4018501,60.7539098 42.1046467,60.1699751 41.5561145,59.9893543 Z" id="Shape"></path>
                        <path d="M26.5311815,28.987013 C24.1780276,28.987013 23.1301915,31.4743574 22.8706245,33.0341765 L21.8238924,46.4456949 C21.778873,47.0141548 22.2111575,47.510318 22.7869645,47.5537202 C23.3522219,47.5960343 23.8671851,47.1720469 23.9112232,46.6045542 L24.9464244,33.2838298 C24.9505952,33.261101 25.3955146,31.0502491 26.5311815,31.0502491 C28.003942,31.0502491 28.0981516,32.7731589 28.101341,33.1136061 L28.101341,51.6834567 C28.101341,53.4537582 27.1477144,55.2911579 25.2676938,57.1440324 C23.381417,59.0030728 20.4703659,59.9800452 20.4420294,59.9903214 C19.894559,60.1719094 19.598314,60.7558442 19.7814584,61.2954096 C19.9280475,61.7266508 20.336289,62 20.7738483,62 C20.8837594,62 20.9947746,61.9824699 21.1046858,61.9474096 C21.2428108,61.9020731 24.5056758,60.8136332 26.7478144,58.6027813 C29.0349725,56.348648 30.1948052,54.02113 30.1948052,51.6834567 L30.1948052,33.1136061 C30.1948052,31.6868952 29.4295978,28.987013 26.5311815,28.987013 Z" id="Shape"></path>
                        <path d="M59.1729483,59.7436675 L46.8152235,50.4679934 C46.1639031,49.9923116 45.4591701,48.3087215 45.1690782,47.028773 L42.0731964,26.3850041 C41.8489358,25.2605995 41.6369734,24.1731199 41.4322451,23.1270303 C39.5968046,13.7267039 38.4886436,8.05194805 34.8917926,8.05194805 C32.7280393,8.05194805 31.8051948,8.97555749 31.8051948,11.1411042 C31.8051948,13.2160277 32.7949558,26.1173576 32.8371554,26.6661655 C32.8803195,27.2315053 33.3762249,27.6567469 33.9421815,27.613547 C34.5080176,27.5703471 34.9330276,27.0749961 34.8887784,26.5076049 C34.8785299,26.3737817 33.8629669,13.1377128 33.8629669,11.1411042 C33.8629669,10.1114257 33.8824992,10.1114257 34.8917926,10.1114257 C36.7941496,10.1114257 38.0658038,16.6254425 39.4136584,23.5224664 C39.6174221,24.5707281 39.8303491,25.6612244 40.0474961,26.7392917 L43.1474772,47.407798 C43.2287415,47.7661884 43.9839934,50.951036 45.5920385,52.12395 L57.9384297,61.3914186 C58.1236256,61.5304307 58.340652,61.5974026 58.5546641,61.5974026 C58.8674233,61.5974026 59.1771682,61.4552531 59.3787616,61.1855553 C59.719252,60.7301461 59.6276186,60.0844401 59.1729483,59.7436675 Z" id="Shape"></path>
                        <path d="M56.047533,46.9626596 C56.2080011,47.0586708 56.3827542,47.1038961 56.5544122,47.1038961 C56.9059421,47.1038961 57.2472345,46.9152101 57.4350821,46.5766379 C57.7154252,46.0726102 57.5498383,45.4273459 57.0633152,45.1362233 L49.8357029,40.8036113 C49.3481085,40.5126123 48.7284968,40.6854818 48.4480347,41.1906216 C48.1676917,41.6946493 48.3332786,42.338925 48.8198017,42.6310362 L56.047533,46.9626596 Z" id="Shape"></path>
                        <path d="M60.9649315,29.7922078 L48.541562,29.7922078 C47.9702304,29.7922078 47.5064935,30.2431424 47.5064935,30.7987013 C47.5064935,31.3542602 47.9702304,31.8051948 48.541562,31.8051948 L60.9649315,31.8051948 C61.5362631,31.8051948 62,31.3553218 62,30.7987013 C62.0001213,30.2430244 61.5363844,29.7922078 60.9649315,29.7922078 Z" id="Shape"></path>
                        <path d="M31.8051948,1.04672871 C31.8051948,0.46896096 31.3542602,0 30.7987013,0 C30.2431424,0 29.7922078,0.46896096 29.7922078,1.04672871 L29.7922078,4.18703752 C29.7922078,4.76480527 30.2431424,5.23376623 30.7987013,5.23376623 C31.3542602,5.23376623 31.8051948,4.76480527 31.8051948,4.18703752 L31.8051948,1.04672871 Z" id="Shape"></path>
                        <path d="M26.7058416,8.05194805 C23.1088591,8.05194805 22.0008153,13.7267166 20.1653691,23.1270643 C19.9606403,24.173277 19.7486771,25.2606382 19.5151319,26.4345202 L16.4253898,47.0526329 C16.2628607,48.3346357 15.4644422,50.0377782 14.7709201,50.4764152 L2.42449115,59.7439047 C1.96969886,60.0847987 1.87818578,60.7303855 2.21867714,61.1855544 C2.42039175,61.4553735 2.73001704,61.5974026 3.04277716,61.5974026 C3.25678997,61.5974026 3.47381704,61.5304305 3.65901348,61.3914182 L15.9334618,52.1734036 C17.3543863,51.2847865 18.2854324,48.7464839 18.4633946,47.3336744 L21.5407179,26.788688 C21.7670289,25.6611434 21.9800772,24.5706447 22.1837209,23.5223806 C23.5315796,16.6253412 24.8032376,10.1113097 26.7056005,10.1113097 C27.714897,10.1113097 27.7344294,10.1113097 27.7344294,11.1409905 C27.7344294,13.1376036 26.7189838,26.3737024 26.7086148,26.5075259 C26.6643654,27.0749183 27.0892561,27.5701497 27.6552145,27.6134704 C28.2149032,27.6557051 28.7159946,27.2325138 28.760244,26.6660868 C28.8024437,26.1172777 29.7922077,13.2159187 29.7922077,11.1409905 C29.7924489,8.97568024 28.8696015,8.05194805 26.7058416,8.05194805 Z" id="Shape"></path>
                    </g>
                </g>
                <g id="стрелки" transform="translate(20.500000, 280.175276) rotate(-180.000000) translate(-20.500000, -280.175276) translate(12.000000, 240.175276)">
                    <g id="Group-Copy" transform="translate(-0.000000, 0.000000)">
                        <path d="M16.822,8.411 C16.822,13.057 13.056,16.822 8.411,16.822 C3.765,16.822 0,13.057 0,8.411 C0,3.766 3.765,0 8.411,0 C13.056,0 16.822,3.766 16.822,8.411" id="Fill-202" fill="#D1D3D4"></path>
                        <path d="M12.9475,8.411 C12.9475,10.916 10.9165,12.948 8.4105,12.948 C5.9055,12.948 3.8735,10.916 3.8735,8.411 C3.8735,5.906 5.9055,3.874 8.4105,3.874 C10.9165,3.874 12.9475,5.906 12.9475,8.411" id="Fill-203" fill="#FFFFFF"></path>
                    </g>
                    <path d="M8.8,21.989 C7.805,21.989 7,21.183 7,20.189 C7,19.195 7.805,18.33 8.8,18.33 C9.794,18.33 10.6,19.076 10.6,20.07 L10.6,20.189 C10.6,21.183 9.794,21.989 8.8,21.989 M8.8,30.432 C7.805,30.432 7,29.627 7,28.633 C7,27.638 7.805,26.773 8.8,26.773 C9.794,26.773 10.6,27.519 10.6,28.513 L10.6,28.633 C10.6,29.627 9.794,30.432 8.8,30.432 M8.8,38.875 C7.805,38.875 7,38.07 7,37.076 C7,36.081 7.805,35.216 8.8,35.216 C9.794,35.216 10.6,35.962 10.6,36.956 L10.6,37.076 C10.6,38.07 9.794,38.875 8.8,38.875 M8.8,47.319 C7.805,47.319 7,46.513 7,45.519 C7,44.524 7.805,43.659 8.8,43.659 C9.794,43.659 10.6,44.406 10.6,45.4 L10.6,45.519 C10.6,46.513 9.794,47.319 8.8,47.319 M8.8,55.762 C7.805,55.762 7,54.956 7,53.962 C7,52.968 7.805,52.103 8.8,52.103 C9.794,52.103 10.6,52.849 10.6,53.843 L10.6,53.962 C10.6,54.956 9.794,55.762 8.8,55.762 M8.8,64.205 C7.805,64.205 7,63.4 7,62.406 C7,61.411 7.805,60.546 8.8,60.546 C9.794,60.546 10.6,61.292 10.6,62.286 L10.6,62.406 C10.6,63.4 9.794,64.205 8.8,64.205 M8.8,72.649 C7.805,72.649 7,71.843 7,70.849 C7,69.854 7.805,68.989 8.8,68.989 C9.794,68.989 10.6,69.736 10.6,70.73 L10.6,70.849 C10.6,71.843 9.794,72.649 8.8,72.649 M8.8,79.649 C7.805,79.649 7,78.843 7,77.849 C7,76.854 7.805,75.989 8.8,75.989 C9.794,75.989 10.6,76.736 10.6,77.73 L10.6,77.849 C10.6,78.843 9.794,79.649 8.8,79.649" id="Fill-200" fill="#D1D3D4"></path>
                </g>
                <g id="мы-команда" transform="translate(219.500000, 120.500000) rotate(-90.000000) translate(-219.500000, -120.500000) translate(99.000000, -91.000000)">
                    <text id="Быть-лучше-всех-это" font-family="Avenir-Regular, sans-serif" font-size="14" font-weight="normal" fill="#103F6E">
                        <tspan x="0.324723647" y="40">Быть лучше всех это здорово и </tspan>
                        <tspan x="0.324723647" y="58">правильно, но нам нужна лучшая </tspan>
                        <tspan x="0.324723647" y="76">команда. Команда классных спецов </tspan>
                        <tspan x="0.324723647" y="94">своего дела, где каждый помогает </tspan>
                        <tspan x="0.324723647" y="112">каждому для общего результата и </tspan>
                        <tspan x="0.324723647" y="130">цели, а не своих выгод. Успех </tspan>
                        <tspan x="0.324723647" y="148">компании - это успех команды, а не </tspan>
                        <tspan x="0.324723647" y="166">единиц.</tspan>
                    </text>
                    <text id="Прогресс-открывает-н" font-family="Avenir-Regular, sans-serif" font-size="14" font-weight="normal" fill="#103F6E">
                        <tspan x="0.324723647" y="305">Прогресс открывает новые </tspan>
                        <tspan x="0.324723647" y="323">возможности и создает новые </tspan>
                        <tspan x="0.324723647" y="341">технологии и устройства. Мы хотим </tspan>
                        <tspan x="0.324723647" y="359">быть в числе тех, кто первый </tspan>
                        <tspan x="0.324723647" y="377">пробует все новое, кто толкает </tspan>
                        <tspan x="0.324723647" y="395">общество к развитию, а не ждет </tspan>
                        <tspan x="0.324723647" y="413">когда его “подтянут” .</tspan>
                    </text>
                    <text id="Мы-команда" font-family="Avenir-Medium, sans-serif" font-size="18" font-weight="400" fill="#326EAA">
                        <tspan x="0.324723647" y="17">Мы команда</tspan>
                    </text>
                </g>
            </g>
            <g id="3" transform="translate(264.000000, 282.000000)">
                <g id="пазл" transform="translate(0.000000, 0.675276)">
                    <path d="M159.381008,50.6764416 C154.100502,50.3882512 148.951137,57.4707698 146.124074,58.0812964 C142.598272,58.8427474 140.672127,57.2208226 138.871659,54.8756902 C135.425089,50.3882512 134.559006,45.7375953 136.470125,33.9798359 C136.478321,33.9333977 136.485835,33.8876423 136.496763,33.841887 C138.026068,26.4049351 140.031445,19.043104 142.471229,11.8704405 C142.885145,9.81827886 141.864015,7.76270263 140.000708,6.85237602 C134.567886,4.71758158 130.684859,2.94131787 124.150992,1.55090153 C120.192831,0.861839599 113.385069,0 110.377004,0 C104.493381,0 101.8603,2.07538078 101.239425,4.3877333 C100.157505,8.41488712 109.775937,14.004552 109.295084,19.6549964 C108.612054,27.6717437 96.4568474,32.0075754 83.5298171,32.0075754 C83.5202547,32.0075754 83.5100092,32.0068925 83.4997638,32.0068925 C83.4902014,32.0068925 83.4799559,32.0075754 83.4697105,32.0075754 C70.5433632,32.0075754 58.388157,27.6717437 57.7051268,19.6549964 C57.2242735,14.004552 66.8433884,8.41488712 65.7607854,4.3877333 C65.1392279,2.07538078 62.5068294,0 56.6232069,0 C53.6144587,0 46.8073793,0.861839599 42.8492191,1.55090153 C36.3153518,2.94131787 32.4330079,4.71758158 26.9995024,6.85237602 C25.1368789,7.76270263 24.1150656,9.81827886 24.528982,11.8704405 C26.968766,19.043104 28.9734597,26.4049351 30.5034475,33.841887 C30.5136929,33.8876423 30.5218893,33.9333977 30.5300857,33.9798359 C32.4412043,45.7375953 31.5751219,50.3882512 28.1285513,54.8756902 C26.3274006,57.2208226 24.4019383,58.8427474 20.8761363,58.0812964 C18.0490741,57.4707698 12.8997091,50.3882512 7.61920233,50.6764416 C2.88375367,50.9345837 0,61.5020211 0,70.8395273 C0,80.1783993 2.88375367,90.7451538 7.61920233,91.0032959 C12.8997091,91.2921693 18.0490741,84.2089677 20.8761363,83.5984411 C24.4019383,82.837673 26.3274006,84.4589149 28.1285513,86.8040474 C31.5751219,91.2921693 32.4412043,95.9428251 30.5300857,107.700585 C30.5218893,107.74634 30.5136929,107.792778 30.5034475,107.839216 C28.9734597,115.274802 26.968766,122.636634 24.528982,129.809297 C24.1150656,131.861459 25.1368789,133.917718 26.9995024,134.827362 C32.4330079,136.962156 36.3153518,138.739103 42.8492191,140.128836 C46.8073793,140.817898 53.6144587,141.679738 56.6232069,141.679738 C62.5068294,141.679738 65.1392279,139.604357 65.7607854,137.292004 C66.8433884,133.26485 57.2242735,127.675185 57.7051268,122.025424 C58.388157,114.007994 70.5433632,109.672845 83.4697105,109.672845 C83.4799559,109.672845 83.4902014,109.673528 83.4997638,109.673528 C83.5100092,109.673528 83.5202547,109.672845 83.5298171,109.672845 C96.4568474,109.672845 108.612054,114.007994 109.295084,122.025424 C109.775937,127.675185 100.157505,133.26485 101.239425,137.292004 C101.8603,139.604357 104.493381,141.679738 110.377004,141.679738 C113.385069,141.679738 120.192831,140.817898 124.150992,140.128836 C130.684859,138.739103 134.567886,136.962156 140.000708,134.827362 C141.864015,133.917718 142.885145,131.861459 142.471229,129.809297 C140.031445,122.636634 138.026068,115.274802 136.496763,107.839216 C136.485835,107.792778 136.478321,107.74634 136.470125,107.700585 C134.559006,95.9428251 135.425089,91.2921693 138.871659,86.8040474 C140.672127,84.4589149 142.598272,82.837673 146.124074,83.5984411 C148.951137,84.2089677 154.100502,91.2921693 159.381008,91.0032959 C164.116457,90.7451538 167.000211,80.1783993 167.000211,70.8395273 C167.000211,61.5020211 164.116457,50.9345837 159.381008,50.6764416" id="Fill-1" fill="#3595E4"></path>
                    <g id="strategy" transform="translate(86.500000, 69.000000) rotate(-90.000000) translate(-86.500000, -69.000000) translate(57.000000, 38.000000)" fill-rule="nonzero">
                        <path d="M17.7142857,13.4941176 L15.8163265,13.4941176 C7.08571429,13.4941176 0,20.3019608 0,28.6901961 C0,36.9568627 7.71836735,42.427451 7.84489796,42.6705882 C8.2244898,42.9137255 8.47755102,43.2784314 8.47755102,43.5215686 L8.47755102,53.6117647 C8.47755102,56.5294118 10.8816327,58.7176471 13.7918367,58.9607843 C14.4244898,59.5686275 15.0571429,59.9333333 15.9428571,60.1764706 L16.4489796,60.1764706 L17.3346939,60.1764706 C17.9673469,59.9333333 18.6,59.5686275 19.1061224,59.2039216 C22.1428571,59.2039216 24.4204082,56.772549 24.4204082,53.854902 L24.4204082,43.7647059 C24.4204082,43.5215686 24.8,43.1568627 25.3061224,42.9137255 C25.6857143,42.6705882 33.1510204,37.2 33.1510204,28.9333333 C33.5306122,20.3019608 26.3183673,13.4941176 17.7142857,13.4941176 Z M10.755102,39.0235294 C10.755102,39.0235294 4.80816327,34.5254902 4.80816327,28.5686275 C4.80816327,22.6117647 9.74285714,17.8705882 15.9428571,17.8705882 L17.7142857,17.8705882 C23.9142857,17.8705882 28.8489796,22.6117647 28.8489796,28.5686275 C28.8489796,34.2823529 23.5346939,38.4156863 22.9020408,38.7803922 C22.522449,39.0235294 20.1183673,40.6039216 20.1183673,43.0352941 L20.1183673,46.1960784 L13.2857143,46.1960784 L13.2857143,43.1568627 C13.2857143,40.6039216 10.755102,39.0235294 10.755102,39.0235294 Z M20.3714286,50.9372549 L20.3714286,53.6117647 C20.3714286,53.9764706 19.9918367,54.4627451 19.4857143,54.4627451 L14.2979592,54.4627451 C13.9183673,54.4627451 13.4122449,54.0980392 13.4122449,53.6117647 L13.4122449,50.9372549 L20.3714286,50.9372549 Z" id="Shape" stroke="#3595E4" stroke-width="2.5" fill="#FFFFFF"></path>
                        <path d="M19.5049924,33.3057307 C19.6567673,33.3277092 19.7758729,33.3881578 19.9451932,33.4966113 C20.0103543,33.5383485 20.0123099,33.5392157 19.9918367,33.5392157 C20.1667219,33.5392157 20.2511429,33.5349467 20.3403416,33.5178066 C20.4317843,33.5002352 20.4925906,33.4725617 20.607868,33.3750427 C20.7940636,33.2557802 20.9874315,32.8723403 21.008341,32.6229308 L20.3297601,29.3630816 L20.5415561,29.1708963 L22.808689,27.1139574 C22.9802667,26.9491083 23.0275344,26.7630447 23.0339047,26.1751401 C22.7928377,25.8499754 22.5867127,25.6643471 22.4651813,25.6614155 L19.0559897,25.2683557 L18.9294455,25.0555877 L17.4300223,22.5320996 C17.2455844,22.266292 16.9999528,22.1392157 16.5755102,22.1392157 C16.1510676,22.1392157 15.905436,22.266292 15.7399423,22.5026466 L14.0950307,25.2683557 L13.8491044,25.2967096 L10.6285714,25.6647059 C10.4284291,25.6647059 10.1163265,25.8953699 10.1163265,26.0156863 L10.1163265,26.1721655 L10.0271206,26.300727 C9.96269131,26.393581 10.0764057,26.7650481 10.3319133,27.1042297 L12.8212603,29.3630816 L12.1426795,32.6229308 C12.163589,32.8723403 12.3569568,33.2557802 12.5431524,33.3750427 C12.8066563,33.543823 13.2601687,33.628167 13.6094779,33.5666357 L16.6942545,31.7625805 L19.5049924,33.3057307 Z" id="Shape" stroke="#FFFFFF"></path>
                        <path d="M46.6897959,10.3333333 L39.8571429,10.3333333 C38.9714286,10.3333333 38.0857143,11.1843137 38.0857143,12.0352941 L37.8326531,18.8431373 C37.8326531,19.3294118 37.9591837,19.8156863 38.3387755,20.1803922 C38.7183673,20.545098 39.0979592,20.7882353 39.6040816,20.7882353 C40.1102041,20.7882353 40.4897959,20.545098 40.9959184,20.3019608 C41.3755102,19.9372549 41.6285714,19.572549 41.6285714,19.0862745 L41.755102,16.2901961 L42.5142857,17.0196078 C46.5632653,20.9098039 46.5632653,27.3529412 42.5142857,31.2431373 L38.844898,34.7686275 C33.6571429,39.7529412 33.277551,47.7764706 37.9591837,53.2470588 C36.6938776,55.5568627 37.2,58.3529412 38.9714286,60.1764706 C41.3755102,62.4862745 45.2979592,62.4862745 47.7020408,60.1764706 C50.1061224,57.8666667 50.1061224,54.0980392 47.7020408,51.7882353 C45.9306122,50.0862745 43.0204082,49.4784314 40.6163265,50.6941176 C37.3265306,46.6823529 37.7061224,40.9686275 41.3755102,37.4431373 L45.044898,33.9176471 C50.6122449,28.5686275 50.4857143,19.8156863 45.044898,14.5882353 L44.2857143,14.2235294 L46.5632653,14.2235294 C47.0693878,14.2235294 47.4489796,13.9803922 47.8285714,13.6156863 C48.2081633,13.2509804 48.4612245,12.8862745 48.4612245,12.4 C48.4612245,11.9137255 48.2081633,11.5490196 47.8285714,11.1843137 C47.7020408,10.5764706 47.1959184,10.3333333 46.6897959,10.3333333 Z M45.044898,57.6235294 C44.1591837,58.4745098 42.5142857,58.4745098 41.6285714,57.6235294 C40.7428571,56.772549 40.7428571,55.1921569 41.6285714,54.3411765 C42.5142857,53.4901961 44.1591837,53.4901961 45.044898,54.3411765 C46.0571429,55.3137255 45.9306122,56.772549 45.044898,57.6235294 Z" id="Shape" stroke="#3595E4" stroke-width="1.5" fill="#FFFFFF"></path>
                        <path d="M57.9510204,38.7803922 C57.9510204,38.2941176 57.8244898,37.8078431 57.444898,37.5647059 C57.0653061,37.2 56.6857143,37.0784314 56.1795918,37.0784314 C55.6734694,37.0784314 55.1673469,37.2 54.9142857,37.5647059 L52.6367347,39.7529412 L50.3591837,37.5647059 C49.9795918,37.2 49.6,37.0784314 49.0938776,37.0784314 C48.5877551,37.0784314 48.0816327,37.2 47.8285714,37.5647059 C47.4489796,37.9294118 47.322449,38.2941176 47.322449,38.7803922 C47.322449,39.2666667 47.4489796,39.7529412 47.955102,39.9960784 L50.2326531,42.0627451 L47.955102,44.1294118 C47.5755102,44.4941176 47.4489796,44.8588235 47.322449,45.345098 C47.322449,45.8313725 47.4489796,46.3176471 47.8285714,46.5607843 C48.2081633,46.9254902 48.5877551,47.0470588 49.0938776,47.0470588 C49.6,47.0470588 50.1061224,46.9254902 50.3591837,46.5607843 L52.7632653,44.372549 L55.0408163,46.5607843 C55.4204082,46.9254902 55.8,47.0470588 56.3061224,47.0470588 C56.8122449,47.0470588 57.3183673,46.9254902 57.5714286,46.5607843 C58.2040816,45.8313725 58.2040816,44.7372549 57.5714286,44.1294118 L55.2938776,42.0627451 L57.5714286,39.9960784 C57.8244898,39.7529412 57.9510204,39.3882353 57.9510204,38.7803922 Z" id="Shape" stroke="#3595E4" stroke-width="1.5" fill="#FFFFFF"></path>
                        <path d="M23.4081633,9.23921569 C23.4081633,9.7254902 23.5346939,10.2117647 23.9142857,10.454902 C24.2938776,10.8196078 24.6734694,10.9411765 25.1795918,10.9411765 C25.6857143,10.9411765 26.1918367,10.8196078 26.444898,10.454902 L28.8489796,8.26666667 L31.1265306,10.454902 C31.5061224,10.8196078 31.8857143,10.9411765 32.3918367,10.9411765 C32.8979592,10.9411765 33.4040816,10.8196078 33.6571429,10.454902 C34.0367347,10.0901961 34.1632653,9.7254902 34.1632653,9.23921569 C34.1632653,8.75294118 34.0367347,8.26666667 33.5306122,8.02352941 L31.2530612,5.95686275 L33.5306122,3.89019608 C34.2897959,3.28235294 34.2897959,2.06666667 33.5306122,1.45882353 C33.1510204,1.09411765 32.7714286,0.97254902 32.2653061,0.97254902 C31.7591837,0.97254902 31.2530612,1.09411765 31,1.45882353 L28.722449,3.64705882 L26.444898,1.45882353 C26.0653061,1.09411765 25.6857143,0.97254902 25.1795918,0.97254902 C24.6734694,0.97254902 24.1673469,1.09411765 23.9142857,1.45882353 C23.6612245,1.82352941 23.4081633,2.18823529 23.4081633,2.6745098 C23.4081633,3.16078431 23.5346939,3.64705882 24.0408163,3.89019608 L26.3183673,5.95686275 L24.0408163,8.02352941 C23.5346939,8.26666667 23.4081633,8.75294118 23.4081633,9.23921569 Z" id="Shape" stroke="#3595E4" stroke-width="1.5" fill="#FFFFFF"></path>
                    </g>
                </g>
                <g id="мы-на-шаг-впереди" transform="translate(119.289978, 300.675276) rotate(-90.000000) translate(-119.289978, -300.675276) translate(-3.710022, 212.675276)">
                    <text id="Мы-всегда-на-шаг-впе" font-family="Avenir-Medium, sans-serif" font-size="18" font-weight="400" fill="#326EAA">
                        <tspan x="0" y="17">Мы всегда на шаг впереди</tspan>
                    </text>
                    <text id="Мы-стараемся-не-реаг" font-family="Avenir-Regular, sans-serif" font-size="14" font-weight="normal" fill="#103F6E">
                        <tspan x="0" y="40">Мы стараемся не реагировать по </tspan>
                        <tspan x="0" y="58">ситуации, а быть готовыми к </tspan>
                        <tspan x="0" y="76">любому развитию событий, всегда </tspan>
                        <tspan x="0" y="94">думать на 2-3-5 шагов вперед. </tspan>
                        <tspan x="0" y="112">Любое действие или бездействие </tspan>
                        <tspan x="0" y="130">сейчас имеют последствия в </tspan>
                        <tspan x="0" y="148">будущем.</tspan>
                    </text>
                </g>
                <g id="стрелки" transform="translate(43.500000, 155.500000) scale(1, -1) translate(-43.500000, -155.500000) translate(35.000000, 118.000000)">
                    <path d="M8.8,11.205 C7.805,11.205 7,10.4 7,9.406 C7,8.411 7.805,7.546 8.8,7.546 C9.794,7.546 10.6,8.292 10.6,9.286 L10.6,9.406 C10.6,10.4 9.794,11.205 8.8,11.205 M8.8,4.40276927 C7.805,4.40276927 7,3.59776927 7,2.60376927 C7,1.60876927 7.805,0.743769268 8.8,0.743769268 C9.794,0.743769268 10.6,1.48976927 10.6,2.48376927 L10.6,2.60376927 C10.6,3.59776927 9.794,4.40276927 8.8,4.40276927 M8.8,18.649 C7.805,18.649 7,17.843 7,16.849 C7,15.854 7.805,14.989 8.8,14.989 C9.794,14.989 10.6,15.736 10.6,16.73 L10.6,16.849 C10.6,17.843 9.794,18.649 8.8,18.649 M8.8,25.659 C7.805,25.659 7,24.853 7,23.859 C7,22.865 7.805,22 8.8,22 C9.794,22 10.6,22.746 10.6,23.74 L10.6,23.859 C10.6,24.853 9.794,25.659 8.8,25.659 M8.8,32.659 C7.805,32.659 7,31.853 7,30.859 C7,29.865 7.805,29 8.8,29 C9.794,29 10.6,29.746 10.6,30.74 L10.6,30.859 C10.6,31.853 9.794,32.659 8.8,32.659" id="Fill-200-Copy" fill="#D1D3D4"></path>
                    <path d="M8.5,46.9678337 C7.505,46.9678337 6.7,46.1628337 6.7,45.1688337 C6.7,44.1738337 7.505,43.3088337 8.5,43.3088337 C9.494,43.3088337 10.3,44.0548337 10.3,45.0488337 L10.3,45.1688337 C10.3,46.1628337 9.494,46.9678337 8.5,46.9678337 M8.5,40.165603 C7.505,40.165603 6.7,39.360603 6.7,38.366603 C6.7,37.371603 7.505,36.506603 8.5,36.506603 C9.494,36.506603 10.3,37.252603 10.3,38.246603 L10.3,38.366603 C10.3,39.360603 9.494,40.165603 8.5,40.165603 M8.5,54.4118337 C7.505,54.4118337 6.7,53.6058337 6.7,52.6118337 C6.7,51.6168337 7.505,50.7518337 8.5,50.7518337 C9.494,50.7518337 10.3,51.4988337 10.3,52.4928337 L10.3,52.6118337 C10.3,53.6058337 9.494,54.4118337 8.5,54.4118337" id="Fill-200-Copy-2" fill="#D1D3D4"></path>
                    <g id="Group" transform="translate(0.000000, 58.000000)">
                        <path d="M16.822,8.411 C16.822,13.057 13.056,16.822 8.411,16.822 C3.765,16.822 0,13.057 0,8.411 C0,3.766 3.765,0 8.411,0 C13.056,0 16.822,3.766 16.822,8.411" id="Fill-202" fill="#D1D3D4"></path>
                        <path d="M12.9475,8.411 C12.9475,10.916 10.9165,12.948 8.4105,12.948 C5.9055,12.948 3.8735,10.916 3.8735,8.411 C3.8735,5.906 5.9055,3.874 8.4105,3.874 C10.9165,3.874 12.9475,5.906 12.9475,8.411" id="Fill-203" fill="#FFFFFF"></path>
                    </g>
                </g>
            </g>
            <g id="4" transform="translate(405.000000, 120.000000)">
                <g id="пазл" transform="translate(0.000000, 147.675276)">
                    <path d="M52.0855,7.83196735 C51.7892885,13.2594449 59.0689327,18.5521306 59.6971538,21.4571755 C60.4797981,25.0811102 58.8134327,27.0608653 56.4023269,28.9121469 C51.7892885,32.4546449 47.0098942,33.3441306 34.9248846,31.3798204 C34.8764519,31.372098 34.830125,31.3636735 34.7823942,31.3524408 C27.1391538,29.7812735 19.573125,27.7193796 12.2008269,25.2116898 C10.0915481,24.7862531 7.97805769,25.8365061 7.04169231,27.7509714 C4.84818269,33.3357061 3.02248077,37.3268082 1.59336538,44.0425306 C0.885125,48.1108571 0,55.1073959 0,58.1998857 C0,64.2472653 2.13314423,66.9529306 4.50985577,67.5917878 C8.64839423,68.7038204 14.3943365,58.8176816 20.2006442,59.3119184 C28.4405192,60.0132571 32.8977308,72.5074776 32.8977308,85.7936 C32.8977308,85.8041306 32.8970288,85.8146612 32.8970288,85.8244898 C32.8970288,85.8343184 32.8977308,85.845551 32.8977308,85.8553796 C32.8977308,99.141502 28.4405192,111.635722 20.2006442,112.337061 C14.3943365,112.831298 8.64839423,102.945159 4.50985577,104.057894 C2.13314423,104.696751 0,107.402416 0,113.449094 C0,116.541584 0.885125,123.538122 1.59336538,127.606449 C3.02248077,134.322171 4.84818269,138.313273 7.04169231,143.898008 C7.97805769,145.813176 10.0915481,146.862727 12.2008269,146.43729 C19.573125,143.9296 27.1391538,141.868408 34.7823942,140.296539 C34.830125,140.285306 34.8764519,140.276882 34.9248846,140.269159 C47.0098942,138.304849 51.7892885,139.194335 56.4023269,142.736833 C58.8134327,144.588114 60.4797981,146.567869 59.6971538,150.191804 C59.0689327,153.097551 51.7892885,158.389535 52.0855,163.817012 C52.3515288,168.684963 63.2130865,171.64898 72.8111827,171.64898 C82.4092788,171.64898 93.2701346,168.684963 93.5361635,163.817012 C93.8330769,158.389535 86.5527308,153.097551 85.9245096,150.191804 C85.1425673,146.567869 86.8089327,144.588114 89.2193365,142.736833 C93.8330769,139.194335 98.6124712,138.304849 110.697481,140.269159 C110.74451,140.276882 110.79224,140.285306 110.839269,140.296539 C118.48251,141.868408 126.04924,143.9296 133.42224,146.43729 C135.530817,146.862727 137.644308,145.813176 138.579971,143.898008 C140.774183,138.313273 142.599885,134.322171 144.027596,127.606449 C144.73724,123.538122 145.622365,116.541584 145.622365,113.449094 C145.622365,107.402416 143.489221,104.696751 141.111808,104.057894 C136.973971,102.945159 131.228029,112.831298 125.421019,112.337061 C117.180442,111.635722 112.724635,99.141502 112.724635,85.8553796 C112.724635,85.845551 112.725337,85.8343184 112.725337,85.8244898 C112.725337,85.8146612 112.724635,85.8041306 112.724635,85.7936 C112.724635,72.5074776 117.180442,60.0132571 125.421019,59.3119184 C131.228029,58.8176816 136.973971,68.7038204 141.111808,67.5917878 C143.489221,66.9529306 145.622365,64.2472653 145.622365,58.1998857 C145.622365,55.1073959 144.73724,48.1108571 144.027596,44.0425306 C142.599885,37.3268082 140.774183,33.3357061 138.579971,27.7509714 C137.644308,25.8365061 135.530817,24.7862531 133.42224,25.2116898 C126.04924,27.7193796 118.48251,29.7812735 110.839269,31.3524408 C110.79224,31.3636735 110.74451,31.372098 110.697481,31.3798204 C98.6124712,33.3441306 93.8330769,32.4546449 89.2193365,28.9121469 C86.8089327,27.0608653 85.1425673,25.0811102 85.9245096,21.4571755 C86.5527308,18.5521306 93.8330769,13.2594449 93.5361635,7.83196735 C93.2701346,2.96471837 82.4092788,0 72.8111827,0 C63.2130865,0 52.3515288,2.96471837 52.0855,7.83196735" id="Fill-1" fill="#0198C9"></path>
                    <g id="train-(1)" transform="translate(72.500000, 84.000000) rotate(-90.000000) translate(-72.500000, -84.000000) translate(42.000000, 58.000000)" fill="#FFFFFF" fill-rule="nonzero">
                        <path d="M1.00716431,35.9295506 C1.56309351,35.9295506 2.01432861,35.482421 2.01432861,34.9315498 L2.01432861,33.933549 L52.7592156,33.933549 L57.7952732,43.9139082 L56.0185424,43.9139082 L52.268676,36.4814745 C52.0178587,35.9883804 51.4135365,35.7877978 50.9169772,36.0343448 C50.4194737,36.2818275 50.2169313,36.8806514 50.4657421,37.3737455 L53.7663799,43.9139082 L51.9896491,43.9139082 L48.2397827,36.4814745 C48.0685187,36.1431156 47.7200892,35.9295506 47.3383748,35.9295506 L41.2951529,35.9295506 C40.7381614,35.9295506 40.2879886,36.3766803 40.2879886,36.9275515 C40.2879886,37.4784227 40.7381614,37.9255523 41.2951529,37.9255523 L46.7158757,37.9255523 L50.4657421,45.3579861 C50.6370061,45.696345 50.9854356,45.9099099 51.36715,45.9099099 L59.4248186,45.9099099 C59.7743104,45.9099099 60.0975991,45.7302627 60.2819646,45.4368156 C60.4652678,45.1424329 60.4823824,44.7750685 60.3262265,44.4657151 L54.5629757,33.0451376 C55.2479136,32.0191838 56.4030896,29.5979236 56.4030896,24.9510736 C56.4030896,18.7292699 54.329273,16.4946744 54.0935638,16.2611096 C53.9051852,16.0735093 53.6494106,15.9687152 53.3814786,15.9687152 L51.3673861,15.9687152 C50.8103946,15.9687152 50.3602218,16.4158448 50.3602218,16.966716 C50.3602218,17.5175872 50.8103946,17.9647168 51.3673861,17.9647168 L52.8822046,17.9647168 C53.3505543,18.6843581 54.388997,20.7552128 54.388997,24.9509566 C54.388997,29.1576945 53.3445347,31.2286661 52.8842112,31.9371964 L6.04322189,31.9371964 L6.04322189,1.99600168 L29.2089452,1.99600168 C29.7659367,1.99600168 30.2161095,1.54887204 30.2161095,0.998000839 C30.2161095,0.447129639 29.7659367,0 29.2089452,0 L5.03605759,0 C4.48012839,0 4.02889328,0.447129639 4.02889328,0.998000839 L4.02889328,31.9371964 L2.01444664,31.9371964 L2.01444664,30.9391956 C2.01444664,30.3883244 1.56321154,29.9411947 1.00728234,29.9411947 C0.451353135,29.9411947 0,30.3884413 0,30.9393125 L0,34.9314329 C0,35.482421 0.451235104,35.9295506 1.00716431,35.9295506 Z" id="Shape"></path>
                        <path d="M28.0411616,4.73870301 C28.0411616,4.19172079 27.5924816,3.74774775 27.037337,3.74774775 L8.96778856,3.74774775 C8.41264403,3.74774775 7.96396396,4.19172079 7.96396396,4.73870301 L7.96396396,16.6306306 C7.96396396,17.1776128 8.41264403,17.6215859 8.96778856,17.6215859 L13.9871468,17.6215859 L13.9871468,28.5225583 C13.9871468,29.0695405 14.4358269,29.5135135 14.9909714,29.5135135 L24.0257456,29.5135135 C24.4865426,29.5135135 24.8871078,29.2043698 24.9994543,28.7633001 L27.0072211,20.8353097 C27.141684,20.3041214 26.8145263,19.7660814 26.2764396,19.6332262 C25.738353,19.4983968 25.1942666,19.8234506 25.0598038,20.3537098 L23.2417907,27.5314869 L15.9949136,27.5314869 L15.9949136,22.5764783 C16.5500581,22.5764783 16.9987382,22.1325053 16.9987382,21.5855231 C16.9987382,21.0385408 16.5500581,20.5945678 15.9949136,20.5945678 L15.9949136,17.6215859 L33.0605199,17.6215859 C33.6156644,17.6215859 34.0643445,17.1776128 34.0643445,16.6306306 L34.0643445,15.6396754 L36.0721113,15.6396754 L36.0721113,16.6306306 C36.0721113,17.1776128 36.5207914,17.6215859 37.0759359,17.6215859 L43.0991187,17.6215859 C43.6542632,17.6215859 44.1029433,17.1776128 44.1029433,16.6306306 L44.1029433,10.6846668 C44.1029433,10.1376846 43.6542632,9.69371156 43.0991187,9.69371156 L42.0952941,9.69371156 L42.0952941,7.71168491 L48.1184769,7.71168491 L48.1184769,9.69371156 L47.1146524,9.69371156 C46.5595078,9.69371156 46.1108278,10.1376846 46.1108278,10.6846668 L46.1108278,16.6306306 C46.1108278,17.1776128 46.5595078,17.6215859 47.1146524,17.6215859 C47.6697969,17.6215859 48.1184769,17.1776128 48.1184769,16.6306306 L48.1184769,11.6756221 L49.1223015,11.6756221 C49.6774461,11.6756221 50.1261261,11.231649 50.1261261,10.6846668 L50.1261261,6.72061352 C50.1261261,6.1736313 49.6774461,5.72965826 49.1223015,5.72965826 L41.0913519,5.72965826 C40.5362074,5.72965826 40.0875273,6.1736313 40.0875273,6.72061352 L40.0875273,10.6845507 C40.0875273,11.2315329 40.5362074,11.6755059 41.0913519,11.6755059 L42.0951765,11.6755059 L42.0951765,15.6394431 L38.0797605,15.6394431 L38.0797605,14.6484879 C38.0797605,14.1015056 37.6310804,13.6575326 37.0759359,13.6575326 L33.0605199,13.6575326 C32.5053753,13.6575326 32.0566953,14.1015056 32.0566953,14.6484879 L32.0566953,15.6394431 L28.0412793,15.6394431 L28.0412793,4.73870301 L28.0411616,4.73870301 Z M13.9871468,15.6395592 L9.97161315,15.6395592 L9.97161315,5.72965826 L13.9870292,5.72965826 L13.9870292,15.6395592 L13.9871468,15.6395592 Z M26.0335125,15.6395592 L15.9949136,15.6395592 L15.9949136,5.72965826 L26.0335125,5.72965826 L26.0335125,15.6395592 Z" id="Shape"></path>
                        <path d="M59.4253806,50.1263403 L52.3759,50.1263403 L52.3738935,50.0879142 C52.3517034,49.5716861 51.8672987,49.1641492 51.3263566,49.1903888 C50.7855325,49.2110291 50.3694685,49.6270198 50.3685243,50.1263403 L40.2893899,50.1263403 L40.2873834,50.0879142 C40.2651933,49.5716861 39.7888148,49.1641492 39.2398465,49.1903888 C38.6990224,49.2110291 38.2829584,49.6270198 38.2820142,50.1263403 L28.2028798,50.1263403 L28.2008733,50.0879142 C28.1786832,49.5716861 27.6902654,49.1641492 27.1533364,49.1903888 C26.6125123,49.2110291 26.1964483,49.6270198 26.1955041,50.1263403 L16.1163697,50.1263403 L16.1143632,50.0879142 C16.0921731,49.5716861 15.6117815,49.1641492 15.0668263,49.1903888 C14.5260022,49.2110291 14.1099382,49.6270198 14.108994,50.1263403 L3.98854833,50.1263403 L3.98654178,50.0879142 C3.9643517,49.5716861 3.49505518,49.1716149 2.9390049,49.1903888 C2.39818078,49.2110291 1.98117258,49.6270198 1.98011029,50.1263403 L1.00716983,50.1263403 C0.451237579,50.1263403 0,50.5460638 0,51.0631702 C0,51.5802765 0.451237579,52 1.00716983,52 L59.4252626,52 C59.9822571,52 60.4324324,51.5802765 60.4324324,51.0631702 C60.4324324,50.5460638 59.9823752,50.1263403 59.4253806,50.1263403 Z" id="Shape"></path>
                        <path d="M6.31864577,36.1675888 C5.82086157,35.9344026 5.22858353,36.1432294 4.99164898,36.6301872 C4.47694921,37.6919335 4.21621622,38.8171512 4.21621622,39.9765635 C4.21621622,44.2813019 7.78901655,47.7837838 12.1801802,47.7837838 C16.5713438,47.7837838 20.1441441,44.2813019 20.1441441,39.9765635 C20.1441441,38.8171512 19.8823612,37.6919335 19.3687114,36.6301872 C19.1328268,36.1432294 18.5404321,35.9344026 18.0417146,36.1675888 C17.5459136,36.3988308 17.3339441,36.9815104 17.5698287,37.4674388 C17.9570201,38.2656927 18.1532406,39.1099205 18.1532406,39.9764491 C18.1532406,43.2057177 15.4743987,45.8318358 12.1802968,45.8318358 C8.886195,45.8318358 6.20735303,43.2057177 6.20735303,39.9764491 C6.20735303,39.1098062 6.40345691,38.2656927 6.79076498,37.4674388 C7.02641628,36.9815104 6.81433011,36.3988308 6.31864577,36.1675888 Z" id="Shape"></path>
                        <path d="M15.9279279,40.0540541 C15.9279279,37.8579151 14.1419682,36.0720721 11.9459459,36.0720721 C9.749807,36.0720721 7.96396396,37.8580318 7.96396396,40.0540541 C7.96396396,42.2500763 9.74992366,44.036036 11.9459459,44.036036 C14.1420849,44.0361527 15.9279279,42.250193 15.9279279,40.0540541 Z M9.95489662,40.0540541 C9.95489662,38.9560429 10.8478181,38.0630047 11.9459459,38.0630047 C13.0439571,38.0630047 13.9369953,38.9559262 13.9369953,40.0540541 C13.9369953,41.1521819 13.0440738,42.0451034 11.9459459,42.0451034 C10.8479348,42.0451034 9.95489662,41.1521819 9.95489662,40.0540541 Z" id="Shape"></path>
                        <path d="M43.3333333,40.2882883 C41.1371944,40.2882883 39.3513514,42.074248 39.3513514,44.2702703 C39.3513514,46.4664092 41.137311,48.2522523 43.3333333,48.2522523 C45.5293556,48.2522523 47.3153153,46.4662926 47.3153153,44.2702703 C47.315432,42.074248 45.5294723,40.2882883 43.3333333,40.2882883 Z M43.3333333,46.2613196 C42.2353222,46.2613196 41.342284,45.3683981 41.342284,44.2702703 C41.342284,43.1722591 42.2352055,42.2792209 43.3333333,42.2792209 C44.4314611,42.2792209 45.3243827,43.1723758 45.3243827,44.2703869 C45.3243827,45.3683981 44.4314611,46.2613196 43.3333333,46.2613196 Z" id="Shape"></path>
                        <path d="M34.1981982,40.0540541 C34.1981982,37.8579151 32.4122385,36.0720721 30.2162162,36.0720721 C28.0200773,36.0720721 26.2342342,37.8580318 26.2342342,40.0540541 C26.2342342,42.2500763 28.0201939,44.036036 30.2162162,44.036036 C32.4123552,44.0361527 34.1981982,42.250193 34.1981982,40.0540541 Z M28.2251669,40.0540541 C28.2251669,38.9560429 29.1180884,38.0630047 30.2162162,38.0630047 C31.3142274,38.0630047 32.2072655,38.9559262 32.2072655,40.0540541 C32.2072655,41.1521819 31.314344,42.0451034 30.2162162,42.0451034 C29.1182051,42.0451034 28.2251669,41.1521819 28.2251669,40.0540541 Z" id="Shape"></path>
                        <path d="M24.1204476,36.1675888 C23.6217301,35.9344026 23.0293354,36.1432294 22.7934508,36.6301872 C22.2798009,37.6919335 22.018018,38.8171512 22.018018,39.9765635 C22.018018,44.2813019 25.5908184,47.7837838 29.981982,47.7837838 C34.3731456,47.7837838 37.9459459,44.2813019 37.9459459,39.9765635 C37.9459459,38.8171512 37.684163,37.6919335 37.1705132,36.6301872 C36.9335786,36.1432294 36.3413006,35.9344026 35.8435164,36.1675888 C35.3477154,36.3988308 35.1357459,36.9815104 35.3716305,37.4674388 C35.7588219,38.2656927 35.9549258,39.1099205 35.9549258,39.9764491 C35.9549258,43.2057177 33.2760838,45.8318358 29.981982,45.8318358 C26.6878801,45.8318358 24.0090382,43.2057177 24.0090382,39.9764491 C24.0090382,39.1098062 24.2051421,38.2656927 24.5924501,37.4674388 C24.8282181,36.9815104 24.6161319,36.3988308 24.1204476,36.1675888 Z" id="Shape"></path>
                    </g>
                </g>
                <g id="стрелки" transform="translate(22.500000, 160.675276) scale(1, -1) translate(-22.500000, -160.675276) translate(14.000000, 121.175276)">
                    <g id="Group-Copy">
                        <path d="M16.822,8.411 C16.822,13.057 13.056,16.822 8.411,16.822 C3.765,16.822 0,13.057 0,8.411 C0,3.766 3.765,0 8.411,0 C13.056,0 16.822,3.766 16.822,8.411" id="Fill-202" fill="#D1D3D4"></path>
                        <path d="M12.9475,8.411 C12.9475,10.916 10.9165,12.948 8.4105,12.948 C5.9055,12.948 3.8735,10.916 3.8735,8.411 C3.8735,5.906 5.9055,3.874 8.4105,3.874 C10.9165,3.874 12.9475,5.906 12.9475,8.411" id="Fill-203" fill="#FFFFFF"></path>
                    </g>
                    <path d="M8.8,23.432 C7.805,23.432 7,22.627 7,21.633 C7,20.638 7.805,19.773 8.8,19.773 C9.794,19.773 10.6,20.519 10.6,21.513 L10.6,21.633 C10.6,22.627 9.794,23.432 8.8,23.432 M8.8,30.875 C7.805,30.875 7,30.07 7,29.076 C7,28.081 7.805,27.216 8.8,27.216 C9.794,27.216 10.6,27.962 10.6,28.956 L10.6,29.076 C10.6,30.07 9.794,30.875 8.8,30.875 M8.8,39.319 C7.805,39.319 7,38.513 7,37.519 C7,36.524 7.805,35.659 8.8,35.659 C9.794,35.659 10.6,36.406 10.6,37.4 L10.6,37.519 C10.6,38.513 9.794,39.319 8.8,39.319 M8.8,47.762 C7.805,47.762 7,46.956 7,45.962 C7,44.968 7.805,44.103 8.8,44.103 C9.794,44.103 10.6,44.849 10.6,45.843 L10.6,45.962 C10.6,46.956 9.794,47.762 8.8,47.762 M8.8,56.205 C7.805,56.205 7,55.4 7,54.406 C7,53.411 7.805,52.546 8.8,52.546 C9.794,52.546 10.6,53.292 10.6,54.286 L10.6,54.406 C10.6,55.4 9.794,56.205 8.8,56.205 M8.8,64.649 C7.805,64.649 7,63.843 7,62.849 C7,61.854 7.805,60.989 8.8,60.989 C9.794,60.989 10.6,61.736 10.6,62.73 L10.6,62.849 C10.6,63.843 9.794,64.649 8.8,64.649 M8.8,71.66 C7.805,71.66 7,70.854 7,69.86 C7,68.865 7.805,68 8.8,68 C9.794,68 10.6,68.747 10.6,69.741 L10.6,69.86 C10.6,70.854 9.794,71.66 8.8,71.66 M8.8,78.66 C7.805,78.66 7,77.854 7,76.86 C7,75.865 7.805,75 8.8,75 C9.794,75 10.6,75.747 10.6,76.741 L10.6,76.86 C10.6,77.854 9.794,78.66 8.8,78.66" id="Fill-200" fill="#D1D3D4"></path>
                </g>
                <g id="мы-паравозы" transform="translate(21.706248, 61.862316) rotate(-91.000000) translate(-21.706248, -61.862316) translate(-39.293752, 49.362316)" fill="#326EAA" font-family="Avenir-Medium, sans-serif" font-size="18" font-weight="400">
                    <text id="Мы-паровозы" transform="translate(61.181884, 12.796972) rotate(1.000000) translate(-61.181884, -12.796972) ">
                        <tspan x="1.18188436" y="18.7969718">Мы паровозы</tspan>
                    </text>
                </g>
            </g>
            <g id="5" transform="translate(525.000000, 285.000000)">
                <g id="пазл" transform="translate(-0.000000, 0.175276)">
                    <path d="M161.224318,49.0025788 C155.88274,48.7239074 150.674511,55.5724876 147.814753,56.1628483 C144.248174,56.8991483 142.299752,55.3307963 140.47777,53.0631245 C136.991338,48.7239074 136.11593,44.2268645 138.049152,32.8574686 C138.056752,32.8125642 138.065043,32.7683201 138.076098,32.7240761 C139.62309,25.5327697 141.651659,18.4141028 144.119661,11.4783552 C144.538364,9.49397724 143.504733,7.50629751 141.621259,6.62603934 C136.124221,4.561758 132.196285,2.84416498 125.586851,1.49967464 C121.582913,0.833372698 114.697107,0 111.653561,0 C105.702583,0 103.03974,2.00683013 102.410994,4.24280474 C101.31587,8.13694008 111.045543,13.5419762 110.559128,19.0057842 C109.86889,26.7577351 97.5724124,30.9503526 84.4965663,30.9503526 C84.4862024,30.9503526 84.4758384,30.9496922 84.4661654,30.9496922 C84.4564924,30.9496922 84.4461284,30.9503526 84.4357645,30.9503526 C71.3599184,30.9503526 59.0634412,26.7577351 58.3732023,19.0057842 C57.8867878,13.5419762 67.6164609,8.13694008 66.5220281,4.24280474 C65.893282,2.00683013 63.2304387,0 57.2787696,0 C54.2352239,0 47.3494177,0.833372698 43.3454797,1.49967464 C36.7360454,2.84416498 32.8081096,4.561758 27.3117632,6.62603934 C25.4275977,7.50629751 24.3939668,9.49397724 24.8126702,11.4783552 C27.2806714,18.4141028 29.3099321,25.5327697 30.856233,32.7240761 C30.8672879,32.7683201 30.875579,32.8125642 30.8831792,32.8574686 C32.8164008,44.2268645 31.9409927,48.7239074 28.4545611,53.0631245 C26.6325792,55.3307963 24.6841573,56.8991483 21.1175777,56.1628483 C18.2578194,55.5724876 13.0495907,48.7239074 7.70801261,49.0025788 C2.91779645,49.2521944 0,59.4705851 0,68.4996698 C0,77.5300752 2.91779645,87.7478056 7.70801261,87.9974212 C13.0495907,88.276753 18.2578194,81.4275124 21.1175777,80.8371517 C24.6841573,80.1015121 26.6325792,81.6692037 28.4545611,83.9368755 C31.9409927,88.276753 32.8164008,92.7737958 30.8831792,104.143192 C30.875579,104.187436 30.8672879,104.23234 30.856233,104.277245 C29.3099321,111.46723 27.2806714,118.585897 24.8126702,125.521645 C24.3939668,127.506023 25.4275977,129.494363 27.3117632,130.373961 C32.8081096,132.438242 36.7360454,134.156495 43.3454797,135.500325 C47.3494177,136.166627 54.2352239,137 57.2787696,137 C63.2304387,137 65.893282,134.99317 66.5220281,132.757195 C67.6164609,128.86306 57.8867878,123.458024 58.3732023,117.994876 C59.0634412,110.242265 71.3599184,106.050308 84.4357645,106.050308 C84.4461284,106.050308 84.4564924,106.050968 84.4661654,106.050968 C84.4758384,106.050968 84.4862024,106.050308 84.4965663,106.050308 C97.5724124,106.050308 109.86889,110.242265 110.559128,117.994876 C111.045543,123.458024 101.31587,128.86306 102.410994,132.757195 C103.03974,134.99317 105.702583,137 111.653561,137 C114.697107,137 121.582913,136.166627 125.586851,135.500325 C132.196285,134.156495 136.124221,132.438242 141.621259,130.373961 C143.504733,129.494363 144.538364,127.506023 144.119661,125.521645 C141.651659,118.585897 139.62309,111.46723 138.076098,104.277245 C138.065043,104.23234 138.056752,104.187436 138.049152,104.143192 C136.11593,92.7737958 136.991338,88.276753 140.47777,83.9368755 C142.299752,81.6692037 144.248174,80.1015121 147.814753,80.8371517 C150.674511,81.4275124 155.88274,88.276753 161.224318,87.9974212 C166.015225,87.7478056 168.932331,77.5300752 168.932331,68.4996698 C168.932331,59.4705851 166.015225,49.2521944 161.224318,49.0025788" id="Fill-1" fill="#00AAE1"></path>
                    <g id="noun_625999_cc-(1)" transform="translate(84.000000, 70.000000) rotate(-90.000000) translate(-84.000000, -70.000000) translate(53.000000, 39.000000)" fill="#FFFFFF" fill-rule="nonzero">
                        <path d="M15.5,25.1875 L15.5,34.875 L8.71875,34.875 C8.18303125,34.875 7.75,35.3080312 7.75,35.84375 L7.75,39.71875 L9.6875,39.71875 L9.6875,36.8125 L15.5,36.8125 L15.5,39.71875 L17.4375,39.71875 L17.4375,36.8125 L23.25,36.8125 L23.25,39.71875 L25.1875,39.71875 L25.1875,35.84375 C25.1875,35.3080312 24.7544688,34.875 24.21875,34.875 L17.4375,34.875 L17.4375,25.1875 L31,25.1875 L32.9375,25.1875 L32.9375,23.25 L31,23.25 L31,1.9375 L32.9375,1.9375 L32.9375,0 L31,0 L1.9375,0 L0,0 L0,1.9375 L1.9375,1.9375 L1.9375,23.25 L0,23.25 L0,25.1875 L1.9375,25.1875 L15.5,25.1875 Z M3.875,1.9375 L29.0625,1.9375 L29.0625,23.25 L3.875,23.25 L3.875,1.9375 Z" id="Shape"></path>
                        <path d="M5.8125,48.4375 C5.8125,51.6430937 8.41940625,54.25 11.625,54.25 C14.8305938,54.25 17.4375,51.6430937 17.4375,48.4375 C17.4375,45.2319063 14.8305938,42.625 11.625,42.625 C8.41940625,42.625 5.8125,45.2319063 5.8125,48.4375 Z M15.5,48.4375 C15.5,50.5745625 13.7620625,52.3125 11.625,52.3125 C9.4879375,52.3125 7.75,50.5745625 7.75,48.4375 C7.75,46.3004375 9.4879375,44.5625 11.625,44.5625 C13.7620625,44.5625 15.5,46.3004375 15.5,48.4375 Z" id="Shape"></path>
                        <path d="M27.125,48.4375 C27.125,51.6430937 29.7319062,54.25 32.9375,54.25 C36.1430937,54.25 38.75,51.6430937 38.75,48.4375 C38.75,45.2319063 36.1430937,42.625 32.9375,42.625 C29.7319062,42.625 27.125,45.2319063 27.125,48.4375 Z M36.8125,48.4375 C36.8125,50.5745625 35.0745625,52.3125 32.9375,52.3125 C30.8004375,52.3125 29.0625,50.5745625 29.0625,48.4375 C29.0625,46.3004375 30.8004375,44.5625 32.9375,44.5625 C35.0745625,44.5625 36.8125,46.3004375 36.8125,48.4375 Z" id="Shape"></path>
                        <path d="M40.4036563,56.4713438 C40.2215312,56.2892187 39.9764375,56.1875 39.71875,56.1875 L26.15625,56.1875 C25.8985625,56.1875 25.6525,56.2892187 25.4713437,56.4713438 L22.28125,59.6614375 L19.0911563,56.4713438 C18.9090312,56.2892187 18.6639375,56.1875 18.40625,56.1875 L4.84375,56.1875 C4.5860625,56.1875 4.34,56.2892187 4.15884375,56.4713438 L0.28384375,60.3463438 C0.10171875,60.5275 0,60.7735625 0,61.03125 L0,62 L1.9375,62 L1.9375,61.4323125 L5.2448125,58.125 L18.0051875,58.125 L21.3125,61.4323125 L21.3125,62 L23.25,62 L23.25,61.4323125 L26.5573125,58.125 L39.3176875,58.125 L42.625,61.4323125 L42.625,62 L44.5625,62 L44.5625,61.03125 C44.5625,60.7735625 44.4598125,60.5275 44.2786562,60.3463438 L40.4036563,56.4713438 Z" id="Shape"></path>
                        <path d="M57.15625,14.53125 L56.1875,14.53125 L55.21875,14.53125 L55.21875,13.5421562 C56.4258125,12.6325 57.15625,11.2016562 57.15625,9.6875 L57.15625,8.71875 L58.125,8.71875 L58.125,6.78125 L56.1875,6.78125 C55.6517812,6.78125 55.21875,7.21428125 55.21875,7.75 L55.21875,9.6875 C55.21875,10.722125 54.6743125,11.6569687 53.7627187,12.1878437 C53.4643437,12.3622188 53.28125,12.6809375 53.28125,13.0248438 L53.28125,15.0989375 L52.3125,16.0676875 L51.34375,15.0989375 L51.34375,13.0248437 C51.34375,12.6799687 51.1596875,12.36125 50.8622812,12.1878437 C49.9497188,11.6569687 49.40625,10.722125 49.40625,9.6875 L49.40625,5.994625 C50.262625,6.49159375 51.2536562,6.78125 52.3125,6.78125 L55.21875,6.78125 C55.7544688,6.78125 56.1875,6.34821875 56.1875,5.8125 C56.1875,2.60690625 53.5805937,0 50.375,0 L47.46875,0 C46.9330312,0 46.5,0.43303125 46.5,0.96875 C46.5,2.15353125 46.8574687,3.255 47.46875,4.1753125 L47.46875,9.6875 C47.46875,11.202625 48.1991875,12.6325 49.40625,13.5421562 L49.40625,14.53125 L48.4375,14.53125 L47.46875,14.53125 L39.71875,14.53125 L39.71875,9.6875 L39.71875,4.84375 L37.78125,4.84375 L37.78125,8.71875 L34.875,8.71875 C34.3392812,8.71875 33.90625,9.15178125 33.90625,9.6875 L33.90625,15.5 C33.90625,18.1708437 36.0791563,20.34375 38.75,20.34375 L43.59375,20.34375 L43.59375,32.9375 C43.59375,33.4732187 44.0267812,33.90625 44.5625,33.90625 L46.5,33.90625 L46.5,55.21875 C46.5,55.7544688 46.9330312,56.1875 47.46875,56.1875 L54.25,56.1875 C56.9208438,56.1875 59.09375,54.0145937 59.09375,51.34375 L59.09375,33.90625 L61.03125,33.90625 C61.5669688,33.90625 62,33.4732187 62,32.9375 L62,19.375 C62,16.7041563 59.8270938,14.53125 57.15625,14.53125 Z M50.375,1.9375 C52.176875,1.9375 53.6968437,3.173625 54.1269687,4.84375 L52.3125,4.84375 C50.510625,4.84375 48.9906562,3.607625 48.5605312,1.9375 L50.375,1.9375 Z M57.15625,51.34375 C57.15625,52.9460625 55.8523125,54.25 54.25,54.25 L53.28125,54.25 L53.28125,38.75 L51.34375,38.75 L51.34375,54.25 L48.4375,54.25 L48.4375,33.90625 L57.15625,33.90625 L57.15625,51.34375 Z M60.0625,31.96875 L58.125,31.96875 L47.46875,31.96875 L45.53125,31.96875 L45.53125,19.375 C45.53125,18.8392812 45.0982188,18.40625 44.5625,18.40625 L38.75,18.40625 C37.1476875,18.40625 35.84375,17.1023125 35.84375,15.5 L35.84375,10.65625 L37.78125,10.65625 L37.78125,14.53125 C37.78125,15.5997813 38.6502188,16.46875 39.71875,16.46875 L47.46875,16.46875 L48.4375,16.46875 L49.9739375,16.46875 L51.34375,17.8385625 L51.34375,29.0625 L53.28125,29.0625 L53.28125,17.8385625 L54.6510625,16.46875 L56.1875,16.46875 L57.15625,16.46875 C58.7585625,16.46875 60.0625,17.7726875 60.0625,19.375 L60.0625,31.96875 Z" id="Shape"></path>
                        <path d="M16.46875,4.84375 C14.9681563,4.84375 13.6031875,5.42015625 12.5705,6.3569375 L10.3724062,4.15884375 C10.1902812,3.9776875 9.9451875,3.875 9.6875,3.875 L5.8125,3.875 L5.8125,5.8125 L9.2864375,5.8125 L11.3605313,7.885625 C10.9110313,8.71003125 10.65625,9.65359375 10.65625,10.65625 C10.65625,13.8618438 13.2631562,16.46875 16.46875,16.46875 C19.3430312,16.46875 21.7300313,14.3694687 22.1940625,11.625 L27.125,11.625 L27.125,9.6875 L22.1940625,9.6875 C21.7300313,6.94303125 19.3430312,4.84375 16.46875,4.84375 Z M15.5,6.9188125 L15.5,10.2551875 L13.1430312,12.6121562 C12.8020312,12.03575 12.59375,11.373125 12.59375,10.65625 C12.59375,8.85534375 13.8327813,7.35184375 15.5,6.9188125 Z M16.46875,14.53125 C15.751875,14.53125 15.08925,14.3229688 14.5128438,13.9819688 L17.1536563,11.3411563 C17.3348125,11.1590313 17.4375,10.9139375 17.4375,10.65625 L17.4375,6.9188125 C19.10375,7.35184375 20.34375,8.85534375 20.34375,10.65625 C20.34375,12.7933125 18.6058125,14.53125 16.46875,14.53125 Z" id="Shape"></path>
                        <rect id="Rectangle-path" x="5.8125" y="15.5" width="4.84375" height="1.9375"></rect>
                        <rect id="Rectangle-path" x="5.8125" y="19.375" width="9.6875" height="1.9375"></rect>
                        <rect id="Rectangle-path" x="17.4375" y="19.375" width="1.9375" height="1.9375"></rect>
                        <rect id="Rectangle-path" x="21.3125" y="19.375" width="1.9375" height="1.9375"></rect>
                        <rect id="Rectangle-path" x="25.1875" y="19.375" width="1.9375" height="1.9375"></rect>
                        <rect id="Rectangle-path" x="22.28125" y="15.5" width="4.84375" height="1.9375"></rect>
                    </g>
                </g>
                <g id="мы-делимся-знаниями" transform="translate(120.121425, 304.175276) rotate(-90.000000) translate(-120.121425, -304.175276) translate(3.621425, 215.675276)">
                    <text id="Мы-учимся-и-учим-дру" font-family="Avenir-Medium, sans-serif" font-size="18" font-weight="400" fill="#326EAA">
                        <tspan x="0" y="17">Мы учимся и учим других</tspan>
                    </text>
                    <text id="Обучая-коллег,-мы-вз" font-family="Avenir-Regular, sans-serif" font-size="14" font-weight="normal" fill="#103F6E">
                        <tspan x="0" y="41">Обучая коллег, мы взращиваем </tspan>
                        <tspan x="0" y="59">сильную команду и открываем </tspan>
                        <tspan x="0" y="77">себе новые перспективы, а также </tspan>
                        <tspan x="0" y="95">получаем шанс тоже научиться </tspan>
                        <tspan x="0" y="113">новому.</tspan>
                    </text>
                </g>
                <g id="стрелки" transform="translate(43.918662, 154.000000) scale(1, -1) rotate(-360.000000) translate(-43.918662, -154.000000) translate(35.418662, 110.000000)">
                    <path d="M8.8,4.40276927 C7.805,4.40276927 7,3.59776927 7,2.60376927 C7,1.60876927 7.805,0.743769268 8.8,0.743769268 C9.794,0.743769268 10.6,1.48976927 10.6,2.48376927 L10.6,2.60376927 C10.6,3.59776927 9.794,4.40276927 8.8,4.40276927 M8.8,18.205 C7.805,18.205 7,17.4 7,16.406 C7,15.411 7.805,14.546 8.8,14.546 C9.794,14.546 10.6,15.292 10.6,16.286 L10.6,16.406 C10.6,17.4 9.794,18.205 8.8,18.205 M8.8,11.4027693 C7.805,11.4027693 7,10.5977693 7,9.60376927 C7,8.60876927 7.805,7.74376927 8.8,7.74376927 C9.794,7.74376927 10.6,8.48976927 10.6,9.48376927 L10.6,9.60376927 C10.6,10.5977693 9.794,11.4027693 8.8,11.4027693 M8.8,25.649 C7.805,25.649 7,24.843 7,23.849 C7,22.854 7.805,21.989 8.8,21.989 C9.794,21.989 10.6,22.736 10.6,23.73 L10.6,23.849 C10.6,24.843 9.794,25.649 8.8,25.649 M8.8,32.659 C7.805,32.659 7,31.853 7,30.859 C7,29.865 7.805,29 8.8,29 C9.794,29 10.6,29.746 10.6,30.74 L10.6,30.859 C10.6,31.853 9.794,32.659 8.8,32.659 M8.8,39.659 C7.805,39.659 7,38.853 7,37.859 C7,36.865 7.805,36 8.8,36 C9.794,36 10.6,36.746 10.6,37.74 L10.6,37.859 C10.6,38.853 9.794,39.659 8.8,39.659" id="Fill-200-Copy" fill="#D1D3D4"></path>
                    <path d="M8.8,53.4385654 C7.805,53.4385654 7,52.6335654 7,51.6395654 C7,50.6445654 7.805,49.7795654 8.8,49.7795654 C9.794,49.7795654 10.6,50.5255654 10.6,51.5195654 L10.6,51.6395654 C10.6,52.6335654 9.794,53.4385654 8.8,53.4385654 M8.8,46.6363347 C7.805,46.6363347 7,45.8313347 7,44.8373347 C7,43.8423347 7.805,42.9773347 8.8,42.9773347 C9.794,42.9773347 10.6,43.7233347 10.6,44.7173347 L10.6,44.8373347 C10.6,45.8313347 9.794,46.6363347 8.8,46.6363347 M8.8,60.8825654 C7.805,60.8825654 7,60.0765654 7,59.0825654 C7,58.0875654 7.805,57.2225654 8.8,57.2225654 C9.794,57.2225654 10.6,57.9695654 10.6,58.9635654 L10.6,59.0825654 C10.6,60.0765654 9.794,60.8825654 8.8,60.8825654 M8.8,67.8925654 C7.805,67.8925654 7,67.0865654 7,66.0925654 C7,65.0985654 7.805,64.2335654 8.8,64.2335654 C9.794,64.2335654 10.6,64.9795654 10.6,65.9735654 L10.6,66.0925654 C10.6,67.0865654 9.794,67.8925654 8.8,67.8925654" id="Fill-200-Copy-3" fill="#D1D3D4"></path>
                    <g id="Group" transform="translate(0.000000, 71.000000)">
                        <path d="M16.822,8.411 C16.822,13.057 13.056,16.822 8.411,16.822 C3.765,16.822 0,13.057 0,8.411 C0,3.766 3.765,0 8.411,0 C13.056,0 16.822,3.766 16.822,8.411" id="Fill-202" fill="#D1D3D4"></path>
                        <path d="M12.9475,8.411 C12.9475,10.916 10.9165,12.948 8.4105,12.948 C5.9055,12.948 3.8735,10.916 3.8735,8.411 C3.8735,5.906 5.9055,3.874 8.4105,3.874 C10.9165,3.874 12.9475,5.906 12.9475,8.411" id="Fill-203" fill="#FFFFFF"></path>
                    </g>
                </g>
            </g>
            <g id="6" transform="translate(668.000000, -0.000000)">
                <g id="счастливый-клиент" transform="translate(83.575556, 121.314672) rotate(-90.000000) translate(-83.575556, -121.314672) translate(-36.924444, 45.814672)">
                    <text id="От-каждого-сотрудник" font-family="Avenir-Regular, sans-serif" font-size="14" font-weight="normal" fill="#103F6E">
                        <tspan x="0.139395753" y="40">От каждого сотрудника зависит </tspan>
                        <tspan x="0.139395753" y="58">успех компании (проекта). </tspan>
                        <tspan x="0.139395753" y="76">Хорошее отношение к клиенту и </tspan>
                        <tspan x="0.139395753" y="94">доброжелательная атмосфера не </tspan>
                        <tspan x="0.139395753" y="112">менее важны, чем качество </tspan>
                        <tspan x="0.139395753" y="130">предоставляемых услуг.</tspan>
                    </text>
                    <text id="Cчастливый-клиент" font-family="Avenir-Medium, sans-serif" font-size="18" font-weight="400" fill="#326EAA">
                        <tspan x="0.139395753" y="17">Cчастливый клиент</tspan>
                    </text>
                </g>
                <g id="пазл" transform="translate(-0.000000, 242.675276)">
                    <path d="M52.0862019,33.8319673 C51.7899904,39.2594449 59.0703365,44.5521306 59.6971538,47.4571755 C60.4797981,51.0811102 58.8134327,53.0608653 56.4023269,54.9121469 C51.7899904,58.4546449 47.0105962,59.3441306 34.9248846,57.3798204 C34.8778558,57.372098 34.8308269,57.3636735 34.7830962,57.3524408 C27.1391538,55.7812735 19.573125,53.7193796 12.200125,51.2116898 C10.0915481,50.7862531 7.97805769,51.8365061 7.04239423,53.7509714 C4.84888462,59.3357061 3.02248077,63.3268082 1.59336538,70.0425306 C0.885826923,74.1108571 0,81.1073959 0,84.1998857 C0,90.2472653 2.13314423,92.9529306 4.50985577,93.5917878 C8.64909615,94.7038204 14.3943365,84.8176816 20.2013462,85.3119184 C28.4419231,86.0132571 32.8977308,98.5074776 32.8977308,111.7936 C32.8977308,111.804131 32.8977308,111.814661 32.8977308,111.82449 C32.8977308,111.834318 32.8977308,111.845551 32.8977308,111.85538 C32.8977308,125.141502 28.4419231,137.635722 20.2013462,138.337061 C14.3943365,138.831298 8.64909615,128.945159 4.50985577,130.057894 C2.13314423,130.696751 0,133.402416 0,139.449094 C0,142.541584 0.885826923,149.538122 1.59336538,153.606449 C3.02248077,160.322171 4.84888462,164.313273 7.04239423,169.898008 C7.97805769,171.813176 10.0915481,172.862727 12.200125,172.43729 C19.573125,169.9296 27.1391538,167.868408 34.7830962,166.296539 C34.8308269,166.285306 34.8778558,166.276882 34.9248846,166.269159 C47.0105962,164.304849 51.7899904,165.194335 56.4023269,168.736833 C58.8134327,170.588114 60.4797981,172.567869 59.6971538,176.191804 C59.0703365,179.097551 51.7899904,184.389535 52.0862019,189.817012 C52.3522308,194.684963 63.2130865,197.64898 72.8111827,197.64898 C82.4099808,197.64898 93.2701346,194.684963 93.5361635,189.817012 C93.8330769,184.389535 86.5527308,179.097551 85.9245096,176.191804 C85.1425673,172.567869 86.8089327,170.588114 89.2193365,168.736833 C93.8330769,165.194335 98.6124712,164.304849 110.697481,166.269159 C110.745212,166.276882 110.79224,166.285306 110.839971,166.296539 C118.483212,167.868408 126.04924,169.9296 133.42224,172.43729 C135.531519,172.862727 137.64501,171.813176 138.579971,169.898008 C140.774183,164.313273 142.600587,160.322171 144.028298,153.606449 C144.736538,149.538122 145.623067,142.541584 145.623067,139.449094 C145.623067,133.402416 143.489923,130.696751 141.11251,130.057894 C136.973971,128.945159 131.228731,138.831298 125.421721,138.337061 C117.180442,137.635722 112.725337,125.141502 112.725337,111.85538 C112.725337,111.845551 112.725337,111.834318 112.725337,111.82449 C112.725337,111.814661 112.725337,111.804131 112.725337,111.7936 C112.725337,98.5074776 117.180442,86.0132571 125.421721,85.3119184 C131.228731,84.8176816 136.973971,94.7038204 141.11251,93.5917878 C143.489923,92.9529306 145.623067,90.2472653 145.623067,84.1998857 C145.623067,81.1073959 144.736538,74.1108571 144.028298,70.0425306 C142.600587,63.3268082 140.774183,59.3357061 138.579971,53.7509714 C137.64501,51.8365061 135.531519,50.7862531 133.42224,51.2116898 C126.04924,53.7193796 118.483212,55.7812735 110.839971,57.3524408 C110.79224,57.3636735 110.745212,57.372098 110.697481,57.3798204 C98.6124712,59.3441306 93.8330769,58.4546449 89.2193365,54.9121469 C86.8089327,53.0608653 85.1425673,51.0811102 85.9245096,47.4571755 C86.5527308,44.5521306 93.8330769,39.2594449 93.5361635,33.8319673 C93.2701346,28.9647184 82.4099808,26 72.8111827,26 C63.2130865,26 52.3522308,28.9647184 52.0862019,33.8319673" id="Fill-1" fill="#66CCED"></path>
                    <g id="stars" transform="translate(71.500000, 108.000000) rotate(-90.000000) translate(-71.500000, -108.000000) translate(46.000000, 82.000000)" fill="#FFFFFF" fill-rule="nonzero">
                        <circle id="Oval" cx="9.68627451" cy="33.6470588" r="1.01960784"></circle>
                        <circle id="Oval" cx="1.01960784" cy="25.4901961" r="1.01960784"></circle>
                        <circle id="Oval" cx="2.54901961" cy="41.2941176" r="1.01960784"></circle>
                        <circle id="Oval" cx="10.7058824" cy="46.3921569" r="1.01960784"></circle>
                        <circle id="Oval" cx="41.2941176" cy="47.4117647" r="1.01960784"></circle>
                        <circle id="Oval" cx="46.3921569" cy="38.2352941" r="1.01960784"></circle>
                        <circle id="Oval" cx="34.1568627" cy="10.1960784" r="1.01960784"></circle>
                        <circle id="Oval" cx="24.4705882" cy="2.03921569" r="1.01960784"></circle>
                        <circle id="Oval" cx="43.3333333" cy="4.58823529" r="1.01960784"></circle>
                        <path d="M15.0393175,22.562808 L20.4265534,26.4896213 C20.9112947,26.8429457 21.4667974,27.0195568 22.0224019,27.0195568 C22.5779046,27.0195568 23.1335092,26.8428435 23.6182504,26.4895192 C24.587733,25.7828705 24.9748337,24.5874514 24.6046343,23.4440248 L22.5468511,17.0903155 L27.934087,13.1635021 C28.9035695,12.4568535 29.2906702,11.2614344 28.920369,10.1180078 C28.5500678,8.97458115 27.5364994,8.23575637 26.3381367,8.23575637 L19.6793331,8.23575637 L17.6216517,1.8820471 C17.2511468,0.738824784 16.2376802,0 15.0392157,0 C13.840853,0 12.8272845,0.738824784 12.4569833,1.88225139 L10.3992001,8.23596066 L3.7402947,8.23596066 C2.541932,8.23596066 1.52836355,8.97478545 1.15806235,10.1182121 C0.787761155,11.2616387 1.17486183,12.4571599 2.14434438,13.1637064 L7.53158031,17.0905198 L5.4737971,23.4442291 C5.1034959,24.5876557 5.49069839,25.7829727 6.46018094,26.4896213 C7.42966348,27.19627 8.68249721,27.19627 9.65208157,26.4896213 L15.0393175,22.562808 Z M7.77054014,24.6803025 C7.66383801,24.6025691 7.49899951,24.4284095 7.59399291,24.1352494 L9.90203743,17.0088027 C10.0511964,16.5480204 9.88778332,16.0433151 9.49711912,15.758531 L3.45470359,11.3542854 C3.20617314,11.1731799 3.23743035,10.9350767 3.27815636,10.8091302 C3.31898418,10.6832858 3.43322062,10.4723536 3.7402947,10.4723536 L11.2090367,10.4723536 C11.6920472,10.4723536 12.1198738,10.1603985 12.2691346,9.69961618 L14.5771792,2.57316952 C14.6721726,2.28011155 14.9074671,2.23629075 15.0393175,2.23629075 C15.1711679,2.23629075 15.4065643,2.28011155 15.5014558,2.57316952 L17.8095004,9.69961618 C17.9587612,10.1602964 18.3867915,10.4723536 18.8695983,10.4723536 L26.3383403,10.4723536 C26.6455162,10.4723536 26.7597526,10.683388 26.8004786,10.8091302 C26.8412047,10.9349745 26.8724619,11.1730777 26.6239314,11.3542854 L20.5815159,15.758531 C20.1908517,16.043213 20.0274386,16.5480204 20.1765976,17.0088027 L22.4846421,24.1352494 C22.5796355,24.4283073 22.414797,24.6025691 22.3080949,24.6804046 C22.2013927,24.758138 21.9853413,24.8615101 21.7368108,24.6804046 L15.6943953,20.2760569 C15.4990123,20.1336648 15.2692158,20.0624688 15.0392157,20.0624688 C14.8093174,20.0624688 14.5794191,20.1336648 14.3840361,20.2760569 L8.34162055,24.6804046 C8.09339555,24.8616123 7.87703865,24.7580359 7.77054014,24.6803025 Z" id="Shape"></path>
                        <path d="M34.8417175,36.9665289 L29.8085608,36.9665289 L28.2532585,32.2137273 C27.9300788,31.2262571 27.0457212,30.5882353 26.0000798,30.5882353 C24.9544384,30.5882353 24.0699788,31.2262571 23.7466971,32.2137273 L22.1913948,36.9665289 L17.1583402,36.9665289 C16.1126988,36.9665289 15.2282392,37.6045507 14.9051615,38.5920208 C14.5819818,39.579491 14.9197495,40.6118324 15.7658519,41.2221009 L19.8376305,44.1594929 L18.2823282,48.9122945 C17.9592505,49.8997647 18.2971202,50.9321061 19.1431206,51.5423746 C19.5660698,51.8475595 20.0508393,52 20.5356089,52 C21.0203784,52 21.50525,51.8474582 21.9281992,51.5423746 L25.9999778,48.6049825 L30.0717564,51.5423746 C30.9177568,52.1525418 32.0109367,52.1525418 32.8569371,51.5423746 C33.7029375,50.9322074 34.0408072,49.899866 33.7177295,48.9122945 L32.1624271,44.1595942 L36.2342058,41.2222022 C37.0802062,40.6119337 37.4179738,39.5795923 37.0948961,38.5921221 C36.7717164,37.6045507 35.8873589,36.9665289 34.8417175,36.9665289 Z M34.9212882,39.4278608 L30.1930508,42.8387807 C29.8016239,43.1210742 29.6378918,43.6217476 29.787342,44.0785627 L31.5933942,49.5974159 C31.6055338,49.6344878 31.6238963,49.6906021 31.5441215,49.7481345 C31.4642447,49.8056669 31.4164003,49.7710259 31.384674,49.7481345 L26.6564366,46.3372146 C26.4607741,46.1960172 26.230427,46.1254185 25.9999778,46.1254185 C25.7695287,46.1254185 25.5392835,46.1960172 25.343519,46.3372146 L20.6152817,49.7481345 C20.5834534,49.7710259 20.5356089,49.8056669 20.4558341,49.7481345 C20.3760593,49.6906021 20.3944218,49.6345891 20.4065614,49.5975172 L22.2126137,44.078664 C22.3620639,43.6218489 22.1983317,43.1212768 21.8069048,42.838882 L17.0786674,39.4279621 C17.0469411,39.4049694 16.9988926,39.3704297 17.0293948,39.2773448 C17.0598969,39.1843611 17.1191669,39.1843611 17.1583402,39.1843611 L23.0028125,39.1843611 C23.4865619,39.1843611 23.9154279,38.8750234 24.0649802,38.418107 L25.8709304,32.8991525 C25.88307,32.8620806 25.9014325,32.8061689 26.0000798,32.8061689 C26.0986252,32.8061689 26.1169876,32.8621819 26.1290253,32.8991525 L27.9350775,38.418107 C28.0846297,38.8749221 28.5134957,39.1843611 28.9972451,39.1843611 L34.8417175,39.1843611 C34.8809928,39.1843611 34.9402628,39.1843611 34.9706629,39.2773448 C35.001063,39.3703284 34.9531165,39.4048681 34.9212882,39.4278608 Z" id="Shape"></path>
                        <path d="M50.3609424,19.4034609 C50.0676294,18.5158603 49.2647274,17.9424652 48.3155269,17.9424652 L44.3195341,17.9424652 L43.0847959,14.2060938 C42.791483,13.3185937 41.9885809,12.745098 41.0392781,12.745098 C40.0900777,12.745098 39.2871756,13.3184931 38.9938626,14.2060938 L37.7590222,17.9424652 L33.7629271,17.9424652 C32.8137266,17.9424652 32.0108245,18.5158603 31.7175116,19.4034609 C31.4241986,20.2910616 31.7308114,21.2188935 32.4988269,21.7674458 L35.7317149,24.0766157 L34.4968745,27.8129871 C34.2035615,28.7005878 34.5102766,29.6284196 35.2781899,30.1768714 C35.6621465,30.4511475 36.1021671,30.5882353 36.54229,30.5882353 C36.9823106,30.5882353 37.4225358,30.4510469 37.8063901,30.1768714 L41.0392781,27.8677015 L44.2722684,30.1768714 C45.0400793,30.7252225 46.0325555,30.7254237 46.800571,30.1768714 C47.5684842,29.6284196 47.8751994,28.7004872 47.5818864,27.8128865 L46.3471482,24.0766157 L49.5800363,21.7674458 C50.3474379,21.2188935 50.6542554,20.290961 50.3609424,19.4034609 Z M44.3718128,22.7651794 C43.9792624,23.0454902 43.8150603,23.5425466 43.9649395,23.9962539 L45.3662327,28.2363198 L41.6974164,25.6157605 C41.5011924,25.4755548 41.2701841,25.4054519 41.0390735,25.4054519 C40.8080653,25.4054519 40.577057,25.4755548 40.3807307,25.6157605 L36.7119143,28.2363198 L38.1132076,23.9962539 C38.2630867,23.5425466 38.0988846,23.0455908 37.7063343,22.7651794 L34.0375179,20.1446201 L38.5725641,20.1446201 C39.0577019,20.1446201 39.4877988,19.8374549 39.6377803,19.3837477 L41.0391758,15.1435811 L42.4404691,19.3837477 C42.5904505,19.8373544 43.0204451,20.1446201 43.5056852,20.1446201 L48.0407314,20.1446201 L44.3718128,22.7651794 Z" id="Shape"></path>
                    </g>
                    <g id="стрелки" transform="translate(19.500000, 40.675276) scale(1, -1) translate(-19.500000, -40.675276) translate(11.000000, 0.175276)">
                        <g id="Group-Copy">
                            <path d="M16.822,8.411 C16.822,13.057 13.056,16.822 8.411,16.822 C3.765,16.822 0,13.057 0,8.411 C0,3.766 3.765,0 8.411,0 C13.056,0 16.822,3.766 16.822,8.411" id="Fill-202" fill="#D1D3D4"></path>
                            <path d="M12.9475,8.411 C12.9475,10.916 10.9165,12.948 8.4105,12.948 C5.9055,12.948 3.8735,10.916 3.8735,8.411 C3.8735,5.906 5.9055,3.874 8.4105,3.874 C10.9165,3.874 12.9475,5.906 12.9475,8.411" id="Fill-203" fill="#FFFFFF"></path>
                        </g>
                        <path d="M8.8,22.659 C7.805,22.659 7,21.853 7,20.859 C7,19.865 7.805,19 8.8,19 C9.794,19 10.6,19.746 10.6,20.74 L10.6,20.859 C10.6,21.853 9.794,22.659 8.8,22.659 M8.8,31.102 C7.805,31.102 7,30.297 7,29.303 C7,28.308 7.805,27.443 8.8,27.443 C9.794,27.443 10.6,28.189 10.6,29.183 L10.6,29.303 C10.6,30.297 9.794,31.102 8.8,31.102 M8.8,39.546 C7.805,39.546 7,38.74 7,37.746 C7,36.751 7.805,35.886 8.8,35.886 C9.794,35.886 10.6,36.633 10.6,37.627 L10.6,37.746 C10.6,38.74 9.794,39.546 8.8,39.546 M8.8,47.989 C7.805,47.989 7,47.183 7,46.189 C7,45.195 7.805,44.33 8.8,44.33 C9.794,44.33 10.6,45.076 10.6,46.07 L10.6,46.189 C10.6,47.183 9.794,47.989 8.8,47.989 M8.8,56.432 C7.805,56.432 7,55.627 7,54.633 C7,53.638 7.805,52.773 8.8,52.773 C9.794,52.773 10.6,53.519 10.6,54.513 L10.6,54.633 C10.6,55.627 9.794,56.432 8.8,56.432 M8.8,64.875 C7.805,64.875 7,64.07 7,63.076 C7,62.081 7.805,61.216 8.8,61.216 C9.794,61.216 10.6,61.962 10.6,62.956 L10.6,63.076 C10.6,64.07 9.794,64.875 8.8,64.875 M8.8,73.319 C7.805,73.319 7,72.513 7,71.519 C7,70.524 7.805,69.659 8.8,69.659 C9.794,69.659 10.6,70.406 10.6,71.4 L10.6,71.519 C10.6,72.513 9.794,73.319 8.8,73.319 M8.8,80.762 C7.805,80.762 7,79.956 7,78.962 C7,77.968 7.805,77.103 8.8,77.103 C9.794,77.103 10.6,77.849 10.6,78.843 L10.6,78.962 C10.6,79.956 9.794,80.762 8.8,80.762" id="Fill-200" fill="#D1D3D4"></path>
                    </g>
                </g>
            </g>
        </g>
    </g>
</svg>