<svg width="532" height="155" viewBox="0 0 532 155" fill="none" xmlns="http://www.w3.org/2000/svg">
<path fill-rule="evenodd" clip-rule="evenodd" d="M89.8382 77.6993C89.8382 64.6743 80.6622 55.7602 68.4586 55.7602C56.2567 55.7602 47.0806 64.6743 47.0806 77.6993C47.0806 90.7242 56.2567 99.6367 68.4586 99.6367C80.6622 99.6367 89.8382 90.7242 89.8382 77.6993Z" fill="#3870DE"/>
<path fill-rule="evenodd" clip-rule="evenodd" d="M19.7229 155C8.87532 155 0 146.096 0 135.213V19.7872C0 8.90425 8.87532 0 19.7229 0H182.437C193.285 0 202.16 8.90425 202.16 19.7872V135.213C202.16 146.096 193.285 155 182.437 155H19.7229ZM31.0721 77.6041C31.0721 57.2332 46.8866 42.152 68.4586 42.152C89.9352 42.152 105.847 57.1359 105.847 77.6041C105.847 98.0724 89.9352 113.056 68.4586 113.056C46.8866 113.056 31.0721 97.9751 31.0721 77.6041ZM68.4586 55.7602C80.6622 55.7602 89.8382 64.6743 89.8382 77.6993C89.8382 90.7242 80.6622 99.6367 68.4586 99.6367C56.2567 99.6367 47.0806 90.7242 47.0806 77.6993C47.0806 64.6743 56.2567 55.7602 68.4586 55.7602ZM115.434 98.2159L114.068 101.256C113.005 103.626 113.963 106.409 116.252 107.62C122.515 110.931 131.364 113.056 140.15 113.056C159.674 113.056 169.143 103.263 169.143 91.8064C169.143 77.073 155.531 73.9499 144.242 71.3598C136.244 69.5249 129.413 67.9575 129.413 62.7192C129.413 58.4089 133.025 54.8835 142.395 54.8835C147.043 54.8835 151.979 55.9239 156.893 58.0461C159.391 59.1262 162.287 57.9159 163.313 55.3864L164.552 52.3243C165.534 49.8987 164.467 47.0873 162.084 46.027C156.321 43.4596 149.346 42.152 142.494 42.152C123.068 42.152 113.697 51.8461 113.697 63.5025C113.697 78.3936 127.287 81.5608 138.57 84.1906C146.58 86.0572 153.427 87.4572 153.427 92.9788C153.427 97.1919 149.62 100.326 140.249 100.326C133.923 100.326 127.366 98.577 122.054 95.8447C119.589 94.5767 116.571 95.6847 115.434 98.2159Z" fill="#3870DE"/>
<path fill-rule="evenodd" clip-rule="evenodd" d="M245.929 113.028C240.536 113.028 235.582 111.999 231.062 109.944V99.0395H237.843V105.592C240.451 106.348 243.32 106.726 246.45 106.726C250.36 106.726 253.119 106.081 254.729 104.791C256.338 103.497 257.143 101.684 257.143 99.3483C257.143 97.1818 256.184 95.4504 254.274 94.1587C252.36 92.867 249.362 91.5099 245.275 90.0919C239.538 88.076 235.626 85.914 233.54 83.6014C231.454 81.2934 230.41 78.5822 230.41 75.4739C230.41 71.3584 232.106 67.9762 235.495 65.3289C238.885 62.6846 243.232 61.361 248.536 61.361C253.404 61.361 258.01 62.3682 262.36 64.3841V75.2213H255.578V68.5437C253.577 67.7875 251.099 67.4102 248.144 67.4102C244.841 67.4102 242.361 68.0584 240.713 69.3546C239.06 70.6509 238.235 72.3473 238.235 74.4378C238.235 76.5313 239.124 78.1866 240.908 79.3977C242.687 80.6118 245.493 81.8867 249.318 83.2271C254.795 85.0787 258.772 87.1433 261.249 89.4148C263.727 91.6894 264.967 94.7186 264.967 98.507C264.967 102.886 263.226 106.4 259.75 109.051C256.272 111.702 251.666 113.028 245.929 113.028Z" fill="#3870DE"/>
<path fill-rule="evenodd" clip-rule="evenodd" d="M315.917 68.3735L298.77 119.569C297.71 122.843 296.578 125.835 295.381 128.548C294.187 131.261 292.812 133.618 291.262 135.632C289.711 137.64 287.873 139.159 285.747 140.19C283.619 141.22 281.095 141.731 278.172 141.731C276.575 141.731 274.98 141.592 273.385 141.311V133.598C275.07 133.879 276.71 134.018 278.305 134.018C279.72 134.018 281.03 133.853 282.225 133.528C283.42 133.198 284.552 132.548 285.614 131.562C286.678 130.582 287.785 128.946 288.937 126.655C290.086 124.363 291.373 121.066 292.791 116.767H292.127L276.71 68.3735H270.728V61.361H290.665V68.3735H284.816L296.379 105.966H296.646L308.738 68.3735H302.628V61.361H322.564V68.3735H315.917Z" fill="#3870DE"/>
<path fill-rule="evenodd" clip-rule="evenodd" d="M345.715 113.027C340.322 113.027 335.368 111.999 330.848 109.943V99.039H337.629V105.592C340.237 106.348 343.106 106.725 346.236 106.725C350.146 106.725 352.905 106.08 354.515 104.79C356.124 103.497 356.929 101.683 356.929 99.3478C356.929 97.1813 355.97 95.4499 354.06 94.1582C352.146 92.8665 349.148 91.5094 345.061 90.0914C339.324 88.0755 335.412 85.9135 333.326 83.6009C331.24 81.2929 330.196 78.5817 330.196 75.4734C330.196 71.3579 331.892 67.9757 335.281 65.3284C338.671 62.6841 343.018 61.3605 348.322 61.3605C353.19 61.3605 357.796 62.3677 362.146 64.3836V75.2208H355.364V68.5432C353.363 67.787 350.885 67.4097 347.93 67.4097C344.627 67.4097 342.147 68.0579 340.499 69.3541C338.846 70.6504 338.021 72.3468 338.021 74.4373C338.021 76.5308 338.91 78.1861 340.694 79.3972C342.473 80.6113 345.278 81.8863 349.103 83.2266C354.581 85.0782 358.558 87.1428 361.035 89.4144C363.513 91.6889 364.753 94.7181 364.753 98.5065C364.753 102.885 363.012 106.4 359.536 109.05C356.058 111.702 351.452 113.027 345.715 113.027Z" fill="#3870DE"/>
<path fill-rule="evenodd" clip-rule="evenodd" d="M391.105 113.029C386.977 113.029 383.711 111.998 381.313 109.935C378.913 107.875 377.715 104.829 377.715 100.791V64.9033H370.514V58.0288H377.715V45.6528L386.354 44.1405V58.0288H399.311V64.9033H386.354V99.4166C386.354 102.076 386.904 103.864 388.009 104.779C389.111 105.697 390.575 106.153 392.4 106.153C394.703 106.153 397.008 105.604 399.311 104.503V111.243C396.718 112.433 393.984 113.029 391.105 113.029Z" fill="#3870DE"/>
<path fill-rule="evenodd" clip-rule="evenodd" d="M444.022 109.122V102.316C439.284 105.088 434.091 106.473 428.442 106.473C423.338 106.307 419.626 104.585 417.304 101.307C414.98 98.0318 413.726 93.4523 413.546 87.5719H445.388V83.6648C445.388 76.5247 443.75 71.0232 440.468 67.1587C437.188 63.2927 432.903 61.3605 427.622 61.3605C421.152 61.3605 415.776 63.6898 411.496 68.3545C407.213 73.0162 405.072 79.4656 405.072 87.6982C405.072 95.6812 407.099 101.898 411.153 106.348C415.207 110.801 420.834 113.027 428.032 113.027C434.134 113.027 439.465 111.726 444.022 109.122ZM434.32 70.9916C436.231 73.219 437.188 76.7259 437.188 81.5139H413.682C414.136 76.8948 415.504 73.4305 417.781 71.1179C420.058 68.8083 422.882 67.6536 426.253 67.6536C429.717 67.6536 432.406 68.7657 434.32 70.9916Z" fill="#3870DE"/>
<path fill-rule="evenodd" clip-rule="evenodd" d="M451.147 106.568H457.981V69.1079H451.147V62.6517H465.632L466.043 69.3683H466.178C471.008 64.0303 476.521 61.3605 482.716 61.3605C489.277 61.3605 493.24 64.0708 494.608 69.4978H494.88C499.8 64.0708 505.448 61.3605 511.826 61.3605C516.381 61.3605 519.706 62.5862 521.803 65.0393C523.899 67.4954 524.946 70.9637 524.946 75.4393V106.568H531.781V113.027H511.279V106.568H516.747V76.4717C516.747 73.0284 516.107 70.7251 514.833 69.5633C513.556 68.3983 511.779 67.8182 509.504 67.8182C504.584 67.8182 499.936 70.2292 495.563 75.051V106.568H501.03V113.027H481.896V106.568H487.363V76.4717C487.363 73.0284 486.747 70.7251 485.52 69.5633C484.289 68.3983 482.579 67.8182 480.395 67.8182C475.201 67.8182 470.462 70.488 466.178 75.8261V106.568H471.647V113.027H451.147V106.568Z" fill="#3870DE"/>
</svg>
