<?xml version="1.0" encoding="UTF-8" standalone="no"?>
<svg width="70px" height="95px" viewBox="0 0 70 95" version="1.1" xmlns="http://www.w3.org/2000/svg" xmlns:xlink="http://www.w3.org/1999/xlink">
    <!-- Generator: Sketch 48.1 (47250) - http://www.bohemiancoding.com/sketch -->
    <title>increase (1)</title>
    <desc>Created with Sketch.</desc>
    <defs></defs>
    <g id="Компания/02-О-Нас" stroke="none" stroke-width="1" fill="none" fill-rule="evenodd" transform="translate(-611.000000, -899.000000)">
        <g id="общая">
            <g id="icon-liner-blue" transform="translate(169.000000, 892.000000)">
                <g id="2" transform="translate(432.000000, 0.000000)">
                    <g id="increase-(1)" transform="translate(7.000000, 0.000000)">
                        <rect id="фон" fill="#E3F2FE" transform="translate(40.053587, 46.798430) rotate(15.000000) translate(-40.053587, -46.798430) " x="10" y="7" width="60.1071732" height="79.5968594" rx="30.0535866"></rect>
                        <path d="M69.0060307,98.0153871 L63.029594,98.0153871 L63.029594,54.0544858 L69.0060307,54.0544858 C70.7728374,54.0544858 71.6645416,51.9138903 70.4204855,50.6594432 L54.4833652,34.5891054 C53.7044189,33.8036315 52.4334018,33.8036315 51.6544556,34.5891054 L35.7173353,50.6594432 C34.4731464,51.9140231 35.3651161,54.0544858 37.1317901,54.0544858 L43.1082268,54.0544858 L43.1082268,66.0076604 L28.8978039,66.0076604 C27.7975838,66.0076604 26.905614,66.8996526 26.905614,67.9999004 L26.905614,77.9608349 L12.9606836,77.9608349 C11.8604635,77.9608349 10.9684937,78.8528272 10.9684937,79.9530749 L10.9684937,98.0155199 L4.99218984,98.0155199 C3.8919698,98.0155199 3,98.9075122 3,100.00776 C3,101.108008 3.8919698,102 4.99218984,102 L69.0061635,102 C70.1063835,102 70.9983533,101.108008 70.9983533,100.00776 C70.9982205,98.9073794 70.1062507,98.0153871 69.0060307,98.0153871 Z M26.905614,98.0153871 L14.9528734,98.0153871 L14.9528734,81.9450493 L26.905614,81.9450493 L26.905614,98.0153871 Z M43.1083596,98.0153871 L30.8899937,98.0153871 L30.8899937,69.9920076 L43.1083596,69.9920076 L43.1083596,98.0153871 Z M59.0453471,52.0622458 L59.0453471,98.0153871 L47.0926065,98.0153871 L47.0926065,52.0622458 C47.0926065,50.961998 46.2006367,50.0700058 45.1004166,50.0700058 L41.9133113,50.0700058 L53.0690432,38.8210216 L64.2247751,50.0700058 L61.0376697,50.0700058 C59.9373169,50.0701386 59.0453471,50.9621308 59.0453471,52.0622458 Z" id="Shape" fill="#44A6F6" fill-rule="nonzero"></path>
                    </g>
                </g>
            </g>
        </g>
    </g>
</svg>