<?xml version="1.0" encoding="UTF-8" standalone="no"?>
<svg width="98px" height="430px" viewBox="0 0 98 430" version="1.1" xmlns="http://www.w3.org/2000/svg" xmlns:xlink="http://www.w3.org/1999/xlink">
    <!-- Generator: Sketch 48.1 (47250) - http://www.bohemiancoding.com/sketch -->
    <title>ракеты</title>
    <desc>Created with Sketch.</desc>
    <defs></defs>
    <g id="Компания/02-О-Нас" stroke="none" stroke-width="1" fill="none" fill-rule="evenodd" transform="translate(-169.000000, -1170.000000)">
        <g id="общая" fill="#909EB1">
            <g id="таймлайн-истории" transform="translate(169.000000, 1161.000000)">
                <g id="ракеты" transform="translate(0.000000, 9.000000)">
                    <path d="M61.1146869,412.638387 C60.2649571,409.95375 57.7185617,408 54.7166356,408 C51.4017982,408 48.6441345,410.382689 48.1113073,413.500852 C48.0796436,413.500459 48.0478469,413.500066 48.0167154,413.500066 C44.938025,413.500066 42.4334043,415.967415 42.4334043,419 C42.4334043,420.81942 40.6801964,422.299934 38.5250732,422.299934 C36.3699499,422.299934 34.6167421,420.819289 34.6167421,419 C34.6167421,418.392828 34.1165097,417.900066 33.500133,417.900066 C32.8837563,417.900066 32.383524,418.392828 32.383524,419 C32.383524,420.81942 30.6303162,422.299934 28.4751929,422.299934 C26.3200697,422.299934 24.5668618,420.819289 24.5668618,419 C24.5668618,416.317329 22.6063768,414.078406 20.0229962,413.597045 C19.5312784,410.431572 16.7491352,408 13.4002395,408 C10.4746786,408 7.98336199,409.856377 7.07190145,412.435778 C3.10968892,412.80666 0,416.101614 0,420.100066 L0,428.900066 C0,429.507238 0.500232324,430 1.11660902,430 L65.883391,430 C66.500965,430 67,429.507238 67,428.900066 L67,420.100066 C67.000133,416.510633 64.4932507,413.487615 61.1146869,412.638387 Z M54.7167687,410.200131 C56.376183,410.200131 57.8256593,411.096277 58.5958309,412.422541 C56.1089046,412.605492 53.9422068,413.939096 52.6453279,415.884851 C52.0270886,414.84494 51.1772258,414.241961 50.3067418,413.90227 C50.6471924,411.806326 52.49446,410.200131 54.7167687,410.200131 Z M13.3999734,410.200131 C15.5247634,410.200131 17.3060428,411.668851 17.7558528,413.629678 C16.2660651,413.95325 15.1767294,414.86368 14.4608384,416.04762 C13.3547396,414.294383 11.5536372,413.009531 9.44002256,412.568011 C10.1863798,411.162066 11.6805578,410.200131 13.3999734,410.200131 Z M64.766782,427.8 L2.23335107,427.8 L2.23335107,420.100066 C2.23335107,417.06735 4.73797175,414.600131 7.81666223,414.600131 C10.8953527,414.600131 13.3999734,417.067481 13.3999734,420.100066 C13.3999734,420.707238 13.9002057,421.2 14.5165824,421.2 C15.1329591,421.2 15.6331914,420.707238 15.6331914,420.100066 C15.6331914,418.465432 16.3389713,415.700066 18.9831515,415.700066 C20.8301529,415.700066 22.3331116,417.180711 22.3331116,419 C22.3331116,422.032716 25.0879815,424.499934 28.4747938,424.499934 C30.5495606,424.499934 32.3876483,423.573777 33.499867,422.159183 C34.6120856,423.573777 36.4500403,424.499934 38.5249401,424.499934 C41.9117524,424.499934 44.6666223,422.032716 44.6666223,419 C44.6666223,417.18058 46.169714,415.700066 48.0165824,415.700066 C49.5766154,415.700066 51.3665425,416.20056 51.3665425,420.100066 C51.3665425,420.707238 51.8667748,421.2 52.4831515,421.2 C53.1007256,421.2 53.5997605,420.707238 53.5997605,420.100066 C53.5997605,417.06735 56.1043812,414.600131 59.1830717,414.600131 C62.2617622,414.600131 64.7663828,417.067481 64.7663828,420.100066 L64.766782,427.8 Z" id="Shape" fill-rule="nonzero"></path>
                    <g id="1" transform="translate(14.000000, 364.000000)" fill-rule="nonzero">
                        <path d="M19.5,19 C21.9817418,19 24,16.9817418 24,14.5 C24,12.0182582 21.9817418,10 19.5,10 C17.0182582,10 15,12.0182582 15,14.5 C15,16.9817418 17.0182582,19 19.5,19 Z M19.5,12.25 C20.7408709,12.25 21.75,13.2591291 21.75,14.5 C21.75,15.7408709 20.7408709,16.75 19.5,16.75 C18.2591291,16.75 17.25,15.7408709 17.25,14.5 C17.25,13.2591291 18.2591291,12.25 19.5,12.25 Z" id="Shape"></path>
                        <path d="M19.5,33 C21.9817418,33 24,30.9817418 24,28.5 C24,26.0182582 21.9817418,24 19.5,24 C17.0182582,24 15,26.0182582 15,28.5 C15,30.9817418 17.0182582,33 19.5,33 Z M19.5,26.250134 C20.7408709,26.250134 21.75,27.2592631 21.75,28.500134 C21.75,29.7410049 20.7408709,30.750134 19.5,30.750134 C18.2591291,30.750134 17.25,29.7410049 17.25,28.500134 C17.25,27.2592631 18.2591291,26.250134 19.5,26.250134 Z" id="Shape"></path>
                        <path d="M1.22053165,41.1463861 C1.5512976,41.3187747 1.91016,41.4037025 2.26782398,41.4037025 C2.72389216,41.4037025 3.17756348,41.2649116 3.56771815,40.9918629 L9.61564824,36.7537425 C9.75200264,36.9710615 9.89075389,37.1878472 10.0342988,37.4031663 C10.4873044,38.075522 10.8716001,38.7672097 11.1891833,39.4756963 C11.2154156,39.5672902 11.2532326,39.6536845 11.3006371,39.7339459 C11.9593726,41.2931764 12.2942665,42.9333349 12.2942665,44.6366892 L12.2942665,45.8810071 C12.2942665,46.4986997 12.7949428,47 13.4118665,47 L24.5883998,47 C25.2053235,47 25.7059998,46.4986997 25.7059998,45.8810071 L25.7059998,44.6377558 C25.7059998,42.9336015 26.0418258,41.2913099 26.7078851,39.7214134 C26.7499632,39.6479516 26.784185,39.5695568 26.8088193,39.4867622 C27.1307968,38.767343 27.5221499,38.0632561 27.984876,37.3761014 C28.1221625,37.170115 28.2553211,36.9627954 28.3860828,36.7548091 L34.4322818,40.9917296 C34.8223034,41.2647783 35.2761078,41.4035691 35.732176,41.4035691 C36.08984,41.4035691 36.4485692,41.3185081 36.7794683,41.1462528 C37.5327465,40.7534787 38,39.9824629 38,39.1330522 L38,34.628816 C38,26.7408029 33.8049717,22.8230613 32.3603342,21.7080682 C31.9567305,14.5769385 28.482756,7.61006473 22.1876835,2.33641256 L19.7186569,0.261882727 C19.3029358,-0.0872942423 18.6970642,-0.0872942423 18.2813431,0.261882727 L15.8135149,2.33547929 C9.52150511,7.60713159 6.04766377,14.5708056 5.64499219,21.7042018 C4.20554781,22.8134619 0,26.7310702 0,34.6290826 L0,39.1333189 C1.8922974e-15,39.9825962 0.467253499,40.753612 1.22053165,41.1463861 Z M23.4706666,44.7620143 L14.5293334,44.7620143 L14.5293334,44.6366892 C14.5293334,43.1615865 14.3054938,41.6994163 13.8699321,40.2857762 L24.1298016,40.2857762 C23.6949056,41.6987497 23.4705334,43.1621198 23.4705334,44.6377558 L23.4705334,44.7620143 L23.4706666,44.7620143 Z M35.7645336,34.6290826 L35.7141996,39.1590505 L29.5032834,34.8057376 C31.1808154,31.5778172 32.1193171,28.1707086 32.3460862,24.7512008 C33.8268097,26.4129579 35.7645336,29.5559506 35.7645336,34.6290826 Z M17.2497635,4.05203274 L19,2.58052979 L20.7502365,4.05203274 C20.7513018,4.05203274 20.7513018,4.05203274 20.7525002,4.05309933 C30.8605689,12.5209408 33.0702026,25.7135373 26.1138646,36.1508489 C25.7013393,36.7634752 25.3364848,37.3974334 25.0181026,38.0476571 L12.9813648,38.0476571 C12.6600531,37.3919671 12.2914701,36.7521426 11.8737516,36.1329834 C4.93099582,25.7112708 7.14169476,12.5198742 17.2497635,4.05203274 Z M2.23533328,34.6290826 C2.23533328,29.5494177 4.17811714,26.4050917 5.65950647,24.7448012 C5.88600924,28.1619092 6.82251361,31.5680845 8.49698291,34.7981381 L2.23533328,39.1331855 L2.23533328,34.6290826 Z" id="Shape"></path>
                        <path d="M14,48.9999762 L14,52.0000238 C14,52.5520183 14.4479924,53 15,53 C15.5520076,53 16,52.5520183 16,52.0000238 L16,48.9999762 C16,48.4479817 15.5520076,48 15,48 C14.4479924,48 14,48.4479817 14,48.9999762 Z" id="Shape"></path>
                        <path d="M23,48.9999762 L23,52.0000238 C23,52.5520183 23.4479924,53 24,53 C24.5520076,53 25,52.5520183 25,52.0000238 L25,48.9999762 C25,48.4479817 24.5520076,48 24,48 C23.4479924,48 23,48.4479817 23,48.9999762 Z" id="Shape"></path>
                        <path d="M18,49 L18,50 C18,50.5520076 18.4479924,51 19,51 C19.5520076,51 20,50.5520076 20,50 L20,49 C20,48.4479924 19.5520076,48 19,48 C18.4479924,48 18,48.4479924 18,49 Z" id="Shape"></path>
                    </g>
                    <g id="2" transform="translate(61.953346, 312.913368) rotate(43.000000) translate(-61.953346, -312.913368) translate(47.953346, 293.413368)" fill-rule="nonzero">
                        <path d="M13.8179163,13.439001 C15.4771462,13.439001 16.8265026,12.0896446 16.8265026,10.4304147 C16.8265026,8.77118485 15.4771462,7.42182843 13.8179163,7.42182843 C12.1586865,7.42182843 10.80933,8.77118485 10.80933,10.4304147 C10.80933,12.0896446 12.1586865,13.439001 13.8179163,13.439001 Z M13.8179163,8.92612158 C14.6475313,8.92612158 15.3222095,9.60079979 15.3222095,10.4304147 C15.3222095,11.2600297 14.6475313,11.9347079 13.8179163,11.9347079 C12.9883014,11.9347079 12.3136232,11.2600297 12.3136232,10.4304147 C12.3136232,9.60079979 12.9883014,8.92612158 13.8179163,8.92612158 Z" id="Shape"></path>
                        <path d="M13.8179163,22.7990473 C15.4771462,22.7990473 16.8265026,21.4496909 16.8265026,19.790461 C16.8265026,18.1312311 15.4771462,16.7818747 13.8179163,16.7818747 C12.1586865,16.7818747 10.80933,18.1312311 10.80933,19.790461 C10.80933,21.4496909 12.1586865,22.7990473 13.8179163,22.7990473 Z M13.8179163,18.2862575 C14.6475313,18.2862575 15.3222095,18.9609357 15.3222095,19.7905506 C15.3222095,20.6201655 14.6475313,21.2948438 13.8179163,21.2948438 C12.9883014,21.2948438 12.3136232,20.6201655 12.3136232,19.7905506 C12.3136232,18.9609357 12.9883014,18.2862575 13.8179163,18.2862575 Z" id="Shape"></path>
                        <path d="M0.889545386,29.988225 C1.13061354,30.113865 1.39215891,30.1757618 1.65283084,30.1757618 C1.98522152,30.1757618 2.31586532,30.0746086 2.60021705,29.8756058 L7.0080571,26.7867875 C7.10743464,26.9451735 7.20855904,27.1031708 7.31317719,27.2600993 C7.64333575,27.7501241 7.92341736,28.2542386 8.15487772,28.7705963 C8.17399625,28.8373516 8.20155799,28.9003174 8.23610721,28.9588133 C8.71620551,30.0952085 8.96028217,31.2905854 8.96028217,32.5320206 L8.96028217,33.4389019 C8.96028217,33.8890873 9.32518405,34.254444 9.77480917,34.254444 L17.9204673,34.254444 C18.3700924,34.254444 18.7349943,33.8890873 18.7349943,33.4389019 L18.7349943,32.532798 C18.7349943,31.2907798 18.9797503,30.0938481 19.4651862,28.9496794 C19.4958535,28.8961391 19.520795,28.8390035 19.5387489,28.7786614 C19.7734119,28.2543357 20.058637,27.7411846 20.3958801,27.2403739 C20.495937,27.0902473 20.5929854,26.939149 20.6882869,26.7875649 L25.0948653,29.8755086 C25.37912,30.0745114 25.7098608,30.1756647 26.0422515,30.1756647 C26.3029235,30.1756647 26.5643718,30.1136706 26.805537,29.9881279 C27.3545396,29.7018671 27.6950824,29.1399369 27.6950824,28.5208712 L27.6950824,25.2381029 C27.6950824,19.4891773 24.6376704,16.6338569 23.5847926,15.8212299 C23.290639,10.6239346 20.758744,5.54635183 16.1707822,1.70281943 L14.3713112,0.190864834 C14.0683262,-0.0636216113 13.6267561,-0.0636216113 13.3237711,0.190864834 L11.5251736,1.70213925 C6.9394439,5.5442141 4.40764595,10.6194648 4.11417167,15.818412 C3.06507876,16.6268607 0,19.482084 0,25.2382972 L0,28.5210655 C1.37914033e-15,29.1400341 0.34054274,29.7019642 0.889545386,29.988225 Z M17.1058433,32.6233598 L10.5892391,32.6233598 L10.5892391,32.5320206 C10.5892391,31.4569393 10.4261008,30.3912834 10.1086556,29.3609971 L17.5862327,29.3609971 C17.2692727,30.3907975 17.1057462,31.457328 17.1057462,32.532798 L17.1057462,32.6233598 L17.1058433,32.6233598 Z M26.0658343,25.2382972 L26.02915,28.5398192 L21.5025227,25.3670466 C22.7251381,23.0144802 23.4091351,20.5313183 23.5744085,18.0391196 C24.6535864,19.250238 26.0658343,21.5409075 26.0658343,25.2382972 Z M12.5719374,2.95319422 L13.8475412,1.88073645 L15.123145,2.95319422 C15.1239214,2.95319422 15.1239214,2.95319422 15.1247948,2.95397158 C22.4917368,9.12548651 24.1021575,18.7404877 19.0322535,26.3473878 C18.7315976,26.7938809 18.4656851,27.255921 18.2336424,27.7298157 L9.46105178,27.7298157 C9.22687405,27.251937 8.95824416,26.7856215 8.65380341,26.3343672 C3.5937983,18.7388359 5.20499538,9.12470915 12.5719374,2.95319422 Z M1.62915104,25.2382972 C1.62915104,21.5361462 3.0450868,19.244505 4.12474994,18.0344555 C4.28982923,20.5249051 4.97237043,23.0073869 6.19275372,25.3615079 L1.62915104,28.5209683 L1.62915104,25.2382972 Z" id="Shape"></path>
                        <path d="M9.36004626,35.5915775 L9.36004626,37.5973336 C9.36004626,37.9663831 9.65956264,38.2658924 10.028621,38.2658924 C10.3976793,38.2658924 10.6971957,37.9663831 10.6971957,37.5973336 L10.6971957,35.5915775 C10.6971957,35.222528 10.3976793,34.9230187 10.028621,34.9230187 C9.65956264,34.9230187 9.36004626,35.222528 9.36004626,35.5915775 Z" id="Shape"></path>
                        <path d="M15.3772189,35.5915775 L15.3772189,37.5973336 C15.3772189,37.9663831 15.6767352,38.2658924 16.0457936,38.2658924 C16.4148519,38.2658924 16.7143683,37.9663831 16.7143683,37.5973336 L16.7143683,35.5915775 C16.7143683,35.222528 16.4148519,34.9230187 16.0457936,34.9230187 C15.6767352,34.9230187 15.3772189,35.222528 15.3772189,35.5915775 Z" id="Shape"></path>
                        <path d="M12.0343452,35.5915934 L12.0343452,36.2601682 C12.0343452,36.6292265 12.3338616,36.9287429 12.7029199,36.9287429 C13.0719783,36.9287429 13.3714947,36.6292265 13.3714947,36.2601682 L13.3714947,35.5915934 C13.3714947,35.2225351 13.0719783,34.9230187 12.7029199,34.9230187 C12.3338616,34.9230187 12.0343452,35.2225351 12.0343452,35.5915934 Z" id="Shape"></path>
                    </g>
                    <g id="3" transform="translate(61.953346, 312.913368) rotate(43.000000) translate(-61.953346, -312.913368) translate(47.953346, 293.413368)" fill-rule="nonzero">
                        <path d="M0.889545386,29.988225 C1.13061354,30.113865 1.39215891,30.1757618 1.65283084,30.1757618 C1.98522152,30.1757618 2.31586532,30.0746086 2.60021705,29.8756058 L7.0080571,26.7867875 C7.10743464,26.9451735 7.20855904,27.1031708 7.31317719,27.2600993 C7.64333575,27.7501241 7.92341736,28.2542386 8.15487772,28.7705963 C8.17399625,28.8373516 8.20155799,28.9003174 8.23610721,28.9588133 C8.71620551,30.0952085 8.96028217,31.2905854 8.96028217,32.5320206 L8.96028217,33.4389019 C8.96028217,33.8890873 9.32518405,34.254444 9.77480917,34.254444 L17.9204673,34.254444 C18.3700924,34.254444 18.7349943,33.8890873 18.7349943,33.4389019 L18.7349943,32.532798 C18.7349943,31.2907798 18.9797503,30.0938481 19.4651862,28.9496794 C19.4958535,28.8961391 19.520795,28.8390035 19.5387489,28.7786614 C19.7734119,28.2543357 20.058637,27.7411846 20.3958801,27.2403739 C20.495937,27.0902473 20.5929854,26.939149 20.6882869,26.7875649 L25.0948653,29.8755086 C25.37912,30.0745114 25.7098608,30.1756647 26.0422515,30.1756647 C26.3029235,30.1756647 26.5643718,30.1136706 26.805537,29.9881279 C27.3545396,29.7018671 27.6950824,29.1399369 27.6950824,28.5208712 L27.6950824,25.2381029 C27.6950824,19.4891773 24.6376704,16.6338569 23.5847926,15.8212299 C23.290639,10.6239346 20.758744,5.54635183 16.1707822,1.70281943 L14.3713112,0.190864834 C14.0683262,-0.0636216113 13.6267561,-0.0636216113 13.3237711,0.190864834 L11.5251736,1.70213925 C6.9394439,5.5442141 4.40764595,10.6194648 4.11417167,15.818412 C3.06507876,16.6268607 0,19.482084 0,25.2382972 L0,28.5210655 C1.37914033e-15,29.1400341 0.34054274,29.7019642 0.889545386,29.988225 Z M17.1058433,32.6233598 L10.5892391,32.6233598 L10.5892391,32.5320206 C10.5892391,31.4569393 10.4261008,30.3912834 10.1086556,29.3609971 L17.5862327,29.3609971 C17.2692727,30.3907975 17.1057462,31.457328 17.1057462,32.532798 L17.1057462,32.6233598 L17.1058433,32.6233598 Z M26.0658343,25.2382972 L26.02915,28.5398192 L21.5025227,25.3670466 C22.7251381,23.0144802 23.4091351,20.5313183 23.5744085,18.0391196 C24.6535864,19.250238 26.0658343,21.5409075 26.0658343,25.2382972 Z M12.5719374,2.95319422 L13.8475412,1.88073645 L15.123145,2.95319422 C15.1239214,2.95319422 15.1239214,2.95319422 15.1247948,2.95397158 C22.4917368,9.12548651 24.1021575,18.7404877 19.0322535,26.3473878 C18.7315976,26.7938809 18.4656851,27.255921 18.2336424,27.7298157 L9.46105178,27.7298157 C9.22687405,27.251937 8.95824416,26.7856215 8.65380341,26.3343672 C3.5937983,18.7388359 5.20499538,9.12470915 12.5719374,2.95319422 Z M1.62915104,25.2382972 C1.62915104,21.5361462 3.0450868,19.244505 4.12474994,18.0344555 C4.28982923,20.5249051 4.97237043,23.0073869 6.19275372,25.3615079 L1.62915104,28.5209683 L1.62915104,25.2382972 Z" id="Shape"></path>
                        <g id="Group-7" transform="translate(9.000000, 34.000000)">
                            <path d="M0.360046262,1.59157751 L0.360046262,3.59733357 C0.360046262,3.96638313 0.659562645,4.26589237 1.028621,4.26589237 C1.39767935,4.26589237 1.69719573,3.96638313 1.69719573,3.59733357 L1.69719573,1.59157751 C1.69719573,1.22252795 1.39767935,0.923018708 1.028621,0.923018708 C0.659562645,0.923018708 0.360046262,1.22252795 0.360046262,1.59157751 Z" id="Shape"></path>
                            <path d="M6.37721886,1.59157751 L6.37721886,3.59733357 C6.37721886,3.96638313 6.67673524,4.26589237 7.04579359,4.26589237 C7.41485194,4.26589237 7.71436833,3.96638313 7.71436833,3.59733357 L7.71436833,1.59157751 C7.71436833,1.22252795 7.41485194,0.923018708 7.04579359,0.923018708 C6.67673524,0.923018708 6.37721886,1.22252795 6.37721886,1.59157751 Z" id="Shape"></path>
                            <path d="M3.03434519,1.59159344 L3.03434519,2.26016817 C3.03434519,2.62922652 3.33386158,2.92874291 3.70291993,2.92874291 C4.07197828,2.92874291 4.37149466,2.62922652 4.37149466,2.26016817 L4.37149466,1.59159344 C4.37149466,1.22253509 4.07197828,0.923018708 3.70291993,0.923018708 C3.33386158,0.923018708 3.03434519,1.22253509 3.03434519,1.59159344 Z" id="Shape"></path>
                        </g>
                    </g>
                    <g id="4" transform="translate(29.030594, 245.166341) rotate(-44.000000) translate(-29.030594, -245.166341) translate(14.030594, 224.666341)" fill-rule="nonzero">
                        <path d="M15.5712644,14.6817137 C17.5015081,14.6817137 19.0712644,13.1119574 19.0712644,11.1817137 C19.0712644,9.2514701 17.5015081,7.68171374 15.5712644,7.68171374 C13.6410208,7.68171374 12.0712644,9.2514701 12.0712644,11.1817137 C12.0712644,13.1119574 13.6410208,14.6817137 15.5712644,14.6817137 Z M15.5712644,9.43171374 C16.5363863,9.43171374 17.3212644,10.2165919 17.3212644,11.1817137 C17.3212644,12.1468356 16.5363863,12.9317137 15.5712644,12.9317137 C14.6061426,12.9317137 13.8212644,12.1468356 13.8212644,11.1817137 C13.8212644,10.2165919 14.6061426,9.43171374 15.5712644,9.43171374 Z" id="Shape"></path>
                        <path d="M15.5712644,25.6555905 C17.5015081,25.6555905 19.0712644,24.0858342 19.0712644,22.1555905 C19.0712644,20.2253469 17.5015081,18.6555905 15.5712644,18.6555905 C13.6410208,18.6555905 12.0712644,20.2253469 12.0712644,22.1555905 C12.0712644,24.0858342 13.6410208,25.6555905 15.5712644,25.6555905 Z M15.5712644,20.4056948 C16.5363863,20.4056948 17.3212644,21.1905729 17.3212644,22.1556948 C17.3212644,23.1208166 16.5363863,23.9056948 15.5712644,23.9056948 C14.6061426,23.9056948 13.8212644,23.1208166 13.8212644,22.1556948 C13.8212644,21.1905729 14.6061426,20.4056948 15.5712644,20.4056948 Z" id="Shape"></path>
                        <path d="M0.951676387,31.7035473 C1.20958214,31.8363738 1.48939535,31.9018112 1.76827412,31.9018112 C2.12388088,31.9018112 2.47761877,31.7948719 2.78183127,31.5844862 L7.49754039,28.318988 C7.60385903,28.4864336 7.71204655,28.6534684 7.82397183,28.8193731 C8.17719058,29.3374273 8.4768347,29.870377 8.72446161,30.4162704 C8.74491548,30.4868441 8.77440229,30.5534114 8.81136463,30.6152533 C9.32499578,31.8166502 9.58612016,33.0804025 9.58612016,34.3928476 L9.58612016,35.3516024 C9.58612016,35.8275384 9.97650891,36.2137933 10.4575384,36.2137933 L19.1721365,36.2137933 C19.653166,36.2137933 20.0435548,35.8275384 20.0435548,35.3516024 L20.0435548,34.3936695 C20.0435548,33.080608 20.3054059,31.815212 20.8247476,30.605597 C20.8575568,30.5489942 20.8842403,30.4885905 20.9034483,30.4247967 C21.1545015,29.8704797 21.4596484,29.3279764 21.8204465,28.7985194 C21.9274919,28.6398056 22.0313187,28.4800645 22.1332766,28.3198098 L26.847636,31.5843835 C27.1517447,31.7947692 27.5055864,31.9017084 27.8611932,31.9017084 C28.1400719,31.9017084 28.4197813,31.8361684 28.6777909,31.7034446 C29.2651391,31.4008097 29.6294673,30.8067372 29.6294673,30.152261 L29.6294673,26.6817188 C29.6294673,20.6039555 26.358508,17.5853112 25.2320911,16.726202 C24.9173921,11.2316221 22.2086549,5.86360237 17.3002432,1.80022046 L15.3750868,0.201782276 C15.0509396,-0.0672607585 14.5785277,-0.0672607585 14.2543804,0.201782276 L12.3301585,1.79950137 C7.42413485,5.86134237 4.71550147,11.2268967 4.40152924,16.7232229 C3.27916161,17.5779148 0,20.5964564 0,26.6819243 L0,30.1524664 C1.47546747e-15,30.8068399 0.364328217,31.4009124 0.951676387,31.7035473 Z M18.3006144,34.4894114 L11.3288529,34.4894114 L11.3288529,34.3928476 C11.3288529,33.2562718 11.15432,32.1296605 10.8147026,31.040442 L18.814557,31.040442 C18.4754587,32.1291469 18.3005106,33.2566827 18.3005106,34.3936695 L18.3005106,34.4894114 L18.3006144,34.4894114 Z M27.8864231,26.6819243 L27.8471766,30.1722928 L23.0043834,26.8180381 C24.3123934,24.3309052 25.0441646,21.7057068 25.2209816,19.0709547 C26.3755356,20.3513489 27.8864231,22.7730444 27.8864231,26.6819243 Z M13.4500343,3.12211652 L14.8147336,1.98831431 L16.179433,3.12211652 C16.1802636,3.12211652 16.1802636,3.12211652 16.1811981,3.12293833 C24.0626899,9.64746305 25.7855917,19.812441 20.3615762,27.8544547 C20.0399208,28.3264871 19.7554354,28.8149558 19.5071856,29.3159573 L10.1218664,29.3159573 C9.87133236,28.810744 9.5839398,28.3177553 9.25823515,27.8406893 C3.84480998,19.8106946 5.5685424,9.64664123 13.4500343,3.12211652 Z M1.74294038,26.6819243 C1.74294038,22.7680107 3.25777329,20.345288 4.41284636,19.0660238 C4.58945574,21.6989268 5.31966958,24.3234062 6.6252915,26.8121826 L1.74294038,30.1523637 L1.74294038,26.6819243 Z" id="Shape"></path>
                        <g id="выхлоп" transform="translate(11.000000, 36.000000)">
                            <path d="M0.360046262,1.59157751 L0.360046262,3.59733357 C0.360046262,3.96638313 0.659562645,4.26589237 1.028621,4.26589237 C1.39767935,4.26589237 1.69719573,3.96638313 1.69719573,3.59733357 L1.69719573,1.59157751 C1.69719573,1.22252795 1.39767935,0.923018708 1.028621,0.923018708 C0.659562645,0.923018708 0.360046262,1.22252795 0.360046262,1.59157751 Z" id="Shape"></path>
                            <path d="M6.37721886,1.59157751 L6.37721886,3.59733357 C6.37721886,3.96638313 6.67673524,4.26589237 7.04579359,4.26589237 C7.41485194,4.26589237 7.71436833,3.96638313 7.71436833,3.59733357 L7.71436833,1.59157751 C7.71436833,1.22252795 7.41485194,0.923018708 7.04579359,0.923018708 C6.67673524,0.923018708 6.37721886,1.22252795 6.37721886,1.59157751 Z" id="Shape"></path>
                            <path d="M3.03434519,1.59159344 L3.03434519,2.26016817 C3.03434519,2.62922652 3.33386158,2.92874291 3.70291993,2.92874291 C4.07197828,2.92874291 4.37149466,2.62922652 4.37149466,2.26016817 L4.37149466,1.59159344 C4.37149466,1.22253509 4.07197828,0.923018708 3.70291993,0.923018708 C3.33386158,0.923018708 3.03434519,1.22253509 3.03434519,1.59159344 Z" id="Shape"></path>
                        </g>
                    </g>
                    <g id="5" transform="translate(65.288982, 173.030594) rotate(46.000000) translate(-65.288982, -173.030594) translate(50.288982, 152.530594)" fill-rule="nonzero">
                        <path d="M14.8519246,13.9870554 C16.7821683,13.9870554 18.3519246,12.417299 18.3519246,10.4870554 C18.3519246,8.55681173 16.7821683,6.98705537 14.8519246,6.98705537 C12.921681,6.98705537 11.3519246,8.55681173 11.3519246,10.4870554 C11.3519246,12.417299 12.921681,13.9870554 14.8519246,13.9870554 Z M14.8519246,8.73705537 C15.8170465,8.73705537 16.6019246,9.52193355 16.6019246,10.4870554 C16.6019246,11.4521772 15.8170465,12.2370554 14.8519246,12.2370554 C13.8868028,12.2370554 13.1019246,11.4521772 13.1019246,10.4870554 C13.1019246,9.52193355 13.8868028,8.73705537 14.8519246,8.73705537 Z" id="Shape"></path>
                        <path d="M14.8519246,24.9609321 C16.7821683,24.9609321 18.3519246,23.3911758 18.3519246,21.4609321 C18.3519246,19.5306885 16.7821683,17.9609321 14.8519246,17.9609321 C12.921681,17.9609321 11.3519246,19.5306885 11.3519246,21.4609321 C11.3519246,23.3911758 12.921681,24.9609321 14.8519246,24.9609321 Z M14.8519246,19.7110364 C15.8170465,19.7110364 16.6019246,20.4959146 16.6019246,21.4610364 C16.6019246,22.4261582 15.8170465,23.2110364 14.8519246,23.2110364 C13.8868028,23.2110364 13.1019246,22.4261582 13.1019246,21.4610364 C13.1019246,20.4959146 13.8868028,19.7110364 14.8519246,19.7110364 Z" id="Shape"></path>
                        <path d="M0.951676387,31.7035473 C1.20958214,31.8363738 1.48939535,31.9018112 1.76827412,31.9018112 C2.12388088,31.9018112 2.47761877,31.7948719 2.78183127,31.5844862 L7.49754039,28.318988 C7.60385903,28.4864336 7.71204655,28.6534684 7.82397183,28.8193731 C8.17719058,29.3374273 8.4768347,29.870377 8.72446161,30.4162704 C8.74491548,30.4868441 8.77440229,30.5534114 8.81136463,30.6152533 C9.32499578,31.8166502 9.58612016,33.0804025 9.58612016,34.3928476 L9.58612016,35.3516024 C9.58612016,35.8275384 9.97650891,36.2137933 10.4575384,36.2137933 L19.1721365,36.2137933 C19.653166,36.2137933 20.0435548,35.8275384 20.0435548,35.3516024 L20.0435548,34.3936695 C20.0435548,33.080608 20.3054059,31.815212 20.8247476,30.605597 C20.8575568,30.5489942 20.8842403,30.4885905 20.9034483,30.4247967 C21.1545015,29.8704797 21.4596484,29.3279764 21.8204465,28.7985194 C21.9274919,28.6398056 22.0313187,28.4800645 22.1332766,28.3198098 L26.847636,31.5843835 C27.1517447,31.7947692 27.5055864,31.9017084 27.8611932,31.9017084 C28.1400719,31.9017084 28.4197813,31.8361684 28.6777909,31.7034446 C29.2651391,31.4008097 29.6294673,30.8067372 29.6294673,30.152261 L29.6294673,26.6817188 C29.6294673,20.6039555 26.358508,17.5853112 25.2320911,16.726202 C24.9173921,11.2316221 22.2086549,5.86360237 17.3002432,1.80022046 L15.3750868,0.201782276 C15.0509396,-0.0672607585 14.5785277,-0.0672607585 14.2543804,0.201782276 L12.3301585,1.79950137 C7.42413485,5.86134237 4.71550147,11.2268967 4.40152924,16.7232229 C3.27916161,17.5779148 0,20.5964564 0,26.6819243 L0,30.1524664 C1.47546747e-15,30.8068399 0.364328217,31.4009124 0.951676387,31.7035473 Z M18.3006144,34.4894114 L11.3288529,34.4894114 L11.3288529,34.3928476 C11.3288529,33.2562718 11.15432,32.1296605 10.8147026,31.040442 L18.814557,31.040442 C18.4754587,32.1291469 18.3005106,33.2566827 18.3005106,34.3936695 L18.3005106,34.4894114 L18.3006144,34.4894114 Z M27.8864231,26.6819243 L27.8471766,30.1722928 L23.0043834,26.8180381 C24.3123934,24.3309052 25.0441646,21.7057068 25.2209816,19.0709547 C26.3755356,20.3513489 27.8864231,22.7730444 27.8864231,26.6819243 Z M13.4500343,3.12211652 L14.8147336,1.98831431 L16.179433,3.12211652 C16.1802636,3.12211652 16.1802636,3.12211652 16.1811981,3.12293833 C24.0626899,9.64746305 25.7855917,19.812441 20.3615762,27.8544547 C20.0399208,28.3264871 19.7554354,28.8149558 19.5071856,29.3159573 L10.1218664,29.3159573 C9.87133236,28.810744 9.5839398,28.3177553 9.25823515,27.8406893 C3.84480998,19.8106946 5.5685424,9.64664123 13.4500343,3.12211652 Z M1.74294038,26.6819243 C1.74294038,22.7680107 3.25777329,20.345288 4.41284636,19.0660238 C4.58945574,21.6989268 5.31966958,24.3234062 6.6252915,26.8121826 L1.74294038,30.1523637 L1.74294038,26.6819243 Z" id="Shape"></path>
                        <g id="выхлоп" transform="translate(11.000000, 36.000000)">
                            <path d="M0.360046262,1.59157751 L0.360046262,3.59733357 C0.360046262,3.96638313 0.659562645,4.26589237 1.028621,4.26589237 C1.39767935,4.26589237 1.69719573,3.96638313 1.69719573,3.59733357 L1.69719573,1.59157751 C1.69719573,1.22252795 1.39767935,0.923018708 1.028621,0.923018708 C0.659562645,0.923018708 0.360046262,1.22252795 0.360046262,1.59157751 Z" id="Shape"></path>
                            <path d="M6.37721886,1.59157751 L6.37721886,3.59733357 C6.37721886,3.96638313 6.67673524,4.26589237 7.04579359,4.26589237 C7.41485194,4.26589237 7.71436833,3.96638313 7.71436833,3.59733357 L7.71436833,1.59157751 C7.71436833,1.22252795 7.41485194,0.923018708 7.04579359,0.923018708 C6.67673524,0.923018708 6.37721886,1.22252795 6.37721886,1.59157751 Z" id="Shape"></path>
                            <path d="M3.03434519,1.59159344 L3.03434519,2.26016817 C3.03434519,2.62922652 3.33386158,2.92874291 3.70291993,2.92874291 C4.07197828,2.92874291 4.37149466,2.62922652 4.37149466,2.26016817 L4.37149466,1.59159344 C4.37149466,1.22253509 4.07197828,0.923018708 3.70291993,0.923018708 C3.33386158,0.923018708 3.03434519,1.22253509 3.03434519,1.59159344 Z" id="Shape"></path>
                        </g>
                    </g>
                    <path d="M69.3851558,101.880876 C71.3153994,101.880876 72.8851558,100.31112 72.8851558,98.380876 C72.8851558,96.4506323 71.3153994,94.880876 69.3851558,94.880876 C67.4549121,94.880876 65.8851558,96.4506323 65.8851558,98.380876 C65.8851558,100.31112 67.4549121,101.880876 69.3851558,101.880876 Z M69.3851558,96.630876 C70.3502776,96.630876 71.1351558,97.4157541 71.1351558,98.380876 C71.1351558,99.3459978 70.3502776,100.130876 69.3851558,100.130876 C68.420034,100.130876 67.6351558,99.3459978 67.6351558,98.380876 C67.6351558,97.4157541 68.420034,96.630876 69.3851558,96.630876 Z" id="Shape" fill-rule="nonzero" transform="translate(69.385156, 98.380876) rotate(-38.000000) translate(-69.385156, -98.380876) "></path>
                    <path d="M76.1413489,110.528409 C78.0715926,110.528409 79.6413489,108.958652 79.6413489,107.028409 C79.6413489,105.098165 78.0715926,103.528409 76.1413489,103.528409 C74.2111053,103.528409 72.6413489,105.098165 72.6413489,107.028409 C72.6413489,108.958652 74.2111053,110.528409 76.1413489,110.528409 Z M76.1413489,105.278513 C77.1064708,105.278513 77.8913489,106.063391 77.8913489,107.028513 C77.8913489,107.993635 77.1064708,108.778513 76.1413489,108.778513 C75.1762271,108.778513 74.3913489,107.993635 74.3913489,107.028513 C74.3913489,106.063391 75.1762271,105.278513 76.1413489,105.278513 Z" id="Shape" fill-rule="nonzero" transform="translate(76.141349, 107.028409) rotate(-38.000000) translate(-76.141349, -107.028409) "></path>
                    <path d="M59.1895124,117.900412 C59.4474182,118.033239 59.7272314,118.098676 60.0061102,118.098676 C60.3617169,118.098676 60.7154548,117.991737 61.0196673,117.781351 L65.7353764,114.515853 C65.8416951,114.683298 65.9498826,114.850333 66.0618079,115.016238 C66.4150266,115.534292 66.7146708,116.067242 66.9622977,116.613135 C66.9827515,116.683709 67.0122384,116.750276 67.0492007,116.812118 C67.5628318,118.013515 67.8239562,119.277267 67.8239562,120.589712 L67.8239562,121.548467 C67.8239562,122.024403 68.214345,122.410658 68.6953745,122.410658 L77.4099726,122.410658 C77.8910021,122.410658 78.2813908,122.024403 78.2813908,121.548467 L78.2813908,120.590534 C78.2813908,119.277473 78.543242,118.012077 79.0625836,116.802462 C79.0953929,116.745859 79.1220764,116.685455 79.1412843,116.621662 C79.3923375,116.067345 79.6974845,115.524841 80.0582826,114.995384 C80.165328,114.83667 80.2691548,114.676929 80.3711127,114.516675 L85.0854721,117.781248 C85.3895808,117.991634 85.7434225,118.098573 86.0990292,118.098573 C86.377908,118.098573 86.6576174,118.033033 86.915627,117.900309 C87.5029751,117.597674 87.8673033,117.003602 87.8673033,116.349126 L87.8673033,112.878584 C87.8673033,106.80082 84.5963441,103.782176 83.4699272,102.923067 C83.1552282,97.4284869 80.446491,92.0604671 75.5380793,87.9970852 L73.6129229,86.398647 C73.2887757,86.129604 72.8163637,86.129604 72.4922165,86.398647 L70.5679945,87.9963661 C65.6619709,92.0582071 62.9533375,97.4237614 62.6393653,102.920088 C61.5169977,103.77478 58.2378361,106.793321 58.2378361,112.878789 L58.2378361,116.349331 C58.2378361,117.003705 58.6021643,117.597777 59.1895124,117.900412 Z M76.5384505,120.686276 L69.5666889,120.686276 L69.5666889,120.589712 C69.5666889,119.453137 69.3921561,118.326525 69.0525387,117.237307 L77.0523931,117.237307 C76.7132948,118.326012 76.5383466,119.453547 76.5383466,120.590534 L76.5383466,120.686276 L76.5384505,120.686276 Z M86.1242591,112.878789 L86.0850126,116.369158 L81.2422195,113.014903 C82.5502294,110.52777 83.2820007,107.902572 83.4588177,105.267819 C84.6133716,106.548214 86.1242591,108.969909 86.1242591,112.878789 Z M71.6878703,89.3189813 L73.0525697,88.1851791 L74.4172691,89.3189813 C74.4180997,89.3189813 74.4180997,89.3189813 74.4190341,89.3198031 C82.300526,95.8443278 84.0234278,106.009306 78.5994123,114.051319 C78.2777569,114.523352 77.9932715,115.011821 77.7450216,115.512822 L68.3597025,115.512822 C68.1091684,115.007609 67.8217759,114.51462 67.4960712,114.037554 C62.082646,106.007559 63.8063785,95.843506 71.6878703,89.3189813 Z M59.9807764,112.878789 C59.9807764,108.964876 61.4956093,106.542153 62.6506824,105.262889 C62.8272918,107.895792 63.5575056,110.520271 64.8631276,113.009047 L59.9807764,116.349228 L59.9807764,112.878789 Z" id="Shape" fill-rule="nonzero" transform="translate(73.052570, 104.303761) rotate(-38.000000) translate(-73.052570, -104.303761) "></path>
                    <path d="M82.801909,121.160602 L82.801909,123.166358 C82.801909,123.535408 83.1014253,123.834917 83.4704837,123.834917 C83.839542,123.834917 84.1390584,123.535408 84.1390584,123.166358 L84.1390584,121.160602 C84.1390584,120.791553 83.839542,120.492044 83.4704837,120.492044 C83.1014253,120.492044 82.801909,120.791553 82.801909,121.160602 Z" id="Shape" fill-rule="nonzero" transform="translate(83.470484, 122.163480) rotate(-38.000000) translate(-83.470484, -122.163480) "></path>
                    <path d="M87.5435057,117.456061 L87.5435057,119.461817 C87.5435057,119.830867 87.8430221,120.130376 88.2120804,120.130376 C88.5811388,120.130376 88.8806551,119.830867 88.8806551,119.461817 L88.8806551,117.456061 C88.8806551,117.087011 88.5811388,116.787502 88.2120804,116.787502 C87.8430221,116.787502 87.5435057,117.087011 87.5435057,117.456061 Z" id="Shape" fill-rule="nonzero" transform="translate(88.212080, 118.458939) rotate(-38.000000) translate(-88.212080, -118.458939) "></path>
                    <path d="M84.4976696,119.655886 L84.4976696,120.324461 C84.4976696,120.693519 84.797186,120.993036 85.1662443,120.993036 C85.5353027,120.993036 85.834819,120.693519 85.834819,120.324461 L85.834819,119.655886 C85.834819,119.286828 85.5353027,118.987311 85.1662443,118.987311 C84.797186,118.987311 84.4976696,119.286828 84.4976696,119.655886 Z" id="Shape" fill-rule="nonzero" transform="translate(85.166244, 119.990173) rotate(-38.000000) translate(-85.166244, -119.990173) "></path>
                    <g id="7" transform="translate(13.000000, 0.000000)" fill-rule="nonzero">
                        <path d="M19.5,19 C21.9817418,19 24,16.9817418 24,14.5 C24,12.0182582 21.9817418,10 19.5,10 C17.0182582,10 15,12.0182582 15,14.5 C15,16.9817418 17.0182582,19 19.5,19 Z M19.5,12.25 C20.7408709,12.25 21.75,13.2591291 21.75,14.5 C21.75,15.7408709 20.7408709,16.75 19.5,16.75 C18.2591291,16.75 17.25,15.7408709 17.25,14.5 C17.25,13.2591291 18.2591291,12.25 19.5,12.25 Z" id="Shape"></path>
                        <path d="M19.5,33 C21.9817418,33 24,30.9817418 24,28.5 C24,26.0182582 21.9817418,24 19.5,24 C17.0182582,24 15,26.0182582 15,28.5 C15,30.9817418 17.0182582,33 19.5,33 Z M19.5,26.250134 C20.7408709,26.250134 21.75,27.2592631 21.75,28.500134 C21.75,29.7410049 20.7408709,30.750134 19.5,30.750134 C18.2591291,30.750134 17.25,29.7410049 17.25,28.500134 C17.25,27.2592631 18.2591291,26.250134 19.5,26.250134 Z" id="Shape"></path>
                        <path d="M1.22053165,41.1463861 C1.5512976,41.3187747 1.91016,41.4037025 2.26782398,41.4037025 C2.72389216,41.4037025 3.17756348,41.2649116 3.56771815,40.9918629 L9.61564824,36.7537425 C9.75200264,36.9710615 9.89075389,37.1878472 10.0342988,37.4031663 C10.4873044,38.075522 10.8716001,38.7672097 11.1891833,39.4756963 C11.2154156,39.5672902 11.2532326,39.6536845 11.3006371,39.7339459 C11.9593726,41.2931764 12.2942665,42.9333349 12.2942665,44.6366892 L12.2942665,45.8810071 C12.2942665,46.4986997 12.7949428,47 13.4118665,47 L24.5883998,47 C25.2053235,47 25.7059998,46.4986997 25.7059998,45.8810071 L25.7059998,44.6377558 C25.7059998,42.9336015 26.0418258,41.2913099 26.7078851,39.7214134 C26.7499632,39.6479516 26.784185,39.5695568 26.8088193,39.4867622 C27.1307968,38.767343 27.5221499,38.0632561 27.984876,37.3761014 C28.1221625,37.170115 28.2553211,36.9627954 28.3860828,36.7548091 L34.4322818,40.9917296 C34.8223034,41.2647783 35.2761078,41.4035691 35.732176,41.4035691 C36.08984,41.4035691 36.4485692,41.3185081 36.7794683,41.1462528 C37.5327465,40.7534787 38,39.9824629 38,39.1330522 L38,34.628816 C38,26.7408029 33.8049717,22.8230613 32.3603342,21.7080682 C31.9567305,14.5769385 28.482756,7.61006473 22.1876835,2.33641256 L19.7186569,0.261882727 C19.3029358,-0.0872942423 18.6970642,-0.0872942423 18.2813431,0.261882727 L15.8135149,2.33547929 C9.52150511,7.60713159 6.04766377,14.5708056 5.64499219,21.7042018 C4.20554781,22.8134619 0,26.7310702 0,34.6290826 L0,39.1333189 C1.8922974e-15,39.9825962 0.467253499,40.753612 1.22053165,41.1463861 Z M23.4706666,44.7620143 L14.5293334,44.7620143 L14.5293334,44.6366892 C14.5293334,43.1615865 14.3054938,41.6994163 13.8699321,40.2857762 L24.1298016,40.2857762 C23.6949056,41.6987497 23.4705334,43.1621198 23.4705334,44.6377558 L23.4705334,44.7620143 L23.4706666,44.7620143 Z M35.7645336,34.6290826 L35.7141996,39.1590505 L29.5032834,34.8057376 C31.1808154,31.5778172 32.1193171,28.1707086 32.3460862,24.7512008 C33.8268097,26.4129579 35.7645336,29.5559506 35.7645336,34.6290826 Z M17.2497635,4.05203274 L19,2.58052979 L20.7502365,4.05203274 C20.7513018,4.05203274 20.7513018,4.05203274 20.7525002,4.05309933 C30.8605689,12.5209408 33.0702026,25.7135373 26.1138646,36.1508489 C25.7013393,36.7634752 25.3364848,37.3974334 25.0181026,38.0476571 L12.9813648,38.0476571 C12.6600531,37.3919671 12.2914701,36.7521426 11.8737516,36.1329834 C4.93099582,25.7112708 7.14169476,12.5198742 17.2497635,4.05203274 Z M2.23533328,34.6290826 C2.23533328,29.5494177 4.17811714,26.4050917 5.65950647,24.7448012 C5.88600924,28.1619092 6.82251361,31.5680845 8.49698291,34.7981381 L2.23533328,39.1331855 L2.23533328,34.6290826 Z" id="Shape"></path>
                        <path d="M14,48.9999762 L14,52.0000238 C14,52.5520183 14.4479924,53 15,53 C15.5520076,53 16,52.5520183 16,52.0000238 L16,48.9999762 C16,48.4479817 15.5520076,48 15,48 C14.4479924,48 14,48.4479817 14,48.9999762 Z" id="Shape"></path>
                        <path d="M23,48.9999762 L23,52.0000238 C23,52.5520183 23.4479924,53 24,53 C24.5520076,53 25,52.5520183 25,52.0000238 L25,48.9999762 C25,48.4479817 24.5520076,48 24,48 C23.4479924,48 23,48.4479817 23,48.9999762 Z" id="Shape"></path>
                        <path d="M18,49 L18,50 C18,50.5520076 18.4479924,51 19,51 C19.5520076,51 20,50.5520076 20,50 L20,49 C20,48.4479924 19.5520076,48 19,48 C18.4479924,48 18,48.4479924 18,49 Z" id="Shape"></path>
                    </g>
                    <g id="пунктир" transform="translate(13.000000, 55.000000)">
                        <circle id="Oval-4" cx="6.5" cy="295.5" r="3.5"></circle>
                        <circle id="Oval-4-Copy-5" cx="12.5" cy="306.5" r="3.5"></circle>
                        <circle id="Oval-4-Copy-2" cx="4.5" cy="283.5" r="3.5"></circle>
                        <circle id="Oval-4-Copy-3" cx="25.5" cy="271.5" r="3.5"></circle>
                        <circle id="Oval-4-Copy-6" cx="61.5" cy="235.5" r="3.5"></circle>
                        <circle id="Oval-4-Copy-7" cx="57.5" cy="222.5" r="3.5"></circle>
                        <circle id="Oval-4-Copy-8" cx="47.5" cy="212.5" r="3.5"></circle>
                        <circle id="Oval-4-Copy-9" cx="34.5" cy="208.5" r="3.5"></circle>
                        <circle id="Oval-4-Copy-10" cx="3.5" cy="163.5" r="3.5"></circle>
                        <circle id="Oval-4-Copy-11" cx="9.5" cy="150.5" r="3.5"></circle>
                        <circle id="Oval-4-Copy-12" cx="20.5" cy="141.5" r="3.5"></circle>
                        <circle id="Oval-4-Copy-13" cx="32.5" cy="135.5" r="3.5"></circle>
                        <circle id="Oval-4-Copy-4" cx="13.5" cy="274.5" r="3.5"></circle>
                        <circle id="Oval-4-Copy-13" cx="72.5" cy="97.5" r="3.5"></circle>
                        <circle id="Oval-4-Copy-14" cx="81.5" cy="86.5" r="3.5"></circle>
                        <circle id="Oval-4-Copy-15" cx="79.5" cy="72.5" r="3.5"></circle>
                        <circle id="Oval-4-Copy-16" cx="45.5" cy="29.5" r="3.5"></circle>
                        <circle id="Oval-4-Copy-17" cx="24.5" cy="14.5" r="3.5"></circle>
                        <circle id="Oval-4-Copy-19" cx="33.5" cy="22.5" r="3.5"></circle>
                        <circle id="Oval-4-Copy-18" cx="19.5" cy="3.5" r="3.5"></circle>
                    </g>
                </g>
            </g>
        </g>
    </g>
</svg>