<?xml version="1.0" encoding="UTF-8" standalone="no"?>
<svg width="87px" height="95px" viewBox="0 0 87 95" version="1.1" xmlns="http://www.w3.org/2000/svg" xmlns:xlink="http://www.w3.org/1999/xlink">
    <!-- Generator: Sketch 48.1 (47250) - http://www.bohemiancoding.com/sketch -->
    <title>team (1)</title>
    <desc>Created with Sketch.</desc>
    <defs></defs>
    <g id="Компания/02-О-Нас" stroke="none" stroke-width="1" fill="none" fill-rule="evenodd" transform="translate(-964.000000, -899.000000)">
        <g id="общая">
            <g id="icon-liner-blue" transform="translate(169.000000, 892.000000)">
                <g id="3" transform="translate(776.000000, 0.000000)">
                    <g id="team-(1)" transform="translate(19.000000, 0.000000)">
                        <rect id="фон" fill="#E3F2FE" transform="translate(45.053587, 46.798430) rotate(15.000000) translate(-45.053587, -46.798430) " x="15" y="7" width="60.1071732" height="79.5968594" rx="30.0535866"></rect>
                        <path d="M72.1171316,61.6218072 C69.3780827,60.3751122 64.2425625,60.3606557 64.0252875,60.3606557 C63.3740913,60.3606557 62.8461538,60.8412989 62.8461538,61.4341588 C62.8461538,62.0270188 63.3740913,62.5076619 64.0252875,62.5076619 C65.3504765,62.5078051 69.1980683,62.6935927 71.0625144,63.5422326 C71.231838,63.6193817 71.4116952,63.6557377 71.5888797,63.6557377 C72.0213859,63.6557377 72.4378559,63.4381744 72.6444401,63.0621621 C72.9357648,62.5318515 72.6996236,61.887034 72.1171316,61.6218072 Z" id="Shape" fill="#44A6F6" fill-rule="nonzero"></path>
                        <path d="M83.1108281,82.9280331 L77.847498,81.3269348 C77.6203125,81.2578252 77.4616055,81.0338524 77.4616055,80.7821996 L77.4616055,78.9117188 C77.8898086,78.5958411 78.2983008,78.2423331 78.6801152,77.8477573 C80.5305645,75.935847 81.5495859,73.371376 81.5495859,70.6265328 L81.5495859,68.0454177 L82.058502,66.9619174 C82.6170352,65.7724009 82.9121895,64.4406851 82.9121895,63.1109595 L82.9121895,56.1185925 C82.9121895,55.3692423 82.3415918,54.7617295 81.6377754,54.7617295 L69.3740039,54.7617295 C64.9145742,54.7617295 61.2864023,58.6246279 61.2864023,63.3725626 L61.2864023,63.4534317 C61.2864023,64.5591845 61.5319395,65.6665656 61.9963359,66.6554473 L62.6490059,68.0452367 L62.6490059,70.2614462 C62.6490059,73.7737311 64.2746484,76.9250905 66.7369863,78.8214422 L66.7373262,80.7818377 C66.7373262,81.0841468 66.7373262,81.20934 65.685,81.5295597 L63.1168008,82.3107509 L55.6876465,79.4345633 C55.7143242,79.0613355 55.5960586,78.6817757 55.3403262,78.395749 L52.9663477,75.7402778 L52.9663477,71.2825308 C53.2173223,71.0623572 53.4647285,70.8362133 53.7044883,70.5970436 C56.6993613,67.6083269 58.4169316,63.3886641 58.4169316,59.0201082 L58.4169316,55.4600617 C59.3212559,53.3648844 59.7795352,51.1477704 59.7795352,48.8644414 L59.7795352,34.3568629 C59.7795352,33.6075128 59.2089375,33 58.5051211,33 L39.4281621,33 C32.7145488,33 27.25275,38.8153336 27.25275,45.9631066 L27.25275,48.8648032 C27.25275,51.1481322 27.7110293,53.3652462 28.6153535,55.4604235 L28.6153535,58.5234963 C28.6153535,63.5956309 30.7335996,68.1651834 34.0659375,71.177781 L34.0659375,75.7404587 L31.691959,78.3959299 C31.4362266,78.6819566 31.3179609,79.0615164 31.3446387,79.4347442 L23.5035938,82.470318 C22.935375,82.6903107 22.4074277,82.9882778 21.9280781,83.3492033 L20.6968242,82.6937481 C24.3620391,80.9951366 25.5231152,78.6061532 25.5788496,78.487473 C25.7582871,78.1055613 25.7582871,77.6558064 25.5788496,77.2738948 C24.660082,75.3174793 24.5487832,71.731562 24.4594043,68.8503088 C24.429668,67.8910971 24.4014609,66.9848936 24.3475957,66.1780124 C23.9131055,59.6697741 19.266082,54.7617295 13.5380156,54.7617295 C7.80994922,54.7617295 3.16275586,59.6695932 2.72843555,66.1780124 C2.67457031,66.9850745 2.64636328,67.891278 2.61662695,68.8506706 C2.52724805,71.7317429 2.4157793,75.3172984 1.49718164,77.2737138 C1.31774414,77.6556255 1.31774414,78.1053804 1.49718164,78.487292 C1.55291602,78.6059723 2.71161328,80.990071 6.38413477,82.6906725 L2.96411719,84.5112207 C1.13575781,85.4852674 0,87.4418637 0,89.618091 L0,99.6424134 C0,100.391764 0.570597656,100.999276 1.27441406,100.999276 C1.97823047,100.999276 2.54882812,100.391764 2.54882812,99.6424134 L2.54882812,89.618091 C2.54882812,88.4761551 3.14474414,87.4494622 4.10395313,86.938739 L8.36270508,84.6716924 L9.84408398,86.1705736 C10.8799277,87.2186146 12.2087168,87.7423637 13.5380156,87.7423637 C14.8669746,87.7423637 16.1964434,87.2182527 17.2319473,86.1705736 L18.7131563,84.6718733 L20.1017578,85.4110922 C19.4478984,86.5249862 19.0767891,87.8311929 19.0767891,89.1994535 L19.0767891,99.6427752 C19.0767891,100.392125 19.6473867,100.999638 20.3512031,100.999638 C21.0550195,100.999638 21.6256172,100.392125 21.6256172,99.6427752 L21.6256172,89.1994535 C21.6256172,87.3367521 22.7302793,85.6574985 24.3746133,85.0208584 L32.6416523,81.8202902 L36.0830801,87.3166705 C36.5230078,88.0193446 37.2280137,88.470004 38.0173008,88.5532249 C38.1053203,88.5624516 38.1928301,88.5669745 38.2801699,88.5669745 C38.9765098,88.5669745 39.6434531,88.2751585 40.1420039,87.7445346 L42.2415586,85.5091482 L42.2415586,99.6429562 C42.2415586,100.392306 42.8121563,100.999819 43.5159727,100.999819 C44.2197891,100.999819 44.7903867,100.392306 44.7903867,99.6429562 L44.7903867,85.5091482 L46.8899414,87.7445346 C47.3883223,88.2753394 48.0552656,88.5671554 48.7517754,88.5671554 C48.8389453,88.5671554 48.926625,88.5626325 49.0144746,88.5534059 C49.8039316,88.4701849 50.5089375,88.0195255 50.9488652,87.3168514 L54.3904629,81.820652 L62.657332,85.0212203 C64.3014961,85.6578604 65.4063281,87.3371139 65.4063281,89.1998154 L65.4063281,99.6431371 C65.4063281,100.392487 65.9769258,101 66.6807422,101 C67.3845586,101 67.9551563,100.392487 67.9551563,99.6431371 L67.9551563,89.1998154 C67.9551563,87.3132331 67.2511699,85.5438839 66.0702129,84.2353253 L66.3850781,84.1396212 C66.7026621,84.0430126 67.1359629,83.9107636 67.5709629,83.6837153 L70.8247969,87.1480577 L70.8247969,99.6431371 C70.8247969,100.392487 71.3953945,101 72.0992109,101 C72.8030273,101 73.373625,100.392487 73.373625,99.6431371 L73.373625,87.1480577 L76.6048594,83.707777 C76.7766504,83.8007673 76.9571074,83.8792844 77.1470801,83.9369963 L82.4105801,85.5380946 C83.6119277,85.903543 84.4511719,87.0879939 84.4511719,88.4184432 L84.4511719,99.6431371 C84.4511719,100.392487 85.0217695,101 85.7255859,101 C86.4294023,101 87,100.392487 87,99.6431371 L87,88.4184432 C87,85.8823759 85.4006953,83.6247369 83.1108281,82.9280331 Z M8,80 C5.66863315,79.0934993 4.49921064,77.8849515 4,77.225009 C4.34034067,76.263558 4.56103033,75.1623967 4.71042792,74 C5.39775654,75.7808572 6.54889904,77.3011493 8,78.3857895 L8,80 Z M15.6720527,83.3121298 C14.4539742,84.2293907 12.5458354,84.2292398 11.3281378,83.3119789 L10,82.3117148 C10.2241173,81.9789474 10.3473152,81.6016601 10.3473152,81.2064139 L10.3473152,80 C11.3435613,80.2467459 12.402644,80.3798529 13.5001904,80.3798529 C14.5964039,80.3798529 15.6549154,80.2461422 16.6528753,80.0007546 L16.6526848,81.206263 C16.6526848,81.6016601 16.7756923,81.9790983 17,82.3120166 L15.6720527,83.3121298 Z M14.501809,78 C10.6432082,78 7.50426164,74.7839586 7.50426164,70.8309813 C7.50426164,70.0998703 6.92571272,69.5071443 6.21208866,69.5071443 C6.13972697,69.5071443 6.06908818,69.5147343 6,69.5265606 C6.00379037,69.4127106 6.00740846,69.2986841 6.01119883,69.1858932 C6.03997122,68.2756229 6.06770986,67.4158349 6.11887991,66.6783694 C6.28393348,64.299699 7.21171367,62.107778 8.7313091,60.5061117 C10.2645154,58.8899715 12.3137295,58 14.5014645,58 C16.6891995,58 18.7382412,58.8899715 20.2716198,60.5061117 C21.7912153,62.107778 22.7189954,64.299699 22.884049,66.6783694 C22.9350468,67.4156583 22.9629577,68.2752698 22.992247,69.1853637 C22.9948313,69.2635583 22.9974157,69.342812 23,69.4215362 C21.5941158,67.2024323 19.4229206,65.5670523 16.6175269,64.6435436 C14.0257725,63.7904631 11.796688,63.84324 11.7026178,63.8457112 C11.3642408,63.8554193 11.0430927,64.0005119 10.8082618,64.2500993 L8.47683717,66.7272631 C7.98150419,67.2536207 7.99632111,68.0916978 8.51008908,68.5991686 C9.02385706,69.1066395 9.8418887,69.091283 10.3372217,68.5651019 L12.277204,66.5039759 C13.9478976,66.5876424 19.3228203,67.2280265 21.4132116,71.943887 C20.887211,75.4190474 17.9717242,78 14.501809,78 Z M19,80 L19.0001662,78.3928251 C20.4499834,77.3135294 21.6026919,75.7952926 22.2904619,74 C22.4398471,75.1603282 22.6603523,76.2595676 23,77.2193807 C22.5036557,77.8733904 21.3288468,79.0933701 19,80 Z M31.3909628,58.1485032 L31.3909628,54.7319885 C31.3909628,54.5246989 31.3467309,54.3199797 31.2615629,54.1332538 C30.4244527,52.2983092 30,50.3513659 30,48.3464034 L30,45.4017525 C30,39.6661278 34.4084449,35 39.8269381,35 L58,35 L58,48.346587 C58,50.3515495 57.5755473,52.2984929 56.7384371,54.1334374 C56.6532691,54.3201633 56.6090372,54.5248825 56.6090372,54.7321721 L56.6090372,58.6530487 C56.6090372,62.3822422 55.1927494,65.8411696 52.6210554,68.392723 C52.2999839,68.7110934 51.9667703,69.0096345 51.622282,69.2877955 C51.6146498,69.2933037 51.6073645,69.2993626 51.5999058,69.3050544 C49.1907423,71.2411651 46.2398682,72.1821388 43.1582064,71.9708098 C36.5596759,71.5185917 31.3909628,65.4471541 31.3909628,58.1485032 Z M39.499592,85.9716866 C39.489893,85.9813369 39.4673241,86.0041635 39.4216269,85.9993384 C39.3761162,85.9948844 39.3582103,85.9683461 39.3505631,85.95684 L35,79.4636874 L36.400014,78 L43,82.4886785 L39.499592,85.9716866 Z M43.5,81 L37,75.6818639 L37,73 C38.681854,74.0882621 40.5650375,74.7688808 42.5679306,74.9240458 C42.8843285,74.9485657 43.1988059,74.9606341 43.512323,74.9606341 C45.807448,74.9606341 48.0163117,74.3039605 50,73.0574685 L50,75.6818639 L43.5,81 Z M49.6493519,85.9566216 C49.6417047,85.9681274 49.6237993,85.9946649 49.5782897,85.9991188 C49.5325935,86.0048717 49.5102117,85.9809322 49.5003264,85.9714678 L46,82.4887408 L52.5998321,78 L54,79.4636472 L49.6493519,85.9566216 Z M71.992966,84 L69,81.2370632 C69.0522274,81.0180608 69.0817702,80.7782783 69.0815944,80.5138196 L69.0814185,80 C69.9119578,80.2516336 70.7873388,80.4009903 71.6931419,80.4259913 C71.7947831,80.4289135 71.8955451,80.4302123 71.9968347,80.4302123 C72.9977726,80.4302123 73.9747948,80.2905962 74.9046893,80.0241893 L74.9046893,80.5144689 C74.9046893,80.7573359 74.9377491,80.9953326 75,81.2240757 L71.992966,84 Z M77.4430188,75.9761501 C76.0537479,77.3377497 74.218456,78.0568521 72.2807472,77.9964857 C68.4874729,77.8815775 65.4015051,74.5072324 65.4015051,70.4748572 L65.4015051,68.0000079 C65.4015051,67.7943736 65.3541416,67.5917399 65.2630848,67.4079928 L64.4533613,65.7724494 C64.1567714,65.1731973 64,64.5024586 64,63.832426 L64,63.7535259 C64,60.5809319 66.5557063,58 69.6969024,58 L81,58 L81,63.4982922 C81,64.3868445 80.7920201,65.2766323 80.3986059,66.0714577 L79.7369152,67.4079928 C79.6458584,67.5919164 79.5984949,67.7943736 79.5984949,68.0000079 L79.5984949,70.8308783 C79.5984949,72.7866111 78.8329889,74.6138445 77.4430188,75.9761501 Z" id="Shape" fill="#44A6F6" fill-rule="nonzero"></path>
                        <path d="M74.974359,86.7213115 C74.3654496,86.7213115 73.8717949,87.3056884 73.8717949,88.0265012 L73.8717949,96.3997283 C73.8717949,97.1205411 74.3654496,97.704918 74.974359,97.704918 C75.5832684,97.704918 76.0769231,97.1205411 76.0769231,96.3997283 L76.0769231,88.0265012 C76.0769231,87.3058624 75.5832684,86.7213115 74.974359,86.7213115 Z" id="Shape" fill="#44A6F6" fill-rule="nonzero"></path>
                        <path d="M6.61538462,88.9180328 C6.00647521,88.9180328 5.51282051,89.4726532 5.51282051,90.1567621 L5.51282051,96.4661887 C5.51282051,97.1502976 6.00647521,97.704918 6.61538462,97.704918 C7.22429402,97.704918 7.71794872,97.1502976 7.71794872,96.4661887 L7.71794872,90.1567621 C7.71794872,89.4728184 7.22429402,88.9180328 6.61538462,88.9180328 Z" id="Shape" fill="#44A6F6" fill-rule="nonzero"></path>
                        <path d="M51.635312,48.9572539 C46.926201,43.8964428 37.0735244,44.8639665 33.0556895,45.5148105 C31.7901761,45.7198049 30.8717949,46.8707353 30.8717949,48.2514593 L30.8717949,51.3340474 C30.8717949,52.0730265 31.4292649,52.6721311 32.1168887,52.6721311 C32.8045126,52.6721311 33.3619826,52.0730265 33.3619826,51.3340474 L33.3619826,48.2512809 C33.3619826,48.2057861 33.3898727,48.1668924 33.4270595,48.1608264 C35.0319025,47.9008814 38.2165205,47.4998131 41.5160192,47.7362079 C45.3987199,48.0139941 48.2109719,49.061446 49.8745833,50.8494827 C50.3608339,51.372049 51.1492274,51.372049 51.635312,50.8494827 C52.1215627,50.3269164 52.1215627,49.4796418 51.635312,48.9572539 Z" id="Shape" fill="#44A6F6" fill-rule="nonzero"></path>
                        <path d="M27.5641026,90.0163934 C26.9551932,90.0163934 26.4615385,90.5648155 26.4615385,91.2412789 L26.4615385,96.4800325 C26.4615385,97.156496 26.9551932,97.704918 27.5641026,97.704918 C28.173012,97.704918 28.6666667,97.156496 28.6666667,96.4800325 L28.6666667,91.2412789 C28.6666667,90.5649788 28.173012,90.0163934 27.5641026,90.0163934 Z" id="Shape" fill="#44A6F6" fill-rule="nonzero"></path>
                        <path d="M54.025641,90.0163934 C53.4167316,90.0163934 52.9230769,90.5648155 52.9230769,91.2412789 L52.9230769,96.4800325 C52.9230769,97.156496 53.4167316,97.704918 54.025641,97.704918 C54.6345504,97.704918 55.1282051,97.156496 55.1282051,96.4800325 L55.1282051,91.2412789 C55.1282051,90.5649788 54.6345504,90.0163934 54.025641,90.0163934 Z" id="Shape" fill="#44A6F6" fill-rule="nonzero"></path>
                        <rect id="Rectangle-10" fill="#44A6F6" x="0" y="100" width="87" height="2"></rect>
                    </g>
                </g>
            </g>
        </g>
    </g>
</svg>