<svg width="54" height="54" viewBox="0 0 54 54" fill="none" xmlns="http://www.w3.org/2000/svg">
<path d="M5.39995 4.50005C5.39995 4.9969 4.99702 5.39983 4.50017 5.39983C4.0029 5.39983 3.59998 4.9969 3.59998 4.50005C3.59998 4.00278 4.0029 3.59985 4.50017 3.59985C4.99702 3.59985 5.39995 4.00278 5.39995 4.50005Z" fill="#3870DE"/>
<path d="M8.99992 4.50005C8.99992 4.9969 8.597 5.39983 8.10014 5.39983C7.60287 5.39983 7.19995 4.9969 7.19995 4.50005C7.19995 4.00278 7.60287 3.59985 8.10014 3.59985C8.597 3.59985 8.99992 4.00278 8.99992 4.50005Z" fill="#3870DE"/>
<path d="M12.5998 4.50005C12.5998 4.9969 12.1969 5.39983 11.7 5.39983C11.2027 5.39983 10.7998 4.9969 10.7998 4.50005C10.7998 4.00278 11.2027 3.59985 11.7 3.59985C12.1969 3.59985 12.5998 4.00278 12.5998 4.50005Z" fill="#3870DE"/>
<path d="M44.3629 15.0364L46.1628 16.8364C46.3318 17.0053 46.5604 17.1001 46.7994 17.1001H46.8632C47.1236 17.0811 47.3634 16.9497 47.5191 16.74L50.2193 13.1401C50.4121 12.883 50.4533 12.5423 50.3268 12.2465C50.2007 11.9511 49.9259 11.7451 49.607 11.7068C49.2878 11.668 48.9722 11.8027 48.7794 12.0602L46.7021 14.8304L45.6355 13.7638C45.2824 13.4227 44.7209 13.4276 44.374 13.7749C44.0267 14.1218 44.0217 14.6834 44.3629 15.0364Z" fill="#3870DE"/>
<path d="M24.2999 16.2001C25.294 16.2001 26.0998 15.3943 26.0998 14.4002V12.5998C26.0998 11.6057 25.294 10.7998 24.2999 10.7998H5.39995C4.40582 10.7998 3.59998 11.6057 3.59998 12.5998V14.4002C3.59998 15.3943 4.40582 16.2001 5.39995 16.2001H24.2999ZM5.39995 12.5998H24.2999V14.4002H5.39995V12.5998Z" fill="#3870DE"/>
<path d="M24.2998 18.0002H5.3999C4.90305 18.0002 4.50012 18.4032 4.50012 18.9C4.50012 19.3973 4.90305 19.8002 5.3999 19.8002H24.2998C24.7971 19.8002 25.2 19.3973 25.2 18.9C25.2 18.4032 24.7971 18.0002 24.2998 18.0002Z" fill="#3870DE"/>
<path d="M24.2998 21.6001H5.3999C4.90305 21.6001 4.50012 22.003 4.50012 22.4999C4.50012 22.9971 4.90305 23.4001 5.3999 23.4001H24.2998C24.7971 23.4001 25.2 22.9971 25.2 22.4999C25.2 22.003 24.7971 21.6001 24.2998 21.6001Z" fill="#3870DE"/>
<path d="M51.2998 0H2.70016C1.20877 0 0 1.20877 0 2.70016V51.2998C0 52.7912 1.20877 54 2.70016 54H51.2998C52.7912 54 54 52.7912 54 51.2998V2.70016C54 1.20877 52.7912 0 51.2998 0ZM1.79997 45.0001V8.99986H40.5V45.0001H1.79997ZM52.2 8.99986V19.8001H42.3V8.99986H52.2ZM42.3 21.6001H52.2V32.3999H42.3V21.6001ZM42.3 34.1999H52.2V45.0001H42.3V34.1999ZM1.79997 2.70016C1.79997 2.2029 2.2029 1.79997 2.70016 1.79997H51.2998C51.7971 1.79997 52.2 2.2029 52.2 2.70016V7.19989H1.79997V2.70016ZM52.2 51.2998C52.2 51.7971 51.7971 52.2 51.2998 52.2H2.70016C2.2029 52.2 1.79997 51.7971 1.79997 51.2998V46.8001H52.2V51.2998Z" fill="#3870DE"/>
<path d="M50.0392 24.4798C49.8485 24.3369 49.6083 24.2751 49.3718 24.3088C49.1357 24.3426 48.9223 24.4691 48.7794 24.6599L46.7021 27.4301L45.6355 26.3638C45.2824 26.0227 44.7209 26.0272 44.374 26.3745C44.0267 26.7218 44.0217 27.283 44.3629 27.636L46.1628 29.4364C46.3318 29.6049 46.5604 29.6997 46.7994 29.7001H46.8632C47.1236 29.6807 47.3634 29.5493 47.5191 29.34L50.2193 25.7401C50.5175 25.3421 50.4368 24.7781 50.0392 24.4798Z" fill="#3870DE"/>
<path d="M50.0392 37.0801C49.6417 36.7818 49.0776 36.8621 48.7794 37.2601L46.7021 40.0303L45.6355 38.9637C45.2824 38.6225 44.7209 38.6275 44.374 38.9748C44.0267 39.3217 44.0217 39.8832 44.3629 40.2363L46.1628 42.0363C46.3318 42.2052 46.5604 42.2999 46.7994 42.2999H46.8632C47.1236 42.281 47.3634 42.1496 47.5191 41.9399L50.2193 38.3399C50.5175 37.9423 50.4368 37.3783 50.0392 37.0801Z" fill="#3870DE"/>
<path d="M35.9998 10.7998H30.5999C29.1089 10.7998 27.9001 12.009 27.9001 13.5V24.2998C27.9001 25.7912 29.1089 27 30.5999 27H35.9998C37.4912 27 38.7 25.7912 38.7 24.2998V13.5C38.7 12.009 37.4912 10.7998 35.9998 10.7998ZM36.9 24.2998C36.9 24.7971 36.4971 25.2 35.9998 25.2H30.5999C30.103 25.2 29.7001 24.7971 29.7001 24.2998V13.5C29.7001 13.0031 30.103 12.5998 30.5999 12.5998H35.9998C36.4971 12.5998 36.9 13.0031 36.9 13.5V24.2998Z" fill="#3870DE"/>
<path d="M24.2998 25.2H5.3999C4.90305 25.2 4.50012 25.6029 4.50012 26.0997C4.50012 26.597 4.90305 26.9999 5.3999 26.9999H24.2998C24.7971 26.9999 25.2 26.597 25.2 26.0997C25.2 25.6029 24.7971 25.2 24.2998 25.2Z" fill="#3870DE"/>
<path d="M37.7998 28.8H5.3999C4.90305 28.8 4.50012 29.203 4.50012 29.7002C4.50012 30.1971 4.90305 30.6 5.3999 30.6H37.7998C38.2971 30.6 38.7 30.1971 38.7 29.7002C38.7 29.203 38.2971 28.8 37.7998 28.8Z" fill="#3870DE"/>
<path d="M37.7998 32.3999H5.3999C4.90305 32.3999 4.50012 32.8028 4.50012 33.3001C4.50012 33.797 4.90305 34.1999 5.3999 34.1999H37.7998C38.2971 34.1999 38.7 33.797 38.7 33.3001C38.7 32.8028 38.2971 32.3999 37.7998 32.3999Z" fill="#3870DE"/>
<path d="M35.9998 35.9998H7.19987C5.70889 35.9998 4.50012 37.2085 4.50012 38.6999V40.4999C4.50012 41.9909 5.70889 43.2001 7.19987 43.2001H35.9998C37.4912 43.2001 38.7 41.9909 38.7 40.4999V38.6999C38.7 37.2085 37.4912 35.9998 35.9998 35.9998ZM36.9 40.4999C36.9 40.9967 36.4971 41.4001 35.9998 41.4001H7.19987C6.70302 41.4001 6.30009 40.9967 6.30009 40.4999V38.6999C6.30009 38.2027 6.70302 37.7997 7.19987 37.7997H35.9998C36.4971 37.7997 36.9 38.2027 36.9 38.6999V40.4999Z" fill="#3870DE"/>
</svg>
