<svg width="54" height="54" viewBox="0 0 54 54" fill="none" xmlns="http://www.w3.org/2000/svg">
<path d="M51.2998 18.0001H46.8001V2.70016C46.8001 1.20877 45.5913 0 44.0999 0H9.90005C8.40866 0 7.19989 1.20877 7.19989 2.70016V18.0001H2.70016C1.20877 18.0001 0 19.2089 0 20.6999V51.2998C0 52.7912 1.20877 54 2.70016 54H47.6999C48.1972 54 48.6001 53.5971 48.6001 53.0998C48.6001 52.603 48.1972 52.2 47.6999 52.2H2.70016C2.2029 52.2 1.79997 51.7971 1.79997 51.2998V46.8001H31.5001C31.997 46.8001 32.3999 46.3972 32.3999 45.8999C32.3999 45.4031 31.997 45.0001 31.5001 45.0001H1.79997V27H52.2V46.8001C52.2 47.297 52.603 47.6999 53.0998 47.6999C53.5971 47.6999 54 47.297 54 46.8001V20.6999C54 19.2089 52.7912 18.0001 51.2998 18.0001ZM8.99986 2.70016C8.99986 2.2029 9.40279 1.79997 9.90005 1.79997H44.0999C44.5972 1.79997 45.0001 2.2029 45.0001 2.70016V7.19989H8.99986V2.70016ZM8.99986 8.99986H45.0001V18.0001H8.99986V8.99986ZM1.79997 25.2V20.6999C1.79997 20.203 2.2029 19.8001 2.70016 19.8001H51.2998C51.7971 19.8001 52.2 20.203 52.2 20.6999V25.2H1.79997Z" fill="#3870DE"/>
<path d="M38.7 40.4999H42.2999C42.7972 40.4999 43.2001 40.097 43.2001 39.5997C43.2001 39.1029 42.7972 38.7 42.2999 38.7H38.7C38.2027 38.7 37.7998 39.1029 37.7998 39.5997C37.7998 40.097 38.2027 40.4999 38.7 40.4999Z" fill="#3870DE"/>
<path d="M45.0001 42.3H38.7C38.2027 42.3 37.7998 42.703 37.7998 43.2002C37.7998 43.6971 38.2027 44.1 38.7 44.1H45.0001C45.497 44.1 45.8999 43.6971 45.8999 43.2002C45.8999 42.703 45.497 42.3 45.0001 42.3Z" fill="#3870DE"/>
<path d="M6.30014 28.8C4.80875 28.8 3.59998 30.0088 3.59998 31.5002V40.5001C3.59998 41.9911 4.80875 43.2002 6.30014 43.2002H9.90009C11.3911 43.2002 12.5998 41.9911 12.5998 40.5001V31.5002C12.5998 30.0088 11.3911 28.8 9.90009 28.8H6.30014ZM10.7999 31.5002V40.5001C10.7999 40.9969 10.3969 41.4003 9.90009 41.4003H6.30014C5.80287 41.4003 5.39995 40.9969 5.39995 40.5001V31.5002C5.39995 31.0029 5.80287 30.6 6.30014 30.6H9.90009C10.3969 30.6 10.7999 31.0029 10.7999 31.5002Z" fill="#3870DE"/>
<path d="M33.3001 33.3002V31.5002C33.3001 30.0088 32.0913 28.8 30.5999 28.8H18.0001C16.5087 28.8 15.2999 30.0088 15.2999 31.5002V33.3002C15.2999 34.7912 16.5087 35.9999 18.0001 35.9999H30.5999C32.0913 35.9999 33.3001 34.7912 33.3001 33.3002ZM31.5001 33.3002C31.5001 33.797 31.0972 34.2 30.5999 34.2H18.0001C17.5028 34.2 17.0999 33.797 17.0999 33.3002V31.5002C17.0999 31.0029 17.5028 30.6 18.0001 30.6H30.5999C31.0972 30.6 31.5001 31.0029 31.5001 31.5002V33.3002Z" fill="#3870DE"/>
<path d="M30.5999 37.7998H16.2001C15.7029 37.7998 15.2999 38.2027 15.2999 38.7C15.2999 39.1969 15.7029 39.5998 16.2001 39.5998H30.5999C31.0972 39.5998 31.5001 39.1969 31.5001 38.7C31.5001 38.2027 31.0972 37.7998 30.5999 37.7998Z" fill="#3870DE"/>
<path d="M49.4999 30.6C49.9971 30.6 50.4001 30.1971 50.4001 29.7002C50.4001 29.203 49.9971 28.8 49.4999 28.8H35.9999C35.503 28.8 35.1001 29.203 35.1001 29.7002C35.1001 30.1971 35.503 30.6 35.9999 30.6H49.4999Z" fill="#3870DE"/>
<path d="M11.7 12.5998H25.2C25.6969 12.5998 26.0998 12.1969 26.0998 11.7C26.0998 11.2027 25.6969 10.7998 25.2 10.7998H11.7C11.2027 10.7998 10.7998 11.2027 10.7998 11.7C10.7998 12.1969 11.2027 12.5998 11.7 12.5998Z" fill="#3870DE"/>
<path d="M42.2999 10.7998H28.7999C28.3031 10.7998 27.9001 11.2027 27.9001 11.7C27.9001 12.1969 28.3031 12.5998 28.7999 12.5998H42.2999C42.7972 12.5998 43.2001 12.1969 43.2001 11.7C43.2001 11.2027 42.7972 10.7998 42.2999 10.7998Z" fill="#3870DE"/>
<path d="M20.6999 14.4001H11.7C11.2027 14.4001 10.7998 14.8031 10.7998 15.2999C10.7998 15.7972 11.2027 16.2001 11.7 16.2001H20.6999C21.1971 16.2001 21.6001 15.7972 21.6001 15.2999C21.6001 14.8031 21.1971 14.4001 20.6999 14.4001Z" fill="#3870DE"/>
<path d="M42.2999 14.4001H24.2998C23.8029 14.4001 23.4 14.8031 23.4 15.2999C23.4 15.7972 23.8029 16.2001 24.2998 16.2001H42.2999C42.7972 16.2001 43.2001 15.7972 43.2001 15.2999C43.2001 14.8031 42.7972 14.4001 42.2999 14.4001Z" fill="#3870DE"/>
<path d="M30.5999 41.4001H16.2001C15.7029 41.4001 15.2999 41.8031 15.2999 42.2999C15.2999 42.7972 15.7029 43.2001 16.2001 43.2001H30.5999C31.0972 43.2001 31.5001 42.7972 31.5001 42.2999C31.5001 41.8031 31.0972 41.4001 30.5999 41.4001Z" fill="#3870DE"/>
<path d="M12.5998 4.50005C12.5998 4.9969 12.1969 5.39983 11.7 5.39983C11.2027 5.39983 10.7998 4.9969 10.7998 4.50005C10.7998 4.00278 11.2027 3.59985 11.7 3.59985C12.1969 3.59985 12.5998 4.00278 12.5998 4.50005Z" fill="#3870DE"/>
<path d="M16.2001 4.50005C16.2001 4.9969 15.7972 5.39983 15.2999 5.39983C14.8031 5.39983 14.4001 4.9969 14.4001 4.50005C14.4001 4.00278 14.8031 3.59985 15.2999 3.59985C15.7972 3.59985 16.2001 4.00278 16.2001 4.50005Z" fill="#3870DE"/>
<path d="M19.8001 4.50005C19.8001 4.9969 19.3972 5.39983 18.8999 5.39983C18.403 5.39983 18.0001 4.9969 18.0001 4.50005C18.0001 4.00278 18.403 3.59985 18.8999 3.59985C19.3972 3.59985 19.8001 4.00278 19.8001 4.50005Z" fill="#3870DE"/>
<path d="M5.39995 22.4999C5.39995 22.9971 4.99702 23.4001 4.50017 23.4001C4.0029 23.4001 3.59998 22.9971 3.59998 22.4999C3.59998 22.003 4.0029 21.6001 4.50017 21.6001C4.99702 21.6001 5.39995 22.003 5.39995 22.4999Z" fill="#3870DE"/>
<path d="M8.99992 22.4999C8.99992 22.9971 8.597 23.4001 8.10014 23.4001C7.60287 23.4001 7.19995 22.9971 7.19995 22.4999C7.19995 22.003 7.60287 21.6001 8.10014 21.6001C8.597 21.6001 8.99992 22.003 8.99992 22.4999Z" fill="#3870DE"/>
<path d="M12.5998 22.4999C12.5998 22.9971 12.1969 23.4001 11.7 23.4001C11.2027 23.4001 10.7998 22.9971 10.7998 22.4999C10.7998 22.003 11.2027 21.6001 11.7 21.6001C12.1969 21.6001 12.5998 22.003 12.5998 22.4999Z" fill="#3870DE"/>
<path d="M47.7229 46.4499C50.414 43.0836 50.0066 38.2011 46.7943 35.3275C43.5824 32.4535 38.6851 32.5894 35.6377 35.6373C32.5898 38.6848 32.4538 43.5821 35.3279 46.7939C38.2015 50.0062 43.0839 50.4136 46.4503 47.7225L52.4641 53.7363C52.8171 54.0775 53.3787 54.0725 53.7256 53.7252C54.0729 53.3783 54.0778 52.8168 53.7367 52.4637L47.7229 46.4499ZM41.4006 47.6999C37.9209 47.6999 35.1004 44.8794 35.1004 41.4002C35.1004 37.9205 37.9209 35.1001 41.4006 35.1001C44.8798 35.1001 47.7003 37.9205 47.7003 41.4002C47.6965 44.8778 44.8781 47.6962 41.4006 47.6999Z" fill="#3870DE"/>
</svg>
