<svg width="117" height="15" viewBox="0 0 117 15" fill="none" xmlns="http://www.w3.org/2000/svg">
<path d="M8.22178 4.568C7.95778 4.232 7.60978 3.968 7.17778 3.776C6.75778 3.572 6.34978 3.47 5.95378 3.47C5.74978 3.47 5.53978 3.488 5.32378 3.524C5.11978 3.56 4.93378 3.632 4.76578 3.74C4.59778 3.836 4.45378 3.968 4.33378 4.136C4.22578 4.292 4.17178 4.496 4.17178 4.748C4.17178 4.964 4.21378 5.144 4.29778 5.288C4.39378 5.432 4.52578 5.558 4.69378 5.666C4.87378 5.774 5.08378 5.876 5.32378 5.972C5.56378 6.056 5.83378 6.146 6.13378 6.242C6.56578 6.386 7.01578 6.548 7.48378 6.728C7.95178 6.896 8.37778 7.124 8.76178 7.412C9.14578 7.7 9.46378 8.06 9.71578 8.492C9.96778 8.912 10.0938 9.44 10.0938 10.076C10.0938 10.808 9.95578 11.444 9.67978 11.984C9.41578 12.512 9.05578 12.95 8.59978 13.298C8.14378 13.646 7.62178 13.904 7.03378 14.072C6.44578 14.24 5.83978 14.324 5.21578 14.324C4.30378 14.324 3.42178 14.168 2.56978 13.856C1.71778 13.532 1.00978 13.076 0.445781 12.488L2.46178 10.436C2.77378 10.82 3.18178 11.144 3.68578 11.408C4.20178 11.66 4.71178 11.786 5.21578 11.786C5.44378 11.786 5.66578 11.762 5.88178 11.714C6.09778 11.666 6.28378 11.588 6.43978 11.48C6.60778 11.372 6.73978 11.228 6.83578 11.048C6.93178 10.868 6.97978 10.652 6.97978 10.4C6.97978 10.16 6.91978 9.956 6.79978 9.788C6.67978 9.62 6.50578 9.47 6.27778 9.338C6.06178 9.194 5.78578 9.068 5.44978 8.96C5.12578 8.84 4.75378 8.714 4.33378 8.582C3.92578 8.45 3.52378 8.294 3.12778 8.114C2.74378 7.934 2.39578 7.706 2.08378 7.43C1.78378 7.142 1.53778 6.8 1.34578 6.404C1.16578 5.996 1.07578 5.504 1.07578 4.928C1.07578 4.22 1.21978 3.614 1.50778 3.11C1.79578 2.606 2.17378 2.192 2.64178 1.868C3.10978 1.544 3.63778 1.31 4.22578 1.166C4.81378 1.01 5.40778 0.932 6.00778 0.932C6.72778 0.932 7.45978 1.064 8.20378 1.328C8.95978 1.592 9.61978 1.982 10.1838 2.498L8.22178 4.568ZM18.1365 8.492C18.1365 8.024 17.9865 7.622 17.6865 7.286C17.3985 6.95 16.9605 6.782 16.3725 6.782C16.0845 6.782 15.8205 6.83 15.5805 6.926C15.3405 7.01 15.1305 7.13 14.9505 7.286C14.7705 7.442 14.6265 7.628 14.5185 7.844C14.4105 8.048 14.3505 8.264 14.3385 8.492H18.1365ZM20.8545 9.626C20.8545 9.746 20.8545 9.866 20.8545 9.986C20.8545 10.106 20.8485 10.22 20.8365 10.328H14.3385C14.3625 10.58 14.4345 10.808 14.5545 11.012C14.6865 11.216 14.8485 11.396 15.0405 11.552C15.2445 11.696 15.4665 11.81 15.7065 11.894C15.9585 11.978 16.2165 12.02 16.4805 12.02C16.9485 12.02 17.3445 11.936 17.6685 11.768C17.9925 11.588 18.2565 11.36 18.4605 11.084L20.5125 12.38C20.0925 12.992 19.5345 13.466 18.8385 13.802C18.1545 14.126 17.3565 14.288 16.4445 14.288C15.7725 14.288 15.1365 14.186 14.5365 13.982C13.9365 13.766 13.4085 13.46 12.9525 13.064C12.5085 12.656 12.1545 12.158 11.8905 11.57C11.6385 10.982 11.5125 10.31 11.5125 9.554C11.5125 8.822 11.6385 8.162 11.8905 7.574C12.1425 6.974 12.4845 6.47 12.9165 6.062C13.3485 5.642 13.8585 5.318 14.4465 5.09C15.0345 4.862 15.6705 4.748 16.3545 4.748C17.0145 4.748 17.6205 4.862 18.1725 5.09C18.7245 5.306 19.1985 5.624 19.5945 6.044C19.9905 6.464 20.2965 6.974 20.5125 7.574C20.7405 8.174 20.8545 8.858 20.8545 9.626ZM22.7212 14V0.391999H25.7092V14H22.7212ZM34.2205 8.492C34.2205 8.024 34.0705 7.622 33.7705 7.286C33.4825 6.95 33.0445 6.782 32.4565 6.782C32.1685 6.782 31.9045 6.83 31.6645 6.926C31.4245 7.01 31.2145 7.13 31.0345 7.286C30.8545 7.442 30.7105 7.628 30.6025 7.844C30.4945 8.048 30.4345 8.264 30.4225 8.492H34.2205ZM36.9385 9.626C36.9385 9.746 36.9385 9.866 36.9385 9.986C36.9385 10.106 36.9325 10.22 36.9205 10.328H30.4225C30.4465 10.58 30.5185 10.808 30.6385 11.012C30.7705 11.216 30.9325 11.396 31.1245 11.552C31.3285 11.696 31.5505 11.81 31.7905 11.894C32.0425 11.978 32.3005 12.02 32.5645 12.02C33.0325 12.02 33.4285 11.936 33.7525 11.768C34.0765 11.588 34.3405 11.36 34.5445 11.084L36.5965 12.38C36.1765 12.992 35.6185 13.466 34.9225 13.802C34.2385 14.126 33.4405 14.288 32.5285 14.288C31.8565 14.288 31.2205 14.186 30.6205 13.982C30.0205 13.766 29.4925 13.46 29.0365 13.064C28.5925 12.656 28.2385 12.158 27.9745 11.57C27.7225 10.982 27.5965 10.31 27.5965 9.554C27.5965 8.822 27.7225 8.162 27.9745 7.574C28.2265 6.974 28.5685 6.47 29.0005 6.062C29.4325 5.642 29.9425 5.318 30.5305 5.09C31.1185 4.862 31.7545 4.748 32.4385 4.748C33.0985 4.748 33.7045 4.862 34.2565 5.09C34.8085 5.306 35.2825 5.624 35.6785 6.044C36.0745 6.464 36.3805 6.974 36.5965 7.574C36.8245 8.174 36.9385 8.858 36.9385 9.626ZM44.6552 14V9.104C44.6552 8.852 44.6312 8.612 44.5832 8.384C44.5472 8.156 44.4812 7.958 44.3852 7.79C44.2892 7.61 44.1512 7.472 43.9712 7.376C43.8032 7.268 43.5872 7.214 43.3232 7.214C43.0592 7.214 42.8252 7.268 42.6212 7.376C42.4292 7.472 42.2672 7.61 42.1352 7.79C42.0032 7.97 41.9012 8.18 41.8292 8.42C41.7692 8.648 41.7392 8.888 41.7392 9.14V14H38.7692V5.036H41.6312V6.278H41.6672C41.7752 6.086 41.9132 5.9 42.0812 5.72C42.2612 5.528 42.4652 5.366 42.6932 5.234C42.9332 5.102 43.1912 4.994 43.4672 4.91C43.7432 4.826 44.0372 4.784 44.3492 4.784C44.9492 4.784 45.4592 4.892 45.8792 5.108C46.2992 5.324 46.6352 5.606 46.8872 5.954C47.1512 6.29 47.3372 6.68 47.4452 7.124C47.5652 7.568 47.6252 8.012 47.6252 8.456V14H44.6552ZM53.065 2.174C53.065 2.402 53.017 2.618 52.921 2.822C52.837 3.014 52.717 3.182 52.561 3.326C52.417 3.47 52.237 3.584 52.021 3.668C51.817 3.752 51.601 3.794 51.373 3.794C50.893 3.794 50.491 3.638 50.167 3.326C49.843 3.002 49.681 2.618 49.681 2.174C49.681 1.958 49.723 1.754 49.807 1.562C49.891 1.358 50.011 1.184 50.167 1.04C50.323 0.895999 50.503 0.781999 50.707 0.698C50.911 0.601999 51.133 0.553999 51.373 0.553999C51.601 0.553999 51.817 0.595999 52.021 0.68C52.237 0.763999 52.417 0.877999 52.561 1.022C52.717 1.166 52.837 1.34 52.921 1.544C53.017 1.736 53.065 1.946 53.065 2.174ZM49.897 14V5.036H52.849V14H49.897ZM61.0912 14V12.758H61.0552C60.9472 12.962 60.8032 13.154 60.6232 13.334C60.4552 13.514 60.2512 13.67 60.0112 13.802C59.7832 13.934 59.5252 14.042 59.2372 14.126C58.9612 14.21 58.6672 14.252 58.3552 14.252C57.7552 14.252 57.2452 14.144 56.8252 13.928C56.4172 13.712 56.0812 13.436 55.8172 13.1C55.5652 12.752 55.3792 12.362 55.2592 11.93C55.1512 11.486 55.0972 11.036 55.0972 10.58V5.036H58.0672V9.896C58.0672 10.148 58.0852 10.388 58.1212 10.616C58.1572 10.844 58.2232 11.048 58.3192 11.228C58.4272 11.408 58.5652 11.552 58.7332 11.66C58.9012 11.756 59.1232 11.804 59.3992 11.804C59.9152 11.804 60.3052 11.612 60.5692 11.228C60.8452 10.844 60.9832 10.394 60.9832 9.878V5.036H63.9352V14H61.0912ZM77.6918 14V9.104C77.6918 8.852 77.6738 8.612 77.6378 8.384C77.6018 8.144 77.5358 7.94 77.4398 7.772C77.3438 7.604 77.2118 7.472 77.0438 7.376C76.8878 7.268 76.6778 7.214 76.4138 7.214C76.1618 7.214 75.9398 7.268 75.7478 7.376C75.5678 7.484 75.4118 7.628 75.2798 7.808C75.1598 7.988 75.0698 8.198 75.0098 8.438C74.9498 8.666 74.9198 8.906 74.9198 9.158V14H71.9678V8.888C71.9678 8.372 71.8658 7.964 71.6618 7.664C71.4578 7.364 71.1338 7.214 70.6898 7.214C70.2218 7.214 69.8558 7.4 69.5918 7.772C69.3398 8.144 69.2138 8.6 69.2138 9.14V14H66.2438V5.036H69.1058V6.278H69.1418C69.2498 6.086 69.3818 5.9 69.5378 5.72C69.7058 5.54 69.9038 5.384 70.1318 5.252C70.3598 5.108 70.6118 4.994 70.8878 4.91C71.1758 4.826 71.4878 4.784 71.8238 4.784C72.4718 4.784 73.0178 4.916 73.4618 5.18C73.9178 5.444 74.2718 5.822 74.5238 6.314C74.8238 5.846 75.2078 5.474 75.6758 5.198C76.1438 4.922 76.7138 4.784 77.3858 4.784C77.9978 4.784 78.5078 4.898 78.9158 5.126C79.3358 5.342 79.6718 5.63 79.9238 5.99C80.1758 6.338 80.3558 6.734 80.4638 7.178C80.5838 7.61 80.6438 8.036 80.6438 8.456V14H77.6918ZM87.5347 14V1.256H90.6307V14H87.5347ZM105.163 7.592C105.163 8.708 104.953 9.674 104.533 10.49C104.125 11.294 103.579 11.96 102.895 12.488C102.223 13.004 101.461 13.388 100.609 13.64C99.7572 13.88 98.8932 14 98.0172 14H93.2652V1.256H97.8732C98.7732 1.256 99.6612 1.364 100.537 1.58C101.413 1.784 102.193 2.132 102.877 2.624C103.561 3.104 104.113 3.752 104.533 4.568C104.953 5.384 105.163 6.392 105.163 7.592ZM101.959 7.592C101.959 6.872 101.839 6.278 101.599 5.81C101.371 5.33 101.059 4.952 100.663 4.676C100.279 4.388 99.8352 4.184 99.3312 4.064C98.8392 3.944 98.3292 3.884 97.8012 3.884H96.2712V11.336H97.7292C98.2812 11.336 98.8092 11.276 99.3132 11.156C99.8292 11.024 100.279 10.814 100.663 10.526C101.059 10.238 101.371 9.854 101.599 9.374C101.839 8.894 101.959 8.3 101.959 7.592ZM107.205 14V1.256H115.773V3.866H110.175V6.26H115.467V8.726H110.175V11.372H116.097V14H107.205Z" fill="#2CB134"/>
</svg>
