<svg width="191" height="200" viewBox="0 0 191 200" fill="none" xmlns="http://www.w3.org/2000/svg">
<path d="M174.7 0.00256358C175.189 -0.0282987 175.653 0.221446 175.896 0.646376C176.139 1.07131 176.118 1.59737 175.844 2.00251L126.379 69.1437C126.017 69.5525 125.496 69.7866 124.95 69.7866C124.403 69.7866 123.883 69.5525 123.52 69.1437L106.079 49.7156C105.653 49.2737 105.049 49.0489 104.438 49.1045C103.826 49.16 103.273 49.4899 102.934 50.0013L92.3549 63.4295C92.0202 64.1857 92.1301 65.0646 92.6408 65.7152L124.092 98.2858C124.455 98.6946 124.975 98.9287 125.522 98.9287C126.068 98.9287 126.589 98.6946 126.951 98.2858L188.71 28.859C189.075 28.4674 189.64 28.3344 190.141 28.5222C190.642 28.71 190.98 29.1815 190.997 29.7161V198.569C191.021 198.955 190.878 199.332 190.605 199.605C190.331 199.878 189.954 200.021 189.568 199.997H1.43214C1.04621 200.021 0.668677 199.878 0.395276 199.605C0.121875 199.332 -0.0211289 198.955 0.00253253 198.569V1.4311C-0.0211289 1.04546 0.121875 0.66821 0.395276 0.395013C0.668677 0.121817 1.04621 -0.0210801 1.43214 0.00256358H174.7ZM126.093 114C117.581 113.85 109.378 117.183 103.385 123.225C97.3919 129.268 94.1303 137.495 94.3563 145.999C94.3563 165.713 108.652 178.284 127.237 178.284C135.84 178.498 144.277 175.888 151.255 170.855C151.901 170.268 152.023 169.298 151.54 168.57L146.394 160.856C145.815 160.193 144.831 160.07 144.107 160.57C139.633 163.623 134.368 165.31 128.953 165.427C118.945 165.427 112.655 159.141 111.512 151.713C111.532 151.406 111.777 151.162 112.083 151.142H155.257C156.178 151.079 156.911 150.347 156.973 149.427V147.713C156.973 127.714 144.392 114 126.093 114ZM83.4913 103.143C74.807 96.0495 63.8185 92.3895 52.6119 92.8573C33.1693 92.8573 21.1607 104.286 21.1607 118C21.1607 149.142 68.6235 139.142 68.6235 153.713C68.6235 158.284 64.0487 162.856 54.3274 162.856C45.0947 162.932 36.1869 159.453 29.4524 153.142C29.0503 152.766 28.5056 152.582 27.9579 152.637C27.4102 152.691 26.9128 152.979 26.5931 153.427L19.1592 163.713C18.6768 164.441 18.7983 165.411 19.4451 165.998C27.165 173.141 38.03 177.998 53.1838 177.998C75.4856 177.998 86.3505 166.57 86.9224 151.713C86.9224 120.857 39.4596 129.714 39.4596 116.571C39.4596 111.714 43.7484 108.286 51.1823 108.286C59.3771 108.173 67.3582 110.899 73.77 116C74.147 116.308 74.6326 116.452 75.1169 116.398C75.6012 116.344 76.0434 116.098 76.3433 115.714L83.7773 105.714C84.0861 105.337 84.2298 104.852 84.176 104.368C84.1222 103.884 83.8754 103.443 83.4913 103.143ZM126.379 126.571C134.156 126.136 140.87 131.958 141.533 139.713C141.512 140.02 141.268 140.264 140.961 140.285H111.797C111.491 140.264 111.246 140.02 111.226 139.713C112.182 132.111 118.712 126.447 126.379 126.571Z" fill="#2CB134"/>
</svg>
