<svg width="86" height="90" viewBox="0 0 86 90" fill="none" xmlns="http://www.w3.org/2000/svg">
<path d="M78.6607 0.00115361C78.8808 -0.0127344 79.0896 0.0996506 79.1991 0.290869C79.3085 0.482088 79.2994 0.718817 79.1757 0.901131L56.9038 31.1146C56.7406 31.2986 56.5063 31.404 56.2601 31.404C56.014 31.404 55.7797 31.2986 55.6164 31.1146L47.7633 22.372C47.5715 22.1732 47.2997 22.072 47.0244 22.097C46.7491 22.122 46.5 22.2705 46.3472 22.5006L41.5839 28.5433C41.4332 28.8835 41.4827 29.2791 41.7126 29.5718L55.8739 44.2286C56.0371 44.4126 56.2715 44.5179 56.5176 44.5179C56.7637 44.5179 56.9981 44.4126 57.1613 44.2286L84.9689 12.9865C85.1331 12.8103 85.3876 12.7505 85.6132 12.835C85.8389 12.9195 85.9912 13.1317 85.9989 13.3722V89.356C86.0095 89.5296 85.9451 89.6993 85.822 89.8223C85.6989 89.9452 85.5289 90.0095 85.3552 89.9989H0.644836C0.471069 90.0095 0.30108 89.9452 0.177978 89.8223C0.0548755 89.6993 -0.00951352 89.5296 0.0011403 89.356V0.643994C-0.00951352 0.470459 0.0548755 0.300695 0.177978 0.177756C0.30108 0.0548175 0.471069 -0.00948606 0.644836 0.00115361H78.6607ZM56.7751 51.2998C52.9424 51.2325 49.2486 52.7323 46.5502 55.4514C43.8518 58.1704 42.3833 61.8726 42.485 65.6995C42.485 74.5707 48.922 80.2277 57.29 80.2277C61.1637 80.324 64.9622 79.1498 68.1041 76.8849C68.3954 76.6208 68.4501 76.1839 68.2329 75.8564L65.9156 72.385C65.655 72.0867 65.2117 72.0313 64.8857 72.2565C62.8715 73.6301 60.5009 74.3895 58.0625 74.4421C53.5566 74.4421 50.7243 71.6136 50.2094 68.2708C50.2187 68.1329 50.3287 68.023 50.4669 68.0137H69.9065C70.3209 67.9857 70.6509 67.6562 70.6789 67.2423V66.4709C70.6789 57.4711 65.0144 51.2998 56.7751 51.2998ZM37.593 46.4143C33.6827 43.2223 28.735 41.5752 23.6891 41.7858C14.9349 41.7858 9.52783 46.9285 9.52783 53.0998C9.52783 67.1137 30.8985 62.6138 30.8985 69.1708C30.8985 71.2279 28.8387 73.285 24.4616 73.285C20.3044 73.3193 16.2936 71.7539 13.2613 68.9137C13.0802 68.7447 12.835 68.6618 12.5884 68.6865C12.3418 68.7111 12.1178 68.8408 11.9739 69.0423L8.62666 73.6707C8.40947 73.9983 8.46415 74.4351 8.7554 74.6992C12.2314 77.9135 17.1234 80.0991 23.9466 80.0991C33.9883 80.0991 38.8803 74.9564 39.1378 68.2708C39.1378 54.3855 17.7671 58.3711 17.7671 52.457C17.7671 50.2713 19.6982 48.7285 23.0454 48.7285C26.7352 48.678 30.3288 49.9045 33.2158 52.1998C33.3856 52.3387 33.6042 52.4033 33.8223 52.3791C34.0403 52.3549 34.2394 52.2439 34.3745 52.0713L37.7217 47.5714C37.8607 47.4019 37.9255 47.1835 37.9012 46.9657C37.877 46.748 37.7659 46.5491 37.593 46.4143ZM56.9038 56.9568C60.4054 56.7612 63.4282 59.3813 63.727 62.871C63.7177 63.0089 63.6077 63.1188 63.4695 63.1281H50.3381C50.2 63.1188 50.09 63.0089 50.0807 62.871C50.5111 59.4499 53.4517 56.9011 56.9038 56.9568Z" fill="#2CB134"/>
</svg>
