<svg width="54" height="54" viewBox="0 0 54 54" fill="none" xmlns="http://www.w3.org/2000/svg">
<g clip-path="url(#clip0)">
<path d="M53.0566 22.7083L49.8239 20.9535L47.4161 15.1332L48.4604 11.6073C48.65 10.9753 48.4772 10.2903 48.0106 9.82369L44.1781 5.99209C43.7111 5.5269 43.0271 5.35437 42.3954 5.54237L38.8642 6.58122L33.0439 4.17066L31.289 0.940828C30.9743 0.360952 30.3674 -0.000108893 29.7077 2.4635e-08H24.2894C23.6297 -0.000108893 23.0229 0.360952 22.7082 0.940828L20.9535 4.17338L15.1332 6.58122L11.6073 5.53692C10.9754 5.34708 10.2902 5.51993 9.82369 5.98664L5.99208 9.81835C5.5269 10.2853 5.35437 10.9693 5.54237 11.601L6.58122 15.1331L4.17077 20.9535L0.940827 22.7083C0.360952 23.0229 -0.000108893 23.6298 2.4635e-08 24.2895V29.7078C-0.000108893 30.3676 0.360952 30.9743 0.940827 31.2891L4.17338 33.0439L6.58122 38.8642L5.53692 42.3901C5.34729 43.0221 5.52004 43.7071 5.98664 44.1737L9.81824 48.0053C10.2852 48.4705 10.9692 48.643 11.6009 48.455L15.133 47.4162L20.9533 49.8267L22.7081 53.0593C23.0227 53.6392 23.6296 54.0002 24.2893 54.0001H29.7076C30.3673 54.0002 30.9741 53.6392 31.2889 53.0593L33.0437 49.8267L38.864 47.4162L42.3898 48.4605C43.0218 48.6503 43.707 48.4775 44.1735 48.0107L48.0051 44.1791C48.4703 43.7122 48.6428 43.0282 48.4548 42.3964L47.4159 38.8643L49.8265 33.044L53.0591 31.2892C53.6389 30.9746 54 30.3677 53.9999 29.708V24.2896C53.9996 23.6293 53.6374 23.0223 53.0566 22.7083ZM52.1984 29.7078L48.686 31.6147C48.5042 31.7138 48.3622 31.8727 48.284 32.0644L45.6288 38.4738C45.5499 38.6643 45.5388 38.8761 45.5974 39.0738L46.7334 42.9054L42.9018 46.737L39.0702 45.601C38.8724 45.5432 38.6608 45.5543 38.4702 45.6324L32.0608 48.2876C31.8691 48.3658 31.7102 48.5078 31.6111 48.6896L29.7042 52.202H24.2895L22.3827 48.6896C22.2836 48.5078 22.1247 48.3658 21.933 48.2876L15.5235 45.6324C15.4143 45.5874 15.2972 45.5642 15.179 45.564C15.0926 45.5642 15.0066 45.5767 14.9236 45.601L11.092 46.737L7.26043 42.9054L8.39643 39.0738C8.45503 38.8761 8.44392 38.6643 8.36496 38.4738L5.71337 32.0608C5.63516 31.8691 5.49313 31.7102 5.31135 31.6111L1.80356 29.7043V24.2895L5.31593 22.3827C5.49771 22.2836 5.63974 22.1247 5.71794 21.933L8.37313 15.5235C8.45209 15.3331 8.4632 15.1213 8.4046 14.9236L7.2686 11.092L11.1002 7.26043L14.9318 8.39643C15.1295 8.4546 15.3412 8.44349 15.5317 8.36496L21.9412 5.70977C22.1329 5.63157 22.2918 5.48954 22.3909 5.30776L24.2977 1.79997H29.716L31.6228 5.31233C31.7219 5.49412 31.8809 5.63614 32.0725 5.71435L38.482 8.36953C38.6726 8.44806 38.8842 8.45917 39.0819 8.40101L42.9135 7.265L46.7451 11.0966L45.6091 14.9282C45.5505 15.1259 45.5616 15.3376 45.6406 15.5281L48.2958 21.9376C48.374 22.1293 48.516 22.2882 48.6978 22.3873L52.2102 24.2941L52.1984 29.7078Z" fill="#3870DE"/>
<path d="M26.998 8.11035C16.5662 8.11035 8.10968 16.5669 8.10968 26.9987C8.10968 37.4305 16.5662 45.887 26.998 45.887C37.4298 45.887 45.8863 37.4305 45.8863 26.9987C45.875 16.5717 37.4251 8.12179 26.998 8.11035ZM26.998 44.0882C17.5598 44.0882 9.90856 36.437 9.90856 26.9988C9.90856 17.5606 17.5598 9.90923 26.998 9.90923C36.4362 9.90923 44.0875 17.5605 44.0875 26.9987C44.0771 36.4327 36.432 44.0778 26.998 44.0882Z" fill="#3870DE"/>
<path d="M17.1052 20.7025V18.9036C17.1052 18.4068 16.7026 18.0042 16.2058 18.0042C15.709 18.0042 15.3064 18.4068 15.3064 18.9036V20.7025C14.3128 20.7025 13.5075 21.5079 13.5075 22.5013V26.9985C13.5075 27.9921 14.3129 28.7974 15.3064 28.7974V31.4957C15.3064 31.9925 15.709 32.3952 16.2058 32.3952C16.7026 32.3952 17.1052 31.9925 17.1052 31.4957V28.7974C18.0988 28.7974 18.9041 27.992 18.9041 26.9985V22.5013C18.9041 21.5078 18.0987 20.7025 17.1052 20.7025ZM15.3062 26.9985V22.5013H17.1051V26.9985H15.3062Z" fill="#3870DE"/>
<path d="M31.4964 18.0043V14.4065C31.4964 13.9097 31.0937 13.5071 30.597 13.5071C30.1002 13.5071 29.6975 13.9097 29.6975 14.4065V18.0043C28.704 18.0043 27.8987 18.8097 27.8987 19.8032V30.5965C27.8987 31.5901 28.7041 32.3954 29.6975 32.3954V35.9932C29.6975 36.4899 30.1002 36.8926 30.597 36.8926C31.0937 36.8926 31.4964 36.4899 31.4964 35.9932V32.3954C32.49 32.3954 33.2953 31.59 33.2953 30.5965V19.8032C33.2953 18.8096 32.4898 18.0043 31.4964 18.0043ZM29.6974 30.5965V19.8032H31.4963V30.5965H29.6974Z" fill="#3870DE"/>
<path d="M24.3003 16.2054V14.4065C24.3003 13.9097 23.8976 13.5071 23.4009 13.5071C22.9041 13.5071 22.5014 13.9097 22.5014 14.4065V16.2054C21.5079 16.2054 20.7025 17.0108 20.7025 18.0043V35.9932C20.7025 36.9867 21.508 37.792 22.5014 37.792V39.5909C22.5014 40.0877 22.9041 40.4904 23.4009 40.4904C23.8976 40.4904 24.3003 40.0877 24.3003 39.5909V37.792C25.2938 37.792 26.0992 36.9866 26.0992 35.9932V18.0043C26.0992 17.0107 25.2938 16.2054 24.3003 16.2054ZM22.5014 35.9932V18.0043H24.3003V35.9932H22.5014Z" fill="#3870DE"/>
<path d="M38.6914 23.4009C38.6914 22.9041 38.2888 22.5015 37.792 22.5015C37.2952 22.5015 36.8926 22.9041 36.8926 23.4009V25.1998C35.899 25.1998 35.0937 26.0052 35.0937 26.9987V31.4959C35.0937 32.4894 35.8991 33.2947 36.8926 33.2947V35.0936C36.8926 35.5904 37.2952 35.993 37.792 35.993C38.2888 35.993 38.6914 35.5904 38.6914 35.0936V33.2947C39.685 33.2947 40.4903 32.4893 40.4903 31.4959V26.9987C40.4903 26.0051 39.6849 25.1998 38.6914 25.1998V23.4009ZM38.6914 31.496H36.8926V26.9988H38.6914V31.496Z" fill="#3870DE"/>
</g>
<defs>
<clipPath id="clip0">
<rect width="54" height="54" fill="white"/>
</clipPath>
</defs>
</svg>
