<svg width="54" height="54" viewBox="0 0 54 54" fill="none" xmlns="http://www.w3.org/2000/svg">
<path d="M2.70016 35.9999H15.3C16.7914 35.9999 18.0001 34.7911 18.0001 33.3001V28.8H21.6001C23.0911 28.8 24.2998 27.5912 24.2998 26.0998V17.1C24.2998 16.6031 23.8969 16.2002 23.4001 16.2002C22.9028 16.2002 22.4999 16.6031 22.4999 17.1V26.0998C22.4999 26.5971 22.0969 27 21.6001 27H18.0001V22.4999C18.0001 21.0089 16.7914 19.8001 15.3 19.8001H2.70016C1.20877 19.8001 0 21.0089 0 22.4999V33.3001C0 34.7911 1.20877 35.9999 2.70016 35.9999ZM1.79997 22.4999C1.79997 22.003 2.2029 21.6001 2.70016 21.6001H15.3C15.7972 21.6001 16.2002 22.003 16.2002 22.4999V33.3001C16.2002 33.797 15.7972 34.1999 15.3 34.1999H2.70016C2.2029 34.1999 1.79997 33.797 1.79997 33.3001V22.4999Z" fill="#3870DE"/>
<path d="M51.2998 19.8001H38.7C37.2086 19.8001 35.9999 21.0089 35.9999 22.4999V27H32.3999C31.9031 27 31.5001 26.5971 31.5001 26.0998V17.1C31.5001 16.6031 31.0972 16.2002 30.5999 16.2002C30.1031 16.2002 29.7002 16.6031 29.7002 17.1V26.0998C29.7002 27.5912 30.9089 28.8 32.3999 28.8H35.9999V33.3001C35.9999 34.7911 37.2086 35.9999 38.7 35.9999H51.2998C52.7912 35.9999 54 34.7911 54 33.3001V22.4999C54 21.0089 52.7912 19.8001 51.2998 19.8001ZM52.2 33.3001C52.2 33.797 51.7971 34.1999 51.2998 34.1999H38.7C38.2028 34.1999 37.7998 33.797 37.7998 33.3001V22.4999C37.7998 22.003 38.2028 21.6001 38.7 21.6001H51.2998C51.7971 21.6001 52.2 22.003 52.2 22.4999V33.3001Z" fill="#3870DE"/>
<path d="M27 16.2002C26.5031 16.2002 26.0998 16.6031 26.0998 17.1V37.7999H20.6999C19.2089 37.7999 18.0001 39.009 18.0001 40.5V51.2999C18.0001 52.7913 19.2089 54 20.6999 54H33.3001C34.7911 54 35.9998 52.7913 35.9998 51.2999V40.5C35.9998 39.009 34.7911 37.7999 33.3001 37.7999H27.9002V17.1C27.9002 16.6031 27.4968 16.2002 27 16.2002ZM34.1999 40.5V51.2999C34.1999 51.7971 33.797 52.2001 33.3001 52.2001H20.6999C20.203 52.2001 19.8001 51.7971 19.8001 51.2999V40.5C19.8001 40.0032 20.203 39.5998 20.6999 39.5998H33.3001C33.797 39.5998 34.1999 40.0032 34.1999 40.5Z" fill="#3870DE"/>
<path d="M4.50014 37.7998C4.00287 37.7998 3.59995 38.2027 3.59995 38.7V40.5C3.59995 41.991 4.80872 43.2001 6.30011 43.2001H15.3C15.7972 43.2001 16.2002 42.7972 16.2002 42.2999C16.2002 41.8031 15.7972 41.4002 15.3 41.4002H6.30011C5.80284 41.4002 5.39992 40.9968 5.39992 40.5V38.7C5.39992 38.2027 4.99699 37.7998 4.50014 37.7998Z" fill="#3870DE"/>
<path d="M45.8999 43.2001C47.3913 43.2001 48.6001 41.991 48.6001 40.5V38.7C48.6001 38.2027 48.1972 37.7998 47.6999 37.7998C47.203 37.7998 46.8001 38.2027 46.8001 38.7V40.5C46.8001 40.9968 46.3972 41.4002 45.8999 41.4002H38.7C38.2028 41.4002 37.7998 41.8031 37.7998 42.2999C37.7998 42.7972 38.2028 43.2001 38.7 43.2001H45.8999Z" fill="#3870DE"/>
<path d="M47.6999 18.0001C48.1972 18.0001 48.6001 17.5972 48.6001 17.0999V2.70016C48.6001 1.20877 47.3913 0 45.8999 0H6.30011C4.80872 0 3.59995 1.20877 3.59995 2.70016V17.0999C3.59995 17.5972 4.00287 18.0001 4.50014 18.0001C4.99699 18.0001 5.39992 17.5972 5.39992 17.0999V8.99986H46.8001V17.0999C46.8001 17.5972 47.203 18.0001 47.6999 18.0001ZM5.39992 7.19989V2.70016C5.39992 2.2029 5.80284 1.79997 6.30011 1.79997H45.8999C46.3972 1.79997 46.8001 2.2029 46.8001 2.70016V7.19989H5.39992Z" fill="#3870DE"/>
<path d="M8.99986 4.50005C8.99986 4.9969 8.59694 5.39983 8.10008 5.39983C7.60281 5.39983 7.19989 4.9969 7.19989 4.50005C7.19989 4.00278 7.60281 3.59985 8.10008 3.59985C8.59694 3.59985 8.99986 4.00278 8.99986 4.50005Z" fill="#3870DE"/>
<path d="M12.5998 4.50005C12.5998 4.9969 12.1969 5.39983 11.7 5.39983C11.2028 5.39983 10.7998 4.9969 10.7998 4.50005C10.7998 4.00278 11.2028 3.59985 11.7 3.59985C12.1969 3.59985 12.5998 4.00278 12.5998 4.50005Z" fill="#3870DE"/>
<path d="M16.2002 4.50005C16.2002 4.9969 15.7973 5.39983 15.3 5.39983C14.8031 5.39983 14.4002 4.9969 14.4002 4.50005C14.4002 4.00278 14.8031 3.59985 15.3 3.59985C15.7973 3.59985 16.2002 4.00278 16.2002 4.50005Z" fill="#3870DE"/>
<path d="M41.4002 18.0001C41.897 18.0001 42.3 17.5972 42.3 17.0999V13.5C42.3 12.009 41.0912 10.7998 39.5998 10.7998H14.4002C12.9088 10.7998 11.7 12.009 11.7 13.5V17.0999C11.7 17.5972 12.1029 18.0001 12.5998 18.0001C13.0971 18.0001 13.5 17.5972 13.5 17.0999V13.5C13.5 13.0031 13.9029 12.5998 14.4002 12.5998H39.5998C40.0971 12.5998 40.5 13.0031 40.5 13.5V17.0999C40.5 17.5972 40.9029 18.0001 41.4002 18.0001Z" fill="#3870DE"/>
<path d="M26.2867 41.7527L24.8691 43.6013L22.3049 44.1719C21.9872 44.2432 21.7331 44.4801 21.6395 44.792C21.5464 45.1039 21.6288 45.4417 21.855 45.6757L23.4605 47.3344L23.3221 49.4404C23.3023 49.7387 23.4317 50.0271 23.6677 50.2108C23.9034 50.3942 24.2153 50.4486 24.4991 50.3559L27.0003 49.5393L29.5023 50.3559C29.7866 50.4486 30.098 50.3942 30.3341 50.2108C30.5698 50.0271 30.6991 49.7387 30.6794 49.4404L30.5409 47.3344L32.1464 45.6757C32.3726 45.4417 32.455 45.1039 32.3619 44.792C32.2684 44.4801 32.0142 44.2432 31.6965 44.1719L29.1323 43.6013L27.7151 41.7527C27.5384 41.5406 27.2768 41.4182 27.0007 41.4182C26.7247 41.4182 26.4631 41.5406 26.2867 41.7527ZM27.9005 44.9559C28.029 45.1236 28.2128 45.241 28.4196 45.2872L29.7326 45.5797L28.9675 46.3687C28.7904 46.5516 28.6989 46.8008 28.7158 47.0546L28.8003 48.2317L27.2838 47.7377C27.1025 47.6788 26.9072 47.6788 26.7259 47.7377L25.2094 48.2317L25.2877 47.0546C25.3042 46.8008 25.2127 46.5516 25.0355 46.3687L24.2705 45.5797L25.5839 45.2872C25.7895 45.2406 25.9724 45.1232 26.1001 44.9559L27.0003 43.7793L27.9005 44.9559Z" fill="#3870DE"/>
<path d="M47.2319 27.6163C47.9978 26.4916 47.8066 24.9726 46.7861 24.0724C45.7656 23.1722 44.2347 23.1722 43.2138 24.0724C42.1933 24.9726 42.0021 26.4916 42.768 27.6163C41.3705 28.411 40.5054 29.8925 40.5 31.5001C40.5 31.9969 40.9029 32.3999 41.4002 32.3999H48.6001C49.0969 32.3999 49.4999 31.9969 49.4999 31.5001C49.4945 29.8925 48.6293 28.411 47.2319 27.6163ZM44.0999 26.0998C44.0999 25.6029 44.5029 25.2 45.0001 25.2C45.497 25.2 45.8999 25.6029 45.8999 26.0998C45.8999 26.597 45.497 26.9999 45.0001 26.9999C44.5029 26.9999 44.0999 26.597 44.0999 26.0998ZM42.4541 30.5999C42.8347 29.5205 43.8552 28.7987 45.0001 28.7987C46.1446 28.7987 47.1651 29.5205 47.5462 30.5999H42.4541Z" fill="#3870DE"/>
<path d="M4.50014 25.2001H13.5C13.9969 25.2001 14.4002 24.7972 14.4002 24.2999C14.4002 23.8031 13.9969 23.4001 13.5 23.4001H4.50014C4.00287 23.4001 3.59995 23.8031 3.59995 24.2999C3.59995 24.7972 4.00287 25.2001 4.50014 25.2001Z" fill="#3870DE"/>
<path d="M4.50014 28.8H13.5C13.9969 28.8 14.4002 28.397 14.4002 27.9002C14.4002 27.4029 13.9969 27 13.5 27H4.50014C4.00287 27 3.59995 27.4029 3.59995 27.9002C3.59995 28.397 4.00287 28.8 4.50014 28.8Z" fill="#3870DE"/>
<path d="M4.50014 32.3998H13.5C13.9969 32.3998 14.4002 31.9969 14.4002 31.5C14.4002 31.0028 13.9969 30.5999 13.5 30.5999H4.50014C4.00287 30.5999 3.59995 31.0028 3.59995 31.5C3.59995 31.9969 4.00287 32.3998 4.50014 32.3998Z" fill="#3870DE"/>
</svg>
