<?xml version="1.0" encoding="UTF-8" standalone="no"?>
<svg width="45px" height="60px" viewBox="0 0 45 60" version="1.1" xmlns="http://www.w3.org/2000/svg" xmlns:xlink="http://www.w3.org/1999/xlink">
    <!-- Generator: Sketch 48.1 (47250) - http://www.bohemiancoding.com/sketch -->
    <title>increase (1)</title>
    <desc>Created with Sketch.</desc>
    <defs></defs>
    <g id="Мобильная/Главная/05---Главная" stroke="none" stroke-width="1" fill="none" fill-rule="evenodd" transform="translate(-156.000000, -1201.000000)">
        <g id="общая" fill="#FFFFFF">
            <g id="компания-" transform="translate(0.000000, 826.000000)">
                <g id="Иконки" transform="translate(40.000000, 370.000000)">
                    <g id="рост" transform="translate(115.000000, 1.000000)">
                        <g id="increase-(1)">
                            <rect id="фон" fill-opacity="0.1" transform="translate(25.131662, 29.363721) rotate(15.000000) translate(-25.131662, -29.363721) " x="6.2745098" y="4.39215686" width="37.7143047" height="49.9431275" rx="18.8571524"></rect>
                            <path d="M43.2979016,61.4998507 L39.5479805,61.4998507 L39.5479805,33.9165401 L43.2979016,33.9165401 C44.4064862,33.9165401 44.9659869,32.5734214 44.1854026,31.7863173 L34.1856409,21.7029681 C33.6968903,21.2101218 32.8993894,21.2101218 32.4106388,21.7029681 L22.4108771,31.7863173 C21.6302095,32.5735047 22.1898768,33.9165401 23.2983781,33.9165401 L27.0482992,33.9165401 L27.0482992,41.4165712 L18.1319554,41.4165712 C17.4416212,41.4165712 16.8819539,41.9762526 16.8819539,42.6666042 L16.8819539,48.9166023 L8.13219362,48.9166023 C7.44185947,48.9166023 6.88219215,49.4762837 6.88219215,50.1666353 L6.88219215,61.4999341 L3.13235441,61.4999341 C2.44202027,61.4999341 1.88235294,62.0596155 1.88235294,62.749967 C1.88235294,63.4403186 2.44202027,64 3.13235441,64 L43.2979849,64 C43.9883191,64 44.5479864,63.4403186 44.5479864,62.749967 C44.5479031,62.0595322 43.9882357,61.4998507 43.2979016,61.4998507 Z M16.8819539,61.4998507 L9.38219509,61.4998507 L9.38219509,51.4165015 L16.8819539,51.4165015 L16.8819539,61.4998507 Z M27.0483825,61.4998507 L19.3819568,61.4998507 L19.3819568,43.9165538 L27.0483825,43.9165538 L27.0483825,61.4998507 Z M37.0480609,32.6665072 L37.0480609,61.4998507 L29.5483021,61.4998507 L29.5483021,32.6665072 C29.5483021,31.9761556 28.9886348,31.4164742 28.2983006,31.4164742 L26.2985483,31.4164742 L33.2982232,24.3582881 L40.2978981,31.4164742 L38.2981457,31.4164742 C37.6077282,31.4165575 37.0480609,31.976239 37.0480609,32.6665072 Z" id="Shape" fill-rule="nonzero"></path>
                        </g>
                    </g>
                </g>
            </g>
        </g>
    </g>
</svg>