<?xml version="1.0" encoding="UTF-8" standalone="no"?>
<svg width="55px" height="60px" viewBox="0 0 55 60" version="1.1" xmlns="http://www.w3.org/2000/svg" xmlns:xlink="http://www.w3.org/1999/xlink">
    <!-- Generator: Sketch 48.1 (47250) - http://www.bohemiancoding.com/sketch -->
    <title>team (1)</title>
    <desc>Created with Sketch.</desc>
    <defs></defs>
    <g id="Мобильная/Главная/05---Главная" stroke="none" stroke-width="1" fill="none" fill-rule="evenodd" transform="translate(-265.000000, -1200.000000)">
        <g id="общая">
            <g id="компания-" transform="translate(0.000000, 826.000000)">
                <g id="Иконки" transform="translate(40.000000, 370.000000)">
                    <g id="команда" transform="translate(225.000000, 0.000000)">
                        <g id="team-(1)">
                            <rect id="фон" fill-opacity="0.1" fill="#E3F2FE" transform="translate(28.268917, 29.363721) rotate(15.000000) translate(-28.268917, -29.363721) " x="9.41176471" y="4.39215686" width="37.7143047" height="49.9431275" rx="18.8571524"></rect>
                            <path d="M45.2499649,38.6646633 C43.531346,37.8824234 40.3090588,37.8733526 40.1727294,37.8733526 C39.7641357,37.8733526 39.4328808,38.1749326 39.4328808,38.5469232 C39.4328808,38.9189138 39.7641357,39.2204938 40.1727294,39.2204938 C41.0042206,39.2205836 43.4183958,39.3371562 44.5882443,39.8696362 C44.6944866,39.9180434 44.8073382,39.940855 44.9185127,39.940855 C45.1898892,39.940855 45.4512037,39.8043447 45.5808252,39.5684154 C45.7636171,39.2356715 45.6154501,38.8310802 45.2499649,38.6646633 Z" id="Shape" fill="#FFFFFF" fill-rule="nonzero"></path>
                            <path d="M52.1479706,52.0332756 L48.845489,51.028665 C48.7029412,50.9853021 48.6033603,50.8447701 48.6033603,50.6868703 L48.6033603,49.5132353 C48.8720368,49.3150375 49.1283456,49.0932286 49.3679154,48.8456517 C50.5289816,47.6460216 51.1683676,46.0369418 51.1683676,44.3146872 L51.1683676,42.695164 L51.4876875,42.0153207 C51.8381397,41.2689574 52.0233346,40.4333711 52.0233346,39.5990334 L52.0233346,35.2116659 C52.0233346,34.7414854 51.6653125,34.3603009 51.2237022,34.3603009 L43.5287868,34.3603009 C40.7307132,34.3603009 38.4542132,36.7840802 38.4542132,39.7631766 L38.4542132,39.8139179 C38.4542132,40.5077236 38.6082757,41.2025509 38.8996618,41.8230257 L39.3091801,42.6950505 L39.3091801,44.0856133 C39.3091801,46.2893999 40.3291912,48.2667235 41.8741875,49.4565912 L41.8744007,50.6866433 C41.8744007,50.8763274 41.8744007,50.95488 41.2141176,51.1558021 L39.6026985,51.6459613 L34.9412684,49.8412946 C34.9580074,49.6071125 34.8838015,49.3689573 34.7233419,49.1894896 L33.2337868,47.5233116 L33.2337868,44.7262938 C33.391261,44.5881457 33.5464963,44.4462515 33.6969338,44.2961842 C35.5760699,42.420911 36.653761,39.7732794 36.653761,37.0322247 L36.653761,34.7984701 C37.2211801,33.483849 37.5087279,32.0927187 37.5087279,30.6600417 L37.5087279,21.5572473 C37.5087279,21.0870668 37.1507059,20.7058824 36.7090956,20.7058824 L24.739239,20.7058824 C20.5267757,20.7058824 17.0997647,24.3547191 17.0997647,28.8395963 L17.0997647,30.6602687 C17.0997647,32.0929457 17.3873125,33.4840761 17.9547316,34.7986971 L17.9547316,36.7206252 C17.9547316,39.903141 19.2838272,42.7703112 21.3747059,44.6605685 L21.3747059,47.5234251 L19.8851507,49.1896031 C19.7246912,49.3690708 19.6504853,49.607226 19.6672243,49.8414081 L14.7473529,51.7460819 C14.3908235,51.8841165 14.0595625,52.0710762 13.7587941,52.2975393 L12.9862426,51.8862733 C15.2859853,50.8204779 16.0145037,49.3215079 16.0494743,49.2470419 C16.1620625,49.007411 16.1620625,48.7252119 16.0494743,48.485581 C15.4729926,47.2580262 15.4031581,45.0080389 15.3470772,43.2001937 C15.3284191,42.5983354 15.3107206,42.0297372 15.2769228,41.5234588 C15.0043015,37.4398583 12.0885221,34.3603009 8.49444118,34.3603009 C4.90036029,34.3603009 1.98447426,37.4397448 1.71195956,41.5234588 C1.67816176,42.0298507 1.66046324,42.598449 1.64180515,43.2004208 C1.58572426,45.0081524 1.51578309,47.2579127 0.939408088,48.4854675 C0.826819853,48.7250984 0.826819853,49.0072975 0.939408088,49.2469283 C0.974378676,49.3213944 1.70140441,50.8172994 4.00573162,51.8843435 L1.85983824,53.0266483 C0.712632353,53.6378148 0,54.8654831 0,56.230959 L0,62.52073 C0,62.9909105 0.358022059,63.372095 0.799632353,63.372095 C1.24124265,63.372095 1.59926471,62.9909105 1.59926471,62.52073 L1.59926471,56.230959 C1.59926471,55.5144503 1.97317279,54.8702508 2.57502941,54.549797 L5.2471875,53.1273364 L6.17668015,54.0678109 C6.82662132,54.7254052 7.66037132,55.0540321 8.49444118,55.0540321 C9.32829779,55.0540321 10.1624743,54.7251782 10.8122022,54.0678109 L11.7415882,53.1274499 L12.6128676,53.5912736 C12.2026029,54.2901874 11.96975,55.1097681 11.96975,55.9682846 L11.96975,62.520957 C11.96975,62.9911375 12.3277721,63.372322 12.7693824,63.372322 C13.2109926,63.372322 13.5690147,62.9911375 13.5690147,62.520957 L13.5690147,55.9682846 C13.5690147,54.7995307 14.262136,53.7458814 15.293875,53.346421 L20.4810368,51.3382213 L22.640364,54.7869305 C22.9163971,55.2278241 23.3587537,55.5105908 23.8539926,55.5628078 C23.9092206,55.5685971 23.9641287,55.571435 24.0189301,55.571435 C24.4558493,55.571435 24.8743235,55.3883347 25.1871397,55.0553943 L26.5045074,53.6527989 L26.5045074,62.5210705 C26.5045074,62.991251 26.8625294,63.3724355 27.3041397,63.3724355 C27.74575,63.3724355 28.1037721,62.991251 28.1037721,62.5210705 L28.1037721,53.6527989 L29.4211397,55.0553943 C29.7338493,55.3884483 30.1523235,55.5715485 30.5893493,55.5715485 C30.6440441,55.5715485 30.6990588,55.5687106 30.7541801,55.5629213 C31.2495257,55.5107043 31.6918824,55.2279376 31.9679154,54.787044 L34.1273493,51.3384483 L39.3144044,53.346648 C40.3460368,53.7461085 41.0392647,54.7997578 41.0392647,55.9685116 L41.0392647,62.521184 C41.0392647,62.9913645 41.3972868,63.372549 41.8388971,63.372549 C42.2805074,63.372549 42.6385294,62.9913645 42.6385294,62.521184 L42.6385294,55.9685116 C42.6385294,54.7847737 42.1968125,53.6745938 41.4558199,52.8535374 L41.6533824,52.7934878 C41.8526507,52.7328706 42.1245257,52.6498909 42.3974669,52.5074292 L44.4390882,54.6811342 L44.4390882,62.521184 C44.4390882,62.9913645 44.7971103,63.372549 45.2387206,63.372549 C45.6803309,63.372549 46.0383529,62.9913645 46.0383529,62.521184 L46.0383529,54.6811342 L48.0657941,52.5225267 C48.1735846,52.5808736 48.2868125,52.6301392 48.406011,52.6663506 L51.7085993,53.6709613 C52.462386,53.9002623 52.9889706,54.6434471 52.9889706,55.4782389 L52.9889706,62.521184 C52.9889706,62.9913645 53.3469926,63.372549 53.7886029,63.372549 C54.2302132,63.372549 54.5882353,62.9913645 54.5882353,62.521184 L54.5882353,55.4782389 C54.5882353,53.886981 53.58475,52.4704232 52.1479706,52.0332756 Z M5.01960784,50.1960784 C3.55678943,49.6272937 2.82303412,48.8689892 2.50980392,48.4549076 C2.72335101,47.8516442 2.86182295,47.1607195 2.95556262,46.4313725 C3.38682764,47.5487731 4.10911313,48.5026819 5.01960784,49.1832405 L5.01960784,50.1960784 Z M9.83344481,52.2742775 C9.06916029,52.8498138 7.8718967,52.8497191 7.10785114,52.2741828 L6.2745098,51.6465661 C6.41513242,51.4377709 6.49243304,51.2010416 6.49243304,50.953044 L6.49243304,50.1960784 C7.11752865,50.3508994 7.78205116,50.4344175 8.47070771,50.4344175 C9.15852793,50.4344175 9.82269202,50.3505206 10.4488629,50.1965519 L10.4487434,50.9529493 C10.4487434,51.2010416 10.5259246,51.4378656 10.6666667,51.6467555 L9.83344481,52.2742775 Z M9.0991743,48.9411765 C6.67809144,48.9411765 4.70855632,46.9232682 4.70855632,44.4429687 C4.70855632,43.9842323 4.34554524,43.6123258 3.89778112,43.6123258 C3.85237771,43.6123258 3.80805533,43.6170882 3.76470588,43.6245086 C3.76708416,43.5530733 3.76935433,43.4815273 3.7717326,43.4107565 C3.78978586,42.8396065 3.8071905,42.3001317 3.8392972,41.8374082 C3.94286022,40.3449092 4.52499682,38.9695862 5.47846845,37.9646191 C6.44048026,36.9505703 7.72626162,36.3921569 9.09895809,36.3921569 C10.4716546,36.3921569 11.7573278,36.9505703 12.7194477,37.9646191 C13.6729194,38.9695862 14.255056,40.3449092 14.358619,41.8374082 C14.3906176,42.3000209 14.4081303,42.839385 14.4265079,43.4104243 C14.4281294,43.4594876 14.429751,43.5092154 14.4313725,43.5586109 C13.5492491,42.1662321 12.1869306,41.1401113 10.4266836,40.5606548 C8.80048472,40.0253886 7.40184344,40.0585036 7.34281901,40.0600541 C7.13050401,40.0661455 6.92899934,40.1571839 6.78165446,40.3137878 L5.31879979,41.8680867 C5.00800263,42.1983502 5.01729952,42.7242025 5.33966374,43.0426156 C5.66202796,43.3610287 6.17530271,43.3513932 6.48609988,43.0212404 L7.70334371,41.7279849 C8.751622,41.7804815 12.1241225,42.1822911 13.4357406,45.1412624 C13.105701,47.3217552 11.276376,48.9411765 9.0991743,48.9411765 Z M11.9215686,50.1960784 L11.9216729,49.1876549 C12.8313621,48.5104498 13.5546302,47.5578306 13.9861722,46.4313725 C14.0799041,47.1594216 14.2182603,47.8491404 14.4313725,48.4513761 C14.1199408,48.8617352 13.3828058,49.6272126 11.9215686,50.1960784 Z M19.6962904,36.4853354 L19.6962904,34.3416398 C19.6962904,34.2115758 19.6685371,34.0831245 19.6150983,33.9659632 C19.0898527,32.8146254 18.8235294,31.5930139 18.8235294,30.3349982 L18.8235294,28.4873741 C18.8235294,24.8885508 21.5896125,21.9607843 24.9894513,21.9607843 L36.3921569,21.9607843 L36.3921569,30.3351134 C36.3921569,31.5931291 36.1258336,32.8147406 35.600588,33.9660784 C35.5471492,34.0832397 35.5193959,34.211691 35.5193959,34.341755 L35.5193959,36.8019129 C35.5193959,39.141799 34.6307447,41.3121064 33.0171328,42.9130811 C32.8156762,43.1128429 32.606601,43.3001628 32.3904514,43.4746952 C32.3856626,43.4781513 32.3810915,43.481953 32.3764115,43.4855243 C30.8647795,44.7003389 29.0132506,45.2907537 27.0796589,45.1581552 C22.9394045,44.8744105 19.6962904,41.064881 19.6962904,36.4853354 Z M24.7840577,53.9430191 C24.7779721,53.9490741 24.7638112,53.9633967 24.7351385,53.9603692 C24.7065827,53.9575745 24.6953477,53.9409231 24.6905494,53.9337036 L21.9607843,49.8595686 L22.8392245,48.9411765 L26.9803922,51.7576022 L24.7840577,53.9430191 Z M27.2941176,50.8235294 L23.2156863,47.4866597 L23.2156863,45.8039216 C24.2709672,46.4867527 25.4525726,46.9138076 26.7092898,47.011166 C26.9078139,47.026551 27.1051331,47.0341233 27.3018497,47.0341233 C28.7419281,47.0341233 30.1278819,46.6220929 31.372549,45.8399802 L31.372549,47.4866597 L27.2941176,50.8235294 Z M31.1525345,53.9335665 C31.1477363,53.9407858 31.1365015,53.9574368 31.1079465,53.9602314 C31.0792743,53.9638411 31.0652309,53.9488202 31.0590283,53.9428817 L28.8627451,51.7576413 L33.0038162,48.9411765 L33.8823529,49.8595434 L31.1525345,53.9335665 Z M45.1720571,52.7058824 L43.2941176,50.9722749 C43.3268878,50.8348617 43.3454245,50.6844099 43.3453141,50.518475 L43.3452038,50.1960784 C43.8663265,50.3539662 44.4155851,50.4476802 44.9839321,50.4633671 C45.0477071,50.4652006 45.1109303,50.4660155 45.1744845,50.4660155 C45.802524,50.4660155 46.4155575,50.3784133 46.9990208,50.211256 L46.9990208,50.5188825 C46.9990208,50.6712696 47.0197642,50.8206008 47.0588235,50.9641259 L45.1720571,52.7058824 Z M48.5916981,47.6713099 C47.7199987,48.5256468 46.568443,48.9768484 45.3526257,48.9389714 C42.972532,48.8668722 41.0362385,46.749636 41.0362385,44.2195183 L41.0362385,42.6666716 C41.0362385,42.5376462 41.0065202,42.4105035 40.9493866,42.2952112 L40.4413247,41.2689879 C40.2552291,40.8929866 40.1568627,40.4721309 40.1568627,40.0517183 L40.1568627,40.0022124 C40.1568627,38.0115651 41.7604432,36.3921569 43.7313897,36.3921569 L50.8235294,36.3921569 L50.8235294,39.8420657 C50.8235294,40.3995887 50.6930322,40.9578869 50.4461841,41.4566009 L50.0310056,42.2952112 C49.9738719,42.4106142 49.9441537,42.5376462 49.9441537,42.6666716 L49.9441537,44.442904 C49.9441537,45.6700305 49.4638362,46.8165299 48.5916981,47.6713099 Z" id="Shape" fill="#FFFFFF" fill-rule="nonzero"></path>
                            <path d="M47.042735,54.4133719 C46.6606742,54.4133719 46.3509301,54.7800398 46.3509301,55.2323145 L46.3509301,60.486104 C46.3509301,60.9383787 46.6606742,61.3050466 47.042735,61.3050466 C47.4247958,61.3050466 47.73454,60.9383787 47.73454,60.486104 L47.73454,55.2323145 C47.73454,54.780149 47.4247958,54.4133719 47.042735,54.4133719 Z" id="Shape" fill="#FFFFFF" fill-rule="nonzero"></path>
                            <path d="M4.15082956,55.7917068 C3.76876876,55.7917068 3.45902464,56.139704 3.45902464,56.5689488 L3.45902464,60.5278047 C3.45902464,60.9570495 3.76876876,61.3050466 4.15082956,61.3050466 C4.53289036,61.3050466 4.84263449,60.9570495 4.84263449,60.5278047 L4.84263449,56.5689488 C4.84263449,56.1398076 4.53289036,55.7917068 4.15082956,55.7917068 Z" id="Shape" fill="#FFFFFF" fill-rule="nonzero"></path>
                            <path d="M32.3986271,30.7182769 C29.4438908,27.5428661 23.2618192,28.1499398 20.7408248,28.5583124 C19.9467772,28.6869364 19.370538,29.4090888 19.370538,30.2754255 L19.370538,32.2095984 C19.370538,32.6732715 19.7203231,33.0491803 20.1517733,33.0491803 C20.5832236,33.0491803 20.9330087,32.6732715 20.9330087,32.2095984 L20.9330087,30.2753135 C20.9330087,30.2467677 20.9505083,30.2223639 20.9738412,30.2185578 C21.9808015,30.055455 23.9789933,29.8038043 26.049267,29.9521304 C28.4854713,30.1264276 30.2500216,30.7836524 31.2938562,31.9055578 C31.5989546,32.2334425 32.0936329,32.2334425 32.3986271,31.9055578 C32.7037256,31.577673 32.7037256,31.0460497 32.3986271,30.7182769 Z" id="Shape" fill="#FFFFFF" fill-rule="nonzero"></path>
                            <path d="M17.2951232,56.4808743 C16.9130624,56.4808743 16.6033183,56.8249823 16.6033183,57.2494299 L16.6033183,60.536491 C16.6033183,60.9609386 16.9130624,61.3050466 17.2951232,61.3050466 C17.677184,61.3050466 17.9869281,60.9609386 17.9869281,60.536491 L17.9869281,57.2494299 C17.9869281,56.8250848 17.677184,56.4808743 17.2951232,56.4808743 Z" id="Shape" fill="#FFFFFF" fill-rule="nonzero"></path>
                            <path d="M33.8984414,56.4808743 C33.5163806,56.4808743 33.2066365,56.8249823 33.2066365,57.2494299 L33.2066365,60.536491 C33.2066365,60.9609386 33.5163806,61.3050466 33.8984414,61.3050466 C34.2805022,61.3050466 34.5902464,60.9609386 34.5902464,60.536491 L34.5902464,57.2494299 C34.5902464,56.8250848 34.2805022,56.4808743 33.8984414,56.4808743 Z" id="Shape" fill="#FFFFFF" fill-rule="nonzero"></path>
                            <rect id="Rectangle-10" fill="#FFFFFF" x="0" y="62.745098" width="54.5882353" height="1.25490196"></rect>
                        </g>
                    </g>
                </g>
            </g>
        </g>
    </g>
</svg>