<?xml version="1.0" encoding="UTF-8"?>
<svg width="108px" height="28px" viewBox="0 0 108 28" version="1.1" xmlns="http://www.w3.org/2000/svg" xmlns:xlink="http://www.w3.org/1999/xlink">
    <!-- Generator: Sketch 48.2 (47327) - http://www.bohemiancoding.com/sketch -->
    <title>кинотеатр copy</title>
    <desc>Created with Sketch.</desc>
    <defs></defs>
    <g id="Контакты/01-Контакты-Copy" stroke="none" stroke-width="1" fill="none" fill-rule="evenodd" transform="translate(-405.000000, -423.000000)">
        <g id="маркеры" transform="translate(-137.000000, 232.000000)">
            <g id="кинотеатр-copy" transform="translate(542.000000, 192.000000)">
                <path d="M2.1646931,20.7266074 L1.12634438,20.7266074 L1.12634438,24.4871929 L0,24.4871929 L0,16.1150026 L1.12634438,16.1150026 L1.12634438,19.8065865 L2.00630092,19.8065865 L4.9922868,16.1150026 L6.3943509,16.1150026 L3.1326453,20.1745949 L6.63487235,24.4871929 L5.25627376,24.4871929 L2.1646931,20.7266074 Z M8.67637154,24.4871929 L7.5910918,24.4871929 L7.5910918,18.2655515 L8.67637154,18.2655515 L8.67637154,24.4871929 Z M7.50309614,16.615264 C7.50309614,16.4427592 7.55687073,16.2970907 7.66442151,16.1782541 C7.77197229,16.0594174 7.93134061,16 8.14253123,16 C8.35372186,16 8.51406789,16.0594174 8.62357414,16.1782541 C8.7330804,16.2970907 8.7878327,16.4427592 8.7878327,16.615264 C8.7878327,16.7877688 8.7330804,16.9315206 8.62357414,17.0465238 C8.51406789,17.161527 8.35372186,17.2190277 8.14253123,17.2190277 C7.93134061,17.2190277 7.77197229,17.161527 7.66442151,17.0465238 C7.55687073,16.9315206 7.50309614,16.7877688 7.50309614,16.615264 Z M15.5986964,24.4871929 L14.5134166,24.4871929 L14.5134166,21.8306325 L11.5978273,21.8306325 L11.5978273,24.4871929 L10.5066812,24.4871929 L10.5066812,18.2655515 L11.5978273,18.2655515 L11.5978273,20.9623628 L14.5134166,20.9623628 L14.5134166,18.2655515 L15.5986964,18.2655515 L15.5986964,24.4871929 Z M17.0535578,21.3188709 C17.0535578,20.709354 17.1757728,20.1611803 17.4202064,19.6743335 C17.66464,19.1874867 18.0048865,18.8118152 18.440956,18.5473079 C18.8770255,18.2828006 19.3746849,18.1505489 19.9339489,18.1505489 C20.7982661,18.1505489 21.4973357,18.4438026 22.0311787,19.0303189 C22.5650217,19.6168351 22.8319392,20.3969284 22.8319392,21.3706221 L22.8319392,21.4453738 C22.8319392,22.0510572 22.7136351,22.5944391 22.4770234,23.0755358 C22.2404116,23.5566325 21.9021206,23.9313456 21.4621401,24.1996864 C21.0221597,24.4680271 20.5166786,24.6021955 19.9456817,24.6021955 C19.0852754,24.6021955 18.3881613,24.3089418 17.8543183,23.7224255 C17.3204753,23.1359092 17.0535578,22.3596494 17.0535578,21.3936226 L17.0535578,21.3188709 Z M18.144704,21.4453738 C18.144704,22.1353929 18.3079832,22.6893166 18.6345464,23.1071615 C18.9611097,23.5250064 19.3981504,23.7339258 19.9456817,23.7339258 C20.4971239,23.7339258 20.9351423,23.5221314 21.2597501,23.0985363 C21.584358,22.6749413 21.7466594,22.0817254 21.7466594,21.3188709 C21.7466594,20.6365186 21.5814248,20.0835533 21.2509506,19.6599582 C20.9204763,19.2363631 20.4814802,19.0245687 19.9339489,19.0245687 C19.3981505,19.0245687 18.9659984,19.2334881 18.6374796,19.651333 C18.3089609,20.0691779 18.144704,20.6671855 18.144704,21.4453738 Z M28.7804454,19.1280711 L26.6509506,19.1280711 L26.6509506,24.4871929 L25.5656708,24.4871929 L25.5656708,19.1280711 L23.4772406,19.1280711 L23.4772406,18.2655515 L28.7804454,18.2655515 L28.7804454,19.1280711 Z M32.0010864,24.6021955 C31.1406801,24.6021955 30.4406328,24.3252336 29.9009234,23.7713016 C29.361214,23.2173696 29.0913634,22.4765685 29.0913634,21.5488761 L29.0913634,21.3533717 C29.0913634,20.7361879 29.2116229,20.1851392 29.4521456,19.7002091 C29.6926682,19.215279 30.0290038,18.8357742 30.4611624,18.5616832 C30.893321,18.2875923 31.3616488,18.1505489 31.8661597,18.1505489 C32.6913675,18.1505489 33.3327517,18.4169689 33.7903313,18.949817 C34.247911,19.4826651 34.4766974,20.2455082 34.4766974,21.2383691 L34.4766974,21.6811291 L30.1766431,21.6811291 C30.1922869,22.2944795 30.3751205,22.7899441 30.7251494,23.1675379 C31.0751783,23.5451317 31.5200408,23.7339258 32.0597501,23.7339258 C32.443022,23.7339258 32.767625,23.6572581 33.0335687,23.5039205 C33.2995125,23.350583 33.5322098,23.1474137 33.7316676,22.8944067 L34.3945682,23.4004182 C33.8626807,24.2016071 33.0648614,24.6021955 32.0010864,24.6021955 Z M31.8661597,19.0245687 C31.4281347,19.0245687 31.0605121,19.1807791 30.7632808,19.4932044 C30.4660496,19.8056297 30.2822383,20.2435936 30.2118414,20.8071093 L33.3914177,20.8071093 L33.3914177,20.7266074 C33.3601302,20.1860924 33.2115168,19.7672954 32.9455731,19.4702039 C32.6796293,19.1731123 32.3198284,19.0245687 31.8661597,19.0245687 Z M39.6508419,24.4871929 C39.5882669,24.3645228 39.5374255,24.14602 39.4983161,23.831678 C38.9938052,24.3453589 38.3915298,24.6021955 37.691472,24.6021955 C37.065722,24.6021955 36.5524192,24.428735 36.1515481,24.0818087 C35.750677,23.7348824 35.5502444,23.2950018 35.5502444,22.7621537 C35.5502444,22.1143024 35.8015184,21.611171 36.3040739,21.2527444 C36.8066293,20.8943178 37.5135207,20.7151072 38.4247691,20.7151072 L39.480717,20.7151072 L39.480717,20.2263461 C39.480717,19.8545024 39.3673015,19.5583736 39.1404671,19.3379509 C38.9136328,19.1175281 38.5792526,19.0073183 38.1373167,19.0073183 C37.7501339,19.0073183 37.4255309,19.1031529 37.1634981,19.2948249 C36.9014653,19.4864969 36.7704508,19.7184165 36.7704508,19.9905907 L35.6793047,19.9905907 C35.6793047,19.6800821 35.7917425,19.3801199 36.0166214,19.0906952 C36.2415003,18.8012706 36.5465489,18.572226 36.9317762,18.4035546 C37.3170036,18.2348833 37.7403562,18.1505489 38.2018468,18.1505489 C38.9331921,18.1505489 39.5061359,18.3297595 39.9206953,18.6881861 C40.3352547,19.0466127 40.550353,19.5401606 40.5659967,20.1688447 L40.5659967,23.0324098 C40.5659967,23.6035923 40.6403034,24.0578481 40.7889191,24.3951908 L40.7889191,24.4871929 L39.6508419,24.4871929 Z M37.8498642,23.6764245 C38.1901158,23.6764245 38.5127633,23.5901734 38.8178164,23.4176686 C39.1228695,23.2451638 39.3438342,23.0209109 39.480717,22.7449033 L39.480717,21.4683743 L38.6300923,21.4683743 C37.3003736,21.4683743 36.6355242,21.8497958 36.6355242,22.6126503 C36.6355242,22.9461595 36.7489397,23.2068295 36.975774,23.3946681 C37.2026084,23.5825066 37.4939689,23.6764245 37.8498642,23.6764245 Z M46.8899511,19.1280711 L44.7604563,19.1280711 L44.7604563,24.4871929 L43.6751765,24.4871929 L43.6751765,19.1280711 L41.5867463,19.1280711 L41.5867463,18.2655515 L46.8899511,18.2655515 L46.8899511,19.1280711 Z M53.3077675,21.4453738 C53.3077675,22.3922333 53.0868029,23.1550764 52.6448669,23.7339258 C52.202931,24.3127752 51.6045665,24.6021955 50.8497556,24.6021955 C50.0793009,24.6021955 49.4731146,24.3626091 49.0311787,23.8834292 L49.0311787,26.8792473 L47.945899,26.8792473 L47.945899,18.2655515 L48.9373167,18.2655515 L48.9901141,18.9555672 C49.43205,18.4188856 50.046058,18.1505489 50.8321564,18.1505489 C51.5947893,18.1505489 52.1980423,18.4323025 52.6419337,18.9958181 C53.0858251,19.5593337 53.3077675,20.3432604 53.3077675,21.3476215 L53.3077675,21.4453738 Z M52.2224878,21.324621 C52.2224878,20.6231016 52.0699635,20.0691778 51.7649104,19.6628332 C51.4598572,19.2564886 51.0413932,19.0533194 50.5095057,19.0533194 C49.8524682,19.0533194 49.3596975,19.3389064 49.0311787,19.9100889 L49.0311787,22.8829064 C49.3557865,23.4502555 49.8524681,23.7339258 50.5212385,23.7339258 C51.0413931,23.7339258 51.4549686,23.5317149 51.7619772,23.127287 C52.0689858,22.7228591 52.2224878,22.1219765 52.2224878,21.324621 Z M58.481912,21.3361213 L59.9954373,23.6189232 L59.1682781,23.6189232 L57.4376969,21.3878725 L57.4376969,21.27862 L59.1682781,19.0418191 L59.9954373,19.0418191 L58.481912,21.3361213 Z M60.4178164,21.3361213 L61.9313417,23.6189232 L61.1041825,23.6189232 L59.3736013,21.3878725 L59.3736013,21.27862 L61.1041825,19.0418191 L61.9313417,19.0418191 L60.4178164,21.3361213 Z M70.0328083,24.4871929 L68.9005975,24.4871929 L68.9005975,20.6173549 L64.5946768,20.6173549 L64.5946768,24.4871929 L63.4683324,24.4871929 L63.4683324,16.1150026 L64.5946768,16.1150026 L64.5946768,19.7145844 L68.9005975,19.7145844 L68.9005975,16.1150026 L70.0328083,16.1150026 L70.0328083,24.4871929 Z M74.4971211,24.6021955 C73.6367149,24.6021955 72.9366676,24.3252336 72.3969582,23.7713016 C71.8572488,23.2173696 71.5873982,22.4765685 71.5873982,21.5488761 L71.5873982,21.3533717 C71.5873982,20.7361879 71.7076577,20.1851392 71.9481803,19.7002091 C72.188703,19.215279 72.5250386,18.8357742 72.9571972,18.5616832 C73.3893558,18.2875923 73.8576835,18.1505489 74.3621945,18.1505489 C75.1874023,18.1505489 75.8287864,18.4169689 76.2863661,18.949817 C76.7439458,19.4826651 76.9727322,20.2455082 76.9727322,21.2383691 L76.9727322,21.6811291 L72.6726779,21.6811291 C72.6883216,22.2944795 72.8711552,22.7899441 73.2211841,23.1675379 C73.571213,23.5451317 74.0160755,23.7339258 74.5557849,23.7339258 C74.9390568,23.7339258 75.2636597,23.6572581 75.5296035,23.5039205 C75.7955472,23.350583 76.0282445,23.1474137 76.2277023,22.8944067 L76.8906029,23.4004182 C76.3587154,24.2016071 75.5608961,24.6021955 74.4971211,24.6021955 Z M74.3621945,19.0245687 C73.9241695,19.0245687 73.5565468,19.1807791 73.2593156,19.4932044 C72.9620843,19.8056297 72.778273,20.2435936 72.7078762,20.8071093 L75.8874525,20.8071093 L75.8874525,20.7266074 C75.856165,20.1860924 75.7075516,19.7672954 75.4416078,19.4702039 C75.1756641,19.1731123 74.8158632,19.0245687 74.3621945,19.0245687 Z M83.4198805,24.4871929 L82.3346008,24.4871929 L82.3346008,19.1453215 L79.413145,19.1453215 L79.413145,24.4871929 L78.3219989,24.4871929 L78.3219989,18.2655515 L83.4198805,18.2655515 L83.4198805,24.4871929 Z M89.8787615,19.1280711 L87.7492667,19.1280711 L87.7492667,24.4871929 L86.663987,24.4871929 L86.663987,19.1280711 L84.5755568,19.1280711 L84.5755568,18.2655515 L89.8787615,18.2655515 L89.8787615,19.1280711 Z M93.075937,22.9289075 L94.554264,18.2655515 L95.7158066,18.2655515 L93.1639326,25.4474647 C92.768928,26.4824934 92.1412319,27 91.2808256,27 L91.0755024,26.9827496 L90.6707224,26.9079979 L90.6707224,26.0454783 L90.9640413,26.0684788 C91.3316694,26.0684788 91.6181413,25.9956446 91.8234655,25.8499739 C92.0287897,25.7043032 92.1979352,25.4378831 92.3309071,25.0507057 L92.5714286,24.4181913 L90.3070071,18.2655515 L91.4920152,18.2655515 L93.075937,22.9289075 Z M101.869636,24.4871929 L100.784356,24.4871929 L100.784356,21.8306325 L97.868767,21.8306325 L97.868767,24.4871929 L96.7776209,24.4871929 L96.7776209,18.2655515 L97.868767,18.2655515 L97.868767,20.9623628 L100.784356,20.9623628 L100.784356,18.2655515 L101.869636,18.2655515 L101.869636,24.4871929 Z M104.222053,19.0303189 L105.952634,21.2671197 L105.952634,21.3763722 L104.222053,23.613173 L103.389028,23.613173 L104.902553,21.324621 L103.389028,19.0303189 L104.222053,19.0303189 Z M106.269419,19.0303189 L108,21.2671197 L108,21.3763722 L106.269419,23.613173 L105.436393,23.613173 L106.949919,21.324621 L105.436393,19.0303189 L106.269419,19.0303189 Z" id="Кінотеатр-«Нептун»" fill="#303030"></path>
                <g id="marker" transform="translate(49.000000, 0.000000)">
                    <circle id="Oval-2" stroke="#303030" stroke-width="2" cx="5" cy="5" r="5"></circle>
                    <circle id="Oval-3" fill="#303030" cx="5" cy="5" r="2"></circle>
                </g>
            </g>
        </g>
    </g>
</svg>