<?xml version="1.0" encoding="UTF-8"?>
<svg width="112px" height="28px" viewBox="0 0 112 28" version="1.1" xmlns="http://www.w3.org/2000/svg" xmlns:xlink="http://www.w3.org/1999/xlink">
    <!-- Generator: Sketch 48.2 (47327) - http://www.bohemiancoding.com/sketch -->
    <title>кинотеатр</title>
    <desc>Created with Sketch.</desc>
    <defs></defs>
    <g id="Контакты/01-Контакты-Copy" stroke="none" stroke-width="1" fill="none" fill-rule="evenodd" transform="translate(-281.000000, -423.000000)">
        <g id="маркеры" transform="translate(-137.000000, 232.000000)">
            <g id="кинотеатр" transform="translate(418.000000, 192.000000)">
                <path d="M2.16694631,20.6603275 L1.12751678,20.6603275 L1.12751678,24.4606445 L0,24.4606445 L0,16 L1.12751678,16 L1.12751678,19.7305864 L2.00838926,19.7305864 L4.99748322,16 L6.40100671,16 L3.13590604,20.1024828 L6.64177852,24.4606445 L5.26174497,24.4606445 L2.16694631,20.6603275 Z M11.4807047,18.1732699 L12.5671141,18.1732699 L12.5671141,24.4606445 L11.4807047,24.4606445 L11.4807047,19.8758584 L8.55033557,24.4606445 L7.46392617,24.4606445 L7.46392617,18.1732699 L8.55033557,18.1732699 L8.55033557,22.7638669 L11.4807047,18.1732699 Z M19.5025168,24.4606445 L18.4161074,24.4606445 L18.4161074,21.7760169 L15.4974832,21.7760169 L15.4974832,24.4606445 L14.4052013,24.4606445 L14.4052013,18.1732699 L15.4974832,18.1732699 L15.4974832,20.8985737 L18.4161074,20.8985737 L18.4161074,18.1732699 L19.5025168,18.1732699 L19.5025168,24.4606445 Z M20.9588926,21.2588484 C20.9588926,20.6428918 21.0812348,20.0889266 21.3259228,19.5969361 C21.5706108,19.1049456 21.9112115,18.7253051 22.3477349,18.4580032 C22.7842583,18.1907013 23.2824357,18.0570523 23.8422819,18.0570523 C24.7074987,18.0570523 25.407296,18.3534043 25.9416946,18.9461173 C26.4760933,19.5388302 26.7432886,20.3271654 26.7432886,21.3111463 L26.7432886,21.3866878 C26.7432886,21.9987704 26.6248614,22.5478933 26.3880034,23.0340729 C26.1511453,23.5202525 25.8125022,23.8989245 25.3720638,24.1701004 C24.9316253,24.4412762 24.4256181,24.5768621 23.8540268,24.5768621 C22.992725,24.5768621 22.2948852,24.2805101 21.7604866,23.6877971 C21.2260879,23.0950842 20.9588926,22.3106229 20.9588926,21.3343899 L20.9588926,21.2588484 Z M22.0511745,21.3866878 C22.0511745,22.0839971 22.2146236,22.6437732 22.5415268,23.0660328 C22.86843,23.4882923 23.3059257,23.6994189 23.8540268,23.6994189 C24.406043,23.6994189 24.8445174,23.4853869 25.1694631,23.0573164 C25.4944088,22.629246 25.6568792,22.0297626 25.6568792,21.2588484 C25.6568792,20.5692869 25.4914726,20.0104793 25.1606544,19.5824089 C24.8298362,19.1543384 24.3903831,18.9403064 23.8422819,18.9403064 C23.3059257,18.9403064 22.8733238,19.151433 22.5444631,19.5736926 C22.2156024,19.9959521 22.0511745,20.6002778 22.0511745,21.3866878 Z M32.6979866,19.0449023 L30.5662752,19.0449023 L30.5662752,24.4606445 L29.4798658,24.4606445 L29.4798658,19.0449023 L27.3892617,19.0449023 L27.3892617,18.1732699 L32.6979866,18.1732699 L32.6979866,19.0449023 Z M35.9219799,24.5768621 C35.060678,24.5768621 34.359902,24.2969741 33.8196309,23.7371896 C33.2793597,23.1774052 33.0092282,22.4287774 33.0092282,21.4912837 L33.0092282,21.2937137 C33.0092282,20.6700092 33.1296129,20.1131386 33.3703859,19.6230851 C33.6111589,19.1330315 33.9478446,18.7495171 34.380453,18.4725304 C34.8130614,18.1955436 35.2818767,18.0570523 35.7869128,18.0570523 C36.6129795,18.0570523 37.2550313,18.3262871 37.7130872,18.8647649 C38.1711432,19.4032427 38.4001678,20.1741454 38.4001678,21.177496 L38.4001678,21.624934 L34.0956376,21.624934 C34.1112976,22.2447645 34.2943215,22.7454638 34.6447148,23.127047 C34.995108,23.5086302 35.4404335,23.6994189 35.9807047,23.6994189 C36.3643755,23.6994189 36.6893163,23.6219413 36.9555369,23.4669836 C37.2217575,23.312026 37.454697,23.1067102 37.6543624,22.8510301 L38.317953,23.3623877 C37.7855119,24.1720414 36.9868621,24.5768621 35.9219799,24.5768621 Z M35.7869128,18.9403064 C35.3484318,18.9403064 34.9804265,19.0981671 34.6828859,19.4138933 C34.3853453,19.7296195 34.2013426,20.1722106 34.1308725,20.7416799 L37.3137584,20.7416799 L37.3137584,20.6603275 C37.2824383,20.1141019 37.1336702,19.6908802 36.8674497,19.3906498 C36.6012291,19.0904193 36.2410537,18.9403064 35.7869128,18.9403064 Z M43.579698,24.4606445 C43.5170579,24.3366784 43.4661635,24.1158671 43.4270134,23.7982039 C42.9219773,24.317312 42.3190751,24.5768621 41.6182886,24.5768621 C40.9918872,24.5768621 40.4780501,24.4015689 40.0767617,24.0509773 C39.6754734,23.7003856 39.4748322,23.2558576 39.4748322,22.7173798 C39.4748322,22.0626838 39.7263677,21.5542367 40.2294463,21.1920232 C40.7325249,20.8298098 41.440152,20.6487058 42.352349,20.6487058 L43.409396,20.6487058 L43.409396,20.1547808 C43.409396,19.7790085 43.2958624,19.4797511 43.0687919,19.2569995 C42.8417215,19.0342479 42.5069933,18.9228737 42.0645973,18.9228737 C41.6770115,18.9228737 41.3520707,19.0197208 41.0897651,19.2134179 C40.8274595,19.4071149 40.6963087,19.6414848 40.6963087,19.9165346 L39.6040268,19.9165346 C39.6040268,19.6027454 39.7165816,19.2996141 39.9416946,19.0071315 C40.1668076,18.714649 40.4721737,18.4831845 40.857802,18.3127311 C41.2434303,18.1422777 41.6672236,18.0570523 42.1291946,18.0570523 C42.8613012,18.0570523 43.4348413,18.2381563 43.8498322,18.6003698 C44.2648231,18.9625833 44.4801453,19.4613457 44.4958054,20.0966719 L44.4958054,22.9904913 C44.4958054,23.5677085 44.5701894,24.0267636 44.7189597,24.3676704 L44.7189597,24.4606445 L43.579698,24.4606445 Z M41.7768456,23.6413101 C42.1174514,23.6413101 42.4404347,23.5541477 42.7458054,23.3798204 C43.051176,23.2054931 43.2723707,22.9788709 43.409396,22.6999472 L43.409396,21.4099313 L42.5578859,21.4099313 C41.2267831,21.4099313 40.5612416,21.7953827 40.5612416,22.5662969 C40.5612416,22.9033297 40.6747752,23.1667538 40.9018456,23.3565769 C41.1289161,23.5464 41.4205799,23.6413101 41.7768456,23.6413101 Z M50.8263423,19.0449023 L48.6946309,19.0449023 L48.6946309,24.4606445 L47.6082215,24.4606445 L47.6082215,19.0449023 L45.5176174,19.0449023 L45.5176174,18.1732699 L50.8263423,18.1732699 L50.8263423,19.0449023 Z M57.2508389,21.3866878 C57.2508389,22.3435512 57.0296443,23.1144538 56.5872483,23.6994189 C56.1448524,24.284384 55.5458651,24.5768621 54.7902685,24.5768621 C54.0190118,24.5768621 53.4121946,24.3347445 52.9697987,23.8505018 L52.9697987,26.8779715 L51.8833893,26.8779715 L51.8833893,18.1732699 L52.8758389,18.1732699 L52.9286913,18.8705758 C53.3710872,18.3282241 53.9857343,18.0570523 54.772651,18.0570523 C55.5360776,18.0570523 56.1399586,18.3417827 56.5843121,18.911252 C57.0286655,19.4807213 57.2508389,20.2729303 57.2508389,21.2879028 L57.2508389,21.3866878 Z M56.1644295,21.2646593 C56.1644295,20.5557281 56.0117465,19.995952 55.7063758,19.5853143 C55.4010052,19.1746766 54.9821056,18.9693608 54.4496644,18.9693608 C53.791943,18.9693608 53.2986594,19.2579651 52.9697987,19.8351823 L52.9697987,22.8394083 C53.2947444,23.4127516 53.791943,23.6994189 54.4614094,23.6994189 C54.9821055,23.6994189 55.3961114,23.4950716 55.7034396,23.0863708 C56.0107678,22.6776701 56.1644295,22.070439 56.1644295,21.2646593 Z M62.4303691,21.276281 L63.9454698,23.5832013 L63.1174497,23.5832013 L61.3850671,21.328579 L61.3850671,21.2181722 L63.1174497,18.957739 L63.9454698,18.957739 L62.4303691,21.276281 Z M64.3682886,21.276281 L65.8833893,23.5832013 L65.0553691,23.5832013 L63.3229866,21.328579 L63.3229866,21.2181722 L65.0553691,18.957739 L65.8833893,18.957739 L64.3682886,21.276281 Z M73.9932886,24.4606445 L72.8598993,24.4606445 L72.8598993,20.5499208 L68.5494966,20.5499208 L68.5494966,24.4606445 L67.4219799,24.4606445 L67.4219799,16 L68.5494966,16 L68.5494966,19.6376123 L72.8598993,19.6376123 L72.8598993,16 L73.9932886,16 L73.9932886,24.4606445 Z M78.4622483,24.5768621 C77.6009465,24.5768621 76.9001705,24.2969741 76.3598993,23.7371896 C75.8196282,23.1774052 75.5494966,22.4287774 75.5494966,21.4912837 L75.5494966,21.2937137 C75.5494966,20.6700092 75.6698813,20.1131386 75.9106544,19.6230851 C76.1514274,19.1330315 76.488113,18.7495171 76.9207215,18.4725304 C77.3533299,18.1955436 77.8221451,18.0570523 78.3271812,18.0570523 C79.153248,18.0570523 79.7952997,18.3262871 80.2533557,18.8647649 C80.7114117,19.4032427 80.9404362,20.1741454 80.9404362,21.177496 L80.9404362,21.624934 L76.635906,21.624934 C76.6515661,22.2447645 76.83459,22.7454638 77.1849832,23.127047 C77.5353765,23.5086302 77.980702,23.6994189 78.5209732,23.6994189 C78.904644,23.6994189 79.2295848,23.6219413 79.4958054,23.4669836 C79.7620259,23.312026 79.9949654,23.1067102 80.1946309,22.8510301 L80.8582215,23.3623877 C80.3257803,24.1720414 79.5271306,24.5768621 78.4622483,24.5768621 Z M78.3271812,18.9403064 C77.8887003,18.9403064 77.520695,19.0981671 77.2231544,19.4138933 C76.9256137,19.7296195 76.7416111,20.1722106 76.6711409,20.7416799 L79.8540268,20.7416799 L79.8540268,20.6603275 C79.8227068,20.1141019 79.6739387,19.6908802 79.4077181,19.3906498 C79.1414976,19.0904193 78.7813222,18.9403064 78.3271812,18.9403064 Z M87.3942953,24.4606445 L86.3078859,24.4606445 L86.3078859,19.0623349 L83.3833893,19.0623349 L83.3833893,24.4606445 L82.2911074,24.4606445 L82.2911074,18.1732699 L87.3942953,18.1732699 L87.3942953,24.4606445 Z M93.8598993,19.0449023 L91.7281879,19.0449023 L91.7281879,24.4606445 L90.6417785,24.4606445 L90.6417785,19.0449023 L88.5511745,19.0449023 L88.5511745,18.1732699 L93.8598993,18.1732699 L93.8598993,19.0449023 Z M97.0604027,22.8858954 L98.5402685,18.1732699 L99.7030201,18.1732699 L97.1484899,25.4310618 C96.7530741,26.4770258 96.1247247,27 95.2634228,27 L95.0578859,26.9825674 L94.6526846,26.9070259 L94.6526846,26.0353936 L94.9463087,26.0586371 C95.3143195,26.0586371 95.6010896,25.9850333 95.8066275,25.8378236 C96.0121655,25.6906138 96.181487,25.421379 96.3145973,25.0301109 L96.5553691,24.3909139 L94.2885906,18.1732699 L95.4748322,18.1732699 L97.0604027,22.8858954 Z M105.863255,24.4606445 L104.776846,24.4606445 L104.776846,21.7760169 L101.858221,21.7760169 L101.858221,24.4606445 L100.76594,24.4606445 L100.76594,18.1732699 L101.858221,18.1732699 L101.858221,20.8985737 L104.776846,20.8985737 L104.776846,18.1732699 L105.863255,18.1732699 L105.863255,24.4606445 Z M108.218121,18.9461173 L109.950503,21.2065504 L109.950503,21.3169572 L108.218121,23.5773904 L107.384228,23.5773904 L108.899329,21.2646593 L107.384228,18.9461173 L108.218121,18.9461173 Z M110.267617,18.9461173 L112,21.2065504 L112,21.3169572 L110.267617,23.5773904 L109.433725,23.5773904 L110.948826,21.2646593 L109.433725,18.9461173 L110.267617,18.9461173 Z" id="Кинотеатр-«Нептун»" fill="#303030"></path>
                <g id="marker" transform="translate(51.000000, 0.000000)">
                    <circle id="Oval-2" stroke="#303030" stroke-width="2" cx="5" cy="5" r="5"></circle>
                    <circle id="Oval-3" fill="#303030" cx="5" cy="5" r="2"></circle>
                </g>
            </g>
        </g>
    </g>
</svg>