<?xml version="1.0" encoding="UTF-8" standalone="no"?>
<svg width="56px" height="67px" viewBox="0 0 56 67" version="1.1" xmlns="http://www.w3.org/2000/svg" xmlns:xlink="http://www.w3.org/1999/xlink">
    <!-- Generator: Sketch 48.1 (47250) - http://www.bohemiancoding.com/sketch -->
    <title>1 pin</title>
    <desc>Created with Sketch.</desc>
    <defs>
        <filter x="-58.3%" y="-35.0%" width="233.3%" height="180.0%" filterUnits="objectBoundingBox" id="filter-1">
            <feOffset dx="2" dy="2" in="SourceAlpha" result="shadowOffsetOuter1"></feOffset>
            <feGaussianBlur stdDeviation="5" in="shadowOffsetOuter1" result="shadowBlurOuter1"></feGaussianBlur>
            <feColorMatrix values="0 0 0 0 0.219607843   0 0 0 0 0.4   0 0 0 0 0.690196078  0 0 0 0.474439538 0" type="matrix" in="shadowBlurOuter1" result="shadowMatrixOuter1"></feColorMatrix>
            <feMerge>
                <feMergeNode in="shadowMatrixOuter1"></feMergeNode>
                <feMergeNode in="SourceGraphic"></feMergeNode>
            </feMerge>
        </filter>
    </defs>
    <g id="Контакты/01-Контакты-Copy" stroke="none" stroke-width="1" fill="none" fill-rule="evenodd" transform="translate(-719.000000, -94.000000)">
        <g id="общая-чист">
            <g id="карта">
                <g id="1-pin" transform="translate(719.000000, 102.000000)">
                    <g id="pin-map-red" transform="translate(16.000000, 0.000000)" fill="#F05244" fill-rule="nonzero">
                        <g id="icon" filter="url(#filter-1)">
                            <path d="M16.6215754,31.2046304 C16.4045166,31.171506 16.208769,31.3662974 16.1835112,31.6377199 C16.1582535,31.9091424 16.3129572,32.1548564 16.5292267,32.1864976 C20.6793914,32.7985578 22.8898396,34.4478573 22.8898396,35.4035216 C22.8898396,36.7453078 18.6860021,38.6170848 11.8395722,38.6170848 C4.99314225,38.6170848 0.789304813,36.7453078 0.789304813,35.4035216 C0.789304813,34.4478573 2.99975294,32.7985578 7.14991765,32.1864976 C7.36618717,32.1548564 7.52089091,31.908648 7.49563316,31.6377199 C7.46998075,31.3662974 7.27423316,31.1705172 7.05756898,31.2046304 C2.9022738,31.8176794 0,33.5441045 0,35.4035216 C0,37.4918433 4.06689305,39.6058735 11.8395722,39.6058735 C19.6122513,39.6058735 23.6791444,37.4918433 23.6791444,35.4035216 C23.6791444,33.5441045 20.7768706,31.8176794 16.6215754,31.2046304 Z" id="Shape"></path>
                            <path d="M19.5928835,3.62498043 C17.5221994,1.28749082 14.76891,0 11.8406815,0 C8.91188129,0 6.15916355,1.28749082 4.08847952,3.62498043 C0.256399148,7.95017517 -0.219823879,16.0881498 3.05713937,21.0186911 L11.8406815,35.3379123 L20.6110746,21.0386972 C23.9011868,16.0881498 23.4249638,7.95017517 19.5928835,3.62498043 Z M19.6837832,20.2842727 L11.8406815,33.0701215 L3.98500248,20.2642666 C1.01275337,15.7906393 1.43866712,8.44129322 4.8974298,4.53751779 C6.75201263,2.44397381 9.21773881,1.29071762 11.8406815,1.29071762 C14.4636242,1.29071762 16.9293503,2.44397381 18.7845049,4.53751779 C22.2432675,8.44129322 22.6691813,15.7906393 19.6837832,20.2842727 Z" id="Shape"></path>
                        </g>
                        <g id="Logo-" transform="translate(3.465241, 6.489235)">
                            <path d="M10.6882916,13.0797616 C10.235116,13.1420192 9.76631374,13.1816377 9.29230254,13.198617 C9.8261195,12.6051826 10.3123153,11.9632944 10.7455896,11.2799501 L10.8185144,11.2799501 C11.2039741,11.2799501 11.6050605,11.2799501 12.000938,11.2403316 C11.6293141,11.8729236 11.2240677,12.4814393 10.787261,13.0627822 L10.6882916,13.0797616 Z M11.4592109,10.0630965 C11.2508543,10.4592814 11.026871,10.838487 10.7976788,11.1950534 C11.2143919,11.1950534 11.6258962,11.1950534 12.0269826,11.1497751 C12.1693596,10.908291 12.308264,10.6592605 12.4436957,10.4026836 L12.6885147,9.92726169 C12.2978461,9.9951791 11.8602973,10.0347976 11.4592109,10.0630965 Z M4.77617378,8.52363518 L4.93244121,8.62551129 C4.98453036,8.4783569 5.04182842,8.33120251 5.10433539,8.18404812 L5.10433539,8.14442963 C5.17205128,7.9746361 5.24497608,7.80484257 5.31790088,7.63504904 C5.39082568,7.47091529 5.46895939,7.30678155 5.54709311,7.1426478 L5.59397334,7.04077169 C5.67210705,6.87663794 5.75544968,6.7125042 5.84400123,6.55403024 L6.0158954,6.23142253 L6.07319346,6.12954641 L6.19299849,5.92013439 L6.26071438,5.80693871 L6.37531049,5.61450604 L6.44823529,5.50131035 L6.56804032,5.30887769 L6.65138295,5.20134178 L6.80244147,4.9806102 L6.84411279,4.91835257 L7.03684262,4.64668292 L7.09934959,4.56178616 L7.23478136,4.38067306 L7.31291508,4.27879694 L7.43792902,4.12032298 L7.51606274,4.01844686 L7.63586777,3.86563269 L7.71400148,3.76941635 L7.84943326,3.61660218 L7.91714914,3.5373652 L8.11508789,3.32229339 L8.17238595,3.26003576 L8.31823555,3.10722159 L8.39636927,3.02798461 L8.52138321,2.90912914 L8.60993475,2.82989216 L8.7349487,2.71669647 L8.81829133,2.63745949 L8.94330527,2.52992359 L9.02143899,2.46200618 L9.18812425,2.32617135 L9.25584014,2.26391373 L9.41731648,2.13939847 L9.4954502,2.08280063 L9.61525523,1.99790386 L9.69859786,1.94130602 L9.81319397,1.86772882 L9.8965366,1.81679076 L10.0163416,1.74887335 L10.0944753,1.70359508 L10.235116,1.63567767 L10.2872052,1.63567767 L10.4695172,1.55644069 L10.5320242,1.55644069 L10.6570381,1.51116241 L10.7299629,1.51116241 L10.8185144,1.43192543 L10.8914392,1.43192543 L11.0008264,1.43192543 L11.0685423,1.43192543 L11.1935563,1.43192543 L11.4071218,1.43192543 L11.6102694,1.43192543 L11.6675675,1.43192543 L11.8029993,1.43192543 L11.8707151,1.43192543 L12.000938,1.47720371 L12.0582361,1.47720371 L12.2301302,1.56776026 C12.3751957,1.65905908 12.5054263,1.77570345 12.6155899,1.9130071 C12.9368655,2.35433058 13.1275525,2.89105748 13.1625259,3.45246843 C13.1625259,3.53170541 13.1625259,3.61471558 13.1625259,3.70149894 C13.1968009,4.16537713 13.1880755,4.63182408 13.1364813,5.09380588 C13.1364813,5.19190881 13.1225909,5.29189833 13.09481,5.39377445 C12.9047814,6.53098587 12.5790828,7.6364173 12.1259519,8.68210914 L11.9748934,9.02735598 C11.8325164,9.34807709 11.676249,9.6687982 11.5060911,9.98951931 C11.9071775,9.98951931 12.303055,9.9216019 12.6885147,9.86500406 L12.7458128,9.86500406 C13.2275053,8.8808277 13.6284073,7.85242574 13.9438631,6.79174118 L13.9438631,6.76344226 L14.0376235,6.44083455 L14.0376235,6.37857692 L14.1157572,6.08426814 L14.1157572,5.99937137 L14.1782642,5.72770173 L14.1782642,5.62582561 L14.2303534,5.37113531 L14.2303534,5.25793963 L14.2720247,5.02022869 L14.2720247,4.89571343 L14.3084871,4.66932206 L14.4647545,4.52782745 C14.4647545,4.45425026 14.4647545,4.38633284 14.4907991,4.31275565 L14.4907991,4.18258061 C14.4907991,4.1146632 14.4907991,4.04674578 14.4907991,3.97882837 L14.4907991,3.84299355 C14.4907991,3.78073592 14.4907991,3.71281851 14.4907991,3.65056088 C14.4907991,3.58830326 14.4907991,3.56000433 14.4907991,3.51472606 C14.4907991,3.46944778 14.4907991,3.39587059 14.4907991,3.33361296 C14.4907991,3.27135533 14.4907991,3.24305641 14.4907991,3.19777814 C14.4907991,3.15249986 14.4907991,3.08458245 14.4907991,3.02798461 C14.4907991,2.97138676 14.4907991,2.93742806 14.4907991,2.89214978 C14.4907991,2.84687151 14.4907991,2.78461388 14.4907991,2.73367582 C14.4907991,2.68273776 14.4907991,2.64311927 14.4907991,2.597841 C14.4907991,2.55256273 14.4907991,2.49596488 14.4907991,2.44502682 L14.4907991,2.31485178 L14.4907991,2.17335718 L14.4907991,2.04318214 L14.4647545,1.9130071 L14.433501,1.78849184 L14.3553673,1.69793529 L14.3189049,1.57907982 L14.2824425,1.46588414 L14.2355623,1.35268845 L14.193891,1.25081233 L14.1418018,1.13195686 L14.0949216,1.04140031 L14.0324146,0.939524196 L13.9803255,0.854627431 L13.9074007,0.758411098 L13.8553115,0.684833902 L13.7719689,0.565978431 L13.7198797,0.515040373 L13.6209104,0.424483824 L13.5688212,0.384865333 L13.4229716,0.266009863 C13.3574584,0.225447135 13.2896011,0.189526985 13.219824,0.158473961 L13.1521081,0.158473961 L12.9854228,0.0792369804 L12.9020802,0.0565978431 L12.7458128,0 L12.6780969,0 L12.4384868,0 L12.2301302,0 L12.120743,0 L11.9592667,0 L11.8602973,0.0679174118 L11.7040299,0.107535902 L11.6050605,0.135834824 L11.4435842,0.192432667 L11.3394059,0.226391373 L11.1675117,0.299968569 L11.089378,0.339587059 L10.8601858,0.452782745 L10.8185144,0.475421882 L10.542442,0.633895843 L10.4747261,0.673514333 L10.2663695,0.809349157 L10.1726091,0.871606784 L9.98508815,1.00744161 L9.88611877,1.0810188 L9.69859786,1.2281732 L9.59962848,1.30741018 L9.40689865,1.47154392 L9.31834711,1.5507809 L9.08915488,1.76585271 L9.03706573,1.81679076 L8.7349487,2.10543976 L8.45887624,2.39974855 L8.38595144,2.47898553 L8.17759486,2.71669647 L8.09946115,2.82989216 L7.90673132,3.06194331 L7.80255303,3.19211835 C7.12195179,4.06460571 6.50540765,4.99377548 5.95859734,5.97107245 L5.80753883,6.2427421 C5.71377837,6.41819541 5.62522682,6.59930851 5.53667528,6.77476182 L5.47416831,6.89927708 C5.39082568,7.06907061 5.31269196,7.23320435 5.23976716,7.3973381 C5.15295192,7.58977077 5.06960929,7.77843024 4.98973927,7.96331653 C4.92202339,8.13311006 4.8543075,8.2972438 4.78659161,8.46703733 L4.77617378,8.52363518 Z M4.1302684,12.4515255 L3.78648006,12.2987113 C3.73771233,12.7021059 3.71508468,13.1087246 3.71876417,13.5155649 L4.2396556,13.7023378 C4.15187221,13.2925925 4.1150816,12.8719022 4.1302684,12.4515255 Z M9.65692654,14.3758522 C10.0238153,13.9866435 10.3715591,13.5766832 10.6987094,13.147679 C10.2246982,13.2155964 9.72464243,13.2552149 9.21416882,13.2721942 C8.84627412,13.672983 8.44717392,14.038457 8.02132743,14.3645326 C8.32865338,14.3645326 8.64639715,14.3645326 8.96414093,14.3645326 L9.65692654,14.3758522 Z M8.96414093,14.4777283 C8.66723281,14.4777283 8.35990686,14.4777283 8.04216309,14.4777283 L7.91714914,14.4777283 C6.83890387,15.2587785 5.8335834,15.5134688 5.09391756,15.0437067 C4.68724656,14.7662933 4.39583602,14.3278766 4.28132692,13.8211933 L4.23444669,13.8211933 L4.19277538,13.8211933 L3.79168897,13.6853585 L3.71876417,13.6570596 C3.75522657,14.9701295 4.12505949,15.9605918 4.8543075,16.4190343 C6.0158954,17.1491465 7.81297086,16.3397973 9.568375,14.511687 L8.96414093,14.4777283 Z M4.90639664,8.71040806 L4.73971138,8.59721237 C4.59038917,8.97453133 4.4566937,9.35185028 4.33862498,9.72916924 L4.53135481,9.83670514 C4.6355331,9.48579851 4.76054704,9.10093318 4.90639664,8.71040806 Z M4.1302684,12.3722885 C4.16076494,11.5485816 4.28856196,10.7325484 4.51051915,9.94424104 L4.31258041,9.83670514 C4.07305308,10.612231 3.89870943,11.4097498 3.79168897,12.2194743 L4.1302684,12.3722885 Z" id="Shape"></path>
                            <path d="M5.50851675,6.59718609 L5.64287081,6.33777931 C6.58463868,6.16795187 7.53668513,6.08318499 8.49014354,6.08426814 C9.7636459,6.07954844 11.033781,6.23375105 12.2778947,6.54412561 C12.24689,6.66596819 12.2141627,6.78977597 12.1797129,6.91554896 C10.9088439,6.50733991 9.59329827,6.30880573 8.27311005,6.32598809 C7.34616473,6.31730355 6.42055786,6.40810271 5.50851675,6.59718609 Z M3.17799043,7.42846691 L3.15215311,7.36361522 C3.15215311,7.31055474 3.11598086,7.26338987 3.10047847,7.21032939 L3.10047847,7.15726891 L3.10047847,7.11010404 C2.70270072,7.27456592 2.31585653,7.47159904 1.94296651,7.69966491 L1.94296651,7.72914295 L1.97397129,7.8293683 L2.01014354,7.93548926 L2.05148325,8.04161021 L2.09282297,8.13593995 L2.09282297,8.18310482 C2.42878327,7.88316941 2.79479466,7.62984718 3.18315789,7.42846691 L3.17799043,7.42846691 Z M0.206698565,11.3844203 L0.268708134,11.5141237 L0.304880383,11.5789754 L0.382392344,11.7145744 L0.418564593,11.7676349 C0.470239234,11.846243 0.52708134,11.9248511 0.589090909,12.0034592 L0.645933014,12.0801021 L0.744114833,12.1921187 L0.821626794,12.2805528 L0.919808612,12.3807782 L1.05933014,12.5104816 L1.17818182,12.6166025 L1.32287081,12.7345147 L1.41588517,12.805262 L1.58124402,12.9290698 L1.65875598,12.9821303 L1.91712919,13.1531029 L1.94813397,13.1531029 L2.20650718,13.3063887 L2.26851675,13.3417624 L2.54755981,13.4891526 C2.76976077,13.6011692 2.99712919,13.7013945 3.24,13.7957243 L3.75674641,13.9902794 L3.78258373,13.9902794 L4.16497608,14.1081915 C4.44057416,14.19073 4.72650718,14.2654078 5.02277512,14.3322247 L5.16746411,14.3322247 C5.46373206,14.3990416 5.76688995,14.4560324 6.0769378,14.5031973 L6.54200957,14.568049 C6.86239234,14.6073531 7.18966507,14.6368311 7.52382775,14.6564831 C7.82870813,14.6564831 8.14392344,14.6564831 8.45913876,14.6564831 L9.14641148,14.6564831 L9.52880383,14.6564831 C10.3675205,14.604936 11.2017529,14.4827609 12.024689,14.2909554 L12.0711962,14.2909554 L12.3244019,14.2261037 L12.4225837,14.2261037 L12.6396172,14.1671476 L12.7688038,14.131774 L12.96,14.0728179 L13.104689,14.025653 L13.2752153,13.9666969 L13.4302392,13.9077408 L13.5852632,13.8487847 L13.7557895,13.783933 L13.8901435,13.7308726 L14.0761722,13.648334 L14.1795215,13.6011692 L14.4275598,13.4773614 C14.4461106,13.4681281 14.4582291,13.4473889 14.4585646,13.4243009 L14.4585646,11.6556183 L14.2415311,11.8442778 L14.1743541,11.8973383 L13.9986603,12.0270417 L13.9521531,12.1449538 L13.6937799,12.3159265 L13.4147368,12.4751079 L13.32689,12.5222728 L13.104689,12.6342894 L13.0116746,12.6755586 L12.6912919,12.8170532 L12.3605742,12.9467566 L12.2572249,12.9821303 L11.9988517,13.0705644 L11.8903349,13.1059381 L11.523445,13.212059 L11.1513876,13.3063887 L11.0325359,13.3063887 L10.7431579,13.3653448 L10.6191388,13.3653448 L10.2109091,13.4301965 C9.56813941,13.5221042 8.9209065,13.5673948 8.27311005,13.5657955 L7.66851675,13.5657955 L7.48248804,13.5657955 L7.07425837,13.5657955 L6.86755981,13.5657955 L6.49033493,13.5186307 L6.29913876,13.5186307 L5.90124402,13.453779 L5.7462201,13.453779 L5.22947368,13.3417624 L4.71272727,13.1943722 L4.66105263,13.1943722 L4.22698565,13.0528776 L4.13397129,12.9172786 L3.77741627,12.775784 C3.60516746,12.7011063 3.43291866,12.6224981 3.26066986,12.5399596 L3.06430622,12.4338387 L2.86277512,12.3159265 L2.72842105,12.2274924 L2.58373206,12.1449538 L2.46488038,12.0624153 L2.25301435,11.8973383 L2.16,11.8147998 L2.02564593,11.690992 L1.94296651,11.6084535 L1.87062201,11.5318105 L1.76727273,11.419794 C1.41787659,11.0424208 1.21196758,10.5238959 1.19368421,9.97536985 C1.23370102,9.27868043 1.54694441,8.63972413 2.04631579,8.2361653 L2.015311,8.1713136 L1.97397129,8.07698386 L1.93263158,7.97086291 L1.89645933,7.86474195 L1.87062201,7.77630782 C0.687272727,8.47198965 0,9.40939142 0,10.4293317 C0.00219265387,10.761798 0.0730048551,11.0889987 0.206698565,11.3844203 Z M13.3527273,7.42846691 C13.7497368,7.62611985 14.1244823,7.87750382 14.4688995,8.17720921 L14.4688995,7.38130204 C14.474438,7.3703574 14.474438,7.35687304 14.4688995,7.34592839 C14.149866,7.1856386 13.8238949,7.04396106 13.4922488,6.92144457 C13.4543541,7.08652161 13.4078469,7.25552906 13.3527273,7.42846691 Z M3.15732057,7.11010404 L3.15732057,7.15726891 C3.15732057,7.20443378 3.18832536,7.25159865 3.20899522,7.30465913 L3.20899522,7.34592839 C3.79084848,7.05259787 4.39665532,6.82549892 5.01760766,6.6679334 L5.15196172,6.39083979 C4.44915221,6.53701964 3.75789116,6.74798787 3.08497608,7.02166991 L3.15732057,7.11010404 Z" id="Shape"></path>
                            <path d="M2.04206023,7.02945212 C2.04206023,5.25227984 4.30540951,3.74111743 7.48856741,3.13552051 L7.28703631,3.39587059 C5.38024205,3.84299355 3.94368703,4.69762098 3.42694061,5.72770173 C3.36286661,5.85678285 3.31258297,5.99351908 3.27708415,6.1352062 C3.26144785,6.20039218 3.24936907,6.26654004 3.24091191,6.33329865 L3.24091191,6.36725735 C3.23716708,6.43322448 3.23716708,6.49938268 3.24091191,6.5653498 C3.23836883,6.6200256 3.23836883,6.67480775 3.24091191,6.72948355 L3.24091191,6.79174118 C3.24091191,6.82947307 3.24091191,6.86720497 3.24091191,6.90493686 L3.24091191,6.96153471 L3.27191669,7.07473039 L3.27191669,7.12566845 C3.27191669,7.17660651 3.30292147,7.22188478 3.32359133,7.27282284 L3.34942865,7.33508047 L3.39076836,7.41997724 L3.43210808,7.49355443 L3.47344779,7.56147184 L3.52512243,7.64070882 L3.55612722,7.69164688 L3.69564875,7.87841977 L3.78349564,7.98029588 L3.80933296,8.0085948 L3.90751478,8.11047092 C4.06880275,8.27410929 4.24158355,8.4236106 4.42426119,8.55759388 L4.58962004,8.67078957 L4.83249085,8.81794396 L4.85832817,8.81794396 L5.09086406,8.948119 L5.12186884,8.948119 L5.38024205,9.07263426 C5.71639148,9.24061967 6.06152084,9.38615386 6.41373487,9.50843765 L6.46024205,9.50843765 L6.73411765,9.59333441 L6.81162961,9.59333441 L7.07000281,9.66125182 L7.1578497,9.66125182 L7.4317253,9.72350945 L7.5040698,9.72350945 C7.74177315,9.77256092 7.98464396,9.8159526 8.23268224,9.85368449 L8.3101942,9.85368449 L8.59957219,9.89330298 L8.7287588,9.89330298 L8.98196454,9.89330298 L9.12148607,9.89330298 L9.36952435,9.89330298 L9.51421334,9.89330298 L9.78292147,9.89330298 L10.7492373,9.89330298 L11.1678019,9.89330298 C11.5915339,9.89330298 11.9997636,9.82538557 12.3976583,9.76312794 C12.6215818,9.72916924 12.8403377,9.68955075 13.0539263,9.64427247 L13.3381368,9.58201484 L13.4156487,9.58201484 C13.6878019,9.51409743 13.94962,9.43863364 14.2011033,9.35562347 L14.30962,9.32166477 L14.5111511,9.24808757 L14.6506727,9.19714951 L14.8315339,9.12357231 L15.1054095,9.00471684 L15.2397636,8.94245922 L15.4102899,8.85756245 L15.5291416,8.79530482 L15.7255052,8.68210914 L15.7978497,8.63683086 L16.045888,8.47269712 L16.1182325,8.42175906 L16.2939263,8.29158402 L16.3611033,8.23498618 L16.5729693,8.04821329 L16.5729693,9.74614859 L16.3197636,9.86500406 L16.2267492,9.90462255 L16.0355531,9.98951931 L15.9218688,10.0347976 L15.7410076,10.1083748 L15.6169885,10.1536531 L15.4309598,10.2215705 L15.3069406,10.2668487 L15.0537349,10.3460857 L14.8522038,10.4083434 L14.6868449,10.4536216 L14.5008162,10.5045597 L14.3561272,10.5441782 L14.1545961,10.5951162 L14.0254095,10.6234152 L13.8032086,10.6686934 L13.7101942,10.6686934 C13.4277062,10.7252913 13.1366057,10.7743427 12.8368928,10.8158478 L12.7800507,10.8158478 L12.4958401,10.8498065 L12.4131607,10.8498065 L12.1289502,10.8781055 L12.0514382,10.8781055 L11.7465578,10.8781055 C11.3486631,10.8781055 10.9404334,10.9233837 10.5270363,10.9233837 L9.95861525,10.9233837 L9.63306502,10.9233837 L9.49354348,10.9233837 L9.19899803,10.9233837 L9.04914157,10.9233837 L8.76493104,10.9233837 L8.62024205,10.9233837 L8.34636645,10.889425 L8.20684492,10.889425 L7.93296932,10.8498065 L7.79861525,10.8498065 L7.52473966,10.8045283 L7.40072052,10.8045283 L7.12684492,10.7479304 L7.01316071,10.7479304 L6.73411765,10.7535902 L6.63076836,10.7535902 L6.3517253,10.680013 L6.25871095,10.680013 L5.97966789,10.5951162 L5.90215592,10.5951162 L5.62311286,10.4988999 L5.56110329,10.4988999 L5.27689277,10.391364 L5.22521813,10.391364 L4.94617506,10.1876118 L4.91000281,10.1876118 L4.62062482,10.0574367 C3.86086913,9.72051643 3.17811938,9.20459418 2.62081621,8.54627431 L2.58981143,8.48967647 L2.50196454,8.370821 L2.45545736,8.30290359 L2.38828033,8.1897079 L2.34177315,8.11047092 L2.27976358,8.01991437 L2.24359133,7.92369804 L2.20225162,7.82182192 L2.16607937,7.7199458 L2.13507458,7.62372947 L2.1040698,7.51053378 L2.1040698,7.42563702 C2.1040698,7.38035875 2.1040698,7.34074026 2.1040698,7.29546198 C2.1040698,7.25018371 2.1040698,7.25018371 2.1040698,7.22188478 C2.08027961,7.15899846 2.05958013,7.09476233 2.04206023,7.02945212 Z M12.7800507,3.29399447 C12.7800507,3.19211835 12.7490459,3.09590202 12.728376,3.00534547 C11.2490077,2.8089008 9.75339022,2.8089008 8.27402195,3.00534547 L8.03115114,3.25437598 C9.60431876,2.99440528 11.2049525,3.00586365 12.7748832,3.28833469 L12.7800507,3.29399447 Z M14.3302899,3.68451959 C15.1445533,3.93222525 15.907704,4.34919369 16.5781368,4.91269278 C16.5838812,4.92217785 16.5935821,4.92788011 16.6039741,4.92788011 C16.6143661,4.92788011 16.624067,4.92217785 16.6298114,4.91269278 L16.6298114,4.14296212 C16.6353499,4.13245526 16.6353499,4.11951027 16.6298114,4.10900341 C15.8876968,3.75184421 15.1135419,3.48058855 14.319955,3.29965426 C14.319955,3.42416951 14.319955,3.55434455 14.30962,3.68451959 L14.3302899,3.68451959 Z" id="Shape"></path>
                        </g>
                    </g>
                    <g id="oss" transform="translate(0.000000, 43.000000)" fill="#303030" font-family="Roboto-Regular, Roboto" font-size="12" font-weight="normal">
                        <text id="OSSystem">
                            <tspan x="0.28125" y="13">OSSystem</tspan>
                        </text>
                    </g>
                </g>
            </g>
        </g>
    </g>
</svg>