<?xml version="1.0" encoding="UTF-8"?>
<svg width="104px" height="28px" viewBox="0 0 104 28" version="1.1" xmlns="http://www.w3.org/2000/svg" xmlns:xlink="http://www.w3.org/1999/xlink">
    <!-- Generator: Sketch 48.2 (47327) - http://www.bohemiancoding.com/sketch -->
    <title>рынок copy</title>
    <desc>Created with Sketch.</desc>
    <defs></defs>
    <g id="Контакты/01-Контакты-Copy" stroke="none" stroke-width="1" fill="none" fill-rule="evenodd" transform="translate(-289.000000, -382.000000)">
        <g id="маркеры" transform="translate(-137.000000, 232.000000)">
            <g id="рынок-copy" transform="translate(426.000000, 150.000000)">
                <path d="M1.12464095,5.26744186 L1.12464095,8.58139535 L0,8.58139535 L0,0.11627907 L3.14548015,0.11627907 C4.0787806,0.11627907 4.80998515,0.352710814 5.33911574,0.825581395 C5.86824633,1.29845198 6.13280766,1.92441471 6.13280766,2.70348837 C6.13280766,3.52519791 5.87410378,4.15794352 5.35668826,4.60174419 C4.83927273,5.04554485 4.09830577,5.26744186 3.13376514,5.26744186 L1.12464095,5.26744186 Z M1.12464095,4.35465116 L3.14548015,4.35465116 C3.74685366,4.35465116 4.20763944,4.21414869 4.52785131,3.93313953 C4.84806318,3.65213038 5.00816671,3.24612669 5.00816671,2.71511628 C5.00816671,2.21123779 4.84806318,1.80814105 4.52785131,1.50581395 C4.20763944,1.20348686 3.76833096,1.04651169 3.2099127,1.03488372 L1.12464095,1.03488372 L1.12464095,4.35465116 Z M8.58124472,4.45930233 L10.2272036,4.45930233 C10.9457278,4.4670543 11.5139001,4.65309895 11.9317375,5.01744186 C12.349575,5.38178477 12.5584906,5.87596587 12.5584906,6.5 C12.5584906,7.12791012 12.3437175,7.63178105 11.914165,8.01162791 C11.4846125,8.39147477 10.9066778,8.58139535 10.1803436,8.58139535 L7.49760631,8.58139535 L7.49760631,2.29069767 L8.58124472,2.29069767 L8.58124472,4.45930233 Z M14.8194875,8.58139535 L13.7299916,8.58139535 L13.7299916,2.29069767 L14.8194875,2.29069767 L14.8194875,8.58139535 Z M8.58124472,5.3372093 L8.58124472,7.70348837 L10.1920586,7.70348837 C10.5981809,7.70348837 10.9125306,7.59980724 11.1351169,7.39244186 C11.3577032,7.18507648 11.4689946,6.90116459 11.4689946,6.54069767 C11.4689946,6.19185872 11.3606319,5.90600887 11.1439031,5.68313953 C10.9271744,5.4602702 10.6235634,5.34496128 10.2330611,5.3372093 L8.58124472,5.3372093 Z M21.8894959,8.58139535 L20.8058575,8.58139535 L20.8058575,5.89534884 L17.8946776,5.89534884 L17.8946776,8.58139535 L16.8051816,8.58139535 L16.8051816,2.29069767 L17.8946776,2.29069767 L17.8946776,5.01744186 L20.8058575,5.01744186 L20.8058575,2.29069767 L21.8894959,2.29069767 L21.8894959,8.58139535 Z M23.3421571,5.37790698 C23.3421571,4.76162483 23.4641873,4.2073668 23.7082512,3.71511628 C23.9523151,3.22286576 24.292047,2.84302459 24.7274571,2.5755814 C25.1628671,2.3081382 25.6597738,2.1744186 26.2181921,2.1744186 C27.0812021,2.1744186 27.7792145,2.47092727 28.3122501,3.06395349 C28.8452857,3.65697971 29.1117995,4.44573151 29.1117995,5.43023256 L29.1117995,5.50581395 C29.1117995,6.11822012 28.9936743,6.66763323 28.7574204,7.15406977 C28.5211666,7.64050631 28.1833872,8.01937849 27.7440721,8.29069767 C27.304757,8.56201686 26.8000404,8.69767442 26.2299071,8.69767442 C25.3708021,8.69767442 24.6747422,8.40116576 24.1417066,7.80813953 C23.6086709,7.21511331 23.3421571,6.43023744 23.3421571,5.45348837 L23.3421571,5.37790698 Z M24.4316531,5.50581395 C24.4316531,6.20349186 24.5946853,6.76356378 24.9207547,7.18604651 C25.2468241,7.60852924 25.6832039,7.81976744 26.2299071,7.81976744 C26.7805153,7.81976744 27.2178713,7.6056223 27.5419882,7.17732558 C27.8661051,6.74902887 28.0281611,6.14922866 28.0281611,5.37790698 C28.0281611,4.68798105 27.8631763,4.12887811 27.5332019,3.7005814 C27.2032275,3.27228468 26.7648953,3.05813953 26.2181921,3.05813953 C25.6832039,3.05813953 25.2517054,3.26937773 24.9236835,3.69186047 C24.5956616,4.1143432 24.4316531,4.71898831 24.4316531,5.50581395 Z M32.4447198,5.90116279 L31.6539566,5.90116279 L31.6539566,8.58139535 L30.5644607,8.58139535 L30.5644607,2.29069767 L31.6539566,2.29069767 L31.6539566,4.95348837 L32.3627147,4.95348837 L34.4948465,2.29069767 L35.8069276,2.29069767 L33.2999155,5.31395349 L36.0177978,8.58139535 L34.6412841,8.58139535 L32.4447198,5.90116279 Z M40.7389468,5.39534884 L42.250183,7.70348837 L41.4242749,7.70348837 L39.6963109,5.44767442 L39.6963109,5.3372093 L41.4242749,3.0755814 L42.250183,3.0755814 L40.7389468,5.39534884 Z M42.6719234,5.39534884 L44.1831597,7.70348837 L43.3572515,7.70348837 L41.6292875,5.44767442 L41.6292875,5.3372093 L43.3572515,3.0755814 L44.1831597,3.0755814 L42.6719234,5.39534884 Z M48.6465784,5.02906977 L50.6088426,0.11627907 L51.9150662,0.11627907 L48.8984511,7.16860465 C48.69539,7.6182193 48.5059992,7.93701456 48.3302732,8.125 C48.1545471,8.31298544 47.9485603,8.45639485 47.7123064,8.55523256 C47.4760525,8.65407026 47.1802515,8.70348837 46.8248944,8.70348837 C46.5163976,8.70348837 46.3191969,8.68604669 46.2332864,8.65116279 L46.2684314,7.76744186 L46.8014644,7.79069767 C47.2114918,7.79069767 47.516079,7.5949632 47.7152351,7.20348837 L47.8616728,6.90116279 L48.084258,6.38372093 L45.1789355,0.11627907 L46.4382991,0.11627907 L48.6465784,5.02906977 Z M57.7960011,3.1627907 L55.6697268,3.1627907 L55.6697268,8.58139535 L54.5860884,8.58139535 L54.5860884,3.1627907 L52.5008167,3.1627907 L52.5008167,2.29069767 L57.7960011,2.29069767 L57.7960011,3.1627907 Z M64.2041115,5.50581395 C64.2041115,6.46318308 63.983481,7.2344932 63.5422135,7.81976744 C63.1009459,8.40504169 62.5034864,8.69767442 61.749817,8.69767442 C60.9805275,8.69767442 60.375258,8.45542878 59.9339904,7.97093023 L59.9339904,11 L58.850352,11 L58.850352,2.29069767 L59.8402703,2.29069767 L59.8929879,2.98837209 C60.3342555,2.44573372 60.9473349,2.1744186 61.7322444,2.1744186 C62.4937239,2.1744186 63.0960646,2.45929948 63.5392847,3.02906977 C63.9825048,3.59884006 64.2041115,4.39146779 64.2041115,5.40697674 L64.2041115,5.50581395 Z M63.1204731,5.38372093 C63.1204731,4.67441506 62.9681795,4.11434314 62.6635877,3.70348837 C62.3589959,3.2926336 61.9411648,3.0872093 61.4100817,3.0872093 C60.7540378,3.0872093 60.2620123,3.3759661 59.9339904,3.95348837 L59.9339904,6.95930233 C60.2581073,7.5329486 60.7540378,7.81976744 61.4217967,7.81976744 C61.9411647,7.81976744 62.3541147,7.61531212 62.660659,7.20639535 C62.9672033,6.79747858 63.1204731,6.18992651 63.1204731,5.38372093 Z M68.2106449,8.69767442 C67.3515399,8.69767442 66.6525513,8.41763846 66.1136581,7.85755814 C65.574765,7.29747782 65.3053224,6.5484543 65.3053224,5.61046512 L65.3053224,5.4127907 C65.3053224,4.78875657 65.4254001,4.2315916 65.665559,3.74127907 C65.9057179,3.25096654 66.2415448,2.86724945 66.6730498,2.59011628 C67.1045549,2.31298311 67.5721743,2.1744186 68.0759223,2.1744186 C68.8998821,2.1744186 69.5402962,2.44379576 69.9971839,2.98255814 C70.4540716,3.52132052 70.682512,4.29263064 70.682512,5.29651163 L70.682512,5.74418605 L66.3889609,5.74418605 C66.4045809,6.36434419 66.587138,6.86530817 66.9366376,7.24709302 C67.2861371,7.62887788 67.7303268,7.81976744 68.2692199,7.81976744 C68.6519122,7.81976744 68.9760242,7.74224884 69.2415658,7.5872093 C69.5071073,7.43216977 69.7394527,7.22674547 69.9386088,6.97093023 L70.6005069,7.48255814 C70.0694238,8.29263971 69.2728111,8.69767442 68.2106449,8.69767442 Z M68.0759223,3.05813953 C67.6385597,3.05813953 67.2714931,3.21608369 66.9747113,3.53197674 C66.6779296,3.8478698 66.4943963,4.29069483 66.4241059,4.86046512 L69.5988736,4.86046512 L69.5988736,4.77906977 C69.5676334,4.23255541 69.4192447,3.80911003 69.1537032,3.50872093 C68.8881616,3.20833183 68.5289049,3.05813953 68.0759223,3.05813953 Z M77.1140524,8.58139535 L76.030414,8.58139535 L76.030414,5.89534884 L73.119234,5.89534884 L73.119234,8.58139535 L72.0297381,8.58139535 L72.0297381,2.29069767 L73.119234,2.29069767 L73.119234,5.01744186 L76.030414,5.01744186 L76.030414,2.29069767 L77.1140524,2.29069767 L77.1140524,8.58139535 Z M84.0317657,8.58139535 L82.9481273,8.58139535 L82.9481273,5.89534884 L80.0369473,5.89534884 L80.0369473,8.58139535 L78.9474514,8.58139535 L78.9474514,2.29069767 L80.0369473,2.29069767 L80.0369473,5.01744186 L82.9481273,5.01744186 L82.9481273,2.29069767 L84.0317657,2.29069767 L84.0317657,8.58139535 Z M89.8716981,2.29069767 L90.9553365,2.29069767 L90.9553365,8.58139535 L89.8716981,8.58139535 L89.8716981,3.99418605 L86.9488032,8.58139535 L85.8651647,8.58139535 L85.8651647,2.29069767 L86.9488032,2.29069767 L86.9488032,6.88372093 L89.8716981,2.29069767 Z M96.7952689,2.29069767 L97.8789074,2.29069767 L97.8789074,8.58139535 L96.7952689,8.58139535 L96.7952689,3.99418605 L93.872374,8.58139535 L92.7887356,8.58139535 L92.7887356,2.29069767 L93.872374,2.29069767 L93.872374,6.88372093 L96.7952689,2.29069767 Z M97.0881442,0 C97.0881442,0.468994593 96.9270644,0.845928808 96.6049,1.13081395 C96.2827356,1.4156991 95.8600233,1.55813953 95.3367502,1.55813953 C94.8134772,1.55813953 94.3897885,1.41473012 94.0656716,1.12790698 C93.7415547,0.841083837 93.5794987,0.465118605 93.5794987,0 L94.463982,0 C94.463982,0.271319186 94.5381763,0.483526366 94.6865672,0.636627907 C94.834958,0.789729448 95.0516835,0.86627907 95.3367502,0.86627907 C95.6101018,0.86627907 95.8238986,0.79069843 95.978147,0.639534884 C96.1323954,0.488371337 96.2095184,0.275195174 96.2095184,0 L97.0881442,0 Z M100.227767,3.06395349 L101.955731,5.3255814 L101.955731,5.43604651 L100.227767,7.69767442 L99.3960011,7.69767442 L100.907237,5.38372093 L99.3960011,3.06395349 L100.227767,3.06395349 Z M102.272036,3.06395349 L104,5.3255814 L104,5.43604651 L102.272036,7.69767442 L101.44027,7.69767442 L102.951507,5.38372093 L101.44027,3.06395349 L102.272036,3.06395349 Z" id="Рынок-«Утренний»" fill="#303030"></path>
                <g id="marker" transform="translate(47.000000, 17.000000)">
                    <circle id="Oval-2" stroke="#2F2F2F" stroke-width="2" cx="5" cy="5" r="5"></circle>
                    <circle id="Oval-3" fill="#303030" cx="5" cy="5" r="2"></circle>
                </g>
            </g>
        </g>
    </g>
</svg>