<?xml version="1.0" encoding="UTF-8"?>
<svg width="102px" height="26px" viewBox="0 0 102 26" version="1.1" xmlns="http://www.w3.org/2000/svg" xmlns:xlink="http://www.w3.org/1999/xlink">
    <!-- Generator: Sketch 48.2 (47327) - http://www.bohemiancoding.com/sketch -->
    <title>рынок copy 2</title>
    <desc>Created with Sketch.</desc>
    <defs></defs>
    <g id="Контакты/01-Контакты-Copy" stroke="none" stroke-width="1" fill="none" fill-rule="evenodd" transform="translate(-400.000000, -380.000000)">
        <g id="маркеры" transform="translate(-137.000000, 232.000000)">
            <g id="рынок-copy-2" transform="translate(537.000000, 148.000000)">
                <path d="M1.12043023,5.45053476 L1.12043023,8.87967914 L0,8.87967914 L0,0.120320856 L3.1337033,0.120320856 C4.06350943,0.120320856 4.79197631,0.364970816 5.31912581,0.854278075 C5.84627531,1.34358533 6.1098461,1.99130613 6.1098461,2.79745989 C6.1098461,3.64773152 5.85211082,4.30247097 5.33663253,4.76169786 C4.82115424,5.22092476 4.0829615,5.45053476 3.12203215,5.45053476 L1.12043023,5.45053476 Z M1.12043023,4.50601604 L3.1337033,4.50601604 C3.73282524,4.50601604 4.19188581,4.3606298 4.51089879,4.06985294 C4.82991177,3.77907609 4.98941587,3.35895997 4.98941587,2.80949198 C4.98941587,2.288099 4.82991177,1.87099087 4.51089879,1.55815508 C4.19188581,1.24531929 3.75422213,1.08288776 3.19789462,1.07085561 L1.12043023,1.07085561 L1.12043023,4.50601604 Z M11.455232,2.37032086 L12.5348132,2.37032086 L12.5348132,8.87967914 L11.455232,8.87967914 L11.455232,4.13302139 L8.54328051,8.87967914 L7.4636993,8.87967914 L7.4636993,2.37032086 L8.54328051,2.37032086 L8.54328051,7.12299465 L11.455232,2.37032086 Z M19.4266262,8.87967914 L18.347045,8.87967914 L18.347045,6.10026738 L15.4467647,6.10026738 L15.4467647,8.87967914 L14.3613479,8.87967914 L14.3613479,2.37032086 L15.4467647,2.37032086 L15.4467647,5.19184492 L18.347045,5.19184492 L18.347045,2.37032086 L19.4266262,2.37032086 L19.4266262,8.87967914 Z M20.8738486,5.56483957 C20.8738486,4.92713585 20.9954219,4.35361217 21.238572,3.84425134 C21.4817221,3.3348905 21.8201821,2.9418463 22.2539619,2.66510695 C22.6877417,2.3883676 23.182788,2.25 23.7391155,2.25 C24.5988944,2.25 25.2942934,2.55681511 25.8253333,3.17045455 C26.3563732,3.78409398 26.6218891,4.60026229 26.6218891,5.61898396 L26.6218891,5.69719251 C26.6218891,6.33088552 26.5042062,6.89939588 26.2688369,7.40274064 C26.0334676,7.9060854 25.6969528,8.29812694 25.2592826,8.57887701 C24.8216123,8.85962707 24.3187854,9 23.7507867,9 C22.8948982,9 22.2014444,8.69318489 21.6704045,8.07954545 C21.1393646,7.46590602 20.8738486,6.65374837 20.8738486,5.64304813 L20.8738486,5.56483957 Z M21.9592654,5.69719251 C21.9592654,6.41912126 22.1216873,6.99866092 22.4465358,7.43582888 C22.7713844,7.87299684 23.2061304,8.09157754 23.7507867,8.09157754 C24.2993334,8.09157754 24.7350519,7.86998885 25.0579553,7.42680481 C25.3808586,6.98362078 25.5423079,6.36297191 25.5423079,5.56483957 C25.5423079,4.85093226 25.3779409,4.27239526 25.0492019,3.82921123 C24.7204629,3.3860272 24.2837718,3.1644385 23.7391155,3.1644385 C23.2061304,3.1644385 22.7762474,3.3830192 22.4494536,3.82018717 C22.1226598,4.25735513 21.9592654,4.88301732 21.9592654,5.69719251 Z M29.9423308,6.10628342 L29.1545283,6.10628342 L29.1545283,8.87967914 L28.0691115,8.87967914 L28.0691115,2.37032086 L29.1545283,2.37032086 L29.1545283,5.12566845 L29.8606328,5.12566845 L31.9847817,2.37032086 L33.2919503,2.37032086 L30.7943246,5.4986631 L33.502031,8.87967914 L32.1306711,8.87967914 L29.9423308,6.10628342 Z M38.2055037,5.5828877 L39.7110819,7.97125668 L38.8882659,7.97125668 L37.1667716,5.63703209 L37.1667716,5.52272727 L38.8882659,3.18248663 L39.7110819,3.18248663 L38.2055037,5.5828877 Z M40.1312432,5.5828877 L41.6368213,7.97125668 L40.8140054,7.97125668 L39.092511,5.63703209 L39.092511,5.52272727 L40.8140054,3.18248663 L41.6368213,3.18248663 L40.1312432,5.5828877 Z M44.286172,5.45053476 L44.286172,8.87967914 L43.1657417,8.87967914 L43.1657417,0.120320856 L46.299445,0.120320856 C47.2292512,0.120320856 47.9577181,0.364970816 48.4848676,0.854278075 C49.0120171,1.34358533 49.2755878,1.99130613 49.2755878,2.79745989 C49.2755878,3.64773152 49.0178526,4.30247097 48.5023743,4.76169786 C47.986896,5.22092476 47.2487032,5.45053476 46.2877739,5.45053476 L44.286172,5.45053476 Z M44.286172,4.50601604 L46.299445,4.50601604 C46.898567,4.50601604 47.3576276,4.3606298 47.6766405,4.06985294 C47.9956535,3.77907609 48.1551576,3.35895997 48.1551576,2.80949198 C48.1551576,2.288099 47.9956535,1.87099087 47.6766405,1.55815508 C47.3576276,1.24531929 46.9199639,1.08288776 46.3636364,1.07085561 L44.286172,1.07085561 L44.286172,4.50601604 Z M54.3700441,8.87967914 C54.3077976,8.75133626 54.2572231,8.52272892 54.2183191,8.19385027 C53.7164572,8.73128611 53.1173443,9 52.4209623,9 C51.7984979,9 51.2878903,8.81851786 50.8891241,8.45554813 C50.4903579,8.0925784 50.2909777,7.63235573 50.2909777,7.07486631 C50.2909777,6.39705543 50.5409323,5.87065696 51.040849,5.49565508 C51.5407657,5.12065321 52.2439454,4.93315508 53.1504091,4.93315508 L54.2008124,4.93315508 L54.2008124,4.42179144 C54.2008124,4.03275207 54.0879924,3.72292896 53.8623491,3.49231283 C53.6367058,3.26169671 53.3040814,3.14639037 52.8644659,3.14639037 C52.4793161,3.14639037 52.1564176,3.24665675 51.8957606,3.44719251 C51.6351037,3.64772828 51.5047772,3.89037291 51.5047772,4.17513369 L50.4193604,4.17513369 C50.4193604,3.85026576 50.5312078,3.536432 50.7549059,3.23362299 C50.978604,2.93081399 51.2820508,2.69117735 51.6652554,2.51470588 C52.0484601,2.33823441 52.4695898,2.25 52.9286572,2.25 C53.6561625,2.25 54.2260978,2.43749813 54.6384805,2.8125 C55.0508631,3.18750188 55.264832,3.70387372 55.2803936,4.36163102 L55.2803936,7.35762032 C55.2803936,7.95521689 55.3543101,8.43047952 55.5021454,8.78342246 L55.5021454,8.87967914 L54.3700441,8.87967914 Z M52.5785228,8.03141711 C52.9169878,8.03141711 53.2379412,7.94117737 53.5413925,7.76069519 C53.8448439,7.580213 54.0646483,7.34558968 54.2008124,7.05681818 L54.2008124,5.72125668 L53.3546542,5.72125668 C52.0319174,5.72125668 51.370559,6.12031686 51.370559,6.9184492 C51.370559,7.26738142 51.4833789,7.54010597 51.7090223,7.73663102 C51.9346656,7.93315606 52.2244962,8.03141711 52.5785228,8.03141711 Z M62.1313576,8.87967914 L61.0517764,8.87967914 L61.0517764,6.10026738 L58.1514961,6.10026738 L58.1514961,8.87967914 L57.0660793,8.87967914 L57.0660793,2.37032086 L58.1514961,2.37032086 L58.1514961,5.19184492 L61.0517764,5.19184492 L61.0517764,2.37032086 L62.1313576,2.37032086 L62.1313576,8.87967914 Z M65.8311116,6.10628342 L65.0433091,6.10628342 L65.0433091,8.87967914 L63.9578923,8.87967914 L63.9578923,2.37032086 L65.0433091,2.37032086 L65.0433091,5.12566845 L65.7494136,5.12566845 L67.8735626,2.37032086 L69.1807312,2.37032086 L66.6831054,5.4986631 L69.3908118,8.87967914 L68.0194519,8.87967914 L65.8311116,6.10628342 Z M69.9101779,5.56483957 C69.9101779,4.92713585 70.0317512,4.35361217 70.2749013,3.84425134 C70.5180514,3.3348905 70.8565114,2.9418463 71.2902912,2.66510695 C71.7240711,2.3883676 72.2191173,2.25 72.7754448,2.25 C73.6352237,2.25 74.3306227,2.55681511 74.8616626,3.17045455 C75.3927025,3.78409398 75.6582184,4.60026229 75.6582184,5.61898396 L75.6582184,5.69719251 C75.6582184,6.33088552 75.5405355,6.89939588 75.3051662,7.40274064 C75.0697969,7.9060854 74.7332821,8.29812694 74.2956119,8.57887701 C73.8579416,8.85962707 73.3551147,9 72.787116,9 C71.9312275,9 71.2377737,8.69318489 70.7067338,8.07954545 C70.1756939,7.46590602 69.9101779,6.65374837 69.9101779,5.64304813 L69.9101779,5.56483957 Z M70.9955947,5.69719251 C70.9955947,6.41912126 71.1580166,6.99866092 71.4828652,7.43582888 C71.8077137,7.87299684 72.2424597,8.09157754 72.787116,8.09157754 C73.3356627,8.09157754 73.7713812,7.86998885 74.0942846,7.42680481 C74.417188,6.98362078 74.5786372,6.36297191 74.5786372,5.56483957 C74.5786372,4.85093226 74.4142702,4.27239526 74.0855312,3.82921123 C73.7567922,3.3860272 73.3201011,3.1644385 72.7754448,3.1644385 C72.2424597,3.1644385 71.8125767,3.3830192 71.4857829,3.82018717 C71.1589892,4.25735513 70.9955947,4.88301732 70.9955947,5.69719251 Z M77.1112764,8.87967914 L77.1112764,2.37032086 L79.5738887,2.37032086 C80.4142155,2.37032086 81.05904,2.52172308 81.5083815,2.82453209 C81.9577229,3.12734109 82.1823903,3.57152114 82.1823903,4.15708556 C82.1823903,4.4578892 82.0948576,4.72961109 81.9197895,4.97225936 C81.7447214,5.21490763 81.4860135,5.40040043 81.1436581,5.52874332 C81.5249175,5.62098977 81.8312821,5.80146924 82.062761,6.07018717 C82.29424,6.33890509 82.4099777,6.65975749 82.4099777,7.03275401 C82.4099777,7.63035058 82.1969814,8.08756526 81.7709823,8.40441176 C81.3449833,8.72125827 80.7429526,8.87967914 79.9648721,8.87967914 L77.1112764,8.87967914 Z M78.1908576,6.02205882 L78.1908576,7.98328877 L79.9765433,7.98328877 C80.4278299,7.98328877 80.7653173,7.89705969 80.9890154,7.72459893 C81.2127135,7.55213818 81.3245609,7.30949354 81.3245609,6.99665775 C81.3245609,6.34692189 80.86161,6.02205882 79.9356943,6.02205882 L78.1908576,6.02205882 Z M78.1908576,5.13168449 L79.5855598,5.13168449 C80.5970644,5.13168449 81.1028091,4.82687471 81.1028091,4.21724599 C81.1028091,3.60761727 80.6242968,3.29278085 79.6672579,3.27272727 L78.1908576,3.27272727 L78.1908576,5.13168449 Z M87.9245952,2.37032086 L89.0041764,2.37032086 L89.0041764,8.87967914 L87.9245952,8.87967914 L87.9245952,4.13302139 L85.0126437,8.87967914 L83.9330625,8.87967914 L83.9330625,2.37032086 L85.0126437,2.37032086 L85.0126437,7.12299465 L87.9245952,2.37032086 Z M94.8222438,2.37032086 L95.901825,2.37032086 L95.901825,8.87967914 L94.8222438,8.87967914 L94.8222438,4.13302139 L91.9102924,8.87967914 L90.8307111,8.87967914 L90.8307111,2.37032086 L91.9102924,2.37032086 L91.9102924,7.12299465 L94.8222438,2.37032086 Z M95.1140225,0 C95.1140225,0.485296544 94.9535459,0.875332751 94.6325877,1.17012032 C94.3116295,1.46490789 93.8904998,1.61229947 93.3691859,1.61229947 C92.847872,1.61229947 92.4257697,1.46390523 92.1028663,1.1671123 C91.7799629,0.870319372 91.6185136,0.481285829 91.6185136,0 L92.4996853,0 C92.4996853,0.280750067 92.5736019,0.500333432 92.7214372,0.658756684 C92.8692724,0.817179936 93.0851865,0.896390374 93.3691859,0.896390374 C93.641514,0.896390374 93.8545104,0.8181826 94.0081812,0.661764706 C94.1618521,0.505346811 94.2386864,0.284760782 94.2386864,0 L95.1140225,0 Z M98.2418903,3.17045455 L99.9633846,5.51069519 L99.9633846,5.625 L98.2418903,7.96524064 L97.4132387,7.96524064 L98.9188169,5.57085561 L97.4132387,3.17045455 L98.2418903,3.17045455 Z M100.278506,3.17045455 L102,5.51069519 L102,5.625 L100.278506,7.96524064 L99.4498541,7.96524064 L100.955432,5.57085561 L99.4498541,3.17045455 L100.278506,3.17045455 Z" id="Ринок-«Ранковий»" fill="#303030"></path>
                <g id="marker" transform="translate(46.000000, 15.000000)">
                    <circle id="Oval-2" stroke="#2F2F2F" stroke-width="2" cx="5" cy="5" r="5"></circle>
                    <circle id="Oval-3" fill="#303030" cx="5" cy="5" r="2"></circle>
                </g>
            </g>
        </g>
    </g>
</svg>