<?xml version="1.0" encoding="UTF-8" standalone="no"?>
<svg width="57px" height="56px" viewBox="0 0 57 56" version="1.1" xmlns="http://www.w3.org/2000/svg" xmlns:xlink="http://www.w3.org/1999/xlink">
    <!-- Generator: Sketch 48.1 (47250) - http://www.bohemiancoding.com/sketch -->
    <title>application</title>
    <desc>Created with Sketch.</desc>
    <defs></defs>
    <g id="Почему-INTShop/02-Карьера" stroke="none" stroke-width="1" fill="none" fill-rule="evenodd" transform="translate(-744.000000, -476.000000)">
        <g id="схема-1" transform="translate(96.000000, 378.000000)" fill-rule="nonzero">
            <g id="иконки" transform="translate(92.000000, 98.000000)">
                <g id="3" transform="translate(539.000000, 0.000000)">
                    <g id="application" transform="translate(17.000000, 0.000000)">
                        <path d="M18.1376518,28.1269636 L18.1376518,24.4994332 L19.951417,24.4994332 L19.951417,22.685668 L18.1376518,22.685668 L18.1376518,20.8719028 L19.951417,20.8719028 L19.951417,19.0581377 L18.1376518,19.0581377 L18.1376518,19.0073522 C20.4483887,16.9405668 21.7651822,14.0086154 21.7651822,10.8961943 C21.7651822,4.89535223 16.8834332,0.0136032389 10.8825911,0.0136032389 C4.88174899,0.0136032389 0,4.89535223 0,10.8961943 C0,14.0095223 1.31679352,16.9414737 3.62753036,19.0073522 L3.62753036,19.0581377 L1.81376518,19.0581377 L1.81376518,20.8719028 L3.62753036,20.8719028 L3.62753036,22.685668 L1.81376518,22.685668 L1.81376518,24.4994332 L3.62753036,24.4994332 L3.62753036,28.1269636 L18.1376518,28.1269636 Z M16.3238866,26.3131984 L5.44129555,26.3131984 L5.44129555,24.4994332 L16.3238866,24.4994332 L16.3238866,26.3131984 Z M16.3238866,22.685668 L5.44129555,22.685668 L5.44129555,20.8719028 L16.3238866,20.8719028 L16.3238866,22.685668 Z M8.16194332,10.8961943 L7.25506073,10.8961943 C6.75536842,10.8961943 6.34817814,10.489004 6.34817814,9.98931174 C6.34817814,9.48961943 6.75536842,9.08242915 7.25506073,9.08242915 C7.75475304,9.08242915 8.16194332,9.48961943 8.16194332,9.98931174 L8.16194332,10.8961943 Z M9.9757085,19.0581377 L9.9757085,12.7099595 L11.7894737,12.7099595 L11.7894737,19.0581377 L9.9757085,19.0581377 Z M1.81376518,10.8961943 C1.81376518,5.89564372 5.88204049,1.82736842 10.8825911,1.82736842 C15.8831417,1.82736842 19.951417,5.89564372 19.951417,10.8961943 C19.951417,13.6114008 18.7488907,16.1615547 16.653085,17.8918866 L16.3238866,18.1639514 L16.3238866,19.0581377 L13.6032389,19.0581377 L13.6032389,12.7099595 L14.5101215,12.7099595 C16.0101053,12.7099595 17.2307692,11.4892955 17.2307692,9.98931174 C17.2307692,8.48932794 16.0101053,7.26866397 14.5101215,7.26866397 C13.0101377,7.26866397 11.7894737,8.48932794 11.7894737,9.98931174 L11.7894737,10.8961943 L9.9757085,10.8961943 L9.9757085,9.98931174 C9.9757085,8.48932794 8.75504453,7.26866397 7.25506073,7.26866397 C5.75507692,7.26866397 4.53441296,8.48932794 4.53441296,9.98931174 C4.53441296,11.4892955 5.75507692,12.7099595 7.25506073,12.7099595 L8.16194332,12.7099595 L8.16194332,19.0581377 L5.44129555,19.0581377 L5.44129555,18.1639514 L5.11209717,17.8918866 C3.0162915,16.1615547 1.81376518,13.6114008 1.81376518,10.8961943 Z M13.6032389,10.8961943 L13.6032389,9.98931174 C13.6032389,9.48961943 14.0104291,9.08242915 14.5101215,9.08242915 C15.0098138,9.08242915 15.417004,9.48961943 15.417004,9.98931174 C15.417004,10.489004 15.0098138,10.8961943 14.5101215,10.8961943 L13.6032389,10.8961943 Z" id="Shape" fill="#326EAA"></path>
                        <path d="M14.5101215,47.171498 L11.7894737,47.171498 L11.7894737,29.9407287 L9.9757085,29.9407287 L9.9757085,47.171498 L7.25506073,47.171498 L7.25506073,29.9407287 L5.44129555,29.9407287 L5.44129555,48.368583 L10.8825911,55.9863968 L16.3238866,48.368583 L16.3238866,29.9407287 L14.5101215,29.9407287 L14.5101215,47.171498 Z M10.8825911,52.8658138 L8.11025101,48.9852632 L13.6549312,48.9852632 L10.8825911,52.8658138 Z" id="Shape" fill="#326EAA"></path>
                        <polygon id="Shape" fill="#44A6F6" points="23.5789474 7.26866397 23.5789474 9.08242915 54.4129555 9.08242915 54.4129555 48.9852632 18.1376518 48.9852632 18.1376518 50.7990283 56.2267206 50.7990283 56.2267206 7.26866397"></polygon>
                        <path d="M52.5991903,29.8028826 L52.5991903,22.8244211 L49.2074494,22.2585263 C48.9607773,21.5239514 48.6515304,20.8202105 48.2851498,20.16 L46.699919,21.040583 C47.0907854,21.7443239 47.4054737,22.507919 47.6358219,23.311417 L47.7936194,23.8618947 L50.7854251,24.3606802 L50.7854251,28.2657166 L47.7936194,28.7635951 L47.6358219,29.3140729 C47.4054737,30.1175709 47.0907854,30.8820729 46.699919,31.5849069 L46.4215061,32.0855061 L48.1817652,34.5513198 L45.4212146,37.3127773 L42.9563077,35.5516113 L42.4548016,35.8309312 C41.7528745,36.2217976 40.9892794,36.5355789 40.1848745,36.766834 L39.6334899,36.9237247 L39.1347045,39.9164372 L35.229668,39.9164372 L34.7308826,36.9237247 L34.1804049,36.7659271 C33.3750931,36.5346721 32.611498,36.2199838 31.9095709,35.8300243 L31.4080648,35.5507045 L28.9431579,37.3118704 L25.6384777,34.0071903 L24.3561457,35.2895223 L28.7481781,39.6806478 L31.5431903,37.6845992 C32.0501377,37.9358057 32.580664,38.1543644 33.1284211,38.3375547 L33.6934089,41.7302024 L40.6709636,41.7302024 L41.2368583,38.3375547 C41.7846154,38.1543644 42.3151417,37.9367126 42.8220891,37.6845992 L45.6161943,39.6806478 L50.5505425,34.7481134 L48.5544939,31.9521943 C48.8047935,31.4443401 49.0233522,30.9147206 49.2074494,30.3669636 L52.5991903,29.8028826 Z" id="Shape" fill="#44A6F6"></path>
                        <path d="M21.7651822,22.8244211 L21.7651822,29.8028826 L25.1569231,30.3669636 C25.4035951,31.1033522 25.7128421,31.8061862 26.0792227,32.4654899 L27.6644534,31.5849069 C27.273587,30.8820729 26.9588988,30.1175709 26.7285506,29.3140729 L26.570753,28.7635951 L23.5789474,28.2657166 L23.5789474,24.3606802 L26.570753,23.8618947 L26.7285506,23.311417 C26.9588988,22.507919 27.273587,21.7443239 27.6644534,21.040583 L27.9428664,20.5399838 L26.1826073,18.0750769 L28.9431579,15.3145263 L31.4080648,17.0747854 L31.908664,16.7963725 C32.6124049,16.4055061 33.376,16.0908178 34.179498,15.8604696 L34.7299757,15.7026721 L35.229668,12.7099595 L39.1347045,12.7099595 L39.6334899,15.7017652 L40.1839676,15.8595628 C40.9874656,16.0899109 41.7519676,16.4045992 42.4548016,16.7954656 L42.9554008,17.0738785 L45.4203077,15.3136194 L48.7249879,18.6182996 L50.0073198,17.3359676 L45.6161943,12.9448421 L42.8211822,14.9408907 C42.3133279,14.6905911 41.7828016,14.4720324 41.2359514,14.2879352 L40.6709636,10.8961943 L33.6934089,10.8961943 L33.1275142,14.2879352 C32.5797571,14.4720324 32.0501377,14.6896842 31.5422834,14.9408907 L28.7481781,12.9448421 L23.81383,17.8791903 L25.8098785,20.6742024 C25.5595789,21.1820567 25.3410202,21.712583 25.1569231,22.2594332 L21.7651822,22.8244211 Z" id="Shape" fill="#44A6F6"></path>
                        <path d="M37.1821862,35.3820243 C42.1827368,35.3820243 46.2510121,31.313749 46.2510121,26.3131984 C46.2510121,21.3126478 42.1827368,17.2443725 37.1821862,17.2443725 C32.1816356,17.2443725 28.1133603,21.3126478 28.1133603,26.3131984 C28.1133603,31.313749 32.1816356,35.3820243 37.1821862,35.3820243 Z M37.1821862,19.0581377 C41.1824453,19.0581377 44.437247,22.3129393 44.437247,26.3131984 C44.437247,30.3134575 41.1824453,33.5682591 37.1821862,33.5682591 C33.1819271,33.5682591 29.9271255,30.3134575 29.9271255,26.3131984 C29.9271255,22.3129393 33.1819271,19.0581377 37.1821862,19.0581377 Z" id="Shape" fill="#44A6F6"></path>
                        <path d="M37.1821862,31.7544939 C40.1830607,31.7544939 42.6234818,29.3140729 42.6234818,26.3131984 C42.6234818,23.3123239 40.1830607,20.8719028 37.1821862,20.8719028 C34.1813117,20.8719028 31.7408907,23.3123239 31.7408907,26.3131984 C31.7408907,29.3140729 34.1813117,31.7544939 37.1821862,31.7544939 Z M37.1821862,22.685668 C39.1827692,22.685668 40.8097166,24.3126154 40.8097166,26.3131984 C40.8097166,28.3137814 39.1827692,29.9407287 37.1821862,29.9407287 C35.1816032,29.9407287 33.5546559,28.3137814 33.5546559,26.3131984 C33.5546559,24.3126154 35.1816032,22.685668 37.1821862,22.685668 Z" id="Shape" fill="#44A6F6"></path>
                        <rect id="Rectangle-path" fill="#44A6F6" x="50.7854251" y="45.3577328" width="1.81376518" height="1.81376518"></rect>
                        <rect id="Rectangle-path" fill="#44A6F6" x="43.5303644" y="45.3577328" width="5.44129555" height="1.81376518"></rect>
                        <rect id="Rectangle-path" fill="#44A6F6" x="43.5303644" y="41.7302024" width="9.06882591" height="1.81376518"></rect>
                        <rect id="Rectangle-path" fill="#44A6F6" x="29.0202429" y="45.3577328" width="1.81376518" height="1.81376518"></rect>
                        <rect id="Rectangle-path" fill="#44A6F6" x="21.7651822" y="45.3577328" width="5.44129555" height="1.81376518"></rect>
                        <rect id="Rectangle-path" fill="#44A6F6" x="21.7651822" y="41.7302024" width="9.06882591" height="1.81376518"></rect>
                    </g>
                </g>
            </g>
        </g>
    </g>
</svg>