<?xml version="1.0" encoding="UTF-8" standalone="no"?>
<svg width="51px" height="56px" viewBox="0 0 51 56" version="1.1" xmlns="http://www.w3.org/2000/svg" xmlns:xlink="http://www.w3.org/1999/xlink">
    <!-- Generator: Sketch 48.1 (47250) - http://www.bohemiancoding.com/sketch -->
    <title>avatar</title>
    <desc>Created with Sketch.</desc>
    <defs></defs>
    <g id="Почему-Ossystem/02-Карьера" stroke="none" stroke-width="1" fill="none" fill-rule="evenodd" transform="translate(-472.000000, -476.000000)">
        <g id="схема-1" transform="translate(96.000000, 378.000000)" fill-rule="nonzero">
            <g id="иконки" transform="translate(92.000000, 98.000000)">
                <g id="2" transform="translate(239.000000, 0.000000)">
                    <g id="avatar" transform="translate(45.000000, 0.000000)">
                        <path d="M50.9125,54.6494667 L48.5875,49.4433333 C47.3091667,46.5789333 44.7391667,44.8 41.88,44.8 L37.6666667,44.8 C34.7041667,44.8 32.2558333,42.3117333 31.8866667,39.1048 C34.8591667,36.9394667 36.8333333,33.1921333 36.8333333,28.9333333 L36.8333333,17.7333333 C36.8333333,14.1316 34.2166667,11.2 31,11.2 L11.8333333,11.2 C11.3733333,11.2 11,11.6172 11,12.1333333 C11,13.8338667 11.68,15.3598667 12.7525,16.3884 C12.6975,16.5116 12.6666667,16.6525333 12.6666667,16.8 C12.6666667,18.8113333 13.6316667,20.6518667 15.1666667,21.6449333 L15.1666667,28.9333333 C15.1666667,33.1921333 17.1408333,36.9394667 20.1133333,39.1048 C19.7441667,42.3117333 17.2958333,44.8 14.3333333,44.8 L10.12,44.8 C7.26083333,44.8 4.69,46.5789333 3.41166667,49.4433333 L1.0875,54.6494667 C1.03,54.7782667 1,54.922 1,55.0666667 L1,56 L2.66666667,56 L2.66666667,55.2869333 L4.90333333,50.2777333 C5.8975,48.0498667 7.89666667,46.6666667 10.12,46.6666667 L14.3333333,46.6666667 C17.9241667,46.6666667 20.9308333,43.8246667 21.6608333,40.0437333 C22.9908333,40.698 24.4566667,41.0666667 26,41.0666667 C27.5433333,41.0666667 29.0091667,40.698 30.3391667,40.0437333 C31.0691667,43.8246667 34.0758333,46.6666667 37.6666667,46.6666667 L41.88,46.6666667 C44.1033333,46.6666667 46.1025,48.0498667 47.0975,50.2777333 L49.3333333,55.2869333 L49.3333333,56 L51,56 L51,55.0666667 C51,54.922 50.97,54.7782667 50.9125,54.6494667 Z M26,39.2 C20.9458333,39.2 16.8333333,34.594 16.8333333,28.9333333 L16.8333333,21.0728 C16.8333333,20.7022667 16.6375,20.3662667 16.3341667,20.2178667 C15.3808333,19.7502667 14.6925,18.8253333 14.44,17.7333333 L16,17.7333333 C16.46,17.7333333 16.8333333,17.3161333 16.8333333,16.8 C16.8333333,16.2838667 16.46,15.8666667 16,15.8666667 C14.45,15.8666667 13.1433333,14.6757333 12.7716667,13.0666667 L31,13.0666667 C33.2975,13.0666667 35.1666667,15.1601333 35.1666667,17.7333333 L35.1666667,28.9333333 C35.1666667,34.594 31.0541667,39.2 26,39.2 Z" id="Shape" fill="#44A6F6"></path>
                        <path d="M29.916,54.6740218 L27.6568,49.4984 L29.04,47.3861818 C29.2224,47.1085236 29.2512,46.7373964 29.116,46.4267491 C28.9808,46.1161018 28.7032,45.92 28.4,45.92 L23.6,45.92 C23.2968,45.92 23.02,46.1161018 22.884,46.4267491 C22.748,46.7373964 22.7784,47.1085236 22.96,47.3861818 L24.3432,49.4984 L22.084,54.6740218 C22.0288,54.80048 22,54.9416 22,55.0836364 L22,56 L23.6,56 L23.6,55.2998982 L25.4272,51.1148655 C25.5768,51.2981382 25.7776,51.4181818 26,51.4181818 C26.2224,51.4181818 26.4232,51.2981382 26.5728,51.1148655 L28.4,55.2998982 L28.4,56 L30,56 L30,55.0836364 C30,54.9416 29.9712,54.80048 29.916,54.6740218 Z M26,48.97424 L25.2,47.7527273 L26.8,47.7527273 L26,48.97424 Z" id="Shape" fill="#326EAA"></path>
                        <path d="M28.7983854,3.846528 L26.8497982,5.901056 L26.8497982,0 L25.1502018,0 L25.1502018,5.901056 L23.2016146,3.846528 L22,5.113472 L25.3991927,8.697472 C25.5649033,8.872192 25.7824517,8.96 26,8.96 C26.2175483,8.96 26.4350967,8.872192 26.6008073,8.697472 L30,5.113472 L28.7983854,3.846528 Z" id="Shape" fill="#44A6F6"></path>
                        <path d="M46,22.1271978 L40.7313317,22.1271978 L42.5656859,20.2175823 L41.4345141,19.04 L38.2345941,22.3712088 C37.921802,22.6968345 37.921802,23.2231655 38.2345941,23.5487912 L41.4345141,26.88 L42.5656859,25.7024177 L40.7313317,23.7928022 L46,23.7928022 L46,22.1271978 Z" id="Shape" fill="#44A6F6"></path>
                        <path d="M12.7654059,22.3712088 L9.56548586,19.04 L8.43431414,20.2175823 L10.2686683,22.1271978 L5,22.1271978 L5,23.7928022 L10.2686683,23.7928022 L8.43431414,25.7024177 L9.56548586,26.88 L12.7654059,23.5487912 C13.078198,23.2231655 13.078198,22.6968345 12.7654059,22.3712088 Z" id="Shape" fill="#44A6F6"></path>
                        <rect id="Rectangle-path" fill="#44A6F6" x="48" y="22.4" width="1" height="1.12"></rect>
                        <rect id="Rectangle-path" fill="#44A6F6" x="2" y="22.4" width="1" height="1.12"></rect>
                        <path d="M21.5,21.28 C19.56975,21.28 18,23.03812 18,25.2 C18,27.36188 19.56975,29.12 21.5,29.12 C23.43025,29.12 25,27.36188 25,25.2 C25,23.03812 23.43025,21.28 21.5,21.28 Z M21.5,27.16 C20.534875,27.16 19.75,26.28094 19.75,25.2 C19.75,24.11906 20.534875,23.24 21.5,23.24 C22.465125,23.24 23.25,24.11906 23.25,25.2 C23.25,26.28094 22.465125,27.16 21.5,27.16 Z" id="Shape" fill="#326EAA"></path>
                        <path d="M30.5,21.28 C28.56975,21.28 27,23.03812 27,25.2 C27,27.36188 28.56975,29.12 30.5,29.12 C32.43025,29.12 34,27.36188 34,25.2 C34,23.03812 32.43025,21.28 30.5,21.28 Z M30.5,27.16 C29.534875,27.16 28.75,26.28094 28.75,25.2 C28.75,24.11906 29.534875,23.24 30.5,23.24 C31.465125,23.24 32.25,24.11906 32.25,25.2 C32.25,26.28094 31.465125,27.16 30.5,27.16 Z" id="Shape" fill="#326EAA"></path>
                        <path d="M48.5,0 L38.5,0 C37.1216667,0 36,1.206016 36,2.688 L36,8.064 C36,9.545984 37.1216667,10.752 38.5,10.752 L38.5,12.544 C38.5,12.86656 38.6616667,13.164032 38.9225,13.32352 C39.05,13.401472 39.1916667,13.44 39.3333333,13.44 C39.4816667,13.44 39.63,13.396992 39.7625,13.311872 L43.7308333,10.752 L48.5,10.752 C49.8783333,10.752 51,9.545984 51,8.064 L51,2.688 C51,1.206016 49.8783333,0 48.5,0 Z M49.3333333,8.064 C49.3333333,8.558592 48.9591667,8.96 48.5,8.96 L43.5,8.96 C43.3491667,8.96 43.2008333,9.003904 43.0708333,9.088128 L40.1666667,10.960768 L40.1666667,9.856 C40.1666667,9.360512 39.7933333,8.96 39.3333333,8.96 L38.5,8.96 C38.0408333,8.96 37.6666667,8.558592 37.6666667,8.064 L37.6666667,2.688 C37.6666667,2.193408 38.0408333,1.792 38.5,1.792 L48.5,1.792 C48.9591667,1.792 49.3333333,2.193408 49.3333333,2.688 L49.3333333,8.064 Z" id="Shape" fill="#326EAA"></path>
                        <rect id="Rectangle-path" fill="#326EAA" x="40" y="4.48" width="2" height="2.24"></rect>
                        <rect id="Rectangle-path" fill="#326EAA" x="43" y="4.48" width="2" height="2.24"></rect>
                        <rect id="Rectangle-path" fill="#326EAA" x="46" y="4.48" width="2" height="2.24"></rect>
                        <path d="M12.6816667,33.6079911 L13.3166667,30.1927531 C13.3858333,29.8200513 13.2291667,29.4410782 12.9258333,29.2466641 C12.6225,29.051354 12.2383333,29.084503 11.9666667,29.3281926 L7.19833333,33.6008237 L2.5,33.6008237 C1.12166667,33.6008237 0,34.8067289 0,36.2885766 L0,39.8722471 C0,41.3540949 1.12166667,42.56 2.5,42.56 L12.5,42.56 C13.8783333,42.56 15,41.3540949 15,39.8722471 L15,36.2885766 C15,34.8721308 13.9758333,33.7083338 12.6816667,33.6079911 Z M13.3333333,39.8722471 C13.3333333,40.3667937 12.9591667,40.7681647 12.5,40.7681647 L2.5,40.7681647 C2.04083333,40.7681647 1.66666667,40.3667937 1.66666667,39.8722471 L1.66666667,36.2885766 C1.66666667,35.7940301 2.04083333,35.392659 2.5,35.392659 L7.5,35.392659 C7.695,35.392659 7.88333333,35.3191937 8.03333333,35.185702 L11.22,32.3304125 L10.85,34.3211415 C10.8008333,34.5845413 10.8641667,34.8577962 11.0225,35.0647531 C11.1808333,35.2717101 11.4166667,35.392659 11.6666667,35.392659 L12.5,35.392659 C12.9591667,35.392659 13.3333333,35.7940301 13.3333333,36.2885766 L13.3333333,39.8722471 Z" id="Shape" fill="#326EAA"></path>
                        <rect id="Rectangle-path" fill="#326EAA" x="9" y="36.96" width="2" height="2.24"></rect>
                        <rect id="Rectangle-path" fill="#326EAA" x="6" y="36.96" width="2" height="2.24"></rect>
                        <rect id="Rectangle-path" fill="#326EAA" x="3" y="36.96" width="2" height="2.24"></rect>
                        <path d="M30.4,31.36 C30.4,32.841984 29.3232,34.048 28,34.048 L28,35.84 C30.2056,35.84 32,33.830272 32,31.36 L30.4,31.36 Z" id="Shape" fill="#326EAA"></path>
                        <path d="M10.4285714,0 L3.57142857,0 C2.15371429,0 1,1.27559385 1,2.84307692 L1,6.63384615 C1,8.20132923 2.15371429,9.47692308 3.57142857,9.47692308 L5.04828571,9.47692308 L9.13,12.18448 C9.26628571,12.2745108 9.41885714,12.32 9.57142857,12.32 C9.71714286,12.32 9.86285714,12.2792492 9.994,12.1968 C10.2622857,12.0281108 10.4285714,11.7134769 10.4285714,11.3723077 L10.4285714,9.47692308 C11.8462857,9.47692308 13,8.20132923 13,6.63384615 L13,2.84307692 C13,1.27559385 11.8462857,0 10.4285714,0 Z M11.2857143,6.63384615 C11.2857143,7.15697231 10.9008571,7.58153846 10.4285714,7.58153846 L9.57142857,7.58153846 C9.09828571,7.58153846 8.71428571,8.00515692 8.71428571,8.52923077 L8.71428571,9.69773538 L5.72714286,7.71611077 C5.59342857,7.62797538 5.44085714,7.58153846 5.28571429,7.58153846 L3.57142857,7.58153846 C3.09914286,7.58153846 2.71428571,7.15697231 2.71428571,6.63384615 L2.71428571,2.84307692 C2.71428571,2.31995077 3.09914286,1.89538462 3.57142857,1.89538462 L10.4285714,1.89538462 C10.9008571,1.89538462 11.2857143,2.31995077 11.2857143,2.84307692 L11.2857143,6.63384615 Z" id="Shape" fill="#326EAA"></path>
                        <rect id="Rectangle-path" fill="#326EAA" x="7" y="3.36" width="2" height="2.24"></rect>
                        <rect id="Rectangle-path" fill="#326EAA" x="4" y="3.36" width="2" height="2.24"></rect>
                        <path d="M46.4285714,34.2031378 L44.9517143,34.2031378 L40.87,31.4955982 C40.6051429,31.3193286 40.2751429,31.3145901 40.0068571,31.4832783 C39.7377143,31.6519664 39.5714286,31.9665983 39.5714286,32.3077653 L39.5714286,34.2031378 C38.1537143,34.2031378 37,35.4787234 37,37.0461964 L37,40.8369413 C37,42.4044143 38.1537143,43.68 39.5714286,43.68 L46.4285714,43.68 C47.8462857,43.68 49,42.4044143 49,40.8369413 L49,37.0461964 C49,35.4787234 47.8462857,34.2031378 46.4285714,34.2031378 Z M47.2857143,40.8369413 C47.2857143,41.3600641 46.9008571,41.7846276 46.4285714,41.7846276 L39.5714286,41.7846276 C39.0991429,41.7846276 38.7142857,41.3600641 38.7142857,40.8369413 L38.7142857,37.0461964 C38.7142857,36.5230736 39.0991429,36.0985102 39.5714286,36.0985102 L40.4285714,36.0985102 C40.9017143,36.0985102 41.2857143,35.6748945 41.2857143,35.150824 L41.2857143,33.9823269 L44.2728571,35.9639388 C44.4065714,36.0520736 44.5591429,36.0985102 44.7142857,36.0985102 L46.4285714,36.0985102 C46.9008571,36.0985102 47.2857143,36.5230736 47.2857143,37.0461964 L47.2857143,40.8369413 Z" id="Shape" fill="#326EAA"></path>
                        <rect id="Rectangle-path" fill="#326EAA" x="40" y="36.96" width="2" height="2.24"></rect>
                        <rect id="Rectangle-path" fill="#326EAA" x="43" y="36.96" width="2" height="2.24"></rect>
                    </g>
                </g>
            </g>
        </g>
    </g>
</svg>