<?xml version="1.0" encoding="UTF-8" standalone="no"?>
<svg width="28px" height="30px" viewBox="0 0 28 30" version="1.1" xmlns="http://www.w3.org/2000/svg" xmlns:xlink="http://www.w3.org/1999/xlink">
    <!-- Generator: Sketch 48.1 (47250) - http://www.bohemiancoding.com/sketch -->
    <title>Group 2</title>
    <desc>Created with Sketch.</desc>
    <defs></defs>
    <g id="Почему-INTShop/02-Карьера" stroke="none" stroke-width="1" fill="none" fill-rule="evenodd" transform="translate(-193.000000, -1627.000000)">
        <g id="условия-работы" transform="translate(188.000000, 1514.000000)" fill="#44A6F6" fill-rule="nonzero">
            <g id="иконки" transform="translate(3.000000, 67.000000)">
                <g id="столб-1">
                    <g id="2" transform="translate(2.000000, 46.000000)">
                        <g id="Group-2">
                            <path d="M5.18518519,21.5789474 L5.18518519,22.6315789 C5.18518519,23.5263158 5.85925926,24.2105263 6.74074074,24.2105263 L21.2592593,24.2105263 C22.1407407,24.2105263 22.8148148,23.5263158 22.8148148,22.6315789 L22.8148148,21.5789474 C22.8148148,20.6842105 22.1407407,20 21.2592593,20 L6.74074074,20 C5.85925926,20 5.18518519,20.6842105 5.18518519,21.5789474 Z M18.6666667,21.5789474 C18.6666667,21.2631579 18.8740741,21.0526316 19.1851852,21.0526316 L21.2592593,21.0526316 C21.5703704,21.0526316 21.7777778,21.2631579 21.7777778,21.5789474 L21.7777778,22.6315789 C21.7777778,22.9473684 21.5703704,23.1578947 21.2592593,23.1578947 L19.1851852,23.1578947 C18.8740741,23.1578947 18.6666667,22.9473684 18.6666667,22.6315789 L18.6666667,21.5789474 Z M10.2666667,21.0526316 L17.7333333,21.0526316 C17.6814815,21.2105263 17.6296296,21.3684211 17.6296296,21.5789474 L17.6296296,22.6315789 C17.6296296,22.8421053 17.6814815,23 17.7333333,23.1578947 L10.2666667,23.1578947 C10.3185185,23 10.3703704,22.8421053 10.3703704,22.6315789 L10.3703704,21.5789474 C10.3703704,21.3684211 10.3185185,21.2105263 10.2666667,21.0526316 Z M9.33333333,21.5789474 L9.33333333,22.6315789 C9.33333333,22.9473684 9.12592593,23.1578947 8.81481481,23.1578947 L6.74074074,23.1578947 C6.42962963,23.1578947 6.22222222,22.9473684 6.22222222,22.6315789 L6.22222222,21.5789474 C6.22222222,21.2631579 6.42962963,21.0526316 6.74074074,21.0526316 L8.81481481,21.0526316 C9.12592593,21.0526316 9.33333333,21.2631579 9.33333333,21.5789474 Z M26.4444444,5.26315789 L25.9259259,5.26315789 C25.7185185,5.26315789 25.562963,5.31578947 25.4074074,5.36842105 L25.4074074,2.63157895 C25.4074074,1.78947368 24.7333333,1.10526316 23.9037037,1.05263158 C23.3851852,0.894736842 19.8074074,0 14,0 C8.19259259,0 4.61481481,0.894736842 4.0962963,1.05263158 C3.26666667,1.10526316 2.59259259,1.78947368 2.59259259,2.63157895 L2.59259259,5.36842105 C2.43703704,5.31578947 2.28148148,5.26315789 2.07407407,5.26315789 L1.55555556,5.26315789 C0.674074074,5.26315789 0,5.94736842 0,6.84210526 L0,11.0526316 C0,11.9473684 0.674074074,12.6315789 1.55555556,12.6315789 L2.07407407,12.6315789 C2.28148148,12.6315789 2.43703704,12.5789474 2.59259259,12.5263158 L2.59259259,26.3157895 C2.59259259,27.2105263 3.26666667,27.8947368 4.14814815,27.8947368 L4.71851852,27.8947368 C4.66666667,28 4.66666667,28.1052632 4.66666667,28.2105263 L4.66666667,28.6315789 C4.66666667,29.3684211 5.28888889,30 6.01481481,30 L7.46666667,30 C8.19259259,30 8.81481481,29.3684211 8.81481481,28.6315789 L8.81481481,28.2105263 C8.81481481,28.1052632 8.81481481,28 8.76296296,27.8947368 L19.237037,27.8947368 C19.237037,28 19.1851852,28.1052632 19.1851852,28.2105263 L19.1851852,28.6315789 C19.1851852,29.3684211 19.8074074,30 20.5333333,30 L21.9851852,30 C22.7111111,30 23.3333333,29.3684211 23.3333333,28.6315789 L23.3333333,28.2105263 C23.3333333,28.1052632 23.3333333,28 23.2814815,27.8947368 L23.8518519,27.8947368 C24.7333333,27.8947368 25.4074074,27.2105263 25.4074074,26.3157895 L25.4074074,12.5263158 C25.562963,12.5789474 25.7185185,12.6315789 25.9259259,12.6315789 L26.4444444,12.6315789 C27.3259259,12.6315789 28,11.9473684 28,11.0526316 L28,6.84210526 C28,5.94736842 27.3259259,5.26315789 26.4444444,5.26315789 Z M2.59259259,11.0526316 C2.59259259,11.3684211 2.38518519,11.5789474 2.07407407,11.5789474 L1.55555556,11.5789474 C1.24444444,11.5789474 1.03703704,11.3684211 1.03703704,11.0526316 L1.03703704,6.84210526 C1.03703704,6.52631579 1.24444444,6.31578947 1.55555556,6.31578947 L2.07407407,6.31578947 C2.38518519,6.31578947 2.59259259,6.52631579 2.59259259,6.84210526 L2.59259259,11.0526316 Z M10.8888889,1.15789474 C11.8222222,1.10526316 12.8592593,1.05263158 14,1.05263158 C15.1407407,1.05263158 16.1777778,1.10526316 17.1111111,1.15789474 L17.1111111,3.15789474 C17.1111111,3.47368421 16.9037037,3.68421053 16.5925926,3.68421053 L11.4074074,3.68421053 C11.0962963,3.68421053 10.8888889,3.47368421 10.8888889,3.15789474 L10.8888889,1.15789474 Z M7.77777778,28.6315789 C7.77777778,28.7894737 7.62222222,28.9473684 7.46666667,28.9473684 L6.01481481,28.9473684 C5.85925926,28.9473684 5.7037037,28.7894737 5.7037037,28.6315789 L5.7037037,28.2105263 C5.7037037,28.0526316 5.85925926,27.8947368 6.01481481,27.8947368 L7.46666667,27.8947368 C7.62222222,27.8947368 7.77777778,28.0526316 7.77777778,28.2105263 L7.77777778,28.6315789 Z M22.2962963,28.6315789 C22.2962963,28.7894737 22.1407407,28.9473684 21.9851852,28.9473684 L20.5333333,28.9473684 C20.3777778,28.9473684 20.2222222,28.7894737 20.2222222,28.6315789 L20.2222222,28.2105263 C20.2222222,28.0526316 20.3777778,27.8947368 20.5333333,27.8947368 L21.9851852,27.8947368 C22.1407407,27.8947368 22.2962963,28.0526316 22.2962963,28.2105263 L22.2962963,28.6315789 Z M24.3703704,26.3157895 C24.3703704,26.6315789 24.162963,26.8421053 23.8518519,26.8421053 L4.14814815,26.8421053 C3.83703704,26.8421053 3.62962963,26.6315789 3.62962963,26.3157895 L3.62962963,14.9473684 C5.13333333,15.5789474 8.71111111,16.8421053 14,16.8421053 C19.2888889,16.8421053 22.8666667,15.5789474 24.3703704,14.9473684 L24.3703704,26.3157895 Z M24.3703704,13.8421053 C23.5407407,14.2105263 20.7407407,15.3684211 16.3851852,15.7368421 C16.7481481,15.3157895 16.9555556,14.7894737 17.0592593,14.2631579 L21.2592593,14.2631579 C21.5703704,14.2631579 21.7777778,14.0526316 21.7777778,13.7368421 C21.7777778,13.4210526 21.5703704,13.2105263 21.2592593,13.2105263 L15.037037,13.2105263 C14.7259259,13.2105263 14.5185185,13.4210526 14.5185185,13.7368421 C14.5185185,14.0526316 14.7259259,14.2631579 15.037037,14.2631579 L16.0222222,14.2631579 C15.8148148,15.1578947 14.9851852,15.8421053 14,15.8421053 C8.34814815,15.8421053 4.61481481,14.3157895 3.62962963,13.8947368 L3.62962963,2.63157895 C3.62962963,2.31578947 3.83703704,2.10526316 4.14814815,2.10526316 L4.3037037,2.10526316 C4.35555556,2.10526316 6.32592593,1.52631579 9.85185185,1.26315789 L9.85185185,3.15789474 C9.85185185,4.05263158 10.5259259,4.73684211 11.4074074,4.73684211 L16.5925926,4.73684211 C17.4740741,4.73684211 18.1481481,4.05263158 18.1481481,3.15789474 L18.1481481,1.21052632 C21.6740741,1.52631579 23.6962963,2.05263158 23.6962963,2.10526316 L23.8518519,2.10526316 C24.162963,2.10526316 24.3703704,2.31578947 24.3703704,2.63157895 L24.3703704,13.8421053 Z M26.962963,11.0526316 C26.962963,11.3684211 26.7555556,11.5789474 26.4444444,11.5789474 L25.9259259,11.5789474 C25.6148148,11.5789474 25.4074074,11.3684211 25.4074074,11.0526316 L25.4074074,6.84210526 C25.4074074,6.52631579 25.6148148,6.31578947 25.9259259,6.31578947 L26.4444444,6.31578947 C26.7555556,6.31578947 26.962963,6.52631579 26.962963,6.84210526 L26.962963,11.0526316 Z M7.1037037,9.84210526 L9.6962963,7.21052632 C9.9037037,7 9.9037037,6.68421053 9.6962963,6.47368421 C9.48888889,6.26315789 9.17777778,6.26315789 8.97037037,6.47368421 L6.37777778,9.10526316 C6.17037037,9.31578947 6.17037037,9.63157895 6.37777778,9.84210526 C6.48148148,9.94736842 6.63703704,10 6.74074074,10 C6.84444444,10 7,9.94736842 7.1037037,9.84210526 Z M11.562963,7 L6.8962963,11.7368421 C6.68888889,11.9473684 6.68888889,12.2631579 6.8962963,12.4736842 C7,12.5789474 7.15555556,12.6315789 7.25925926,12.6315789 C7.36296296,12.6315789 7.51851852,12.5789474 7.62222222,12.4736842 L12.2888889,7.73684211 C12.4962963,7.52631579 12.4962963,7.21052632 12.2888889,7 C12.0814815,6.78947368 11.7703704,6.78947368 11.562963,7 Z" id="Shape"></path>
                        </g>
                    </g>
                </g>
            </g>
        </g>
    </g>
</svg>