<?xml version="1.0" encoding="UTF-8" standalone="no"?>
<svg width="33px" height="30px" viewBox="0 0 33 30" version="1.1" xmlns="http://www.w3.org/2000/svg" xmlns:xlink="http://www.w3.org/1999/xlink">
    <!-- Generator: Sketch 48.1 (47250) - http://www.bohemiancoding.com/sketch -->
    <title>desk (2)</title>
    <desc>Created with Sketch.</desc>
    <defs></defs>
    <g id="Почему-INTShop/02-Карьера" stroke="none" stroke-width="1" fill="none" fill-rule="evenodd" transform="translate(-720.000000, -1673.000000)">
        <g id="условия-работы" transform="translate(188.000000, 1514.000000)" fill="#44A6F6" fill-rule="nonzero">
            <g id="иконки" transform="translate(3.000000, 67.000000)">
                <g id="столб-2" transform="translate(529.000000, 0.000000)">
                    <g id="6" transform="translate(0.000000, 92.000000)">
                        <g id="desk-(2)">
                            <g>
                                <path d="M19.0779858,6.05769231 L13.9220142,6.05769231 C13.5852227,6.05769231 13.3157895,6.41666667 13.3157895,6.86538462 C13.3157895,7.31410256 13.5852227,7.67307692 13.9220142,7.67307692 L19.0779858,7.67307692 C19.4147773,7.67307692 19.6842105,7.31410256 19.6842105,6.86538462 C19.6842105,6.41666667 19.4147773,6.05769231 19.0779858,6.05769231 Z" id="Shape"></path>
                                <path d="M25.9627385,28.6717352 C25.5924194,28.6717352 25.2961641,28.9669052 25.2961641,29.3358676 C25.2961641,29.7048301 25.5924194,30 25.9627385,30 L28.0769242,30 C28.4472434,30 28.7434987,29.7048301 28.7434987,29.3358676 L28.7434987,20.1386404 L30.2449745,20.1386404 C30.6152936,20.1386404 30.9115489,19.8434705 30.9115489,19.4745081 L30.9115489,17.0259392 L32.3254948,17.0259392 C32.6958139,17.0259392 32.9920692,16.7307692 32.9920692,16.3618068 C32.9920692,15.9928444 32.6958139,15.6976744 32.3254948,15.6976744 L26.5215838,15.6976744 L25.8146109,11.8000894 C25.646284,10.8810376 24.845048,10.2169052 23.9158836,10.2169052 L23.1348469,10.2169052 L22.6837309,2.63640429 C22.5962009,1.16055456 21.3640481,0 19.8760384,0 L13.1227639,0 C11.6347542,0 10.4026014,1.15384615 10.3150714,2.63640429 L9.86395539,10.2169052 L9.08291865,10.2169052 C8.14702117,10.2169052 7.34578521,10.8810376 7.1841914,11.8000894 L6.47721849,15.6976744 L0.66657446,15.6976744 C0.296255315,15.6976744 0,15.9928444 0,16.3618068 C0,16.7307692 0.296255315,17.0259392 0.66657446,17.0259392 L2.08052028,17.0259392 L2.08052028,19.4745081 C2.08052028,19.8434705 2.3767756,20.1386404 2.74709474,20.1386404 L4.19470594,20.1386404 L4.19470594,29.3358676 C4.19470594,29.7048301 4.49096126,30 4.8612804,30 L6.97546606,30 C7.34578521,30 7.64204052,29.7048301 7.64204052,29.3358676 C7.64204052,28.9669052 7.34578521,28.6717352 6.97546606,28.6717352 L5.52785486,28.6717352 L5.52785486,20.1386404 L27.4103497,20.1386404 L27.4103497,28.6717352 L25.9627385,28.6717352 Z M23.9091506,11.5451699 C24.1986728,11.5451699 24.4477966,11.7531306 24.5016612,12.0348837 L25.1682357,15.6976744 L23.4647676,15.6976744 L23.2156438,11.5451699 L23.9091506,11.5451699 Z M11.6482204,2.71690519 C11.6953519,1.93872987 12.3417271,1.33497317 13.1227639,1.33497317 L19.8693054,1.33497317 C20.6503421,1.33497317 21.2967173,1.94543828 21.3438489,2.71690519 L22.1248856,15.6976744 L10.8671836,15.6976744 L11.6482204,2.71690519 Z M8.49040802,12.0348837 C8.54427262,11.7531306 8.78666333,11.5451699 9.08291865,11.5451699 L9.78315848,11.5451699 L9.5340347,15.6976744 L7.83056663,15.6976744 L8.49040802,12.0348837 Z M3.4136692,18.8103757 L3.4136692,17.0259392 L7.02933067,17.0259392 L25.9627385,17.0259392 L29.5784,17.0259392 L29.5784,18.8103757 L3.4136692,18.8103757 Z" id="Shape"></path>
                                <path d="M23.1,21.6605792 C23.1,21.2935908 22.8085223,21 22.4441751,21 L9.97687753,21 C9.61253036,21 9.32105263,21.2935908 9.32105263,21.6605792 C9.32105263,22.0275676 9.61253036,22.3211584 9.97687753,22.3211584 L15.5547014,22.3211584 L15.5547014,24.8433698 L12.8717814,24.8433698 C12.5074342,24.8433698 12.2159565,25.1369606 12.2159565,25.503949 L12.2159565,28.82019 C12.2159565,29.1871785 12.5074342,29.4807692 12.8717814,29.4807692 C13.2361285,29.4807692 13.5276063,29.1871785 13.5276063,28.82019 L13.5276063,26.1645282 L15.5547014,26.1645282 L15.5547014,28.82019 C15.5547014,29.1871785 15.8461791,29.4807692 16.2105263,29.4807692 C16.5748735,29.4807692 16.8663512,29.1871785 16.8663512,28.82019 L16.8663512,26.1645282 L18.8934464,26.1645282 L18.8934464,28.82019 C18.8934464,29.1871785 19.1849241,29.4807692 19.5492713,29.4807692 C19.9136184,29.4807692 20.2050962,29.1871785 20.2050962,28.82019 L20.2050962,25.503949 C20.2050962,25.1369606 19.9136184,24.8433698 19.5492713,24.8433698 L16.8663512,24.8433698 L16.8663512,22.3211584 L22.4441751,22.3211584 C22.8085223,22.3211584 23.1,22.0275676 23.1,21.6605792 Z" id="Shape"></path>
                            </g>
                        </g>
                    </g>
                </g>
            </g>
        </g>
    </g>
</svg>