<?xml version="1.0" encoding="UTF-8" standalone="no"?>
<svg width="26px" height="30px" viewBox="0 0 26 30" version="1.1" xmlns="http://www.w3.org/2000/svg" xmlns:xlink="http://www.w3.org/1999/xlink">
    <!-- Generator: Sketch 48.1 (47250) - http://www.bohemiancoding.com/sketch -->
    <title>money-bag</title>
    <desc>Created with Sketch.</desc>
    <defs></defs>
    <g id="Почему-Ossystem/02-Карьера" stroke="none" stroke-width="1" fill="none" fill-rule="evenodd" transform="translate(-724.000000, -1627.000000)">
        <g id="условия-работы" transform="translate(188.000000, 1514.000000)" fill="#44A6F6" fill-rule="nonzero">
            <g id="иконки" transform="translate(3.000000, 67.000000)">
                <g id="столб-2" transform="translate(529.000000, 0.000000)">
                    <g id="5" transform="translate(4.000000, 46.000000)">
                        <g id="money-bag">
                            <path d="M13.5445217,18.2726546 L11.8400937,18.2726546 C11.2203016,18.2726546 10.7182701,17.7642091 10.7182701,17.1364985 C10.7182701,16.5087879 11.2203016,16.0003424 11.8400937,16.0003424 L14.8398871,16.0003424 C15.2489498,16.0003424 15.5836375,15.6613787 15.5836375,15.2470897 C15.5836375,14.8328007 15.2489498,14.493837 14.8398871,14.493837 L13.4329592,14.493837 L13.4329592,13.4455604 C13.4329592,13.0312714 13.0982715,12.6923077 12.6892087,12.6923077 C12.280146,12.6923077 11.9454583,13.0312714 11.9454583,13.4455604 L11.9454583,14.493837 L11.8400937,14.493837 C10.4021762,14.493837 9.23076923,15.68021 9.23076923,17.1364985 C9.23076923,18.592787 10.4021762,19.77916 11.8400937,19.77916 L13.5445217,19.77916 C14.1643138,19.77916 14.6663453,20.2876056 14.6663453,20.9153161 C14.6663453,21.5430267 14.1643138,22.0514723 13.5445217,22.0514723 L10.488947,22.0514723 C10.0798843,22.0514723 9.74519661,22.390436 9.74519661,22.8047249 C9.74519661,23.2190139 10.0798843,23.5579776 10.488947,23.5579776 L11.9516562,23.5579776 L11.9516562,24.6313627 C11.9516562,25.0456517 12.2863439,25.3846154 12.6954067,25.3846154 C13.1044694,25.3846154 13.4391571,25.0456517 13.4391571,24.6313627 L13.4391571,23.5579776 L13.5631155,23.5579776 C13.5693134,23.5579776 13.5755113,23.5579776 13.5817092,23.5579776 C15.0072309,23.5391463 16.1538462,22.3590504 16.1538462,20.9153161 C16.1538462,19.4590276 14.9824392,18.2726546 13.5445217,18.2726546 Z" id="Shape"></path>
                            <path d="M23.9224812,17.1330561 C23.1484102,15.3243243 22.0794549,13.5717256 20.7279023,11.9313929 C19.0937523,9.93555094 17.4657458,8.6008316 16.6363839,7.98336798 L19.7695286,2.08316008 C19.9231142,1.79002079 19.8739668,1.42827443 19.6343734,1.1975052 C18.8234418,0.392931393 17.9633629,0 17.0049892,0 C16.12648,0 15.3216919,0.336798337 14.6213419,0.636174636 C14.068434,0.866943867 13.5462432,1.09147609 13.1223472,1.09147609 C12.9933353,1.09147609 12.8827537,1.07276507 12.7721722,1.02910603 C11.310038,0.486486486 10.1857919,0.14968815 9.09840643,0.14968815 C7.72228014,0.14968815 6.54888674,0.711018711 5.40006702,1.90852391 C5.1604736,2.15800416 5.12361308,2.55093555 5.31405913,2.84407484 L8.69294065,8.02702703 C7.8574354,8.65696466 6.26014595,9.97920998 4.65671308,11.9313929 C3.31130389,13.5717256 2.23620523,15.3243243 1.46213419,17.1330561 C0.491473676,19.4095634 0,21.7858628 0,24.1933472 C0,27.3929314 2.56794996,30 5.71952491,30 L19.6650905,30 C22.8166654,30 25.3846154,27.3929314 25.3846154,24.1933472 C25.3846154,21.7858628 24.8931417,19.4095634 23.9224812,17.1330561 Z M6.88677489,2.53222453 C7.59941172,1.90852391 8.28133145,1.63409563 9.09840643,1.63409563 C9.97077221,1.63409563 10.9537196,1.93347193 12.2622682,2.42619543 C12.5325787,2.52598753 12.8213195,2.57588358 13.1162037,2.57588358 C13.834984,2.57588358 14.5230471,2.28898129 15.1803932,2.00831601 C15.8131655,1.74012474 16.4152208,1.48440748 16.9988458,1.48440748 C17.2814431,1.48440748 17.6807655,1.53430353 18.184526,1.8960499 L15.235684,7.45945946 L10.099784,7.45945946 L6.88677489,2.53222453 Z M19.6650905,28.5031185 L5.71952491,28.5031185 C3.37888153,28.5031185 1.47442103,26.5696466 1.47442103,24.1933472 C1.47442103,20.1954262 2.91812495,16.4033264 5.75638543,12.9230769 C7.55026435,10.7214137 9.37486038,9.35550936 9.92776826,8.95634096 L15.4445603,8.95634096 C16.0036116,9.34927235 17.8220642,10.7214137 19.6159431,12.9230769 C22.460347,16.4033264 23.8979075,20.1891892 23.8979075,24.1933472 C23.9101944,26.5696466 22.0057339,28.5031185 19.6650905,28.5031185 Z" id="Shape"></path>
                        </g>
                    </g>
                </g>
            </g>
        </g>
    </g>
</svg>