<?xml version="1.0" encoding="UTF-8" standalone="no"?>
<svg width="29px" height="30px" viewBox="0 0 29 30" version="1.1" xmlns="http://www.w3.org/2000/svg" xmlns:xlink="http://www.w3.org/1999/xlink">
    <!-- Generator: Sketch 48.1 (47250) - http://www.bohemiancoding.com/sketch -->
    <title>palm-tree</title>
    <desc>Created with Sketch.</desc>
    <defs></defs>
    <g id="Почему-Ossystem/02-Карьера" stroke="none" stroke-width="1" fill="none" fill-rule="evenodd" transform="translate(-182.000000, -1717.000000)">
        <g id="общая" transform="translate(95.000000, 251.000000)" fill="#44A6F6">
            <g id="3" transform="translate(87.000000, 1462.000000)">
                <g id="palm-tree" transform="translate(0.000000, 4.000000)">
                    <path d="M28.1906352,8.84863784 C27.2968173,7.48638326 26.1997559,6.74622241 25.0180096,6.70813623 C24.1768651,6.68135872 23.4315222,7.01733737 22.8047381,7.49030907 C22.8980369,6.70725732 22.8141087,5.88945926 22.3697898,5.16957196 C21.7457411,4.15853051 20.5602117,3.57270655 18.9414218,3.47514735 C18.7357919,3.46336993 18.5465752,3.58489413 18.4713773,3.77743439 C18.3962377,3.97003325 18.4528107,4.18940961 18.6115293,4.3209534 C18.6247995,4.3319105 19.5549358,5.11859508 20.4159856,6.74012862 C19.7688887,6.28953987 19.0414139,6.00834672 18.2602182,5.91676412 C16.8355923,5.74930214 15.3647536,6.27196164 14.51354,7.24755365 C14.3939336,7.38454669 14.3623878,7.57820024 14.4321146,7.74659973 C14.5018413,7.91499921 14.6607927,8.02873039 14.8415701,8.03968749 C14.8667136,8.04121094 16.5627966,8.15002021 18.601111,8.61537467 C18.5681683,8.63031617 18.5351674,8.64484751 18.5023412,8.66113667 C17.4886841,9.1636398 16.8007289,10.1602671 16.457508,11.6233621 C16.4148455,11.8052969 16.4814293,11.995552 16.6280417,12.1102792 C16.7130758,12.1768422 16.8158616,12.2109439 16.9194041,12.2109439 C16.9943109,12.2109439 17.0696833,12.1931313 17.1387698,12.156803 L19.4055878,10.9668737 C18.2514878,12.542528 16.7193617,15.2160603 15.7338165,19.2164563 C15.6707248,19.4725712 15.8258348,19.7316158 16.0801803,19.7951318 C16.1185359,19.8046826 16.1570078,19.8093116 16.1948395,19.8093116 C16.407803,19.8093116 16.6015013,19.6639396 16.6549895,19.4464968 C17.5110339,15.9720416 18.8063335,13.5637063 19.7422901,12.1551623 C20.4909505,11.0284561 21.1347881,10.34478 21.4238806,10.0611259 L21.4551936,10.7885132 C21.171805,11.105273 20.2536584,12.2173307 19.303966,14.2949608 C18.3066639,16.4770056 17.0821387,20.194978 16.8440317,25.5938983 C16.4767149,25.5606755 16.1057313,25.5347183 15.7316048,25.515851 C15.365452,18.6928007 13.4708399,13.9977129 11.9278298,11.2439067 C11.3045378,10.131556 10.6920715,9.24192154 10.1603322,8.55549148 L13.1382118,10.1188411 C13.2073565,10.1551108 13.2826125,10.172982 13.3575775,10.172982 C13.4610618,10.172982 13.5639641,10.1388802 13.6489399,10.0723173 C13.7954941,9.95759006 13.862078,9.76733497 13.8194736,9.58545883 C13.4190977,7.87902243 12.6197427,6.71815582 11.4436421,6.13520298 C11.3230463,6.07543698 11.2015192,6.023464 11.0795846,5.97822934 C13.6191984,5.37248338 15.7827067,5.23379111 15.8136705,5.23185751 C15.9945643,5.22090041 16.1535157,5.10722783 16.2231842,4.93876975 C16.292911,4.77037026 16.2613651,4.57671671 16.1417587,4.43972367 C15.1516737,3.30510723 13.439294,2.69760345 11.7792385,2.89266326 C10.7474222,3.0136601 9.79557633,3.41883841 8.96880791,4.07374483 C10.0402602,1.91800875 11.2810822,0.860092007 11.2973207,0.846498173 C11.4559811,0.715012979 11.5126122,0.495695207 11.4374726,0.303037758 C11.3623912,0.110438902 11.1723596,-0.010733727 10.9674282,0.000750719483 C9.07933472,0.114423302 7.69894285,0.794232222 6.9753095,1.96652468 C6.42104582,2.86447949 6.35137726,3.89708357 6.50159826,4.87121073 C5.73891095,4.25269126 4.81570077,3.79659467 3.76648188,3.83081363 C2.39615907,3.87475921 1.12088116,4.73796771 0.0784137818,6.32674714 C-0.0347321385,6.49913102 -0.024488475,6.72483555 0.103033496,6.88673109 C0.230497264,7.04856804 0.447418481,7.10944732 0.639719984,7.03778672 C0.660207311,7.03016949 2.19099479,6.47704104 4.5821336,6.62200288 C3.60479497,7.01499361 2.77977263,7.64218502 2.15921615,8.48125274 C1.16115738,9.83079239 0.826550439,11.627288 1.30707138,13.0578633 C1.36509941,13.2306573 1.51584423,13.3551112 1.69551576,13.3785489 C1.71594489,13.3812442 1.73637401,13.3825333 1.75662853,13.3825333 C1.91453227,13.3825333 2.06388023,13.303021 2.15246464,13.168196 C2.16957622,13.1421216 3.3714024,11.3257626 5.16305409,9.41518434 C5.14093708,9.54409139 5.12475675,9.67610393 5.11585175,9.81104618 C5.02883881,11.1279489 5.62727829,12.4054764 6.89452424,13.6082378 C6.9842145,13.693375 7.1012018,13.7383753 7.22010978,13.7383753 C7.2802331,13.7383753 7.34082204,13.7268909 7.39850085,13.7032774 C7.57054784,13.6329645 7.68602186,13.4681393 7.69405383,13.2813412 L7.84351819,9.8108118 C9.25336059,11.6141629 12.3130149,16.5173184 12.7593709,25.5165541 C10.6583722,25.625129 8.66528118,25.9606975 6.92537164,26.5033376 C4.7744933,27.174123 3.16070887,28.1132109 2.25845164,29.2191162 C2.14198817,29.3618515 2.11765947,29.5594309 2.19611662,29.7264241 C2.27457377,29.8934759 2.44161533,30 2.62512823,30 L25.9082189,30 C26.0916736,30 26.2587734,29.8934759 26.3372305,29.7264241 C26.4156295,29.5594309 26.391359,29.3618515 26.2748955,29.2191162 C25.292435,28.01489 23.4091142,26.9844539 20.9719371,26.3173599 C20.7191049,26.2481016 20.4582989,26.3984541 20.3895616,26.6530456 C20.3208242,26.907637 20.470114,27.1701386 20.7230044,27.2393383 C22.3945841,27.6968411 23.7691557,28.3217474 24.7173348,29.0445644 L3.81851504,29.0445644 C4.65040529,28.4124511 5.81329391,27.8502991 7.20614114,27.4159409 C9.26796945,26.7729291 11.7094535,26.4330833 14.2665863,26.4330833 C15.8132631,26.4330833 17.3189652,26.5573028 18.7416704,26.8023434 C19.0003229,26.8470507 19.2452396,26.6720887 19.2894154,26.412048 C19.3335912,26.1520073 19.1600309,25.9050917 18.9017276,25.8606188 C18.5359241,25.7976301 18.1648823,25.7423758 17.7894171,25.6949146 C18.012857,20.4532023 19.1856983,16.8562854 20.1399887,14.751116 C20.6428012,13.6419294 21.1377564,12.8219048 21.5186345,12.266374 L21.6261929,14.7637723 C21.6342249,14.9505118 21.7497571,15.1153956 21.9217459,15.1857085 C21.9794829,15.209322 22.0400718,15.2208064 22.100137,15.2208064 C22.2190449,15.2208064 22.3360904,15.1758647 22.4257225,15.0906689 C23.5123075,14.0594125 24.0252473,12.9610072 23.9502823,11.8260978 C23.947896,11.7894179 23.9438218,11.7533825 23.9402132,11.7171713 C25.3602993,13.2610091 26.3024835,14.6849632 26.3163358,14.7061157 C26.404862,14.8409408 26.5542099,14.9203944 26.7120555,14.9203944 C26.73231,14.9203944 26.7527973,14.9190467 26.7732264,14.91641 C26.952898,14.8929138 27.103701,14.7685184 27.1616708,14.5957244 C27.5747349,13.3655996 27.2881451,11.8223478 26.4314606,10.6640593 C25.9621727,10.0296022 25.3570982,9.53647415 24.6466186,9.19785876 C25.1963425,9.17940162 25.6719744,9.20371818 26.0523286,9.24262467 C27.0379902,9.34346514 27.6235087,9.55768522 27.6281649,9.55944305 C27.8207575,9.63192397 28.0376205,9.57145484 28.1657245,9.40967649 C28.2939449,9.24778095 28.3039557,9.0213147 28.1906352,8.84863784 Z M3.76857718,5.63650846 C2.95793089,5.63650846 2.26584337,5.70863782 1.71856401,5.7984626 C2.36985148,5.15492344 3.07451077,4.808808 3.79668905,4.78548754 C4.58027111,4.76029207 5.38742524,5.12175917 6.17234596,5.84188084 C5.29016864,5.69252444 4.48336373,5.63650846 3.76857718,5.63650846 Z M2.03667321,11.6823078 C2.03338205,10.7867554 2.34290366,9.8326674 2.9204484,9.05178364 C3.65450002,8.05919933 4.74614862,7.42146098 6.07101517,7.19165487 C4.28454353,8.78277805 2.83628739,10.5986683 2.03667321,11.6823078 Z M6.79610359,12.0744782 C6.26174521,11.3482042 6.01548986,10.6133168 6.06234298,9.88030442 C6.11687885,9.02787724 6.55828763,8.30218912 6.98043133,7.79382658 L6.79610359,12.0744782 Z M12.5493758,8.73203555 L8.77202481,6.74909352 C9.41760842,6.63512796 10.260208,6.61327236 11.0242339,6.99208331 C11.6806432,7.31739784 12.1911967,7.90070225 12.5493758,8.73203555 Z M11.8888923,3.84141916 C12.0616959,3.8211456 12.2347323,3.81124319 12.4071867,3.81124319 C13.1934461,3.81124319 13.9630595,4.01743588 14.5933941,4.38722334 C13.2613104,4.54208759 10.9751109,4.89576167 8.71277453,5.65684062 C9.57324227,4.61714665 10.668092,3.98462318 11.8888923,3.84141916 Z M7.5011703,5.06990337 C7.27447104,4.02540468 7.36718783,3.14139527 7.78124137,2.47055125 C8.16264323,1.85273491 8.81282485,1.411697 9.69226665,1.16601188 C9.03160856,1.97912241 8.16904552,3.26942341 7.5011703,5.06990337 Z M14.2666445,25.4777062 C14.0796976,25.4776476 13.893391,25.4798742 13.7076664,25.4833898 C13.4001819,19.2575894 11.8564734,14.9694377 10.5985981,12.4499493 C9.41528032,10.079876 8.27479971,8.80129379 7.9035251,8.41879141 L7.94252087,7.51433266 C8.52169528,8.01789048 9.85936642,9.48397383 11.1290569,11.7632263 C12.6038534,14.4105084 14.4140717,18.9200287 14.7795261,25.4829211 C14.6089342,25.4799328 14.4381676,25.4777062 14.2666445,25.4777062 Z M17.760374,10.7527122 C18.0474876,10.1738609 18.4341859,9.76124118 18.9165111,9.52065374 C19.3047227,9.3269416 19.7205805,9.26061306 20.1084428,9.26061306 C20.2613994,9.26061306 20.4100489,9.27092562 20.5508411,9.28785932 L17.760374,10.7527122 Z M16.1169062,7.20665496 C16.7159277,6.91098906 17.4379314,6.782082 18.1503898,6.86563721 C19.0797113,6.97462227 19.9213796,7.42673445 20.6060754,8.16912189 C18.9017276,7.62302474 17.2116395,7.34370659 16.1169062,7.20665496 Z M21.8389235,7.55921575 C21.3373914,6.28672736 20.7267876,5.33123313 20.2205411,4.67626811 C20.7545503,4.86048801 21.2514262,5.16810711 21.5635669,5.67383292 C21.8690143,6.16860162 21.9603924,6.80768763 21.8389235,7.55921575 Z M22.5225135,13.5193505 L22.3859701,10.3496433 C22.6853062,10.7513645 22.9630492,11.2800592 23.0032672,11.889438 C23.0391783,12.4322539 22.8778988,12.9775893 22.5225135,13.5193505 Z M25.6704029,11.2345316 C26.0987743,11.8137344 26.3491039,12.5074887 26.3945019,13.177571 C25.7288966,12.2919796 24.6429518,10.9584361 23.3207044,9.74624108 C24.3016516,9.97165264 25.1117159,10.4791949 25.6704029,11.2345316 Z M23.228395,8.36646687 C23.7929606,7.90199132 24.3663729,7.66204842 24.9250018,7.66204842 C24.9458966,7.66204842 24.9668495,7.66234139 24.9876278,7.66304452 C25.5786756,7.68208761 26.0919646,7.96134716 26.5176587,8.33453308 C25.7008429,8.22103628 24.5736907,8.16683672 23.228395,8.36646687 Z" id="Shape" fill-rule="nonzero"></path>
                    <rect id="Rectangle-15" transform="translate(19.895983, 26.548807) rotate(12.000000) translate(-19.895983, -26.548807) " x="18.4744296" y="26.0584225" width="2.84310646" height="1" rx="0.5"></rect>
                </g>
            </g>
        </g>
    </g>
</svg>