<?xml version="1.0" encoding="UTF-8" standalone="no"?>
<svg width="42px" height="56px" viewBox="0 0 42 56" version="1.1" xmlns="http://www.w3.org/2000/svg" xmlns:xlink="http://www.w3.org/1999/xlink">
    <!-- Generator: Sketch 48.1 (47250) - http://www.bohemiancoding.com/sketch -->
    <title>resume</title>
    <desc>Created with Sketch.</desc>
    <defs></defs>
    <g id="Почему-INTShop/02-Карьера" stroke="none" stroke-width="1" fill="none" fill-rule="evenodd" transform="translate(-207.000000, -476.000000)">
        <g id="схема-1" transform="translate(96.000000, 378.000000)" fill-rule="nonzero">
            <g id="иконки" transform="translate(92.000000, 98.000000)">
                <g id="1">
                    <g id="resume" transform="translate(19.000000, 0.000000)">
                        <path d="M41.2518428,8.67253333 L32.7590939,0.2744 C32.5882573,0.104533333 32.3522952,0 32.0908492,0 L4.71924252,0 C2.1170522,0 0,2.09346667 0,4.66666667 L0,44.8 C0,47.3732 2.1170522,49.4666667 4.71924252,49.4666667 L15.1015761,49.4666667 L15.1015761,56 L16.9892731,56 L16.9892731,49.4666667 L31.1470007,49.4666667 C31.668005,49.4666667 32.0908492,49.0494667 32.0908492,48.5333333 L32.0908492,43.8666667 C32.0908492,42.1306667 33.2961437,40.6662667 34.9223947,40.2518667 L34.9223947,48.5333333 L34.9223947,56 L36.8100917,56 L36.8100917,49.4666667 C39.412282,49.4666667 41.5293342,47.3732 41.5293342,44.8 L41.5293342,9.33333333 C41.5293342,9.0748 41.4236232,8.84146667 41.2518428,8.67253333 Z M33.0346977,3.1864 L38.3070354,8.4 L33.0346977,8.4 L33.0346977,3.1864 Z M39.6416372,44.8 C39.6416372,46.3437333 38.3712171,47.6 36.8100917,47.6 L36.8100917,39.2 C36.8100917,38.6838667 36.3872476,38.2666667 35.8662432,38.2666667 C32.7430485,38.2666667 30.2031522,40.7782667 30.2031522,43.8666667 L30.2031522,47.6 L4.71924252,47.6 C3.1581171,47.6 1.88769701,46.3437333 1.88769701,44.8 L1.88769701,4.66666667 C1.88769701,3.12293333 3.1581171,1.86666667 4.71924252,1.86666667 L31.1470007,1.86666667 L31.1470007,9.33333333 C31.1470007,9.84946667 31.5698448,10.2666667 32.0908492,10.2666667 L39.6416372,10.2666667 L39.6416372,44.8 Z" id="Shape" fill="#44A6F6"></path>
                        <path d="M18.8900791,5.46341463 L5.56608438,5.46341463 C5.0407383,5.46341463 4.61437047,5.88315854 4.61437047,6.40243902 L4.61437047,19.5487805 C4.61437047,20.068061 5.0407383,20.4878049 5.56608438,20.4878049 L9.37294001,20.4878049 L15.0832235,20.4878049 L18.8900791,20.4878049 C19.4154252,20.4878049 19.841793,20.068061 19.841793,19.5487805 L19.841793,6.40243902 C19.841793,5.88315854 19.4154252,5.46341463 18.8900791,5.46341463 Z M14.1315096,18.6097561 L10.3246539,18.6097561 L10.3246539,16.7317073 C10.3246539,15.6959634 11.1783413,14.8536585 12.2280817,14.8536585 C13.2778222,14.8536585 14.1315096,15.6959634 14.1315096,16.7317073 L14.1315096,18.6097561 Z M11.2763678,12.0365854 C11.2763678,11.5182439 11.7036874,11.097561 12.2280817,11.097561 C12.7524761,11.097561 13.1797956,11.5182439 13.1797956,12.0365854 C13.1797956,12.5549268 12.7524761,12.9756098 12.2280817,12.9756098 C11.7036874,12.9756098 11.2763678,12.5549268 11.2763678,12.0365854 Z M17.9383652,18.6097561 L16.0349374,18.6097561 L16.0349374,16.7317073 C16.0349374,15.5006463 15.423937,14.4170122 14.4941126,13.7315244 C14.858619,13.2582561 15.0832235,12.675122 15.0832235,12.0365854 C15.0832235,10.483439 13.8022165,9.2195122 12.2280817,9.2195122 C10.6539469,9.2195122 9.37294001,10.483439 9.37294001,12.0365854 C9.37294001,12.675122 9.5975445,13.2582561 9.96205092,13.7315244 C9.03222643,14.4170122 8.4212261,15.5006463 8.4212261,16.7317073 L8.4212261,18.6097561 L6.51779829,18.6097561 L6.51779829,7.34146341 L17.9383652,7.34146341 L17.9383652,18.6097561 Z" id="Shape" fill="#326EAA"></path>
                        <rect id="Rectangle-path" fill="#326EAA" x="21.6875412" y="8.19512195" width="4.61437047" height="1.82113821"></rect>
                        <rect id="Rectangle-path" fill="#326EAA" x="21.6875412" y="12.2926829" width="5.53724456" height="1.82113821"></rect>
                        <rect id="Rectangle-path" fill="#326EAA" x="29.0705339" y="12.2926829" width="4.61437047" height="1.82113821"></rect>
                        <rect id="Rectangle-path" fill="#326EAA" x="21.6875412" y="15.9349593" width="12.4588003" height="1.82113821"></rect>
                        <rect id="Rectangle-path" fill="#326EAA" x="9.22874094" y="23.2195122" width="7.38299275" height="1.82113821"></rect>
                        <rect id="Rectangle-path" fill="#326EAA" x="18.9189189" y="23.2195122" width="5.53724456" height="1.82113821"></rect>
                        <rect id="Rectangle-path" fill="#326EAA" x="26.3019117" y="23.2195122" width="9.22874094" height="1.82113821"></rect>
                        <rect id="Rectangle-path" fill="#326EAA" x="5.53724456" y="26.8617886" width="7.38299275" height="1.82113821"></rect>
                        <rect id="Rectangle-path" fill="#326EAA" x="15.2274225" y="26.8617886" width="15.2274225" height="1.82113821"></rect>
                        <rect id="Rectangle-path" fill="#326EAA" x="32.3005933" y="26.8617886" width="3.69149637" height="1.82113821"></rect>
                        <rect id="Rectangle-path" fill="#326EAA" x="5.53724456" y="30.9593496" width="3.69149637" height="1.82113821"></rect>
                        <rect id="Rectangle-path" fill="#326EAA" x="11.5359262" y="30.9593496" width="11.5359262" height="1.82113821"></rect>
                        <rect id="Rectangle-path" fill="#326EAA" x="24.4561635" y="30.9593496" width="11.5359262" height="1.82113821"></rect>
                        <rect id="Rectangle-path" fill="#326EAA" x="5.53724456" y="34.601626" width="3.69149637" height="1.82113821"></rect>
                        <rect id="Rectangle-path" fill="#326EAA" x="11.5359262" y="34.601626" width="11.5359262" height="1.82113821"></rect>
                        <rect id="Rectangle-path" fill="#326EAA" x="24.4561635" y="34.601626" width="11.5359262" height="1.82113821"></rect>
                        <rect id="Rectangle-path" fill="#326EAA" x="5.53724456" y="38.2439024" width="8.30586684" height="1.82113821"></rect>
                        <rect id="Rectangle-path" fill="#326EAA" x="16.1502966" y="38.2439024" width="13.3816744" height="1.82113821"></rect>
                        <rect id="Rectangle-path" fill="#326EAA" x="5.53724456" y="41.8861789" width="3.69149637" height="1.82113821"></rect>
                        <rect id="Rectangle-path" fill="#326EAA" x="11.5359262" y="41.8861789" width="16.1502966" height="1.82113821"></rect>
                    </g>
                </g>
            </g>
        </g>
    </g>
</svg>