<?xml version="1.0" encoding="UTF-8" standalone="no"?>
<svg width="30px" height="30px" viewBox="0 0 30 30" version="1.1" xmlns="http://www.w3.org/2000/svg" xmlns:xlink="http://www.w3.org/1999/xlink">
    <!-- Generator: Sketch 48.1 (47250) - http://www.bohemiancoding.com/sketch -->
    <title>rewind-time</title>
    <desc>Created with Sketch.</desc>
    <defs></defs>
    <g id="Почему-Ossystem/02-Карьера" stroke="none" stroke-width="1" fill="none" fill-rule="evenodd" transform="translate(-180.000000, -1619.000000)">
        <g id="общая" transform="translate(95.000000, 251.000000)" fill="#44A6F6" fill-rule="nonzero">
            <g id="1" transform="translate(85.000000, 1368.000000)">
                <g id="rewind-time">
                    <path d="M14.9925,26 C21.058,26 25.9925,21.0655 25.9925,15 C25.9925,8.9345 21.058,4 14.9925,4 C8.927,4 3.9925,8.9345 3.9925,15 C3.9925,21.0655 8.9275,26 14.9925,26 Z M14.9925,5 C20.5065,5 24.9925,9.486 24.9925,15 C24.9925,20.514 20.5065,25 14.9925,25 C9.4785,25 4.9925,20.514 4.9925,15 C4.9925,9.486 9.479,5 14.9925,5 Z" id="Shape"></path>
                    <path d="M14.9925,7.5 C15.2685,7.5 15.4925,7.2765 15.4925,7 L15.4925,6 C15.4925,5.7235 15.2685,5.5 14.9925,5.5 C14.7165,5.5 14.4925,5.7235 14.4925,6 L14.4925,7 C14.4925,7.2765 14.7165,7.5 14.9925,7.5 Z" id="Shape"></path>
                    <path d="M14.9925,22.5 C14.7165,22.5 14.4925,22.7235 14.4925,23 L14.4925,24 C14.4925,24.2765 14.7165,24.5 14.9925,24.5 C15.2685,24.5 15.4925,24.2765 15.4925,24 L15.4925,23 C15.4925,22.7235 15.269,22.5 14.9925,22.5 Z" id="Shape"></path>
                    <path d="M22.9925,15.5 L23.9925,15.5 C24.2685,15.5 24.4925,15.2765 24.4925,15 C24.4925,14.7235 24.2685,14.5 23.9925,14.5 L22.9925,14.5 C22.7165,14.5 22.4925,14.7235 22.4925,15 C22.4925,15.2765 22.7165,15.5 22.9925,15.5 Z" id="Shape"></path>
                    <path d="M6.9925,14.5 L5.9925,14.5 C5.7165,14.5 5.4925,14.7235 5.4925,15 C5.4925,15.2765 5.7165,15.5 5.9925,15.5 L6.9925,15.5 C7.2685,15.5 7.4925,15.2765 7.4925,15 C7.4925,14.7235 7.269,14.5 6.9925,14.5 Z" id="Shape"></path>
                    <path d="M9.4925,20.5 C9.6205,20.5 9.7485,20.451 9.846,20.3535 L13.983,16.2165 C14.2805,16.3925 14.623,16.5 14.9925,16.5 C16.0955,16.5 16.9925,15.603 16.9925,14.5 C16.9925,13.5705 16.3525,12.7945 15.4925,12.571 L15.4925,10 C15.4925,9.7235 15.2685,9.5 14.9925,9.5 C14.7165,9.5 14.4925,9.7235 14.4925,10 L14.4925,12.571 C13.6325,12.7945 12.9925,13.5705 12.9925,14.5 C12.9925,14.87 13.1,15.212 13.276,15.5095 L9.139,19.6465 C8.9435,19.842 8.9435,20.158 9.139,20.3535 C9.237,20.451 9.365,20.5 9.4925,20.5 Z M14.9925,13.5 C15.544,13.5 15.9925,13.9485 15.9925,14.5 C15.9925,15.0515 15.544,15.5 14.9925,15.5 C14.441,15.5 13.9925,15.0515 13.9925,14.5 C13.9925,13.9485 14.441,13.5 14.9925,13.5 Z" id="Shape"></path>
                    <path d="M5.0345,5 L8.993,5 C9.269,5 9.493,4.7765 9.493,4.5 C9.493,4.2235 9.269,4 8.993,4 L6.342,4 C8.804,2.0575 11.8295,1 14.993,1 C22.7125,1 28.993,7.2805 28.993,15 C28.993,15.2765 29.217,15.5 29.493,15.5 C29.769,15.5 29.993,15.2765 29.993,15 C29.993,6.729 23.264,0 14.993,0 C11.5025,0 8.1715,1.204 5.493,3.405 L5.493,0.5 C5.493,0.2235 5.269,0 4.993,0 C4.717,0 4.493,0.2235 4.493,0.5 L4.493,5 L4.9395,5 C4.9715,5.0035 5.002,5.0025 5.0345,5 Z" id="Shape"></path>
                    <path d="M2.4025,21.1145 C2.2775,20.8645 1.9825,20.765 1.7325,20.8845 C1.4825,21.0045 1.3825,21.3045 1.5025,21.5545 C1.5875,21.73 1.7675,21.835 1.9525,21.835 C2.0225,21.835 2.0975,21.82 2.1675,21.7845 C2.4175,21.665 2.523,21.3645 2.4025,21.1145 Z" id="Shape"></path>
                    <path d="M3.9275,23.57 C3.7575,23.3505 3.4475,23.31 3.2275,23.48 C3.0075,23.65 2.9675,23.965 3.1375,24.1795 C3.2375,24.31 3.3875,24.375 3.5325,24.375 C3.6425,24.375 3.7475,24.34 3.8425,24.27 C4.0575,24.1 4.0975,23.7845 3.9275,23.57 Z" id="Shape"></path>
                    <path d="M3.1025,22.38 C2.9575,22.145 2.6475,22.075 2.4125,22.22 C2.1775,22.3705 2.1075,22.675 2.2525,22.91 C2.3475,23.0605 2.5125,23.1455 2.6775,23.1455 C2.7675,23.1455 2.8575,23.1205 2.9425,23.0705 C3.1775,22.925 3.2475,22.6145 3.1025,22.38 Z" id="Shape"></path>
                    <path d="M4.1675,24.65 C3.9675,24.84 3.9625,25.155 4.1525,25.355 C4.2475,25.46 4.3825,25.51 4.5125,25.51 C4.6375,25.51 4.7625,25.465 4.8575,25.3705 C5.0575,25.18 5.0675,24.865 4.8725,24.6655 C4.6825,24.465 4.3675,24.46 4.1675,24.65 Z" id="Shape"></path>
                    <path d="M5.2225,25.715 C5.0425,25.925 5.0675,26.24 5.2775,26.42 C5.3725,26.5 5.4875,26.54 5.6025,26.54 C5.7425,26.54 5.8825,26.48 5.9825,26.3645 C6.1625,26.1545 6.1375,25.8395 5.9275,25.6595 C5.7175,25.48 5.4025,25.505 5.2225,25.715 Z" id="Shape"></path>
                    <path d="M1.0475,19.01 C1.3125,18.94 1.4775,18.67 1.4125,18.4 C1.3425,18.135 1.0725,17.97 0.8025,18.04 C0.5375,18.105 0.3725,18.375 0.4425,18.645 C0.4975,18.87 0.7025,19.025 0.9275,19.025 C0.9675,19.025 1.0075,19.02 1.0475,19.01 Z" id="Shape"></path>
                    <path d="M0.7075,17.545 C0.9825,17.505 1.1725,17.255 1.1325,16.98 C1.0925,16.705 0.8375,16.515 0.5675,16.5545 C0.2925,16.5945 0.1025,16.85 0.1425,17.12 C0.1775,17.37 0.3925,17.5495 0.6375,17.5495 C0.6625,17.55 0.6825,17.55 0.7075,17.545 Z" id="Shape"></path>
                    <path d="M1.8325,19.7845 C1.7425,19.5245 1.4525,19.39 1.1925,19.4845 C0.9325,19.5795 0.8025,19.8645 0.8975,20.1245 C0.9675,20.3295 1.1625,20.4545 1.3625,20.4545 C1.4225,20.4545 1.4775,20.444 1.5375,20.424 C1.7975,20.33 1.9275,20.045 1.8325,19.7845 Z" id="Shape"></path>
                    <path d="M0.5025,16.06 C0.5075,16.06 0.5175,16.06 0.5225,16.06 C0.7975,16.0495 1.0125,15.815 1.0025,15.54 C0.9925,15.265 0.7575,15.05 0.4825,15.06 C0.2075,15.07 -0.0075,15.2995 0.0025,15.58 C0.0125,15.8445 0.2375,16.06 0.5025,16.06 Z" id="Shape"></path>
                    <path d="M6.3825,26.67 C6.2225,26.895 6.2825,27.205 6.5075,27.365 C6.5975,27.425 6.6925,27.45 6.7925,27.45 C6.9525,27.45 7.1075,27.3755 7.2025,27.235 C7.3625,27.01 7.3025,26.695 7.0775,26.54 C6.8475,26.385 6.5375,26.44 6.3825,26.67 Z" id="Shape"></path>
                    <path d="M24.4625,25.3045 L24.4625,25.3 C24.2575,25.49 24.2425,25.805 24.4325,26.01 C24.5325,26.115 24.6675,26.17 24.8025,26.17 C24.9225,26.17 25.0425,26.125 25.1375,26.04 C25.3425,25.85 25.3525,25.5345 25.1675,25.335 C24.9825,25.13 24.6625,25.1145 24.4625,25.3045 Z" id="Shape"></path>
                    <path d="M25.4775,24.27 C25.2925,24.475 25.3125,24.79 25.5175,24.975 C25.6125,25.06 25.7325,25.1 25.8475,25.1 C25.9875,25.1 26.1225,25.045 26.2225,24.9295 C26.4075,24.725 26.3875,24.4095 26.1825,24.225 C25.9725,24.045 25.6575,24.06 25.4775,24.27 Z" id="Shape"></path>
                    <path d="M26.3775,23.135 C26.2175,23.36 26.2675,23.675 26.4925,23.835 C26.5825,23.9 26.6825,23.9295 26.7825,23.9295 C26.9425,23.9295 27.0925,23.855 27.1925,23.7195 C27.3525,23.495 27.3025,23.185 27.0775,23.02 C26.8525,22.86 26.5375,22.915 26.3775,23.135 Z" id="Shape"></path>
                    <path d="M23.3475,26.225 C23.1275,26.39 23.0825,26.705 23.2475,26.9245 C23.3425,27.06 23.4925,27.1245 23.6475,27.1245 C23.7525,27.1245 23.8575,27.094 23.9425,27.0295 C24.1675,26.8645 24.2125,26.5495 24.0475,26.33 C23.8825,26.105 23.5675,26.06 23.3475,26.225 Z" id="Shape"></path>
                    <path d="M22.1425,27.03 C21.9075,27.175 21.8275,27.48 21.9725,27.715 C22.0625,27.875 22.2325,27.96 22.4025,27.96 C22.4875,27.96 22.5775,27.94 22.6575,27.89 C22.8925,27.75 22.9725,27.44 22.8275,27.205 C22.6875,26.9695 22.3825,26.89 22.1425,27.03 Z" id="Shape"></path>
                    <path d="M27.8425,21.73 C27.6025,21.5945 27.2975,21.6795 27.1575,21.92 L27.1625,21.92 C27.0225,22.1595 27.1075,22.465 27.3475,22.6 C27.4225,22.645 27.5075,22.665 27.5925,22.665 C27.7675,22.665 27.9375,22.5745 28.0275,22.415 C28.1675,22.175 28.0825,21.87 27.8425,21.73 Z" id="Shape"></path>
                    <path d="M29.4675,16 C29.1925,15.9695 28.9475,16.17 28.9175,16.445 C28.8875,16.72 29.0875,16.965 29.3625,16.9955 C29.3825,16.9955 29.3975,16.9955 29.4175,16.9955 C29.6675,16.9955 29.8875,16.805 29.9125,16.5455 C29.9425,16.275 29.7425,16.025 29.4675,16 Z" id="Shape"></path>
                    <path d="M29.2875,17.4895 C29.0175,17.4295 28.7525,17.6045 28.6975,17.875 C28.6375,18.145 28.8125,18.4095 29.0825,18.465 C29.1175,18.4755 29.1525,18.4755 29.1875,18.4755 C29.4175,18.4755 29.6275,18.3155 29.6725,18.0805 C29.7325,17.81 29.5575,17.545 29.2875,17.4895 Z" id="Shape"></path>
                    <path d="M28.9525,18.9495 C28.6925,18.8645 28.4075,19.0095 28.3275,19.2745 C28.2425,19.5345 28.3875,19.8195 28.6475,19.9045 C28.6975,19.9195 28.7525,19.9245 28.8025,19.9245 C29.0125,19.9245 29.2075,19.7895 29.2775,19.58 C29.3625,19.315 29.2175,19.0345 28.9525,18.9495 Z" id="Shape"></path>
                    <path d="M28.4725,20.37 C28.2175,20.2595 27.9225,20.375 27.8125,20.625 C27.6975,20.88 27.8125,21.175 28.0675,21.2845 C28.1325,21.315 28.2025,21.33 28.2675,21.33 C28.4625,21.33 28.6425,21.215 28.7275,21.0295 C28.8375,20.775 28.7225,20.48 28.4725,20.37 Z" id="Shape"></path>
                    <path d="M20.8675,27.71 C20.6125,27.8245 20.5075,28.12 20.6225,28.37 C20.7075,28.5545 20.8875,28.6595 21.0775,28.6595 C21.1475,28.6595 21.2175,28.645 21.2875,28.6145 C21.5375,28.5 21.6475,28.1995 21.5275,27.9495 C21.4125,27.6995 21.1175,27.59 20.8675,27.71 Z" id="Shape"></path>
                    <path d="M12.3825,28.755 C12.1125,28.705 11.8475,28.88 11.7975,29.155 C11.7475,29.425 11.9225,29.6855 12.1975,29.74 C12.2275,29.7455 12.2575,29.7455 12.2875,29.7455 C12.5225,29.7455 12.7325,29.5805 12.7825,29.34 C12.8325,29.07 12.6525,28.8045 12.3825,28.755 Z" id="Shape"></path>
                    <path d="M13.8175,28.9495 C13.5425,28.9245 13.2975,29.1295 13.2775,29.4045 C13.2525,29.685 13.4575,29.9245 13.7325,29.9495 C13.7325,29.9445 13.7325,29.9445 13.7325,29.9445 C13.7475,29.9495 13.7625,29.9495 13.7725,29.9495 C14.0325,29.9495 14.2525,29.75 14.2725,29.4895 C14.2925,29.215 14.0925,28.975 13.8175,28.9495 Z" id="Shape"></path>
                    <path d="M10.9775,28.415 C10.7125,28.335 10.4325,28.485 10.3525,28.745 C10.2775,29.0095 10.4225,29.29 10.6875,29.37 C10.7375,29.3845 10.7875,29.39 10.8325,29.39 C11.0475,29.39 11.2475,29.25 11.3125,29.0345 C11.3925,28.77 11.2425,28.4895 10.9775,28.415 Z" id="Shape"></path>
                    <path d="M9.6125,27.925 C9.3575,27.82 9.0675,27.94 8.9625,28.195 C8.8525,28.45 8.9725,28.74 9.2275,28.8505 C9.2925,28.8755 9.3575,28.885 9.4225,28.885 C9.6175,28.885 9.8025,28.7705 9.8825,28.5805 C9.9875,28.3245 9.8675,28.03 9.6125,27.925 Z" id="Shape"></path>
                    <path d="M16.7075,28.895 C16.4325,28.9295 16.2375,29.1795 16.2725,29.4495 C16.3025,29.705 16.5175,29.89 16.7675,29.89 C16.7875,29.89 16.8075,29.89 16.8275,29.8845 C16.8275,29.89 16.8275,29.89 16.8275,29.89 C17.1025,29.855 17.2975,29.605 17.2625,29.33 C17.2325,29.0545 16.9825,28.86 16.7075,28.895 Z" id="Shape"></path>
                    <path d="M19.523,28.25 C19.263,28.335 19.123,28.62 19.213,28.885 C19.283,29.09 19.478,29.22 19.683,29.22 C19.738,29.22 19.793,29.21 19.848,29.195 C20.108,29.105 20.248,28.82 20.158,28.56 C20.0675,28.295 19.7825,28.1595 19.523,28.25 Z" id="Shape"></path>
                    <path d="M18.1325,28.645 C17.8625,28.705 17.6925,28.975 17.7575,29.245 C17.8075,29.475 18.0175,29.63 18.2425,29.63 C18.2825,29.63 18.3175,29.63 18.3575,29.62 C18.6225,29.56 18.7925,29.29 18.7325,29.02 C18.6675,28.75 18.4025,28.585 18.1325,28.645 Z" id="Shape"></path>
                    <path d="M15.2625,28.995 C14.9875,29 14.7675,29.23 14.7725,29.505 C14.7775,29.78 15.0025,29.995 15.2725,29.995 C15.2775,29.995 15.2775,29.995 15.2825,29.995 C15.5575,29.9895 15.7775,29.765 15.7725,29.4845 C15.7675,29.21 15.5375,28.9895 15.2625,28.995 Z" id="Shape"></path>
                    <path d="M8.3075,27.3 C8.0675,27.165 7.7625,27.255 7.6275,27.5 C7.4975,27.7395 7.5875,28.045 7.8325,28.175 C7.9075,28.22 7.9875,28.24 8.0675,28.24 C8.2475,28.24 8.4175,28.1455 8.5075,27.9755 C8.6425,27.735 8.5525,27.4295 8.3075,27.3 Z" id="Shape"></path>
                </g>
            </g>
        </g>
    </g>
</svg>