<?xml version="1.0" encoding="UTF-8" standalone="no"?>
<svg width="27px" height="32px" viewBox="0 0 27 32" version="1.1" xmlns="http://www.w3.org/2000/svg" xmlns:xlink="http://www.w3.org/1999/xlink">
    <!-- Generator: Sketch 48.1 (47250) - http://www.bohemiancoding.com/sketch -->
    <title>ss-benefit-englishschool</title>
    <desc>Created with Sketch.</desc>
    <defs></defs>
    <g id="Почему-Ossystem/02-Карьера" stroke="none" stroke-width="1" fill="none" fill-rule="evenodd" transform="translate(-723.000000, -1463.000000)">
        <g id="условия-работы" transform="translate(188.000000, 1397.000000)">
            <g id="иконки" transform="translate(3.000000, 67.000000)">
                <g id="столб-2" transform="translate(529.000000, 0.000000)">
                    <g id="4" transform="translate(4.000000, 0.000000)">
                        <g id="ss-benefit-englishschool">
                            <polyline id="Shape" stroke="#44A6F6" stroke-linecap="round" stroke-linejoin="round" points="21.2307692 1.55769231 24.9230769 1.55769231 24.9230769 29.7692308 0.461538462 29.7692308 0.461538462 1.55769231 13.9615385 1.55769231"></polyline>
                            <g id="Group" transform="translate(3.461538, 12.692308)" fill="#44A6F6" fill-rule="nonzero">
                                <path d="M1.61538462,5.88461538 L1.21153846,7.90384615 L0,7.90384615 L1.73076923,0.0576923077 L3.17307692,0.0576923077 L4.78846154,7.90384615 L3.57692308,7.90384615 L3.17307692,5.88461538 L1.61538462,5.88461538 Z M3.05769231,4.90384615 L2.71153846,3.11538462 C2.59615385,2.59615385 2.48076923,1.90384615 2.42307692,1.32692308 L2.36538462,1.32692308 C2.30769231,1.90384615 2.19230769,2.65384615 2.07692308,3.11538462 L1.73076923,4.90384615 L3.05769231,4.90384615 Z" id="Shape"></path>
                                <path d="M6.92307692,0.173076923 C7.32692308,0.0576923077 7.90384615,0 8.48076923,0 C9.17307692,0 9.86538462,0.115384615 10.3269231,0.576923077 C10.7307692,0.923076923 10.9038462,1.44230769 10.9038462,1.96153846 C10.9038462,2.71153846 10.5,3.34615385 9.75,3.69230769 L9.75,3.75 C10.6730769,3.98076923 11.1346154,4.73076923 11.1346154,5.71153846 C11.1346154,6.34615385 10.9038462,6.86538462 10.5576923,7.26923077 C10.0961538,7.78846154 9.34615385,8.01923077 8.19230769,8.01923077 C7.61538462,8.01923077 7.21153846,7.96153846 6.86538462,7.96153846 L6.86538462,0.173076923 L6.92307692,0.173076923 Z M8.13461538,3.34615385 L8.48076923,3.34615385 C9.11538462,3.34615385 9.63461538,2.82692308 9.63461538,2.13461538 C9.63461538,1.5 9.34615385,0.980769231 8.53846154,0.980769231 C8.36538462,0.980769231 8.19230769,0.980769231 8.07692308,1.03846154 L8.07692308,3.34615385 L8.13461538,3.34615385 Z M8.13461538,6.98076923 C8.25,6.98076923 8.36538462,7.03846154 8.53846154,7.03846154 C9.28846154,7.03846154 9.86538462,6.57692308 9.86538462,5.71153846 C9.86538462,4.78846154 9.23076923,4.32692308 8.53846154,4.32692308 L8.19230769,4.32692308 L8.19230769,6.98076923 L8.13461538,6.98076923 Z" id="Shape"></path>
                                <path d="M16.9615385,7.84615385 C16.7307692,7.96153846 16.3269231,8.01923077 15.8076923,8.01923077 C14.0192308,8.01923077 12.9807692,6.57692308 12.9807692,4.09615385 C12.9807692,1.09615385 14.5961538,0 15.9807692,0 C16.5,0 16.8461538,0.115384615 17.0192308,0.173076923 L16.7884615,1.21153846 C16.6153846,1.09615385 16.4423077,1.03846154 16.0384615,1.03846154 C15.1730769,1.03846154 14.3076923,1.84615385 14.3076923,3.98076923 C14.3076923,6.11538462 15.1153846,6.86538462 16.0384615,6.86538462 C16.3269231,6.86538462 16.6153846,6.80769231 16.7884615,6.75 L16.9615385,7.84615385 Z" id="Shape"></path>
                            </g>
                            <polygon id="Shape" stroke="#44A6F6" stroke-linecap="round" stroke-linejoin="round" fill-rule="nonzero" points="17.3076923 6.92307692 20.7692308 9.23076923 20.7692308 0 13.8461538 0 13.8461538 9.23076923"></polygon>
                        </g>
                    </g>
                </g>
            </g>
        </g>
    </g>
</svg>