<?xml version="1.0" encoding="UTF-8" standalone="no"?>
<svg width="56px" height="56px" viewBox="0 0 56 56" version="1.1" xmlns="http://www.w3.org/2000/svg" xmlns:xlink="http://www.w3.org/1999/xlink">
    <!-- Generator: Sketch 48.1 (47250) - http://www.bohemiancoding.com/sketch -->
    <title>target</title>
    <desc>Created with Sketch.</desc>
    <defs></defs>
    <g id="Почему-Ossystem/02-Карьера" stroke="none" stroke-width="1" fill="none" fill-rule="evenodd" transform="translate(-1008.000000, -476.000000)">
        <g id="схема-1" transform="translate(96.000000, 378.000000)" fill-rule="nonzero">
            <g id="иконки" transform="translate(92.000000, 98.000000)">
                <g id="4" transform="translate(795.000000, 0.000000)">
                    <g id="target" transform="translate(25.000000, 0.000000)">
                        <path d="M13.363144,23.0452675 L9.94599177,19.6281152 C9.77361317,19.4548148 9.53855144,19.3580247 9.2942716,19.3580247 L0.997975309,19.3580247 C0.625563786,19.3580247 0.289102881,19.5820247 0.146222222,19.9267819 C0.00334156379,20.2715391 0.082617284,20.6679177 0.346255144,20.9315556 L3.38177778,23.9670782 L0.346255144,27.0026008 C0.082617284,27.2662387 0.00334156379,27.6626173 0.146222222,28.0073745 C0.289102881,28.3521317 0.625563786,28.5761317 0.997975309,28.5761317 L9.2942716,28.5761317 C9.53855144,28.5761317 9.77361317,28.4793416 9.94599177,28.3060412 L13.363144,24.8888889 L31.4177284,24.8888889 L31.4177284,23.0452675 L13.363144,23.0452675 Z M8.91264198,26.7325103 L3.22322634,26.7325103 L5.33693827,24.6187984 C5.69736626,24.2583704 5.69736626,23.675786 5.33693827,23.315358 L3.22322634,21.2016461 L8.91264198,21.2016461 L11.6780741,23.9670782 L8.91264198,26.7325103 Z" id="Shape" fill="#326EAA"></path>
                        <path d="M31.4177284,5.5308642 C22.3111605,5.5308642 14.6628971,12.0600494 13.2313251,21.0569218 L15.052823,21.3463704 C16.3405926,13.250107 23.2228313,7.3744856 31.4177284,7.3744856 C40.5666996,7.3744856 48.010321,14.818107 48.010321,23.9670782 C48.010321,33.1160494 40.5666996,40.5596708 31.4177284,40.5596708 C23.2228313,40.5596708 16.3405926,34.6840494 15.052823,26.587786 L13.2313251,26.8772346 C14.6628971,35.874107 22.3111605,42.4032922 31.4177284,42.4032922 C41.5834568,42.4032922 49.8539424,34.1328066 49.8539424,23.9670782 C49.8539424,13.8013498 41.5834568,5.5308642 31.4177284,5.5308642 Z" id="Shape" fill="#44A6F6"></path>
                        <path d="M31.4177284,9.218107 C24.4313251,9.218107 18.3529053,14.1811358 16.9646584,21.0182058 L18.7714074,21.3850864 C19.9863539,15.4034568 25.3042798,11.0617284 31.4177284,11.0617284 C38.534107,11.0617284 44.3230782,16.8506996 44.3230782,23.9670782 C44.3230782,31.0834568 38.534107,36.872428 31.4177284,36.872428 C25.3042798,36.872428 19.9863539,32.5306996 18.7714074,26.54907 L16.9646584,26.9159506 C18.3529053,33.7530206 24.4313251,38.7160494 31.4177284,38.7160494 C39.5499424,38.7160494 46.1666996,32.0992922 46.1666996,23.9670782 C46.1666996,15.8348642 39.5499424,9.218107 31.4177284,9.218107 Z" id="Shape" fill="#44A6F6"></path>
                        <path d="M31.4177284,15.6707819 C28.0236214,15.6707819 25.0056132,17.7061399 23.7298272,20.8550453 L25.4388642,21.5482469 C26.4316543,19.0980741 28.7785844,17.5144033 31.4177284,17.5144033 C34.9759177,17.5144033 37.8704033,20.4098107 37.8704033,23.9670782 C37.8704033,27.5243457 34.9759177,30.4197531 31.4177284,30.4197531 C28.7785844,30.4197531 26.4316543,28.8360823 25.4388642,26.3859095 L23.7298272,27.0791111 C25.0056132,30.2280165 28.0236214,32.2633745 31.4177284,32.2633745 C35.9917531,32.2633745 39.7140247,28.5420247 39.7140247,23.9670782 C39.7140247,19.3921317 35.9917531,15.6707819 31.4177284,15.6707819 Z" id="Shape" fill="#326EAA"></path>
                        <path d="M31.4177284,19.3580247 C30.3161646,19.3580247 29.243177,19.7663868 28.3951111,20.5075226 L29.608214,21.8957695 C29.9704856,21.5786667 30.5788807,21.2016461 31.4177284,21.2016461 C32.9424033,21.2016461 34.1831605,22.4424033 34.1831605,23.9670782 C34.1831605,25.4917531 32.9424033,26.7325103 31.4177284,26.7325103 C30.5788807,26.7325103 29.9704856,26.3554897 29.6091358,26.0383868 L28.3960329,27.4266337 C29.243177,28.1677695 30.3161646,28.5761317 31.4177284,28.5761317 C33.9591605,28.5761317 36.0267819,26.5085103 36.0267819,23.9670782 C36.0267819,21.4256461 33.9591605,19.3580247 31.4177284,19.3580247 Z" id="Shape" fill="#326EAA"></path>
                        <path d="M55.3848066,23.9670782 C55.3848066,10.7510782 44.6328066,0 31.4177284,0 C20.8298107,0 11.3683457,7.09609877 8.41025514,17.2572181 L10.1801317,17.7725103 C12.910535,8.39308642 21.6437695,1.8436214 31.4177284,1.8436214 C43.6160494,1.8436214 53.5411852,11.7687572 53.5411852,23.9670782 C53.5411852,36.1653992 43.6160494,46.090535 31.4177284,46.090535 C21.6437695,46.090535 12.910535,39.54107 10.1792099,30.1625679 L8.40933333,30.6778601 C10.1533992,36.6668642 14.166963,41.576428 19.3281811,44.610107 L15.9995226,51.9320494 C15.652,52.6962305 15.6621399,53.5673416 16.0262551,54.3241481 C16.3903704,55.0809547 17.0669794,55.6312757 17.8827819,55.8359177 C18.1150782,55.89307 18.3473745,55.9216461 18.5759835,55.9216461 C19.6240823,55.9216461 20.599358,55.3372181 21.0879177,54.3610206 L24.7843786,46.9690206 C26.9109959,47.5857119 29.1344033,47.9341564 31.4177284,47.9341564 C33.7701893,47.9341564 36.0424527,47.5875556 38.193037,46.952428 L41.8959506,54.3582551 C42.3845103,55.3353745 43.359786,55.9188807 44.4078848,55.9188807 C44.6374156,55.9188807 44.8697119,55.8912263 45.1020082,55.8322305 C45.9168889,55.6285103 46.5934979,55.0781893 46.9576132,54.3213827 C47.3226502,53.5664198 47.3318683,52.693465 46.9843457,51.929284 L43.6400165,44.5704691 C50.6651358,40.3891358 55.3848066,32.7205926 55.3848066,23.9670782 Z M19.440642,53.5341564 C19.2341564,53.9462058 18.773251,54.1536132 18.3317037,54.0457613 C18.0450206,53.9738601 17.8164115,53.7885761 17.6882798,53.5221728 C17.5601481,53.2566914 17.5564609,52.9635556 17.6790617,52.6953086 L20.9560988,45.4849053 C21.6290206,45.8139918 22.3166914,46.1108148 23.0200329,46.3772181 L19.440642,53.5341564 Z M45.3066502,52.6943868 C45.4283292,52.9626337 45.424642,53.2566914 45.2974321,53.521251 C45.1693004,53.7876543 44.9406914,53.9729383 44.6558519,54.0439177 C44.2078519,54.1609877 43.7524774,53.9462058 43.54507,53.5332346 L39.9564609,46.3550947 C40.6598025,46.0859259 41.3474733,45.7863374 42.0167078,45.4544856 L45.3066502,52.6943868 Z" id="Shape" fill="#44A6F6"></path>
                    </g>
                </g>
            </g>
        </g>
    </g>
</svg>