<?xml version="1.0" encoding="UTF-8" standalone="no"?>
<svg width="12px" height="20px" viewBox="0 0 12 20" version="1.1" xmlns="http://www.w3.org/2000/svg" xmlns:xlink="http://www.w3.org/1999/xlink">
    <!-- Generator: Sketch 48.1 (47250) - http://www.bohemiancoding.com/sketch -->
    <title>facebook-logo (3)</title>
    <desc>Created with Sketch.</desc>
    <defs></defs>
    <g id="Контакты/01-Контакты-Заполненные" stroke="none" stroke-width="1" fill="none" fill-rule="evenodd" transform="translate(-1078.000000, -1127.000000)">
        <g id="общая-нечист" fill="#326EAA" fill-rule="nonzero">
            <g id="футер" transform="translate(0.000000, 1071.000000)">
                <g id="4столб" transform="translate(1078.000000, 56.000000)">
                    <g id="icons">
                        <g id="facebook-logo-(3)">
                            <path d="M10.8880155,0.00416133496 L8.24961568,0 C5.28546398,0 3.36989893,1.93189975 3.36989893,4.92202699 L3.36989893,7.191411 L0.717105918,7.191411 C0.487873106,7.191411 0.302243211,7.37409361 0.302243211,7.5994299 L0.302243211,10.8875087 C0.302243211,11.112845 0.488084771,11.2953195 0.717105918,11.2953195 L3.36989893,11.2953195 L3.36989893,19.5921892 C3.36989893,19.8175255 3.55552882,20 3.78476164,20 L7.24590193,20 C7.47513474,20 7.66076464,19.8173174 7.66076464,19.5921892 L7.66076464,11.2953195 L10.7624984,11.2953195 C10.9917312,11.2953195 11.1773611,11.112845 11.1773611,10.8875087 L11.1786311,7.5994299 C11.1786311,7.49123519 11.1348165,7.38761795 11.0571356,7.31104938 C10.9794546,7.23448082 10.8736223,7.191411 10.7635567,7.191411 L7.66076464,7.191411 L7.66076464,5.26762585 C7.66076464,4.34297723 7.8849175,3.87357864 9.11024413,3.87357864 L10.8875922,3.87295444 C11.1166133,3.87295444 11.3022432,3.69027184 11.3022432,3.46514362 L11.3022432,0.411972161 C11.3022432,0.187052006 11.116825,0.00457746845 10.8880155,0.00416133496 Z" id="Shape"></path>
                        </g>
                    </g>
                </g>
            </g>
        </g>
    </g>
</svg>