<?xml version="1.0" encoding="UTF-8" standalone="no"?>
<svg width="12px" height="21px" viewBox="0 0 12 21" version="1.1" xmlns="http://www.w3.org/2000/svg" xmlns:xlink="http://www.w3.org/1999/xlink">
    <!-- Generator: Sketch 48.1 (47250) - http://www.bohemiancoding.com/sketch -->
    <title>Shape right</title>
    <desc>Created with Sketch.</desc>
    <defs></defs>
    <g id="Что-Нового/03-Профиль-Мероприятия" stroke="none" stroke-width="1" fill="none" fill-rule="evenodd" transform="translate(-1155.000000, -1277.000000)">
        <g id="общая" fill="#FFFFFF" fill-rule="nonzero" stroke="#FFFFFF">
            <g id="фото" transform="translate(96.000000, 1157.000000)">
                <g id="butoon/arrow" transform="translate(1041.000000, 0.000000)">
                    <path d="M28.4814545,139.960182 C28.3883636,139.960182 28.2952727,139.924545 28.224,139.854 L19.1061818,130.735455 C19.0385455,130.667091 19,130.574727 19,130.478 C19,130.381273 19.0385455,130.288909 19.1061818,130.220545 L28.2247273,121.106364 C28.3665455,120.964545 28.5970909,120.964545 28.7389091,121.106364 C28.8807273,121.248182 28.8807273,121.478727 28.7389091,121.620545 L19.8778182,130.478 L28.7389091,139.339091 C28.8807273,139.480909 28.8807273,139.711455 28.7389091,139.853273 C28.6676364,139.924545 28.5745455,139.960182 28.4814545,139.960182 Z" id="Shape-right" transform="translate(23.922636, 130.480091) rotate(-180.000000) translate(-23.922636, -130.480091) "></path>
                </g>
            </g>
        </g>
    </g>
</svg>