<?xml version="1.0" encoding="UTF-8" standalone="no"?>
<svg width="17px" height="16px" viewBox="0 0 17 16" version="1.1" xmlns="http://www.w3.org/2000/svg" xmlns:xlink="http://www.w3.org/1999/xlink">
    <!-- Generator: Sketch 48.1 (47250) - http://www.bohemiancoding.com/sketch -->
    <title>email</title>
    <desc>Created with Sketch.</desc>
    <defs></defs>
    <g id="Контакты/01-Контакты" stroke="none" stroke-width="1" fill="none" fill-rule="evenodd" transform="translate(-791.000000, -846.000000)" opacity="0.600000024">
        <g id="общая-чист" fill="#FFFFFF" fill-rule="nonzero">
            <g id="Форма-чист" transform="translate(216.000000, 549.000000)">
                <g id="Данные" transform="translate(38.044864, 111.000000)">
                    <g id="контакты" transform="translate(536.632822, 0.000000)">
                        <g id="Group" transform="translate(1.001181, 57.000000)">
                            <g id="Stacked-Group">
                                <g id="mail" transform="translate(0.000000, 129.000000)">
                                    <g id="email">
                                        <path d="M16,15.5908975 C16,15.5908975 16,8.20086934 16,5.73970851 C16,5.63825109 15.869155,5.5106111 15.7416649,5.41569931 L13.1012791,3.54691895 L13.1012791,1.48176937 C13.1012791,1.27885451 12.926819,1.14139606 12.752359,1.14139606 L9.74292304,1.14139606 L8.20968757,0.0515469189 C8.10568253,-0.0171823063 7.93122248,-0.0171823063 7.82386244,0.0515469189 L6.29062697,1.14139606 L3.28119103,1.14139606 C3.07318096,1.14139606 2.93227092,1.31158272 2.93227092,1.48176937 L2.93227092,3.5240092 L0.258335081,5.41897213 C0.100650031,5.51388392 0,5.63825109 0,5.74298133 C0,8.22050626 0,15.6596267 0,15.6596267 C0,15.8527231 0.157685049,15.9869087 0.322080101,16 C0.332145104,16 0.338855106,16 0.348920109,16 L15.6477249,16 C15.87251,15.9967272 16,15.8265405 16,15.5908975 Z M15.3357098,6.3517259 L15.3357098,14.9788801 L9.56175299,10.4689338 L15.3357098,6.3517259 Z M15.0773747,5.7527998 L13.1012791,7.15683968 L13.1012791,4.33566863 L15.0773747,5.7527998 Z M8.0016775,0.696292508 L8.61564269,1.13812324 L7.38435731,1.13812324 L8.0016775,0.696292508 Z M12.4034389,1.82214267 L12.4034389,7.65430836 L8.0016775,10.7831245 L3.59991612,7.65430836 L3.59991612,1.82214267 L12.4034389,1.82214267 Z M0.667645209,6.3517259 L6.44160201,10.4689338 L0.667645209,15.0050626 L0.667645209,6.3517259 Z M2.93562592,7.18302224 L0.909205284,5.74298133 L2.93562592,4.30621324 L2.93562592,7.18302224 Z M1.2950304,15.3487088 L7.00188719,10.8682178 L7.79031243,11.4311429 C7.94128748,11.5424188 8.05535752,11.5424188 8.20968757,11.4311429 L8.99811281,10.8682178 L14.7385196,15.3487088 L1.2950304,15.3487088 Z" id="Shape"></path>
                                        <rect id="Rectangle-path" x="4" y="3" width="4" height="1"></rect>
                                        <rect id="Rectangle-path" x="4" y="6" width="4" height="1"></rect>
                                        <rect id="Rectangle-path" x="4" y="7" width="4" height="1"></rect>
                                    </g>
                                </g>
                            </g>
                        </g>
                    </g>
                </g>
            </g>
        </g>
    </g>
</svg>