<?xml version="1.0" encoding="UTF-8"?>
<svg width="20px" height="20px" viewBox="0 0 20 20" version="1.1" xmlns="http://www.w3.org/2000/svg" xmlns:xlink="http://www.w3.org/1999/xlink">
    <!-- Generator: Sketch 48.2 (47327) - http://www.bohemiancoding.com/sketch -->
    <title>Shape</title>
    <desc>Created with Sketch.</desc>
    <defs></defs>
    <g id="Вакансии/02-Профиль-Вакансии-с-формой" stroke="none" stroke-width="1" fill="none" fill-rule="evenodd" transform="translate(-1171.000000, -1572.000000)">
        <g id="общая" fill="#44A6F6" fill-rule="nonzero">
            <g id="Форма-uk" transform="translate(100.000000, 1556.000000)">
                <g id="linked-in" transform="translate(703.000000, 16.000000)">
                    <path d="M377.044062,10.0030683 L368.191562,18.9177622 C367.945625,19.1654276 367.945625,19.5666643 368.191562,19.8143297 C368.314375,19.9383197 368.475625,20 368.636562,20 C368.797812,20 368.95875,19.9383197 369.081562,19.8143297 L378.000625,10.8326056 L386.919687,19.8143297 C387.042812,19.9383197 387.20375,20 387.364687,20 C387.525625,20 387.686875,19.9383197 387.809687,19.8143297 C388.055625,19.5666643 388.055625,19.1654276 387.809687,18.9177622 L378.9575,10.0030683 L387.815625,1.08208045 C388.061562,0.834415099 388.061562,0.433178346 387.815625,0.185512993 C387.569687,-0.0618376643 387.17125,-0.0618376643 386.925625,0.185512993 L378.000937,9.17353096 L369.075312,0.185827688 C368.829375,-0.0615229688 368.43125,-0.0615229688 368.185312,0.185827688 C367.939375,0.433493041 367.939375,0.834729795 368.185312,1.08239515 L377.044062,10.0030683 Z" id="Shape"></path>
                </g>
            </g>
        </g>
    </g>
</svg>