<?xml version="1.0" encoding="UTF-8" standalone="no"?>
<svg width="35px" height="16px" viewBox="0 0 35 16" version="1.1" xmlns="http://www.w3.org/2000/svg" xmlns:xlink="http://www.w3.org/1999/xlink">
    <!-- Generator: Sketch 48.1 (47250) - http://www.bohemiancoding.com/sketch -->
    <title>icon send</title>
    <desc>Created with Sketch.</desc>
    <defs></defs>
    <g id="Контакты/01-Контакты" stroke="none" stroke-width="1" fill="none" fill-rule="evenodd" transform="translate(-685.000000, -664.000000)">
        <g id="общая-чист" fill="#58ADE7" fill-rule="nonzero">
            <g id="Форма-чист" transform="translate(216.000000, 549.000000)">
                <g id="Данные" transform="translate(38.044864, 111.000000)">
                    <g id="вопросы">
                        <g id="icon-send" transform="translate(431.508855, 4.000000)">
                            <path d="M33.3494477,0 L10.9681596,0 C10.5866831,0 10.2774656,0.314739182 10.2774656,0.703027796 L10.2774656,2.02891658 L3.69423588,2.02891658 C3.31275935,2.02891658 3.00354191,2.34365576 3.00354191,2.73194437 C3.00354191,3.12023299 3.31275935,3.43497217 3.69423588,3.43497217 L10.2774656,3.43497217 L10.2774656,12.5650278 L6.34276517,12.5650278 C5.96128864,12.5650278 5.6520712,12.879767 5.6520712,13.2680556 C5.6520712,13.6563442 5.96128864,13.9710834 6.34276517,13.9710834 L10.2774656,13.9710834 L10.2774656,15.2969722 C10.2774656,15.6852608 10.5866831,16 10.9681596,16 L33.3494477,16 C33.7309242,16 34.0401417,15.6852608 34.0401417,15.2969722 L34.0401417,0.703027796 C34.0401417,0.314739182 33.7309242,0 33.3494477,0 Z M31.6455689,1.40605559 L22.1597856,9.33209257 L12.7172765,1.40605559 L31.6455689,1.40605559 Z M32.6587537,14.5940133 L11.6589213,14.5940133 L11.6589213,2.34014027 L21.7193912,10.7848834 C21.8469789,10.8919333 22.0028744,10.9455617 22.1588375,10.9455617 C22.3142589,10.9455617 22.469748,10.8923469 22.5970649,10.7859174 L32.6587537,2.37867273 L32.6587537,14.5940133 Z" id="Shape"></path>
                            <path d="M9.2255675,7 L0.786238859,7 C0.351992022,7 0,7.44769095 0,8 C0,8.55230905 0.351992022,9 0.786238859,9 L9.2255675,9 C9.65981434,9 10.0118064,8.55230905 10.0118064,8 C10.0118835,7.44769095 9.65981434,7 9.2255675,7 Z" id="Shape"></path>
                            <path d="M4.21585009,14 L3.79359502,14 C3.35724154,14 3.00354191,14.447691 3.00354191,15 C3.00354191,15.552309 3.35724154,16 3.79359502,16 L4.21585009,16 C4.65220356,16 5.00590319,15.552309 5.00590319,15 C5.00590319,14.447691 4.65220356,14 4.21585009,14 Z" id="Shape"></path>
                        </g>
                    </g>
                </g>
            </g>
        </g>
    </g>
</svg>