<?xml version="1.0" encoding="UTF-8" standalone="no"?>
<svg width="20px" height="20px" viewBox="0 0 20 20" version="1.1" xmlns="http://www.w3.org/2000/svg" xmlns:xlink="http://www.w3.org/1999/xlink">
    <!-- Generator: Sketch 48.1 (47250) - http://www.bohemiancoding.com/sketch -->
    <title>inst</title>
    <desc>Created with Sketch.</desc>
    <defs></defs>
    <g id="футер" stroke="none" stroke-width="1" fill="none" fill-rule="evenodd" transform="translate(-1166.000000, -53.000000)">
        <g id="4столб" transform="translate(1091.000000, 47.000000)" fill="#AAB4C2">
            <g id="icons">
                <g id="inst" transform="translate(75.000000, 6.000000)">
                    <path d="M2,0 L18,0 C19.1045695,-2.02906125e-16 20,0.8954305 20,2 L20,18 C20,19.1045695 19.1045695,20 18,20 L2,20 C0.8954305,20 1.3527075e-16,19.1045695 0,18 L0,2 C-1.3527075e-16,0.8954305 0.8954305,2.02906125e-16 2,0 Z M10,5.71428571 C7.11167078,5.71428571 4.76190476,8.06410568 4.76190476,10.9525012 C4.76190476,13.8407765 7.11167078,16.1904762 10,16.1904762 C12.8883292,16.1904762 15.2380952,13.8407765 15.2380952,10.9525012 C15.2380952,8.06410568 12.8883292,5.71428571 10,5.71428571 Z M10,14.2857143 C8.16207448,14.2857143 6.66666667,12.7904875 6.66666667,10.9524977 C6.66666667,9.11439108 8.16195778,7.61904762 10,7.61904762 C11.8380422,7.61904762 13.3333333,9.11439108 13.3333333,10.9524977 C13.3333333,12.7904875 11.8379255,14.2857143 10,14.2857143 Z M15.7142857,2.85714286 C15.338961,2.85714286 14.9702597,3.00909091 14.7051948,3.27532468 C14.4388312,3.54025974 14.2857143,3.90909091 14.2857143,4.28571429 C14.2857143,4.66116883 14.438961,5.02987013 14.7051948,5.2961039 C14.9701299,5.56103896 15.338961,5.71428571 15.7142857,5.71428571 C16.0909091,5.71428571 16.4584416,5.56103896 16.7246753,5.2961039 C16.9909091,5.02987013 17.1428571,4.66103896 17.1428571,4.28571429 C17.1428571,3.90909091 16.9909091,3.54025974 16.7246753,3.27532468 C16.4597403,3.00909091 16.0909091,2.85714286 15.7142857,2.85714286 Z" id="Combined-Shape-Copy"></path>
                </g>
            </g>
        </g>
    </g>
</svg>