<?xml version="1.0" encoding="UTF-8" standalone="no"?>
<svg width="178px" height="13px" viewBox="0 0 178 13" version="1.1" xmlns="http://www.w3.org/2000/svg" xmlns:xlink="http://www.w3.org/1999/xlink">
    <!-- Generator: Sketch 48.1 (47250) - http://www.bohemiancoding.com/sketch -->
    <title>logo</title>
    <desc>Created with Sketch.</desc>
    <defs></defs>
    <g id="Контакты/01-Контакты-Заполненные" stroke="none" stroke-width="1" fill="none" fill-rule="evenodd" transform="translate(-64.000000, -26.000000)">
        <g id="общая-нечист" fill="#FFFFFF" fill-rule="nonzero">
            <g id="хедер">
                <g id="logo" transform="translate(64.000000, 26.000000)">
                    <path d="M30.5065719,7.91361063 C29.9764559,7.90766705 29.4535302,7.78828231 28.9719136,7.56324585 C28.0369565,7.15522954 27.2917824,6.3984694 26.8900128,5.44897559 C26.4762243,4.45245181 26.4762243,3.32846092 26.8900128,2.33193714 C27.3113676,1.41885016 28.0540877,0.699063092 28.9719136,0.314319235 C29.4561987,0.101748542 29.9790148,-0.00526358828 30.5065719,0.000199082184 L48.3514355,0.000199082184 C49.1333009,0.000199082184 49.767128,0.643880989 49.767128,1.43790286 C49.767128,2.23192473 49.1333009,2.87560664 48.3514355,2.87560664 L30.447089,2.87560664 C30.1563602,2.87935528 29.8770482,2.99109806 29.661915,3.18972679 C29.4405358,3.39263709 29.3186373,3.68443659 29.3288109,3.98710872 C29.3271256,4.28110055 29.4481616,4.56205562 29.661915,4.76032756 C29.8698147,4.97183707 30.1528252,5.08941422 30.447089,5.08652926 L46.6740183,5.08652926 C47.2052808,5.08255427 47.7316824,5.18947149 48.2205732,5.40064941 C49.1672247,5.80142328 49.9197325,6.56563105 50.3143705,7.52700122 C50.5223153,8.02349327 50.6275956,8.55807934 50.6236815,9.09760198 C50.6287082,9.63332763 50.523349,10.164199 50.3143705,10.6561212 C50.1081872,11.1080538 49.8218663,11.5175927 49.4697136,11.8642756 C49.1124754,12.2242613 48.6877005,12.5077392 48.2205732,12.6979022 C47.7294328,12.9002131 47.2040153,13.002826 46.6740183,12.9999408 L28.8291547,12.9999408 C28.0472893,12.9999408 27.4134622,12.3562589 27.4134622,11.562237 C27.4134622,10.7682152 28.0472893,10.1245333 28.8291547,10.1245333 L46.7929841,10.1245333 C47.0778178,10.1268472 47.3518191,10.0138035 47.5543649,9.8104131 C47.763127,9.61462076 47.8799363,9.337828 47.8755725,9.0492758 C47.8830574,8.74600578 47.7668172,8.45307288 47.5543649,8.23981233 C47.3553532,8.02965252 47.0800856,7.91171842 46.7929841,7.91361063 L30.5065719,7.91361063 Z M23.9872483,6.47590686 C23.9845327,7.25605506 23.8600567,8.03083432 23.6184545,8.77140028 C23.3802728,9.52447774 23.0182597,10.2311668 22.5477627,10.8615075 C22.0812629,11.4820342 21.4991903,12.0033715 20.8346558,12.3958636 C20.1441424,12.7988663 19.3586809,13.0035052 18.5624098,12.9878593 L5.13117578,12.9878593 C4.366903,12.9610518 3.6235401,12.7274852 2.97789556,12.3112928 C2.35306698,11.9059593 1.80836401,11.3855678 1.37185784,10.7769366 C0.932566109,10.1668807 0.591262308,9.48997095 0.360648899,8.77140028 C-0.1202163,7.30068524 -0.1202163,5.71153619 0.360648899,4.24082115 C0.598404862,3.48756338 0.960453934,2.78080412 1.43134072,2.15071398 C1.8966706,1.52583277 2.47882099,1.00032015 3.14444763,0.6042763 C3.834961,0.201273577 4.62042254,-0.0033652875 5.41669359,0.0122806265 L18.8598242,0.0122806265 C19.624097,0.0390880884 20.3674599,0.272654729 21.0131044,0.68884711 C21.6389969,1.09775529 22.1837705,1.6223124 22.6191421,2.23528479 C23.064442,2.86359998 23.4059842,3.56138567 23.6303511,4.30122887 C23.862631,5.02713221 23.9830183,5.78513865 23.9872483,6.54839612 L23.9872483,6.47590686 Z M17.9437879,10.1003702 C18.5176675,10.1234602 19.0875762,9.99438206 19.5974119,9.72584229 C19.9969219,9.50433915 20.3424618,9.19471055 20.6086208,8.81972646 C20.8551108,8.45613228 21.0251981,8.04486597 21.108277,7.61157203 C21.2930747,6.81706781 21.2930747,5.98976737 21.108277,5.19526315 C21.0251981,4.76196921 20.8551108,4.3507029 20.6086208,3.98710872 C20.3441159,3.60745407 19.9984047,3.29354163 19.5974119,3.06891135 C19.0875762,2.80037157 18.5176675,2.67129345 17.9437879,2.69438347 L6.04721211,2.69438347 C5.46929213,2.66860363 4.89487216,2.79777423 4.3816915,3.06891135 C3.98572108,3.29601691 3.64439066,3.60964127 3.38237914,3.98710872 C3.13558785,4.35053554 2.96547322,4.76186788 2.88272296,5.19526315 C2.69792531,5.98976737 2.69792531,6.81706781 2.88272296,7.61157203 C2.96514196,8.04506929 3.13528422,8.45646844 3.38237914,8.81972646 C3.64601326,9.19254027 3.98718032,9.50188986 4.3816915,9.72584229 C4.89487216,9.99697941 5.46929213,10.12615 6.04721211,10.1003702 L17.9437879,10.1003702 Z" id="Shape"></path>
                    <path d="M56.9513058,7.91361063 C56.4274694,7.90766705 55.9107379,7.78828231 55.4348264,7.56324585 C54.5109443,7.15522954 53.7745972,6.3984694 53.3775868,5.44897559 C52.9719971,4.45595916 52.9719971,3.33703511 53.3775868,2.34401869 C53.7915766,1.42638165 54.5257948,0.701992416 55.4348264,0.314319235 C55.9133749,0.101748542 56.4299979,-0.00526358828 56.9513058,0.000199082184 L74.5847881,0.000199082184 C75.3573919,0.000199082184 75.9837111,0.643880989 75.9837111,1.43790286 C75.9837111,2.23192473 75.3573919,2.87560664 74.5847881,2.87560664 L56.8925276,2.87560664 C56.6039107,2.87215613 56.3254356,2.98489958 56.1166543,3.18972679 C55.8978975,3.39263709 55.777443,3.68443659 55.787496,3.98710872 C55.7858307,4.28110055 55.9054329,4.56205562 56.1166543,4.76032756 C56.3220914,4.97183707 56.6017495,5.08941422 56.8925276,5.08652926 L72.9860191,5.08652926 C73.5109885,5.08255427 74.0311546,5.18947149 74.5142542,5.40064941 C75.4496922,5.80142328 76.1932861,6.56563105 76.5832494,7.52700122 C76.788731,8.02349327 76.8927642,8.55807934 76.8888965,9.09760198 C76.8942118,9.63336155 76.7900862,10.1643063 76.5832494,10.6561212 C76.3797419,11.1081929 76.0967839,11.5177733 75.748598,11.8642756 C75.3957943,12.2245182 74.9759971,12.5080324 74.5142542,12.6979022 C74.0289317,12.9002131 73.509738,13.002826 72.9860191,12.9999408 L55.3525368,12.9999408 C54.8527497,12.9999408 54.3909274,12.7259161 54.1410339,12.2810889 C53.8911404,11.8362618 53.8911404,11.2882122 54.1410339,10.8433851 C54.3909274,10.398558 54.8527497,10.1245332 55.3525368,10.1245333 L73.1035756,10.1245333 C73.3850354,10.1268472 73.6557909,10.0138035 73.8559375,9.8104131 C74.0622267,9.61462076 74.1776524,9.337828 74.1733402,9.0492758 C74.1807365,8.74600578 74.0658732,8.45307288 73.8559375,8.23981233 C73.6592832,8.02965252 73.3872763,7.91171842 73.1035756,7.91361063 L56.9513058,7.91361063 Z M89.2558454,11.8038679 L89.2558454,9.07343889 C89.776806,9.06740279 90.2946733,8.99021005 90.7958362,8.84388955 C91.3796046,8.67469779 91.9433823,8.43969366 92.4768948,8.14315998 C93.136533,7.79008607 93.7692264,7.38621472 94.3695552,6.93500554 C95.035709,6.41952632 95.7723967,5.80336755 96.5796184,5.08652926 C96.6991209,4.976596 96.7986358,4.8456857 96.8735097,4.69991984 C96.9511391,4.55572753 96.9916061,4.39353095 96.9910663,4.22873961 C96.9910663,3.63489132 96.5226427,3.15348216 95.944813,3.15348216 C95.6697705,3.16583354 95.4076699,3.27700069 95.2042067,3.46760231 C94.2559172,4.32136478 93.4722069,4.98182254 92.8530758,5.44897559 C92.3251683,5.85436653 91.7578787,6.2025566 91.1602615,6.4879884 C90.7168467,6.69450653 90.2449162,6.82900602 89.7613385,6.88667936 C89.3224608,6.93500554 88.8208862,6.95916863 88.2566147,6.95916863 C87.746061,6.96052986 87.235839,6.93229475 86.7283796,6.87459782 C86.233106,6.8117027 85.749727,6.67325604 85.2941897,6.46382531 C84.6919786,6.18015351 84.120617,5.83188264 83.5896197,5.4248125 C82.9548144,4.94960509 82.1711041,4.29720169 81.2384888,3.46760231 C81.1280078,3.38016624 81.0099568,3.30332798 80.8858191,3.23805297 C80.7647053,3.17912147 80.6318459,3.15015791 80.4978825,3.15348216 C79.9200528,3.15348216 79.4516292,3.63489132 79.4516292,4.22873961 C79.4510894,4.39353095 79.4915564,4.55572753 79.5691858,4.69991984 C79.6444738,4.84540979 79.7439353,4.97624986 79.8630772,5.08652926 C80.6467875,5.81947628 81.3834752,6.43966222 82.0731403,6.94708709 C82.6591015,7.39516535 83.2759345,7.79894425 83.9187781,8.15524152 C84.4398689,8.45193789 84.9919862,8.68701315 85.5645698,8.85597109 C86.0888377,9.00699946 86.6306214,9.08422033 87.1750945,9.08552044 L87.1750945,11.828031 C87.1750945,12.4218793 87.643518,12.9032885 88.2213478,12.9032885 C88.7991775,12.9032885 89.267601,12.4218793 89.267601,11.828031 L89.2558454,11.8038679 Z M102.410423,9.06135735 L114.530503,9.06135735 C114.742843,9.05914827 114.946784,9.14647938 115.094775,9.30298824 C115.250693,9.46251594 115.335743,9.68103451 115.329888,9.90706545 C115.333041,10.121969 115.24764,10.3282256 115.094775,10.474898 C114.945261,10.6290903 114.742314,10.7159957 114.530503,10.7165289 L101.199591,10.7165289 C100.621761,10.7165289 100.153337,11.1979381 100.153337,11.7917864 C100.153337,12.3856347 100.621761,12.8670438 101.199591,12.8670438 L114.436458,12.8670438 C114.839314,12.8721689 115.23907,12.7941097 115.612024,12.6374945 C115.959516,12.4943331 116.275369,12.2806659 116.54072,12.0092542 C116.804035,11.7380403 117.015389,11.4183681 117.16377,11.0668937 C117.325804,10.6862495 117.406,10.2741513 117.398883,9.85873928 C117.403837,9.44353061 117.32373,9.03189637 117.16377,8.65058484 C116.871568,7.92937112 116.313783,7.35612349 115.612024,7.05582099 C115.240126,6.89556808 114.839629,6.81736407 114.436458,6.82627164 L102.363401,6.82627164 C102.147773,6.82761699 101.940499,6.74066989 101.787373,6.58464076 C101.629567,6.43548919 101.539989,6.22506447 101.540505,6.00472663 C101.535103,5.77988704 101.625225,5.56377257 101.787373,5.41273095 C101.943745,5.26330945 102.14989,5.18115959 102.363401,5.18318161 L115.659046,5.18318161 C116.032836,5.18318163 116.378233,4.97823872 116.565128,4.6455529 C116.752023,4.31286708 116.752023,3.90298124 116.565128,3.57029543 C116.378233,3.23760961 116.032836,3.0326667 115.659046,3.03266672 L102.410423,3.03266672 C102.006216,3.02535258 101.605234,3.10777222 101.234858,3.2742976 C100.54325,3.57970317 99.9920344,4.14619985 99.6948669,4.85697991 C99.3898516,5.60261946 99.3898516,6.44307843 99.6948669,7.18871797 C99.9920344,7.89949803 100.54325,8.46599472 101.234858,8.77140028 C101.605122,8.93829145 102.006183,9.02072727 102.410423,9.01303117 L102.410423,9.06135735 Z M135.949306,3.10515598 L120.92558,3.10515598 C120.34775,3.10515598 119.879326,3.58656514 119.879326,4.18041343 C119.875553,4.45104216 119.977124,4.71200779 120.161462,4.90530609 C120.339829,5.10326982 120.582171,5.2277995 120.84329,5.25567088 L127.39119,5.25567088 L127.39119,11.8038679 C127.39119,12.3977162 127.859613,12.8791254 128.437443,12.8791254 C129.015273,12.8791254 129.483696,12.3977162 129.483696,11.8038679 L129.483696,5.26775242 L135.949306,5.26775242 C136.527136,5.26775242 136.99556,4.78634326 136.99556,4.19249497 C136.99556,3.59864668 136.527136,3.11723753 135.949306,3.11723753 L135.949306,3.10515598 Z M139.476003,4.18041343 C139.476003,4.77426172 139.944426,5.25567088 140.522256,5.25567088 L155.992698,5.25567088 C156.366488,5.25567089 156.711885,5.05072798 156.89878,4.71804217 C157.085675,4.38535635 157.085675,3.97547051 156.89878,3.64278469 C156.711885,3.31009887 156.366488,3.10515597 155.992698,3.10515598 L140.569279,3.10515598 C139.991449,3.10515598 139.523026,3.58656514 139.523026,4.18041343 L139.476003,4.18041343 Z M142.144537,12.8791254 L156.004454,12.8791254 C156.582283,12.8791254 157.050707,12.3977162 157.050707,11.8038679 C157.050707,11.2100196 156.582283,10.7286105 156.004454,10.7286105 L142.250337,10.7286105 C142.070955,10.737764 141.894762,10.6774046 141.7566,10.5594688 C141.637775,10.4632099 141.568455,10.3162732 141.568509,10.1607779 L141.568509,9.06135735 L155.522472,9.06135735 C156.100302,9.06135735 156.568725,8.57994819 156.568725,7.9860999 C156.568725,7.39225161 156.100302,6.91084245 155.522472,6.91084245 L140.910193,6.91084245 C140.546378,6.88759998 140.182682,6.95820258 139.852184,7.11622871 C139.601929,7.30073947 139.470883,7.61189396 139.51127,7.92569218 L139.51127,9.97955472 C139.503781,10.3950011 139.583994,10.8071802 139.746383,11.1877092 C139.895144,11.5288449 140.10218,11.839825 140.357677,12.1059065 C140.600553,12.3568362 140.887838,12.5577697 141.204084,12.6979022 C141.506816,12.8396644 141.835375,12.9137864 142.168048,12.91537 L142.144537,12.8791254 Z M177.999284,11.8038679 L177.999284,5.26775242 C178.01284,4.71460775 177.833556,4.17470186 177.493791,3.74547783 C177.157245,3.32504359 176.647557,3.0922358 176.118379,3.11723753 C175.782227,3.11162507 175.450305,3.19482602 175.154415,3.35886841 C174.863583,3.52775836 174.611108,3.75840218 174.413809,4.0354349 L169.417656,9.919147 C169.333215,10.0024746 169.242837,10.0792044 169.147276,10.1486963 C168.950311,10.319299 168.662412,10.319299 168.465448,10.1486963 C168.369886,10.0792044 168.279508,10.0024746 168.195068,9.919147 L163.175403,4.0354349 C162.948514,3.78569094 162.691766,3.56647953 162.411286,3.3830315 C162.129138,3.2034643 161.802647,3.11119031 161.470833,3.11723753 C160.941656,3.0922358 160.431968,3.32504359 160.095422,3.74547783 C159.755656,4.17470186 159.576372,4.71460775 159.589928,5.26775242 L159.589928,11.8159495 C159.589928,12.4097978 160.058352,12.8912069 160.636182,12.8912069 C161.214011,12.8912069 161.682435,12.4097978 161.682435,11.8159495 L161.682435,6.98333172 C161.682435,6.37120014 161.717702,6.06513435 161.788236,6.06513435 C161.85877,6.06513435 162.062534,6.26649342 162.39953,6.66921157 L167.195837,12.2750481 C167.383557,12.4995086 167.621597,12.6736589 167.889421,12.782473 C168.465368,13.0049662 169.100333,13.0049662 169.67628,12.782473 C169.943879,12.6732333 170.181827,12.4991507 170.369864,12.2750481 L175.166171,6.66921157 C175.511004,6.26649342 175.714768,6.06513435 175.777465,6.06513435 C175.840162,6.06513435 175.875429,6.37120014 175.883266,6.98333172 L175.883266,11.8159495 C175.883266,12.4097978 176.35169,12.8912069 176.929519,12.8912069 C177.507349,12.8912069 177.975773,12.4097978 177.975773,11.8159495 L177.999284,11.8038679 Z" id="Shape"></path>
                </g>
            </g>
        </g>
    </g>
</svg>