<?xml version="1.0" encoding="UTF-8" standalone="no"?>
<svg width="13px" height="20px" viewBox="0 0 13 20" version="1.1" xmlns="http://www.w3.org/2000/svg" xmlns:xlink="http://www.w3.org/1999/xlink">
    <!-- Generator: Sketch 48.1 (47250) - http://www.bohemiancoding.com/sketch -->
    <title>placeholder</title>
    <desc>Created with Sketch.</desc>
    <defs></defs>
    <g id="Контакты/01-Контакты" stroke="none" stroke-width="1" fill="none" fill-rule="evenodd" transform="translate(-862.000000, -387.000000)">
        <g id="общая-чист" fill="#ADB3B9" fill-rule="nonzero">
            <g id="как-добраться" transform="translate(848.000000, 341.000000)">
                <g id="текст" transform="translate(13.009512, 12.116505)">
                    <g id="placeholder" transform="translate(0.997290, 34.330097)">
                        <path d="M6.12287739,9.09634227 C7.24725708,9.09634227 8.16190791,8.16869256 8.16190791,7.02899175 C8.16190791,5.88929095 7.24725708,4.96164124 6.12287739,4.96164124 C4.99849771,4.96164124 4.08384688,5.88929095 4.08384688,7.02899175 C4.08384688,8.16869256 4.99849771,9.09634227 6.12287739,9.09634227 Z M6.12287739,5.55231281 C6.92596413,5.55231281 7.57932776,6.21475098 7.57932776,7.02899175 C7.57932776,7.84323252 6.92596413,8.50567069 6.12287739,8.50567069 C5.31979066,8.50567069 4.66642703,7.84323252 4.66642703,7.02899175 C4.66642703,6.21475098 5.31979066,5.55231281 6.12287739,5.55231281 Z" id="Shape"></path>
                        <path d="M6.12590794,19.0196247 L11.026433,11.3234795 C12.8644892,8.65898835 12.5987154,4.27930268 10.4575108,1.95138981 C9.30050007,0.692955263 7.76207828,0 6.12590794,0 C4.4897376,0 2.95131581,0.692955263 1.79430508,1.95104246 C-0.346899491,4.27895533 -0.612673353,8.65864101 1.21803579,11.3127118 L6.12590794,19.0196247 Z M2.24599287,2.4421897 C3.28257482,1.31539929 4.66031842,0.694691993 6.12590794,0.694691993 C7.59149746,0.694691993 8.96924106,1.31539929 10.005823,2.4421897 C11.9384334,4.54328564 12.176416,8.49886185 10.5083017,10.9170847 L6.12590794,17.7990509 L1.73648649,10.9066643 C0.0753998443,8.49886185 0.31370189,4.54328564 2.24599287,2.4421897 Z" id="Shape"></path>
                    </g>
                </g>
            </g>
        </g>
    </g>
</svg>