<?xml version="1.0" encoding="UTF-8" standalone="no"?>
<svg width="14px" height="13px" viewBox="0 0 14 13" version="1.1" xmlns="http://www.w3.org/2000/svg" xmlns:xlink="http://www.w3.org/1999/xlink">
    <!-- Generator: Sketch 48.1 (47250) - http://www.bohemiancoding.com/sketch -->
    <title>Shape</title>
    <desc>Created with Sketch.</desc>
    <defs></defs>
    <g id="Контакты/01-Контакты" stroke="none" stroke-width="1" fill="none" fill-rule="evenodd" transform="translate(-1178.000000, -407.000000)">
        <g id="общая-чист" fill="#FFFFFF" fill-rule="nonzero">
            <g id="как-добраться" transform="translate(848.000000, 341.000000)">
                <g id="текст" transform="translate(13.009512, 12.116505)">
                    <g id="button" transform="translate(306.168022, 43.417476)">
                        <path d="M11.1433349,16.9228245 C11.1600006,17.1926176 11.3461012,17.4196712 11.6155304,17.4971365 L16.6041374,18.9476084 L16.7874604,22.2545775 C16.7957933,22.3854672 16.8874548,22.5003296 17.0180029,22.5430691 C17.054112,22.5564252 17.0929987,22.5617677 17.1291078,22.5617677 C17.2263245,22.5617677 17.317986,22.5243706 17.3846489,22.4522477 L19.1484381,20.5743808 L21.6482969,22.2385502 C21.7594017,22.3133443 21.8899499,22.3534126 22.0260533,22.3534126 C22.3399244,22.3534126 22.6121313,22.1397151 22.6787942,21.8405385 L24.753677,11.671208 C24.7786755,11.5536744 24.731456,11.4307983 24.6370169,11.3560042 C24.5398001,11.2785388 24.409252,11.2598403 24.2925919,11.305251 L11.5433123,16.295088 C11.2849935,16.4072792 11.1266692,16.6530314 11.1433349,16.9228245 Z M17.420758,21.4345133 L17.3068755,19.3482913 L18.5845811,20.1977389 L17.420758,21.4345133 Z M22.0149428,21.6882791 L17.4651999,18.6591168 L23.8453949,12.7236683 L22.0149428,21.6882791 Z M23.1454345,12.4618888 L16.8374576,18.3305569 L11.8544058,16.8827562 L23.1454345,12.4618888 Z" id="Shape"></path>
                    </g>
                </g>
            </g>
        </g>
    </g>
</svg>