<?xml version="1.0" encoding="UTF-8" standalone="no"?>
<svg width="15px" height="20px" viewBox="0 0 15 20" version="1.1" xmlns="http://www.w3.org/2000/svg" xmlns:xlink="http://www.w3.org/1999/xlink">
    <!-- Generator: Sketch 48.1 (47250) - http://www.bohemiancoding.com/sketch -->
    <title>smartphone</title>
    <desc>Created with Sketch.</desc>
    <defs></defs>
    <g id="Контакты/01-Контакты" stroke="none" stroke-width="1" fill="none" fill-rule="evenodd" transform="translate(-794.000000, -791.000000)" opacity="0.600000024">
        <g id="общая-чист" fill="#FFFFFF" fill-rule="nonzero">
            <g id="Форма-чист" transform="translate(216.000000, 549.000000)">
                <g id="Данные" transform="translate(38.044864, 111.000000)">
                    <g id="контакты" transform="translate(536.632822, 0.000000)">
                        <g id="Group" transform="translate(1.001181, 57.000000)">
                            <g id="Stacked-Group">
                                <g id="phone" transform="translate(3.003542, 70.000000)">
                                    <g id="Stacked-Group">
                                        <g id="smartphone" transform="translate(0.000000, 4.000000)">
                                            <path d="M8.70441176,0 L1.29558824,0 C0.581470588,0 0,0.659 0,1.46833333 L0,18.5313333 C0,19.341 0.581470588,20 1.29558824,20 L8.70411765,20 C9.41852941,20 10,19.341 10,18.5316667 L10,1.46833333 C10,0.659 9.41852941,0 8.70441176,0 Z M0.588235294,2.66666667 L9.41176471,2.66666667 L9.41176471,15.3333333 L0.588235294,15.3333333 L0.588235294,2.66666667 Z M1.29558824,0.666666667 L8.70411765,0.666666667 C9.09441176,0.666666667 9.41176471,1.02633333 9.41176471,1.46833333 L9.41176471,2 L0.588235294,2 L0.588235294,1.46833333 C0.588235294,1.02633333 0.905588235,0.666666667 1.29558824,0.666666667 Z M8.70441176,19.3333333 L1.29558824,19.3333333 C0.905588235,19.3333333 0.588235294,18.9736667 0.588235294,18.5316667 L0.588235294,16 L9.41176471,16 L9.41176471,18.5316667 C9.41176471,18.9736667 9.09441176,19.3333333 8.70441176,19.3333333 Z" id="Shape"></path>
                                            <path d="M5,17 C4.4485,17 4,17.4485 4,18 C4,18.5515 4.4485,19 5,19 C5.5515,19 6,18.5515 6,18 C6,17.4485 5.5515,17 5,17 Z M5,18.5 C4.72425,18.5 4.5,18.27575 4.5,18 C4.5,17.72425 4.72425,17.5 5,17.5 C5.27575,17.5 5.5,17.72425 5.5,18 C5.5,18.27575 5.27575,18.5 5,18.5 Z" id="Shape"></path>
                                            <path d="M12.6702655,6.10370589 C12.5167591,5.96543137 12.2686362,5.96543137 12.1151298,6.10370589 C11.9616234,6.2419804 11.9616234,6.46548294 12.1151298,6.60375746 C13.5818815,7.92496869 13.5818815,10.0747661 12.1151298,11.396331 C11.9616234,11.5346055 11.9616234,11.758108 12.1151298,11.8963825 C12.1916867,11.965343 12.2921922,12 12.3926976,12 C12.4932031,12 12.5937086,11.965343 12.6702655,11.8963825 C14.4432448,10.2996832 14.4432448,7.70075886 12.6702655,6.10370589 Z" id="Shape"></path>
                                            <path d="M11.4054022,7.09242588 C11.3125557,6.96919137 11.1624814,6.96919137 11.0696349,7.09242588 C10.9767884,7.2156604 10.9767884,7.41485275 11.0696349,7.53808726 C11.3633719,7.92796218 11.5250816,8.44737516 11.5250816,9.00019699 C11.5250816,9.55301881 11.3633719,10.0721166 11.0696349,10.4619915 C10.9767884,10.585226 10.9767884,10.7844184 11.0696349,10.9076529 C11.1159394,10.9691126 11.176729,11 11.2375186,11 C11.2983081,11 11.3590977,10.9691126 11.4054022,10.9076529 C11.7888988,10.398956 12,9.72132375 12,9.00019699 C12,8.27907023 11.7891362,7.60112282 11.4054022,7.09242588 Z" id="Shape"></path>
                                        </g>
                                    </g>
                                </g>
                            </g>
                        </g>
                    </g>
                </g>
            </g>
        </g>
    </g>
</svg>