<svg width="54" height="54" viewBox="0 0 54 54" fill="none" xmlns="http://www.w3.org/2000/svg">
<g clip-path="url(#clip0)">
<path d="M45.45 33.7501H11.7C5.23827 33.7501 0 28.5118 0 22.0501C0 15.5883 5.23827 10.3501 11.7 10.3501C11.7765 10.3501 11.8525 10.3505 11.9276 10.3522C14.0738 5.43135 18.9321 2.25004 24.3006 2.25004C29.6692 2.25004 34.5274 5.43135 36.6737 10.3522C40.7479 10.4441 44.3903 12.9148 45.9822 16.6664C50.5936 16.9514 54.1444 20.8483 54.0005 25.4663C53.8567 30.0842 50.0702 33.7526 45.45 33.7501ZM11.7 12.1501C6.23238 12.1501 1.8 16.5824 1.8 22.0501C1.8 27.5177 6.23238 31.9501 11.7 31.9501H45.45C49.1779 31.9501 52.2 28.928 52.2 25.2001C52.2 21.4721 49.1779 18.4501 45.45 18.4501H45.36C44.9785 18.4501 44.6384 18.2095 44.5114 17.8498C43.2997 14.4135 40.0413 12.1245 36.3977 12.1501C36.3098 12.1501 36.2224 12.1505 36.1349 12.1566C35.7401 12.1818 35.3744 11.9484 35.231 11.5796C33.5002 7.04108 29.1448 4.04427 24.2874 4.04975C19.4301 4.05523 15.0815 7.06185 13.361 11.6043C13.2174 11.986 12.8347 12.2232 12.4289 12.1817C12.1866 12.1589 11.9433 12.1484 11.7 12.1501Z" fill="#3870DE"/>
<path d="M6.09316 27.45C5.8215 27.4505 5.56425 27.3279 5.39359 27.1165C3.83439 25.1864 3.24888 22.6467 3.80566 20.2288C4.36245 17.8108 5.99973 15.783 8.24605 14.7292C8.69554 14.5168 9.23208 14.709 9.44445 15.1585C9.65682 15.608 9.46459 16.1446 9.0151 16.3569C6.81471 17.4007 5.40871 19.6147 5.39971 22.05C5.39418 23.4829 5.88627 24.8732 6.79192 25.9836C7.01022 26.2531 7.05422 26.6241 6.90503 26.9372C6.75584 27.2503 6.44 27.4498 6.09316 27.45Z" fill="#3870DE"/>
<path d="M15.3002 28.3505C15.0109 28.3501 14.7394 28.2109 14.5704 27.9762C14.4013 27.7415 14.3552 27.4398 14.4464 27.1653L18.0464 16.3653C18.2036 15.8938 18.7134 15.639 19.185 15.7963C19.6565 15.9535 19.9113 16.4633 19.754 16.9348L16.154 27.7348C16.0316 28.1025 15.6877 28.3505 15.3002 28.3505Z" fill="#3870DE"/>
<path d="M22.5003 28.3505C22.1128 28.3505 21.7689 28.1025 21.6465 27.7348L18.0465 16.9348C17.8892 16.4633 18.144 15.9535 18.6155 15.7963C19.0871 15.639 19.5969 15.8938 19.7541 16.3653L23.3541 27.1653C23.4453 27.4398 23.3992 27.7415 23.2301 27.9762C23.0611 28.2109 22.7896 28.3501 22.5003 28.3505Z" fill="#3870DE"/>
<path d="M20.9983 23.85H16.8043C16.3072 23.85 15.9043 23.4471 15.9043 22.95C15.9043 22.453 16.3072 22.05 16.8043 22.05H20.9983C21.4954 22.05 21.8983 22.453 21.8983 22.95C21.8983 23.4471 21.4954 23.85 20.9983 23.85Z" fill="#3870DE"/>
<path d="M25.1988 28.3501C24.7018 28.3501 24.2988 27.9471 24.2988 27.4501V16.6501C24.2988 16.153 24.7018 15.7501 25.1988 15.7501C25.6959 15.7501 26.0988 16.153 26.0988 16.6501V27.4501C26.0988 27.9471 25.6959 28.3501 25.1988 28.3501Z" fill="#3870DE"/>
<path d="M28.7988 22.9501H25.1988C24.7018 22.9501 24.2988 22.5471 24.2988 22.0501V16.6501C24.2988 16.153 24.7018 15.7501 25.1988 15.7501H28.7988C30.7871 15.7501 32.3988 17.3618 32.3988 19.3501C32.3988 21.3383 30.7871 22.9501 28.7988 22.9501ZM26.0988 21.1501H28.7988C29.7929 21.1501 30.5988 20.3442 30.5988 19.3501C30.5988 18.356 29.7929 17.5501 28.7988 17.5501H26.0988V21.1501Z" fill="#3870DE"/>
<path d="M35.9996 28.3501C35.5026 28.3501 35.0996 27.9471 35.0996 27.4501V16.6501C35.0996 16.153 35.5026 15.7501 35.9996 15.7501C36.4967 15.7501 36.8996 16.153 36.8996 16.6501V27.4501C36.8996 27.9471 36.4967 28.3501 35.9996 28.3501Z" fill="#3870DE"/>
<path d="M38.7004 17.5501H33.3004C32.8033 17.5501 32.4004 17.1471 32.4004 16.6501C32.4004 16.153 32.8033 15.7501 33.3004 15.7501H38.7004C39.1975 15.7501 39.6004 16.153 39.6004 16.6501C39.6004 17.1471 39.1975 17.5501 38.7004 17.5501Z" fill="#3870DE"/>
<path d="M38.7004 28.35H33.3004C32.8033 28.35 32.4004 27.9471 32.4004 27.45C32.4004 26.953 32.8033 26.55 33.3004 26.55H38.7004C39.1975 26.55 39.6004 26.953 39.6004 27.45C39.6004 27.9471 39.1975 28.35 38.7004 28.35Z" fill="#3870DE"/>
<path d="M21.6413 51.7505C21.4143 51.7503 21.1898 51.7035 20.9817 51.613L15.3509 49.2786C14.9359 49.1072 14.6069 48.7765 14.4378 48.3606C14.2706 47.9502 14.2779 47.4893 14.4579 47.0844L15.7989 43.8426C14.4793 42.8389 13.3018 41.661 12.2986 40.341L9.02778 41.6919C8.62035 41.8621 8.16157 41.8613 7.75473 41.6897C7.34812 41.5219 7.02452 41.1999 6.85473 40.7941L4.52283 35.137C4.16956 34.298 4.55941 33.3312 5.39583 32.9719L8.58498 31.6574C8.8824 31.535 9.22256 31.5805 9.47733 31.7768C9.73209 31.9732 9.86275 32.2905 9.82009 32.6093C9.77743 32.9281 9.56793 33.1999 9.27051 33.3224L6.23652 34.5719L8.46537 39.9767L12.2644 38.4079C12.6538 38.2475 13.1023 38.3783 13.3444 38.7229C14.4539 40.3076 15.8323 41.6858 17.4172 42.7951C17.7632 43.0369 17.8944 43.4867 17.7328 43.8766L16.1648 47.6673L21.5657 49.9063L23.135 46.1134C23.2965 45.723 23.7077 45.4974 24.1237 45.5711C26.0253 45.9099 27.972 45.9072 29.8727 45.5632C30.2889 45.489 30.7008 45.7137 30.8637 46.1037L32.4413 49.9032L37.8347 47.6669L36.2658 43.8669C36.1045 43.4758 36.2373 43.0252 36.5849 42.7841C38.1703 41.6804 39.5481 40.3052 40.6547 38.7218C40.8966 38.377 41.3456 38.2465 41.7347 38.408L45.5327 39.9795L47.7737 34.5756L45.6072 33.6738C45.2007 33.5217 44.9609 33.101 45.037 32.6737C45.1131 32.2464 45.4835 31.9344 45.9175 31.9321C46.0391 31.932 46.1595 31.9554 46.2722 32.001L48.5852 32.964C48.9968 33.1321 49.3229 33.4596 49.4892 33.8719C49.6558 34.2798 49.6547 34.737 49.4861 35.1441L47.1447 40.7907C46.9757 41.2036 46.6478 41.5311 46.2347 41.6996C45.8217 41.8681 45.3582 41.8633 44.9487 41.6863L41.6997 40.3415C40.6983 41.6607 39.5211 42.8366 38.2007 43.8365L39.5498 47.1047C39.7233 47.5046 39.7275 47.9577 39.5613 48.3607C39.3917 48.7777 39.0615 49.1091 38.6451 49.28L33.0056 51.6183C32.5971 51.7894 32.1372 51.79 31.7283 51.62C31.3195 51.4499 30.9956 51.1234 30.8289 50.7131L29.4741 47.4497C27.8333 47.6786 26.1689 47.6809 24.5276 47.4567L23.1785 50.7171C22.9228 51.341 22.316 51.749 21.6417 51.7506L21.6413 51.7505ZM21.5143 50.0311V50.032V50.0311ZM21.6821 49.9551H21.683H21.6821ZM37.8911 47.8048L37.8937 47.8114L37.8911 47.8048ZM16.114 47.7894L16.1127 47.7921L16.114 47.7894ZM37.9587 47.6158L37.9579 47.6163L37.9587 47.6158ZM16.0362 47.6146H16.0371H16.0362ZM45.4812 40.1041L45.4807 40.1049L45.4812 40.1041ZM8.33766 40.0294H8.3364H8.33766ZM45.6486 40.028L45.6495 40.0285L45.6486 40.028ZM47.8972 34.6271H47.8986H47.8972ZM6.18486 34.4457V34.447V34.4457Z" fill="#3870DE"/>
<path d="M26.9997 41.8501C21.4124 41.8279 16.4099 38.3832 14.3962 33.1713C14.278 32.8702 14.3306 32.5289 14.5338 32.2772C14.737 32.0255 15.0596 31.9023 15.3788 31.9543C15.698 32.0064 15.9648 32.2257 16.0775 32.5289C17.8066 37.0581 22.1517 40.0502 26.9997 40.0502C31.8477 40.0502 36.1927 37.0581 37.9218 32.5289C38.0345 32.2257 38.3013 32.0064 38.6205 31.9543C38.9398 31.9023 39.2624 32.0255 39.4656 32.2772C39.6688 32.5289 39.7213 32.8702 39.6032 33.1713C37.5895 38.3832 32.587 41.8279 26.9997 41.8501Z" fill="#3870DE"/>
<path d="M17.101 13.0505C16.8117 13.0501 16.5402 12.9108 16.3711 12.6761C16.2021 12.4414 16.1559 12.1398 16.2471 11.8653C18.2295 5.91865 23.1909 5.85007 23.401 5.85007C23.898 5.84885 24.302 6.25081 24.3032 6.74786C24.3044 7.24492 23.9024 7.64885 23.4054 7.65007C23.2309 7.65268 19.5114 7.76473 17.9548 12.4348C17.8324 12.8025 17.4884 13.0505 17.101 13.0505Z" fill="#3870DE"/>
</g>
<defs>
<clipPath id="clip0">
<rect width="54" height="54" fill="white"/>
</clipPath>
</defs>
</svg>
