<svg width="92" height="92" viewBox="0 0 92 92" fill="none" xmlns="http://www.w3.org/2000/svg">
<rect y="78" width="46" height="2" fill="#CCCCCC"/>
<rect x="46" y="86" width="46" height="2" fill="#CCCCCC"/>
<circle cx="46" cy="83" r="8" fill="white" stroke="#CCCCCC" stroke-width="2"/>
<circle cx="46" cy="83" r="3" stroke="#CCCCCC" stroke-width="2"/>
<g clip-path="url(#clip0)">
<path d="M64.45 33.7501H30.7C24.2383 33.7501 19 28.5118 19 22.0501C19 15.5883 24.2383 10.3501 30.7 10.3501C30.7765 10.3501 30.8525 10.3505 30.9276 10.3522C33.0738 5.43135 37.9321 2.25004 43.3006 2.25004C48.6692 2.25004 53.5274 5.43135 55.6737 10.3522C59.7479 10.4441 63.3903 12.9148 64.9822 16.6664C69.5936 16.9514 73.1444 20.8483 73.0005 25.4663C72.8567 30.0842 69.0702 33.7526 64.45 33.7501ZM30.7 12.1501C25.2324 12.1501 20.8 16.5824 20.8 22.0501C20.8 27.5177 25.2324 31.9501 30.7 31.9501H64.45C68.1779 31.9501 71.2 28.928 71.2 25.2001C71.2 21.4721 68.1779 18.4501 64.45 18.4501H64.36C63.9785 18.4501 63.6384 18.2095 63.5114 17.8498C62.2997 14.4135 59.0413 12.1245 55.3977 12.1501C55.3098 12.1501 55.2224 12.1505 55.1349 12.1566C54.7401 12.1818 54.3744 11.9484 54.231 11.5796C52.5002 7.04108 48.1448 4.04427 43.2874 4.04975C38.4301 4.05523 34.0815 7.06185 32.361 11.6043C32.2174 11.986 31.8347 12.2232 31.4289 12.1817C31.1866 12.1589 30.9433 12.1484 30.7 12.1501Z" fill="#3870DE"/>
<path d="M25.0932 27.45C24.8215 27.4505 24.5642 27.3279 24.3936 27.1165C22.8344 25.1864 22.2489 22.6467 22.8057 20.2288C23.3624 17.8108 24.9997 15.783 27.2461 14.7292C27.6955 14.5168 28.2321 14.709 28.4444 15.1585C28.6568 15.608 28.4646 16.1446 28.0151 16.3569C25.8147 17.4007 24.4087 19.6147 24.3997 22.05C24.3942 23.4829 24.8863 24.8732 25.7919 25.9836C26.0102 26.2531 26.0542 26.6241 25.905 26.9372C25.7558 27.2503 25.44 27.4498 25.0932 27.45Z" fill="#3870DE"/>
<path d="M34.3002 28.3505C34.0109 28.3501 33.7394 28.2109 33.5704 27.9762C33.4013 27.7415 33.3552 27.4398 33.4464 27.1653L37.0464 16.3653C37.2036 15.8938 37.7134 15.639 38.185 15.7963C38.6565 15.9535 38.9113 16.4633 38.754 16.9348L35.154 27.7348C35.0316 28.1025 34.6877 28.3505 34.3002 28.3505Z" fill="#3870DE"/>
<path d="M41.5003 28.3505C41.1128 28.3505 40.7689 28.1025 40.6465 27.7348L37.0465 16.9348C36.8892 16.4633 37.144 15.9535 37.6155 15.7963C38.0871 15.639 38.5969 15.8938 38.7541 16.3653L42.3541 27.1653C42.4453 27.4398 42.3992 27.7415 42.2301 27.9762C42.0611 28.2109 41.7896 28.3501 41.5003 28.3505Z" fill="#3870DE"/>
<path d="M39.9983 23.85H35.8043C35.3072 23.85 34.9043 23.4471 34.9043 22.95C34.9043 22.453 35.3072 22.05 35.8043 22.05H39.9983C40.4954 22.05 40.8983 22.453 40.8983 22.95C40.8983 23.4471 40.4954 23.85 39.9983 23.85Z" fill="#3870DE"/>
<path d="M44.1988 28.3501C43.7018 28.3501 43.2988 27.9471 43.2988 27.4501V16.6501C43.2988 16.153 43.7018 15.7501 44.1988 15.7501C44.6959 15.7501 45.0988 16.153 45.0988 16.6501V27.4501C45.0988 27.9471 44.6959 28.3501 44.1988 28.3501Z" fill="#3870DE"/>
<path d="M47.7988 22.9501H44.1988C43.7018 22.9501 43.2988 22.5471 43.2988 22.0501V16.6501C43.2988 16.153 43.7018 15.7501 44.1988 15.7501H47.7988C49.7871 15.7501 51.3988 17.3618 51.3988 19.3501C51.3988 21.3383 49.7871 22.9501 47.7988 22.9501ZM45.0988 21.1501H47.7988C48.7929 21.1501 49.5988 20.3442 49.5988 19.3501C49.5988 18.356 48.7929 17.5501 47.7988 17.5501H45.0988V21.1501Z" fill="#3870DE"/>
<path d="M54.9996 28.3501C54.5026 28.3501 54.0996 27.9471 54.0996 27.4501V16.6501C54.0996 16.153 54.5026 15.7501 54.9996 15.7501C55.4967 15.7501 55.8996 16.153 55.8996 16.6501V27.4501C55.8996 27.9471 55.4967 28.3501 54.9996 28.3501Z" fill="#3870DE"/>
<path d="M57.7004 17.5501H52.3004C51.8033 17.5501 51.4004 17.1471 51.4004 16.6501C51.4004 16.153 51.8033 15.7501 52.3004 15.7501H57.7004C58.1975 15.7501 58.6004 16.153 58.6004 16.6501C58.6004 17.1471 58.1975 17.5501 57.7004 17.5501Z" fill="#3870DE"/>
<path d="M57.7004 28.35H52.3004C51.8033 28.35 51.4004 27.9471 51.4004 27.45C51.4004 26.953 51.8033 26.55 52.3004 26.55H57.7004C58.1975 26.55 58.6004 26.953 58.6004 27.45C58.6004 27.9471 58.1975 28.35 57.7004 28.35Z" fill="#3870DE"/>
<path d="M40.6413 51.7505C40.4143 51.7503 40.1898 51.7035 39.9817 51.613L34.3509 49.2786C33.9359 49.1072 33.6069 48.7765 33.4378 48.3606C33.2706 47.9502 33.2779 47.4893 33.4579 47.0844L34.7989 43.8426C33.4793 42.8389 32.3018 41.661 31.2986 40.341L28.0278 41.6919C27.6204 41.8621 27.1616 41.8613 26.7547 41.6897C26.3481 41.5219 26.0245 41.1999 25.8547 40.7941L23.5228 35.137C23.1696 34.298 23.5594 33.3312 24.3958 32.9719L27.585 31.6574C27.8824 31.535 28.2226 31.5805 28.4773 31.7768C28.7321 31.9732 28.8628 32.2905 28.8201 32.6093C28.7774 32.9281 28.5679 33.1999 28.2705 33.3224L25.2365 34.5719L27.4654 39.9767L31.2644 38.4079C31.6538 38.2475 32.1023 38.3783 32.3444 38.7229C33.4539 40.3076 34.8323 41.6858 36.4172 42.7951C36.7632 43.0369 36.8944 43.4867 36.7328 43.8766L35.1648 47.6673L40.5657 49.9063L42.135 46.1134C42.2965 45.723 42.7077 45.4974 43.1237 45.5711C45.0253 45.9099 46.972 45.9072 48.8727 45.5632C49.2889 45.489 49.7008 45.7137 49.8637 46.1037L51.4413 49.9032L56.8347 47.6669L55.2658 43.8669C55.1045 43.4758 55.2373 43.0252 55.5849 42.7841C57.1703 41.6804 58.5481 40.3052 59.6547 38.7218C59.8966 38.377 60.3456 38.2465 60.7347 38.408L64.5327 39.9795L66.7737 34.5756L64.6072 33.6738C64.2007 33.5217 63.9609 33.101 64.037 32.6737C64.1131 32.2464 64.4835 31.9344 64.9175 31.9321C65.0391 31.932 65.1595 31.9554 65.2722 32.001L67.5852 32.964C67.9968 33.1321 68.3229 33.4596 68.4892 33.8719C68.6558 34.2798 68.6547 34.737 68.4861 35.1441L66.1447 40.7907C65.9757 41.2036 65.6478 41.5311 65.2347 41.6996C64.8217 41.8681 64.3582 41.8633 63.9487 41.6863L60.6997 40.3415C59.6983 41.6607 58.5211 42.8366 57.2007 43.8365L58.5498 47.1047C58.7233 47.5046 58.7275 47.9577 58.5613 48.3607C58.3917 48.7777 58.0615 49.1091 57.6451 49.28L52.0056 51.6183C51.5971 51.7894 51.1372 51.79 50.7283 51.62C50.3195 51.4499 49.9956 51.1234 49.8289 50.7131L48.4741 47.4497C46.8333 47.6786 45.1689 47.6809 43.5276 47.4567L42.1785 50.7171C41.9228 51.341 41.316 51.749 40.6417 51.7506L40.6413 51.7505ZM40.5143 50.0311V50.032V50.0311ZM40.6821 49.9551H40.683H40.6821ZM56.8911 47.8048L56.8937 47.8114L56.8911 47.8048ZM35.114 47.7894L35.1127 47.7921L35.114 47.7894ZM56.9587 47.6158L56.9579 47.6163L56.9587 47.6158ZM35.0362 47.6146H35.0371H35.0362ZM64.4812 40.1041L64.4807 40.1049L64.4812 40.1041ZM27.3377 40.0294H27.3364H27.3377ZM64.6486 40.028L64.6495 40.0285L64.6486 40.028ZM66.8972 34.6271H66.8986H66.8972ZM25.1849 34.4457V34.447V34.4457Z" fill="#3870DE"/>
<path d="M45.9997 41.8501C40.4124 41.8279 35.4099 38.3832 33.3962 33.1713C33.278 32.8702 33.3306 32.5289 33.5338 32.2772C33.737 32.0255 34.0596 31.9023 34.3788 31.9543C34.698 32.0064 34.9648 32.2257 35.0775 32.5289C36.8066 37.0581 41.1517 40.0502 45.9997 40.0502C50.8477 40.0502 55.1927 37.0581 56.9218 32.5289C57.0345 32.2257 57.3013 32.0064 57.6205 31.9543C57.9398 31.9023 58.2624 32.0255 58.4656 32.2772C58.6688 32.5289 58.7213 32.8702 58.6032 33.1713C56.5895 38.3832 51.587 41.8279 45.9997 41.8501Z" fill="#3870DE"/>
<path d="M36.101 13.0505C35.8117 13.0501 35.5402 12.9108 35.3711 12.6761C35.2021 12.4414 35.1559 12.1398 35.2471 11.8653C37.2295 5.91865 42.1909 5.85007 42.401 5.85007C42.898 5.84885 43.302 6.25081 43.3032 6.74786C43.3044 7.24492 42.9024 7.64885 42.4054 7.65007C42.2309 7.65268 38.5114 7.76473 36.9548 12.4348C36.8324 12.8025 36.4884 13.0505 36.101 13.0505Z" fill="#3870DE"/>
</g>
<defs>
<clipPath id="clip0">
<rect width="54" height="54" fill="white" transform="translate(19)"/>
</clipPath>
</defs>
</svg>
