<svg width="54" height="54" viewBox="0 0 54 54" fill="none" xmlns="http://www.w3.org/2000/svg">
<g clip-path="url(#clip0)">
<path d="M46.8 15.3H7.19975C5.70877 15.3 4.5 16.5088 4.5 18.0002V34.1999C4.5 35.6913 5.70877 36.9001 7.19975 36.9001H46.8C48.291 36.9001 49.4997 35.6913 49.4997 34.1999V18.0002C49.4997 16.5088 48.291 15.3 46.8 15.3ZM47.6998 34.1999C47.6998 34.6972 47.2968 35.1001 46.8 35.1001H7.19975C6.7029 35.1001 6.29997 34.6972 6.29997 34.1999V18.0002C6.29997 17.5029 6.7029 17.1 7.19975 17.1H46.8C47.2968 17.1 47.6998 17.5029 47.6998 18.0002V34.1999Z" fill="#3870DE"/>
<path d="M46.8003 38.7H30.6001C29.1092 38.7 27.9004 39.9088 27.9004 41.4002V46.8001C27.9004 48.2911 29.1092 49.4999 30.6001 49.4999H46.8003C48.2913 49.4999 49.5001 48.2911 49.5001 46.8001V41.4002C49.5001 39.9088 48.2913 38.7 46.8003 38.7ZM47.7001 46.8001C47.7001 47.297 47.2972 47.6999 46.8003 47.6999H30.6001C30.1033 47.6999 29.7004 47.297 29.7004 46.8001V41.4002C29.7004 40.9029 30.1033 40.5 30.6001 40.5H46.8003C47.2972 40.5 47.7001 40.9029 47.7001 41.4002V46.8001Z" fill="#3870DE"/>
<path d="M23.3999 38.7H7.19975C5.70877 38.7 4.5 39.9088 4.5 41.4002V46.8001C4.5 48.2911 5.70877 49.4999 7.19975 49.4999H23.3999C24.8909 49.4999 26.0997 48.2911 26.0997 46.8001V41.4002C26.0997 39.9088 24.8909 38.7 23.3999 38.7ZM24.2997 46.8001C24.2997 47.297 23.8968 47.6999 23.3999 47.6999H7.19975C6.7029 47.6999 6.29997 47.297 6.29997 46.8001V41.4002C6.29997 40.9029 6.7029 40.5 7.19975 40.5H23.3999C23.8968 40.5 24.2997 40.9029 24.2997 41.4002V46.8001Z" fill="#3870DE"/>
<path d="M9.89958 43.2002H8.99939C8.50253 43.2002 8.09961 43.6031 8.09961 44.0999C8.09961 44.5972 8.50253 45.0001 8.99939 45.0001H9.89958C10.3964 45.0001 10.7994 44.5972 10.7994 44.0999C10.7994 43.6031 10.3964 43.2002 9.89958 43.2002Z" fill="#3870DE"/>
<path d="M21.5999 43.2002H13.4998C13.0029 43.2002 12.5996 43.6031 12.5996 44.0999C12.5996 44.5972 13.0029 45.0001 13.4998 45.0001H21.5999C22.0967 45.0001 22.4997 44.5972 22.4997 44.0999C22.4997 43.6031 22.0967 43.2002 21.5999 43.2002Z" fill="#3870DE"/>
<path d="M33.3 43.2002H32.3998C31.9029 43.2002 31.5 43.6031 31.5 44.0999C31.5 44.5972 31.9029 45.0001 32.3998 45.0001H33.3C33.7968 45.0001 34.1998 44.5972 34.1998 44.0999C34.1998 43.6031 33.7968 43.2002 33.3 43.2002Z" fill="#3870DE"/>
<path d="M45.0003 43.2002H36.9002C36.4029 43.2002 36 43.6031 36 44.0999C36 44.5972 36.4029 45.0001 36.9002 45.0001H45.0003C45.4971 45.0001 45.9001 44.5972 45.9001 44.0999C45.9001 43.6031 45.4971 43.2002 45.0003 43.2002Z" fill="#3870DE"/>
<path d="M49.4999 0H4.50014C2.01585 0.00288392 0.00288392 2.01585 0 4.50014V49.4999C0.00288392 51.9841 2.01585 53.9971 4.50014 54H49.4999C51.9841 53.9971 53.9971 51.9841 54 49.4999V4.50014C53.9971 2.01585 51.9841 0.00288392 49.4999 0V0ZM4.50014 1.79997H49.4999C50.9913 1.79997 52.2 3.00874 52.2 4.50014V10.7998H1.79997V4.50014C1.79997 3.00874 3.00874 1.79997 4.50014 1.79997ZM49.4999 52.2H4.50014C3.00874 52.2 1.79997 50.9913 1.79997 49.4999V12.5998H52.2V49.4999C52.2 50.9913 50.9913 52.2 49.4999 52.2Z" fill="#3870DE"/>
<path d="M36 32.0563C35.9551 31.9467 35.8892 31.8475 35.8056 31.7638L30.4057 26.3639C30.0543 26.0125 29.4845 26.0125 29.133 26.3639L27.1848 28.3122L24.1245 25.0361C23.9507 24.861 23.7138 24.7625 23.467 24.7625C23.2198 24.7625 22.9829 24.861 22.809 25.0361L16.7817 31.5002H15.3002C14.8033 31.5002 14.4004 31.9031 14.4004 32.3999C14.4004 32.8972 14.8033 33.3001 15.3002 33.3001H35.1724C35.4719 33.2989 35.7516 33.1485 35.9177 32.8988C36.0837 32.6492 36.1146 32.3332 36 32.0563ZM29.7696 28.2764L32.9995 31.5002H30.1626L28.4166 29.6289L29.7696 28.2764ZM23.4695 26.9728L26.5108 30.2308C26.5161 30.2366 26.5178 30.2444 26.5231 30.2498C26.5285 30.2551 26.5322 30.2543 26.5367 30.2588L27.7014 31.5002H19.2412L23.4695 26.9728Z" fill="#3870DE"/>
<path d="M34.2718 18.8999C32.2836 18.8999 30.6719 20.5116 30.6719 22.4998C30.6719 24.4881 32.2836 26.0998 34.2718 26.0998C36.2601 26.0998 37.8718 24.4881 37.8718 22.4998C37.8718 20.5116 36.2601 18.8999 34.2718 18.8999ZM34.2718 24.2998C33.2777 24.2998 32.4718 23.494 32.4718 22.4998C32.4718 21.5057 33.2777 20.6999 34.2718 20.6999C35.2659 20.6999 36.0718 21.5057 36.0718 22.4998C36.0718 23.494 35.2659 24.2998 34.2718 24.2998Z" fill="#3870DE"/>
<path d="M5.82188 7.3C6.31893 7.3 6.72188 6.89706 6.72188 6.4C6.72188 5.90294 6.31893 5.5 5.82188 5.5C5.32482 5.5 4.92188 5.90294 4.92188 6.4C4.92188 6.89706 5.32482 7.3 5.82188 7.3Z" fill="#3870DE"/>
<path d="M9.42149 7.3C9.91854 7.3 10.3215 6.89706 10.3215 6.4C10.3215 5.90294 9.91854 5.5 9.42149 5.5C8.92443 5.5 8.52148 5.90294 8.52148 6.4C8.52148 6.89706 8.92443 7.3 9.42149 7.3Z" fill="#3870DE"/>
<path d="M13.0211 7.3C13.5182 7.3 13.9211 6.89706 13.9211 6.4C13.9211 5.90294 13.5182 5.5 13.0211 5.5C12.524 5.5 12.1211 5.90294 12.1211 6.4C12.1211 6.89706 12.524 7.3 13.0211 7.3Z" fill="#3870DE"/>
<path d="M47.2223 7.3H48.1223C48.6193 7.3 49.0223 6.89706 49.0223 6.4C49.0223 5.90294 48.6193 5.5 48.1223 5.5H47.2223C46.7252 5.5 46.3223 5.90294 46.3223 6.4C46.3223 6.89706 46.7252 7.3 47.2223 7.3Z" fill="#3870DE"/>
<path d="M38.2223 7.3H43.6223C44.1193 7.3 44.5223 6.89706 44.5223 6.4C44.5223 5.90294 44.1193 5.5 43.6223 5.5H38.2223C37.7252 5.5 37.3223 5.90294 37.3223 6.4C37.3223 6.89706 37.7252 7.3 38.2223 7.3Z" fill="#3870DE"/>
</g>
<defs>
<clipPath id="clip0">
<rect width="54" height="54" fill="white"/>
</clipPath>
</defs>
</svg>
