<svg width="92" height="92" viewBox="0 0 92 92" fill="none" xmlns="http://www.w3.org/2000/svg">
<rect x="46" y="86" width="46" height="2" fill="#CCCCCC"/>
<rect y="78" width="46" height="2" fill="#CCCCCC"/>
<circle cx="46" cy="83" r="8" fill="white" stroke="#CCCCCC" stroke-width="2"/>
<circle cx="46" cy="83" r="3" stroke="#CCCCCC" stroke-width="2"/>
<g clip-path="url(#clip0)">
<path d="M65.8 15.3H26.1998C24.7088 15.3 23.5 16.5088 23.5 18.0002V34.1999C23.5 35.6913 24.7088 36.9001 26.1998 36.9001H65.8C67.291 36.9001 68.4997 35.6913 68.4997 34.1999V18.0002C68.4997 16.5088 67.291 15.3 65.8 15.3ZM66.6998 34.1999C66.6998 34.6972 66.2968 35.1001 65.8 35.1001H26.1998C25.7029 35.1001 25.3 34.6972 25.3 34.1999V18.0002C25.3 17.5029 25.7029 17.1 26.1998 17.1H65.8C66.2968 17.1 66.6998 17.5029 66.6998 18.0002V34.1999Z" fill="#3870DE"/>
<path d="M65.8003 38.7H49.6001C48.1092 38.7 46.9004 39.9088 46.9004 41.4002V46.8001C46.9004 48.2911 48.1092 49.4999 49.6001 49.4999H65.8003C67.2913 49.4999 68.5001 48.2911 68.5001 46.8001V41.4002C68.5001 39.9088 67.2913 38.7 65.8003 38.7ZM66.7001 46.8001C66.7001 47.297 66.2972 47.6999 65.8003 47.6999H49.6001C49.1033 47.6999 48.7004 47.297 48.7004 46.8001V41.4002C48.7004 40.9029 49.1033 40.5 49.6001 40.5H65.8003C66.2972 40.5 66.7001 40.9029 66.7001 41.4002V46.8001Z" fill="#3870DE"/>
<path d="M42.3999 38.7H26.1998C24.7088 38.7 23.5 39.9088 23.5 41.4002V46.8001C23.5 48.2911 24.7088 49.4999 26.1998 49.4999H42.3999C43.8909 49.4999 45.0997 48.2911 45.0997 46.8001V41.4002C45.0997 39.9088 43.8909 38.7 42.3999 38.7ZM43.2997 46.8001C43.2997 47.297 42.8968 47.6999 42.3999 47.6999H26.1998C25.7029 47.6999 25.3 47.297 25.3 46.8001V41.4002C25.3 40.9029 25.7029 40.5 26.1998 40.5H42.3999C42.8968 40.5 43.2997 40.9029 43.2997 41.4002V46.8001Z" fill="#3870DE"/>
<path d="M28.8996 43.2002H27.9994C27.5025 43.2002 27.0996 43.6031 27.0996 44.0999C27.0996 44.5972 27.5025 45.0001 27.9994 45.0001H28.8996C29.3964 45.0001 29.7994 44.5972 29.7994 44.0999C29.7994 43.6031 29.3964 43.2002 28.8996 43.2002Z" fill="#3870DE"/>
<path d="M40.5999 43.2002H32.4998C32.0029 43.2002 31.5996 43.6031 31.5996 44.0999C31.5996 44.5972 32.0029 45.0001 32.4998 45.0001H40.5999C41.0967 45.0001 41.4997 44.5972 41.4997 44.0999C41.4997 43.6031 41.0967 43.2002 40.5999 43.2002Z" fill="#3870DE"/>
<path d="M52.3 43.2002H51.3998C50.9029 43.2002 50.5 43.6031 50.5 44.0999C50.5 44.5972 50.9029 45.0001 51.3998 45.0001H52.3C52.7968 45.0001 53.1998 44.5972 53.1998 44.0999C53.1998 43.6031 52.7968 43.2002 52.3 43.2002Z" fill="#3870DE"/>
<path d="M64.0003 43.2002H55.9002C55.4029 43.2002 55 43.6031 55 44.0999C55 44.5972 55.4029 45.0001 55.9002 45.0001H64.0003C64.4971 45.0001 64.9001 44.5972 64.9001 44.0999C64.9001 43.6031 64.4971 43.2002 64.0003 43.2002Z" fill="#3870DE"/>
<path d="M68.4999 0H23.5001C21.0159 0.00288392 19.0029 2.01585 19 4.50014V49.4999C19.0029 51.9841 21.0159 53.9971 23.5001 54H68.4999C70.9841 53.9971 72.9971 51.9841 73 49.4999V4.50014C72.9971 2.01585 70.9841 0.00288392 68.4999 0V0ZM23.5001 1.79997H68.4999C69.9913 1.79997 71.2 3.00874 71.2 4.50014V10.7998H20.8V4.50014C20.8 3.00874 22.0087 1.79997 23.5001 1.79997ZM68.4999 52.2H23.5001C22.0087 52.2 20.8 50.9913 20.8 49.4999V12.5998H71.2V49.4999C71.2 50.9913 69.9913 52.2 68.4999 52.2Z" fill="#3870DE"/>
<path d="M55 32.0563C54.9551 31.9467 54.8892 31.8475 54.8056 31.7638L49.4057 26.3639C49.0543 26.0125 48.4845 26.0125 48.133 26.3639L46.1848 28.3122L43.1245 25.0361C42.9507 24.861 42.7138 24.7625 42.467 24.7625C42.2198 24.7625 41.9829 24.861 41.809 25.0361L35.7817 31.5002H34.3002C33.8033 31.5002 33.4004 31.9031 33.4004 32.3999C33.4004 32.8972 33.8033 33.3001 34.3002 33.3001H54.1724C54.4719 33.2989 54.7516 33.1485 54.9177 32.8988C55.0837 32.6492 55.1146 32.3332 55 32.0563ZM48.7696 28.2764L51.9995 31.5002H49.1626L47.4166 29.6289L48.7696 28.2764ZM42.4695 26.9728L45.5108 30.2308C45.5161 30.2366 45.5178 30.2444 45.5231 30.2498C45.5285 30.2551 45.5322 30.2543 45.5367 30.2588L46.7014 31.5002H38.2412L42.4695 26.9728Z" fill="#3870DE"/>
<path d="M53.2718 18.8999C51.2836 18.8999 49.6719 20.5116 49.6719 22.4998C49.6719 24.4881 51.2836 26.0998 53.2718 26.0998C55.2601 26.0998 56.8718 24.4881 56.8718 22.4998C56.8718 20.5116 55.2601 18.8999 53.2718 18.8999ZM53.2718 24.2998C52.2777 24.2998 51.4718 23.494 51.4718 22.4998C51.4718 21.5057 52.2777 20.6999 53.2718 20.6999C54.2659 20.6999 55.0718 21.5057 55.0718 22.4998C55.0718 23.494 54.2659 24.2998 53.2718 24.2998Z" fill="#3870DE"/>
<path d="M24.8219 7.3C25.3189 7.3 25.7219 6.89706 25.7219 6.4C25.7219 5.90294 25.3189 5.5 24.8219 5.5C24.3248 5.5 23.9219 5.90294 23.9219 6.4C23.9219 6.89706 24.3248 7.3 24.8219 7.3Z" fill="#3870DE"/>
<path d="M28.4215 7.3C28.9185 7.3 29.3215 6.89706 29.3215 6.4C29.3215 5.90294 28.9185 5.5 28.4215 5.5C27.9244 5.5 27.5215 5.90294 27.5215 6.4C27.5215 6.89706 27.9244 7.3 28.4215 7.3Z" fill="#3870DE"/>
<path d="M32.0211 7.3C32.5182 7.3 32.9211 6.89706 32.9211 6.4C32.9211 5.90294 32.5182 5.5 32.0211 5.5C31.524 5.5 31.1211 5.90294 31.1211 6.4C31.1211 6.89706 31.524 7.3 32.0211 7.3Z" fill="#3870DE"/>
<path d="M66.2223 7.3H67.1223C67.6193 7.3 68.0223 6.89706 68.0223 6.4C68.0223 5.90294 67.6193 5.5 67.1223 5.5H66.2223C65.7252 5.5 65.3223 5.90294 65.3223 6.4C65.3223 6.89706 65.7252 7.3 66.2223 7.3Z" fill="#3870DE"/>
<path d="M57.2223 7.3H62.6223C63.1193 7.3 63.5223 6.89706 63.5223 6.4C63.5223 5.90294 63.1193 5.5 62.6223 5.5H57.2223C56.7252 5.5 56.3223 5.90294 56.3223 6.4C56.3223 6.89706 56.7252 7.3 57.2223 7.3Z" fill="#3870DE"/>
</g>
<defs>
<clipPath id="clip0">
<rect width="54" height="54" fill="white" transform="translate(19)"/>
</clipPath>
</defs>
</svg>
