<svg width="54" height="54" viewBox="0 0 54 54" fill="none" xmlns="http://www.w3.org/2000/svg">
<path d="M51.21 26.5499H45V10.3499C44.997 7.86594 42.984 5.85296 40.5 5.85001H13.5C11.016 5.85296 9.00302 7.86594 8.99996 10.35V15.75H4.06255C1.81986 15.7525 0.00242578 17.5699 0 19.8126V44.0874C0.00242578 46.3301 1.81986 48.1475 4.06255 48.1499H18.4373C20.1501 48.1448 21.6752 47.0642 22.2479 45.4499H37.8C38.2971 45.4499 38.7 45.047 38.7 44.55V42.7499C38.7 41.2588 37.4911 40.0499 36 40.0499H33.3V36.45H40.5V45.36C40.5 46.9009 41.7492 48.1499 43.29 48.1499H51.2099C52.7508 48.1499 53.9999 46.9008 53.9999 45.36V29.34C54 27.7991 52.7508 26.5499 51.21 26.5499ZM20.7 44.0874C20.6991 45.3366 19.6866 46.349 18.4374 46.35H4.06255C2.81338 46.3491 1.80098 45.3366 1.79993 44.0874V43.65H20.6999V44.0874H20.7ZM20.7 41.85H1.80004V22.05H20.7V41.85ZM20.7 20.25H1.80004V19.8126C1.80098 18.5634 2.81348 17.551 4.06266 17.55H18.4374C19.6866 17.5509 20.699 18.5634 20.7 19.8126V20.25ZM36 41.85C36.497 41.85 36.8999 42.253 36.8999 42.7499V43.6499H22.5V41.85H36ZM22.5 40.0499V36.45H31.4999V40.0499H22.5ZM40.5 34.6499H32.4H22.5V31.9499H40.5V34.6499ZM40.5 29.34V30.15H22.5V19.8126C22.4974 17.5699 20.68 15.7525 18.4374 15.75H10.8V10.35C10.8 8.85892 12.0088 7.65004 13.5 7.65004H40.5C41.9911 7.65004 43.2 8.85882 43.2 10.35V26.559C41.6979 26.6074 40.5041 27.8371 40.5 29.34ZM52.2 45.36C52.2 45.9067 51.7567 46.35 51.2099 46.35H43.29C42.7432 46.35 42.2999 45.9067 42.2999 45.36V44.55H52.2V45.36ZM52.2 42.7499H42.2999V31.9499H52.2V42.7499ZM52.2 30.15H42.2999V29.34C42.2999 28.7933 42.7432 28.35 43.29 28.35H51.2099C51.7567 28.35 52.2 28.7933 52.2 29.34V30.15Z" fill="#3870DE"/>
</svg>
