<svg width="92" height="92" viewBox="0 0 92 92" fill="none" xmlns="http://www.w3.org/2000/svg">
<rect x="46" y="86" width="46" height="2" fill="#CCCCCC"/>
<rect y="78" width="46" height="2" fill="#CCCCCC"/>
<circle cx="46" cy="83" r="8" fill="white" stroke="#CCCCCC" stroke-width="2"/>
<circle cx="46" cy="83" r="3" stroke="#CCCCCC" stroke-width="2"/>
<path d="M70.21 26.5499H64V10.3499C63.997 7.86594 61.984 5.85296 59.5 5.85001H32.5C30.016 5.85296 28.003 7.86594 28 10.35V15.75H23.0626C20.8199 15.7525 19.0024 17.5699 19 19.8126V44.0874C19.0024 46.3301 20.8199 48.1475 23.0626 48.1499H37.4373C39.1501 48.1448 40.6752 47.0642 41.2479 45.4499H56.8C57.2971 45.4499 57.7 45.047 57.7 44.55V42.7499C57.7 41.2588 56.4911 40.0499 55 40.0499H52.3V36.45H59.5V45.36C59.5 46.9009 60.7492 48.1499 62.29 48.1499H70.2099C71.7508 48.1499 72.9999 46.9008 72.9999 45.36V29.34C73 27.7991 71.7508 26.5499 70.21 26.5499ZM39.7 44.0874C39.6991 45.3366 38.6866 46.349 37.4374 46.35H23.0626C21.8134 46.3491 20.801 45.3366 20.7999 44.0874V43.65H39.6999V44.0874H39.7ZM39.7 41.85H20.8V22.05H39.7V41.85ZM39.7 20.25H20.8V19.8126C20.801 18.5634 21.8135 17.551 23.0627 17.55H37.4374C38.6866 17.5509 39.699 18.5634 39.7 19.8126V20.25ZM55 41.85C55.497 41.85 55.8999 42.253 55.8999 42.7499V43.6499H41.5V41.85H55ZM41.5 40.0499V36.45H50.4999V40.0499H41.5ZM59.5 34.6499H51.4H41.5V31.9499H59.5V34.6499ZM59.5 29.34V30.15H41.5V19.8126C41.4974 17.5699 39.68 15.7525 37.4374 15.75H29.8V10.35C29.8 8.85892 31.0088 7.65004 32.5 7.65004H59.5C60.9911 7.65004 62.2 8.85882 62.2 10.35V26.559C60.6979 26.6074 59.5041 27.8371 59.5 29.34ZM71.2 45.36C71.2 45.9067 70.7567 46.35 70.2099 46.35H62.29C61.7432 46.35 61.2999 45.9067 61.2999 45.36V44.55H71.2V45.36ZM71.2 42.7499H61.2999V31.9499H71.2V42.7499ZM71.2 30.15H61.2999V29.34C61.2999 28.7933 61.7432 28.35 62.29 28.35H70.2099C70.7567 28.35 71.2 28.7933 71.2 29.34V30.15Z" fill="#3870DE"/>
</svg>
