<svg width="43" height="44" viewBox="0 0 43 44" fill="none" xmlns="http://www.w3.org/2000/svg">
<g clip-path="url(#clip0)">
<path d="M26.7267 4.6497L27.6435 2.58096C27.9197 1.9579 27.6399 1.22817 27.0185 0.951286C26.397 0.67424 25.6695 0.954965 25.3934 1.57811L24.0767 4.54888H19.1105L17.7938 1.57803C17.5177 0.954965 16.79 0.67424 16.1687 0.951203C15.5474 1.22808 15.2675 1.95782 15.5436 2.58088L16.4605 4.64961C14.0095 5.13198 12.1543 7.30187 12.1543 9.89903V11.9568H31.033V9.89903C31.0329 7.30203 29.1777 5.13198 26.7267 4.6497Z" fill="#3870DE"/>
<path d="M40.9021 22.6575H33.5148V20.0904C37.2315 19.4967 40.0813 16.2602 40.0813 12.3685V10.7223C40.0813 10.0405 39.53 9.48763 38.8501 9.48763C38.1702 9.48763 37.6189 10.0405 37.6189 10.7223V12.3685C37.6189 14.8937 35.8649 17.0144 33.5149 17.5735V16.4842C33.5149 15.3495 32.5944 14.4264 31.4629 14.4264H22.0235V28.831C22.0235 29.5128 21.4723 30.0656 20.7923 30.0656C20.1123 30.0656 19.5611 29.5128 19.5611 28.831V14.4263H10.1218C8.99029 14.4263 8.06979 15.3494 8.06979 16.4841V17.5734C5.71975 17.0143 3.96576 14.8936 3.96576 12.3684V10.7222C3.96576 10.0404 3.41448 9.48755 2.73456 9.48755C2.05464 9.48755 1.50335 10.0404 1.50335 10.7222V12.3684C1.50335 16.2601 4.35316 19.4965 8.06987 20.0903V22.6574H0.682379C0.00245974 22.6574 -0.548828 23.2103 -0.548828 23.8921C-0.548828 24.5739 0.00245974 25.1268 0.682379 25.1268H8.0697V27.6939C4.35299 28.2877 1.50318 31.5241 1.50318 35.4158V37.062C1.50318 37.7438 2.05447 38.2967 2.73439 38.2967C3.41431 38.2967 3.9656 37.7438 3.9656 37.062V35.4158C3.9656 32.8906 5.71958 30.77 8.06962 30.2108V30.8886C8.0697 37.9237 13.7771 43.6471 20.7923 43.6471C27.8074 43.6471 33.5148 37.9237 33.5148 30.8887V30.211C35.8648 30.7701 37.6188 32.8908 37.6188 35.416V37.0622C37.6188 37.744 38.1701 38.2969 38.85 38.2969C39.53 38.2969 40.0812 37.744 40.0812 37.0622V35.416C40.0812 31.5243 37.2314 28.2879 33.5147 27.6941V25.127H40.902C41.582 25.127 42.1333 24.5741 42.1333 23.8923C42.1333 23.2105 41.5821 22.6575 40.9021 22.6575Z" fill="#3870DE"/>
</g>
<defs>
<clipPath id="clip0">
<rect width="42.6825" height="42.8026" fill="white" transform="translate(0.251953 0.844482)"/>
</clipPath>
</defs>
</svg>
