<svg width="54" height="54" viewBox="0 0 54 54" fill="none" xmlns="http://www.w3.org/2000/svg">
<g clip-path="url(#clip0)">
<path d="M53.9311 22.2119C53.9212 22.183 53.9142 22.1554 53.9015 22.1274C53.8578 22.0294 53.7968 21.94 53.7214 21.8638L46.7889 14.9275V9.90005C46.7889 8.40866 45.5802 7.19989 44.0888 7.19989H39.589V2.70016C39.589 1.20877 38.3799 0 36.8889 0H13.4888C11.9978 0 10.7891 1.20877 10.7891 2.70016V36.9001C10.7891 38.391 11.9978 39.5998 13.4888 39.5998H15.2888C15.7861 39.5998 16.189 39.1969 16.189 38.7C16.189 38.2028 15.7861 37.7998 15.2888 37.7998H13.4888C12.992 37.7998 12.589 37.3969 12.589 36.9001V2.70016C12.589 2.2029 12.992 1.79997 13.4888 1.79997H36.8889C37.3861 1.79997 37.7891 2.2029 37.7891 2.70016V7.19989H20.6887C19.1977 7.19989 17.989 8.40866 17.989 9.90005V35.9999C17.989 36.4971 18.3919 36.9001 18.8887 36.9001C19.386 36.9001 19.7889 36.4971 19.7889 35.9999V9.90005C19.7889 9.40279 20.1918 8.99986 20.6887 8.99986H44.0888C44.586 8.99986 44.989 9.40279 44.989 9.90005V14.4002H27.889C26.3976 14.4002 25.1888 15.609 25.1888 17.0999V35.9999C25.1888 36.4971 25.5918 36.9001 26.089 36.9001C26.5859 36.9001 26.9888 36.4971 26.9888 35.9999V17.0999C26.9888 16.6031 27.3917 16.2002 27.889 16.2002H44.989V20.6999C44.989 22.1913 46.1977 23.4001 47.6887 23.4001H52.1888V51.2998C52.1888 51.7971 51.7859 52.2 51.2891 52.2H43.189C42.6917 52.2 42.2888 52.603 42.2888 53.0998C42.2888 53.5971 42.6917 54 43.189 54H51.2891C52.78 54 53.9888 52.7912 53.9888 51.2998V22.4999C53.9888 22.4801 53.9789 22.4632 53.9773 22.4434C53.9727 22.3643 53.9571 22.2865 53.9311 22.2119ZM47.6887 21.6001C47.1918 21.6001 46.7889 21.1972 46.7889 20.6999V17.4728L50.9162 21.6001H47.6887Z" fill="#3870DE"/>
<path d="M11.6895 53.0998C11.6895 53.5971 12.0924 54 12.5896 54H39.5896C40.0865 54 40.4894 53.5971 40.4894 53.0998C40.4894 45.1472 34.0422 38.7 26.0896 38.7C18.1366 38.7 11.6895 45.1472 11.6895 53.0998ZM26.0896 40.5C32.6959 40.5082 38.1774 45.6111 38.6581 52.2H29.5627L34.6268 49.3866C34.9078 49.2304 35.0842 48.9359 35.0895 48.6145C35.0945 48.2932 34.928 47.9932 34.652 47.828C34.3764 47.6628 34.0332 47.657 33.7522 47.8136L25.8565 52.2H22.6166C23.0257 50.6151 24.4524 49.5056 26.0896 49.4999C26.3315 49.5003 26.5725 49.5242 26.8094 49.572C27.2968 49.6712 27.7722 49.3573 27.8715 48.8699C27.9708 48.383 27.6564 47.9075 27.1695 47.8078C26.8139 47.7366 26.4522 47.7003 26.0896 47.6999C23.4575 47.7048 21.2113 49.6049 20.7705 52.2H13.5211C14.0015 45.6111 19.483 40.5082 26.0896 40.5Z" fill="#3870DE"/>
<path d="M17.9894 49.4999C17.9894 49.9971 17.5865 50.4001 17.0892 50.4001C16.5924 50.4001 16.1895 49.9971 16.1895 49.4999C16.1895 49.003 16.5924 48.6001 17.0892 48.6001C17.5865 48.6001 17.9894 49.003 17.9894 49.4999Z" fill="#3870DE"/>
<path d="M20.6886 45.8999C20.6886 46.3972 20.2857 46.8001 19.7889 46.8001C19.2916 46.8001 18.8887 46.3972 18.8887 45.8999C18.8887 45.4031 19.2916 45.0001 19.7889 45.0001C20.2857 45.0001 20.6886 45.4031 20.6886 45.8999Z" fill="#3870DE"/>
<path d="M24.2887 43.2002C24.2887 43.697 23.8857 44.0999 23.3885 44.0999C22.8916 44.0999 22.4883 43.697 22.4883 43.2002C22.4883 42.7029 22.8916 42.3 23.3885 42.3C23.8857 42.3 24.2887 42.7029 24.2887 43.2002Z" fill="#3870DE"/>
<path d="M29.6886 43.2002C29.6886 43.697 29.2857 44.0999 28.7885 44.0999C28.2916 44.0999 27.8887 43.697 27.8887 43.2002C27.8887 42.7029 28.2916 42.3 28.7885 42.3C29.2857 42.3 29.6886 42.7029 29.6886 43.2002Z" fill="#3870DE"/>
<path d="M33.2883 45.8999C33.2883 46.3972 32.8853 46.8001 32.3881 46.8001C31.8912 46.8001 31.4883 46.3972 31.4883 45.8999C31.4883 45.4031 31.8912 45.0001 32.3881 45.0001C32.8853 45.0001 33.2883 45.4031 33.2883 45.8999Z" fill="#3870DE"/>
<path d="M30.589 18.8999C30.589 19.3972 30.1861 19.8001 29.6893 19.8001C29.192 19.8001 28.7891 19.3972 28.7891 18.8999C28.7891 18.4031 29.192 18.0001 29.6893 18.0001C30.1861 18.0001 30.589 18.4031 30.589 18.8999Z" fill="#3870DE"/>
<path d="M34.1886 18.8999C34.1886 19.3972 33.7857 19.8001 33.2889 19.8001C32.7916 19.8001 32.3887 19.3972 32.3887 18.8999C32.3887 18.4031 32.7916 18.0001 33.2889 18.0001C33.7857 18.0001 34.1886 18.4031 34.1886 18.8999Z" fill="#3870DE"/>
<path d="M37.7887 18.8999C37.7887 19.3972 37.3857 19.8001 36.8885 19.8001C36.3916 19.8001 35.9883 19.3972 35.9883 18.8999C35.9883 18.4031 36.3916 18.0001 36.8885 18.0001C37.3857 18.0001 37.7887 18.4031 37.7887 18.8999Z" fill="#3870DE"/>
<path d="M23.3898 11.7C23.3898 12.1969 22.9869 12.5998 22.4896 12.5998C21.9928 12.5998 21.5898 12.1969 21.5898 11.7C21.5898 11.2028 21.9928 10.7998 22.4896 10.7998C22.9869 10.7998 23.3898 11.2028 23.3898 11.7Z" fill="#3870DE"/>
<path d="M26.9894 11.7C26.9894 12.1969 26.5865 12.5998 26.0896 12.5998C25.5924 12.5998 25.1895 12.1969 25.1895 11.7C25.1895 11.2028 25.5924 10.7998 26.0896 10.7998C26.5865 10.7998 26.9894 11.2028 26.9894 11.7Z" fill="#3870DE"/>
<path d="M30.589 11.7C30.589 12.1969 30.1861 12.5998 29.6893 12.5998C29.192 12.5998 28.7891 12.1969 28.7891 11.7C28.7891 11.2028 29.192 10.7998 29.6893 10.7998C30.1861 10.7998 30.589 11.2028 30.589 11.7Z" fill="#3870DE"/>
<path d="M16.1886 4.50014C16.1886 4.99699 15.7857 5.39992 15.2885 5.39992C14.7916 5.39992 14.3887 4.99699 14.3887 4.50014C14.3887 4.00287 14.7916 3.59995 15.2885 3.59995C15.7857 3.59995 16.1886 4.00287 16.1886 4.50014Z" fill="#3870DE"/>
<path d="M19.7883 4.50014C19.7883 4.99699 19.3853 5.39992 18.8881 5.39992C18.3912 5.39992 17.9883 4.99699 17.9883 4.50014C17.9883 4.00287 18.3912 3.59995 18.8881 3.59995C19.3853 3.59995 19.7883 4.00287 19.7883 4.50014Z" fill="#3870DE"/>
<path d="M23.3898 4.50014C23.3898 4.99699 22.9869 5.39992 22.4896 5.39992C21.9928 5.39992 21.5898 4.99699 21.5898 4.50014C21.5898 4.00287 21.9928 3.59995 22.4896 3.59995C22.9869 3.59995 23.3898 4.00287 23.3898 4.50014Z" fill="#3870DE"/>
<path d="M3.32524 1.16387C2.97381 0.812443 2.40403 0.812443 2.05261 1.16387L0.252635 2.96384C-0.0884906 3.31691 -0.0835468 3.87804 0.263759 4.22535C0.610652 4.57265 1.17219 4.57718 1.52526 4.23647L1.78894 3.9728V9.90006C1.78894 10.3969 2.19186 10.7998 2.68913 10.7998C3.18598 10.7998 3.58891 10.3969 3.58891 9.90006V3.9728L3.85258 4.23647C4.20606 4.57718 4.76719 4.57265 5.1145 4.22535C5.46139 3.87804 5.46633 3.31691 5.12521 2.96384L3.32524 1.16387Z" fill="#3870DE"/>
<path d="M2.68925 12.5998C2.19199 12.5998 1.78906 13.0031 1.78906 13.5V15.3C1.78906 15.7972 2.19199 16.2002 2.68925 16.2002C3.18611 16.2002 3.58904 15.7972 3.58904 15.3V13.5C3.58904 13.0031 3.18611 12.5998 2.68925 12.5998Z" fill="#3870DE"/>
<path d="M7.18852 41.7726L7.45219 42.0363C7.80567 42.3774 8.3668 42.3725 8.71411 42.0252C9.061 41.6783 9.06594 41.1167 8.72482 40.7637L6.92485 38.9637C6.57342 38.6123 6.00364 38.6123 5.65222 38.9637L3.85224 40.7637C3.51112 41.1167 3.51606 41.6783 3.86337 42.0252C4.21067 42.3725 4.7718 42.3774 5.12487 42.0363L5.38855 41.7726V44.0999C5.38855 44.5972 5.79147 45.0001 6.28874 45.0001C6.78559 45.0001 7.18852 44.5972 7.18852 44.0999V41.7726Z" fill="#3870DE"/>
<path d="M6.28886 46.8001C5.7916 46.8001 5.38867 47.203 5.38867 47.6999V53.0998C5.38867 53.5971 5.7916 54 6.28886 54C6.78572 54 7.18864 53.5971 7.18864 53.0998V47.6999C7.18864 47.203 6.78572 46.8001 6.28886 46.8001Z" fill="#3870DE"/>
<path d="M28.7891 30.5999C28.7891 31.5941 29.5949 32.3999 30.589 32.3999H35.989C36.9831 32.3999 37.7893 31.5941 37.7893 30.5999V23.4001C37.7893 22.4059 36.9831 21.6001 35.989 21.6001H30.589C29.5949 21.6001 28.7891 22.4059 28.7891 23.4001V30.5999ZM30.589 23.4001H35.989V30.5999H30.589V23.4001Z" fill="#3870DE"/>
<path d="M40.4896 32.3999H49.4895C49.9868 32.3999 50.3897 31.997 50.3897 31.5001C50.3897 31.0029 49.9868 30.5999 49.4895 30.5999H40.4896C39.9928 30.5999 39.5898 31.0029 39.5898 31.5001C39.5898 31.997 39.9928 32.3999 40.4896 32.3999Z" fill="#3870DE"/>
<path d="M49.488 45.8999H45.8881C45.3912 45.8999 44.9883 46.3028 44.9883 46.8001C44.9883 47.297 45.3912 47.6999 45.8881 47.6999H49.488C49.9853 47.6999 50.3882 47.297 50.3882 46.8001C50.3882 46.3028 49.9853 45.8999 49.488 45.8999Z" fill="#3870DE"/>
<path d="M49.4883 37.7998H36.8885C36.3916 37.7998 35.9883 38.2028 35.9883 38.7C35.9883 39.1969 36.3916 39.5998 36.8885 39.5998H49.4883C49.9855 39.5998 50.3885 39.1969 50.3885 38.7C50.3885 38.2028 49.9855 37.7998 49.4883 37.7998Z" fill="#3870DE"/>
<path d="M49.4895 41.4002H40.4896C39.9928 41.4002 39.5898 41.8031 39.5898 42.3C39.5898 42.7972 39.9928 43.2002 40.4896 43.2002H49.4895C49.9868 43.2002 50.3897 42.7972 50.3897 42.3C50.3897 41.8031 49.9868 41.4002 49.4895 41.4002Z" fill="#3870DE"/>
<path d="M29.6893 35.9999H49.489C49.9862 35.9999 50.3891 35.5969 50.3891 35.1001C50.3891 34.6028 49.9862 34.1999 49.489 34.1999H29.6893C29.192 34.1999 28.7891 34.6028 28.7891 35.1001C28.7891 35.5969 29.192 35.9999 29.6893 35.9999Z" fill="#3870DE"/>
<path d="M40.4896 28.8H49.4895C49.9868 28.8 50.3897 28.397 50.3897 27.9002C50.3897 27.4029 49.9868 27 49.4895 27H40.4896C39.9928 27 39.5898 27.4029 39.5898 27.9002C39.5898 28.397 39.9928 28.8 40.4896 28.8Z" fill="#3870DE"/>
</g>
<defs>
<clipPath id="clip0">
<rect width="54" height="54" fill="white"/>
</clipPath>
</defs>
</svg>
