<svg width="92" height="92" viewBox="0 0 92 92" fill="none" xmlns="http://www.w3.org/2000/svg">
<rect x="46" y="86" width="46" height="2" fill="#CCCCCC"/>
<rect y="78" width="46" height="2" fill="#CCCCCC"/>
<circle cx="46" cy="83" r="8" fill="white" stroke="#CCCCCC" stroke-width="2"/>
<circle cx="46" cy="83" r="3" stroke="#CCCCCC" stroke-width="2"/>
<g clip-path="url(#clip0)">
<path d="M72.9311 22.2119C72.9212 22.183 72.9142 22.1554 72.9015 22.1274C72.8578 22.0294 72.7968 21.94 72.7214 21.8638L65.7889 14.9275V9.90005C65.7889 8.40866 64.5802 7.19989 63.0888 7.19989H58.589V2.70016C58.589 1.20877 57.3799 0 55.8889 0H32.4888C30.9978 0 29.7891 1.20877 29.7891 2.70016V36.9001C29.7891 38.391 30.9978 39.5998 32.4888 39.5998H34.2888C34.7861 39.5998 35.189 39.1969 35.189 38.7C35.189 38.2028 34.7861 37.7998 34.2888 37.7998H32.4888C31.992 37.7998 31.589 37.3969 31.589 36.9001V2.70016C31.589 2.2029 31.992 1.79997 32.4888 1.79997H55.8889C56.3861 1.79997 56.7891 2.2029 56.7891 2.70016V7.19989H39.6887C38.1977 7.19989 36.989 8.40866 36.989 9.90005V35.9999C36.989 36.4971 37.3919 36.9001 37.8887 36.9001C38.386 36.9001 38.7889 36.4971 38.7889 35.9999V9.90005C38.7889 9.40279 39.1918 8.99986 39.6887 8.99986H63.0888C63.586 8.99986 63.989 9.40279 63.989 9.90005V14.4002H46.889C45.3976 14.4002 44.1888 15.609 44.1888 17.0999V35.9999C44.1888 36.4971 44.5918 36.9001 45.089 36.9001C45.5859 36.9001 45.9888 36.4971 45.9888 35.9999V17.0999C45.9888 16.6031 46.3917 16.2002 46.889 16.2002H63.989V20.6999C63.989 22.1913 65.1977 23.4001 66.6887 23.4001H71.1888V51.2998C71.1888 51.7971 70.7859 52.2 70.2891 52.2H62.189C61.6917 52.2 61.2888 52.603 61.2888 53.0998C61.2888 53.5971 61.6917 54 62.189 54H70.2891C71.78 54 72.9888 52.7912 72.9888 51.2998V22.4999C72.9888 22.4801 72.9789 22.4632 72.9773 22.4434C72.9727 22.3643 72.9571 22.2865 72.9311 22.2119ZM66.6887 21.6001C66.1918 21.6001 65.7889 21.1972 65.7889 20.6999V17.4728L69.9162 21.6001H66.6887Z" fill="#3870DE"/>
<path d="M30.6895 53.0998C30.6895 53.5971 31.0924 54 31.5896 54H58.5896C59.0865 54 59.4894 53.5971 59.4894 53.0998C59.4894 45.1472 53.0422 38.7 45.0896 38.7C37.1366 38.7 30.6895 45.1472 30.6895 53.0998ZM45.0896 40.5C51.6959 40.5082 57.1774 45.6111 57.6581 52.2H48.5627L53.6268 49.3866C53.9078 49.2304 54.0842 48.9359 54.0895 48.6145C54.0945 48.2932 53.928 47.9932 53.652 47.828C53.3764 47.6628 53.0332 47.657 52.7522 47.8136L44.8565 52.2H41.6166C42.0257 50.6151 43.4524 49.5056 45.0896 49.4999C45.3315 49.5003 45.5725 49.5242 45.8094 49.572C46.2968 49.6712 46.7722 49.3573 46.8715 48.8699C46.9708 48.383 46.6564 47.9075 46.1695 47.8078C45.8139 47.7366 45.4522 47.7003 45.0896 47.6999C42.4575 47.7048 40.2113 49.6049 39.7705 52.2H32.5211C33.0015 45.6111 38.483 40.5082 45.0896 40.5Z" fill="#3870DE"/>
<path d="M36.9894 49.4999C36.9894 49.9971 36.5865 50.4001 36.0892 50.4001C35.5924 50.4001 35.1895 49.9971 35.1895 49.4999C35.1895 49.003 35.5924 48.6001 36.0892 48.6001C36.5865 48.6001 36.9894 49.003 36.9894 49.4999Z" fill="#3870DE"/>
<path d="M39.6886 45.8999C39.6886 46.3972 39.2857 46.8001 38.7889 46.8001C38.2916 46.8001 37.8887 46.3972 37.8887 45.8999C37.8887 45.4031 38.2916 45.0001 38.7889 45.0001C39.2857 45.0001 39.6886 45.4031 39.6886 45.8999Z" fill="#3870DE"/>
<path d="M43.2887 43.2002C43.2887 43.697 42.8857 44.0999 42.3885 44.0999C41.8916 44.0999 41.4883 43.697 41.4883 43.2002C41.4883 42.7029 41.8916 42.3 42.3885 42.3C42.8857 42.3 43.2887 42.7029 43.2887 43.2002Z" fill="#3870DE"/>
<path d="M48.6886 43.2002C48.6886 43.697 48.2857 44.0999 47.7885 44.0999C47.2916 44.0999 46.8887 43.697 46.8887 43.2002C46.8887 42.7029 47.2916 42.3 47.7885 42.3C48.2857 42.3 48.6886 42.7029 48.6886 43.2002Z" fill="#3870DE"/>
<path d="M52.2883 45.8999C52.2883 46.3972 51.8853 46.8001 51.3881 46.8001C50.8912 46.8001 50.4883 46.3972 50.4883 45.8999C50.4883 45.4031 50.8912 45.0001 51.3881 45.0001C51.8853 45.0001 52.2883 45.4031 52.2883 45.8999Z" fill="#3870DE"/>
<path d="M49.589 18.8999C49.589 19.3972 49.1861 19.8001 48.6893 19.8001C48.192 19.8001 47.7891 19.3972 47.7891 18.8999C47.7891 18.4031 48.192 18.0001 48.6893 18.0001C49.1861 18.0001 49.589 18.4031 49.589 18.8999Z" fill="#3870DE"/>
<path d="M53.1886 18.8999C53.1886 19.3972 52.7857 19.8001 52.2889 19.8001C51.7916 19.8001 51.3887 19.3972 51.3887 18.8999C51.3887 18.4031 51.7916 18.0001 52.2889 18.0001C52.7857 18.0001 53.1886 18.4031 53.1886 18.8999Z" fill="#3870DE"/>
<path d="M56.7887 18.8999C56.7887 19.3972 56.3857 19.8001 55.8885 19.8001C55.3916 19.8001 54.9883 19.3972 54.9883 18.8999C54.9883 18.4031 55.3916 18.0001 55.8885 18.0001C56.3857 18.0001 56.7887 18.4031 56.7887 18.8999Z" fill="#3870DE"/>
<path d="M42.3898 11.7C42.3898 12.1969 41.9869 12.5998 41.4896 12.5998C40.9928 12.5998 40.5898 12.1969 40.5898 11.7C40.5898 11.2028 40.9928 10.7998 41.4896 10.7998C41.9869 10.7998 42.3898 11.2028 42.3898 11.7Z" fill="#3870DE"/>
<path d="M45.9894 11.7C45.9894 12.1969 45.5865 12.5998 45.0896 12.5998C44.5924 12.5998 44.1895 12.1969 44.1895 11.7C44.1895 11.2028 44.5924 10.7998 45.0896 10.7998C45.5865 10.7998 45.9894 11.2028 45.9894 11.7Z" fill="#3870DE"/>
<path d="M49.589 11.7C49.589 12.1969 49.1861 12.5998 48.6893 12.5998C48.192 12.5998 47.7891 12.1969 47.7891 11.7C47.7891 11.2028 48.192 10.7998 48.6893 10.7998C49.1861 10.7998 49.589 11.2028 49.589 11.7Z" fill="#3870DE"/>
<path d="M35.1886 4.50014C35.1886 4.99699 34.7857 5.39992 34.2885 5.39992C33.7916 5.39992 33.3887 4.99699 33.3887 4.50014C33.3887 4.00287 33.7916 3.59995 34.2885 3.59995C34.7857 3.59995 35.1886 4.00287 35.1886 4.50014Z" fill="#3870DE"/>
<path d="M38.7883 4.50014C38.7883 4.99699 38.3853 5.39992 37.8881 5.39992C37.3912 5.39992 36.9883 4.99699 36.9883 4.50014C36.9883 4.00287 37.3912 3.59995 37.8881 3.59995C38.3853 3.59995 38.7883 4.00287 38.7883 4.50014Z" fill="#3870DE"/>
<path d="M42.3898 4.50014C42.3898 4.99699 41.9869 5.39992 41.4896 5.39992C40.9928 5.39992 40.5898 4.99699 40.5898 4.50014C40.5898 4.00287 40.9928 3.59995 41.4896 3.59995C41.9869 3.59995 42.3898 4.00287 42.3898 4.50014Z" fill="#3870DE"/>
<path d="M22.3252 1.16387C21.9738 0.812443 21.404 0.812443 21.0526 1.16387L19.2526 2.96384C18.9115 3.31691 18.9165 3.87804 19.2638 4.22535C19.6107 4.57265 20.1722 4.57718 20.5253 4.23647L20.7889 3.9728V9.90006C20.7889 10.3969 21.1919 10.7998 21.6891 10.7998C22.186 10.7998 22.5889 10.3969 22.5889 9.90006V3.9728L22.8526 4.23647C23.2061 4.57718 23.7672 4.57265 24.1145 4.22535C24.4614 3.87804 24.4663 3.31691 24.1252 2.96384L22.3252 1.16387Z" fill="#3870DE"/>
<path d="M21.6893 12.5998C21.192 12.5998 20.7891 13.0031 20.7891 13.5V15.3C20.7891 15.7972 21.192 16.2002 21.6893 16.2002C22.1861 16.2002 22.589 15.7972 22.589 15.3V13.5C22.589 13.0031 22.1861 12.5998 21.6893 12.5998Z" fill="#3870DE"/>
<path d="M26.1885 41.7726L26.4522 42.0363C26.8057 42.3774 27.3668 42.3725 27.7141 42.0252C28.061 41.6783 28.0659 41.1167 27.7248 40.7637L25.9248 38.9637C25.5734 38.6123 25.0036 38.6123 24.6522 38.9637L22.8522 40.7637C22.5111 41.1167 22.5161 41.6783 22.8634 42.0252C23.2107 42.3725 23.7718 42.3774 24.1249 42.0363L24.3885 41.7726V44.0999C24.3885 44.5972 24.7915 45.0001 25.2887 45.0001C25.7856 45.0001 26.1885 44.5972 26.1885 44.0999V41.7726Z" fill="#3870DE"/>
<path d="M25.2889 46.8001C24.7916 46.8001 24.3887 47.203 24.3887 47.6999V53.0998C24.3887 53.5971 24.7916 54 25.2889 54C25.7857 54 26.1886 53.5971 26.1886 53.0998V47.6999C26.1886 47.203 25.7857 46.8001 25.2889 46.8001Z" fill="#3870DE"/>
<path d="M47.7891 30.5999C47.7891 31.5941 48.5949 32.3999 49.589 32.3999H54.989C55.9831 32.3999 56.7893 31.5941 56.7893 30.5999V23.4001C56.7893 22.4059 55.9831 21.6001 54.989 21.6001H49.589C48.5949 21.6001 47.7891 22.4059 47.7891 23.4001V30.5999ZM49.589 23.4001H54.989V30.5999H49.589V23.4001Z" fill="#3870DE"/>
<path d="M59.4896 32.3999H68.4895C68.9868 32.3999 69.3897 31.997 69.3897 31.5001C69.3897 31.0029 68.9868 30.5999 68.4895 30.5999H59.4896C58.9928 30.5999 58.5898 31.0029 58.5898 31.5001C58.5898 31.997 58.9928 32.3999 59.4896 32.3999Z" fill="#3870DE"/>
<path d="M68.488 45.8999H64.8881C64.3912 45.8999 63.9883 46.3028 63.9883 46.8001C63.9883 47.297 64.3912 47.6999 64.8881 47.6999H68.488C68.9853 47.6999 69.3882 47.297 69.3882 46.8001C69.3882 46.3028 68.9853 45.8999 68.488 45.8999Z" fill="#3870DE"/>
<path d="M68.4883 37.7998H55.8885C55.3916 37.7998 54.9883 38.2028 54.9883 38.7C54.9883 39.1969 55.3916 39.5998 55.8885 39.5998H68.4883C68.9855 39.5998 69.3885 39.1969 69.3885 38.7C69.3885 38.2028 68.9855 37.7998 68.4883 37.7998Z" fill="#3870DE"/>
<path d="M68.4895 41.4002H59.4896C58.9928 41.4002 58.5898 41.8031 58.5898 42.3C58.5898 42.7972 58.9928 43.2002 59.4896 43.2002H68.4895C68.9868 43.2002 69.3897 42.7972 69.3897 42.3C69.3897 41.8031 68.9868 41.4002 68.4895 41.4002Z" fill="#3870DE"/>
<path d="M48.6893 35.9999H68.489C68.9862 35.9999 69.3891 35.5969 69.3891 35.1001C69.3891 34.6028 68.9862 34.1999 68.489 34.1999H48.6893C48.192 34.1999 47.7891 34.6028 47.7891 35.1001C47.7891 35.5969 48.192 35.9999 48.6893 35.9999Z" fill="#3870DE"/>
<path d="M59.4896 28.8H68.4895C68.9868 28.8 69.3897 28.397 69.3897 27.9002C69.3897 27.4029 68.9868 27 68.4895 27H59.4896C58.9928 27 58.5898 27.4029 58.5898 27.9002C58.5898 28.397 58.9928 28.8 59.4896 28.8Z" fill="#3870DE"/>
</g>
<defs>
<clipPath id="clip0">
<rect width="54" height="54" fill="white" transform="translate(19)"/>
</clipPath>
</defs>
</svg>
