<svg width="256" height="160" viewBox="0 0 256 160" fill="none" xmlns="http://www.w3.org/2000/svg">
<path d="M214.538 107.307H171.37L163.831 131.787H130.176L178.101 0.748291H207.717L256.001 131.787H222.166L214.538 107.307ZM178.908 82.9176H206.999L192.909 37.468L178.908 82.9176Z" fill="#3870DE"/>
<path fill-rule="evenodd" clip-rule="evenodd" d="M110.533 114.717C132.763 94.238 138.687 60.3559 122.965 33.0493C104.77 1.44538 64.4718 -9.38291 32.9566 8.8636C1.44132 27.1101 -9.35659 67.5218 8.83874 99.1257C25.3568 127.816 60.0907 139.385 89.9325 127.623L108.573 160L129.596 147.828L110.533 114.717ZM87.8786 104.259C66.8562 116.43 39.975 109.207 27.8377 88.1258C15.7004 67.0443 22.9032 40.0874 43.9256 27.916C64.948 15.7445 91.8293 22.9676 103.967 44.0492C116.104 65.1307 108.901 92.0876 87.8786 104.259Z" fill="#3870DE"/>
</svg>
