<svg width="54" height="54" viewBox="0 0 54 54" fill="none" xmlns="http://www.w3.org/2000/svg">
<g clip-path="url(#clip0)">
<path d="M49.4999 1.37109H4.50014C2.01585 1.37398 0.00288392 3.38695 0 5.87123V45.4711C0.00288392 47.9553 2.01585 49.9683 4.50014 49.9712H29.7002C30.197 49.9712 30.5999 49.5683 30.5999 49.071C30.5999 48.5741 30.197 48.1712 29.7002 48.1712H4.50014C3.00874 48.1712 1.79997 46.9624 1.79997 45.4711V13.9709H52.2V26.5711C52.2 27.068 52.603 27.4709 53.0998 27.4709C53.5971 27.4709 54 27.068 54 26.5711V5.87123C53.9971 3.38695 51.9841 1.37398 49.4999 1.37109V1.37109ZM1.79997 12.1709V5.87123C1.79997 4.37984 3.00874 3.17107 4.50014 3.17107H49.4999C50.9913 3.17107 52.2 4.37984 52.2 5.87123V12.1709H1.79997Z" fill="#3870DE"/>
<path d="M8.7379 16.035C8.38648 15.6835 7.8167 15.6835 7.46527 16.035L4.76552 18.7347C4.4141 19.0861 4.4141 19.6559 4.76552 20.0073L7.46527 22.7075C7.81835 23.0486 8.37989 23.0437 8.72719 22.6964C9.07409 22.3491 9.07903 21.7879 8.7379 21.4349L6.67426 19.3712L8.7379 17.3076C9.08933 16.9557 9.08933 16.3864 8.7379 16.035Z" fill="#3870DE"/>
<path d="M15.5644 22.7075C15.9158 23.0589 16.4856 23.0589 16.837 22.7075L19.5371 20.0073C19.8882 19.6559 19.8882 19.0861 19.5371 18.7347L16.837 16.035C16.4839 15.6938 15.9224 15.6988 15.5755 16.0457C15.2282 16.393 15.2232 16.9541 15.5644 17.3076L17.628 19.3712L15.5644 21.4349C15.2129 21.7863 15.2129 22.3561 15.5644 22.7075Z" fill="#3870DE"/>
<path d="M13.9011 15.8656C13.6877 15.7589 13.4405 15.7412 13.2139 15.817C12.9874 15.8924 12.8003 16.0551 12.6936 16.269L9.99344 21.6689C9.77138 22.1138 9.95183 22.6544 10.3968 22.8764C10.8417 23.0989 11.3823 22.9184 11.6047 22.4735L14.3045 17.0736C14.4112 16.8598 14.4289 16.6126 14.3531 16.386C14.2777 16.1594 14.115 15.9723 13.9011 15.8656Z" fill="#3870DE"/>
<path d="M26.9995 17.5713H22.4994C22.0025 17.5713 21.5996 17.9742 21.5996 18.471C21.5996 18.9683 22.0025 19.3712 22.4994 19.3712H26.9995C27.4964 19.3712 27.8997 18.9683 27.8997 18.471C27.8997 17.9742 27.4964 17.5713 26.9995 17.5713Z" fill="#3870DE"/>
<path d="M26.0996 22.9712C26.0996 23.468 26.5029 23.871 26.9998 23.871H31.4999C31.9968 23.871 32.3997 23.468 32.3997 22.9712C32.3997 22.4739 31.9968 22.071 31.4999 22.071H26.9998C26.5029 22.071 26.0996 22.4739 26.0996 22.9712Z" fill="#3870DE"/>
<path d="M31.4992 19.3712C31.996 19.3712 32.399 18.9683 32.399 18.471C32.399 17.9742 31.996 17.5713 31.4992 17.5713H30.599C30.1021 17.5713 29.6992 17.9742 29.6992 18.471C29.6992 18.9683 30.1021 19.3712 30.599 19.3712H31.4992Z" fill="#3870DE"/>
<path d="M22.4994 23.871H24.2994C24.7966 23.871 25.1996 23.468 25.1996 22.9712C25.1996 22.4739 24.7966 22.071 24.2994 22.071H22.4994C22.0025 22.071 21.5996 22.4739 21.5996 22.9712C21.5996 23.468 22.0025 23.871 22.4994 23.871Z" fill="#3870DE"/>
<path d="M5.39978 28.3711H8.09995C8.5968 28.3711 8.99973 27.9682 8.99973 27.4709C8.99973 26.974 8.5968 26.5711 8.09995 26.5711H5.39978C4.90292 26.5711 4.5 26.974 4.5 27.4709C4.5 27.9682 4.90292 28.3711 5.39978 28.3711Z" fill="#3870DE"/>
<path d="M10.8008 27.4709C10.8008 27.9682 11.2037 28.3711 11.701 28.3711H18.9009C19.3981 28.3711 19.8011 27.9682 19.8011 27.4709C19.8011 26.974 19.3981 26.5711 18.9009 26.5711H11.701C11.2037 26.5711 10.8008 26.974 10.8008 27.4709Z" fill="#3870DE"/>
<path d="M22.4994 28.3711H31.4997C31.9965 28.3711 32.3994 27.9682 32.3994 27.4709C32.3994 26.974 31.9965 26.5711 31.4997 26.5711H22.4994C22.0025 26.5711 21.5996 26.974 21.5996 27.4709C21.5996 27.9682 22.0025 28.3711 22.4994 28.3711Z" fill="#3870DE"/>
<path d="M5.39978 35.571C4.90292 35.571 4.5 35.9739 4.5 36.4712C4.5 36.968 4.90292 37.371 5.39978 37.371H8.09995C8.5968 37.371 8.99973 36.968 8.99973 36.4712C8.99973 35.9739 8.5968 35.571 8.09995 35.571H5.39978Z" fill="#3870DE"/>
<path d="M11.701 37.371H18.9009C19.3981 37.371 19.8011 36.968 19.8011 36.4712C19.8011 35.9739 19.3981 35.571 18.9009 35.571H11.701C11.2037 35.571 10.8008 35.9739 10.8008 36.4712C10.8008 36.968 11.2037 37.371 11.701 37.371Z" fill="#3870DE"/>
<path d="M22.4994 37.371H29.6997C30.1965 37.371 30.5995 36.968 30.5995 36.4712C30.5995 35.9739 30.1965 35.571 29.6997 35.571H22.4994C22.0025 35.571 21.5996 35.9739 21.5996 36.4712C21.5996 36.968 22.0025 37.371 22.4994 37.371Z" fill="#3870DE"/>
<path d="M26.9999 31.971C26.9999 31.4742 26.5969 31.0713 26.0997 31.0713H18.8998C18.4029 31.0713 18 31.4742 18 31.971C18 32.4683 18.4029 32.8712 18.8998 32.8712H26.0997C26.5969 32.8712 26.9999 32.4683 26.9999 31.971Z" fill="#3870DE"/>
<path d="M16.2 31.971C16.2 31.4742 15.7971 31.0713 15.2998 31.0713H5.39978C4.90292 31.0713 4.5 31.4742 4.5 31.971C4.5 32.4683 4.90292 32.8712 5.39978 32.8712H15.2998C15.7971 32.8712 16.2 32.4683 16.2 31.971Z" fill="#3870DE"/>
<path d="M43.2006 27.4709C37.8337 27.4709 32.4004 29.0163 32.4004 31.971V48.1712C32.4004 51.126 37.8337 52.6709 43.2006 52.6709C48.5672 52.6709 54.0005 51.126 54.0005 48.1712V31.971C54.0005 29.0163 48.5672 27.4709 43.2006 27.4709ZM52.2005 42.7713C52.2005 43.8457 48.6113 45.471 43.2006 45.471C37.7896 45.471 34.2004 43.8457 34.2004 42.7713V39.964C36.2389 41.2206 39.7292 41.8711 43.2006 41.8711C46.6716 41.8711 50.162 41.2206 52.2005 39.964V42.7713ZM52.2005 37.371C52.2005 38.4458 48.6113 40.0711 43.2006 40.0711C37.7896 40.0711 34.2004 38.4458 34.2004 37.371V34.5641C36.2389 35.8202 39.7292 36.4712 43.2006 36.4712C46.6716 36.4712 50.162 35.8202 52.2005 34.5641V37.371ZM43.2006 29.2713C48.6113 29.2713 52.2005 30.8966 52.2005 31.971C52.2005 33.0455 48.6113 34.6712 43.2006 34.6712C37.7896 34.6712 34.2004 33.0455 34.2004 31.971C34.2004 30.8966 37.7896 29.2713 43.2006 29.2713ZM43.2006 50.871C37.7896 50.871 34.2004 49.2457 34.2004 48.1712V45.3639C36.2389 46.6205 39.7292 47.271 43.2006 47.271C46.6716 47.271 50.162 46.6205 52.2005 45.3639V48.1712C52.2005 49.2457 48.6113 50.871 43.2006 50.871Z" fill="#3870DE"/>
<path d="M5.82188 8.3C6.31893 8.3 6.72188 7.89706 6.72188 7.4C6.72188 6.90294 6.31893 6.5 5.82188 6.5C5.32482 6.5 4.92188 6.90294 4.92188 7.4C4.92188 7.89706 5.32482 8.3 5.82188 8.3Z" fill="#3870DE"/>
<path d="M9.42149 8.3C9.91854 8.3 10.3215 7.89706 10.3215 7.4C10.3215 6.90294 9.91854 6.5 9.42149 6.5C8.92443 6.5 8.52148 6.90294 8.52148 7.4C8.52148 7.89706 8.92443 8.3 9.42149 8.3Z" fill="#3870DE"/>
<path d="M13.0211 8.3C13.5182 8.3 13.9211 7.89706 13.9211 7.4C13.9211 6.90294 13.5182 6.5 13.0211 6.5C12.524 6.5 12.1211 6.90294 12.1211 7.4C12.1211 7.89706 12.524 8.3 13.0211 8.3Z" fill="#3870DE"/>
<path d="M47.2223 8.3H48.1223C48.6193 8.3 49.0223 7.89706 49.0223 7.4C49.0223 6.90294 48.6193 6.5 48.1223 6.5H47.2223C46.7252 6.5 46.3223 6.90294 46.3223 7.4C46.3223 7.89706 46.7252 8.3 47.2223 8.3Z" fill="#3870DE"/>
<path d="M38.2223 8.3H43.6223C44.1193 8.3 44.5223 7.89706 44.5223 7.4C44.5223 6.90294 44.1193 6.5 43.6223 6.5H38.2223C37.7252 6.5 37.3223 6.90294 37.3223 7.4C37.3223 7.89706 37.7252 8.3 38.2223 8.3Z" fill="#3870DE"/>
</g>
<defs>
<clipPath id="clip0">
<rect width="54" height="54" fill="white"/>
</clipPath>
</defs>
</svg>
