<svg width="73" height="92" viewBox="0 0 73 92" fill="none" xmlns="http://www.w3.org/2000/svg">
<rect y="78" width="46" height="2" fill="#CCCCCC"/>
<circle cx="46" cy="83" r="8" fill="white" stroke="#CCCCCC" stroke-width="2"/>
<circle cx="46" cy="83" r="3" stroke="#CCCCCC" stroke-width="2"/>
<g clip-path="url(#clip0)">
<path d="M68.4999 1.37109H23.5001C21.0159 1.37398 19.0029 3.38695 19 5.87123V45.4711C19.0029 47.9553 21.0159 49.9683 23.5001 49.9712H48.7002C49.197 49.9712 49.5999 49.5683 49.5999 49.071C49.5999 48.5741 49.197 48.1712 48.7002 48.1712H23.5001C22.0087 48.1712 20.8 46.9624 20.8 45.4711V13.9709H71.2V26.5711C71.2 27.068 71.603 27.4709 72.0998 27.4709C72.5971 27.4709 73 27.068 73 26.5711V5.87123C72.9971 3.38695 70.9841 1.37398 68.4999 1.37109V1.37109ZM20.8 12.1709V5.87123C20.8 4.37984 22.0087 3.17107 23.5001 3.17107H68.4999C69.9913 3.17107 71.2 4.37984 71.2 5.87123V12.1709H20.8Z" fill="#3870DE"/>
<path d="M27.7379 16.035C27.3865 15.6835 26.8167 15.6835 26.4653 16.035L23.7655 18.7347C23.4141 19.0861 23.4141 19.6559 23.7655 20.0073L26.4653 22.7075C26.8183 23.0486 27.3799 23.0437 27.7272 22.6964C28.0741 22.3491 28.079 21.7879 27.7379 21.4349L25.6743 19.3712L27.7379 17.3076C28.0893 16.9557 28.0893 16.3864 27.7379 16.035Z" fill="#3870DE"/>
<path d="M34.5644 22.7075C34.9158 23.0589 35.4856 23.0589 35.837 22.7075L38.5371 20.0073C38.8882 19.6559 38.8882 19.0861 38.5371 18.7347L35.837 16.035C35.4839 15.6938 34.9224 15.6988 34.5755 16.0457C34.2282 16.393 34.2232 16.9541 34.5644 17.3076L36.628 19.3712L34.5644 21.4349C34.2129 21.7863 34.2129 22.3561 34.5644 22.7075Z" fill="#3870DE"/>
<path d="M32.9011 15.8656C32.6877 15.7589 32.4405 15.7412 32.2139 15.817C31.9874 15.8924 31.8003 16.0551 31.6936 16.269L28.9934 21.6689C28.7714 22.1138 28.9518 22.6544 29.3968 22.8764C29.8417 23.0989 30.3823 22.9184 30.6047 22.4735L33.3045 17.0736C33.4112 16.8598 33.4289 16.6126 33.3531 16.386C33.2777 16.1594 33.115 15.9723 32.9011 15.8656Z" fill="#3870DE"/>
<path d="M45.9995 17.5713H41.4994C41.0025 17.5713 40.5996 17.9742 40.5996 18.471C40.5996 18.9683 41.0025 19.3712 41.4994 19.3712H45.9995C46.4964 19.3712 46.8997 18.9683 46.8997 18.471C46.8997 17.9742 46.4964 17.5713 45.9995 17.5713Z" fill="#3870DE"/>
<path d="M45.0996 22.9712C45.0996 23.468 45.5029 23.871 45.9998 23.871H50.4999C50.9968 23.871 51.3997 23.468 51.3997 22.9712C51.3997 22.4739 50.9968 22.071 50.4999 22.071H45.9998C45.5029 22.071 45.0996 22.4739 45.0996 22.9712Z" fill="#3870DE"/>
<path d="M50.4992 19.3712C50.996 19.3712 51.399 18.9683 51.399 18.471C51.399 17.9742 50.996 17.5713 50.4992 17.5713H49.599C49.1021 17.5713 48.6992 17.9742 48.6992 18.471C48.6992 18.9683 49.1021 19.3712 49.599 19.3712H50.4992Z" fill="#3870DE"/>
<path d="M41.4994 23.871H43.2994C43.7966 23.871 44.1996 23.468 44.1996 22.9712C44.1996 22.4739 43.7966 22.071 43.2994 22.071H41.4994C41.0025 22.071 40.5996 22.4739 40.5996 22.9712C40.5996 23.468 41.0025 23.871 41.4994 23.871Z" fill="#3870DE"/>
<path d="M24.3998 28.3711H27.0999C27.5968 28.3711 27.9997 27.9682 27.9997 27.4709C27.9997 26.974 27.5968 26.5711 27.0999 26.5711H24.3998C23.9029 26.5711 23.5 26.974 23.5 27.4709C23.5 27.9682 23.9029 28.3711 24.3998 28.3711Z" fill="#3870DE"/>
<path d="M29.8008 27.4709C29.8008 27.9682 30.2037 28.3711 30.701 28.3711H37.9009C38.3981 28.3711 38.8011 27.9682 38.8011 27.4709C38.8011 26.974 38.3981 26.5711 37.9009 26.5711H30.701C30.2037 26.5711 29.8008 26.974 29.8008 27.4709Z" fill="#3870DE"/>
<path d="M41.4994 28.3711H50.4997C50.9965 28.3711 51.3994 27.9682 51.3994 27.4709C51.3994 26.974 50.9965 26.5711 50.4997 26.5711H41.4994C41.0025 26.5711 40.5996 26.974 40.5996 27.4709C40.5996 27.9682 41.0025 28.3711 41.4994 28.3711Z" fill="#3870DE"/>
<path d="M24.3998 35.571C23.9029 35.571 23.5 35.9739 23.5 36.4712C23.5 36.968 23.9029 37.371 24.3998 37.371H27.0999C27.5968 37.371 27.9997 36.968 27.9997 36.4712C27.9997 35.9739 27.5968 35.571 27.0999 35.571H24.3998Z" fill="#3870DE"/>
<path d="M30.701 37.371H37.9009C38.3981 37.371 38.8011 36.968 38.8011 36.4712C38.8011 35.9739 38.3981 35.571 37.9009 35.571H30.701C30.2037 35.571 29.8008 35.9739 29.8008 36.4712C29.8008 36.968 30.2037 37.371 30.701 37.371Z" fill="#3870DE"/>
<path d="M41.4994 37.371H48.6997C49.1965 37.371 49.5995 36.968 49.5995 36.4712C49.5995 35.9739 49.1965 35.571 48.6997 35.571H41.4994C41.0025 35.571 40.5996 35.9739 40.5996 36.4712C40.5996 36.968 41.0025 37.371 41.4994 37.371Z" fill="#3870DE"/>
<path d="M45.9999 31.971C45.9999 31.4742 45.5969 31.0713 45.0997 31.0713H37.8998C37.4029 31.0713 37 31.4742 37 31.971C37 32.4683 37.4029 32.8712 37.8998 32.8712H45.0997C45.5969 32.8712 45.9999 32.4683 45.9999 31.971Z" fill="#3870DE"/>
<path d="M35.2 31.971C35.2 31.4742 34.7971 31.0713 34.2998 31.0713H24.3998C23.9029 31.0713 23.5 31.4742 23.5 31.971C23.5 32.4683 23.9029 32.8712 24.3998 32.8712H34.2998C34.7971 32.8712 35.2 32.4683 35.2 31.971Z" fill="#3870DE"/>
<path d="M62.2006 27.4709C56.8337 27.4709 51.4004 29.0163 51.4004 31.971V48.1712C51.4004 51.126 56.8337 52.6709 62.2006 52.6709C67.5672 52.6709 73.0005 51.126 73.0005 48.1712V31.971C73.0005 29.0163 67.5672 27.4709 62.2006 27.4709ZM71.2005 42.7713C71.2005 43.8457 67.6113 45.471 62.2006 45.471C56.7896 45.471 53.2004 43.8457 53.2004 42.7713V39.964C55.2389 41.2206 58.7292 41.8711 62.2006 41.8711C65.6716 41.8711 69.162 41.2206 71.2005 39.964V42.7713ZM71.2005 37.371C71.2005 38.4458 67.6113 40.0711 62.2006 40.0711C56.7896 40.0711 53.2004 38.4458 53.2004 37.371V34.5641C55.2389 35.8202 58.7292 36.4712 62.2006 36.4712C65.6716 36.4712 69.162 35.8202 71.2005 34.5641V37.371ZM62.2006 29.2713C67.6113 29.2713 71.2005 30.8966 71.2005 31.971C71.2005 33.0455 67.6113 34.6712 62.2006 34.6712C56.7896 34.6712 53.2004 33.0455 53.2004 31.971C53.2004 30.8966 56.7896 29.2713 62.2006 29.2713ZM62.2006 50.871C56.7896 50.871 53.2004 49.2457 53.2004 48.1712V45.3639C55.2389 46.6205 58.7292 47.271 62.2006 47.271C65.6716 47.271 69.162 46.6205 71.2005 45.3639V48.1712C71.2005 49.2457 67.6113 50.871 62.2006 50.871Z" fill="#3870DE"/>
<path d="M24.8219 8.3C25.3189 8.3 25.7219 7.89706 25.7219 7.4C25.7219 6.90294 25.3189 6.5 24.8219 6.5C24.3248 6.5 23.9219 6.90294 23.9219 7.4C23.9219 7.89706 24.3248 8.3 24.8219 8.3Z" fill="#3870DE"/>
<path d="M28.4215 8.3C28.9185 8.3 29.3215 7.89706 29.3215 7.4C29.3215 6.90294 28.9185 6.5 28.4215 6.5C27.9244 6.5 27.5215 6.90294 27.5215 7.4C27.5215 7.89706 27.9244 8.3 28.4215 8.3Z" fill="#3870DE"/>
<path d="M32.0211 8.3C32.5182 8.3 32.9211 7.89706 32.9211 7.4C32.9211 6.90294 32.5182 6.5 32.0211 6.5C31.524 6.5 31.1211 6.90294 31.1211 7.4C31.1211 7.89706 31.524 8.3 32.0211 8.3Z" fill="#3870DE"/>
<path d="M66.2223 8.3H67.1223C67.6193 8.3 68.0223 7.89706 68.0223 7.4C68.0223 6.90294 67.6193 6.5 67.1223 6.5H66.2223C65.7252 6.5 65.3223 6.90294 65.3223 7.4C65.3223 7.89706 65.7252 8.3 66.2223 8.3Z" fill="#3870DE"/>
<path d="M57.2223 8.3H62.6223C63.1193 8.3 63.5223 7.89706 63.5223 7.4C63.5223 6.90294 63.1193 6.5 62.6223 6.5H57.2223C56.7252 6.5 56.3223 6.90294 56.3223 7.4C56.3223 7.89706 56.7252 8.3 57.2223 8.3Z" fill="#3870DE"/>
</g>
<defs>
<clipPath id="clip0">
<rect width="54" height="54" fill="white" transform="translate(19)"/>
</clipPath>
</defs>
</svg>
