<svg width="73" height="92" viewBox="0 0 73 92" fill="none" xmlns="http://www.w3.org/2000/svg">
<path d="M49.5 0H4.5C2.01595 0.00297551 0.00297551 2.01595 0 4.5V49.5C0.00297551 51.984 2.01595 53.997 4.5 54H49.5C51.984 53.997 53.997 51.984 54 49.5V4.5C53.997 2.01595 51.984 0.00297551 49.5 0ZM4.5 1.8H49.5C50.9912 1.8 52.2 3.00883 52.2 4.5V7.2H1.8V4.5C1.8 3.00883 3.00883 1.8 4.5 1.8ZM49.5 52.2H4.5C3.00883 52.2 1.8 50.9912 1.8 49.5V9H52.2V49.5C52.2 50.9912 50.9912 52.2 49.5 52.2Z" fill="#3870DE"/>
<path d="M5.4 5.40001C5.89706 5.40001 6.3 4.99706 6.3 4.50001C6.3 4.00295 5.89706 3.60001 5.4 3.60001C4.90294 3.60001 4.5 4.00295 4.5 4.50001C4.5 4.99706 4.90294 5.40001 5.4 5.40001Z" fill="#3870DE"/>
<path d="M8.99961 5.40001C9.49667 5.40001 9.89961 4.99706 9.89961 4.50001C9.89961 4.00295 9.49667 3.60001 8.99961 3.60001C8.50255 3.60001 8.09961 4.00295 8.09961 4.50001C8.09961 4.99706 8.50255 5.40001 8.99961 5.40001Z" fill="#3870DE"/>
<path d="M12.5992 5.40001C13.0963 5.40001 13.4992 4.99706 13.4992 4.50001C13.4992 4.00295 13.0963 3.60001 12.5992 3.60001C12.1022 3.60001 11.6992 4.00295 11.6992 4.50001C11.6992 4.99706 12.1022 5.40001 12.5992 5.40001Z" fill="#3870DE"/>
<path d="M46.8004 5.40001H47.7004C48.1974 5.40001 48.6004 4.99706 48.6004 4.50001C48.6004 4.00295 48.1974 3.60001 47.7004 3.60001H46.8004C46.3033 3.60001 45.9004 4.00295 45.9004 4.50001C45.9004 4.99706 46.3033 5.40001 46.8004 5.40001Z" fill="#3870DE"/>
<path d="M37.8004 5.40001H43.2004C43.6975 5.40001 44.1004 4.99706 44.1004 4.50001C44.1004 4.00295 43.6975 3.60001 43.2004 3.60001H37.8004C37.3033 3.60001 36.9004 4.00295 36.9004 4.50001C36.9004 4.99706 37.3033 5.40001 37.8004 5.40001Z" fill="#3870DE"/>
<path d="M40.4992 35.1H17.0992C13.212 35.0979 10.0251 38.1817 9.89921 42.0669C9.84593 43.9782 10.5762 45.8283 11.9206 47.1879C13.3484 48.6592 15.3091 49.4928 17.3593 49.5H40.4992C41.4933 49.5 42.2992 48.6941 42.2992 47.7V45.9C42.2992 44.9059 41.4933 44.1 40.4992 44.1V40.5C41.4933 40.5 42.2992 39.6941 42.2992 38.7V36.9C42.2992 35.9059 41.4933 35.1 40.4992 35.1ZM38.6992 44.1H17.2477C16.252 44.1289 15.4024 43.3852 15.2992 42.3945C15.2733 41.9009 15.4514 41.4184 15.7918 41.0601C16.1322 40.7019 16.605 40.4993 17.0992 40.5H38.6992V44.1ZM40.4992 38.7H17.0992C16.1122 38.6999 15.1685 39.1051 14.4887 39.8207C13.809 40.5363 13.4529 41.4997 13.5037 42.4854C13.6424 44.4394 15.2892 45.9413 17.2477 45.9H40.4992V47.7H17.3593C15.7981 47.6922 14.3059 47.0561 13.2193 45.9351C12.2126 44.9245 11.6634 43.546 11.6992 42.12C11.7963 39.2082 14.1858 36.8984 17.0992 36.9H40.4992V38.7Z" fill="#3870DE"/>
<path d="M45.5945 18.1233L27.6179 11.8125C27.228 11.6619 26.7964 11.6593 26.4047 11.8053L8.4119 18.1197C7.69564 18.3651 7.20951 19.0325 7.19562 19.7895C7.18172 20.5465 7.64303 21.2313 8.3498 21.5028L17.0996 24.9021V29.7C17.0996 32.1732 22.2296 33.3 26.9996 33.3C31.7696 33.3 36.8996 32.1732 36.8996 29.7V24.9021L38.6996 24.2019V25.2C38.6996 26.1941 39.5055 27 40.4996 27H42.2996C43.2937 27 44.0996 26.1941 44.0996 25.2V23.4C44.0971 22.9894 43.9998 22.585 43.8152 22.2183L45.6422 21.5055C46.3493 21.2365 46.8128 20.5542 46.8021 19.7977C46.7914 19.0413 46.3089 18.3722 45.5945 18.1233ZM18.8996 22.5135C19.0355 22.014 21.7346 20.7 26.9996 20.7C32.2646 20.7 34.9637 22.014 35.0996 22.5V27.5148C33.1844 26.5545 30.0209 26.1 26.9996 26.1C23.9783 26.1 20.8148 26.55 18.8996 27.5157V22.5135ZM26.9996 31.5C21.7346 31.5 19.0355 30.186 18.8996 29.7135C19.0355 29.214 21.7346 27.9 26.9996 27.9C32.2196 27.9 34.9196 29.1906 35.0996 29.7C34.9196 30.2094 32.2196 31.5 26.9996 31.5ZM39.0236 22.1445L36.8996 22.9707V22.5C36.8996 20.0268 31.7696 18.9 26.9996 18.9C22.2296 18.9 17.0996 20.0268 17.0996 22.5V22.9707L8.9996 19.8207L26.9996 13.5L40.4996 18.243V20.8629C39.8648 21.0908 39.3383 21.5479 39.0236 22.1445ZM42.2996 25.2H40.4996V23.4C40.4996 22.9029 40.9025 22.5 41.3996 22.5C41.8967 22.5 42.2996 22.9029 42.2996 23.4V25.2ZM42.3158 20.871L42.2996 20.8656V18.8784L44.9996 19.8252L42.3158 20.871Z" fill="#3870DE"/>
<rect x="27" y="86" width="46" height="2" fill="#CCCCCC"/>
<circle cx="27" cy="83" r="8" fill="white" stroke="#CCCCCC" stroke-width="2"/>
<circle cx="27" cy="83" r="3" stroke="#CCCCCC" stroke-width="2"/>
</svg>
