<?xml version="1.0" encoding="UTF-8" standalone="no"?>
<svg width="46px" height="40px" viewBox="0 0 46 40" version="1.1" xmlns="http://www.w3.org/2000/svg" xmlns:xlink="http://www.w3.org/1999/xlink">
    <!-- Generator: Sketch 48.1 (47250) - http://www.bohemiancoding.com/sketch -->
    <title>warning (1)</title>
    <desc>Created with Sketch.</desc>
    <defs></defs>
    <g id="Контакты/04-Контакты--Форма-ответа-ошибка" stroke="none" stroke-width="1" fill="none" fill-rule="evenodd" transform="translate(-481.000000, -672.000000)">
        <g id="warning-(1)" transform="translate(481.000000, 672.000000)" fill="#F05244" fill-rule="nonzero">
            <path d="M45.8770265,38.6266499 L23.7933645,0.457334653 C23.6295795,0.174282554 23.3272555,0 23.0000449,0 C22.6728343,0 22.3704205,0.174282554 22.2067254,0.457334653 L0.122973549,38.6266499 C-0.0409012902,38.9098815 -0.0409911339,39.2588953 0.122704018,39.5421269 C0.286399171,39.8254482 0.588902781,40 0.91638293,40 L45.0837069,40 C45.4110972,40 45.7136907,39.825538 45.877296,39.5421269 C46.0409911,39.2588953 46.0409013,38.9098815 45.8770265,38.6266499 Z M2.50427981,38.169405 L23.0000449,2.74463612 L43.49581,38.169405 L2.50427981,38.169405 Z" id="Shape"></path>
            <path d="M13.5843868,24.0995282 C13.1868048,23.8948196 12.6780043,24.0160181 12.4482286,24.3701735 L12.1117191,24.8885896 C11.8819434,25.242745 12.0179497,25.6957328 12.4156132,25.9004414 C12.5466457,25.9679031 12.6898274,26 12.8309706,26 C13.1182309,26 13.3976635,25.8673279 13.5517714,25.6297961 L13.8882809,25.11138 C14.1180566,24.7572246 13.9820503,24.3042369 13.5843868,24.0995282 Z" id="Shape"></path>
            <path d="M11.5662101,27.1151621 C11.1511727,26.8783429 10.6203129,27.0184343 10.3804133,27.4283718 L6.11660005,34.7138818 C5.87678555,35.1237353 6.01873394,35.6479646 6.43377132,35.8848679 C6.57061366,35.9628552 6.71996584,36 6.8672756,36 C7.16708627,36 7.45872725,35.8463785 7.61956806,35.5716581 L11.8833814,28.2861481 C12.1231959,27.8762946 11.9813326,27.3520653 11.5662101,27.1151621 Z" id="Shape"></path>
            <path d="M21.9999605,29 C20.3457663,29 19,30.3458454 19,32.0000395 C19,33.6542337 20.3458454,35 21.9999605,35 C23.6540756,35 25,33.6541546 25,32.0000395 C25,30.3458454 23.6541546,29 21.9999605,29 Z M21.9999605,33.3880833 C21.2345411,33.3880833 20.6119167,32.7653799 20.6119167,32.0000395 C20.6119167,31.2346991 21.2345411,30.6119957 21.9999605,30.6119957 C22.7653799,30.6119957 23.3880833,31.2346991 23.3880833,32.0000395 C23.3880833,32.7653799 22.7653799,33.3880833 21.9999605,33.3880833 Z" id="Shape"></path>
            <path d="M23.2385481,12 L20.7614519,12 C19.7901641,12 19,12.870557 19,13.9406656 L19,26.0593344 C19,27.129443 19.7901641,28 20.7614519,28 L23.2385481,28 C24.2098359,28 25.000079,27.1293559 25,26.0593344 L25,13.9407527 C25,12.8706441 24.2098359,12 23.2385481,12 Z M23.3880621,26.0593344 C23.3880621,26.1501426 23.3209704,26.2240602 23.2385481,26.2240602 L20.7614519,26.2240602 C20.6790296,26.2240602 20.6119379,26.1501426 20.6119379,26.0593344 L20.6119379,13.9407527 C20.6119379,13.8499445 20.6790296,13.7760268 20.7614519,13.7760268 L23.2385481,13.7760268 C23.3209704,13.7760268 23.3880621,13.8499445 23.3880621,13.9407527 L23.3880621,26.0593344 Z" id="Shape"></path>
        </g>
    </g>
</svg>