<?xml version="1.0" encoding="UTF-8" standalone="no"?>
<svg width="35px" height="40px" viewBox="0 0 35 40" version="1.1" xmlns="http://www.w3.org/2000/svg" xmlns:xlink="http://www.w3.org/1999/xlink">
    <!-- Generator: Sketch 48.1 (47250) - http://www.bohemiancoding.com/sketch -->
    <title>email (1)</title>
    <desc>Created with Sketch.</desc>
    <defs></defs>
    <g id="Контакты/01-Контакты--Форма-ответа" stroke="none" stroke-width="1" fill="none" fill-rule="evenodd" transform="translate(-471.000000, -680.000000)">
        <g id="сообщение" transform="translate(326.000000, 642.000000)" fill="#103F6E" fill-rule="nonzero">
            <g id="email-(1)" transform="translate(145.000000, 38.000000)">
                <path d="M14.7692308,20 C14.2255262,20 13.7846154,20.3539361 13.7846154,20.7903889 L13.7846154,23.2096111 C13.7846154,23.6460639 14.2255262,24 14.7692308,24 C15.3129354,24 15.7538462,23.6460639 15.7538462,23.2096111 L15.7538462,20.7903889 C15.7538462,20.3539361 15.3130338,20 14.7692308,20 Z" id="Shape"></path>
                <path d="M20.6769231,20 C20.1332185,20 19.6923077,20.3539361 19.6923077,20.7903889 L19.6923077,23.2096111 C19.6923077,23.6460639 20.1332185,24 20.6769231,24 C21.2206277,24 21.6615385,23.6460639 21.6615385,23.2096111 L21.6615385,20.7903889 C21.6615385,20.3539361 21.2207262,20 20.6769231,20 Z" id="Shape"></path>
                <path d="M34.1578254,16.2332031 L25.423117,9.49421875 L26.7436018,8.15195313 C26.9478252,7.944375 27.0212438,7.63390625 26.9331415,7.35109375 C26.8449644,7.06828125 26.6105495,6.8621875 26.3284125,6.819375 L20.5062474,5.93710938 L17.9025863,0.43546875 C17.7763514,0.168828125 17.5159403,0 17.2307318,0 C16.9455232,0 16.6851122,0.168828125 16.5588772,0.43546875 L13.9552161,5.93710938 L8.13305103,6.819375 C7.85083916,6.86210938 7.61642425,7.06828125 7.52832201,7.35109375 C7.44021976,7.63390625 7.51371322,7.944375 7.71786171,8.15195313 L9.03834657,9.49421875 L0.303638101,16.2332031 C0.112674982,16.3805469 0,16.6135938 0,16.86125 L0,36.4240625 C0,38.3958594 1.53826823,40 3.42909527,40 L31.0324432,40 C32.9232702,40 34.4615385,38.3958594 34.4615385,36.4240625 L34.4615385,16.86125 C34.4614635,16.6135156 34.3487886,16.3804688 34.1578254,16.2332031 Z M14.5603946,7.42429687 C14.8044738,7.38734375 15.0153648,7.2275 15.1245187,6.99695312 L17.2307318,2.5465625 L19.3369448,6.99703125 C19.4460238,7.2275 19.6568399,7.38726562 19.9006194,7.424375 L24.6107933,8.138125 L21.2027497,11.6024219 C21.0262455,11.781875 20.9456349,12.0404687 20.9872887,12.2939062 L21.7918211,17.1854687 L17.57932,14.8759375 C17.470241,14.8160937 17.3504489,14.78625 17.2307318,14.78625 C17.1110146,14.78625 16.9912225,14.8161719 16.8821435,14.8759375 L12.6696425,17.1854687 L13.4741748,12.2939062 C13.5158286,12.0404687 13.4352181,11.781875 13.2587139,11.6024219 L9.85067026,8.138125 L14.5603946,7.42429687 Z M2.50102501,38.1772656 C2.49862767,38.1797656 2.49667983,38.1825 2.4943574,38.185 C1.90094083,37.8410938 1.49833753,37.1807813 1.49833753,36.4240625 L1.49833753,18.7473437 L11.3156698,28.9850781 L2.50102501,38.1772656 Z M4.37042583,38.4375 L6.49102293,36.2260937 L16.3317293,36.2260937 C16.7454202,36.2260937 17.080898,35.87625 17.080898,35.4448437 C17.080898,35.0134375 16.7454202,34.6635937 16.3317293,34.6635937 L7.98936047,34.6635937 L9.70780378,32.8715625 L14.558222,32.8715625 C14.971913,32.8715625 15.3073908,32.5217187 15.3073908,32.0903125 C15.3073908,31.6589062 14.971913,31.3090625 14.558222,31.3090625 L11.2061413,31.3090625 L14.3454581,28.0353125 C15.1160531,27.2316406 16.1407661,26.7890625 17.2307318,26.7890625 C18.3206974,26.7890625 19.3454104,27.2316406 20.1160804,28.0353906 L30.0910377,38.4375 L4.37042583,38.4375 Z M32.9633508,36.4240625 C32.963126,37.1807812 32.5605227,37.8410937 31.9671811,38.185 C31.9648586,38.1825 31.9628359,38.1797656 31.9605135,38.1772656 L23.1457938,28.9851562 L25.4711387,26.5602344 C25.7636891,26.2551562 25.7636891,25.7604687 25.4711387,25.4553125 C25.1785134,25.1503125 24.7042895,25.1503125 24.4115893,25.4553125 L22.0862444,27.8802344 L21.1754799,26.9304687 C20.121774,25.8317187 18.7207535,25.2264844 17.2306569,25.2264844 C15.7405602,25.2264844 14.3395397,25.8316406 13.2858338,26.9304687 L12.3750693,27.8802344 L1.89382372,16.95 L10.1253904,10.5992187 L11.9308872,12.4344531 L10.9363656,18.4813281 C10.8881192,18.774375 11.0037159,19.070625 11.2344599,19.2454687 C11.4652039,19.4202344 11.7710895,19.4432812 12.0234095,19.3049219 L16.4817878,16.860625 L16.4817878,21.4064062 C16.4817878,21.8378125 16.8172655,22.1876562 17.2309565,22.1876562 C17.6446475,22.1876562 17.9801253,21.8378125 17.9801253,21.4064062 L17.9801253,16.860625 L22.4384286,19.3049219 C22.548032,19.365 22.6677492,19.3946094 22.7869419,19.3946094 C22.9422446,19.3946094 23.096873,19.3442969 23.2273782,19.2453906 C23.4580473,19.070625 23.573644,18.774375 23.5254725,18.48125 L22.530951,12.434375 L24.3364477,10.5991406 L32.5680144,16.9499219 L28.8590297,20.8176562 C28.5664793,21.1227344 28.5664793,21.6174219 28.8590297,21.9225781 C29.0053423,22.0750781 29.1970546,22.1514062 29.3887669,22.1514062 C29.5804792,22.1514062 29.7721915,22.0750781 29.9185042,21.9225781 L32.9634257,18.7473437 L32.9634257,36.4240625 L32.9633508,36.4240625 Z" id="Shape"></path>
                <path d="M28.2750602,23.2830626 C27.9032504,22.9056458 27.3007015,22.9056458 26.9288917,23.2830626 L26.8634013,23.3495746 C26.4916867,23.7270882 26.4916867,24.3392305 26.8634013,24.7168407 C27.0493063,24.9055491 27.2928959,25 27.5364856,25 C27.7800753,25 28.023665,24.9055491 28.2095699,24.7168407 L28.2750602,24.6503287 C28.6467748,24.2728152 28.6467748,23.6606729 28.2750602,23.2830626 Z" id="Shape"></path>
                <path d="M20.3883323,35.2931 C20.2052923,35.107 19.9512615,35 19.6923077,35 C19.4333538,35 19.1793231,35.107 18.9961846,35.2931 C18.8130462,35.479 18.7076923,35.737 18.7076923,36 C18.7076923,36.2641 18.8129477,36.5221 18.9961846,36.707 C19.1793231,36.894 19.4333538,37 19.6923077,37 C19.9512615,37 20.2052923,36.894 20.3883323,36.707 C20.5714708,36.521 20.6769231,36.264 20.6769231,36 C20.6769231,35.737 20.5715692,35.479 20.3883323,35.2931 Z" id="Shape"></path>
            </g>
        </g>
    </g>
</svg>