<?xml version="1.0" encoding="UTF-8" standalone="no"?>
<svg width="22px" height="22px" viewBox="0 0 22 22" version="1.1" xmlns="http://www.w3.org/2000/svg" xmlns:xlink="http://www.w3.org/1999/xlink">
    <!-- Generator: Sketch 48.1 (47250) - http://www.bohemiancoding.com/sketch -->
    <title>attachment</title>
    <desc>Created with Sketch.</desc>
    <defs></defs>
    <g id="Вакансия/03-Форма-" stroke="none" stroke-width="1" fill="none" fill-rule="evenodd" transform="translate(-487.000000, -436.000000)">
        <g id="Форма-uk" fill="#44A6F6" fill-rule="nonzero">
            <g id="Данные" transform="translate(39.010497, 35.000000)">
                <g id="вопросы" transform="translate(-0.000000, 0.000000)">
                    <g id="резюме" transform="translate(0.000000, 381.000000)">
                        <g id="button-copy" transform="translate(433.989503, 5.000000)">
                            <g id="attachment" transform="translate(14.000000, 15.000000)">
                                <path d="M21.751441,8.18557879 C21.5777138,8.01893972 21.2969067,8.01893972 21.1231795,8.18557879 L8.99604586,19.8179232 C8.10208407,20.6754112 6.90909829,21.1472001 5.63569149,21.1472001 C4.36184038,21.1472001 3.16841028,20.6754112 2.27489281,19.8179232 C1.38137534,18.9604352 0.88907432,17.8161235 0.88907432,16.5942457 C0.88907432,15.3727942 1.38093103,14.2280562 2.27489281,13.3709944 L14.4015822,1.73822382 C15.6887627,0.503986643 17.7095074,0.579421719 19.1019906,1.914239 C20.4940295,3.24948246 20.5731176,5.18820653 19.285937,6.4228699 L7.89370034,17.3507274 C7.25699694,17.9614532 6.21996572,17.9618794 5.58192938,17.3507274 C4.94478166,16.7391493 4.94478166,15.7444291 5.58192938,15.1332771 L13.2992367,7.7308374 C13.4729638,7.56419833 13.4729638,7.29484823 13.2992367,7.12820917 C13.1255095,6.9615701 12.8447024,6.9615701 12.6709752,7.12820917 L4.95366796,14.5302227 C3.96995455,15.4738005 3.96995455,17.0089256 4.95366796,17.9529295 C5.93827001,18.8973596 7.53913696,18.8956548 8.52196175,17.9529295 L19.9146427,7.02507194 C21.5599412,5.44647578 21.4808531,2.98993466 19.7306963,1.31118458 C17.9809838,-0.36713932 15.4195079,-0.443426769 13.7737651,1.1351694 L1.64618708,12.76794 C0.584274228,13.7861005 5.33e-14,15.1447842 5.33e-14,16.5942457 C5.33e-14,18.0437073 0.584274228,19.4028172 1.64618708,20.4209776 C2.70765563,21.4395643 4.12413185,22 5.63569149,22 C7.1463625,22 8.56328305,21.4395643 9.62475159,20.4209776 L21.751441,8.78820703 C21.9251681,8.62156796 21.9251681,8.35179167 21.751441,8.18557879 Z" id="Shape"></path>
                            </g>
                        </g>
                    </g>
                </g>
            </g>
        </g>
    </g>
</svg>