<?xml version="1.0" encoding="UTF-8" standalone="no"?>
<svg width="22px" height="22px" viewBox="0 0 22 22" version="1.1" xmlns="http://www.w3.org/2000/svg" xmlns:xlink="http://www.w3.org/1999/xlink">
    <!-- Generator: Sketch 48.1 (47250) - http://www.bohemiancoding.com/sketch -->
    <title>Shape</title>
    <desc>Created with Sketch.</desc>
    <defs></defs>
    <g id="Вакансия/03-Форма-Отмена" stroke="none" stroke-width="1" fill="none" fill-rule="evenodd" transform="translate(-485.000000, -483.000000)">
        <g id="Форма-uk" fill="#44A6F6" fill-rule="nonzero">
            <g id="Данные" transform="translate(39.010497, 35.000000)">
                <g id="вопросы" transform="translate(-0.000000, 0.000000)">
                    <g id="резюме" transform="translate(0.989503, 408.000000)">
                        <g id="button-copy" transform="translate(431.000000, 25.000000)">
                            <path d="M23.9475234,26.0033751 L14.2097734,35.8095384 C13.9392422,36.0819703 13.9392422,36.5233307 14.2097734,36.7957626 C14.3448672,36.9321517 14.5222422,37 14.6992734,37 C14.8766484,37 15.0536797,36.9321517 15.1887734,36.7957626 L24.9997422,26.9158662 L34.8107109,36.7957626 C34.9461484,36.9321517 35.1231797,37 35.3002109,37 C35.4772422,37 35.6546172,36.9321517 35.7897109,36.7957626 C36.0602422,36.5233307 36.0602422,36.0819703 35.7897109,35.8095384 L26.0523047,26.0033751 L35.7962422,16.1902885 C36.0667734,15.9178566 36.0667734,15.4764962 35.7962422,15.2040643 C35.5257109,14.9319786 35.0874297,14.9319786 34.8172422,15.2040643 L25.0000859,25.0908841 L15.1818984,15.2044105 C14.9113672,14.9323247 14.4734297,14.9323247 14.2028984,15.2044105 C13.9323672,15.4768423 13.9323672,15.9182028 14.2028984,16.1906347 L23.9475234,26.0033751 Z" id="Shape"></path>
                        </g>
                    </g>
                </g>
            </g>
        </g>
    </g>
</svg>