<?xml version="1.0" encoding="UTF-8" standalone="no"?>
<svg width="20px" height="20px" viewBox="0 0 20 20" version="1.1" xmlns="http://www.w3.org/2000/svg" xmlns:xlink="http://www.w3.org/1999/xlink">
    <!-- Generator: Sketch 48.1 (47250) - http://www.bohemiancoding.com/sketch -->
    <title>cancel</title>
    <desc>Created with Sketch.</desc>
    <defs></defs>
    <g id="Вакансия/03-Форма-Отмена" stroke="none" stroke-width="1" fill="none" fill-rule="evenodd" transform="translate(-1071.000000, -16.000000)">
        <g id="Форма-uk" fill="#FFFFFF" fill-rule="nonzero">
            <g id="linked-in" transform="translate(702.000000, 16.000000)">
                <g id="cancel" transform="translate(369.000000, 0.000000)">
                    <path d="M9.0440625,10.0030683 L0.1915625,18.9177622 C-0.054375,19.1654276 -0.054375,19.5666643 0.1915625,19.8143297 C0.314375,19.9383197 0.475625,20 0.6365625,20 C0.7978125,20 0.95875,19.9383197 1.0815625,19.8143297 L10.000625,10.8326056 L18.9196875,19.8143297 C19.0428125,19.9383197 19.20375,20 19.3646875,20 C19.525625,20 19.686875,19.9383197 19.8096875,19.8143297 C20.055625,19.5666643 20.055625,19.1654276 19.8096875,18.9177622 L10.9575,10.0030683 L19.815625,1.08208045 C20.0615625,0.834415099 20.0615625,0.433178346 19.815625,0.185512993 C19.5696875,-0.0618376643 19.17125,-0.0618376643 18.925625,0.185512993 L10.0009375,9.17353096 L1.0753125,0.185827688 C0.829375,-0.0615229688 0.43125,-0.0615229688 0.1853125,0.185827688 C-0.060625,0.433493041 -0.060625,0.834729795 0.1853125,1.08239515 L9.0440625,10.0030683 Z" id="Shape"></path>
                </g>
            </g>
        </g>
    </g>
</svg>