<svg width="86" height="29" viewBox="0 0 86 29" fill="none" xmlns="http://www.w3.org/2000/svg">
<path d="M78.3066 5.94896C77.2179 2.50579 73.9551 0 70.1088 0C65.8614 0 62.328 3.05591 61.6453 7.0551C61.6047 7.0546 61.564 7.05408 61.5241 7.05408C57.5794 7.05408 54.3702 10.2186 54.3702 14.108C54.3702 16.4415 52.1238 18.3403 49.3624 18.3403C46.601 18.3403 44.3546 16.4413 44.3546 14.108C44.3546 13.3293 43.7137 12.6973 42.9239 12.6973C42.1342 12.6973 41.4932 13.3293 41.4932 14.108C41.4932 16.4415 39.2468 18.3403 36.4854 18.3403C33.7241 18.3403 31.4777 16.4413 31.4777 14.108C31.4777 10.6674 28.9657 7.79584 25.6556 7.17847C25.0255 3.1186 21.4608 0 17.1698 0C13.4213 0 10.2291 2.38091 9.06127 5.68911C3.98446 6.16478 0 10.3907 0 15.5189V26.8053C0 27.584 0.640951 28.216 1.43072 28.216H84.4168C85.2081 28.216 85.8475 27.584 85.8475 26.8053V15.5189C85.8477 10.9153 82.6356 7.03813 78.3066 5.94896ZM70.1089 2.82177C72.2352 2.82177 74.0924 3.97112 75.0792 5.67212C71.8927 5.90676 69.1165 7.61717 67.4548 10.1127C66.6626 8.77896 65.5737 8.00562 64.4583 7.56995C64.8946 4.8818 67.2615 2.82177 70.1089 2.82177ZM17.1695 2.82177C19.892 2.82177 22.1743 4.70546 22.7507 7.22031C20.8418 7.63531 19.446 8.80297 18.5288 10.3214C17.1115 8.07282 14.8037 6.42497 12.0956 5.8587C13.0519 4.05551 14.9664 2.82177 17.1695 2.82177ZM82.9861 25.3944H2.86161V15.5189C2.86161 11.6293 6.07079 8.46497 10.0155 8.46497C13.9603 8.46497 17.1695 11.6295 17.1695 15.5189C17.1695 16.2976 17.8104 16.9296 18.6002 16.9296C19.39 16.9296 20.0309 16.2976 20.0309 15.5189C20.0309 13.4224 20.9352 9.8757 24.3232 9.8757C26.6898 9.8757 28.6156 11.7747 28.6156 14.108C28.6156 17.9976 32.1454 21.1619 36.4849 21.1619C39.1433 21.1619 41.4985 19.9741 42.9236 18.1598C44.3487 19.9741 46.7037 21.1619 49.3622 21.1619C53.7018 21.1619 57.2316 17.9976 57.2316 14.108C57.2316 11.7745 59.1575 9.8757 61.5239 9.8757C63.5228 9.8757 65.8163 10.5176 65.8163 15.5189C65.8163 16.2976 66.4572 16.9296 67.247 16.9296C68.0383 16.9296 68.6777 16.2976 68.6777 15.5189C68.6777 11.6293 71.8869 8.46497 75.8316 8.46497C79.7764 8.46497 82.9856 11.6295 82.9856 15.5189L82.9861 25.3944Z" fill="#909EB1"/>
</svg>
