<svg width="35" height="49" viewBox="0 0 35 49" fill="none" xmlns="http://www.w3.org/2000/svg">
<path d="M17.927 17.4841C20.2085 17.4841 22.064 15.6269 22.064 13.3431C22.064 11.0594 20.2085 9.20215 17.927 9.20215C15.6454 9.20215 13.79 11.0594 13.79 13.3431C13.79 15.6269 15.6454 17.4841 17.927 17.4841ZM17.927 11.2726C19.0677 11.2726 19.9955 12.2013 19.9955 13.3431C19.9955 14.485 19.0677 15.4136 17.927 15.4136C16.7862 15.4136 15.8585 14.485 15.8585 13.3431C15.8585 12.2013 16.7862 11.2726 17.927 11.2726Z" fill="#909EB1"/>
<path d="M17.927 30.3674C20.2085 30.3674 22.064 28.5102 22.064 26.2264C22.064 23.9427 20.2085 22.0854 17.927 22.0854C15.6454 22.0854 13.79 23.9427 13.79 26.2264C13.79 28.5102 15.6454 30.3674 17.927 30.3674ZM17.927 24.1561C19.0677 24.1561 19.9955 25.0847 19.9955 26.2266C19.9955 27.3684 19.0677 28.2971 17.927 28.2971C16.7862 28.2971 15.8585 27.3684 15.8585 26.2266C15.8585 25.0847 16.7862 24.1561 17.927 24.1561Z" fill="#909EB1"/>
<path d="M1.12207 37.8638C1.42616 38.0224 1.75607 38.1006 2.08489 38.1006C2.50416 38.1006 2.92124 37.9729 3.27992 37.7216L8.83998 33.8216C8.96534 34.0216 9.0929 34.2211 9.22486 34.4192C9.64132 35.0379 9.99462 35.6744 10.2866 36.3264C10.3107 36.4107 10.3455 36.4902 10.389 36.564C10.9946 37.9989 11.3025 39.5082 11.3025 41.0757V42.2207C11.3025 42.7891 11.7628 43.2504 12.33 43.2504H22.6049C23.1721 43.2504 23.6324 42.7891 23.6324 42.2207V41.0766C23.6324 39.5084 23.9411 37.9972 24.5534 36.5525C24.5921 36.4849 24.6236 36.4128 24.6462 36.3366C24.9422 35.6746 25.302 35.0266 25.7274 34.3943C25.8536 34.2048 25.976 34.014 26.0963 33.8226L31.6547 37.7215C32.0133 37.9728 32.4305 38.1005 32.8498 38.1005C33.1786 38.1005 33.5084 38.0222 33.8126 37.8637C34.5051 37.5022 34.9347 36.7927 34.9347 36.0111V31.8662C34.9347 24.6075 31.078 21.0023 29.7499 19.9762C29.3789 13.414 26.1851 7.00295 20.3979 2.15002L18.128 0.24099C17.7458 -0.0803301 17.1888 -0.0803301 16.8066 0.24099L14.5379 2.14916C8.75343 7.00025 5.55982 13.4084 5.18963 19.9727C3.8663 20.9934 0 24.5985 0 31.8664L0 36.0113C0 36.7929 0.429562 37.5024 1.12207 37.8638ZM21.5774 41.191H13.3573V41.0757C13.3573 39.7182 13.1515 38.3727 12.7511 37.0719H22.1833C21.7835 38.3721 21.5772 39.7187 21.5772 41.0766V41.191H21.5774ZM32.8795 31.8664L32.8332 36.035L27.1233 32.029C28.6655 29.0586 29.5283 25.9233 29.7368 22.7766C31.0981 24.3058 32.8795 27.198 32.8795 31.8664ZM15.8583 3.72877L17.4673 2.37466L19.0764 3.72877C19.0774 3.72877 19.0774 3.72877 19.0785 3.72975C28.3711 11.522 30.4025 23.6622 24.0073 33.2668C23.6281 33.8306 23.2927 34.4139 23 35.0123H11.9342C11.6388 34.4089 11.3 33.8201 10.9159 33.2504C4.53323 23.6601 6.5656 11.5211 15.8583 3.72877ZM2.05502 31.8664C2.05502 27.192 3.84108 24.2985 5.20297 22.7707C5.4112 25.9152 6.27216 29.0496 7.81156 32.022L2.05502 36.0112L2.05502 31.8664Z" fill="#909EB1"/>
<path d="M12.8704 45.0906V47.8513C12.8704 48.3593 13.2822 48.7715 13.7897 48.7715C14.2972 48.7715 14.709 48.3593 14.709 47.8513V45.0906C14.709 44.5827 14.2972 44.1704 13.7897 44.1704C13.2822 44.1704 12.8704 44.5827 12.8704 45.0906Z" fill="#909EB1"/>
<path d="M21.1444 45.0909V47.8516C21.1444 48.3595 21.5563 48.7718 22.0637 48.7718C22.5712 48.7718 22.9831 48.3595 22.9831 47.8516V45.0909C22.9831 44.5829 22.5712 44.1707 22.0637 44.1707C21.5563 44.1707 21.1444 44.5829 21.1444 45.0909Z" fill="#909EB1"/>
<path d="M16.5478 45.0906V46.0108C16.5478 46.5188 16.9596 46.9311 17.4671 46.9311C17.9746 46.9311 18.3865 46.5188 18.3865 46.0108V45.0906C18.3865 44.5827 17.9746 44.1704 17.4671 44.1704C16.9596 44.1704 16.5478 44.5827 16.5478 45.0906Z" fill="#909EB1"/>
</svg>
