<svg width="50" height="68" viewBox="0 0 50 68" fill="none" xmlns="http://www.w3.org/2000/svg">
<path d="M25.9238 24.3683C29.1037 24.3683 31.6897 21.7798 31.6897 18.5969C31.6897 15.4139 29.1037 12.8254 25.9238 12.8254C22.744 12.8254 20.158 15.4139 20.158 18.5969C20.158 21.7798 22.744 24.3683 25.9238 24.3683ZM25.9238 15.7112C27.5138 15.7112 28.8068 17.0054 28.8068 18.5969C28.8068 20.1884 27.5138 21.4826 25.9238 21.4826C24.3339 21.4826 23.0409 20.1884 23.0409 18.5969C23.0409 17.0054 24.3339 15.7112 25.9238 15.7112Z" fill="#909EB1"/>
<path d="M25.9238 42.3239C29.1037 42.3239 31.6897 39.7354 31.6897 36.5525C31.6897 33.3695 29.1037 30.781 25.9238 30.781C22.744 30.781 20.158 33.3695 20.158 36.5525C20.158 39.7354 22.744 42.3239 25.9238 42.3239ZM25.9238 33.6669C27.5138 33.6669 28.8068 34.9612 28.8068 36.5526C28.8068 38.1441 27.5138 39.4384 25.9238 39.4384C24.3339 39.4384 23.0409 38.1441 23.0409 36.5526C23.0409 34.9612 24.3339 33.6669 25.9238 33.6669Z" fill="#909EB1"/>
<path d="M2.50223 52.7721C2.92604 52.9932 3.38585 53.1021 3.84413 53.1021C4.42849 53.1021 5.00979 52.9241 5.50969 52.5739L13.2589 47.1383C13.4337 47.4171 13.6114 47.6951 13.7954 47.9713C14.3758 48.8336 14.8682 49.7207 15.2751 50.6294C15.3087 50.7468 15.3572 50.8577 15.4179 50.9606C16.262 52.9604 16.6911 55.0639 16.6911 57.2486V58.8445C16.6911 59.6367 17.3326 60.2796 18.1231 60.2796H32.4436C33.2341 60.2796 33.8756 59.6367 33.8756 58.8445V57.2499C33.8756 55.0643 34.3059 52.958 35.1593 50.9445C35.2132 50.8503 35.2571 50.7498 35.2887 50.6436C35.7012 49.7209 36.2027 48.8179 36.7955 47.9365C36.9715 47.6724 37.1421 47.4065 37.3096 47.1397L45.0566 52.5738C45.5564 52.9239 46.1379 53.102 46.7222 53.102C47.1805 53.102 47.6401 52.9929 48.0641 52.7719C49.0293 52.2682 49.628 51.2793 49.628 50.1899V44.413C49.628 34.2963 44.2529 29.2716 42.4018 27.8416C41.8847 18.6956 37.4335 9.76025 29.3676 2.99656L26.204 0.335876C25.6713 -0.111959 24.895 -0.111959 24.3624 0.335876L21.2003 2.99536C13.1383 9.75649 8.68726 18.6877 8.17132 27.8366C6.32695 29.2593 0.938354 34.2838 0.938354 44.4134V50.1903C0.938354 51.2795 1.53705 52.2684 2.50223 52.7721ZM31.0115 57.4093H19.5549V57.2486C19.5549 55.3567 19.2681 53.4814 18.71 51.6683H31.856C31.2988 53.4805 31.0113 55.3574 31.0113 57.2499V57.4093H31.0115ZM46.7637 44.4134L46.6992 50.2233L38.7411 44.6399C40.8905 40.5 42.093 36.1302 42.3836 31.7445C44.2809 33.8758 46.7637 37.9068 46.7637 44.4134ZM23.0406 5.19692L25.2832 3.30965L27.5258 5.19692C27.5271 5.19692 27.5271 5.19692 27.5287 5.19828C40.4802 16.0587 43.3114 32.9788 34.3982 46.3651C33.8696 47.1508 33.4021 47.9639 32.9942 48.7978H17.5715C17.1598 47.9569 16.6875 47.1363 16.1523 46.3422C7.25647 32.9759 10.0891 16.0573 23.0406 5.19692ZM3.8025 44.4134C3.8025 37.8985 6.2918 33.8657 8.18991 31.7363C8.48013 36.1189 9.68008 40.4875 11.8256 44.6302L3.8025 50.1901V44.4134Z" fill="#909EB1"/>
<path d="M18.8767 62.8445V66.6922C18.8767 67.4002 19.4507 67.9747 20.158 67.9747C20.8653 67.9747 21.4393 67.4002 21.4393 66.6922V62.8445C21.4393 62.1366 20.8653 61.562 20.158 61.562C19.4507 61.562 18.8767 62.1366 18.8767 62.8445Z" fill="#909EB1"/>
<path d="M30.4083 62.8445V66.6922C30.4083 67.4002 30.9823 67.9747 31.6896 67.9747C32.3969 67.9747 32.9709 67.4002 32.9709 66.6922V62.8445C32.9709 62.1366 32.3969 61.562 31.6896 61.562C30.9823 61.562 30.4083 62.1366 30.4083 62.8445Z" fill="#909EB1"/>
<path d="M24.0019 62.8445V64.1271C24.0019 64.8351 24.5759 65.4096 25.2832 65.4096C25.9905 65.4096 26.5645 64.8351 26.5645 64.1271V62.8445C26.5645 62.1366 25.9905 61.562 25.2832 61.562C24.5759 61.562 24.0019 62.1366 24.0019 62.8445Z" fill="#909EB1"/>
</svg>
