<svg width="125" height="691" viewBox="0 0 125 691" fill="none" xmlns="http://www.w3.org/2000/svg">
<g clip-path="url(#clip0)">
<path d="M79.3066 668.733C78.2179 665.29 74.9551 662.784 71.1088 662.784C66.8614 662.784 63.328 665.84 62.6453 669.839C62.6047 669.839 62.564 669.838 62.5241 669.838C58.5794 669.838 55.3702 673.003 55.3702 676.892C55.3702 679.225 53.1238 681.124 50.3624 681.124C47.601 681.124 45.3546 679.225 45.3546 676.892C45.3546 676.113 44.7137 675.481 43.9239 675.481C43.1342 675.481 42.4932 676.113 42.4932 676.892C42.4932 679.225 40.2468 681.124 37.4854 681.124C34.7241 681.124 32.4777 679.225 32.4777 676.892C32.4777 673.451 29.9657 670.58 26.6556 669.962C26.0255 665.903 22.4608 662.784 18.1698 662.784C14.4213 662.784 11.2291 665.165 10.0613 668.473C4.98446 668.949 1 673.175 1 678.303V689.589C1 690.368 1.64095 691 2.43072 691H85.4168C86.2081 691 86.8475 690.368 86.8475 689.589V678.303C86.8477 673.699 83.6356 669.822 79.3066 668.733ZM71.1089 665.606C73.2352 665.606 75.0924 666.755 76.0792 668.456C72.8927 668.691 70.1165 670.401 68.4548 672.897C67.6626 671.563 66.5737 670.79 65.4583 670.354C65.8946 667.666 68.2615 665.606 71.1089 665.606ZM18.1695 665.606C20.892 665.606 23.1743 667.489 23.7507 670.004C21.8418 670.419 20.446 671.587 19.5288 673.105C18.1115 670.857 15.8037 669.209 13.0956 668.643C14.0519 666.839 15.9664 665.606 18.1695 665.606ZM83.9861 688.178H3.86161V678.303C3.86161 674.413 7.07079 671.249 11.0155 671.249C14.9603 671.249 18.1695 674.413 18.1695 678.303C18.1695 679.082 18.8104 679.714 19.6002 679.714C20.39 679.714 21.0309 679.082 21.0309 678.303C21.0309 676.206 21.9352 672.66 25.3232 672.66C27.6898 672.66 29.6156 674.559 29.6156 676.892C29.6156 680.782 33.1454 683.946 37.4849 683.946C40.1433 683.946 42.4985 682.758 43.9236 680.944C45.3487 682.758 47.7037 683.946 50.3622 683.946C54.7018 683.946 58.2316 680.782 58.2316 676.892C58.2316 674.558 60.1575 672.66 62.5239 672.66C64.5228 672.66 66.8163 673.302 66.8163 678.303C66.8163 679.082 67.4572 679.714 68.247 679.714C69.0383 679.714 69.6777 679.082 69.6777 678.303C69.6777 674.413 72.8869 671.249 76.8316 671.249C80.7764 671.249 83.9856 674.413 83.9856 678.303L83.9861 688.178Z" fill="#909EB1"/>
<path d="M43.9238 630.72C47.1037 630.72 49.6897 628.132 49.6897 624.949C49.6897 621.766 47.1037 619.177 43.9238 619.177C40.744 619.177 38.158 621.766 38.158 624.949C38.158 628.132 40.744 630.72 43.9238 630.72ZM43.9238 622.063C45.5138 622.063 46.8068 623.357 46.8068 624.949C46.8068 626.54 45.5138 627.835 43.9238 627.835C42.3339 627.835 41.0409 626.54 41.0409 624.949C41.0409 623.357 42.3339 622.063 43.9238 622.063Z" fill="#909EB1"/>
<path d="M43.9238 648.676C47.1037 648.676 49.6897 646.087 49.6897 642.905C49.6897 639.722 47.1037 637.133 43.9238 637.133C40.744 637.133 38.158 639.722 38.158 642.905C38.158 646.087 40.744 648.676 43.9238 648.676ZM43.9238 640.019C45.5138 640.019 46.8068 641.313 46.8068 642.905C46.8068 644.496 45.5138 645.79 43.9238 645.79C42.3339 645.79 41.0409 644.496 41.0409 642.905C41.0409 641.313 42.3339 640.019 43.9238 640.019Z" fill="#909EB1"/>
<path d="M20.5022 659.124C20.926 659.345 21.3859 659.454 21.8441 659.454C22.4285 659.454 23.0098 659.276 23.5097 658.926L31.2589 653.49C31.4337 653.769 31.6114 654.047 31.7954 654.323C32.3758 655.186 32.8682 656.073 33.2751 656.981C33.3087 657.099 33.3572 657.21 33.4179 657.313C34.262 659.312 34.6911 661.416 34.6911 663.601V665.197C34.6911 665.989 35.3326 666.632 36.1231 666.632H50.4436C51.2341 666.632 51.8756 665.989 51.8756 665.197V663.602C51.8756 661.416 52.3059 659.31 53.1593 657.297C53.2132 657.202 53.2571 657.102 53.2887 656.996C53.7012 656.073 54.2027 655.17 54.7955 654.289C54.9715 654.024 55.1421 653.759 55.3096 653.492L63.0566 658.926C63.5564 659.276 64.1379 659.454 64.7222 659.454C65.1805 659.454 65.6401 659.345 66.0641 659.124C67.0293 658.62 67.628 657.631 67.628 656.542V650.765C67.628 640.648 62.2529 635.624 60.4018 634.194C59.8847 625.048 55.4335 616.112 47.3676 609.349L44.204 606.688C43.6713 606.24 42.895 606.24 42.3624 606.688L39.2003 609.347C31.1383 616.109 26.6873 625.04 26.1713 634.189C24.3269 635.611 18.9384 640.636 18.9384 650.765V656.542C18.9384 657.632 19.537 658.62 20.5022 659.124ZM49.0115 663.761H37.5549V663.601C37.5549 661.709 37.2681 659.833 36.71 658.02H49.856C49.2988 659.833 49.0113 661.709 49.0113 663.602V663.761H49.0115ZM64.7637 650.765L64.6992 656.575L56.7411 650.992C58.8905 646.852 60.093 642.482 60.3836 638.097C62.2809 640.228 64.7637 644.259 64.7637 650.765ZM41.0406 611.549L43.2832 609.662L45.5258 611.549C45.5271 611.549 45.5271 611.549 45.5287 611.55C58.4802 622.411 61.3114 639.331 52.3982 652.717C51.8696 653.503 51.4021 654.316 50.9942 655.15H35.5715C35.1598 654.309 34.6875 653.488 34.1523 652.694C25.2565 639.328 28.0891 622.409 41.0406 611.549ZM21.8025 650.765C21.8025 644.251 24.2918 640.218 26.1899 638.088C26.4801 642.471 27.6801 646.84 29.8256 650.982L21.8025 656.542V650.765Z" fill="#909EB1"/>
<path d="M36.8767 669.197V673.044C36.8767 673.752 37.4507 674.327 38.158 674.327C38.8653 674.327 39.4393 673.752 39.4393 673.044V669.197C39.4393 668.489 38.8653 667.914 38.158 667.914C37.4507 667.914 36.8767 668.489 36.8767 669.197Z" fill="#909EB1"/>
<path d="M48.4083 669.197V673.044C48.4083 673.752 48.9823 674.327 49.6896 674.327C50.3969 674.327 50.9709 673.752 50.9709 673.044V669.197C50.9709 668.489 50.3969 667.914 49.6896 667.914C48.9823 667.914 48.4083 668.489 48.4083 669.197Z" fill="#909EB1"/>
<path d="M42.002 669.197V670.479C42.002 671.187 42.576 671.762 43.2833 671.762C43.9906 671.762 44.5646 671.187 44.5646 670.479V669.197C44.5646 668.489 43.9906 667.914 43.2833 667.914C42.576 667.914 42.002 668.489 42.002 669.197Z" fill="#909EB1"/>
<path d="M80.1936 546.711C81.76 548.175 84.2036 548.109 85.642 546.565C87.0804 545.021 86.9763 542.575 85.4099 541.111C83.8435 539.648 81.3999 539.713 79.9616 541.257C78.5232 542.801 78.6273 545.247 80.1936 546.711ZM84.1059 542.511C84.889 543.243 84.9411 544.466 84.2219 545.238C83.5027 546.01 82.2809 546.043 81.4977 545.311C80.7145 544.579 80.6625 543.356 81.3817 542.584C82.1009 541.812 83.3227 541.779 84.1059 542.511Z" fill="#909EB1"/>
<path d="M72.0143 555.491C73.5807 556.954 76.0243 556.889 77.4627 555.345C78.9011 553.801 78.797 551.355 77.2306 549.891C75.6642 548.428 73.2206 548.493 71.7822 550.037C70.3439 551.581 70.4479 554.027 72.0143 555.491ZM75.9265 551.291C76.7096 552.023 76.7617 553.246 76.0425 554.018C75.3233 554.79 74.1015 554.823 73.3183 554.091C72.5351 553.359 72.4831 552.136 73.2023 551.364C73.9215 550.592 75.1433 550.559 75.9265 551.291Z" fill="#909EB1"/>
<path d="M53.5757 550.757C53.6944 551.087 53.8878 551.375 54.1341 551.605C54.4481 551.899 54.8483 552.097 55.2896 552.162L62.134 553.177C62.0905 553.412 62.049 553.649 62.0117 553.887C61.8985 554.635 61.7257 555.352 61.4964 556.037C61.4565 556.116 61.428 556.199 61.4098 556.284C60.8775 557.767 60.071 559.095 58.9939 560.252L58.2071 561.096C57.8165 561.516 57.8443 562.178 58.2691 562.575L65.9652 569.767C66.39 570.164 67.0517 570.145 67.4423 569.726L68.2285 568.882C69.306 567.725 70.5757 566.827 72.0271 566.19C72.1025 566.167 72.1756 566.136 72.2449 566.095C72.9216 565.814 73.6362 565.588 74.3894 565.419C74.6142 565.368 74.837 565.313 75.0585 565.256L76.5428 572.022C76.6387 572.459 76.8634 572.845 77.1774 573.138C77.4237 573.368 77.7245 573.542 78.0613 573.638C78.8284 573.856 79.6376 573.633 80.1747 573.056L83.0229 569.999C88.0107 564.644 87.5993 559.286 87.3096 557.599C91.5408 552.499 93.554 545.534 92.5539 537.904L92.1655 534.907C92.1001 534.402 91.6829 534.013 91.1758 533.982L88.1653 533.802C80.4993 533.332 73.704 535.823 68.9161 540.406C67.2235 540.233 61.8504 540.186 56.8563 545.548L54.0081 548.605C53.4711 549.182 53.3053 550.006 53.5757 550.757ZM66.6106 567.528L60.4537 561.775L60.533 561.69C61.4657 560.689 62.2361 559.552 62.8301 558.312L69.895 564.914C68.702 565.593 67.6222 566.442 66.6891 567.444L66.6106 567.528L66.6106 567.528ZM81.4834 568.561L78.5843 571.603L77.0602 564.652C80.2565 563.54 83.0571 561.831 85.3755 559.656C85.3443 561.737 84.6913 565.117 81.4834 568.561ZM88.0689 535.891L90.2045 536.018L90.4793 538.144C90.48 538.144 90.48 538.144 90.4802 538.146C92.0861 550.398 85.2656 560.775 73.8758 563.384C73.2043 563.534 72.5522 563.73 71.9218 563.966L63.6335 556.221C63.8268 555.569 63.9776 554.898 64.0815 554.209C65.8906 542.667 75.7541 535.135 88.0689 535.891ZM58.3955 546.986C61.6075 543.538 64.9335 542.653 67.0034 542.48C64.9987 544.945 63.4897 547.86 62.6003 551.13L55.5474 550.043L58.3955 546.986Z" fill="#909EB1"/>
<path d="M56.6264 563.61L54.8818 565.483C54.5608 565.828 54.5839 566.373 54.9335 566.699C55.2831 567.026 55.8273 567.011 56.1483 566.667L57.8929 564.794C58.2139 564.449 58.1907 563.904 57.8412 563.578C57.4916 563.251 56.9474 563.266 56.6264 563.61Z" fill="#909EB1"/>
<path d="M62.265 568.874L60.5204 570.747C60.1994 571.091 60.2226 571.636 60.5722 571.963C60.9218 572.289 61.466 572.275 61.787 571.93L63.5316 570.057C63.8526 569.713 63.8294 569.168 63.4798 568.841C63.1303 568.514 62.586 568.529 62.265 568.874Z" fill="#909EB1"/>
<path d="M59.136 565.948L58.5557 566.571C58.2353 566.915 58.2584 567.459 58.6072 567.785C58.9561 568.111 59.4991 568.096 59.8195 567.752L60.3998 567.129C60.7201 566.785 60.697 566.242 60.3482 565.916C59.9994 565.59 59.4563 565.604 59.136 565.948Z" fill="#909EB1"/>
<path d="M43.5024 471.152C45.2882 469.425 45.3489 466.578 43.6376 464.805C41.9263 463.031 39.0823 462.993 37.2964 464.72C35.5106 466.447 35.4499 469.294 37.1612 471.068C38.8725 472.841 41.7165 472.879 43.5024 471.152ZM38.8479 466.328C39.7408 465.465 41.1628 465.484 42.0185 466.37C42.8741 467.257 42.8438 468.681 41.9509 469.544C41.058 470.408 39.636 470.389 38.7803 469.502C37.9247 468.615 37.955 467.192 38.8479 466.328Z" fill="#909EB1"/>
<path d="M53.2697 481.276C55.0556 479.549 55.1162 476.703 53.4049 474.929C51.6936 473.155 48.8496 473.118 47.0637 474.844C45.2779 476.571 45.2173 479.418 46.9286 481.192C48.6399 482.965 51.4839 483.003 53.2697 481.276ZM48.6153 476.453C49.5083 475.589 50.9303 475.608 51.7859 476.495C52.6416 477.382 52.6113 478.805 51.7183 479.668C50.8254 480.532 49.4034 480.513 48.5477 479.626C47.6921 478.739 47.7224 477.316 48.6153 476.453Z" fill="#909EB1"/>
<path d="M45.094 499.905C45.4505 499.796 45.7676 499.606 46.0257 499.356C46.3548 499.038 46.5874 498.623 46.6823 498.157L48.1508 490.935C48.3977 490.994 48.646 491.05 48.8967 491.103C49.6831 491.263 50.4331 491.485 51.1465 491.765C51.228 491.811 51.3143 491.846 51.4034 491.87C52.9443 492.514 54.3068 493.442 55.4709 494.649L56.3212 495.53C56.7433 495.968 57.4472 495.973 57.8924 495.543L65.9583 487.743C66.4035 487.312 66.4222 486.608 66.0001 486.17L65.1505 485.29C63.9859 484.083 63.106 482.685 62.5138 481.108C62.494 481.027 62.4651 480.948 62.4263 480.872C62.1671 480.138 61.9683 479.366 61.8327 478.556C61.791 478.314 61.7454 478.075 61.6977 477.836L68.9565 476.617C69.4245 476.539 69.8469 476.32 70.176 476.002C70.4341 475.752 70.6349 475.442 70.756 475.089C71.0312 474.285 70.8415 473.413 70.261 472.811L67.183 469.621C61.7925 464.034 56.0878 464.187 54.2832 464.405C49.1188 459.636 41.8507 457.126 33.7038 457.785L30.5043 458.038C29.9657 458.081 29.5284 458.504 29.467 459.041L29.1031 462.232C28.1648 470.357 30.4166 477.714 35.0008 483.047C34.72 484.837 34.3621 490.547 39.7594 496.141L42.8375 499.331C43.4179 499.932 44.282 500.152 45.094 499.905ZM63.6222 486.938L57.1695 493.178L57.0838 493.089C56.0758 492.044 54.9151 491.165 53.6347 490.468L61.039 483.307C61.6907 484.612 62.5288 485.805 63.5372 486.85L63.6221 486.938L63.6222 486.938ZM65.5699 471.181L68.6292 474.425L61.172 475.676C60.1767 472.219 58.5257 469.151 56.3526 466.571C58.5568 466.714 62.103 467.588 65.5699 471.181ZM31.3126 462.446L31.5702 460.182L33.8389 460.003C33.8396 460.002 33.8396 460.002 33.8412 460.002C46.9227 458.945 57.5328 466.747 59.6451 478.994C59.7661 479.716 59.936 480.42 60.1506 481.102L51.4639 489.502C50.784 489.262 50.0807 489.066 49.3562 488.919C37.2238 486.383 29.8046 475.498 31.3126 462.446ZM41.3726 494.581C37.9013 490.983 37.1546 487.4 37.0891 485.19C39.5877 487.453 42.5913 489.211 46.007 490.331L44.4506 497.771L41.3726 494.581Z" fill="#909EB1"/>
<path d="M60.0232 496.059L61.8044 497.905C62.1321 498.245 62.6757 498.252 63.0177 497.922C63.3597 497.591 63.3713 497.047 63.0436 496.707L61.2624 494.861C60.9346 494.521 60.3911 494.514 60.049 494.845C59.707 495.175 59.6954 495.72 60.0232 496.059Z" fill="#909EB1"/>
<path d="M65.5691 490.698L67.3503 492.545C67.678 492.884 68.2216 492.892 68.5636 492.561C68.9056 492.23 68.9172 491.686 68.5895 491.346L66.8083 489.5C66.4805 489.16 65.937 489.153 65.5949 489.484C65.2529 489.815 65.2413 490.359 65.5691 490.698Z" fill="#909EB1"/>
<path d="M62.4871 493.675L63.08 494.289C63.4073 494.628 63.95 494.635 64.2915 494.305C64.633 493.975 64.6445 493.432 64.3173 493.092L63.7244 492.478C63.3971 492.139 62.8544 492.132 62.5129 492.462C62.1714 492.792 62.1599 493.335 62.4871 493.675Z" fill="#909EB1"/>
<path d="M85.5182 397.961C87.2295 399.735 90.0735 399.773 91.8593 398.046C93.6452 396.319 93.7057 393.472 91.9944 391.699C90.2831 389.925 87.4391 389.887 85.6532 391.614C83.8674 393.341 83.8068 396.188 85.5182 397.961ZM90.3754 393.264C91.231 394.151 91.2007 395.575 90.3078 396.438C89.4149 397.301 87.9929 397.282 87.1372 396.396C86.2816 395.509 86.3119 394.085 87.2048 393.222C88.0977 392.359 89.5197 392.378 90.3754 393.264Z" fill="#909EB1"/>
<path d="M75.4037 407.738C77.115 409.512 79.959 409.55 81.7449 407.823C83.5307 406.096 83.5912 403.249 81.8799 401.476C80.1686 399.702 77.3246 399.664 75.5387 401.391C73.7529 403.118 73.6923 405.965 75.4037 407.738ZM80.2608 403.042C81.1164 403.928 81.0861 405.352 80.1932 406.215C79.3003 407.079 77.8783 407.06 77.0226 406.173C76.167 405.286 76.1973 403.863 77.0902 402.999C77.9831 402.136 79.4051 402.155 80.2608 403.042Z" fill="#909EB1"/>
<path d="M56.8389 401.011C56.9446 401.367 57.1321 401.682 57.3792 401.938C57.6944 402.265 58.1068 402.494 58.571 402.585L65.7703 403.996C65.7097 404.244 65.6511 404.493 65.5968 404.744C65.4307 405.531 65.2034 406.283 64.918 406.999C64.8709 407.081 64.8355 407.167 64.811 407.257C64.1551 408.803 63.2178 410.173 62.004 411.346L61.1174 412.204C60.6772 412.629 60.666 413.333 61.0923 413.775L68.8156 421.78C69.2419 422.221 69.9451 422.235 70.3853 421.809L71.2712 420.952C72.4855 419.778 73.8879 418.887 75.4668 418.282C75.5482 418.262 75.6277 418.232 75.7038 418.193C76.4389 417.928 77.2111 417.723 78.0205 417.581C78.2621 417.537 78.5019 417.49 78.7404 417.44L79.8994 424.689C79.9743 425.157 80.189 425.578 80.5042 425.904C80.7513 426.16 81.0598 426.359 81.4112 426.477C82.2117 426.746 83.084 426.549 83.6892 425.964L86.8989 422.86C92.5197 417.425 92.4126 411.721 92.2088 409.918C97.0114 404.715 99.5753 397.427 98.9831 389.285L98.7552 386.087C98.7168 385.549 98.2981 385.115 97.762 385.058L94.579 384.719C86.4746 383.846 79.1119 386.156 73.7505 390.783C71.9654 390.516 66.2676 390.204 60.6396 395.646L57.43 398.75C56.8248 399.335 56.5982 400.201 56.8389 401.011ZM69.6379 419.437L63.4592 413.034L63.5485 412.947C64.5997 411.931 65.4869 410.763 66.1933 409.477L73.2831 416.825C71.9757 417.487 70.7779 418.335 69.7264 419.351L69.6379 419.437L69.6379 419.437ZM85.3539 421.259L82.0912 424.345L80.9013 416.897C84.3607 415.874 87.4371 414.199 90.0305 412.005C89.8696 414.21 88.9689 417.764 85.3539 421.259ZM94.3483 386.931L96.6064 387.17L96.7673 389.438C96.768 389.438 96.768 389.438 96.7681 389.44C97.719 402.514 89.8451 413.187 77.6006 415.396C76.879 415.523 76.1752 415.699 75.4918 415.919L67.1741 407.298C67.4193 406.616 67.6205 405.912 67.773 405.186C70.4017 393.033 81.3293 385.526 94.3483 386.931ZM62.1843 397.247C65.804 393.747 69.3871 392.972 71.5938 392.888C69.3154 395.405 67.5354 398.423 66.3908 401.848L58.9747 400.35L62.1843 397.247Z" fill="#909EB1"/>
<path d="M60.6714 415.758L58.8188 417.55C58.4779 417.879 58.4664 418.422 58.793 418.76C59.1197 419.099 59.6614 419.106 60.0023 418.776L61.855 416.985C62.1959 416.655 62.2074 416.113 61.8807 415.775C61.5541 415.436 61.0123 415.429 60.6714 415.758Z" fill="#909EB1"/>
<path d="M66.0272 421.31L64.1746 423.101C63.8337 423.431 63.8222 423.973 64.1488 424.311C64.4755 424.65 65.0173 424.657 65.3582 424.327L67.2108 422.536C67.5517 422.207 67.5632 421.664 67.2366 421.326C66.9099 420.987 66.3681 420.98 66.0272 421.31Z" fill="#909EB1"/>
<path d="M63.0505 418.226L62.4326 418.823C62.0915 419.153 62.08 419.696 62.4069 420.034C62.7337 420.373 63.2758 420.38 63.6168 420.051L64.2347 419.453C64.5758 419.123 64.5873 418.581 64.2605 418.242C63.9336 417.903 63.3915 417.896 63.0505 418.226Z" fill="#909EB1"/>
<path d="M88.0896 313.446C89.7894 311.649 89.7107 308.802 87.9141 307.101C86.1175 305.399 83.2741 305.477 81.5743 307.274C79.8744 309.072 79.9531 311.918 81.7497 313.62C83.5463 315.322 86.3897 315.244 88.0896 313.446ZM83.2031 308.817C84.053 307.918 85.4747 307.88 86.373 308.73C87.2713 309.581 87.3107 311.004 86.4607 311.903C85.6108 312.802 84.1891 312.841 83.2908 311.99C82.3925 311.139 82.3532 309.716 83.2031 308.817Z" fill="#909EB1"/>
<path d="M98.3036 323.122C100.003 321.325 99.9247 318.479 98.1281 316.777C96.3315 315.075 93.4881 315.153 91.7883 316.95C90.0884 318.748 90.1671 321.594 91.9637 323.296C93.7603 324.998 96.6037 324.92 98.3036 323.122ZM93.4172 318.493C94.2671 317.595 95.6888 317.556 96.5871 318.407C97.4854 319.258 97.5247 320.681 96.6748 321.579C95.8249 322.478 94.4032 322.517 93.5049 321.666C92.6066 320.815 92.5673 319.392 93.4172 318.493Z" fill="#909EB1"/>
<path d="M91.0583 342.071C91.4091 341.948 91.7164 341.745 91.962 341.485C92.2751 341.154 92.4871 340.73 92.5592 340.262L93.6726 332.99C93.9221 333.039 94.1728 333.085 94.4258 333.127C95.219 333.255 95.979 333.446 96.7051 333.697C96.7888 333.74 96.8767 333.771 96.9669 333.791C98.5374 334.372 99.9436 335.243 101.165 336.4L102.058 337.246C102.501 337.665 103.204 337.642 103.627 337.194L111.302 329.078C111.725 328.63 111.71 327.926 111.267 327.506L110.375 326.661C109.153 325.504 108.206 324.144 107.537 322.594C107.513 322.513 107.481 322.435 107.438 322.361C107.143 321.639 106.907 320.876 106.732 320.073C106.679 319.834 106.621 319.596 106.562 319.36L113.752 317.847C114.216 317.75 114.627 317.514 114.94 317.183C115.186 316.923 115.371 316.605 115.475 316.248C115.71 315.434 115.478 314.571 114.869 313.994L111.639 310.934C105.982 305.575 100.292 305.96 98.5 306.251C93.1088 301.7 85.7271 299.49 77.6226 300.479L74.4394 300.862C73.9036 300.927 73.4876 301.367 73.4525 301.906L73.2451 305.107C72.7053 313.258 75.314 320.511 80.1533 325.65C79.9604 327.449 79.8822 333.164 85.5463 338.53L88.7766 341.59C89.3856 342.167 90.2594 342.351 91.0583 342.071ZM108.929 328.369L102.79 334.862L102.7 334.777C101.642 333.775 100.44 332.944 99.1268 332.3L106.172 324.849C106.886 326.125 107.782 327.282 108.84 328.285L108.929 328.369L108.929 328.369ZM110.104 312.557L113.318 315.671L105.931 317.224C104.768 313.813 102.969 310.817 100.673 308.329C102.881 308.383 106.466 309.111 110.104 312.557ZM75.4623 305.23L75.6088 302.959L77.8659 302.688C77.8666 302.687 77.8666 302.687 77.8682 302.687C90.8816 301.099 101.86 308.457 104.569 320.6C104.725 321.315 104.929 322.011 105.177 322.684L96.9116 331.425C96.2207 331.213 95.5088 331.046 94.7779 330.929C82.5367 328.89 74.5944 318.323 75.4623 305.23ZM87.0812 336.906C83.4383 333.456 82.5173 329.909 82.3438 327.705C84.95 329.862 88.0358 331.496 91.502 332.474L90.3114 339.966L87.0812 336.906Z" fill="#909EB1"/>
<path d="M105.705 337.568L107.571 339.337C107.915 339.662 108.457 339.647 108.782 339.304C109.107 338.96 109.092 338.417 108.749 338.092L106.882 336.323C106.539 335.998 105.996 336.013 105.671 336.356C105.346 336.7 105.361 337.243 105.705 337.568Z" fill="#909EB1"/>
<path d="M111.003 331.964L112.87 333.733C113.214 334.058 113.756 334.043 114.081 333.699C114.406 333.356 114.391 332.813 114.048 332.487L112.181 330.719C111.838 330.393 111.295 330.408 110.97 330.752C110.645 331.096 110.66 331.639 111.003 331.964Z" fill="#909EB1"/>
<path d="M108.06 335.078L108.682 335.667C109.026 335.993 109.568 335.978 109.893 335.634C110.218 335.29 110.203 334.747 109.86 334.422L109.237 333.832C108.894 333.507 108.351 333.522 108.026 333.866C107.701 334.209 107.716 334.752 108.06 335.078Z" fill="#909EB1"/>
<path d="M35.9999 600C37.6567 600 38.9999 598.657 38.9999 597C38.9999 595.343 37.6567 594 35.9999 594C34.343 594 32.9999 595.343 32.9999 597C32.9999 598.657 34.343 600 35.9999 600Z" fill="#909EB1"/>
<path d="M46.9999 579C48.6567 579 49.9999 577.657 49.9999 576C49.9999 574.343 48.6567 573 46.9999 573C45.343 573 43.9999 574.343 43.9999 576C43.9999 577.657 45.343 579 46.9999 579Z" fill="#909EB1"/>
<path d="M89.6384 525.342C91.2953 525.342 92.6384 523.999 92.6384 522.342C92.6384 520.685 91.2953 519.342 89.6384 519.342C87.9816 519.342 86.6384 520.685 86.6384 522.342C86.6384 523.999 87.9816 525.342 89.6384 525.342Z" fill="#909EB1"/>
<path d="M87.004 507.197C88.6609 507.197 90.004 505.854 90.004 504.197C90.004 502.54 88.6609 501.197 87.004 501.197C85.3472 501.197 84.004 502.54 84.004 504.197C84.004 505.854 85.3472 507.197 87.004 507.197Z" fill="#909EB1"/>
<path d="M70.347 502.067C72.0039 502.067 73.347 500.724 73.347 499.067C73.347 497.41 72.0039 496.067 70.347 496.067C68.6902 496.067 67.347 497.41 67.347 499.067C67.347 500.724 68.6902 502.067 70.347 502.067Z" fill="#909EB1"/>
<path d="M28.1357 449.882C29.7926 449.882 31.1357 448.539 31.1357 446.882C31.1357 445.225 29.7926 443.882 28.1357 443.882C26.4789 443.882 25.1357 445.225 25.1357 446.882C25.1357 448.539 26.4789 449.882 28.1357 449.882Z" fill="#909EB1"/>
<path d="M34.1631 434.814C35.8199 434.814 37.1631 433.471 37.1631 431.814C37.1631 430.157 35.8199 428.814 34.1631 428.814C32.5062 428.814 31.1631 430.157 31.1631 431.814C31.1631 433.471 32.5062 434.814 34.1631 434.814Z" fill="#909EB1"/>
<path d="M50.2357 429.791C51.8926 429.791 53.2357 428.448 53.2357 426.791C53.2357 425.134 51.8926 423.791 50.2357 423.791C48.5789 423.791 47.2357 425.134 47.2357 426.791C47.2357 428.448 48.5789 429.791 50.2357 429.791Z" fill="#909EB1"/>
<path d="M32.9999 586C34.6567 586 35.9999 584.657 35.9999 583C35.9999 581.343 34.6567 580 32.9999 580C31.343 580 29.9999 581.343 29.9999 583C29.9999 584.657 31.343 586 32.9999 586Z" fill="#909EB1"/>
<path d="M104.068 379.067C105.723 379.067 107.065 377.724 107.065 376.067C107.065 374.41 105.723 373.067 104.068 373.067C102.413 373.067 101.071 374.41 101.071 376.067C101.071 377.724 102.413 379.067 104.068 379.067Z" fill="#909EB1"/>
<path d="M113.037 347.428C114.693 347.428 116.034 346.085 116.034 344.428C116.034 342.771 114.693 341.428 113.037 341.428C111.382 341.428 110.04 342.771 110.04 344.428C110.04 346.085 111.382 347.428 113.037 347.428Z" fill="#909EB1"/>
<path d="M113.037 363.491C114.693 363.491 116.034 362.148 116.034 360.491C116.034 358.835 114.693 357.491 113.037 357.491C111.382 357.491 110.04 358.835 110.04 360.491C110.04 362.148 111.382 363.491 113.037 363.491Z" fill="#909EB1"/>
<path d="M65.9999 301.006C67.6567 301.006 68.9999 299.661 68.9999 298.003C68.9999 296.344 67.6567 295 65.9999 295C64.343 295 62.9999 296.344 62.9999 298.003C62.9999 299.661 64.343 301.006 65.9999 301.006Z" fill="#909EB1"/>
<path d="M8.17228 240.701C6.73741 241.53 4.90198 241.037 4.07276 239.601C3.24353 238.164 3.7345 236.328 5.16938 235.5C6.60426 234.672 8.43968 235.164 9.26891 236.601C10.0981 238.037 9.60716 239.873 8.17228 240.701Z" fill="#909EB1"/>
<path d="M10.5959 256.701C9.16099 257.53 7.32557 257.037 6.49634 255.601C5.66711 254.164 6.15809 252.328 7.59296 251.5C9.02784 250.672 10.8633 251.164 11.6925 252.601C12.5217 254.037 12.0307 255.873 10.5959 256.701Z" fill="#909EB1"/>
<path d="M17.5959 270.701C16.161 271.53 14.3256 271.037 13.4963 269.601C12.6671 268.164 13.1581 266.328 14.593 265.5C16.0278 264.672 17.8633 265.164 18.6925 266.601C19.5217 268.037 19.0307 269.873 17.5959 270.701Z" fill="#909EB1"/>
<path d="M27.5959 280.701C26.161 281.53 24.3256 281.037 23.4963 279.601C22.6671 278.164 23.1581 276.328 24.593 275.5C26.0278 274.672 27.8633 275.164 28.6925 276.601C29.5217 278.037 29.0307 279.873 27.5959 280.701Z" fill="#909EB1"/>
<path d="M41.5959 287.701C40.161 288.53 38.3256 288.037 37.4963 286.601C36.6671 285.164 37.1581 283.328 38.593 282.5C40.0278 281.672 41.8633 282.164 42.6925 283.601C43.5217 285.037 43.0307 286.873 41.5959 287.701Z" fill="#909EB1"/>
<path d="M54.5959 293.701C53.161 294.53 51.3256 294.037 50.4963 292.601C49.6671 291.164 50.1581 289.328 51.593 288.5C53.0278 287.672 54.8633 288.164 55.6925 289.601C56.5217 291.037 56.0307 292.873 54.5959 293.701Z" fill="#909EB1"/>
<path d="M25.5 168C27.9853 168 30 165.985 30 163.5C30 161.015 27.9853 159 25.5 159C23.0147 159 21 161.015 21 163.5C21 165.985 23.0147 168 25.5 168Z" fill="#3870DE"/>
<path d="M16.4999 183C18.9852 183 20.9999 180.985 20.9999 178.5C20.9999 176.015 18.9852 174 16.4999 174C14.0146 174 11.9999 176.015 11.9999 178.5C11.9999 180.985 14.0146 183 16.4999 183Z" fill="#3870DE"/>
<path d="M13.4999 198C15.9852 198 17.9999 195.985 17.9999 193.5C17.9999 191.015 15.9852 189 13.4999 189C11.0146 189 8.99988 191.015 8.99988 193.5C8.99988 195.985 11.0146 198 13.4999 198Z" fill="#3870DE"/>
<path d="M36.5 156C38.9853 156 41 153.985 41 151.5C41 149.015 38.9853 147 36.5 147C34.0147 147 32 149.015 32 151.5C32 153.985 34.0147 156 36.5 156Z" fill="#3870DE"/>
<path d="M42.9415 45.8726C48.3475 45.8726 52.744 40.9999 52.744 35.0081C52.744 29.0163 48.3475 24.1436 42.9415 24.1436C37.5355 24.1436 33.139 29.0163 33.139 35.0081C33.139 40.9999 37.5355 45.8726 42.9415 45.8726ZM42.9415 29.5758C45.6445 29.5758 47.8427 32.0122 47.8427 35.0081C47.8427 38.004 45.6445 40.4404 42.9415 40.4404C40.2385 40.4404 38.0403 38.004 38.0403 35.0081C38.0403 32.0122 40.2385 29.5758 42.9415 29.5758Z" fill="#909EB1"/>
<path d="M42.9415 79.6732C48.3475 79.6732 52.744 74.8004 52.744 68.8086C52.744 62.8169 48.3475 57.9441 42.9415 57.9441C37.5355 57.9441 33.139 62.8169 33.139 68.8086C33.139 74.8004 37.5355 79.6732 42.9415 79.6732ZM42.9415 63.3767C45.6445 63.3767 47.8427 65.8131 47.8427 68.809C47.8427 71.8048 45.6445 74.2412 42.9415 74.2412C40.2385 74.2412 38.0403 71.8048 38.0403 68.809C38.0403 65.8131 40.2385 63.3767 42.9415 63.3767Z" fill="#909EB1"/>
<path d="M3.12282 99.3415C4.96405 99.3412 17.2622 91.9577 21.4101 88.7361C21.7071 89.2608 22.0094 89.7842 22.3221 90.3041C23.3089 91.9274 24.146 93.5973 24.8378 95.3079C24.8949 95.529 24.9773 95.7376 25.0806 95.9314C26.5155 99.6959 27.245 103.656 27.245 107.768V110.772C27.245 112.264 28.3357 113.474 29.6795 113.474H54.0257C55.3695 113.474 56.4601 112.264 56.4601 110.772V107.771C56.4601 103.656 57.1917 99.6914 58.6426 95.9011C58.7342 95.7237 58.8088 95.5345 58.8624 95.3346C59.5638 93.5977 60.4163 91.8978 61.4243 90.2387C61.7233 89.7414 62.0134 89.2409 62.2982 88.7387C66.0362 91.6419 78.6994 99.3408 80.5817 99.3412C82.4641 99.3415 91.4641 66 70.9554 52.4107C70.0762 35.1937 62.5088 18.3733 48.7961 5.6409L43.4178 0.632275C42.5122 -0.210758 41.1924 -0.210758 40.2868 0.632275L34.9111 5.63865C21.205 18.3662 13.6379 35.1789 12.7607 52.4014C-6.53598 72 1.28158 99.3418 3.12282 99.3415Z" fill="#3870DE"/>
<path d="M32.9115 117.988V136.919C32.9115 137.987 33.8401 138.853 34.9842 138.853C36.1284 138.853 37.057 137.987 37.057 136.919V117.988C37.057 116.92 36.1284 116.053 34.9842 116.053C33.8401 116.053 32.9115 116.92 32.9115 117.988Z" fill="#E9961A"/>
<path d="M46.7297 118.54V143.966C46.7297 145.339 47.6583 146.453 48.8025 146.453C49.9466 146.453 50.8752 145.339 50.8752 143.966V118.54C50.8752 117.167 49.9466 116.053 48.8025 116.053C47.6583 116.053 46.7297 117.167 46.7297 118.54Z" fill="#E9961A"/>
<path d="M39.9222 117.818V129.656C39.9222 130.927 40.8508 131.959 41.995 131.959C43.1391 131.959 44.0677 130.927 44.0677 129.656V117.818C44.0677 116.547 43.1391 115.515 41.995 115.515C40.8508 115.515 39.9222 116.547 39.9222 117.818Z" fill="#E9961A"/>
<path d="M22.878 116.204C21.2189 111.616 13.9064 112.39 15.4447 119.596C11.4217 116.672 7.30654 129.24 15.5945 129.851C10.9877 130.562 12.0633 138.785 16.499 137.273C15.4526 141.924 22.2311 148.203 26.2751 141.672" stroke="#909EB1" stroke-width="3" stroke-linecap="round" stroke-linejoin="round"/>
<path d="M22.7096 124.872C23.5381 124.872 24.2096 124.2 24.2096 123.372C24.2096 122.543 23.5381 121.872 22.7096 121.872V124.872ZM25.1612 131.016L26.3417 131.942C26.6782 131.512 26.7551 130.934 26.5428 130.432C26.3304 129.93 25.8621 129.582 25.3197 129.525L25.1612 131.016ZM26.7956 136.686C27.624 136.686 28.2956 136.014 28.2956 135.186C28.2956 134.357 27.624 133.686 26.7956 133.686V136.686ZM22.7096 121.872C21.2984 121.872 20.199 122.641 19.5398 123.646C18.8948 124.63 18.6305 125.878 18.7674 127.1C18.9064 128.341 19.464 129.61 20.5294 130.618C21.5983 131.63 23.0979 132.305 25.0026 132.508L25.3197 129.525C23.9558 129.38 23.106 128.926 22.5916 128.439C22.0737 127.949 21.8141 127.35 21.7488 126.766C21.6814 126.165 21.8257 125.631 22.0489 125.291C22.2581 124.972 22.4865 124.872 22.7096 124.872V121.872ZM23.9807 130.091C23.5035 130.699 23.1054 131.358 22.8587 132.032C22.6154 132.697 22.4839 133.479 22.6885 134.262C23.1634 136.079 24.9656 136.686 26.7956 136.686V133.686C26.1152 133.686 25.7703 133.574 25.6289 133.5C25.5329 133.449 25.5768 133.449 25.591 133.504C25.5913 133.505 25.5619 133.375 25.6761 133.063C25.7869 132.76 26.0017 132.375 26.3417 131.942L23.9807 130.091Z" fill="#909EB1"/>
<path d="M61.2905 116.204C62.9497 111.616 70.2622 112.39 68.7239 119.596C72.7469 116.672 76.862 129.24 68.5741 129.851C73.1808 130.562 72.1053 138.785 67.6695 137.273C68.716 141.924 61.9375 148.203 57.8934 141.672" stroke="#909EB1" stroke-width="3" stroke-linecap="round" stroke-linejoin="round"/>
<path d="M61.5684 124.872C60.74 124.872 60.0684 124.2 60.0684 123.372C60.0684 122.543 60.74 121.872 61.5684 121.872V124.872ZM59.6072 131.016L58.3364 131.813C58.0653 131.381 58.0326 130.84 58.2496 130.378C58.4667 129.916 58.9037 129.596 59.4096 129.529L59.6072 131.016ZM58.2997 136.686C57.4713 136.686 56.7997 136.014 56.7997 135.186C56.7997 134.357 57.4713 133.686 58.2997 133.686V136.686ZM61.5684 121.872C62.9831 121.872 63.9331 122.826 64.4291 123.772C64.9307 124.729 65.1269 125.916 65.0237 127.067C64.9194 128.231 64.4991 129.473 63.6333 130.497C62.749 131.543 61.4654 132.282 59.8048 132.503L59.4096 129.529C60.364 129.402 60.9599 129.013 61.3422 128.56C61.7431 128.086 61.9765 127.46 62.0357 126.8C62.0959 126.127 61.9652 125.533 61.7722 125.165C61.5736 124.786 61.4613 124.872 61.5684 124.872V121.872ZM60.878 130.219C61.5982 131.368 62.1765 132.832 61.8926 134.19C61.7365 134.937 61.3202 135.618 60.6143 136.081C59.9444 136.521 59.136 136.686 58.2997 136.686V133.686C58.7709 133.686 58.9431 133.59 58.9678 133.574C58.976 133.568 58.9661 133.574 58.955 133.591C58.9451 133.606 58.9498 133.606 58.9561 133.576C58.9717 133.501 58.9816 133.307 58.8826 132.969C58.7865 132.64 58.6072 132.245 58.3364 131.813L60.878 130.219Z" fill="#909EB1"/>
<path fill-rule="evenodd" clip-rule="evenodd" d="M42.2459 86.3281C35.284 86.3281 30.13 80.9072 30.13 73.5127C30.13 66.1509 35.2508 60.6968 42.2459 60.6968C49.2409 60.6968 54.3617 66.1509 54.3617 73.5127C54.3617 80.9072 49.2077 86.3281 42.2459 86.3281ZM34.7806 73.5127C34.7806 69.3296 37.8271 66.1842 42.2784 66.1842C46.7297 66.1842 49.7755 69.3296 49.7755 73.5127C49.7755 77.6953 46.7297 80.8407 42.2784 80.8407C37.8271 80.8407 34.7806 77.6953 34.7806 73.5127ZM49.29 57.4104L50.3291 57.8786C51.1389 58.2431 52.0901 57.9147 52.5037 57.1299C53.6353 54.9834 54.3617 51.9501 54.3617 48.9382C54.3617 42.2457 51.0149 39 47.0995 39C42.0643 39 40.997 43.666 40.1118 47.5357C39.4847 50.2771 38.9491 52.6188 37.1589 52.6188C35.6858 52.6188 34.481 51.3805 34.481 48.1686C34.481 46.5753 34.8366 44.8835 35.5618 43.199C35.931 42.3426 35.5173 41.3499 34.6529 40.9984L33.6064 40.5736C32.7775 40.2372 31.8166 40.6029 31.4543 41.4198C30.5769 43.395 30.13 45.786 30.13 48.1348C30.13 54.7935 33.443 58.0059 37.4266 58.0059C42.5156 58.0059 43.5981 53.3476 44.4968 49.4797C45.1347 46.7343 45.6131 44.3871 47.5002 44.3871C48.94 44.3871 50.0113 45.6919 50.0113 48.9044C50.0113 51.0729 49.4134 53.3202 48.4796 55.1411C48.0462 55.9862 48.4249 57.0206 49.29 57.4104Z" fill="white"/>
<path d="M32 190.006C30.3431 190.006 29 188.661 29 187.003C29 185.344 30.3431 184 32 184C33.6569 184 35 185.344 35 187.003C35 188.661 33.6569 190.006 32 190.006Z" fill="#909EB1"/>
<path d="M23 201.006C21.3431 201.006 20 199.661 20 198.003C20 196.344 21.3431 195 23 195C24.6569 195 26 196.344 26 198.003C26 199.661 24.6569 201.006 23 201.006Z" fill="#909EB1"/>
<path d="M56 177.006C54.3431 177.006 53 175.661 53 174.003C53 172.344 54.3431 171 56 171C57.6569 171 59 172.344 59 174.003C59 175.661 57.6569 177.006 56 177.006Z" fill="#909EB1"/>
<path d="M43 182C41.3431 182 40 180.657 40 179C40 177.343 41.3431 176 43 176C44.6569 176 46 177.343 46 179C46 180.657 44.6569 182 43 182Z" fill="#909EB1"/>
<path d="M14.5 214C12.0147 214 10 211.985 10 209.5C10 207.015 12.0147 205 14.5 205C16.9853 205 19 207.015 19 209.5C19 211.985 16.9853 214 14.5 214Z" fill="#3870DE"/>
<path d="M9 225.006C7.34315 225.006 6 223.661 6 222.003C6 220.344 7.34315 219 9 219C10.6569 219 12 220.344 12 222.003C12 223.661 10.6569 225.006 9 225.006Z" fill="#909EB1"/>
<path d="M69 176.006C67.3431 176.006 66 174.661 66 173.003C66 171.344 67.3431 170 69 170C70.6569 170 72 171.344 72 173.003C72 174.661 70.6569 176.006 69 176.006Z" fill="#909EB1"/>
<path d="M80 182.006C78.3431 182.006 77 180.661 77 179.003C77 177.344 78.3431 176 80 176C81.6569 176 83 177.344 83 179.003C83 180.661 81.6569 182.006 80 182.006Z" fill="#909EB1"/>
<path d="M120.969 244C119.312 244 117.969 242.657 117.969 241C117.969 239.343 119.312 238 120.969 238C122.626 238 123.969 239.343 123.969 241C123.969 242.657 122.626 244 120.969 244Z" fill="#909EB1"/>
<path d="M113.969 259C112.312 259 110.969 257.657 110.969 256C110.969 254.343 112.312 253 113.969 253C115.626 253 116.969 254.343 116.969 256C116.969 257.657 115.626 259 113.969 259Z" fill="#909EB1"/>
<path d="M102.5 268C100.567 268 99 266.433 99 264.5C99 262.567 100.567 261 102.5 261C104.433 261 106 262.567 106 264.5C106 266.433 104.433 268 102.5 268Z" fill="#909EB1"/>
<path d="M52.9691 262C50.76 262 48.9691 260.209 48.9691 258C48.9691 255.791 50.76 254 52.9691 254C55.1783 254 56.9691 255.791 56.9691 258C56.9691 260.209 55.1783 262 52.9691 262Z" fill="#3870DE"/>
<path d="M38.9691 254C36.76 254 34.9691 252.209 34.9691 250C34.9691 247.791 36.76 246 38.9691 246C41.1783 246 42.9691 247.791 42.9691 250C42.9691 252.209 41.1783 254 38.9691 254Z" fill="#3870DE"/>
<path d="M28 243C25.7909 243 24 241.209 24 239C24 236.791 25.7909 235 28 235C30.2091 235 32 236.791 32 239C32 241.209 30.2091 243 28 243Z" fill="#3870DE"/>
<path d="M20.5 229C18.0147 229 16 226.985 16 224.5C16 222.015 18.0147 220 20.5 220C22.9853 220 25 222.015 25 224.5C25 226.985 22.9853 229 20.5 229Z" fill="#3870DE"/>
<path d="M56.7581 255.162L43.4857 234.818L61.8758 245.166C63.3162 245.976 65.1327 245.191 65.5289 243.586L70.4095 223.821L75.2909 244.044C75.7495 245.944 78.1131 246.607 79.4924 245.222L91.7662 232.899L89.3103 247.538C89.0133 249.308 90.6236 250.806 92.3678 250.381L109.405 246.228L96.1506 259.482C94.7701 260.863 95.4339 263.222 97.3317 263.68L116.761 268.37L97.3599 272.05C95.4762 272.407 94.6792 274.664 95.9209 276.125L114.753 298.28L90.519 286.53C89.0669 285.826 87.338 286.662 86.9879 288.238L84.9487 297.414L77.5555 290.373C76.4869 289.355 74.774 289.479 73.8637 290.641L63.1099 304.361L62.3398 282.799C62.2811 281.155 60.6783 280.015 59.1062 280.499L40.0453 286.364L50.9862 272.953C52.0502 271.648 51.5473 269.687 49.9872 269.055L49.4243 270.445L49.9871 269.055L26.0473 259.363L54.6936 259.028C56.6657 259.004 57.8357 256.814 56.7581 255.162ZM119.018 268.915C119.017 268.915 119.017 268.915 119.016 268.914L119.018 268.915ZM116.89 299.316L116.889 299.316L116.89 299.316ZM38.467 286.85C38.4673 286.85 38.4677 286.849 38.4681 286.849L38.467 286.85Z" fill="#FDD60B" stroke="#E9961A" stroke-width="3" stroke-linejoin="round"/>
<path d="M106.608 213.079C104.031 214.943 103.453 218.556 105.318 221.135C107.184 223.714 110.796 224.296 113.372 222.432C115.949 220.569 116.527 216.956 114.662 214.377C112.797 211.798 109.184 211.216 106.608 213.079ZM111.681 220.094C110.393 221.026 108.587 220.735 107.654 219.445C106.721 218.156 107.011 216.349 108.299 215.418C109.587 214.486 111.393 214.777 112.326 216.066C113.259 217.356 112.97 219.162 111.681 220.094Z" fill="#909EB1"/>
<path d="M96.085 198.53C93.5084 200.394 92.93 204.007 94.7953 206.586C96.6607 209.165 100.273 209.747 102.85 207.883C105.426 206.02 106.005 202.407 104.139 199.828C102.274 197.249 98.6616 196.667 96.085 198.53ZM101.158 205.545C99.8701 206.477 98.0639 206.186 97.1312 204.896C96.1986 203.607 96.4878 201.8 97.776 200.868C99.0643 199.937 100.871 200.228 101.803 201.517C102.736 202.807 102.447 204.613 101.158 205.545Z" fill="#909EB1"/>
<path d="M82.2428 188.073C81.9202 188.306 81.7036 188.658 81.6407 189.051C81.5778 189.444 81.6737 189.846 81.9074 190.169L82 190.296C82.0003 190.297 82.0006 190.297 82.0009 190.298C82.0009 190.298 82.0009 190.298 82.0009 190.298C83.0202 191.707 83.8187 193.262 84.3819 194.918C84.5352 195.369 84.8932 195.72 85.3467 195.864C85.5973 195.944 85.8606 195.956 86.1111 195.903L85.6829 196.213C85.2187 196.548 84.9863 197.119 85.0839 197.684C85.2306 198.532 85.3211 199.396 85.3509 200.273L85.3512 200.28C86.0059 217.173 98.8724 229.787 116.43 231.049C116.448 231.05 116.465 231.051 116.482 231.052L119.358 231.263C120.086 231.317 120.746 230.839 120.923 230.131L121.634 227.29C121.634 227.29 121.634 227.289 121.634 227.289C125.935 210.219 117.987 194.048 102.173 188.142L102.164 188.139C101.331 187.834 100.53 187.474 99.7638 187.066C99.2583 186.796 98.6437 186.839 98.1796 187.174L97.7511 187.484C97.8797 187.263 97.9513 187.009 97.9539 186.746C97.9586 186.27 97.7371 185.82 97.3569 185.533C95.9595 184.48 94.734 183.235 93.7145 181.825L93.6203 181.695C93.1348 181.024 92.1971 180.873 91.5258 181.359L82.2428 188.073Z" stroke="#909EB1" stroke-width="3" stroke-linejoin="round"/>
<path d="M116.111 165.815L116.121 165.829C120.181 171.443 120.593 176.545 120.273 179.691C120.212 180.293 119.796 180.799 119.218 180.975C118.639 181.151 118.012 180.963 117.626 180.497C114.954 177.275 111.583 174.569 107.598 172.566C106.927 172.228 106.609 171.446 106.854 170.736L110.031 161.548C110.212 161.022 110.671 160.64 111.221 160.555C111.771 160.471 112.323 160.698 112.654 161.145L116.111 165.815Z" stroke="#909EB1" stroke-width="3" stroke-linejoin="round"/>
<path d="M74.7848 206.711L74.7883 206.727C76.2826 213.492 79.8202 217.192 82.3834 219.045C82.8732 219.399 83.5278 219.425 84.0438 219.11C84.5597 218.795 84.8363 218.201 84.7452 217.604C84.1146 213.465 84.3339 209.148 85.487 204.84C85.6813 204.114 85.3082 203.356 84.6144 203.067L75.6394 199.332C75.1255 199.118 74.5355 199.206 74.1067 199.561C73.6778 199.916 73.4808 200.479 73.5948 201.024L74.7848 206.711Z" stroke="#909EB1" stroke-width="3" stroke-linejoin="round"/>

</g>
<defs>
<clipPath id="clip0">
<rect width="125" height="691" fill="white"/>
</clipPath>
</defs>
</svg>
