<svg width="16" height="12" viewBox="0 0 16 12" fill="none" xmlns="http://www.w3.org/2000/svg">
<path d="M0.496 7.11345L5.496 11.6145C6.112 12.1685 7.061 12.1205 7.615 11.5025C8.169 10.8875 8.119 9.93845 7.503 9.38445L5.41 7.49945L14.5 7.49945C15.329 7.49945 16 6.82845 16 5.99945C16 5.17045 15.329 4.49945 14.5 4.49945L5.408 4.49945L7.504 2.61445C8.12 2.05945 8.17 1.11145 7.616 0.496453C7.319 0.167454 6.91 -0.000546455 6.5 -0.000546455C6.142 -0.000546455 5.783 0.126453 5.497 0.384454L0.497 4.88345C0.181 5.16745 0 5.57345 0 5.99845C0 6.42345 0.181001 6.82945 0.496 7.11345Z" fill="#3870DE"/>
</svg>
