<svg width="32" height="32" viewBox="0 0 32 32" fill="none" xmlns="http://www.w3.org/2000/svg">
<g clip-path="url(#clip0)">
<path d="M28.0009 6V16C28.0009 19.308 25.3089 22 22.0009 22H13.1109L8.71289 25.768C9.12089 25.908 9.54889 26 10.0009 26H19.6309L26.3489 31.76C26.5349 31.918 26.7669 32 27.0009 32C27.1429 32 27.2869 31.97 27.4189 31.908C27.7749 31.746 28.0009 31.39 28.0009 31V26C30.2069 26 32.0009 24.206 32.0009 22V10C32.0009 7.794 30.2069 6 28.0009 6Z" fill="#3870DE"/>
<path d="M22 0H4C1.794 0 0 1.794 0 4V16C0 18.206 1.794 20 4 20V25C4 25.39 4.228 25.746 4.582 25.908C4.716 25.97 4.858 26 5 26C5.234 26 5.466 25.918 5.65 25.76L12.37 20H22C24.206 20 26 18.206 26 16V4C26 1.794 24.206 0 22 0ZM15 12H7C6.448 12 6 11.552 6 11C6 10.448 6.448 10 7 10H15C15.552 10 16 10.448 16 11C16 11.552 15.552 12 15 12ZM19 8H7C6.448 8 6 7.552 6 7C6 6.448 6.448 6 7 6H19C19.552 6 20 6.448 20 7C20 7.552 19.552 8 19 8Z" fill="#3870DE"/>
</g>
<defs>
<clipPath id="clip0">
<rect width="32" height="32" fill="white"/>
</clipPath>
</defs>
</svg>
