<svg width="32" height="32" viewBox="0 0 32 32" fill="none" xmlns="http://www.w3.org/2000/svg">
<path d="M3.08886 14.7471C12.628 10.6815 24.9725 5.7248 26.6764 5.03876C31.1462 3.24313 32.5177 3.58726 31.8339 7.56381C31.3428 10.422 29.9257 19.8847 28.7963 25.7745C28.1261 29.2672 26.6225 29.6812 24.2582 28.1701C23.1213 27.4429 17.3824 23.7664 16.1369 22.9031C14.9999 22.1163 13.4318 21.17 15.3984 19.306C16.0982 18.642 20.6856 14.3985 24.2598 11.0955C24.7281 10.6617 24.1398 9.94916 23.5994 10.297C18.782 13.3919 12.1028 17.6876 11.2527 18.2471C9.96848 19.092 8.73509 19.4795 6.52108 18.8633C4.84823 18.3979 3.2141 17.8427 2.57805 17.6309C0.128744 16.8162 0.710141 15.7611 3.08886 14.7471Z" fill="#33BCFF"/>
</svg>
