<svg width="30" height="32" viewBox="0 0 30 32" fill="none" xmlns="http://www.w3.org/2000/svg">
<g clip-path="url(#clip0)">
<path d="M26.0027 3.13485C28.5497 5.42749 29.9618 10.4964 29.008 18.5253C28.1733 25.609 23.3978 26.8637 21.7948 27.2849C21.6375 27.3262 21.5108 27.3595 21.4214 27.3895C20.9884 27.5333 17.1784 28.5191 12.2175 28.0888C12.0445 28.2954 11.8802 28.4921 11.7238 28.6791C9.19866 31.6999 8.76354 32.2205 7.86532 31.9294C7.03139 31.667 7.08068 30.3615 7.08068 30.3615L7.08734 27.139H7.08068C-0.16759 25.0289 -0.066346 17.2504 0.0189121 13.0981C0.10417 8.94705 0.882151 5.59401 3.09087 3.30936C8.0092 -1.36119 21.893 -0.781699 26.004 3.13351L26.0027 3.13485Z" fill="#AEAEAE"/>
<path d="M14.4433 5.74194C13.9304 5.74194 13.9304 6.54124 14.4433 6.5479C18.4224 6.57854 21.6995 9.35209 21.7355 14.4396C21.7355 14.9765 22.5215 14.9698 22.5148 14.4329H22.5135C22.4708 8.95111 18.8927 5.77258 14.4433 5.74194Z" fill="white"/>
<path d="M19.678 13.5964C19.666 14.1266 20.4507 14.1519 20.4573 13.615C20.5226 10.5924 18.6589 8.10256 15.1567 7.84012C14.6438 7.80282 14.5905 8.60878 15.1021 8.64608C18.1394 8.87654 19.7393 10.9494 19.678 13.5964Z" fill="white"/>
<path d="M18.839 17.0346C18.1809 16.6536 17.5108 16.8908 17.2337 17.2651L16.6542 18.0151C16.3598 18.3961 15.8097 18.3455 15.8097 18.3455C11.7945 17.2837 10.7208 13.0821 10.7208 13.0821C10.7208 13.0821 10.6715 12.5133 11.0392 12.2082L11.7639 11.6087C12.1262 11.321 12.3554 10.6283 11.9864 9.94755C11.0006 8.16645 10.3385 7.55233 10.0014 7.08074C9.64709 6.63713 9.11423 6.53722 8.56005 6.83696H8.54806C7.39574 7.51103 6.13419 8.77258 6.53783 10.0714C7.22656 11.4409 8.49211 15.8064 12.5259 19.1048C14.4215 20.6648 17.4216 22.2634 18.6951 22.6324L18.7071 22.651C19.962 23.0693 21.1822 21.7585 21.8337 20.5715V20.5622C22.1228 19.988 22.0268 19.4445 21.6045 19.0888C20.8559 18.3588 19.7262 17.5528 18.839 17.0346Z" fill="white"/>
<path d="M15.7059 10.8134C16.9861 10.888 17.6069 11.5567 17.6735 12.9302C17.6975 13.4671 18.4768 13.4298 18.4528 12.8929C18.3676 11.0998 17.4324 10.1007 15.7486 10.0074C15.2357 9.9768 15.1877 10.7828 15.7059 10.8134Z" fill="white"/>
</g>
<defs>
<clipPath id="clip0">
<rect width="29.3074" height="32" fill="white"/>
</clipPath>
</defs>
</svg>
