<svg width="32" height="32" viewBox="0 0 32 32" fill="none" xmlns="http://www.w3.org/2000/svg">
<path d="M28.0027 3.13485C30.5497 5.42749 31.9618 10.4964 31.008 18.5253C30.1733 25.609 25.3978 26.8637 23.7948 27.2849C23.6375 27.3262 23.5108 27.3595 23.4214 27.3895C22.9884 27.5333 19.1784 28.5191 14.2175 28.0888C14.0445 28.2954 13.8802 28.4921 13.7238 28.6791C11.1987 31.6999 10.7635 32.2205 9.86532 31.9294C9.03139 31.667 9.08068 30.3615 9.08068 30.3615L9.08734 27.139H9.08068C1.83241 25.0289 1.93365 17.2504 2.01891 13.0981C2.10417 8.94705 2.88215 5.59401 5.09087 3.30936C10.0092 -1.36119 23.893 -0.781699 28.004 3.13351L28.0027 3.13485Z" fill="#8E24AA"/>
<path d="M16.4437 5.74219C15.9309 5.74219 15.9309 6.54148 16.4437 6.54814C20.4229 6.57878 23.7 9.35234 23.736 14.4398C23.736 14.9767 24.522 14.97 24.5153 14.4332H24.514C24.4713 8.95136 20.8932 5.77283 16.4437 5.74219Z" fill="white"/>
<path d="M21.6775 13.5964C21.6655 14.1266 22.4502 14.1519 22.4568 13.615C22.5221 10.5924 20.6584 8.10256 17.1562 7.84012C16.6433 7.80282 16.59 8.60878 17.1016 8.64608C20.1389 8.87654 21.7388 10.9494 21.6775 13.5964Z" fill="white"/>
<path d="M20.8385 17.0344C20.1804 16.6534 19.5103 16.8905 19.2332 17.2648L18.6538 18.0149C18.3593 18.3959 17.8092 18.3452 17.8092 18.3452C13.794 17.2835 12.7203 13.0819 12.7203 13.0819C12.7203 13.0819 12.671 12.513 13.0387 12.208L13.7634 11.6085C14.1257 11.3208 14.3549 10.628 13.9859 9.9473C13.0001 8.16621 12.338 7.55208 12.001 7.0805C11.6466 6.63689 11.1137 6.53698 10.5596 6.83671H10.5476C9.39525 7.51079 8.1337 8.77234 8.53734 10.0712C9.22607 11.4407 10.4916 15.8061 14.5254 19.1046C16.4211 20.6645 19.4211 22.2631 20.6946 22.6321L20.7066 22.6508C21.9615 23.0691 23.1818 21.7582 23.8332 20.5713V20.5619C24.1223 19.9878 24.0264 19.4443 23.6041 19.0886C22.8554 18.3586 21.7257 17.5526 20.8385 17.0344Z" fill="white"/>
<path d="M17.705 10.8136C18.9852 10.8882 19.6059 11.557 19.6726 12.9304C19.6965 13.4673 20.4758 13.43 20.4519 12.8931C20.3666 11.1001 19.4314 10.1009 17.7476 10.0077C17.2347 9.97705 17.1867 10.783 17.705 10.8136Z" fill="white"/>
</svg>
