<svg width="32" height="32" viewBox="0 0 32 32" fill="none" xmlns="http://www.w3.org/2000/svg">
<g clip-path="url(#clip0)">
<path d="M16.06 0C20.32 0 24.32 1.66 27.36 4.59867L27.34 4.65067C37.3027 14.5747 30.2453 31.7267 16.068 31.7267C15.9185 31.7077 15.7148 31.6964 15.4626 31.6825C14.1516 31.6098 11.5331 31.4647 8.44667 29.7973L0 32L2.26133 23.784C-3.844 13.2467 3.83333 0 16.06 0Z" fill="#4CAF50"/>
<path d="M23.3429 19.0761L23.3309 19.1761C22.9295 18.9761 20.9749 18.0201 20.6109 17.8881C19.7935 17.5855 20.0242 17.8401 18.4549 19.6375C18.2215 19.8975 17.9895 19.9175 17.5935 19.7375C17.1935 19.5375 15.9095 19.1175 14.3895 17.7575C13.2055 16.6975 12.4109 15.3975 12.1762 14.9975C11.7855 14.3228 12.6029 14.2268 13.3469 12.8188C13.4802 12.5388 13.4122 12.3188 13.3135 12.1201C13.2135 11.9201 12.4175 9.96014 12.0842 9.17881C11.7642 8.40014 11.4349 8.49881 11.1882 8.49881C10.4202 8.43214 9.85885 8.44281 9.36418 8.95748C7.21218 11.3228 7.75485 13.7628 9.59618 16.3575C13.2149 21.0935 15.1429 21.9655 18.6682 23.1761C19.6202 23.4788 20.4882 23.4361 21.1749 23.3375C21.9402 23.2161 23.5309 22.3761 23.8629 21.4361C24.2029 20.4961 24.2029 19.7161 24.1029 19.5361C24.0042 19.3561 23.7429 19.2561 23.3429 19.0761Z" fill="white"/>
</g>
<defs>
<clipPath id="clip0">
<rect width="32" height="32" fill="white"/>
</clipPath>
</defs>
</svg>
