<svg width="32" height="32" viewBox="0 0 32 32" fill="none" xmlns="http://www.w3.org/2000/svg">
<g clip-path="url(#clip0)">
<path d="M16.06 0C20.32 0 24.32 1.66 27.36 4.59867L27.34 4.65067C37.3027 14.5747 30.2453 31.7267 16.068 31.7267C15.9185 31.7077 15.7148 31.6964 15.4626 31.6825C14.1516 31.6098 11.5331 31.4647 8.44667 29.7973L0 32L2.26133 23.784C-3.844 13.2467 3.83333 0 16.06 0Z" fill="#64D868"/>
<path d="M23.3433 19.0759L23.3313 19.1759C22.93 18.9759 20.9753 18.0199 20.6113 17.8879C19.794 17.5852 20.0247 17.8399 18.4553 19.6372C18.222 19.8972 17.99 19.9172 17.594 19.7372C17.194 19.5372 15.91 19.1172 14.39 17.7572C13.206 16.6972 12.4113 15.3972 12.1767 14.9972C11.786 14.3226 12.6033 14.2266 13.3473 12.8186C13.4807 12.5386 13.4127 12.3186 13.314 12.1199C13.214 11.9199 12.418 9.9599 12.0847 9.17857C11.7647 8.3999 11.4353 8.49857 11.1887 8.49857C10.4207 8.4319 9.85934 8.44257 9.36467 8.95723C7.21267 11.3226 7.75534 13.7626 9.59667 16.3572C13.2153 21.0932 15.1433 21.9652 18.6687 23.1759C19.6207 23.4786 20.4887 23.4359 21.1753 23.3372C21.9407 23.2159 23.5313 22.3759 23.8633 21.4359C24.2033 20.4959 24.2033 19.7159 24.1033 19.5359C24.0047 19.3559 23.7433 19.2559 23.3433 19.0759Z" fill="white"/>
</g>
<defs>
<clipPath id="clip0">
<rect width="32" height="32" fill="white"/>
</clipPath>
</defs>
</svg>
