<?xml version="1.0" encoding="UTF-8" standalone="no"?>
<svg width="20px" height="20px" viewBox="0 0 20 20" version="1.1" xmlns="http://www.w3.org/2000/svg" xmlns:xlink="http://www.w3.org/1999/xlink">
    <!-- Generator: Sketch 48.1 (47250) - http://www.bohemiancoding.com/sketch -->
    <title>linked-in-logo</title>
    <desc>Created with Sketch.</desc>
    <defs></defs>
    <g id="футер" stroke="none" stroke-width="1" fill="none" fill-rule="evenodd" transform="translate(-1110.000000, -55.000000)">
        <g id="4столб" transform="translate(1078.000000, 55.000000)" fill="#AAB4C2" fill-rule="nonzero">
            <g id="icons">
                <g id="linked-in-logo" transform="translate(32.000000, 0.000000)">
                    <path d="M20,12.263546 L20,20 L15.7116477,20 L15.7116477,12.7780927 C15.7116477,10.9623621 15.0933255,9.72832546 13.5416436,9.72832546 C12.3549821,9.72832546 11.6549727,10.5638128 11.3424864,11.3678714 C11.2299729,11.657427 11.1958006,12.0629362 11.1958006,12.4632365 L11.1958006,19.9990808 L6.91167275,19.9990808 C6.91167275,19.9990808 6.96918428,7.77217246 6.91167275,6.50587538 L11.196679,6.50587538 L11.196679,8.41838711 C11.1908651,8.43410147 11.1783589,8.4471457 11.1725032,8.46461096 L11.196679,8.46461096 L11.196679,8.41838711 C11.7691592,7.49920662 12.7833279,6.18926828 15.0608263,6.18926828 C17.8875075,6.18931205 20,8.11753814 20,12.263546 Z M2.42581536,0 C0.960003346,0 0,1.00641925 0,2.33377908 C0,3.62537672 0.931686761,4.66580726 2.37081342,4.66580726 L2.39666224,4.66580726 C3.89497349,4.66580726 4.82331413,3.62537672 4.82331413,2.33377908 C4.79416101,1.00641925 3.89501532,0 2.42581536,0 Z M0.255853105,19.9999562 L4.54169586,19.9999562 L4.54169586,6.5050437 L0.255853105,6.5050437 L0.255853105,19.9999562 Z" id="LinkedIn_3_"></path>
                </g>
            </g>
        </g>
    </g>
</svg>