<?xml version="1.0" encoding="UTF-8" standalone="no"?>
<svg width="159px" height="25px" viewBox="0 0 159 25" version="1.1" xmlns="http://www.w3.org/2000/svg" xmlns:xlink="http://www.w3.org/1999/xlink">
    <!-- Generator: Sketch 48.1 (47250) - http://www.bohemiancoding.com/sketch -->
    <title>logo</title>
    <desc>Created with Sketch.</desc>
    <defs></defs>
    <g id="футер" stroke="none" stroke-width="1" fill="none" fill-rule="evenodd" transform="translate(-65.000000, -33.000000)">
        <g id="logo" transform="translate(65.000000, 33.000000)" fill-rule="nonzero">
            <g id="Logo">
                <g id="RED" transform="translate(5.062500, 0.000000)" fill="#F05244">
                    <g id="RED-2">
                        <path d="M11.6015625,19.2583333 C10.8675,19.35 10.108125,19.4083333 9.3403125,19.4333333 C10.2049995,18.5595745 10.9925489,17.6144734 11.694375,16.6083333 L11.8125,16.6083333 C12.436875,16.6083333 13.0865625,16.6083333 13.7278125,16.55 C13.1258489,17.4814135 12.469423,18.3773777 11.761875,19.2333333 L11.6015625,19.2583333 Z M12.8503125,14.8166667 C12.5128125,15.4 12.15,15.9583333 11.77875,16.4833333 C12.45375,16.4833333 13.1203125,16.4833333 13.77,16.4166667 C14.000625,16.0611111 14.225625,15.6944444 14.445,15.3166667 L14.8415625,14.6166667 C14.20875,14.7166667 13.5,14.775 12.8503125,14.8166667 Z M2.025,12.55 L2.278125,12.7 C2.3625,12.4833333 2.4553125,12.2666667 2.5565625,12.05 L2.5565625,11.9916667 C2.66625,11.7416667 2.784375,11.4916667 2.9025,11.2416667 C3.020625,11 3.1471875,10.7583333 3.27375,10.5166667 L3.3496875,10.3666667 C3.47625,10.125 3.61125,9.88333333 3.7546875,9.65 L4.033125,9.175 L4.1259375,9.025 L4.32,8.71666667 L4.4296875,8.55 L4.6153125,8.26666667 L4.7334375,8.1 L4.9275,7.81666667 L5.0625,7.65833333 L5.3071875,7.33333333 L5.3746875,7.24166667 L5.686875,6.84166667 L5.788125,6.71666667 L6.0075,6.45 L6.1340625,6.3 L6.3365625,6.06666667 L6.463125,5.91666667 L6.6571875,5.69166667 L6.78375,5.55 L7.003125,5.325 L7.1128125,5.20833333 L7.4334375,4.89166667 L7.52625,4.8 L7.7625,4.575 L7.8890625,4.45833333 L8.0915625,4.28333333 L8.235,4.16666667 L8.4375,4 L8.5725,3.88333333 L8.775,3.725 L8.9015625,3.625 L9.1715625,3.425 L9.28125,3.33333333 L9.5428125,3.15 L9.669375,3.06666667 L9.8634375,2.94166667 L9.9984375,2.85833333 L10.1840625,2.75 L10.3190625,2.675 L10.513125,2.575 L10.6396875,2.50833333 L10.8675,2.40833333 L10.951875,2.40833333 L11.2471875,2.29166667 L11.3484375,2.29166667 L11.5509375,2.225 L11.6690625,2.225 L11.8125,2.10833333 L11.930625,2.10833333 L12.1078125,2.10833333 L12.2175,2.10833333 L12.42,2.10833333 L12.7659375,2.10833333 L13.095,2.10833333 L13.1878125,2.10833333 L13.4071875,2.10833333 L13.516875,2.10833333 L13.7278125,2.175 L13.820625,2.175 L14.0990625,2.30833333 C14.3340424,2.44275958 14.5449924,2.614504 14.7234375,2.81666667 C15.2438459,3.46646099 15.5527244,4.25672505 15.609375,5.08333333 C15.609375,5.2 15.609375,5.32222222 15.609375,5.45 C15.6648942,6.13300333 15.6507607,6.81978885 15.5671875,7.5 C15.5671875,7.64444444 15.5446875,7.79166667 15.4996875,7.94166667 C15.1918755,9.61607002 14.6643026,11.2436813 13.9303125,12.7833333 L13.685625,13.2916667 C13.455,13.7638889 13.201875,14.2361111 12.92625,14.7083333 C13.5759375,14.7083333 14.2171875,14.6083333 14.8415625,14.525 L14.934375,14.525 C15.7146299,13.0759219 16.3640188,11.561727 16.875,10 L16.875,9.95833333 L17.026875,9.48333333 L17.026875,9.39166667 L17.1534375,8.95833333 L17.1534375,8.83333333 L17.2546875,8.43333333 L17.2546875,8.28333333 L17.3390625,7.90833333 L17.3390625,7.74166667 L17.4065625,7.39166667 L17.4065625,7.20833333 L17.465625,6.875 L17.71875,6.66666667 C17.71875,6.55833333 17.71875,6.45833333 17.7609375,6.35 L17.7609375,6.15833333 C17.7609375,6.05833333 17.7609375,5.95833333 17.7609375,5.85833333 L17.7609375,5.65833333 C17.7609375,5.56666667 17.7609375,5.46666667 17.7609375,5.375 C17.7609375,5.28333333 17.7609375,5.24166667 17.7609375,5.175 C17.7609375,5.10833333 17.7609375,5 17.7609375,4.90833333 C17.7609375,4.81666667 17.7609375,4.775 17.7609375,4.70833333 C17.7609375,4.64166667 17.7609375,4.54166667 17.7609375,4.45833333 C17.7609375,4.375 17.7609375,4.325 17.7609375,4.25833333 C17.7609375,4.19166667 17.7609375,4.1 17.7609375,4.025 C17.7609375,3.95 17.7609375,3.89166667 17.7609375,3.825 C17.7609375,3.75833333 17.7609375,3.675 17.7609375,3.6 L17.7609375,3.40833333 L17.7609375,3.2 L17.7609375,3.00833333 L17.71875,2.81666667 L17.668125,2.63333333 L17.5415625,2.5 L17.4825,2.325 L17.4234375,2.15833333 L17.3475,1.99166667 L17.28,1.84166667 L17.195625,1.66666667 L17.1196875,1.53333333 L17.0184375,1.38333333 L16.9340625,1.25833333 L16.8159375,1.11666667 L16.7315625,1.00833333 L16.5965625,0.833333333 L16.5121875,0.758333333 L16.351875,0.625 L16.2675,0.566666667 L16.03125,0.391666667 C15.9251304,0.331943061 15.8152138,0.279055076 15.7021875,0.233333333 L15.5925,0.233333333 L15.3225,0.116666667 L15.1875,0.0833333333 L14.934375,0 L14.8246875,0 L14.4365625,0 L14.0990625,0 L13.921875,0 L13.6603125,0 L13.5,0.1 L13.246875,0.158333333 L13.0865625,0.2 L12.825,0.283333333 L12.65625,0.333333333 L12.3778125,0.441666667 L12.25125,0.5 L11.88,0.666666667 L11.8125,0.7 L11.3653125,0.933333333 L11.255625,0.991666667 L10.918125,1.19166667 L10.76625,1.28333333 L10.4625,1.48333333 L10.3021875,1.59166667 L9.9984375,1.80833333 L9.838125,1.925 L9.5259375,2.16666667 L9.3825,2.28333333 L9.01125,2.6 L8.926875,2.675 L8.4375,3.1 L7.9903125,3.53333333 L7.8721875,3.65 L7.5346875,4 L7.408125,4.16666667 L7.0959375,4.50833333 L6.9271875,4.7 C5.82473648,5.98462987 4.82604638,7.35271758 3.9403125,8.79166667 L3.695625,9.19166667 C3.54375,9.45 3.4003125,9.71666667 3.256875,9.975 L3.155625,10.1583333 C3.020625,10.4083333 2.8940625,10.65 2.7759375,10.8916667 C2.6353125,11.175 2.5003125,11.4527778 2.3709375,11.725 C2.26125,11.975 2.1515625,12.2166667 2.041875,12.4666667 L2.025,12.55 Z M0.97875,18.3333333 L0.421875,18.1083333 C0.342880104,18.7022821 0.306227392,19.3009778 0.3121875,19.9 L1.1559375,20.175 C1.01374426,19.5717007 0.954150127,18.9522861 0.97875,18.3333333 Z M9.9309375,21.1666667 C10.525231,20.5936049 11.0885131,19.989989 11.6184375,19.3583333 C10.850625,19.4583333 10.040625,19.5166667 9.21375,19.5416667 C8.61782707,20.1317787 7.97135685,20.669894 7.2815625,21.15 C7.779375,21.15 8.2940625,21.15 8.80875,21.15 L9.9309375,21.1666667 Z M8.80875,21.3166667 C8.3278125,21.3166667 7.83,21.3166667 7.3153125,21.3166667 L7.1128125,21.3166667 C5.36625,22.4666667 3.7378125,22.8416667 2.5396875,22.15 C1.88095397,21.741543 1.40892155,21.0960286 1.2234375,20.35 L1.1475,20.35 L1.08,20.35 L0.4303125,20.15 L0.3121875,20.1083333 C0.37125,22.0416667 0.9703125,23.5 2.1515625,24.175 C4.033125,25.25 6.9440625,24.0583333 9.7875,21.3666667 L8.80875,21.3166667 Z M2.2359375,12.825 L1.9659375,12.6583333 C1.7240625,13.2138889 1.5075,13.7694444 1.31625,14.325 L1.6284375,14.4833333 C1.7971875,13.9666667 1.9996875,13.4 2.2359375,12.825 Z M0.97875,18.2166667 C1.02814888,17.00386 1.23515696,15.8023519 1.5946875,14.6416667 L1.2740625,14.4833333 C0.886071524,15.6251994 0.603666308,16.7994473 0.4303125,17.9916667 L0.97875,18.2166667 Z" id="Shape"></path>
                    </g>
                </g>
                <g id="BLUE1" transform="translate(0.000000, 8.333333)" fill="#3866B0">
                    <g id="BLUE1-2">
                        <path d="M8.994375,1.325 L9.21375,0.958333333 C10.7514803,0.718285395 12.3059937,0.598468991 13.8628125,0.6 C15.9422031,0.593328788 18.0160956,0.811291322 20.0475,1.25 C19.996875,1.42222222 19.9434375,1.59722222 19.8871875,1.775 C17.8120966,1.1980041 15.6640573,0.917379718 13.5084375,0.941666667 C11.9949096,0.92939123 10.4835671,1.05773415 8.994375,1.325 Z M5.1890625,2.5 L5.146875,2.40833333 C5.146875,2.33333333 5.0878125,2.26666667 5.0625,2.19166667 L5.0625,2.11666667 L5.0625,2.05 C4.41300352,2.2824638 3.78135949,2.56096646 3.1725,2.88333333 L3.1725,2.925 L3.223125,3.06666667 L3.2821875,3.21666667 L3.3496875,3.36666667 L3.4171875,3.5 L3.4171875,3.56666667 C3.96574768,3.14271354 4.56337566,2.78464727 5.1975,2.5 L5.1890625,2.5 Z M0.3375,8.09166667 L0.43875,8.275 L0.4978125,8.36666667 L0.624375,8.55833333 L0.6834375,8.63333333 C0.7678125,8.74444444 0.860625,8.85555556 0.961875,8.96666667 L1.0546875,9.075 L1.215,9.23333333 L1.3415625,9.35833333 L1.501875,9.5 L1.7296875,9.68333333 L1.92375,9.83333333 L2.16,10 L2.311875,10.1 L2.581875,10.275 L2.7084375,10.35 L3.1303125,10.5916667 L3.1809375,10.5916667 L3.6028125,10.8083333 L3.7040625,10.8583333 L4.1596875,11.0666667 C4.5225,11.225 4.89375,11.3666667 5.2903125,11.5 L6.1340625,11.775 L6.17625,11.775 L6.800625,11.9416667 C7.250625,12.0583333 7.7175,12.1638889 8.20125,12.2583333 L8.4375,12.2583333 C8.92125,12.3527778 9.41625,12.4333333 9.9225,12.5 L10.681875,12.5916667 C11.205,12.6472222 11.739375,12.6888889 12.285,12.7166667 C12.7828125,12.7166667 13.2975,12.7166667 13.8121875,12.7166667 L14.934375,12.7166667 L15.55875,12.7166667 C16.928217,12.6438058 18.2903622,12.4711135 19.6340625,12.2 L19.71,12.2 L20.1234375,12.1083333 L20.28375,12.1083333 L20.638125,12.025 L20.8490625,11.975 L21.16125,11.8916667 L21.3975,11.825 L21.6759375,11.7416667 L21.9290625,11.6583333 L22.1821875,11.575 L22.460625,11.4833333 L22.68,11.4083333 L22.98375,11.2916667 L23.1525,11.225 L23.5575,11.05 C23.58779,11.0369489 23.6075772,11.0076344 23.608125,10.975 L23.608125,8.475 L23.25375,8.74166667 L23.1440625,8.81666667 L22.8571875,9 L22.78125,9.16666667 L22.359375,9.40833333 L21.90375,9.63333333 L21.7603125,9.7 L21.3975,9.85833333 L21.245625,9.91666667 L20.7225,10.1166667 L20.1825,10.3 L20.01375,10.35 L19.591875,10.475 L19.4146875,10.525 L18.815625,10.675 L18.208125,10.8083333 L18.0140625,10.8083333 L17.5415625,10.8916667 L17.3390625,10.8916667 L16.6725,10.9833333 C15.6229776,11.1132431 14.5661676,11.1772606 13.5084375,11.175 L12.52125,11.175 L12.2175,11.175 L11.5509375,11.175 L11.2134375,11.175 L10.5975,11.1083333 L10.2853125,11.1083333 L9.635625,11.0166667 L9.3825,11.0166667 L8.53875,10.8583333 L7.695,10.65 L7.610625,10.65 L6.901875,10.45 L6.75,10.2583333 L6.1678125,10.0583333 C5.8865625,9.95277778 5.6053125,9.84166667 5.3240625,9.725 L5.0034375,9.575 L4.674375,9.40833333 L4.455,9.28333333 L4.21875,9.16666667 L4.0246875,9.05 L3.67875,8.81666667 L3.526875,8.7 L3.3075,8.525 L3.1725,8.40833333 L3.054375,8.3 L2.885625,8.14166667 C2.31512662,7.60825666 1.97891581,6.87533131 1.9490625,6.1 C2.01440245,5.11524244 2.52587017,4.21208958 3.34125,3.64166667 L3.290625,3.55 L3.223125,3.41666667 L3.155625,3.26666667 L3.0965625,3.11666667 L3.054375,2.99166667 C1.1221875,3.975 0,5.3 0,6.74166667 C0.00358019264,7.21160153 0.11920324,7.67409372 0.3375,8.09166667 Z M21.8025,2.5 C22.4507421,2.77937875 23.0626313,3.13470533 23.625,3.55833333 L23.625,2.43333333 C23.6340433,2.41786328 23.6340433,2.39880339 23.625,2.38333333 C23.1040781,2.15676669 22.5718284,1.95650812 22.0303125,1.78333333 C21.9684375,2.01666667 21.8925,2.25555556 21.8025,2.5 Z M5.1553125,2.05 L5.1553125,2.11666667 C5.1553125,2.18333333 5.2059375,2.25 5.2396875,2.325 L5.2396875,2.38333333 C6.18974479,1.9687161 7.17891376,1.64771594 8.1928125,1.425 L8.4121875,1.03333333 C7.26463134,1.23995584 6.13593167,1.53815551 5.0371875,1.925 L5.1553125,2.05 Z" id="Shape"></path>
                    </g>
                </g>
                <g id="BLUE2" transform="translate(2.531250, 4.166667)" fill="#3866B0">
                    <g id="BLUE2-2">
                        <path d="M0.455625,6.18333333 C0.455625,3.56666667 4.15125,1.34166667 9.34875,0.45 L9.0196875,0.833333333 C5.90625,1.49166667 3.560625,2.75 2.716875,4.26666667 C2.61225416,4.45672268 2.53015041,4.65804989 2.4721875,4.86666667 C2.44665635,4.96264497 2.42693396,5.06003953 2.413125,5.15833333 L2.413125,5.20833333 C2.4070104,5.30546177 2.4070104,5.40287156 2.413125,5.5 C2.40897264,5.58050336 2.40897264,5.66116331 2.413125,5.74166667 L2.413125,5.83333333 C2.413125,5.88888889 2.413125,5.94444444 2.413125,6 L2.413125,6.08333333 L2.46375,6.25 L2.46375,6.325 C2.46375,6.4 2.514375,6.46666667 2.548125,6.54166667 L2.5903125,6.63333333 L2.6578125,6.75833333 L2.7253125,6.86666667 L2.7928125,6.96666667 L2.8771875,7.08333333 L2.9278125,7.15833333 L3.155625,7.43333333 L3.2990625,7.58333333 L3.34125,7.625 L3.5015625,7.775 C3.76491553,8.01593729 4.04703417,8.23605949 4.3453125,8.43333333 L4.6153125,8.6 L5.011875,8.81666667 L5.0540625,8.81666667 L5.43375,9.00833333 L5.484375,9.00833333 L5.90625,9.19166667 C6.455119,9.43900443 7.01865052,9.65328556 7.59375,9.83333333 L7.6696875,9.83333333 L8.116875,9.95833333 L8.2434375,9.95833333 L8.6653125,10.0583333 L8.80875,10.0583333 L9.2559375,10.15 L9.3740625,10.15 C9.7621875,10.2222222 10.15875,10.2861111 10.56375,10.3416667 L10.6903125,10.3416667 L11.1628125,10.4 L11.37375,10.4 L11.7871875,10.4 L12.015,10.4 L12.42,10.4 L12.65625,10.4 L13.095,10.4 L14.6728125,10.4 L15.35625,10.4 C16.048125,10.4 16.7146875,10.3 17.364375,10.2083333 C17.73,10.1583333 18.0871875,10.1 18.4359375,10.0333333 L18.9,9.94166667 L19.0265625,9.94166667 C19.4709375,9.84166667 19.8984375,9.73055556 20.3090625,9.60833333 L20.48625,9.55833333 L20.8153125,9.45 L21.043125,9.375 L21.3384375,9.26666667 L21.785625,9.09166667 L22.005,9 L22.2834375,8.875 L22.4775,8.78333333 L22.798125,8.61666667 L22.91625,8.55 L23.32125,8.30833333 L23.439375,8.23333333 L23.72625,8.04166667 L23.8359375,7.95833333 L24.181875,7.68333333 L24.181875,10.1833333 L23.7684375,10.3583333 L23.6165625,10.4166667 L23.304375,10.5416667 L23.11875,10.6083333 L22.8234375,10.7166667 L22.6209375,10.7833333 L22.3171875,10.8833333 L22.1146875,10.95 L21.70125,11.0666667 L21.3721875,11.1583333 L21.1021875,11.225 L20.7984375,11.3 L20.5621875,11.3583333 L20.233125,11.4333333 L20.0221875,11.475 L19.659375,11.5416667 L19.5075,11.5416667 C19.04625,11.625 18.5709375,11.6972222 18.0815625,11.7583333 L17.98875,11.7583333 L17.5246875,11.8083333 L17.3896875,11.8083333 L16.925625,11.85 L16.7990625,11.85 L16.30125,11.85 C15.6515625,11.85 14.985,11.9166667 14.31,11.9166667 L13.381875,11.9166667 L12.8503125,11.9166667 L12.6225,11.9166667 L12.1415625,11.9166667 L11.896875,11.9166667 L11.4328125,11.9166667 L11.1965625,11.9166667 L10.749375,11.8666667 L10.5215625,11.8666667 L10.074375,11.8083333 L9.855,11.8083333 L9.4078125,11.7416667 L9.2053125,11.7416667 L8.758125,11.6583333 L8.5725,11.6583333 L8.116875,11.6666667 L7.948125,11.6666667 L7.4925,11.5583333 L7.340625,11.5583333 L6.885,11.4333333 L6.7584375,11.4333333 L6.3028125,11.2916667 L6.2015625,11.2916667 L5.7375,11.1333333 L5.653125,11.1333333 L5.1975,10.8333333 L5.1384375,10.8333333 L4.6659375,10.6416667 C3.42539891,10.1455931 2.31059659,9.38596136 1.400625,8.41666667 L1.35,8.33333333 L1.2065625,8.15833333 L1.130625,8.05833333 L1.0209375,7.89166667 L0.945,7.775 L0.84375,7.64166667 L0.7846875,7.5 L0.7171875,7.35 L0.658125,7.2 L0.6075,7.05833333 L0.556875,6.89166667 L0.556875,6.76666667 C0.556875,6.7 0.556875,6.64166667 0.556875,6.575 C0.556875,6.50833333 0.556875,6.50833333 0.556875,6.46666667 C0.518030072,6.37407433 0.484231712,6.27949455 0.455625,6.18333333 Z M17.98875,0.683333333 C17.98875,0.533333333 17.938125,0.391666667 17.904375,0.258333333 C15.488844,-0.0309071746 13.046781,-0.0309071746 10.63125,0.258333333 L10.2346875,0.625 C12.8033753,0.242225252 15.4169101,0.259096291 17.9803125,0.675 L17.98875,0.683333333 Z M20.52,1.25833333 C21.8495394,1.62304932 23.0956214,2.23698385 24.1903125,3.06666667 C24.199692,3.08063226 24.2155318,3.08902813 24.2325,3.08902813 C24.2494682,3.08902813 24.265308,3.08063226 24.2746875,3.06666667 L24.2746875,1.93333333 C24.2837308,1.91786328 24.2837308,1.89880339 24.2746875,1.88333333 C23.0629535,1.35746052 21.7989036,0.958070068 20.503125,0.691666667 C20.503125,0.875 20.503125,1.06666667 20.48625,1.25833333 L20.52,1.25833333 Z" id="Shape"></path>
                    </g>
                </g>
            </g>
            <g id="Type" transform="translate(32.000000, 8.000000)">
                <path d="M22.06625,6.075 C21.6939363,6.07090037 21.3266724,5.98855387 20.9884211,5.83333333 C20.3317773,5.55190111 19.8084228,5.02992029 19.52625,4.375 C19.235636,3.68764046 19.235636,2.91235954 19.52625,2.225 C19.822178,1.5951916 20.3438089,1.09871321 20.9884211,0.833333333 C21.3285467,0.686711147 21.6957334,0.61289875 22.06625,0.616666667 L34.5991447,0.616666667 C35.1482684,0.616666667 35.5934211,1.06065096 35.5934211,1.60833333 C35.5934211,2.15601571 35.1482684,2.6 34.5991447,2.6 L22.0244737,2.6 C21.8202876,2.60258565 21.6241198,2.67966105 21.4730263,2.81666667 C21.3175462,2.95662553 21.2319338,3.15789636 21.2390789,3.36666667 C21.2378953,3.56944968 21.3229019,3.76324048 21.4730263,3.9 C21.6190395,4.04589023 21.8178049,4.12698992 22.0244737,4.125 L33.4210526,4.125 C33.7941716,4.12225823 34.1638766,4.19600516 34.5072368,4.34166667 C35.172094,4.61810337 35.700599,5.14522125 35.9777632,5.80833333 C36.123808,6.15079235 36.197749,6.51952699 36.195,6.89166667 C36.1985304,7.26118734 36.124534,7.62735975 35.9777632,7.96666667 C35.8329555,8.27839048 35.6318652,8.56087294 35.3845395,8.8 C35.1336422,9.04830273 34.8353121,9.24383366 34.5072368,9.375 C34.1622967,9.51454544 33.7932828,9.58532339 33.4210526,9.58333333 L20.8881579,9.58333333 C20.3390342,9.58333333 19.8938816,9.13934904 19.8938816,8.59166667 C19.8938816,8.04398429 20.3390342,7.6 20.8881579,7.6 L33.5046053,7.6 C33.7046512,7.60159604 33.8970891,7.52362332 34.0393421,7.38333333 C34.185961,7.24828414 34.2679991,7.05736432 34.2649342,6.85833333 C34.2701911,6.64915062 34.1885527,6.44709802 34.0393421,6.3 C33.8995712,6.15504074 33.7062439,6.07369483 33.5046053,6.075 L22.06625,6.075 Z M17.4875658,5.08333333 C17.4856585,5.62144624 17.3982359,6.15585589 17.2285526,6.66666667 C17.0612716,7.18610734 16.8070208,7.67355125 16.4765789,8.10833333 C16.1489445,8.53634615 15.7401403,8.89594237 15.2734211,9.16666667 C14.7884562,9.44464073 14.2368069,9.58579188 13.6775658,9.575 L4.24447368,9.575 C3.70770577,9.55650936 3.18562338,9.39540506 2.73217105,9.10833333 C2.29333829,8.82875162 1.91077974,8.46980781 1.60421053,8.05 C1.29568494,7.62920946 1.05597873,7.16230603 0.894013158,6.66666667 C0.556289483,5.65223024 0.556289483,4.55610309 0.894013158,3.54166667 C1.06099513,3.02210163 1.31527126,2.53460927 1.64598684,2.1 C1.97279968,1.66898363 2.38165847,1.30650747 2.84914474,1.03333333 C3.33410958,0.755359266 3.88575889,0.614208117 4.445,0.625 L13.8864474,0.625 C14.4232153,0.643490642 14.9452977,0.804594936 15.39875,1.09166667 C15.83833,1.37371406 16.2209381,1.73553116 16.5267105,2.15833333 C16.8394558,2.59171832 17.0793294,3.07302109 17.2369079,3.58333333 C17.4000439,4.08403045 17.4845949,4.60687093 17.4875658,5.13333333 L17.4875658,5.08333333 Z M13.2430921,7.58333333 C13.6461422,7.59925985 14.0464033,7.51022727 14.4044737,7.325 C14.6850596,7.17221659 14.9277409,6.95864801 15.1146711,6.7 C15.2877871,6.44920826 15.4072437,6.16553432 15.4655921,5.86666667 C15.5953801,5.31865159 15.5953801,4.74801508 15.4655921,4.2 C15.4072437,3.90113234 15.2877871,3.61745841 15.1146711,3.36666667 C14.9289026,3.1047971 14.686101,2.88827371 14.4044737,2.73333333 C14.0464033,2.54810607 13.6461422,2.45907349 13.2430921,2.475 L4.88782895,2.475 C4.48194127,2.45721816 4.07851173,2.54631453 3.71809211,2.73333333 C3.43999216,2.88998105 3.20026725,3.10630574 3.01625,3.36666667 C2.84292229,3.61734297 2.72344653,3.90106245 2.66532895,4.2 C2.53554093,4.74801508 2.53554093,5.31865159 2.66532895,5.86666667 C2.72321388,6.16567457 2.84270905,6.44944013 3.01625,6.7 C3.20140685,6.95715105 3.44101702,7.17052718 3.71809211,7.325 C4.07851173,7.51201881 4.48194127,7.60111517 4.88782895,7.58333333 L13.2430921,7.58333333 Z" id="Shape" fill="#F05244"></path>
                <path d="M40.7736842,6.075 C40.4013705,6.07090037 40.0341066,5.98855387 39.6958553,5.83333333 C39.0392115,5.55190111 38.515857,5.02992029 38.2336842,4.375 C37.9454137,3.69005968 37.9454137,2.91827366 38.2336842,2.23333333 C38.5279251,1.60038649 39.0497663,1.10073374 39.6958553,0.833333333 C40.0359809,0.686711147 40.4031677,0.61289875 40.7736842,0.616666667 L53.3065789,0.616666667 C53.8557026,0.616666667 54.3008553,1.06065096 54.3008553,1.60833333 C54.3008553,2.15601571 53.8557026,2.6 53.3065789,2.6 L40.7319079,2.6 C40.5267751,2.59761998 40.3288506,2.67538561 40.1804605,2.81666667 C40.0249804,2.95662553 39.939368,3.15789636 39.9465132,3.36666667 C39.9453296,3.56944968 40.0303361,3.76324048 40.1804605,3.9 C40.3264737,4.04589023 40.5252391,4.12698992 40.7319079,4.125 L52.1702632,4.125 C52.5433821,4.12225823 52.9130871,4.19600516 53.2564474,4.34166667 C53.9213045,4.61810337 54.4498095,5.14522125 54.7269737,5.80833333 C54.8730185,6.15079235 54.9469595,6.51952699 54.9442105,6.89166667 C54.9479884,7.26121073 54.8739817,7.62743378 54.7269737,7.96666667 C54.5823319,8.27848639 54.3812211,8.56099746 54.13375,8.8 C53.8829968,9.04847993 53.5846285,9.24403593 53.2564474,9.375 C52.9115072,9.51454544 52.5424933,9.58532339 52.1702632,9.58333333 L39.6373684,9.58333333 C39.2821477,9.58333335 38.9539102,9.39432276 38.7762998,9.08750002 C38.5986895,8.78067727 38.5986895,8.40265606 38.7762998,8.09583332 C38.9539102,7.78901057 39.2821477,7.59999998 39.6373684,7.6 L52.2538158,7.6 C52.4538617,7.60159604 52.6462996,7.52362332 52.7885526,7.38333333 C52.9351715,7.24828414 53.0172096,7.05736432 53.0141447,6.85833333 C53.0194016,6.64915062 52.9377632,6.44709802 52.7885526,6.3 C52.6487817,6.15504074 52.4554544,6.07369483 52.2538158,6.075 L40.7736842,6.075 Z M63.7339474,8.75833333 L63.7339474,6.875 C64.1042171,6.87083656 64.4722883,6.8175923 64.8284868,6.71666667 C65.2433969,6.59996542 65.6440986,6.43786961 66.0232895,6.23333333 C66.4921235,5.98979803 66.9418066,5.71122482 67.3684868,5.4 C67.8419518,5.04444444 68.3655482,4.61944444 68.9392763,4.125 C69.024212,4.04917274 69.0949417,3.9588764 69.1481579,3.85833333 C69.2033325,3.75887564 69.2320942,3.64699937 69.2317105,3.53333333 C69.2317105,3.12372214 68.8987812,2.79166667 68.4880921,2.79166667 C68.2926073,2.80018612 68.1063208,2.87686447 67.9617105,3.00833333 C67.2877193,3.59722222 66.7307018,4.05277778 66.2906579,4.375 C65.9154507,4.65462136 65.512253,4.894788 65.0875,5.09166667 C64.7723455,5.23411406 64.4369237,5.32688605 64.0932237,5.36666667 C63.7812939,5.4 63.4248026,5.41666667 63.02375,5.41666667 C62.6608769,5.41760558 62.2982396,5.39813021 61.9375658,5.35833333 C61.585553,5.31495096 61.2419942,5.21945637 60.9182237,5.075 C60.4902057,4.8793353 60.0841137,4.63911294 59.7067105,4.35833333 C59.2555263,4.03055556 58.6985088,3.58055556 58.0356579,3.00833333 C57.9571342,2.94802366 57.8732302,2.89502391 57.785,2.85 C57.698919,2.80935157 57.60449,2.78937374 57.5092763,2.79166667 C57.0985872,2.79166667 56.7656579,3.12372214 56.7656579,3.53333333 C56.7652742,3.64699937 56.7940359,3.75887564 56.8492105,3.85833333 C56.902721,3.95868609 56.9734128,4.04893398 57.0580921,4.125 C57.6151096,4.63055556 58.1387061,5.05833333 58.6288816,5.40833333 C59.0453501,5.71739859 59.4837606,5.99590803 59.9406579,6.24166667 C60.3110202,6.44631515 60.7034343,6.60846003 61.1103947,6.725 C61.4830151,6.82917292 61.8680848,6.88243657 62.2550658,6.88333333 L62.2550658,8.775 C62.2550658,9.18461119 62.5879951,9.51666667 62.9986842,9.51666667 C63.4093733,9.51666667 63.7423026,9.18461119 63.7423026,8.775 L63.7339474,8.75833333 Z M73.0834868,6.86666667 L81.6977632,6.86666667 C81.8486822,6.86514294 81.9936321,6.92538021 82.0988158,7.03333333 C82.2096339,7.14336873 82.2700825,7.29409351 82.2659211,7.45 C82.2681621,7.59823132 82.2074636,7.74049826 82.0988158,7.84166667 C81.9925499,7.94802193 81.8483067,8.00796551 81.6977632,8.00833333 L72.2228947,8.00833333 C71.8122056,8.00833333 71.4792763,8.34038881 71.4792763,8.75 C71.4792763,9.15961119 71.8122056,9.49166667 72.2228947,9.49166667 L81.6309211,9.49166667 C81.9172483,9.49520175 82.2013726,9.44135984 82.4664474,9.33333333 C82.7134252,9.23458675 82.9379164,9.08720823 83.1265132,8.9 C83.3136623,8.71292826 83.463881,8.49243201 83.5693421,8.25 C83.6845065,7.98744791 83.7415056,7.70320017 83.7364474,7.41666667 C83.739968,7.13027346 83.6830331,6.84634574 83.5693421,6.58333333 C83.3616612,6.08587091 82.9652189,5.69046918 82.4664474,5.48333333 C82.2021236,5.37279772 81.9174723,5.31885594 81.6309211,5.325 L73.0500658,5.325 C72.89681,5.32592796 72.7494909,5.26595557 72.6406579,5.15833333 C72.5284976,5.05545495 72.4648309,4.91031297 72.4651974,4.75833333 C72.461358,4.60324859 72.5254118,4.45418205 72.6406579,4.35 C72.7517979,4.24693543 72.8983146,4.19027196 73.0500658,4.19166667 L82.4998684,4.19166667 C82.7655377,4.19166668 83.0110262,4.05030581 83.1438609,3.82083334 C83.2766955,3.59136087 83.2766955,3.30863913 83.1438609,3.07916666 C83.0110262,2.84969419 82.7655377,2.70833332 82.4998684,2.70833333 L73.0834868,2.70833333 C72.7961993,2.70328835 72.5112035,2.7601379 72.2479605,2.875 C71.7564046,3.08565572 71.3646311,3.47640094 71.1534211,3.96666667 C70.9366332,4.48097698 70.9366332,5.06068969 71.1534211,5.575 C71.3646311,6.06526573 71.7564046,6.45601095 72.2479605,6.66666667 C72.5111239,6.78178107 72.7961756,6.83864177 73.0834868,6.83333333 L73.0834868,6.86666667 Z M96.9210526,2.75833333 L86.2430263,2.75833333 C85.8323372,2.75833333 85.4994079,3.09038881 85.4994079,3.5 C85.4967262,3.68666814 85.5689169,3.86667109 85.6999342,4 C85.8267078,4.13654693 85.9989503,4.22244218 86.1845395,4.24166667 L90.8384211,4.24166667 L90.8384211,8.75833333 C90.8384211,9.16794452 91.1713504,9.5 91.5820395,9.5 C91.9927286,9.5 92.3256579,9.16794452 92.3256579,8.75833333 L92.3256579,4.25 L96.9210526,4.25 C97.3317417,4.25 97.6646711,3.91794452 97.6646711,3.50833333 C97.6646711,3.09872214 97.3317417,2.76666667 96.9210526,2.76666667 L96.9210526,2.75833333 Z M99.4276316,3.5 C99.4276316,3.90961119 99.7605609,4.24166667 100.17125,4.24166667 L111.166776,4.24166667 C111.432446,4.24166668 111.677934,4.10030581 111.810769,3.87083334 C111.943603,3.64136087 111.943603,3.35863913 111.810769,3.12916666 C111.677934,2.89969419 111.432446,2.75833332 111.166776,2.75833333 L100.204671,2.75833333 C99.7939819,2.75833333 99.4610526,3.09038881 99.4610526,3.5 L99.4276316,3.5 Z M101.324276,9.5 L111.175132,9.5 C111.585821,9.5 111.91875,9.16794452 111.91875,8.75833333 C111.91875,8.34872214 111.585821,8.01666667 111.175132,8.01666667 L101.399474,8.01666667 C101.271979,8.02298036 101.14675,7.98134704 101.048553,7.9 C100.964099,7.83360467 100.91483,7.732254 100.914868,7.625 L100.914868,6.86666667 L110.832566,6.86666667 C111.243255,6.86666667 111.576184,6.53461119 111.576184,6.125 C111.576184,5.71538881 111.243255,5.38333333 110.832566,5.38333333 L100.446974,5.38333333 C100.188395,5.36730167 99.9298998,5.41600032 99.695,5.525 C99.5171329,5.65226765 99.4239927,5.86688872 99.4526974,6.08333333 L99.4526974,7.5 C99.447375,7.78655719 99.5043853,8.07086071 99.6198026,8.33333333 C99.7255336,8.5686342 99.8726835,8.78313503 100.054276,8.96666667 C100.226899,9.13974726 100.431085,9.27834261 100.655855,9.375 C100.87102,9.4727815 101.104541,9.5239077 101.340987,9.525 L101.324276,9.5 Z M126.807829,8.75833333 L126.807829,4.25 C126.817464,3.86846443 126.690039,3.4960604 126.448553,3.2 C126.209354,2.91000241 125.847097,2.74942154 125.470987,2.76666667 C125.232069,2.76279544 124.996157,2.8201839 124.785855,2.93333333 C124.579148,3.04982641 124.399702,3.20891467 124.259474,3.4 L120.708487,7.45833333 C120.648471,7.51580913 120.584236,7.5687341 120.516316,7.61666667 C120.376324,7.7343411 120.171702,7.7343411 120.031711,7.61666667 C119.963791,7.5687341 119.899555,7.51580913 119.839539,7.45833333 L116.271842,3.4 C116.110582,3.22773729 115.9281,3.07653462 115.72875,2.95 C115.528215,2.82614221 115.296164,2.76249556 115.060329,2.76666667 C114.684219,2.74942154 114.321961,2.91000241 114.082763,3.2 C113.841277,3.4960604 113.713852,3.86846443 113.723487,4.25 L113.723487,8.76666667 C113.723487,9.17627786 114.056416,9.50833333 114.467105,9.50833333 C114.877794,9.50833333 115.210724,9.17627786 115.210724,8.76666667 L115.210724,5.43333333 C115.210724,5.01111111 115.235789,4.8 115.285921,4.8 C115.336053,4.8 115.480877,4.93888889 115.720395,5.21666667 L119.129342,9.08333333 C119.262763,9.2381566 119.431949,9.358278 119.622303,9.43333333 C120.031654,9.58679965 120.482951,9.58679965 120.892303,9.43333333 C121.082497,9.35798447 121.251617,9.23790972 121.385263,9.08333333 L124.794211,5.21666667 C125.039298,4.93888889 125.184123,4.8 125.228684,4.8 C125.273246,4.8 125.298311,5.01111111 125.303882,5.43333333 L125.303882,8.76666667 C125.303882,9.17627786 125.636811,9.50833333 126.0475,9.50833333 C126.458189,9.50833333 126.791118,9.17627786 126.791118,8.76666667 L126.807829,8.75833333 Z" id="Shape" fill="#3866B0"></path>
            </g>
        </g>
    </g>
</svg>