<?xml version="1.0" encoding="UTF-8" standalone="no"?>
<svg width="232px" height="36px" viewBox="0 0 232 36" version="1.1" xmlns="http://www.w3.org/2000/svg" xmlns:xlink="http://www.w3.org/1999/xlink">
    <!-- Generator: Sketch 48.1 (47250) - http://www.bohemiancoding.com/sketch -->
    <title>logo</title>
    <desc>Created with Sketch.</desc>
    <defs></defs>
    <g id="Мобильная/Главная/05---Главная" stroke="none" stroke-width="1" fill="none" fill-rule="evenodd" transform="translate(-64.000000, -2624.000000)">
        <g id="общая" fill-rule="nonzero">
            <g id="футер" transform="translate(0.000000, 2598.000000)">
                <g id="logo" transform="translate(64.000000, 26.000000)">
                    <g id="Logo">
                        <g id="RED" transform="translate(7.417582, 0.000000)" fill="#F05244">
                            <g id="RED-2">
                                <path d="M16.9986264,27.732 C15.9230769,27.864 14.8104396,27.948 13.6854396,27.984 C14.9523802,26.7257873 16.1062988,25.3648417 17.1346154,23.916 L17.3076923,23.916 C18.2225275,23.916 19.1744505,23.916 20.114011,23.832 C19.232013,25.1732355 18.2702168,26.4634239 17.2335165,27.696 L16.9986264,27.732 Z M18.8282967,21.336 C18.3337912,22.176 17.8021978,22.98 17.2582418,23.736 C18.2472527,23.736 19.2239011,23.736 20.1758242,23.64 C20.5137363,23.128 20.8434066,22.6 21.1648352,22.056 L21.7458791,21.048 C20.8186813,21.192 19.7802198,21.276 18.8282967,21.336 Z M2.96703297,18.072 L3.33791209,18.288 C3.46153846,17.976 3.59752747,17.664 3.74587912,17.352 L3.74587912,17.268 C3.90659341,16.908 4.07967033,16.548 4.25274725,16.188 C4.42582418,15.84 4.61126374,15.492 4.7967033,15.144 L4.90796703,14.928 C5.09340659,14.58 5.29120879,14.232 5.50137363,13.896 L5.90934066,13.212 L6.04532967,12.996 L6.32967033,12.552 L6.49038462,12.312 L6.76236264,11.904 L6.93543956,11.664 L7.21978022,11.256 L7.41758242,11.028 L7.7760989,10.56 L7.875,10.428 L8.33241758,9.852 L8.48076923,9.672 L8.8021978,9.288 L8.98763736,9.072 L9.28434066,8.736 L9.46978022,8.52 L9.75412088,8.196 L9.93956044,7.992 L10.260989,7.668 L10.4217033,7.5 L10.8914835,7.044 L11.0274725,6.912 L11.3736264,6.588 L11.5590659,6.42 L11.8557692,6.168 L12.0659341,6 L12.3626374,5.76 L12.5604396,5.592 L12.8571429,5.364 L13.0425824,5.22 L13.4381868,4.932 L13.5989011,4.8 L13.9821429,4.536 L14.1675824,4.416 L14.4519231,4.236 L14.6497253,4.116 L14.9217033,3.96 L15.1195055,3.852 L15.4038462,3.708 L15.5892857,3.612 L15.9230769,3.468 L16.0467033,3.468 L16.4793956,3.3 L16.6277473,3.3 L16.9244505,3.204 L17.0975275,3.204 L17.3076923,3.036 L17.4807692,3.036 L17.7403846,3.036 L17.9010989,3.036 L18.1978022,3.036 L18.7046703,3.036 L19.1868132,3.036 L19.3228022,3.036 L19.6442308,3.036 L19.8049451,3.036 L20.114011,3.132 L20.25,3.132 L20.657967,3.324 C21.0022599,3.5175738 21.3113441,3.76488576 21.5728022,4.056 C22.3353053,4.99170382 22.7878745,6.12968407 22.8708791,7.32 C22.8708791,7.488 22.8708791,7.664 22.8708791,7.848 C22.952226,8.83152479 22.9315175,9.82049594 22.8090659,10.8 C22.8090659,11.008 22.7760989,11.22 22.7101648,11.436 C22.2591583,13.8471408 21.4861576,16.190901 20.4107143,18.408 L20.0521978,19.14 C19.7142857,19.82 19.3434066,20.5 18.9395604,21.18 C19.8914835,21.18 20.831044,21.036 21.7458791,20.916 L21.8818681,20.916 C23.0250988,18.8293275 23.9765842,16.6488869 24.7252747,14.4 L24.7252747,14.34 L24.9478022,13.656 L24.9478022,13.524 L25.1332418,12.9 L25.1332418,12.72 L25.2815934,12.144 L25.2815934,11.928 L25.4052198,11.388 L25.4052198,11.148 L25.5041209,10.644 L25.5041209,10.38 L25.5906593,9.9 L25.9615385,9.6 C25.9615385,9.444 25.9615385,9.3 26.0233516,9.144 L26.0233516,8.868 C26.0233516,8.724 26.0233516,8.58 26.0233516,8.436 L26.0233516,8.148 C26.0233516,8.016 26.0233516,7.872 26.0233516,7.74 C26.0233516,7.608 26.0233516,7.548 26.0233516,7.452 C26.0233516,7.356 26.0233516,7.2 26.0233516,7.068 C26.0233516,6.936 26.0233516,6.876 26.0233516,6.78 C26.0233516,6.684 26.0233516,6.54 26.0233516,6.42 C26.0233516,6.3 26.0233516,6.228 26.0233516,6.132 C26.0233516,6.036 26.0233516,5.904 26.0233516,5.796 C26.0233516,5.688 26.0233516,5.604 26.0233516,5.508 C26.0233516,5.412 26.0233516,5.292 26.0233516,5.184 L26.0233516,4.908 L26.0233516,4.608 L26.0233516,4.332 L25.9615385,4.056 L25.8873626,3.792 L25.7019231,3.6 L25.6153846,3.348 L25.5288462,3.108 L25.4175824,2.868 L25.3186813,2.652 L25.1950549,2.4 L25.0837912,2.208 L24.9354396,1.992 L24.8118132,1.812 L24.6387363,1.608 L24.5151099,1.452 L24.3173077,1.2 L24.1936813,1.092 L23.9587912,0.9 L23.8351648,0.816 L23.489011,0.564 C23.3335243,0.477998007 23.1724745,0.401839309 23.0068681,0.336 L22.8461538,0.336 L22.4505495,0.168 L22.2527473,0.12 L21.8818681,0 L21.7211538,0 L21.1524725,0 L20.657967,0 L20.3983516,0 L20.0151099,0 L19.7802198,0.144 L19.4093407,0.228 L19.1744505,0.288 L18.7912088,0.408 L18.543956,0.48 L18.135989,0.636 L17.9505495,0.72 L17.4065934,0.96 L17.3076923,1.008 L16.6524725,1.344 L16.4917582,1.428 L15.9972527,1.716 L15.7747253,1.848 L15.3296703,2.136 L15.0947802,2.292 L14.6497253,2.604 L14.4148352,2.772 L13.9574176,3.12 L13.7472527,3.288 L13.2032967,3.744 L13.0796703,3.852 L12.3626374,4.464 L11.7074176,5.088 L11.5343407,5.256 L11.0398352,5.76 L10.8543956,6 L10.396978,6.492 L10.1497253,6.768 C8.53441242,8.61786702 7.07113023,10.5879133 5.77335165,12.66 L5.41483516,13.236 C5.19230769,13.608 4.98214286,13.992 4.77197802,14.364 L4.62362637,14.628 C4.42582418,14.988 4.24038462,15.336 4.06730769,15.684 C3.86126374,16.092 3.66346154,16.492 3.4739011,16.884 C3.31318681,17.244 3.15247253,17.592 2.99175824,17.952 L2.96703297,18.072 Z M1.43406593,26.4 L0.618131868,26.076 C0.502388431,26.9312862 0.448684824,27.7934081 0.457417582,28.656 L1.69368132,29.052 C1.48533957,28.183249 1.39802216,27.291292 1.43406593,26.4 Z M14.5508242,30.48 C15.4215839,29.6547911 16.2469057,28.7855842 17.0233516,27.876 C15.8983516,28.02 14.7115385,28.104 13.5,28.14 C12.6268528,28.9897614 11.6796437,29.7646473 10.668956,30.456 C11.3983516,30.456 12.1524725,30.456 12.9065934,30.456 L14.5508242,30.48 Z M12.9065934,30.696 C12.2019231,30.696 11.4725275,30.696 10.7184066,30.696 L10.4217033,30.696 C7.86263736,32.352 5.47664835,32.892 3.72115385,31.896 C2.75597651,31.307822 2.06435392,30.3782812 1.79258242,29.304 L1.68131868,29.304 L1.58241758,29.304 L0.630494505,29.016 L0.457417582,28.956 C0.543956044,31.74 1.4217033,33.84 3.15247253,34.812 C5.90934066,36.36 10.1744505,34.644 14.3406593,30.768 L12.9065934,30.696 Z M3.2760989,18.468 L2.88049451,18.228 C2.5260989,19.028 2.20879121,19.828 1.92857143,20.628 L2.38598901,20.856 C2.63324176,20.112 2.92994505,19.296 3.2760989,18.468 Z M1.43406593,26.232 C1.50644524,24.4855584 1.80975378,22.7553867 2.33653846,21.084 L1.86675824,20.856 C1.29827329,22.5002872 0.884492759,24.1912041 0.630494505,25.908 L1.43406593,26.232 Z" id="Shape"></path>
                            </g>
                        </g>
                        <g id="BLUE1" transform="translate(0.000000, 12.000000)" fill="#3866B0">
                            <g id="BLUE1-2">
                                <path d="M13.1785714,1.908 L13.5,1.38 C15.7530847,1.03433097 18.03076,0.861795347 20.3118132,0.864 C23.3585393,0.854393455 26.3972097,1.1682595 29.3736264,1.8 C29.2994505,2.048 29.2211538,2.3 29.1387363,2.556 C26.0983101,1.7251259 22.9509997,1.32102679 19.7925824,1.356 C17.5749591,1.33832337 15.3605379,1.52313717 13.1785714,1.908 Z M7.60302198,3.6 L7.54120879,3.468 C7.54120879,3.36 7.45467033,3.264 7.41758242,3.156 L7.41758242,3.048 L7.41758242,2.952 C6.46593922,3.28674787 5.54045347,3.6877917 4.64835165,4.152 L4.64835165,4.212 L4.72252747,4.416 L4.80906593,4.632 L4.90796703,4.848 L5.00686813,5.04 L5.00686813,5.136 C5.81061931,4.5255075 6.6862647,4.00989208 7.61538462,3.6 L7.60302198,3.6 Z M0.494505495,11.652 L0.642857143,11.916 L0.729395604,12.048 L0.914835165,12.324 L1.00137363,12.432 C1.125,12.592 1.26098901,12.752 1.40934066,12.912 L1.54532967,13.068 L1.78021978,13.296 L1.96565934,13.476 L2.20054945,13.68 L2.53434066,13.944 L2.81868132,14.16 L3.16483516,14.4 L3.38736264,14.544 L3.78296703,14.796 L3.96840659,14.904 L4.58653846,15.252 L4.66071429,15.252 L5.27884615,15.564 L5.4271978,15.636 L6.09478022,15.936 C6.62637363,16.164 7.17032967,16.368 7.75137363,16.56 L8.98763736,16.956 L9.04945055,16.956 L9.96428571,17.196 C10.6236264,17.364 11.3076923,17.516 12.0164835,17.652 L12.3626374,17.652 C13.0714286,17.788 13.7967033,17.904 14.5384615,18 L15.6510989,18.132 C16.4175824,18.212 17.2005495,18.272 18,18.312 C18.7293956,18.312 19.4835165,18.312 20.2376374,18.312 L21.8818681,18.312 L22.7967033,18.312 C24.8032484,18.2070803 26.7990654,17.9584035 28.7678571,17.568 L28.8791209,17.568 L29.4848901,17.436 L29.7197802,17.436 L30.239011,17.316 L30.5480769,17.244 L31.0054945,17.124 L31.3516484,17.028 L31.7596154,16.908 L32.1304945,16.788 L32.5013736,16.668 L32.9093407,16.536 L33.2307692,16.428 L33.6758242,16.26 L33.9230769,16.164 L34.5164835,15.912 C34.5608644,15.8932064 34.5898568,15.8509936 34.5906593,15.804 L34.5906593,12.204 L34.0714286,12.588 L33.9107143,12.696 L33.4903846,12.96 L33.3791209,13.2 L32.760989,13.548 L32.0934066,13.872 L31.8832418,13.968 L31.3516484,14.196 L31.1291209,14.28 L30.3626374,14.568 L29.5714286,14.832 L29.3241758,14.904 L28.706044,15.084 L28.4464286,15.156 L27.5686813,15.372 L26.6785714,15.564 L26.3942308,15.564 L25.7019231,15.684 L25.4052198,15.684 L24.4285714,15.816 C22.8908097,16.0030701 21.3423702,16.0952552 19.7925824,16.092 L18.3461538,16.092 L17.9010989,16.092 L16.9244505,16.092 L16.4299451,16.092 L15.5274725,15.996 L15.0700549,15.996 L14.1181319,15.864 L13.7472527,15.864 L12.510989,15.636 L11.2747253,15.336 L11.1510989,15.336 L10.1126374,15.048 L9.89010989,14.772 L9.03708791,14.484 C8.625,14.332 8.21291209,14.172 7.80082418,14.004 L7.33104396,13.788 L6.8489011,13.548 L6.52747253,13.368 L6.18131868,13.2 L5.89697802,13.032 L5.39010989,12.696 L5.16758242,12.528 L4.84615385,12.276 L4.64835165,12.108 L4.47527473,11.952 L4.22802198,11.724 C3.39212691,10.9558896 2.89951035,9.90047709 2.85576923,8.784 C2.95150543,7.36594912 3.70090867,6.06540899 4.8956044,5.244 L4.82142857,5.112 L4.72252747,4.92 L4.62362637,4.704 L4.53708791,4.488 L4.47527473,4.308 C1.64423077,5.724 0,7.632 0,9.708 C0.0052457035,10.3847062 0.174656762,11.050695 0.494505495,11.652 Z M31.9450549,3.6 C32.8948602,4.0023054 33.7914011,4.51397568 34.6153846,5.124 L34.6153846,3.504 C34.6286349,3.48172312 34.6286349,3.45427688 34.6153846,3.432 C33.8521291,3.10574403 33.072276,2.81737169 32.2788462,2.568 C32.1881868,2.904 32.0769231,3.248 31.9450549,3.6 Z M7.55357143,2.952 L7.55357143,3.048 C7.55357143,3.144 7.62774725,3.24 7.6771978,3.348 L7.6771978,3.432 C9.06922314,2.83495118 10.518555,2.37271095 12.0041209,2.052 L12.3255495,1.488 C10.6441485,1.78553641 8.99037607,2.21494393 7.38049451,2.772 L7.55357143,2.952 Z" id="Shape"></path>
                            </g>
                        </g>
                        <g id="BLUE2" transform="translate(3.708791, 6.000000)" fill="#3866B0">
                            <g id="BLUE2-2">
                                <path d="M0.667582418,8.904 C0.667582418,5.136 6.08241758,1.932 13.6978022,0.648 L13.2156593,1.2 C8.65384615,2.148 5.21703297,3.96 3.98076923,6.144 C3.82747863,6.41768065 3.70718008,6.70759184 3.62225275,7.008 C3.58484447,7.14620876 3.55594719,7.28645692 3.53571429,7.428 L3.53571429,7.5 C3.52675516,7.63986495 3.52675516,7.78013505 3.53571429,7.92 C3.52963024,8.03592484 3.52963024,8.15207516 3.53571429,8.268 L3.53571429,8.4 C3.53571429,8.48 3.53571429,8.56 3.53571429,8.64 L3.53571429,8.76 L3.60989011,9 L3.60989011,9.108 C3.60989011,9.216 3.68406593,9.312 3.73351648,9.42 L3.79532967,9.552 L3.89423077,9.732 L3.99313187,9.888 L4.09203297,10.032 L4.21565934,10.2 L4.28983516,10.308 L4.62362637,10.704 L4.83379121,10.92 L4.8956044,10.98 L5.13049451,11.196 C5.51635975,11.5429497 5.9297204,11.8599257 6.36675824,12.144 L6.76236264,12.384 L7.34340659,12.696 L7.40521978,12.696 L7.96153846,12.972 L8.03571429,12.972 L8.65384615,13.236 C9.45804982,13.5921664 10.283737,13.9007312 11.1263736,14.16 L11.2376374,14.16 L11.8928571,14.34 L12.0782967,14.34 L12.6964286,14.484 L12.9065934,14.484 L13.5618132,14.616 L13.7348901,14.616 C14.3035714,14.72 14.8846154,14.812 15.478022,14.892 L15.6634615,14.892 L16.3557692,14.976 L16.6648352,14.976 L17.2706044,14.976 L17.6043956,14.976 L18.1978022,14.976 L18.543956,14.976 L19.1868132,14.976 L21.4986264,14.976 L22.5,14.976 C23.5137363,14.976 24.4903846,14.832 25.4423077,14.7 C25.978022,14.628 26.5013736,14.544 27.0123626,14.448 L27.6923077,14.316 L27.8777473,14.316 C28.5288462,14.172 29.1552198,14.012 29.7568681,13.836 L30.0164835,13.764 L30.4986264,13.608 L30.8324176,13.5 L31.2651099,13.344 L31.9203297,13.092 L32.2417582,12.96 L32.6497253,12.78 L32.9340659,12.648 L33.4038462,12.408 L33.5769231,12.312 L34.1703297,11.964 L34.3434066,11.856 L34.7637363,11.58 L34.9244505,11.46 L35.4313187,11.064 L35.4313187,14.664 L34.8255495,14.916 L34.603022,15 L34.1456044,15.18 L33.8736264,15.276 L33.4409341,15.432 L33.1442308,15.528 L32.6991758,15.672 L32.4024725,15.768 L31.7967033,15.936 L31.3145604,16.068 L30.918956,16.164 L30.4739011,16.272 L30.1277473,16.356 L29.6456044,16.464 L29.3365385,16.524 L28.8049451,16.62 L28.5824176,16.62 C27.9065934,16.74 27.2101648,16.844 26.4931319,16.932 L26.3571429,16.932 L25.6771978,17.004 L25.4793956,17.004 L24.7994505,17.064 L24.614011,17.064 L23.8846154,17.064 C22.9326923,17.064 21.956044,17.16 20.967033,17.16 L19.6071429,17.16 L18.8282967,17.16 L18.4945055,17.16 L17.7898352,17.16 L17.4313187,17.16 L16.7513736,17.16 L16.4052198,17.16 L15.75,17.088 L15.4162088,17.088 L14.760989,17.004 L14.4395604,17.004 L13.7843407,16.908 L13.4876374,16.908 L12.8324176,16.788 L12.5604396,16.788 L11.8928571,16.8 L11.6456044,16.8 L10.978022,16.644 L10.7554945,16.644 L10.0879121,16.464 L9.90247253,16.464 L9.23489011,16.26 L9.08653846,16.26 L8.40659341,16.032 L8.28296703,16.032 L7.61538462,15.6 L7.52884615,15.6 L6.83653846,15.324 C5.01889951,14.6096541 3.3854895,13.5157844 2.0521978,12.12 L1.97802198,12 L1.76785714,11.748 L1.65659341,11.604 L1.49587912,11.364 L1.38461538,11.196 L1.23626374,11.004 L1.14972527,10.8 L1.05082418,10.584 L0.964285714,10.368 L0.89010989,10.164 L0.815934066,9.924 L0.815934066,9.744 C0.815934066,9.648 0.815934066,9.564 0.815934066,9.468 C0.815934066,9.372 0.815934066,9.372 0.815934066,9.312 C0.759018421,9.17866703 0.709497014,9.04247215 0.667582418,8.904 Z M26.3571429,0.984 C26.3571429,0.768 26.282967,0.564 26.2335165,0.372 C22.6942769,-0.0445063314 19.1161626,-0.0445063314 15.5769231,0.372 L14.9958791,0.9 C18.7595242,0.348804363 22.5888793,0.373098659 26.3447802,0.972 L26.3571429,0.984 Z M30.0659341,1.812 C32.0139772,2.33719103 33.8397383,3.22125674 35.4436813,4.416 C35.4574242,4.43611045 35.4806327,4.4482005 35.5054945,4.4482005 C35.5303563,4.4482005 35.5535648,4.43611045 35.5673077,4.416 L35.5673077,2.784 C35.5805579,2.76172312 35.5805579,2.73427688 35.5673077,2.712 C33.7918732,1.95474315 31.9397855,1.3796209 30.0412088,0.996 C30.0412088,1.26 30.0412088,1.536 30.0164835,1.812 L30.0659341,1.812 Z" id="Shape"></path>
                            </g>
                        </g>
                    </g>
                    <g id="Type" transform="translate(47.000000, 12.000000)">
                        <path d="M32.14375,8.505 C31.6014033,8.49926051 31.0664126,8.38397542 30.5736842,8.16666667 C29.6171559,7.77266155 28.8547892,7.0418884 28.44375,6.125 C28.0204146,5.16269664 28.0204146,4.07730336 28.44375,3.115 C28.8748263,2.23326824 29.6346823,1.5381985 30.5736842,1.16666667 C31.0691428,0.961395606 31.6040212,0.85805825 32.14375,0.863333333 L50.4003289,0.863333333 C51.2002335,0.863333333 51.8486842,1.48491134 51.8486842,2.25166667 C51.8486842,3.01842199 51.2002335,3.64 50.4003289,3.64 L32.0828947,3.64 C31.7854583,3.64361992 31.499702,3.75152547 31.2796053,3.94333333 C31.0531184,4.13927574 30.9284076,4.4210549 30.9388158,4.71333333 C30.9370916,4.99722955 31.0609201,5.26853668 31.2796053,5.46 C31.4923016,5.66424632 31.7818418,5.77778589 32.0828947,5.775 L48.6842105,5.775 C49.2277303,5.77116152 49.766277,5.87440722 50.2664474,6.07833333 C51.23494,6.46534472 52.0048096,7.20330975 52.4085526,8.13166667 C52.6212951,8.61110929 52.7290044,9.12733779 52.725,9.64833333 C52.7301427,10.1656623 52.6223526,10.6783036 52.4085526,11.1533333 C52.1976123,11.5897467 51.9046855,11.9852221 51.5444079,12.32 C51.1789275,12.6676238 50.7443522,12.9413671 50.2664474,13.125 C49.7639755,13.3203636 49.2264355,13.4194528 48.6842105,13.4166667 L30.4276316,13.4166667 C29.6277271,13.4166667 28.9792763,12.7950887 28.9792763,12.0283333 C28.9792763,11.261578 29.6277271,10.64 30.4276316,10.64 L48.8059211,10.64 C49.0973265,10.6422345 49.3776495,10.5330727 49.5848684,10.3366667 C49.7984471,10.1475978 49.9179514,9.88031004 49.9134868,9.60166667 C49.9211445,9.30881087 49.8022224,9.02593723 49.5848684,8.82 C49.3812651,8.61705704 49.0996466,8.50317276 48.8059211,8.505 L32.14375,8.505 Z M25.4740132,7.11666667 C25.4712349,7.87002474 25.343887,8.61819825 25.0967105,9.33333333 C24.8530335,10.0605503 24.4826681,10.7429717 24.0013158,11.3516667 C23.524053,11.9508846 22.9285509,12.4543193 22.2486842,12.8333333 C21.5422394,13.222497 20.7386557,13.4201086 19.9240132,13.405 L6.18289474,13.405 C5.40098872,13.3791131 4.640475,13.1535671 3.97993421,12.7516667 C3.34068963,12.3602523 2.78341931,11.8577309 2.33684211,11.27 C1.88741507,10.6808932 1.53823674,10.0272284 1.30230263,9.33333333 C0.810342948,7.91312234 0.810342948,6.37854433 1.30230263,4.95833333 C1.54554408,4.23094228 1.91594632,3.54845298 2.39769737,2.94 C2.87376331,2.33657708 3.46934502,1.82911046 4.15032895,1.44666667 C4.85677379,1.05750297 5.66035744,0.859891363 6.475,0.875 L20.2282895,0.875 C21.0101955,0.900886899 21.7707092,1.12643291 22.43125,1.52833333 C23.071583,1.92319969 23.6289256,2.42974362 24.0743421,3.02166667 C24.5299159,3.62840564 24.8793382,4.30222952 25.1088816,5.01666667 C25.3465207,5.71764263 25.4696855,6.4496193 25.4740132,7.18666667 L25.4740132,7.11666667 Z M19.2911184,10.6166667 C19.8782386,10.6389638 20.4612962,10.5143182 20.9828947,10.255 C21.3916222,10.0411032 21.7451344,9.74210721 22.0174342,9.38 C22.2696112,9.02889156 22.4436227,8.63174805 22.5286184,8.21333333 C22.7176797,7.44611223 22.7176797,6.64722111 22.5286184,5.88 C22.4436227,5.46158528 22.2696112,5.06444177 22.0174342,4.71333333 C21.7468266,4.34671594 21.3931393,4.04358319 20.9828947,3.82666667 C20.4612962,3.56734849 19.8782386,3.44270288 19.2911184,3.465 L7.12006579,3.465 C6.52881208,3.44010543 5.94113914,3.56484034 5.41611842,3.82666667 C5.0110122,4.04597348 4.66180663,4.34882804 4.39375,4.71333333 C4.14126476,5.06428015 3.96722525,5.46148743 3.88256579,5.88 C3.69350451,6.64722111 3.69350451,7.44611223 3.88256579,8.21333333 C3.96688636,8.6319444 4.14095413,9.02921618 4.39375,9.38 C4.66346666,9.74001146 5.0125051,10.0387381 5.41611842,10.255 C5.94113914,10.5168263 6.52881208,10.6415612 7.12006579,10.6166667 L19.2911184,10.6166667 Z" id="Shape" fill="#F05244"></path>
                        <path d="M59.3947368,8.505 C58.8523901,8.49926051 58.3173994,8.38397542 57.8246711,8.16666667 C56.8681427,7.77266155 56.105776,7.0418884 55.6947368,6.125 C55.2748152,5.16608355 55.2748152,4.08558312 55.6947368,3.12666667 C56.1233554,2.24054109 56.8835179,1.54102723 57.8246711,1.16666667 C58.3201296,0.961395606 58.855008,0.85805825 59.3947368,0.863333333 L77.6513158,0.863333333 C78.4512203,0.863333333 79.0996711,1.48491134 79.0996711,2.25166667 C79.0996711,3.01842199 78.4512203,3.64 77.6513158,3.64 L59.3338816,3.64 C59.0350661,3.63666798 58.7467509,3.74553985 58.5305921,3.94333333 C58.3041053,4.13927574 58.1793944,4.4210549 58.1898026,4.71333333 C58.1880785,4.99722955 58.311907,5.26853668 58.5305921,5.46 C58.7432885,5.66424632 59.0328286,5.77778589 59.3338816,5.775 L75.9960526,5.775 C76.5395724,5.77116152 77.0781191,5.87440722 77.5782895,6.07833333 C78.5467821,6.46534472 79.3166517,7.20330975 79.7203947,8.13166667 C79.9331372,8.61110929 80.0408465,9.12733779 80.0368421,9.64833333 C80.0423452,10.165695 79.9345403,10.6784073 79.7203947,11.1533333 C79.509696,11.5898809 79.2167395,11.9853964 78.85625,12.32 C78.4909796,12.6678719 78.0563486,12.9416503 77.5782895,13.125 C77.0758176,13.3203636 76.5382776,13.4194528 75.9960526,13.4166667 L57.7394737,13.4166667 C57.2220262,13.4166667 56.7438849,13.1520519 56.4851612,12.7225 C56.2264374,12.2929482 56.2264374,11.7637185 56.4851612,11.3341666 C56.7438849,10.9046148 57.2220262,10.64 57.7394737,10.64 L76.1177632,10.64 C76.4091686,10.6422345 76.6894916,10.5330727 76.8967105,10.3366667 C77.1102892,10.1475978 77.2297935,9.88031004 77.2253289,9.60166667 C77.2329866,9.30881087 77.1140645,9.02593723 76.8967105,8.82 C76.6931072,8.61705704 76.4114887,8.50317276 76.1177632,8.505 L59.3947368,8.505 Z M92.8407895,12.2616667 L92.8407895,9.625 C93.3801587,9.61917118 93.9163255,9.54462922 94.4351974,9.40333333 C95.0395939,9.23995158 95.6232932,9.01301745 96.1756579,8.72666667 C96.8586051,8.38571724 97.5136553,7.99571475 98.1351974,7.56 C98.8248904,7.06222222 99.5876096,6.46722222 100.423355,5.775 C100.54708,5.66884183 100.650112,5.54242696 100.727632,5.40166667 C100.808004,5.26242589 100.849901,5.10579911 100.849342,4.94666667 C100.849342,4.373211 100.364366,3.90833333 99.7661184,3.90833333 C99.4813571,3.92026057 99.2099949,4.02761026 98.9993421,4.21166667 C98.0175439,5.03611111 97.2061404,5.67388889 96.5651316,6.125 C96.01857,6.51646991 95.4312347,6.8527032 94.8125,7.12833333 C94.3534167,7.32775968 93.8648101,7.45764048 93.3641447,7.51333333 C92.9097588,7.56 92.3904605,7.58333333 91.80625,7.58333333 C91.2776554,7.58464782 90.7494042,7.55738229 90.2240132,7.50166667 C89.7112386,7.44093135 89.2107789,7.30723892 88.7391447,7.105 C88.1156539,6.83106942 87.5241027,6.49475811 86.9743421,6.10166667 C86.3171053,5.64277778 85.5057018,5.01277778 84.5401316,4.21166667 C84.4257467,4.12723313 84.3035242,4.05303348 84.175,3.99 C84.0496065,3.93309219 83.9120524,3.90512324 83.7733553,3.90833333 C83.1751073,3.90833333 82.6901316,4.373211 82.6901316,4.94666667 C82.6895726,5.10579911 82.7314696,5.26242589 82.8118421,5.40166667 C82.8897905,5.54216053 82.9927666,5.66850758 83.1161184,5.775 C83.9275219,6.48277778 84.6902412,7.08166667 85.4042763,7.57166667 C86.010943,8.00435802 86.6495725,8.39427124 87.3151316,8.73833333 C87.8546357,9.02484121 88.4262626,9.25184404 89.0190789,9.415 C89.5618724,9.56084209 90.1228006,9.6354112 90.6865132,9.63666667 L90.6865132,12.285 C90.6865132,12.8584557 91.1714889,13.3233333 91.7697368,13.3233333 C92.3679848,13.3233333 92.8529605,12.8584557 92.8529605,12.285 L92.8407895,12.2616667 Z M106.460197,9.61333333 L119.008553,9.61333333 C119.228395,9.61120012 119.439543,9.69553229 119.592763,9.84666667 C119.754191,10.0007162 119.842246,10.2117309 119.836184,10.43 C119.839449,10.6375239 119.75103,10.8366976 119.592763,10.9783333 C119.437966,11.1272307 119.227848,11.2111517 119.008553,11.2116667 L105.206579,11.2116667 C104.608331,11.2116667 104.123355,11.6765443 104.123355,12.25 C104.123355,12.8234557 104.608331,13.2883333 105.206579,13.2883333 L118.911184,13.2883333 C119.328275,13.2932824 119.742157,13.2179038 120.128289,13.0666667 C120.48806,12.9284215 120.815075,12.7220915 121.089803,12.46 C121.362421,12.1980996 121.581244,11.8894048 121.734868,11.55 C121.902628,11.1824271 121.985658,10.7844802 121.978289,10.3833333 C121.983418,9.98238285 121.900481,9.58488404 121.734868,9.21666667 C121.432341,8.52021927 120.854846,7.96665685 120.128289,7.67666667 C119.743251,7.52191681 119.328601,7.44639831 118.911184,7.455 L106.411513,7.455 C106.188266,7.45629915 105.973668,7.3723378 105.815132,7.22166667 C105.651748,7.07763694 105.559006,6.87443815 105.559539,6.66166667 C105.553947,6.44454802 105.647253,6.23585488 105.815132,6.09 C105.977028,5.9457096 106.190458,5.86638075 106.411513,5.86833333 L120.176974,5.86833333 C120.563972,5.86833335 120.921574,5.67042814 121.115073,5.34916668 C121.308572,5.02790522 121.308572,4.63209478 121.115073,4.31083332 C120.921574,3.98957186 120.563972,3.79166665 120.176974,3.79166667 L106.460197,3.79166667 C106.041708,3.7846037 105.626556,3.86419306 105.243092,4.025 C104.527046,4.319918 103.956352,4.86696131 103.648684,5.55333333 C103.332891,6.27336777 103.332891,7.08496556 103.648684,7.805 C103.956352,8.49137202 104.527046,9.03841533 105.243092,9.33333333 C105.62644,9.49449349 106.041673,9.57409848 106.460197,9.56666667 L106.460197,9.61333333 Z M141.184211,3.86166667 L125.629605,3.86166667 C125.031357,3.86166667 124.546382,4.32654433 124.546382,4.9 C124.542475,5.1613354 124.647635,5.41333952 124.838487,5.6 C125.023157,5.7911657 125.274062,5.91141905 125.544408,5.93833333 L132.323684,5.93833333 L132.323684,12.2616667 C132.323684,12.8351223 132.80866,13.3 133.406908,13.3 C134.005156,13.3 134.490132,12.8351223 134.490132,12.2616667 L134.490132,5.95 L141.184211,5.95 C141.782458,5.95 142.267434,5.48512233 142.267434,4.91166667 C142.267434,4.338211 141.782458,3.87333333 141.184211,3.87333333 L141.184211,3.86166667 Z M144.835526,4.9 C144.835526,5.47345567 145.320502,5.93833333 145.91875,5.93833333 L161.935855,5.93833333 C162.322854,5.93833335 162.680455,5.74042814 162.873955,5.41916668 C163.067454,5.09790522 163.067454,4.70209478 162.873955,4.38083332 C162.680455,4.05957186 162.322854,3.86166665 161.935855,3.86166667 L145.967434,3.86166667 C145.369186,3.86166667 144.884211,4.32654433 144.884211,4.9 L144.835526,4.9 Z M147.598355,13.3 L161.948026,13.3 C162.546274,13.3 163.03125,12.8351223 163.03125,12.2616667 C163.03125,11.688211 162.546274,11.2233333 161.948026,11.2233333 L147.707895,11.2233333 C147.522174,11.2321725 147.339754,11.1738859 147.196711,11.06 C147.073687,10.9670465 147.001917,10.8251556 147.001974,10.675 L147.001974,9.61333333 L161.449013,9.61333333 C162.047261,9.61333333 162.532237,9.14845567 162.532237,8.575 C162.532237,8.00154433 162.047261,7.53666667 161.449013,7.53666667 L146.320395,7.53666667 C145.943725,7.51422233 145.567177,7.58240045 145.225,7.735 C144.965902,7.91317471 144.830226,8.21364421 144.872039,8.51666667 L144.872039,10.5 C144.864286,10.9011801 144.947333,11.299205 145.115461,11.6666667 C145.269478,11.9960879 145.48383,12.296389 145.748355,12.5533333 C145.999814,12.7956462 146.29725,12.9896797 146.624671,13.125 C146.9381,13.2618941 147.278269,13.3334708 147.622697,13.335 L147.598355,13.3 Z M184.720066,12.2616667 L184.720066,5.95 C184.734101,5.4158502 184.548482,4.89448456 184.196711,4.48 C183.848272,4.07400338 183.320574,3.84919016 182.772697,3.87333333 C182.424667,3.86791361 182.081016,3.94825745 181.774671,4.10666667 C181.473562,4.26975697 181.212165,4.49248053 181.007895,4.76 L175.835197,10.4416667 C175.747773,10.5221328 175.654201,10.5962277 175.555263,10.6633333 C175.351339,10.8280775 175.053267,10.8280775 174.849342,10.6633333 C174.750404,10.5962277 174.656832,10.5221328 174.569408,10.4416667 L169.372368,4.76 C169.137462,4.5188322 168.871641,4.30714846 168.58125,4.13 C168.289133,3.9565991 167.951105,3.86749378 167.607566,3.87333333 C167.059689,3.84919016 166.531991,4.07400338 166.183553,4.48 C165.831781,4.89448456 165.646162,5.4158502 165.660197,5.95 L165.660197,12.2733333 C165.660197,12.846789 166.145173,13.3116667 166.743421,13.3116667 C167.341669,13.3116667 167.826645,12.846789 167.826645,12.2733333 L167.826645,7.60666667 C167.826645,7.01555556 167.863158,6.72 167.936184,6.72 C168.009211,6.72 168.220175,6.91444444 168.569079,7.30333333 L173.534868,12.7166667 C173.729221,12.9334192 173.975673,13.1015892 174.252961,13.2066667 C174.84926,13.4215195 175.506661,13.4215195 176.102961,13.2066667 C176.380015,13.1011783 176.626371,12.9330736 176.821053,12.7166667 L181.786842,7.30333333 C182.14386,6.91444444 182.354825,6.72 182.419737,6.72 C182.484649,6.72 182.521162,7.01555556 182.529276,7.60666667 L182.529276,12.2733333 C182.529276,12.846789 183.014252,13.3116667 183.6125,13.3116667 C184.210748,13.3116667 184.695724,12.846789 184.695724,12.2733333 L184.720066,12.2616667 Z" id="Shape" fill="#3866B0"></path>
                    </g>
                </g>
            </g>
        </g>
    </g>
</svg>