<?xml version="1.0" encoding="UTF-8" standalone="no"?>
<svg width="58px" height="51px" viewBox="0 0 58 51" version="1.1" xmlns="http://www.w3.org/2000/svg" xmlns:xlink="http://www.w3.org/1999/xlink">
    <!-- Generator: Sketch 48.1 (47250) - http://www.bohemiancoding.com/sketch -->
    <title>armchair2</title>
    <desc>Created with Sketch.</desc>
    <defs></defs>
    <g id="Почему-Ossystem/03-Условия-работы" stroke="none" stroke-width="1" fill="none" fill-rule="evenodd" transform="translate(-476.000000, -626.000000)">
        <g id="общая">
            <g id="ряд-2" transform="translate(96.000000, 577.000000)">
                <g id="armchair2" transform="translate(381.000000, 50.000000)">
                    <path d="M16.9056604,26.2037736 C16.9056604,26.2037736 14.5811321,18.490566 5.91698113,18.490566 C1.16226415,18.490566 5.55111512e-17,21.3433962 0.211320755,24.1962264 C0.528301887,28 5.28301887,30.6415094 5.28301887,34.9735849 C5.28301887,37.4037736 5.28301887,48.0754717 5.28301887,48.0754717 C5.91698113,48.4981132 20.0754717,48.9207547 26.8377358,48.9207547 C34.2339623,48.9207547 47.6528302,48.8150943 48.1811321,48.4981132 C48.8150943,48.1811321 48.4981132,40.7849057 48.4981132,36.8754717 C48.4981132,32.5433962 55.3660377,28.2113208 55.3660377,24.6188679 C55.3660377,21.0264151 52.8301887,18.1735849 48.709434,18.1735849 C43.0037736,18.1735849 38.9886792,22.1886792 38.4603774,26.4150943" id="Shape" stroke="#44A6F6" stroke-width="2"></path>
                    <path d="M10.2490566,33.0716981 C10.2490566,36.1358491 16.6943396,37.0867925 27.2603774,37.0867925 C40.2566038,37.0867925 43.7433962,35.7132075 43.7433962,32.8603774 C43.7433962,31.0641509 43.3207547,24.9358491 28,24.9358491 C12.6792453,24.9358491 10.2490566,30.0075472 10.2490566,33.0716981 Z" id="Shape" stroke="#44A6F6" stroke-width="2"></path>
                    <path d="M11.7283019,35.5018868 C11.6226415,37.0867925 11.4113208,46.0679245 11.6226415,48.2867925" id="Shape" stroke="#44A6F6" stroke-width="2"></path>
                    <path d="M41.6301887,35.7132075 C41.9471698,36.5584906 41.7358491,47.4415094 41.7358491,48.709434" id="Shape" stroke="#44A6F6" stroke-width="2"></path>
                    <path d="M50.6113208,22.8226415 C49.6603774,22.7169811 49.1320755,23.6679245 49.2377358,24.5132075 C49.3433962,25.1471698 49.8716981,25.6754717 50.6113208,25.5698113 C51.5622642,25.4641509 51.7735849,24.6188679 51.7735849,24.090566 C51.7735849,23.245283 51.1396226,22.9283019 50.6113208,22.8226415 Z" id="Shape" stroke="#44A6F6"></path>
                    <path d="M4.12075472,22.8226415 C3.16981132,22.7169811 2.64150943,23.6679245 2.74716981,24.5132075 C2.85283019,25.1471698 3.38113208,25.6754717 4.12075472,25.5698113 C5.07169811,25.4641509 5.28301887,24.7245283 5.28301887,24.1962264 C5.28301887,23.245283 4.6490566,22.9283019 4.12075472,22.8226415 Z" id="Shape" stroke="#44A6F6"></path>
                    <path d="M7.18490566,18.2792453 C7.07924528,16.6943396 6.65660377,13.5245283 6.65660377,8.98113208 C6.65660377,4.22641509 10.5660377,0 28,0 C44.4830189,0 47.9698113,3.48679245 47.9698113,9.08679245 C47.9698113,14.3698113 47.1245283,17.9622642 47.1245283,17.9622642" id="Shape" stroke="#44A6F6" stroke-width="2"></path>
                    <path d="M14.8981132,9.40377358 C15.5320755,10.0377358 17.5396226,11.7283019 17.5396226,11.7283019" id="Shape" stroke="#326EAA" stroke-linecap="round"></path>
                    <path d="M15.2150943,11.9396226 C15.4264151,11.6226415 17.4339623,9.19245283 17.4339623,9.19245283" id="Shape" stroke="#326EAA" stroke-linecap="round"></path>
                    <path d="M20.1811321,16.8 C20.8150943,17.4339623 22.8226415,19.1245283 22.8226415,19.1245283" id="Shape" stroke="#326EAA" stroke-linecap="round"></path>
                    <path d="M20.4981132,19.3358491 C20.709434,19.0188679 22.7169811,16.5886792 22.7169811,16.5886792" id="Shape" stroke="#326EAA" stroke-linecap="round"></path>
                    <path d="M37.4037736,9.19245283 C37.8264151,9.93207547 39.5169811,12.045283 39.5169811,12.045283" id="Shape" stroke="#326EAA" stroke-linecap="round"></path>
                    <path d="M37.0867925,11.7283019 C37.4037736,11.4113208 39.8339623,9.50943396 39.8339623,9.50943396" id="Shape" stroke="#326EAA" stroke-linecap="round"></path>
                    <path d="M32.1207547,16.5886792 C32.5433962,17.3283019 34.1283019,19.4415094 34.1283019,19.4415094" id="Shape" stroke="#326EAA" stroke-linecap="round"></path>
                    <path d="M31.8037736,19.0188679 C32.1207547,18.7018868 34.5509434,16.9056604 34.5509434,16.9056604" id="Shape" stroke="#326EAA" stroke-linecap="round"></path>
                    <path d="M26.7320755,8.24150943 C27.2603774,8.8754717 28.9509434,10.9886792 28.9509434,10.9886792" id="Shape" stroke="#326EAA" stroke-linecap="round"></path>
                    <path d="M26.6264151,10.6716981 C26.9433962,10.354717 29.2679245,8.34716981 29.2679245,8.34716981" id="Shape" stroke="#326EAA" stroke-linecap="round"></path>
                </g>
            </g>
        </g>
    </g>
</svg>