<?xml version="1.0" encoding="UTF-8" standalone="no"?>
<svg width="50px" height="52px" viewBox="0 0 50 52" version="1.1" xmlns="http://www.w3.org/2000/svg" xmlns:xlink="http://www.w3.org/1999/xlink">
    <!-- Generator: Sketch 48.1 (47250) - http://www.bohemiancoding.com/sketch -->
    <title>books</title>
    <desc>Created with Sketch.</desc>
    <defs></defs>
    <g id="Почему-Ossystem/03-Условия-работы" stroke="none" stroke-width="1" fill="none" fill-rule="evenodd" transform="translate(-751.000000, -429.000000)">
        <g id="общая" fill-rule="nonzero">
            <g id="ряд-1" transform="translate(96.000000, 377.000000)">
                <g id="books" transform="translate(655.000000, 52.000000)">
                    <path d="M23.7714286,52 C23.4412698,51.9174603 23.1111111,51.9174603 22.7809524,51.752381 C20.8,51.0920635 19.231746,50.0190476 18.7365079,47.9555556 C18.5714286,47.047619 18.6539683,46.0571429 18.6539683,45.1492063 C18.6539683,44.4063492 18.6539683,43.7460317 18.6539683,42.9206349 C18.4063492,43.0031746 18.2412698,43.0857143 18.1587302,43.168254 C15.352381,44.8190476 12.6285714,46.4698413 9.82222222,48.0380952 C7.26349206,49.4412698 4.20952381,49.6063492 1.81587302,47.6253968 C0.66031746,46.7174603 0,45.5619048 0,44.0761905 C0,34.6666667 0,25.2571429 0,15.847619 C0,15.0222222 0,14.1968254 0,13.3714286 C0,12.2984127 0.495238095,11.5555556 1.32063492,11.0603175 C7.67619048,7.51111111 13.9492063,3.96190476 20.3047619,0.33015873 C20.8,0.0825396825 21.2126984,-3.13638004e-15 21.7079365,0.247619048 C22.1206349,0.495238095 22.2031746,0.907936508 22.1206349,1.32063492 C22.0380952,1.56825397 21.8730159,1.81587302 21.7079365,2.14603175 C22.2031746,2.64126984 22.9460317,2.80634921 23.6063492,2.80634921 C25.0920635,2.88888889 26.5777778,2.80634921 28.0634921,2.80634921 C28.3936508,2.80634921 28.7238095,2.64126984 28.9714286,2.47619048 C29.4666667,2.22857143 29.8793651,2.14603175 30.2920635,2.47619048 C30.7047619,2.80634921 30.7873016,3.21904762 30.7873016,3.7968254 C30.7873016,5.11746032 30.7873016,6.35555556 30.7873016,7.75873016 C31.1174603,7.59365079 31.447619,7.34603175 31.7777778,7.18095238 C34.1714286,5.77777778 36.4825397,4.45714286 38.7936508,3.13650794 C39.5365079,2.72380952 40.031746,2.72380952 40.4444444,3.3015873 C40.8571429,3.7968254 40.6920635,4.37460317 40.1142857,4.95238095 C40.7746032,5.53015873 41.5174603,5.6952381 42.3428571,5.6952381 C43.6634921,5.77777778 44.984127,5.77777778 46.3047619,5.6952381 C46.7174603,5.6952381 47.2126984,5.44761905 47.6253968,5.2 C48.6984127,4.62222222 49.5238095,5.11746032 49.5238095,6.35555556 C49.5238095,16.6730159 49.5238095,27.0730159 49.5238095,37.3904762 C49.5238095,37.6380952 49.5238095,37.8857143 49.5238095,38.1333333 C49.5238095,38.6285714 49.2761905,39.0412698 48.8634921,39.2888889 C42.0126984,43.168254 35.2444444,47.1301587 28.3936508,51.0095238 C27.568254,51.5047619 26.4952381,51.5873016 25.5047619,51.9174603 C25.3396825,52 25.1746032,52 25.0920635,52 C24.5968254,52 24.184127,52 23.7714286,52 Z M47.2952381,7.92380952 C47.047619,8.08888889 46.8825397,8.17142857 46.7174603,8.25396825 C45.8095238,8.74920635 44.984127,9.24444444 44.0761905,9.73968254 C39.5365079,12.3809524 34.9968254,14.9396825 30.5396825,17.6634921 C28.2285714,19.0666667 25.752381,19.3142857 23.1936508,19.0666667 C22.368254,18.984127 21.6253968,18.7365079 20.8,18.6539683 C20.8,18.7365079 20.8,18.9015873 20.8,18.984127 C20.8,20.0571429 20.8,21.2126984 20.8,22.2857143 C20.8,26.5777778 20.8,30.952381 20.8,35.2444444 C20.8,39.1238095 20.8,43.0857143 20.8,46.9650794 C20.8,47.4603175 20.9650794,47.9555556 21.2126984,48.368254 C21.7079365,49.1111111 22.5333333,49.6063492 23.4412698,49.7714286 C24.9269841,50.1015873 26.3301587,49.6888889 27.568254,48.9460317 C33.9238095,45.3142857 40.2793651,41.6825397 46.6349206,38.0507937 C47.047619,37.8031746 47.2126984,37.5555556 47.2126984,37.0603175 C47.2126984,29.1365079 47.2126984,21.2126984 47.2126984,13.2888889 C47.2952381,11.4730159 47.2952381,9.73968254 47.2952381,7.92380952 Z M2.22857143,15.6825397 C2.22857143,15.6825397 2.22857143,15.7650794 2.22857143,15.847619 C2.22857143,25.3396825 2.22857143,34.7492063 2.22857143,44.2412698 C2.22857143,44.984127 2.55873016,45.5619048 3.05396825,45.9746032 C4.95238095,47.4603175 6.93333333,47.2126984 8.83174603,46.2222222 C12.0507937,44.4063492 15.1873016,42.5079365 18.3238095,40.6920635 C18.4888889,40.6095238 18.6539683,40.3619048 18.6539683,40.1142857 C18.6539683,38.5460317 18.6539683,36.9777778 18.6539683,35.4095238 C18.6539683,31.7777778 18.6539683,28.1460317 18.6539683,24.5142857 C18.6539683,21.7904762 18.5714286,18.984127 18.4888889,16.2603175 C18.4888889,16.0952381 18.4888889,16.0126984 18.4888889,15.847619 C18.7365079,15.0222222 19.1492063,14.3619048 19.9746032,13.8666667 C22.6984127,12.2984127 25.5047619,10.7301587 28.2285714,9.24444444 C28.3936508,9.16190476 28.6412698,8.9968254 28.6412698,8.91428571 C28.6412698,7.75873016 28.6412698,6.6031746 28.6412698,5.36507937 C28.3936508,5.44761905 28.2285714,5.53015873 28.1460317,5.61269841 C27.1555556,6.19047619 26.247619,6.68571429 25.2571429,7.26349206 C20.8,9.82222222 16.3428571,12.3809524 11.968254,14.9396825 C9.98730159,16.0952381 7.84126984,16.5079365 5.61269841,16.3428571 C4.45714286,16.0952381 3.38412698,15.847619 2.22857143,15.6825397 Z M19.6444444,3.13650794 C13.784127,6.43809524 7.92380952,9.73968254 2.06349206,13.0412698 C2.22857143,13.2063492 2.31111111,13.2888889 2.39365079,13.2888889 C4.12698413,13.9492063 5.86031746,14.1968254 7.67619048,14.031746 C8.58412698,13.9492063 9.49206349,13.7015873 10.2349206,13.2888889 C14.7746032,10.7301587 19.3142857,8.08888889 23.7714286,5.44761905 C23.9365079,5.36507937 24.1015873,5.28253968 24.2666667,5.11746032 C22.615873,4.78730159 20.8,4.7047619 19.6444444,3.13650794 Z M38.215873,6.02539683 C38.0507937,6.10793651 37.8857143,6.19047619 37.7206349,6.27301587 C34.9968254,7.84126984 32.1904762,9.40952381 29.4666667,10.9777778 C26.7428571,12.5460317 23.9365079,14.031746 21.2126984,15.6 C21.047619,15.6825397 20.9650794,15.847619 20.8825397,16.0126984 C21.047619,16.0952381 21.1301587,16.2603175 21.2952381,16.3428571 C24.184127,17.3333333 26.9904762,17.415873 29.7968254,15.6825397 C33.8412698,13.2063492 37.968254,10.8952381 42.0952381,8.5015873 C42.3428571,8.33650794 42.5904762,8.17142857 42.9206349,8.00634921 C41.1047619,7.67619048 39.2888889,7.59365079 38.215873,6.02539683 Z" id="XMLID_52_" fill="#44A6F6"></path>
                    <path d="M27.6507937,33.3460317 C27.6507937,29.384127 27.6507937,25.4222222 27.6507937,21.3777778 C27.6507937,20.552381 28.0634921,20.1396825 28.7238095,20.1396825 C29.384127,20.1396825 29.7968254,20.552381 29.7968254,21.3777778 C29.7968254,29.384127 29.7968254,37.3904762 29.7968254,45.3968254 C29.7968254,46.1396825 29.384127,46.6349206 28.7238095,46.6349206 C28.0634921,46.6349206 27.6507937,46.2222222 27.6507937,45.3968254 C27.6507937,41.352381 27.6507937,37.3904762 27.6507937,33.3460317 Z" id="XMLID_43_" fill="#326EAA"></path>
                    <path d="M9.32698413,31.3650794 C9.32698413,27.4857143 9.32698413,23.6063492 9.32698413,19.6444444 C9.32698413,18.9015873 9.73968254,18.3238095 10.4,18.3238095 C11.0603175,18.3238095 11.4730159,18.8190476 11.4730159,19.5619048 C11.4730159,27.3206349 11.4730159,35.0793651 11.4730159,42.9206349 C11.4730159,43.5809524 11.2253968,43.9936508 10.647619,44.1587302 C10.152381,44.3238095 9.73968254,44.0761905 9.49206349,43.6634921 C9.32698413,43.4984127 9.32698413,43.168254 9.32698413,42.9206349 C9.32698413,39.1238095 9.32698413,35.2444444 9.32698413,31.3650794 Z" id="XMLID_42_" fill="#326EAA"></path>
                </g>
            </g>
        </g>
    </g>
</svg>