<?xml version="1.0" encoding="UTF-8" standalone="no"?>
<svg width="99px" height="52px" viewBox="0 0 99 52" version="1.1" xmlns="http://www.w3.org/2000/svg" xmlns:xlink="http://www.w3.org/1999/xlink">
    <!-- Generator: Sketch 48.1 (47250) - http://www.bohemiancoding.com/sketch -->
    <title>bus</title>
    <desc>Created with Sketch.</desc>
    <defs></defs>
    <g id="Почему-INTShop/03-Условия-работы" stroke="none" stroke-width="1" fill="none" fill-rule="evenodd" transform="translate(-449.000000, -1038.000000)">
        <g id="общая" fill-rule="nonzero">
            <g id="ряд-4" transform="translate(96.000000, 977.000000)">
                <g id="bus" transform="translate(352.000000, 61.000000)">
                    <path d="M38.7266187,38.9064748 C36.5609701,38.9064748 34.7985612,40.6688838 34.7985612,42.8345324 C34.7985612,45.000181 36.5609701,46.7625899 38.7266187,46.7625899 C40.8922673,46.7625899 42.6546763,45.000181 42.6546763,42.8345324 C42.6546763,40.6688838 40.8922673,38.9064748 38.7266187,38.9064748 Z M38.7266187,44.1438337 C38.005145,44.1438337 37.4173173,43.5560061 37.4173173,42.8345324 C37.4173173,42.1130587 38.005145,41.525231 38.7266187,41.525231 C39.4480924,41.525231 40.0359201,42.1130587 40.0359201,42.8345324 C40.0360735,43.5560061 39.4480924,44.1438337 38.7266187,44.1438337 Z" id="Shape" fill="#326EAA"></path>
                    <path d="M90.7703147,0 L25.6143885,0 C23.4590525,0 21.705036,1.7498374 21.705036,3.90003809 L21.705036,40.3003428 C21.705036,42.4505435 23.4590525,44.2003809 25.6143885,44.2003809 C26.3336483,44.2003809 26.9174551,43.617965 26.9174551,42.9004189 C26.9174551,42.1828729 26.3336483,41.600457 25.6143885,41.600457 C24.8963504,41.600457 24.3113219,41.0168224 24.3113219,40.3004951 L24.3113219,36.400457 L25.6143885,36.400457 C26.3336483,36.400457 26.9174551,35.8180412 26.9174551,35.1004951 C26.9174551,34.3829491 26.3336483,33.8005332 25.6143885,33.8005332 L24.3113219,33.8005332 L24.3113219,3.90003809 C24.3113219,3.18371078 24.8963504,2.60007617 25.6143885,2.60007617 L81.6483903,2.60007617 L81.6483903,5.2 L28.2206744,5.2 C27.5014146,5.2 26.9176078,5.78241584 26.9176078,6.49996191 C26.9176078,7.21750798 27.5014146,7.79992383 28.2206744,7.79992383 L29.523741,7.79992383 L29.523741,23.4000762 L28.2206744,23.4000762 C27.5014146,23.4000762 26.9176078,23.982492 26.9176078,24.7000381 C26.9176078,25.4175842 27.5014146,26 28.2206744,26 L81.6485431,26 L81.6485431,31.2 C81.6485431,31.9175461 82.2323499,32.4999619 82.9516097,32.4999619 C83.6708694,32.4999619 84.2546763,31.9175461 84.2546763,31.2 L84.2546763,26 L97.2858004,26 L97.2858004,33.8000762 L95.9827338,33.8000762 C95.263474,33.8000762 94.6796672,34.382492 94.6796672,35.1000381 C94.6796672,35.8175842 95.263474,36.4 95.9827338,36.4 L97.2858004,36.4 L97.2858004,40.3000381 C97.2858004,41.0163654 96.7007719,41.6 95.9827338,41.6 L91.969081,41.6 C91.334422,37.1969179 87.5385324,33.7999238 82.9514569,33.7999238 C77.9213725,33.7999238 73.8296853,37.8820145 73.8296853,42.8999619 C73.8296853,47.9180617 77.9215252,52 82.9514569,52 C87.5383797,52 91.334422,48.6030059 91.969081,44.1999238 L95.9827338,44.1999238 C98.1380698,44.1999238 99.8920863,42.4500864 99.8920863,40.2998857 L99.8920863,9.10003809 C99.8920863,3.99753904 95.885,0 90.7703147,0 Z M42.5548652,23.4002285 L32.1300269,23.4002285 L32.1300269,7.80007617 L42.5550179,7.80007617 L42.5550179,23.4002285 L42.5548652,23.4002285 Z M55.586142,23.4002285 L45.1611511,23.4002285 L45.1611511,7.80007617 L55.586142,7.80007617 L55.586142,23.4002285 Z M68.6172662,23.4002285 L58.1922752,23.4002285 L58.1922752,7.80007617 L68.6172662,7.80007617 L68.6172662,23.4002285 Z M81.6483903,23.4002285 L71.2233994,23.4002285 L71.2233994,7.80007617 L81.6483903,7.80007617 L81.6483903,23.4002285 Z M82.9516097,49.4003809 C79.3589758,49.4003809 76.4359712,46.484493 76.4359712,42.9002666 C76.4359712,39.3161925 79.3588231,36.4001523 82.9516097,36.4001523 C86.5442435,36.4001523 89.4672481,39.3160402 89.4672481,42.9002666 C89.4670954,46.484493 86.5442435,49.4003809 82.9516097,49.4003809 Z M97.2858004,23.4002285 L92.8786163,23.4002285 L94.5426872,20.0812352 C94.8645979,19.4391 94.6027018,18.6590924 93.9588803,18.3379486 C93.3138372,18.014215 92.5319667,18.2768582 92.2100559,18.9189933 L89.9647743,23.4000762 L84.2546763,23.4002285 L84.2546763,2.59992383 L90.7703147,2.59992383 C94.485574,2.59992383 97.2859531,5.3936308 97.2859531,9.10003809 L97.2859531,23.4002285 L97.2858004,23.4002285 Z" id="Shape" fill="#44A6F6"></path>
                    <path d="M71.0863309,42.8345324 C71.0863309,42.1118271 70.504969,41.5252237 69.7887213,41.5252237 L47.6245823,41.5252237 C46.9925812,37.0904833 43.212588,33.6690647 38.6447224,33.6690647 C33.635703,33.6690647 29.5611511,37.7805057 29.5611511,42.8345324 C29.5611511,47.8887124 33.6358551,52 38.6447224,52 C43.2124359,52 46.9925812,48.5785814 47.6245823,44.1438411 L69.7885693,44.1438411 C70.504969,44.1438411 71.0863309,43.5572376 71.0863309,42.8345324 Z M38.6447224,49.3812292 C35.0671338,49.3812292 32.1563703,46.444376 32.1563703,42.8343789 C32.1563703,39.2245353 35.0669817,36.2875287 38.6447224,36.2875287 C42.222311,36.2875287 45.1330745,39.2243818 45.1330745,42.8343789 C45.1330745,46.444376 42.222463,49.3812292 38.6447224,49.3812292 Z" id="Shape" fill="#44A6F6"></path>
                    <path d="M82.8705036,38.9064748 C80.704855,38.9064748 78.942446,40.6688838 78.942446,42.8345324 C78.942446,45.000181 80.704855,46.7625899 82.8705036,46.7625899 C85.0361522,46.7625899 86.7985612,45.000181 86.7985612,42.8345324 C86.7985612,40.6688838 85.0361522,38.9064748 82.8705036,38.9064748 Z M82.8705036,44.1438337 C82.1490299,44.1438337 81.5612022,43.5560061 81.5612022,42.8345324 C81.5612022,42.1130587 82.1490299,41.525231 82.8705036,41.525231 C83.5919773,41.525231 84.179805,42.1130587 84.179805,42.8345324 C84.179805,43.5560061 83.5919773,44.1438337 82.8705036,44.1438337 Z" id="Shape" fill="#326EAA"></path>
                    <path d="M72.7698302,36.2877698 C73.4925342,36.2877698 74.0791367,35.7011467 74.0791367,34.9784173 C74.0791367,34.2556878 73.4925342,33.6690647 72.7698302,33.6690647 L49.2013928,33.6690647 C48.4786888,33.6690647 47.8920863,34.2556878 47.8920863,34.9784173 C47.8920863,35.7011467 48.4786888,36.2877698 49.2013928,36.2877698 L72.7698302,36.2877698 Z" id="Shape" fill="#44A6F6"></path>
                    <g id="Group-4" transform="translate(13.081475, 21.081475) rotate(-135.000000) translate(-13.081475, -21.081475) translate(2.081475, 13.581475)" fill="#326EAA">
                        <path d="M0.85773238,5.6 C1.07738509,5.6 1.29703779,5.51648194 1.46463739,5.34887379 L5.34860061,1.46471219 C5.6837998,1.13006793 5.6837998,0.586056489 5.34860061,0.251412227 C5.01340143,-0.0838040758 4.4705618,-0.0838040758 4.13536261,0.251412227 L0.251399387,4.13557383 C-0.0837997957,4.47021809 -0.0837997957,5.01422953 0.251399387,5.34887379 C0.418426966,5.51648194 0.638079673,5.6 0.85773238,5.6 Z" id="Shape"></path>
                        <path d="M4.03079723,9.36937005 C4.1847058,9.52329847 4.38641532,9.6 4.58812484,9.6 C4.78983436,9.6 4.99154388,9.52329847 5.14545245,9.36937005 L9.16913715,5.34516628 C9.47695428,5.0378348 9.47695428,4.53874947 9.16913715,4.23089263 C8.86132002,3.92303579 8.36282435,3.92303579 8.05500722,4.23089263 L4.03132252,8.25509639 C3.7229801,8.56242788 3.7229801,9.0615132 4.03079723,9.36937005 Z" id="Shape"></path>
                        <path d="M11.1604437,3.2 C11.3551823,3.2 11.5499208,3.12595293 11.6985103,2.97735161 L13.3771157,1.2986132 C13.6742948,1.00191774 13.6742948,0.519597432 13.3771157,0.222901973 C13.0799366,-0.0743006577 12.5986688,-0.0743006577 12.3014897,0.222901973 L10.6228843,1.90164038 C10.3257052,2.19833584 10.3257052,2.68065615 10.6228843,2.97735161 C10.7714739,3.12544576 10.9662124,3.2 11.1604437,3.2 Z" id="Shape"></path>
                        <path d="M21.4514202,0.948517149 C21.1295479,0.626636659 20.6082904,0.626636659 20.2864181,0.948517149 L8.33429749,12.9009395 C8.01242513,13.2222707 8.01242513,13.7446398 8.33429749,14.0659711 C8.49523367,14.2269113 8.70615345,14.3071068 8.91707322,14.3071068 C9.127993,14.3071068 9.33891277,14.2269113 9.49984895,14.0659711 L21.4519695,2.11354875 C21.7732926,1.79166826 21.7732926,1.26984836 21.4514202,0.948517149 Z" id="Shape"></path>
                    </g>
                </g>
            </g>
        </g>
    </g>
</svg>