<?xml version="1.0" encoding="UTF-8" standalone="no"?>
<svg width="52px" height="52px" viewBox="0 0 52 52" version="1.1" xmlns="http://www.w3.org/2000/svg" xmlns:xlink="http://www.w3.org/1999/xlink">
    <!-- Generator: Sketch 48.1 (47250) - http://www.bohemiancoding.com/sketch -->
    <title>calendar (3)</title>
    <desc>Created with Sketch.</desc>
    <defs></defs>
    <g id="Почему-Ossystem/03-Условия-работы" stroke="none" stroke-width="1" fill="none" fill-rule="evenodd" transform="translate(-478.000000, -829.000000)">
        <g id="общая">
            <g id="ряд-3" transform="translate(96.000000, 777.000000)">
                <g id="calendar-(3)" transform="translate(382.000000, 52.000000)">
                    <path d="M47.9375,4.07293272 L47.125,4.07293272 L47.125,2.44375963 C47.125,1.09622984 46.0315781,0 44.6875,0 C43.3434219,0 42.25,1.09622984 42.25,2.44375963 L42.25,4.07293272 L9.75,4.07293272 L9.75,2.44375963 C9.75,1.09622984 8.65657812,0 7.3125,0 C5.96842188,0 4.875,1.09622984 4.875,2.44375963 L4.875,4.07293272 L4.0625,4.07293272 C1.8224375,4.07293272 0,5.90005033 0,8.14586543 L0,43.9876733 C0,46.2334884 1.8224375,48.0606061 4.0625,48.0606061 L13,48.0606061 C13.4487031,48.0606061 13.8125,47.6958749 13.8125,47.2460195 C13.8125,46.7961641 13.4487031,46.431433 13,46.431433 L4.0625,46.431433 C2.71842187,46.431433 1.625,45.3352031 1.625,43.9876733 L1.625,13.0333847 L40.625,13.0333847 C41.0737031,13.0333847 41.4375,12.6686536 41.4375,12.2187982 C41.4375,11.7689427 41.0737031,11.4042116 40.625,11.4042116 L1.625,11.4042116 L1.625,8.14586543 C1.625,6.79833564 2.71842187,5.7021058 4.0625,5.7021058 L4.875,5.7021058 L4.875,7.33127889 C4.875,8.67880868 5.96842187,9.77503852 7.3125,9.77503852 C8.65657813,9.77503852 9.75,8.67880868 9.75,7.33127889 L9.75,5.7021058 L42.25,5.7021058 L42.25,7.33127889 C42.25,8.67880868 43.3434219,9.77503852 44.6875,9.77503852 C46.0315781,9.77503852 47.125,8.67880868 47.125,7.33127889 L47.125,5.7021058 L47.9375,5.7021058 C49.2815781,5.7021058 50.375,6.79833564 50.375,8.14586543 L50.375,11.4042116 L48.75,11.4042116 C48.3012969,11.4042116 47.9375,11.7689427 47.9375,12.2187982 C47.9375,12.6686536 48.3012969,13.0333847 48.75,13.0333847 L50.375,13.0333847 L50.375,43.9876733 C50.375,45.3352031 49.2815781,46.431433 47.9375,46.431433 L38.9997969,46.431433 C38.5510937,46.431433 38.1872969,46.7961641 38.1872969,47.2460195 C38.1872969,47.6958749 38.5510937,48.0606061 38.9997969,48.0606061 L47.9375,48.0606061 C50.1775625,48.0606061 52,46.2334884 52,43.9876733 L52,8.14586543 C52,5.90005033 50.1775625,4.07293272 47.9375,4.07293272 Z M8.125,7.33127889 C8.125,7.78042155 7.76049219,8.14586543 7.3125,8.14586543 C6.86450781,8.14586543 6.5,7.78042155 6.5,7.33127889 L6.5,4.88853749 C6.5,4.88823202 6.5,4.88782473 6.5,4.88751926 C6.5,4.88721379 6.5,4.88690832 6.5,4.88650103 L6.5,2.44375963 C6.5,1.99461697 6.86450781,1.62917309 7.3125,1.62917309 C7.76049219,1.62917309 8.125,1.99461697 8.125,2.44375963 L8.125,7.33127889 Z M44.6875,8.14586543 C44.2395078,8.14586543 43.875,7.78042155 43.875,7.33127889 L43.875,2.44375963 C43.875,1.99461697 44.2395078,1.62917309 44.6875,1.62917309 C45.1354922,1.62917309 45.5,1.99461697 45.5,2.44375963 L45.5,4.88558462 C45.5,4.88629738 45.4998984,4.88690832 45.4998984,4.88751926 C45.4998984,4.8881302 45.5,4.88884296 45.5,4.8894539 L45.5,7.33127889 C45.5,7.78042155 45.1354922,8.14586543 44.6875,8.14586543 Z" id="Shape" fill="#44A6F6" fill-rule="nonzero"></path>
                    <rect id="Rectangle-13" fill="#44A6F6" x="1" y="11" width="50" height="2"></rect>
                    <g id="Group-5" transform="translate(7.000000, 18.000000)" fill="#326EAA" fill-rule="nonzero">
                        <path d="M18.2121212,2.48484848 L19.7878788,2.48484848 C20.2229848,2.48484848 20.5757576,2.13207576 20.5757576,1.6969697 C20.5757576,1.26186364 20.2229848,0.909090909 19.7878788,0.909090909 L18.2121212,0.909090909 C17.7770152,0.909090909 17.4242424,1.26186364 17.4242424,1.6969697 C17.4242424,2.13207576 17.7770152,2.48484848 18.2121212,2.48484848 Z" id="Shape"></path>
                        <path d="M18.2121212,6.42424242 L19.7878788,6.42424242 C20.2229848,6.42424242 20.5757576,6.0714697 20.5757576,5.63636364 C20.5757576,5.20125758 20.2229848,4.84848485 19.7878788,4.84848485 L18.2121212,4.84848485 C17.7770152,4.84848485 17.4242424,5.20125758 17.4242424,5.63636364 C17.4242424,6.0714697 17.7770152,6.42424242 18.2121212,6.42424242 Z" id="Shape"></path>
                        <path d="M23.7272727,2.48484848 L25.3030303,2.48484848 C25.7381364,2.48484848 26.0909091,2.13207576 26.0909091,1.6969697 C26.0909091,1.26186364 25.7381364,0.909090909 25.3030303,0.909090909 L23.7272727,0.909090909 C23.2921667,0.909090909 22.9393939,1.26186364 22.9393939,1.6969697 C22.9393939,2.13207576 23.2921667,2.48484848 23.7272727,2.48484848 Z" id="Shape"></path>
                        <path d="M23.7272727,6.42424242 L25.3030303,6.42424242 C25.7381364,6.42424242 26.0909091,6.0714697 26.0909091,5.63636364 C26.0909091,5.20125758 25.7381364,4.84848485 25.3030303,4.84848485 L23.7272727,4.84848485 C23.2921667,4.84848485 22.9393939,5.20125758 22.9393939,5.63636364 C22.9393939,6.0714697 23.2921667,6.42424242 23.7272727,6.42424242 Z" id="Shape"></path>
                        <path d="M12.6969697,2.48484848 L14.2727273,2.48484848 C14.7078333,2.48484848 15.0606061,2.13207576 15.0606061,1.6969697 C15.0606061,1.26186364 14.7078333,0.909090909 14.2727273,0.909090909 L12.6969697,0.909090909 C12.2618636,0.909090909 11.9090909,1.26186364 11.9090909,1.6969697 C11.9090909,2.13207576 12.2618636,2.48484848 12.6969697,2.48484848 Z" id="Shape"></path>
                        <path d="M12.6969697,6.42424242 L14.2727273,6.42424242 C14.7078333,6.42424242 15.0606061,6.0714697 15.0606061,5.63636364 C15.0606061,5.20125758 14.7078333,4.84848485 14.2727273,4.84848485 L12.6969697,4.84848485 C12.2618636,4.84848485 11.9090909,5.20125758 11.9090909,5.63636364 C11.9090909,6.0714697 12.2618636,6.42424242 12.6969697,6.42424242 Z" id="Shape"></path>
                        <path d="M6.39393939,2.48484848 L7.96969697,2.48484848 C8.40480303,2.48484848 8.75757576,2.13207576 8.75757576,1.6969697 C8.75757576,1.26186364 8.40480303,0.909090909 7.96969697,0.909090909 L6.39393939,0.909090909 C5.95883333,0.909090909 5.60606061,1.26186364 5.60606061,1.6969697 C5.60606061,2.13207576 5.95883333,2.48484848 6.39393939,2.48484848 Z" id="Shape"></path>
                        <path d="M6.39393939,6.42424242 L7.96969697,6.42424242 C8.40480303,6.42424242 8.75757576,6.0714697 8.75757576,5.63636364 C8.75757576,5.20125758 8.40480303,4.84848485 7.96969697,4.84848485 L6.39393939,4.84848485 C5.95883333,4.84848485 5.60606061,5.20125758 5.60606061,5.63636364 C5.60606061,6.0714697 5.95883333,6.42424242 6.39393939,6.42424242 Z" id="Shape"></path>
                        <path d="M6.39393939,10.3636364 L7.96969697,10.3636364 C8.40480303,10.3636364 8.75757576,10.0108636 8.75757576,9.57575758 C8.75757576,9.14065152 8.40480303,8.78787879 7.96969697,8.78787879 L6.39393939,8.78787879 C5.95883333,8.78787879 5.60606061,9.14065152 5.60606061,9.57575758 C5.60606061,10.0108636 5.95883333,10.3636364 6.39393939,10.3636364 Z" id="Shape"></path>
                        <path d="M5.83651515,14.0725758 C5.98325758,14.2193182 6.18712121,14.3030303 6.39393939,14.3030303 C6.60174242,14.3030303 6.80462121,14.2193182 6.95136364,14.0725758 C7.09810606,13.9258333 7.18181818,13.7219697 7.18181818,13.5151515 C7.18181818,13.3083333 7.09810606,13.1044697 6.95136364,12.9577273 C6.80462121,12.8109848 6.60174242,12.7272727 6.39393939,12.7272727 C6.18613636,12.7272727 5.98325758,12.8109848 5.83651515,12.9577273 C5.68977273,13.1044697 5.60606061,13.3073485 5.60606061,13.5151515 C5.60606061,13.7229545 5.68977273,13.9258333 5.83651515,14.0725758 Z" id="Shape"></path>
                        <path d="M29.2424242,2.48484848 L30.8181818,2.48484848 C31.2532879,2.48484848 31.6060606,2.13207576 31.6060606,1.6969697 C31.6060606,1.26186364 31.2532879,0.909090909 30.8181818,0.909090909 L29.2424242,0.909090909 C28.8073182,0.909090909 28.4545455,1.26186364 28.4545455,1.6969697 C28.4545455,2.13207576 28.8073182,2.48484848 29.2424242,2.48484848 Z" id="Shape"></path>
                        <path d="M29.2424242,6.42424242 L30.8181818,6.42424242 C31.2532879,6.42424242 31.6060606,6.0714697 31.6060606,5.63636364 C31.6060606,5.20125758 31.2532879,4.84848485 30.8181818,4.84848485 L29.2424242,4.84848485 C28.8073182,4.84848485 28.4545455,5.20125758 28.4545455,5.63636364 C28.4545455,6.0714697 28.8073182,6.42424242 29.2424242,6.42424242 Z" id="Shape"></path>
                        <path d="M29.2424242,10.3636364 L30.8181818,10.3636364 C31.2532879,10.3636364 31.6060606,10.0108636 31.6060606,9.57575758 C31.6060606,9.14065152 31.2532879,8.78787879 30.8181818,8.78787879 L29.2424242,8.78787879 C28.8073182,8.78787879 28.4545455,9.14065152 28.4545455,9.57575758 C28.4545455,10.0108636 28.8073182,10.3636364 29.2424242,10.3636364 Z" id="Shape"></path>
                        <path d="M30.2607576,12.9577273 C30.1140152,13.1044697 30.030303,13.3073485 30.030303,13.5151515 C30.030303,13.7229545 30.1140152,13.9258333 30.2607576,14.0725758 C30.4075,14.2193182 30.6103788,14.3030303 30.8181818,14.3030303 C31.0259848,14.3030303 31.2288636,14.2193182 31.3756061,14.0725758 C31.5223485,13.9258333 31.6060606,13.7219697 31.6060606,13.5151515 C31.6060606,13.3073485 31.5223485,13.1044697 31.3756061,12.9577273 C31.2288636,12.8109848 31.025,12.7272727 30.8181818,12.7272727 C30.6103788,12.7272727 30.4075,12.8109848 30.2607576,12.9577273 Z" id="Shape"></path>
                        <path d="M34.7575758,1.6969697 C34.7575758,2.13207576 35.1103485,2.48484848 35.5454545,2.48484848 L37.1212121,2.48484848 C37.5563182,2.48484848 37.9090909,2.13207576 37.9090909,1.6969697 C37.9090909,1.26186364 37.5563182,0.909090909 37.1212121,0.909090909 L35.5454545,0.909090909 C35.1103485,0.909090909 34.7575758,1.26186364 34.7575758,1.6969697 Z" id="Shape"></path>
                        <path d="M35.5454545,6.42424242 L37.1212121,6.42424242 C37.5563182,6.42424242 37.9090909,6.0714697 37.9090909,5.63636364 C37.9090909,5.20125758 37.5563182,4.84848485 37.1212121,4.84848485 L35.5454545,4.84848485 C35.1103485,4.84848485 34.7575758,5.20125758 34.7575758,5.63636364 C34.7575758,6.0714697 35.1103485,6.42424242 35.5454545,6.42424242 Z" id="Shape"></path>
                        <path d="M35.5454545,10.3636364 L37.1212121,10.3636364 C37.5563182,10.3636364 37.9090909,10.0108636 37.9090909,9.57575758 C37.9090909,9.14065152 37.5563182,8.78787879 37.1212121,8.78787879 L35.5454545,8.78787879 C35.1103485,8.78787879 34.7575758,9.14065152 34.7575758,9.57575758 C34.7575758,10.0108636 35.1103485,10.3636364 35.5454545,10.3636364 Z" id="Shape"></path>
                        <path d="M35.5454545,14.3030303 L37.1212121,14.3030303 C37.5563182,14.3030303 37.9090909,13.9502576 37.9090909,13.5151515 C37.9090909,13.0800455 37.5563182,12.7272727 37.1212121,12.7272727 L35.5454545,12.7272727 C35.1103485,12.7272727 34.7575758,13.0800455 34.7575758,13.5151515 C34.7575758,13.9502576 35.1103485,14.3030303 35.5454545,14.3030303 Z" id="Shape"></path>
                        <path d="M35.5454545,18.2424242 L37.1212121,18.2424242 C37.5563182,18.2424242 37.9090909,17.8896515 37.9090909,17.4545455 C37.9090909,17.0194394 37.5563182,16.6666667 37.1212121,16.6666667 L35.5454545,16.6666667 C35.1103485,16.6666667 34.7575758,17.0194394 34.7575758,17.4545455 C34.7575758,17.8896515 35.1103485,18.2424242 35.5454545,18.2424242 Z" id="Shape"></path>
                        <path d="M35.5454545,22.969697 L37.1212121,22.969697 C37.5563182,22.969697 37.9090909,22.6169242 37.9090909,22.1818182 C37.9090909,21.7467121 37.5563182,21.3939394 37.1212121,21.3939394 L35.5454545,21.3939394 C35.1103485,21.3939394 34.7575758,21.7467121 34.7575758,22.1818182 C34.7575758,22.6169242 35.1103485,22.969697 35.5454545,22.969697 Z" id="Shape"></path>
                        <path d="M2.45454545,0.909090909 L0.878787879,0.909090909 C0.443681818,0.909090909 0.0909090909,1.26186364 0.0909090909,1.6969697 C0.0909090909,2.13207576 0.443681818,2.48484848 0.878787879,2.48484848 L2.45454545,2.48484848 C2.88965152,2.48484848 3.24242424,2.13207576 3.24242424,1.6969697 C3.24242424,1.26186364 2.88965152,0.909090909 2.45454545,0.909090909 Z" id="Shape"></path>
                        <path d="M2.45454545,4.84848485 L0.878787879,4.84848485 C0.443681818,4.84848485 0.0909090909,5.20125758 0.0909090909,5.63636364 C0.0909090909,6.0714697 0.443681818,6.42424242 0.878787879,6.42424242 L2.45454545,6.42424242 C2.88965152,6.42424242 3.24242424,6.0714697 3.24242424,5.63636364 C3.24242424,5.20125758 2.88965152,4.84848485 2.45454545,4.84848485 Z" id="Shape"></path>
                        <path d="M2.45454545,8.78787879 L0.878787879,8.78787879 C0.443681818,8.78787879 0.0909090909,9.14065152 0.0909090909,9.57575758 C0.0909090909,10.0108636 0.443681818,10.3636364 0.878787879,10.3636364 L2.45454545,10.3636364 C2.88965152,10.3636364 3.24242424,10.0108636 3.24242424,9.57575758 C3.24242424,9.14065152 2.88965152,8.78787879 2.45454545,8.78787879 Z" id="Shape"></path>
                        <path d="M2.45454545,12.7272727 L0.878787879,12.7272727 C0.443681818,12.7272727 0.0909090909,13.0800455 0.0909090909,13.5151515 C0.0909090909,13.9502576 0.443681818,14.3030303 0.878787879,14.3030303 L2.45454545,14.3030303 C2.88965152,14.3030303 3.24242424,13.9502576 3.24242424,13.5151515 C3.24242424,13.0800455 2.88965152,12.7272727 2.45454545,12.7272727 Z" id="Shape"></path>
                        <path d="M2.45454545,16.6666667 L0.878787879,16.6666667 C0.443681818,16.6666667 0.0909090909,17.0194394 0.0909090909,17.4545455 C0.0909090909,17.8896515 0.443681818,18.2424242 0.878787879,18.2424242 L2.45454545,18.2424242 C2.88965152,18.2424242 3.24242424,17.8896515 3.24242424,17.4545455 C3.24242424,17.0194394 2.88965152,16.6666667 2.45454545,16.6666667 Z" id="Shape"></path>
                        <path d="M2.45454545,21.3939394 L0.878787879,21.3939394 C0.443681818,21.3939394 0.0909090909,21.7467121 0.0909090909,22.1818182 C0.0909090909,22.6169242 0.443681818,22.969697 0.878787879,22.969697 L2.45454545,22.969697 C2.88965152,22.969697 3.24242424,22.6169242 3.24242424,22.1818182 C3.24242424,21.7467121 2.88965152,21.3939394 2.45454545,21.3939394 Z" id="Shape"></path>
                    </g>
                    <path d="M26.3939394,27.5757576 C19.6601758,27.5757576 14.1818182,33.0541152 14.1818182,39.7878788 C14.1818182,46.5216424 19.6601758,52 26.3939394,52 C33.127703,52 38.6060606,46.5216424 38.6060606,39.7878788 C38.6060606,33.0541152 33.127703,27.5757576 26.3939394,27.5757576 Z M27.2080808,50.340678 L27.2080808,49.5575758 C27.2080808,49.1079662 26.843549,48.7434343 26.3939394,48.7434343 C25.9443298,48.7434343 25.579798,49.1079662 25.579798,49.5575758 L25.579798,50.340678 C20.3914783,49.9441912 16.237627,45.7902381 15.8411402,40.6020202 L16.6242424,40.6020202 C17.073852,40.6020202 17.4383838,40.2374884 17.4383838,39.7878788 C17.4383838,39.3382692 17.073852,38.9737374 16.6242424,38.9737374 L15.8411402,38.9737374 C16.237627,33.7854177 20.3915801,29.6315664 25.579798,29.2350795 L25.579798,30.0181818 C25.579798,30.4677914 25.9443298,30.8323232 26.3939394,30.8323232 C26.843549,30.8323232 27.2080808,30.4677914 27.2080808,30.0181818 L27.2080808,29.2350795 C32.3964005,29.6315664 36.5502518,33.7855194 36.9467386,38.9737374 L36.1636364,38.9737374 C35.7140268,38.9737374 35.3494949,39.3382692 35.3494949,39.7878788 C35.3494949,40.2374884 35.7140268,40.6020202 36.1636364,40.6020202 L36.9467386,40.6020202 C36.5502518,45.7903399 32.3964005,49.9441912 27.2080808,50.340678 Z" id="Shape" fill="#44A6F6" fill-rule="nonzero"></path>
                    <path d="M32.3030303,38.6060606 L28.2281212,38.6060606 C27.9903788,37.9356742 27.4583636,37.4036591 26.7878788,37.1658182 L26.7878788,33.0909091 C26.7878788,32.655803 26.4351061,32.3030303 26,32.3030303 C25.5648939,32.3030303 25.2121212,32.655803 25.2121212,33.0909091 L25.2121212,37.1658182 C24.2951288,37.4910152 23.6363636,38.3668409 23.6363636,39.3939394 C23.6363636,40.6972879 24.6966515,41.7575758 26,41.7575758 C27.0270985,41.7575758 27.9029242,41.0988106 28.2281212,40.1818182 L32.3030303,40.1818182 C32.7381364,40.1818182 33.0909091,39.8290455 33.0909091,39.3939394 C33.0909091,38.9588333 32.7381364,38.6060606 32.3030303,38.6060606 Z M26,40.1818182 C25.5655833,40.1818182 25.2121212,39.8283561 25.2121212,39.3939394 C25.2121212,38.9595227 25.5655833,38.6060606 26,38.6060606 C26.4344167,38.6060606 26.7878788,38.9595227 26.7878788,39.3939394 C26.7878788,39.8283561 26.4344167,40.1818182 26,40.1818182 Z" id="Shape" fill="#326EAA" fill-rule="nonzero"></path>
                </g>
            </g>
        </g>
    </g>
</svg>