<?xml version="1.0" encoding="UTF-8" standalone="no"?>
<svg width="51px" height="52px" viewBox="0 0 51 52" version="1.1" xmlns="http://www.w3.org/2000/svg" xmlns:xlink="http://www.w3.org/1999/xlink">
    <!-- Generator: Sketch 48.1 (47250) - http://www.bohemiancoding.com/sketch -->
    <title>confetti</title>
    <desc>Created with Sketch.</desc>
    <defs></defs>
    <g id="Почему-Ossystem/03-Условия-работы" stroke="none" stroke-width="1" fill="none" fill-rule="evenodd" transform="translate(-751.000000, -627.000000)">
        <g id="общая" fill-rule="nonzero">
            <g id="ряд-2" transform="translate(96.000000, 577.000000)">
                <g id="confetti" transform="translate(655.000000, 50.000000)">
                    <path d="M44.305296,44.0623053 L43.4143302,44.0623053 L43.4143302,43.1713396 C43.4143302,42.679549 43.0160947,42.2803738 42.5233645,42.2803738 C42.0306342,42.2803738 41.6323988,42.679549 41.6323988,43.1713396 L41.6323988,44.0623053 L40.741433,44.0623053 C40.2487028,44.0623053 39.8504673,44.4614805 39.8504673,44.953271 C39.8504673,45.4450616 40.2487028,45.8442368 40.741433,45.8442368 L41.6323988,45.8442368 L41.6323988,46.7352025 C41.6323988,47.226993 42.0306342,47.6261682 42.5233645,47.6261682 C43.0160947,47.6261682 43.4143302,47.226993 43.4143302,46.7352025 L43.4143302,45.8442368 L44.305296,45.8442368 C44.7980262,45.8442368 45.1962617,45.4450616 45.1962617,44.953271 C45.1962617,44.4614805 44.7980262,44.0623053 44.305296,44.0623053 Z" id="Shape" fill="#326EAA"></path>
                    <path d="M41.0837141,5.08477947 C41.2574337,5.258511 41.4855452,5.34579439 41.7135522,5.34579439 C41.9416637,5.34579439 42.1696707,5.258511 42.3433904,5.08477947 L43.4953271,3.93276402 L44.6472638,5.08477947 C44.8209835,5.258511 45.0490949,5.34579439 45.277102,5.34579439 C45.5052134,5.34579439 45.7332205,5.258511 45.9069401,5.08477947 C46.255319,4.73648116 46.255319,4.17331537 45.9069401,3.82501706 L44.7550034,2.6730016 L45.9069401,1.52098615 C46.255319,1.17258343 46.255319,0.609522043 45.9069401,0.261223733 C45.5586656,-0.0870745776 44.9955383,-0.0870745776 44.6472638,0.261223733 L43.4953271,1.41323919 L42.3433904,0.261223733 C41.9950115,-0.0870745776 41.4319886,-0.0870745776 41.0837141,0.261223733 C40.7353352,0.609626449 40.7353352,1.17268784 41.0837141,1.52098615 L42.2356508,2.6730016 L41.0837141,3.82501706 C40.7353352,4.17331537 40.7353352,4.73637676 41.0837141,5.08477947 Z" id="Shape" fill="#326EAA"></path>
                    <path d="M34.9906542,14.0934579 C34.9906542,14.6299567 35.4250929,15.0654206 35.9626168,15.0654206 C36.5001407,15.0654206 36.9345794,14.6299567 36.9345794,14.0934579 C36.9345794,13.5569592 36.5001407,13.1214953 35.9626168,13.1214953 C35.4250929,13.1214953 34.9906542,13.5569592 34.9906542,14.0934579 Z" id="Shape" fill="#326EAA"></path>
                    <path d="M28.1869159,8.74766355 C28.7244398,8.74766355 29.1588785,8.3121997 29.1588785,7.77570093 C29.1588785,7.23920217 28.7244398,6.80373832 28.1869159,6.80373832 C27.649392,6.80373832 27.2149533,7.23920217 27.2149533,7.77570093 C27.2149533,8.3121997 27.649392,8.74766355 28.1869159,8.74766355 Z" id="Shape" fill="#326EAA"></path>
                    <path d="M43.7383178,20.8971963 C43.7383178,21.433695 44.1727565,21.8691589 44.7102804,21.8691589 C45.2478043,21.8691589 45.682243,21.433695 45.682243,20.8971963 C45.682243,20.3606975 45.2478043,19.9252336 44.7102804,19.9252336 C44.1727565,19.9252336 43.7383178,20.3606975 43.7383178,20.8971963 Z" id="Shape" fill="#326EAA"></path>
                    <path d="M35.4766355,24.2990654 C35.4766355,24.8355642 35.9110742,25.271028 36.4485981,25.271028 C36.986122,25.271028 37.4205607,24.8355642 37.4205607,24.2990654 C37.4205607,23.7625667 36.986122,23.3271028 36.4485981,23.3271028 C35.9110742,23.3271028 35.4766355,23.7625667 35.4766355,24.2990654 Z" id="Shape" fill="#326EAA"></path>
                    <path d="M49.5700935,6.80373832 C49.0325695,6.80373832 48.5981308,7.23920217 48.5981308,7.77570093 C48.5981308,8.3121997 49.0325695,8.74766355 49.5700935,8.74766355 C50.1076174,8.74766355 50.5420561,8.3121997 50.5420561,7.77570093 C50.5420561,7.23920217 50.1076174,6.80373832 49.5700935,6.80373832 Z" id="Shape" fill="#326EAA"></path>
                    <path d="M47.7299357,13.9854396 C38.6773975,13.9854396 31.31935,22.6352095 29.9123594,24.3999522 L26.5448363,21.0473462 C30.310405,18.5220329 31.1599894,16.0962459 31.1961938,15.9864937 C31.3472152,15.5372589 31.1050725,15.0551186 30.6546524,14.9005138 C30.2042324,14.7476302 29.7122179,14.9851567 29.5533657,15.4318603 C29.5451282,15.4548435 28.7569693,17.5650423 25.2921214,19.8003829 L22.1995895,16.72155 C23.8221797,14.8200221 24.2986345,9.57570928 24.2986345,6.20973866 C24.2986345,5.7328633 23.9107586,5.34579439 23.4308461,5.34579439 C22.9509337,5.34579439 22.5630578,5.7328633 22.5630578,6.20973866 C22.5630578,11.4191211 21.624081,14.7290007 21.0118595,15.5389801 L17.9696681,12.5102646 C17.7665774,12.3080735 17.4759247,12.2199883 17.1938147,12.2726369 C16.9100775,12.327108 16.6731214,12.5162382 16.5594231,12.778874 L7.53708921,33.5803598 C7.53566544,33.583701 7.53403827,33.5870422 7.5327162,33.5904846 L0.0709367876,50.7939407 C-0.0696097307,51.1187424 0.00239239301,51.4972053 0.254094732,51.7468814 C0.419862334,51.9127247 0.64197058,52 0.867638253,52 C0.98387897,52 1.10103497,51.9775231 1.21219079,51.9291268 L13.3444469,46.7132645 C13.3537015,46.7096196 13.3627526,46.7053672 13.3720071,46.7014185 L18.4892428,44.5014133 C18.4958531,44.4987808 18.5022601,44.4958447 18.5086671,44.4930097 L26.3142871,41.1372651 C26.3216094,41.1344302 26.3287282,41.131089 26.3359488,41.1279503 L31.455015,38.9272363 C31.4655916,38.9230852 31.4758631,38.9183266 31.486338,38.9137704 L39.3956899,35.5133757 C39.6594943,35.4001811 39.8503813,35.1643758 39.9042812,34.8827055 C39.9580794,34.6019464 39.8686869,34.31248 39.6655962,34.1094789 L35.6703936,30.1319738 C36.2414274,29.2136597 39.5329821,27.8089529 45.1268759,27.8089529 C45.6067884,27.8089529 45.9946642,27.421884 45.9946642,26.9450087 C45.9946642,26.4681333 45.6067884,26.0810644 45.1268759,26.0810644 C40.6049798,26.0810644 36.0386417,27.0464586 34.4412726,28.9082975 L31.1494128,25.6310196 C31.9851663,24.5695416 39.2191423,15.7133281 47.7303425,15.7133281 C48.210255,15.7133281 48.5981308,15.3262592 48.5981308,14.8493839 C48.5978257,14.3725085 48.2098482,13.9854396 47.7299357,13.9854396 Z M26.1904191,39.3088379 L12.747887,25.9250421 L14.2284052,22.5115864 L29.6196728,37.8346754 L26.1904191,39.3088379 Z M18.3646628,42.6730873 L9.36836356,33.7166389 L12.0077295,27.6314662 L24.4764024,40.0456154 L18.3646628,42.6730873 Z M13.2220027,44.883926 L7.14768789,38.8365186 L8.62820614,35.4231642 L16.6506462,43.4100673 L13.2220027,44.883926 Z M6.40742877,40.5429427 L11.5078843,45.6208048 L2.53111105,49.4798504 L6.40742877,40.5429427 Z M31.3336894,37.0977966 L14.9685626,20.8051624 L17.6460653,14.6322081 L20.2135309,17.1881994 C20.2135309,17.1881994 20.2136326,17.1883006 20.2136326,17.1883006 L24.565083,21.5202729 C24.5655915,21.5207791 24.5662017,21.5213866 24.5667102,21.5218929 L34.0926521,31.0052329 C34.0969235,31.0095865 34.1011948,31.0137376 34.1054661,31.01799 L37.5347198,34.4319519 L31.3336894,37.0977966 Z" id="Shape" fill="#44A6F6"></path>
                    <path d="M32.4832267,13.1214953 L32.4913705,13.1214953 C32.9832763,13.1214953 33.3848602,12.7403445 33.3938501,12.2684388 C33.3956481,12.1456764 33.4940081,9.23554006 37.4687049,6.95187664 C37.8955663,6.70645321 38.0345395,6.17488816 37.7773227,5.76598418 C37.5210578,5.35626988 36.9668573,5.22317604 36.5390441,5.46951106 C31.64558,8.28200474 31.588785,12.0997925 31.588785,12.2605382 C31.5888908,12.7350775 31.9878306,13.1171399 32.4832267,13.1214953 Z" id="Shape" fill="#44A6F6"></path>
                    <path d="M0.874745852,5.24857763 C2.32161834,5.24857763 3.49908592,6.42604521 3.49908592,7.8729177 C3.49908592,8.35575527 3.89007159,8.74766355 4.37383178,8.74766355 C4.85759196,8.74766355 5.24857763,8.35575527 5.24857763,7.8729177 C5.24857763,6.42604521 6.42604521,5.24857763 7.8729177,5.24857763 C8.35667789,5.24857763 8.74766355,4.85666934 8.74766355,4.37383178 C8.74766355,3.89099421 8.35667789,3.49908592 7.8729177,3.49908592 C6.42604521,3.49908592 5.24857763,2.32161834 5.24857763,0.874745852 C5.24857763,0.391908285 4.85759196,0 4.37383178,0 C3.89007159,0 3.49908592,0.391908285 3.49908592,0.874745852 C3.49908592,2.32161834 2.32161834,3.49908592 0.874745852,3.49908592 C0.390985665,3.49908592 0,3.89099421 0,4.37383178 C1.09260104e-15,4.85666934 0.390985665,5.24857763 0.874745852,5.24857763 Z M4.37383178,3.49642058 C4.62314408,3.82794854 4.91879239,4.12451947 5.25124297,4.37383178 C4.91879239,4.62314408 4.62314408,4.91971501 4.37383178,5.25124297 C4.12451947,4.91971501 3.82887116,4.62314408 3.49642058,4.37383178 C3.82887116,4.12451947 4.12451947,3.82794854 4.37383178,3.49642058 Z" id="Shape" fill="#326EAA"></path>
                </g>
            </g>
        </g>
    </g>
</svg>