<?xml version="1.0" encoding="UTF-8" standalone="no"?>
<svg width="57px" height="52px" viewBox="0 0 57 52" version="1.1" xmlns="http://www.w3.org/2000/svg" xmlns:xlink="http://www.w3.org/1999/xlink">
    <!-- Generator: Sketch 48.1 (47250) - http://www.bohemiancoding.com/sketch -->
    <title>desk (2)</title>
    <desc>Created with Sketch.</desc>
    <defs></defs>
    <g id="Почему-INTShop/03-Условия-работы" stroke="none" stroke-width="1" fill="none" fill-rule="evenodd" transform="translate(-204.000000, -429.000000)">
        <g id="общая" fill-rule="nonzero">
            <g id="ряд-1" transform="translate(96.000000, 377.000000)">
                <g id="desk-(2)" transform="translate(108.000000, 52.000000)">
                    <path d="M32.9528846,10.5 L24.0471154,10.5 C23.4653846,10.5 23,11.1222222 23,11.9 C23,12.6777778 23.4653846,13.3 24.0471154,13.3 L32.9528846,13.3 C33.5346154,13.3 34,12.6777778 34,11.9 C34,11.1222222 33.5346154,10.5 32.9528846,10.5 Z" id="Shape" fill="#44A6F6"></path>
                    <path d="M44.8447302,49.6976744 C44.2050881,49.6976744 43.6933743,50.2093023 43.6933743,50.8488372 C43.6933743,51.4883721 44.2050881,52 44.8447302,52 L48.4965055,52 C49.1361476,52 49.6478613,51.4883721 49.6478613,50.8488372 L49.6478613,34.9069767 L52.2413195,34.9069767 C52.8809617,34.9069767 53.3926754,34.3953488 53.3926754,33.755814 L53.3926754,29.5116279 L55.8349455,29.5116279 C56.4745876,29.5116279 56.9863014,29 56.9863014,28.3604651 C56.9863014,27.7209302 56.4745876,27.2093023 55.8349455,27.2093023 L45.8100084,27.2093023 L44.5888734,20.4534884 C44.2981269,18.8604651 42.9141739,17.7093023 41.3092536,17.7093023 L39.9601901,17.7093023 L39.1809897,4.56976744 C39.0298015,2.01162791 36.9015376,0 34.3313391,0 L22.6665921,0 C20.0963936,0 17.9681297,2 17.8169416,4.56976744 L17.0377411,17.7093023 L15.6886777,17.7093023 C14.0721275,17.7093023 12.6881744,18.8604651 12.4090579,20.4534884 L11.1879228,27.2093023 L1.15135588,27.2093023 C0.511713727,27.2093023 0,27.7209302 0,28.3604651 C0,29 0.511713727,29.5116279 1.15135588,29.5116279 L3.59362594,29.5116279 L3.59362594,33.755814 C3.59362594,34.3953488 4.10533967,34.9069767 4.74498183,34.9069767 L7.24540117,34.9069767 L7.24540117,50.8488372 C7.24540117,51.4883721 7.7571149,52 8.39675706,52 L12.0485323,52 C12.6881744,52 13.1998882,51.4883721 13.1998882,50.8488372 C13.1998882,50.2093023 12.6881744,49.6976744 12.0485323,49.6976744 L9.54811294,49.6976744 L9.54811294,34.9069767 L47.3451496,34.9069767 L47.3451496,49.6976744 L44.8447302,49.6976744 Z M41.2976237,20.0116279 C41.7977076,20.0116279 42.2280123,20.372093 42.3210512,20.8604651 L43.472407,27.2093023 L40.5300531,27.2093023 L40.0997484,20.0116279 L41.2976237,20.0116279 Z M20.1196533,4.70930233 C20.2010623,3.36046512 21.3175287,2.31395349 22.6665921,2.31395349 L34.3197093,2.31395349 C35.6687727,2.31395349 36.785239,3.37209302 36.866648,4.70930233 L38.2157115,27.2093023 L18.7705899,27.2093023 L20.1196533,4.70930233 Z M14.6652502,20.8604651 C14.7582891,20.372093 15.1769639,20.0116279 15.6886777,20.0116279 L16.8981828,20.0116279 L16.4678781,27.2093023 L13.5255242,27.2093023 L14.6652502,20.8604651 Z M5.89633771,32.6046512 L5.89633771,29.5116279 L12.1415711,29.5116279 L44.8447302,29.5116279 L51.0899637,29.5116279 L51.0899637,32.6046512 L5.89633771,32.6046512 Z" id="Shape" fill="#44A6F6"></path>
                    <path d="M39.9,37.5450039 C39.9,36.9088906 39.3965385,36.4 38.7672115,36.4 L17.2327885,36.4 C16.6034615,36.4 16.1,36.9088906 16.1,37.5450039 C16.1,38.1811172 16.6034615,38.6900079 17.2327885,38.6900079 L26.8672115,38.6900079 L26.8672115,43.0618411 L22.2330769,43.0618411 C21.60375,43.0618411 21.1002885,43.5707317 21.1002885,44.206845 L21.1002885,49.9549961 C21.1002885,50.5911094 21.60375,51.1 22.2330769,51.1 C22.8624038,51.1 23.3658654,50.5911094 23.3658654,49.9549961 L23.3658654,45.3518489 L26.8672115,45.3518489 L26.8672115,49.9549961 C26.8672115,50.5911094 27.3706731,51.1 28,51.1 C28.6293269,51.1 29.1327885,50.5911094 29.1327885,49.9549961 L29.1327885,45.3518489 L32.6341346,45.3518489 L32.6341346,49.9549961 C32.6341346,50.5911094 33.1375962,51.1 33.7669231,51.1 C34.39625,51.1 34.8997115,50.5911094 34.8997115,49.9549961 L34.8997115,44.206845 C34.8997115,43.5707317 34.39625,43.0618411 33.7669231,43.0618411 L29.1327885,43.0618411 L29.1327885,38.6900079 L38.7672115,38.6900079 C39.3965385,38.6900079 39.9,38.1811172 39.9,37.5450039 Z" id="Shape" fill="#326EAA"></path>
                </g>
            </g>
        </g>
    </g>
</svg>