<?xml version="1.0" encoding="UTF-8" standalone="no"?>
<svg width="52px" height="52px" viewBox="0 0 52 52" version="1.1" xmlns="http://www.w3.org/2000/svg" xmlns:xlink="http://www.w3.org/1999/xlink">
    <!-- Generator: Sketch 48.1 (47250) - http://www.bohemiancoding.com/sketch -->
    <title>football (2)</title>
    <desc>Created with Sketch.</desc>
    <defs></defs>
    <g id="Почему-INTShop/03-Условия-работы" stroke="none" stroke-width="1" fill="none" fill-rule="evenodd" transform="translate(-206.000000, -829.000000)">
        <g id="общая" fill-rule="nonzero">
            <g id="ряд-3" transform="translate(96.000000, 777.000000)">
                <g id="football-(2)" transform="translate(110.000000, 52.000000)">
                    <path d="M40.0732242,25.6985 C40.0613158,25.6579004 40.0492476,25.6173008 40.0370195,25.5767813 C40.0117641,25.4933398 39.9863489,25.4098184 39.9600546,25.3265371 C39.9303236,25.232125 39.8996335,25.1381133 39.8685439,25.0442617 C39.8565556,25.0080664 39.8455263,24.9717109 39.8332982,24.9355156 C39.8272242,24.917418 39.8205107,24.8996406 39.8143567,24.881623 C39.7716784,24.7559805 39.7276413,24.6308984 39.6825653,24.5062969 C39.6667407,24.4625742 39.6505965,24.4190117 39.6344522,24.3753691 C39.5948109,24.2679844 39.5542904,24.1610801 39.5128908,24.0544961 C39.4977856,24.015498 39.4829201,23.9763398 39.467575,23.937502 C39.4140273,23.8020098 39.3592807,23.6670781 39.3029357,23.5329473 C39.2837544,23.4871426 39.2637739,23.4418184 39.2442729,23.3961738 C39.2071092,23.3095293 39.1696257,23.223125 39.131423,23.1371211 C39.1010526,23.0688145 39.0703626,23.000748 39.0393528,22.9329219 C39.0143372,22.8783086 38.988922,22.8239355 38.9634269,22.7695625 C37.0067758,18.5855605 33.7206218,15.2109883 29.526154,13.1324004 C26.8988772,11.8305703 24.1048031,11.121959 21.2109064,11.0191387 C21.2105867,11.0191387 21.2102671,11.0191387 21.2098674,11.0191387 C21.1035712,11.015375 20.9970351,11.0125723 20.890499,11.0104902 C20.8349532,11.0093691 20.7793275,11.0088086 20.7237018,11.008168 C20.6407427,11.007127 20.5579435,11.0046445 20.4747446,11.0046445 C16.7170507,11.0046445 13.0307271,12.0406953 9.81450487,14.0008477 C8.5744347,14.756625 7.42555556,15.6383652 6.38297271,16.6295723 C6.37889669,16.6333359 6.37442105,16.6366191 6.37042495,16.6404629 C6.28954386,16.717418 6.21002144,16.7956543 6.13049903,16.8738906 C6.12866082,16.8756523 6.12682261,16.8774141 6.12506433,16.8791758 C6.04650097,16.9565313 5.96873684,17.0346875 5.89153216,17.1132441 C5.88066277,17.124375 5.86971345,17.1353457 5.85884405,17.1464766 C5.02277973,18.0006699 4.2654386,18.9245313 3.59185575,19.9114941 C3.59169591,19.9117344 3.59145614,19.9120547 3.5912963,19.912375 C3.52544055,20.0087891 3.46038402,20.1059238 3.39612671,20.2035391 C3.39021248,20.2125078 3.38445809,20.2215566 3.37854386,20.2305254 C3.20535283,20.4947031 3.03823587,20.7632051 2.87695322,21.0360313 C2.85337622,21.0759102 2.82947953,21.1156289 2.80606238,21.155748 C2.76969786,21.2181289 2.73405263,21.2809902 2.69832749,21.3438516 C2.66396101,21.4041504 2.62983431,21.4646094 2.59610721,21.5253086 C2.565577,21.5803223 2.53528655,21.635416 2.50523587,21.6906699 C2.46479532,21.7650625 2.42499415,21.8398555 2.38543275,21.9148086 C2.36161598,21.9599727 2.33755945,22.0048965 2.31406238,22.0502207 C2.25372125,22.1666543 2.19417934,22.2836484 2.13591618,22.4013633 C2.13335867,22.4064082 2.13072125,22.4114531 2.12824366,22.416498 C2.12520663,22.4227441 2.12240936,22.4289902 2.11937232,22.4352363 C2.04144834,22.5934707 1.96584211,22.7525059 1.892154,22.9119414 C1.87409162,22.9510996 1.8569883,22.9906582 1.83916569,23.0299766 C1.77922417,23.1618652 1.72040156,23.2939941 1.66341715,23.4266836 C1.64919103,23.459916 1.63552437,23.4932285 1.62153801,23.526541 C1.56023782,23.6714023 1.50053606,23.8166641 1.44275244,23.9623262 C1.43531969,23.9811445 1.42796686,23.9999629 1.42061404,24.0187813 C-0.249756335,28.2652441 -0.454836257,32.8966426 0.846374269,37.2993379 C0.858762183,37.341459 0.871230019,37.3835 0.8838577,37.4254609 C0.90871345,37.5077813 0.933808967,37.5900215 0.959783626,37.6721816 C0.990473684,37.7697969 1.02220273,37.8669316 1.05433138,37.9639863 C1.06544055,37.997459 1.07567057,38.0311719 1.08693957,38.0646445 C1.09221442,38.0803398 1.09804873,38.0957949 1.10340351,38.1114102 C1.14712086,38.2402559 1.1922768,38.3684609 1.23847173,38.4961055 C1.25365692,38.5379063 1.26900195,38.5795469 1.2844269,38.6212676 C1.32502729,38.7312949 1.36650682,38.8409219 1.40894542,38.9499883 C1.42325146,38.9868242 1.43723782,39.0237402 1.45178363,39.060416 C1.50581092,39.1972695 1.56111696,39.3335625 1.61802144,39.4689746 C1.63592398,39.5117363 1.65462573,39.5540977 1.67292788,39.5966992 C1.71137037,39.6865469 1.7502924,39.7762344 1.79001365,39.8655215 C1.81950487,39.9319063 1.84939571,39.9980508 1.87952632,40.0640352 C1.90582066,40.1215313 1.93267446,40.1787871 1.95944834,40.2359629 C3.91625926,44.4173223 7.20137427,47.7898926 11.393924,49.8675195 C14.1197446,51.2182773 17.0250702,51.930252 20.0353333,51.9895898 C20.0839259,51.9905508 20.1325984,51.9910313 20.181271,51.9916719 C20.2692651,51.992793 20.3570195,51.9954355 20.4452534,51.9954355 C24.2029474,51.9954355 27.889271,50.9593848 31.1054932,48.9991523 C32.3457232,48.2432949 33.4946823,47.3614746 34.5375049,46.3700273 C34.5414211,46.3664238 34.5457368,46.3632207 34.549653,46.359457 C34.6281365,46.2847441 34.7052612,46.2088301 34.7824659,46.132916 C34.7871014,46.1284316 34.7917368,46.1240273 34.7962924,46.1194629 C34.8737368,46.0432285 34.9503021,45.9661934 35.0264678,45.8887578 C35.0385361,45.8765059 35.0506043,45.8642539 35.0625926,45.852002 C35.9810565,44.914207 36.8040136,43.89225 37.5254698,42.7950195 C37.5301852,42.7878926 37.5347407,42.7806855 37.5394561,42.7735586 C37.7147251,42.5061777 37.8839201,42.2344727 38.0470409,41.9582832 C38.0691793,41.9208066 38.0917173,41.8834902 38.113616,41.8458535 C38.1506199,41.7822715 38.1869844,41.7182891 38.2234288,41.6542266 C38.2569961,41.5951289 38.2904834,41.5358711 38.3235712,41.476373 C38.354501,41.4206387 38.385191,41.3647441 38.4157212,41.3086895 C38.4556823,41.2351777 38.4950838,41.1612656 38.5341657,41.0871934 C38.5583821,41.0413887 38.5827583,40.9956641 38.606655,40.9496992 C38.6668363,40.8335059 38.7262982,40.716752 38.7844016,40.5991973 C38.7869591,40.5940723 38.7895965,40.5890273 38.792154,40.5839023 C38.795191,40.5778164 38.7979084,40.5715703 38.8009454,40.5654844 C38.8790292,40.4070098 38.9547154,40.2478145 39.0284834,40.0879785 C39.0461462,40.0496211 39.0629298,40.0109434 39.0803528,39.9725059 C39.140694,39.8396563 39.1999961,39.7064863 39.2573801,39.5728359 C39.2712066,39.5404844 39.2845536,39.5078926 39.2983002,39.4753809 C39.36,39.3297188 39.4199415,39.1835762 39.4781248,39.0371133 C39.4853177,39.0189355 39.4924308,39.0005977 39.4996238,38.9823398 C41.170154,34.7346758 41.375154,30.1020762 40.0732242,25.6985 Z M37.3720195,23.1480117 C37.3772943,23.1587422 37.3826491,23.1693125 37.387924,23.180043 C37.4240487,23.2541152 37.4593743,23.3285879 37.4946199,23.4031406 C37.5202749,23.4575938 37.5456101,23.512207 37.5707856,23.5669004 C37.5981189,23.6262383 37.6256121,23.6854961 37.652386,23.7452344 C37.7023372,23.8568633 37.7512495,23.9692129 37.7992027,24.082043 C37.8171852,24.1244043 37.8346881,24.1670059 37.8523509,24.2094473 C37.8913528,24.3033789 37.9297953,24.3976309 37.9674386,24.4923633 C37.9812651,24.5272773 37.9954113,24.5621113 38.009078,24.5970254 C38.0575906,24.7213066 38.1049045,24.8461484 38.1509396,24.9717109 C38.1639669,25.0071055 38.1764347,25.0428203 38.1892222,25.0782949 C38.2230292,25.1720664 38.256037,25.2663184 38.2884055,25.3608105 C38.3049493,25.4092578 38.3217329,25.457625 38.3378772,25.5061523 C38.3703255,25.603207 38.401575,25.700502 38.432425,25.797877 C38.463115,25.895252 38.4930058,25.9929473 38.5222573,26.0909629 C38.5320078,26.1233145 38.5416784,26.1557461 38.5511891,26.1881777 C38.6084133,26.3838887 38.6628402,26.5806406 38.7139103,26.7787539 L36.4545146,30.6997793 L29.1493216,30.6996191 L25.4968051,24.360875 L29.1494016,18.0219707 L33.6761053,18.0220508 C35.1951033,19.5163887 36.4403684,21.2484785 37.3720195,23.1480117 Z M27.765152,31.5000801 L24.1125556,37.8389043 L16.8074425,37.8389043 L13.1549259,31.5 L16.8074425,25.1613359 L24.1126355,25.1613359 L27.765152,31.5000801 Z M28.8176452,14.5679609 C29.8855634,15.0971973 30.8888246,15.7185234 31.8208752,16.4204082 L29.1490819,16.4203281 L27.8157427,14.1064707 C28.1525341,14.2500508 28.4865283,14.4038809 28.8176452,14.5679609 Z M15.4138421,13.3008848 C17.065271,12.8405957 18.7665712,12.6074082 20.4757037,12.6074082 C20.5529084,12.6074082 20.6300331,12.6084492 20.7071579,12.6093301 C20.7508752,12.6098906 20.7946725,12.6103711 20.8384698,12.6111719 C22.4169298,12.6417617 23.9830819,12.871666 25.5036784,13.2964004 L27.765232,17.2211094 L24.1126355,23.5598535 L16.8075224,23.5597734 L13.1549259,17.2211094 L15.4138421,13.3008848 Z M13.1180019,14.0822871 L11.7707563,16.4203281 L9.07482651,16.4203281 C10.3182534,15.4754863 11.6756491,14.6898398 13.1180019,14.0822871 Z M2.34611111,26.2568848 C2.35402339,26.2296582 2.36257505,26.2026719 2.37056725,26.1754453 C2.4062924,26.0538867 2.44265692,25.9323281 2.48093957,25.81125 C2.50491618,25.7354961 2.53049123,25.6602227 2.5554269,25.584709 C2.5797232,25.5110371 2.60330019,25.4372051 2.62855556,25.3636133 C2.67251267,25.2358887 2.71838791,25.1087246 2.76506238,24.9819609 C2.77337427,24.9595391 2.78088694,24.936877 2.78927875,24.9144551 C3.01569786,24.3062617 3.27328655,23.708959 3.56108577,23.1261504 C3.61655166,23.0138008 3.67321637,22.902252 3.73068031,22.7913438 C3.74610526,22.7616348 3.76192982,22.7322461 3.7774347,22.7026172 C3.82059259,22.620377 3.86407018,22.538377 3.90834698,22.4568574 C3.92569006,22.4249063 3.9432729,22.3931152 3.96085575,22.3612441 C4.00625146,22.2787637 4.05212671,22.1966035 4.09872125,22.1149238 C4.11318713,22.089459 4.12773294,22.0639941 4.14227875,22.0386094 C4.199423,21.9393926 4.25720663,21.8406563 4.31610916,21.7426406 C4.31946589,21.7369551 4.32282261,21.7311895 4.32625926,21.725584 C5.14210331,20.3696211 6.1191501,19.1289707 7.24413255,18.0218105 L11.771076,18.0218105 L15.4235127,24.3606348 L11.7709961,30.6992988 L4.46580312,30.6992188 L2.20512865,26.7760313 C2.2495653,26.6026621 2.29615984,26.4295332 2.34611111,26.2568848 Z M1.75468811,33.8025664 C1.56591228,32.2826836 1.56023782,30.7330918 1.74901365,29.1876641 L3.08147368,31.5 L1.75468811,33.8025664 Z M2.21216179,36.2116367 L4.46580312,32.3007012 L11.7709961,32.3007813 L15.4235127,38.6395254 L11.7707563,44.9782695 L7.25076608,44.9781895 C4.78229435,42.5460566 3.05989474,39.4984434 2.21216179,36.2116367 Z M12.1022729,48.4321191 C11.0284405,47.9 10.0282164,47.2773926 9.10463743,46.5796719 L11.7708363,46.5796719 L13.1041754,48.8936094 C12.7674639,48.7499492 12.4334698,48.5961992 12.1022729,48.4321191 Z M25.5062359,49.6991953 C23.8547271,50.1595645 22.1534269,50.392752 20.4442144,50.392752 C20.3648519,50.392752 20.2854893,50.3917109 20.2061267,50.39075 C20.1656862,50.3902695 20.1251657,50.3897891 20.0847251,50.3890684 C18.5052261,50.3587188 16.9379552,50.1288945 15.4163197,49.7037598 L13.1547661,45.7789707 L16.8072827,39.4403066 L24.1124756,39.4403066 L27.7650721,45.7790508 L25.5062359,49.6991953 Z M27.8019961,48.917793 L29.1493216,46.5796719 L31.8452515,46.5796719 C30.6018246,47.5245137 29.2444288,48.3102402 27.8019961,48.917793 Z M37.5854912,39.3977852 C37.579577,39.4105176 37.5741423,39.4234102 37.5682281,39.4361426 C37.5003743,39.5829258 37.4306823,39.7288281 37.3590721,39.8738496 C37.303846,39.9857188 37.2475809,40.0965469 37.1904366,40.2066543 C37.1734932,40.2394863 37.1559903,40.271918 37.1388869,40.3045898 C37.0974074,40.3835469 37.0556082,40.4623438 37.0131696,40.5405801 C36.9946277,40.5747734 36.975846,40.6087266 36.9570643,40.6427598 C36.9129474,40.7228379 36.8684308,40.8025957 36.8232749,40.881873 C36.8076901,40.9093398 36.7920253,40.9367266 36.7762807,40.9640332 C36.7208947,41.0602871 36.6647096,41.1560605 36.6077251,41.2511934 C36.6026901,41.2596816 36.597575,41.2683301 36.59246,41.2768184 C35.7769357,42.6317402 34.8004483,43.8716699 33.6761053,44.9781895 L29.1491618,44.9781895 L25.4966452,38.6393652 L29.1492417,32.3007012 L36.4543548,32.3007813 L38.7162281,36.2261309 C38.4353021,37.3111895 38.0557524,38.3745469 37.5854912,39.3977852 Z M39.1780175,33.8248281 L37.8384444,31.5000801 L39.1751404,29.1802969 C39.3695107,30.7283672 39.3696706,32.2863672 39.1780175,33.8248281 Z" id="Shape" fill="#44A6F6"></path>
                    <g id="Group-4" transform="translate(29.600000, 0.000000)" fill="#326EAA">
                        <path d="M0.85773238,5.6 C1.07738509,5.6 1.29703779,5.51648194 1.46463739,5.34887379 L5.34860061,1.46471219 C5.6837998,1.13006793 5.6837998,0.586056489 5.34860061,0.251412227 C5.01340143,-0.0838040758 4.4705618,-0.0838040758 4.13536261,0.251412227 L0.251399387,4.13557383 C-0.0837997957,4.47021809 -0.0837997957,5.01422953 0.251399387,5.34887379 C0.418426966,5.51648194 0.638079673,5.6 0.85773238,5.6 Z" id="Shape"></path>
                        <path d="M4.03079723,9.36937005 C4.1847058,9.52329847 4.38641532,9.6 4.58812484,9.6 C4.78983436,9.6 4.99154388,9.52329847 5.14545245,9.36937005 L9.16913715,5.34516628 C9.47695428,5.0378348 9.47695428,4.53874947 9.16913715,4.23089263 C8.86132002,3.92303579 8.36282435,3.92303579 8.05500722,4.23089263 L4.03132252,8.25509639 C3.7229801,8.56242788 3.7229801,9.0615132 4.03079723,9.36937005 Z" id="Shape"></path>
                        <path d="M11.1604437,3.2 C11.3551823,3.2 11.5499208,3.12595293 11.6985103,2.97735161 L13.3771157,1.2986132 C13.6742948,1.00191774 13.6742948,0.519597432 13.3771157,0.222901973 C13.0799366,-0.0743006577 12.5986688,-0.0743006577 12.3014897,0.222901973 L10.6228843,1.90164038 C10.3257052,2.19833584 10.3257052,2.68065615 10.6228843,2.97735161 C10.7714739,3.12544576 10.9662124,3.2 11.1604437,3.2 Z" id="Shape"></path>
                        <path d="M22.158527,0.241410368 C21.8366547,-0.0804701226 21.3153972,-0.0804701226 20.9935248,0.241410368 L9.04140427,12.1938327 C8.71953191,12.5151639 8.71953191,13.0375331 9.04140427,13.3588643 C9.20234046,13.5198045 9.41326023,13.6 9.62418,13.6 C9.83509978,13.6 10.0460196,13.5198045 10.2069557,13.3588643 L22.1590763,1.40644197 C22.4803994,1.08456148 22.4803994,0.562741574 22.158527,0.241410368 Z" id="Shape"></path>
                    </g>
                </g>
            </g>
        </g>
    </g>
</svg>