<?xml version="1.0" encoding="UTF-8" standalone="no"?>
<svg width="49px" height="52px" viewBox="0 0 49 52" version="1.1" xmlns="http://www.w3.org/2000/svg" xmlns:xlink="http://www.w3.org/1999/xlink">
    <!-- Generator: Sketch 48.1 (47250) - http://www.bohemiancoding.com/sketch -->
    <title>history</title>
    <desc>Created with Sketch.</desc>
    <defs></defs>
    <g id="Почему-Ossystem/03-Условия-работы" stroke="none" stroke-width="1" fill="none" fill-rule="evenodd" transform="translate(-746.000000, -831.000000)">
        <g id="общая" fill-rule="nonzero">
            <g id="ряд-3" transform="translate(96.000000, 777.000000)">
                <g id="history" transform="translate(650.000000, 54.000000)">
                    <path d="M41.214386,10.9931035 C37.0579455,6.85758817 31.6528069,4.41663981 25.8449777,4.01678903 L28.780689,1.09575567 L27.6793889,0 L22.7674825,4.88717795 L27.6793889,9.77435591 L28.780689,8.67860024 L25.6442959,5.55799696 C37.400309,6.32956576 46.7280316,16.0899061 46.7280316,27.9786875 C46.7280316,40.3694915 36.5963569,50.4501593 24.1428571,50.4501593 C11.6893574,50.4501593 1.55768271,40.369593 1.55768271,27.9786875 C1.55768271,27.4803213 1.57432113,26.9763692 1.60698551,26.4811514 L0.0526713159,26.3794875 C0.0177612577,26.9085256 0,27.4466026 0,27.9786875 C0,34.3949875 2.51127851,40.4272804 7.07132831,44.9642716 C11.6313781,49.5012627 17.6940915,52 24.1428571,52 C30.5916227,52 36.6544383,49.5013643 41.214386,44.9642716 C45.7743337,40.4271789 48.2857143,34.3949875 48.2857143,27.9786875 C48.2857143,21.5623876 45.7744358,15.5299931 41.214386,10.9931035 Z" id="Shape" fill="#326EAA"></path>
                    <path d="M4.61102595,14.1142857 C4.29751075,14.5716809 3.99574047,15.044841 3.71428571,15.520752 L5.1038892,16.3428571 C5.36714462,15.8977354 5.64955166,15.4550471 5.94285714,15.0269599 L4.61102595,14.1142857 Z" id="Shape" fill="#326EAA"></path>
                    <path d="M6.25337454,11.8857143 C5.89008474,12.2887317 5.53560762,12.709168 5.2,13.1352032 L6.44269166,14.1142857 C6.75694148,13.715623 7.08850563,13.3222481 7.42857143,12.9450478 L6.25337454,11.8857143 Z" id="Shape" fill="#326EAA"></path>
                    <path d="M0.219861342,23.0285714 C0.132272239,23.4624017 0.0583927351,23.9051133 0,24.3443569 L1.28007031,24.5142857 C1.33473945,24.1033777 1.40387983,23.68934 1.48571429,23.2836761 L0.219861342,23.0285714 Z" id="Shape" fill="#326EAA"></path>
                    <path d="M8.63491268,9.65714286 C8.22273143,10.0075745 7.81696304,10.3764172 7.42857143,10.7536381 L8.5283765,11.8857143 C8.89184071,11.5326968 9.27154394,11.1875403 9.65714286,10.8597605 L8.63491268,9.65714286 Z" id="Shape" fill="#326EAA"></path>
                    <path d="M2.95829818,17.0857143 C2.69840455,17.6005839 2.452925,18.1300855 2.22857143,18.6598072 L3.77472951,19.3142857 C3.98455896,18.8189987 4.21419402,18.3236017 4.45714286,17.8421766 L2.95829818,17.0857143 Z" id="Shape" fill="#326EAA"></path>
                    <path d="M1.2869155,20.0571429 C1.08679268,20.6345789 0.903726448,21.2268479 0.742857143,21.8171315 L2.46276847,22.2857143 C2.6133571,21.7338564 2.78450708,21.1802466 2.97142857,20.6403019 L1.2869155,20.0571429 Z" id="Shape" fill="#326EAA"></path>
                    <path d="M24.5142857,11.1428571 C15.0931919,11.1428571 7.42857143,18.8074547 7.42857143,28.2285204 C7.42857143,37.6495861 15.0931919,45.3142857 24.5142857,45.3142857 C33.9353796,45.3142857 41.6,37.6496882 41.6,28.2286225 C41.6,18.8075568 33.9353796,11.1428571 24.5142857,11.1428571 Z M24.5142857,43.7560214 C15.9524863,43.7560214 8.98673825,36.7903963 8.98673825,28.2285204 C8.98673825,19.6666444 15.9524863,12.7010193 24.5142857,12.7010193 C33.0761872,12.7010193 40.0418332,19.6666444 40.0418332,28.2285204 C40.0418332,36.7903963 33.0761872,43.7560214 24.5142857,43.7560214 Z" id="Shape" fill="#44A6F6"></path>
                    <rect id="Rectangle-path" fill="#326EAA" x="23.0285714" y="14.1142857" width="1.48571429" height="1.48571429"></rect>
                    <rect id="Rectangle-path" fill="#326EAA" x="23.0285714" y="40.1142857" width="1.48571429" height="1.48571429"></rect>
                    <rect id="Rectangle-path" fill="#326EAA" x="10.4" y="26.7428571" width="1.48571429" height="1.48571429"></rect>
                    <rect id="Rectangle-path" fill="#326EAA" x="36.4" y="26.7428571" width="1.48571429" height="1.48571429"></rect>
                    <polygon id="Shape" fill="#326EAA" points="24.5841966 27.1867109 24.5841966 18.5714286 23.0285714 18.5714286 23.0285714 27.8325046 27.8714092 32.6857143 28.9714286 31.583339"></polygon>
                </g>
            </g>
        </g>
    </g>
</svg>