<?xml version="1.0" encoding="UTF-8" standalone="no"?>
<svg width="52px" height="52px" viewBox="0 0 52 52" version="1.1" xmlns="http://www.w3.org/2000/svg" xmlns:xlink="http://www.w3.org/1999/xlink">
    <!-- Generator: Sketch 48.1 (47250) - http://www.bohemiancoding.com/sketch -->
    <title>marie-biscuit-with-bite</title>
    <desc>Created with Sketch.</desc>
    <defs></defs>
    <g id="Почему-INTShop/03-Условия-работы" stroke="none" stroke-width="1" fill="none" fill-rule="evenodd" transform="translate(-1022.000000, -429.000000)">
        <g id="общая" fill-rule="nonzero">
            <g id="ряд-1" transform="translate(96.000000, 377.000000)">
                <g id="marie-biscuit-with-bite" transform="translate(926.000000, 52.000000)">
                    <path d="M23.6154473,12.3066667 C23.4184043,12.1932571 23.1941145,12.1333333 22.9667286,12.1333333 C22.5036588,12.1333333 22.0721705,12.3823143 21.8395829,12.784819 C21.4824037,13.4052286 21.6962901,14.2010762 22.317886,14.56 C22.5149291,14.6734095 22.7392188,14.7333333 22.9666047,14.7333333 C23.4296745,14.7333333 23.8612867,14.4843524 24.0937504,14.0818476 C24.4509297,13.4615619 24.2370432,12.6655905 23.6154473,12.3066667 Z" id="Shape" fill="#103F6E"></path>
                    <path d="M13.432891,21.6666667 C13.2057514,21.6666667 12.9815826,21.7265876 12.7820464,21.8414774 C12.162271,22.2002603 11.9493664,22.9965652 12.3066006,23.615212 C12.5378249,24.0169547 12.9693282,24.2665429 13.4330147,24.2666667 L13.4331385,24.2666667 C13.6602781,24.2666667 13.8844469,24.2067457 14.0829929,24.092475 C14.383535,23.9189023 14.5984202,23.6387347 14.6884095,23.3034744 C14.7783989,22.9679666 14.7322283,22.6173547 14.5585625,22.3166357 C14.3269667,21.9156358 13.895711,21.6666667 13.432891,21.6666667 Z" id="Shape" fill="#103F6E"></path>
                    <path d="M16.9,33.8 C16.1831429,33.8 15.6,34.3831429 15.6,35.1 C15.6,35.8167333 16.1832667,36.4 16.9,36.4 C17.6168571,36.4 18.2,35.8167333 18.2,35.1 C18.2,34.3832667 17.6168571,33.8 16.9,33.8 Z" id="Shape" fill="#103F6E"></path>
                    <path d="M29.6849542,37.4421048 C29.487009,37.3273333 29.2615818,37.2666667 29.0329359,37.2666667 C28.5713114,37.2666667 28.1406352,37.5146571 27.9062948,37.9181524 C27.5492755,38.5384381 27.7630662,39.3344095 28.3809176,39.6913524 C28.578739,39.806 28.8041662,39.8666667 29.0328121,39.8666667 C29.494808,39.8666667 29.9258556,39.6183048 30.1594532,39.215181 C30.332516,38.9144476 30.3783194,38.5643143 30.288198,38.2292857 C30.1980767,37.8935143 29.9824291,37.6133333 29.6849542,37.4421048 Z" id="Shape" fill="#103F6E"></path>
                    <path d="M38.5667285,27.7333333 C38.3395301,27.7333333 38.1154252,27.7932571 37.9169359,27.9075333 C37.6159846,28.0813619 37.4009132,28.3621619 37.3113208,28.6979333 C37.2216046,29.0337048 37.268257,29.3843333 37.4406358,29.6818476 C37.6717942,30.0836095 38.1032981,30.3332095 38.5667285,30.3333333 C38.793927,30.3333333 39.0180318,30.2734095 39.2165211,30.1591333 C39.5174725,29.9853048 39.7325438,29.7045048 39.8220125,29.3687333 C39.9117287,29.0329619 39.8650763,28.6823333 39.6926975,28.384819 C39.4615391,27.9829333 39.030159,27.7333333 38.5667285,27.7333333 Z" id="Shape" fill="#103F6E"></path>
                    <path d="M51.9973812,25.763065 L51.9957601,25.6594371 C51.9877791,25.0011319 51.4692643,24.4625412 50.8118305,24.4293703 C48.9568744,24.3357187 47.3192755,23.2273617 46.538261,21.5371422 C46.3830059,21.2011933 46.0864623,20.9515386 45.7290637,20.8556423 C45.3715404,20.759746 44.9900741,20.8277089 44.6874201,21.0410751 C43.8511623,21.6309186 42.8259795,21.9557689 41.8010461,21.9558936 C40.9326149,21.9558936 40.0729128,21.724695 39.3150931,21.2871134 C37.6368411,20.318174 36.6661535,18.4433946 36.842234,16.5111273 C36.8757791,16.1425063 36.7438434,15.7780005 36.4820919,15.5163744 C36.2203405,15.2546236 35.8545868,15.1233117 35.4873367,15.1561085 C35.3383167,15.1697011 35.1866779,15.1765597 35.0366603,15.1765597 C33.2570247,15.1765597 31.5997228,14.2210882 30.7115885,12.6830059 C29.7426467,11.0047579 29.8394162,8.89591167 30.9580015,7.3103177 C31.1713682,7.00791382 31.239456,6.62632377 31.1435595,6.26880132 C31.0477876,5.91127887 30.7981323,5.61473601 30.4621826,5.45948124 C28.7727073,4.67859335 27.6645971,3.04187131 27.5705711,1.18791727 C27.5371507,0.530859105 26.9990575,0.0127196685 26.3412496,0.00423988949 L26.239492,0.00261875528 C26.1598068,0.00124702632 26.0801216,0 26.0000624,0 C11.6635899,0 0,11.6635619 0,26 C0,40.3364381 11.6635899,52 26.0000624,52 C40.3365348,52 52,40.3364381 52,26 C52,25.9208138 51.998753,25.8420018 51.9973812,25.763065 Z M26.0000624,49.5058227 C13.0388138,49.5058227 2.49405862,38.9612175 2.49405862,26 C2.49405862,13.2942982 12.6271694,2.91080884 25.2363816,2.5062735 C25.6301935,4.34725846 26.7033869,5.96627273 28.2425952,7.04769396 C27.2371154,9.22936651 27.3271509,11.8087158 28.5518584,13.9300322 C29.7703308,16.0406243 31.953505,17.4198354 34.3588998,17.6396861 C34.5785017,20.0324802 35.9462434,22.2220091 38.0680638,23.4470877 C39.2046063,24.103273 40.4955311,24.450071 41.8011708,24.4499463 C42.9010506,24.4498216 43.9700041,24.2133854 44.9509174,23.7585949 C46.03284,25.2977995 47.6521076,26.3707409 49.4934711,26.7641777 C49.0891842,39.373235 38.7057946,49.5058227 26.0000624,49.5058227 Z" id="Shape" fill="#44A6F6"></path>
                </g>
            </g>
        </g>
    </g>
</svg>