<?xml version="1.0" encoding="UTF-8" standalone="no"?>
<svg width="49px" height="52px" viewBox="0 0 49 52" version="1.1" xmlns="http://www.w3.org/2000/svg" xmlns:xlink="http://www.w3.org/1999/xlink">
    <!-- Generator: Sketch 48.1 (47250) - http://www.bohemiancoding.com/sketch -->
    <title>palm-tree</title>
    <desc>Created with Sketch.</desc>
    <defs></defs>
    <g id="Почему-Ossystem/03-Условия-работы" stroke="none" stroke-width="1" fill="none" fill-rule="evenodd" transform="translate(-208.000000, -1035.000000)">
        <g id="общая" fill="#44A6F6">
            <g id="ряд-4" transform="translate(96.000000, 977.000000)">
                <g id="palm-tree" transform="translate(112.000000, 58.000000)">
                    <path d="M48.8637677,15.3376389 C47.3144834,12.9763977 45.4129102,11.6934522 43.36455,11.6274361 C41.9065663,11.5810218 40.6146385,12.1633848 39.5282126,12.9832024 C39.6899306,11.6259127 39.544455,10.208396 38.7743023,8.9605914 C37.692618,7.20811956 35.6377002,6.19269136 32.8317978,6.02358874 C32.4753727,6.00317455 32.1473969,6.21381649 32.0170541,6.54755294 C31.8868121,6.88139096 31.9848719,7.26164333 32.2599841,7.48965256 C32.2829858,7.50864486 33.895222,8.87223148 35.3877083,11.6828896 C34.2660737,10.9018691 33.0051175,10.4144676 31.6510449,10.2557245 C29.1816934,9.96545704 26.6322395,10.8714002 25.1568027,12.5624263 C24.949485,12.7998809 24.8948055,13.1355471 25.0156652,13.4274395 C25.1365249,13.719332 25.4120407,13.916466 25.7253881,13.9354583 C25.7689703,13.938099 28.7088474,14.1267017 32.2419258,14.9333161 C32.1848251,14.9592147 32.1276236,14.9844023 32.0707247,15.0126369 C30.3137191,15.8836423 29.1212635,17.6111296 28.5263472,20.1471611 C28.4523988,20.4625146 28.5678108,20.7922901 28.821939,20.9911507 C28.9693313,21.1065264 29.1474935,21.1656361 29.3269671,21.1656361 C29.4568056,21.1656361 29.5874511,21.134761 29.7072011,21.0717918 L33.6363522,19.0092477 C31.6359122,21.7403819 28.9802269,26.3745045 27.2719485,33.3085242 C27.1625897,33.7524567 27.431447,34.2014673 27.8723126,34.3115617 C27.9387955,34.3281165 28.0054802,34.33614 28.0710552,34.33614 C28.4401918,34.33614 28.7759356,34.0841619 28.8686486,33.7072611 C30.3524587,27.684872 32.5976447,23.5104242 34.2199694,21.068948 C35.5176476,19.1159906 36.6336327,17.9309519 37.1347263,17.4392848 L37.1890022,18.7000895 C36.6977953,19.2491398 35.1063412,21.1767065 33.4602078,24.7779321 C31.7315508,28.5601431 29.6090404,35.0046286 29.1963216,44.3627571 C28.5596391,44.3051708 27.9166009,44.2601784 27.2681149,44.227475 C26.6334501,32.4008545 23.3494557,24.2627023 20.674905,19.4894382 C19.5945322,17.5613637 18.5329239,16.0193307 17.6112425,14.8295186 L22.7729005,17.5393245 C22.8927513,17.6021921 23.0231951,17.6331688 23.1531344,17.6331688 C23.3325071,17.6331688 23.510871,17.5740591 23.6581625,17.4586834 C23.9121898,17.2598228 24.0276018,16.9300473 23.9537543,16.6147953 C23.2597694,13.6569722 21.8742207,11.6448034 19.8356463,10.6343518 C19.6266135,10.5307574 19.4159665,10.4406709 19.2046134,10.3622642 C23.6066105,9.31230453 27.3566916,9.0719046 27.4103622,9.06855301 C27.7239114,9.04956071 27.9994271,8.85252823 28.120186,8.56053423 C28.2410457,8.26864178 28.1863662,7.93297563 27.9790485,7.69552103 C26.2629011,5.72885253 23.2947763,4.67584598 20.4173467,5.01394964 C18.6288652,5.22367751 16.978999,5.92598657 15.5459337,7.0611577 C17.4031177,3.3245485 19.5538757,1.49082615 19.5820225,1.4672635 C19.8570339,1.23935583 19.9551945,0.859205026 19.8249526,0.525265447 C19.6948115,0.191427431 19.3654234,-0.0186051268 19.0102088,0.0013012471 C15.7375135,0.198333724 13.3448343,1.37666919 12.0905365,3.40864277 C11.1298127,4.96509778 11.0090539,6.75494486 11.269437,8.44343193 C9.94744564,7.37133151 8.34721466,6.58076409 6.5285686,6.64007696 C4.15334239,6.71624931 1.94286067,8.21247737 0.135917222,10.9663617 C-0.0602023735,11.2651604 -0.0424466899,11.6563816 0.178591393,11.9370006 C0.399528592,12.2175179 0.775525367,12.323042 1.10884797,12.1988303 C1.14435934,12.1856271 3.7977243,11.2268711 7.9423649,11.4781383 C6.24831128,12.1593223 4.81827256,13.246454 3.74264132,14.7008381 C2.01267279,17.0400401 1.43268743,20.1539658 2.2655904,22.6336297 C2.36617231,22.9331393 2.62746334,23.1488594 2.93889399,23.1894847 C2.97430447,23.1941566 3.00971495,23.196391 3.04482278,23.196391 C3.31852261,23.196391 3.5773924,23.0585698 3.73093871,22.824873 C3.76059878,22.7796774 5.84376417,19.6313219 8.94929375,16.3196528 C8.91095761,16.5430917 8.8829117,16.7719135 8.86747637,17.0058134 C8.71665394,19.2884448 9.75394904,21.5028257 11.9505087,23.5876122 C12.1059718,23.7351834 12.3087498,23.8131839 12.5148569,23.8131839 C12.6190707,23.8131839 12.7240915,23.7932775 12.8240681,23.7523476 C13.1222829,23.6304718 13.3224379,23.3447747 13.33636,23.0209914 L13.5954315,17.0054071 C16.0391584,20.1312156 21.3425591,28.6300186 22.1162428,44.2286938 C18.4745118,44.4168903 15.0198207,44.9985423 12.0039775,45.9391185 C8.27578839,47.1018133 5.47856204,48.7295656 3.91464951,50.6464681 C3.71277949,50.8938759 3.67060974,51.2363468 3.80660214,51.5258017 C3.94259453,51.8153582 4.23213323,52 4.55022227,52 L44.9075794,52 C45.2255676,52 45.5152072,51.8153582 45.6511996,51.5258017 C45.7870911,51.2363468 45.7450222,50.8938759 45.5431522,50.6464681 C43.8402207,48.5591426 40.575798,46.7730534 36.3513577,45.6167571 C35.9131151,45.4967095 35.4610514,45.7573205 35.3419067,46.1986123 C35.222762,46.6399041 35.4815309,47.094907 35.9198744,47.214853 C38.8172791,48.007858 41.1998699,49.0910288 42.8433803,50.3439116 L6.6187594,50.3439116 C8.0607025,49.2482485 10.0763761,48.2738518 12.4906447,47.5209643 C16.0644804,46.4064105 20.2963861,45.8173443 24.7287495,45.8173443 C27.409656,45.8173443 30.0195397,46.0326582 32.485562,46.4573952 C32.933893,46.5348878 33.3584153,46.2316203 33.4349866,45.7808832 C33.511558,45.330146 33.2107203,44.9021589 32.7629945,44.8250725 C32.1289351,44.7158921 31.4857959,44.6201181 30.8349896,44.537852 C31.2222855,35.4522173 33.2552103,29.2175613 34.9093137,25.5686011 C35.7808554,23.646011 36.6387778,22.2246349 37.2989664,21.2617149 L37.4854011,25.5905387 C37.4993231,25.9142204 37.699579,26.2000191 37.9976929,26.3218948 C38.0977704,26.3628248 38.2027912,26.3827311 38.3069041,26.3827311 C38.5130112,26.3827311 38.7158901,26.3048322 38.8712523,26.1571594 C40.7546663,24.3696483 41.643762,22.4657458 41.5138226,20.4985695 C41.5096864,20.434991 41.5026245,20.3725296 41.4963696,20.3097636 C43.9578521,22.985749 45.5909715,25.4539363 45.614982,25.4906006 C45.7684274,25.7242973 46.0272972,25.8620169 46.3008962,25.8620169 C46.336004,25.8620169 46.3715154,25.859681 46.4069258,25.8551107 C46.7183565,25.8143838 46.9797484,25.5987653 47.0802294,25.2992556 C47.7962072,23.1670392 47.2994516,20.4920695 45.8145317,18.4843695 C45.0010994,17.3846439 43.9523035,16.5298885 42.7208056,15.9429552 C43.6736603,15.9109628 44.498089,15.9531115 45.1573696,16.0205494 C46.8658497,16.1953396 47.8807485,16.5666544 47.8888192,16.5697013 C48.2226463,16.6953349 48.5985421,16.5905217 48.8205891,16.3101059 C49.0428378,16.029487 49.0601899,15.6369455 48.8637677,15.3376389 Z M6.53220044,9.76994801 C5.12708022,9.76994801 3.92746185,9.89497222 2.97884428,10.0506685 C4.10774257,8.93520062 5.329152,8.3352672 6.58092769,8.29484507 C7.93913659,8.25117292 9.33820375,8.87771589 10.698733,10.1259268 C9.16962564,9.86704236 7.77116379,9.76994801 6.53220044,9.76994801 Z M3.53023357,20.2493336 C3.52452889,18.6970427 4.06103301,17.0432902 5.06211056,15.6897583 C6.3344667,13.9692788 8.22665761,12.8638657 10.523093,12.4655351 C7.42654212,15.223482 4.91623147,18.371025 3.53023357,20.2493336 Z M11.7799129,20.9290956 C10.8536917,19.6702206 10.4268491,18.3964158 10.5080612,17.125861 C10.60259,15.6483205 11.3676986,14.3904611 12.0994143,13.5092994 L11.7799129,20.9290956 Z M21.7522513,15.1355283 L15.204843,11.6984288 C16.3238546,11.5008885 17.7843605,11.4630054 19.1086721,12.1196111 C20.2464483,12.6834896 21.1314077,13.6945506 21.7522513,15.1355283 Z M20.6074133,6.65845988 C20.9069395,6.62331904 21.2068693,6.60615487 21.5057903,6.60615487 C22.8686399,6.60615487 24.2026365,6.96355553 25.2952164,7.60452046 C22.9862713,7.87295182 19.0235256,8.48598689 15.1021425,9.80519041 C16.5936199,8.00305419 18.4913595,6.90668018 20.6074133,6.65845988 Z M13.0020285,8.78783252 C12.6090831,6.97736812 12.7697922,5.44508514 13.487485,4.28228884 C14.1485816,3.21140717 15.2755631,2.44694147 16.7999289,2.02108726 C15.6547882,3.43047885 14.1596789,5.66700059 13.0020285,8.78783252 Z M24.7288504,44.1613574 C24.4048092,44.1612559 24.0818777,44.1651153 23.759955,44.1712091 C23.2269819,33.3798216 20.5512205,25.9470253 18.3709033,21.5799122 C16.3198192,17.471785 14.3429862,15.2555759 13.6994435,14.5925718 L13.7670362,13.0248433 C14.7709385,13.8976768 17.0895685,16.438888 19.2903652,20.3895923 C21.8466793,24.9782146 24.984391,32.7947164 25.6178452,44.1703966 C25.3221525,44.1652168 25.0261572,44.1613574 24.7288504,44.1613574 Z M30.7846482,18.6380345 C31.2823118,17.6346923 31.9525888,16.9194847 32.7886192,16.5024665 C33.4615193,16.1666988 34.1823395,16.0517293 34.8546342,16.0517293 C35.1197589,16.0517293 35.3774181,16.0696044 35.6214578,16.0989562 L30.7846482,18.6380345 Z M27.9359707,12.4915353 C28.9742747,11.9790477 30.2257477,11.7556088 31.4606757,11.9004378 C33.0714996,12.0893453 34.5303913,12.8730064 35.7171973,14.1598113 C32.7629945,13.2132429 29.8335085,12.7290914 27.9359707,12.4915353 Z M37.8541341,13.1026406 C36.9848118,10.8969941 35.9264319,9.24080409 35.0489379,8.10553139 C35.9745538,8.42484588 36.8358053,8.95805233 37.3768493,9.83464372 C37.9062915,10.6922428 38.0646802,11.7999919 37.8541341,13.1026406 Z M39.0390234,23.4335409 L38.8023482,17.9393817 C39.3211975,18.6356985 39.8026186,19.5521027 39.8723299,20.6083592 C39.9345757,21.5492401 39.6550245,22.4944882 39.0390234,23.4335409 Z M44.4953651,19.4731881 C45.2378755,20.4771397 45.67178,21.6796472 45.75047,22.8411231 C44.5967541,21.306098 42.7144499,18.9946226 40.4225543,16.8934845 C42.1228628,17.2841979 43.5269741,18.1639378 44.4953651,19.4731881 Z M40.2625514,14.5018759 C41.2411317,13.696785 42.2350464,13.2808839 43.2033365,13.2808839 C43.239554,13.2808839 43.2758725,13.2813917 43.3118883,13.2826105 C44.336371,13.3156185 45.226072,13.7996684 45.9639417,14.446524 C44.5481277,14.2497962 42.5943972,14.1558503 40.2625514,14.5018759 Z" id="Shape" fill-rule="nonzero"></path>
                    <rect id="Rectangle-15" transform="translate(34.486370, 46.017932) rotate(12.000000) translate(-34.486370, -46.017932) " x="32.0223447" y="45.1679323" width="4.9280512" height="1.70000005" rx="0.850000024"></rect>
                </g>
            </g>
        </g>
    </g>
</svg>