<?xml version="1.0" encoding="UTF-8" standalone="no"?>
<svg width="52px" height="52px" viewBox="0 0 52 52" version="1.1" xmlns="http://www.w3.org/2000/svg" xmlns:xlink="http://www.w3.org/1999/xlink">
    <!-- Generator: Sketch 48.1 (47250) - http://www.bohemiancoding.com/sketch -->
    <title>salary</title>
    <desc>Created with Sketch.</desc>
    <defs></defs>
    <g id="Почему-Ossystem/03-Условия-работы" stroke="none" stroke-width="1" fill="none" fill-rule="evenodd" transform="translate(-1022.000000, -829.000000)">
        <g id="общая">
            <g id="ряд-3" transform="translate(96.000000, 777.000000)">
                <g id="salary" transform="translate(926.000000, 52.000000)">
                    <path d="M45.9058889,14.2667778 L48.4697778,11.7014444 L40.2985556,3.53022222 L37.7332222,6.09411111 C35.8612222,4.98622222 33.865,4.15711111 31.7777778,3.61833333 L31.7777778,0 L20.2222222,0 L20.2222222,3.61833333 C18.135,4.15711111 16.1387778,4.98622222 14.2667778,6.09411111 L11.7014444,3.53022222 L3.53022222,11.7014444 L6.09411111,14.2667778 C4.98477778,16.1387778 4.15566667,18.135 3.61833333,20.2222222 L0,20.2222222 L0,31.7777778 L3.61833333,31.7777778 C4.15566667,33.865 4.98477778,35.8612222 6.09411111,37.7332222 L3.53022222,40.2985556 L11.7014444,48.4697778 L14.2667778,45.9058889 C16.1387778,47.0137778 18.135,47.8428889 20.2222222,48.3816667 L20.2222222,52 L31.7777778,52 L31.7777778,48.3816667 C33.865,47.8428889 35.8612222,47.0137778 37.7332222,45.9058889 L40.2985556,48.4697778 L48.4697778,40.2985556 L45.9058889,37.7332222 C47.0152222,35.8612222 47.8443333,33.865 48.3816667,31.7777778 L52,31.7777778 L52,20.2222222 L48.3816667,20.2222222 C47.8443333,18.135 47.0152222,16.1387778 45.9058889,14.2667778 Z M49.1111111,28.8888889 L46.0517778,28.8888889 L45.8163333,30.0458889 C45.305,32.5751111 44.3112222,34.9627778 42.8667778,37.1453333 L42.2153333,38.129 L44.3863333,40.3 L40.3,44.3863333 L38.129,42.2153333 L37.1453333,42.8667778 C34.9627778,44.3112222 32.5751111,45.3035556 30.0458889,45.8163333 L28.8888889,46.0517778 L28.8888889,49.1111111 L23.1111111,49.1111111 L23.1111111,46.0517778 L21.9541111,45.8163333 C19.4248889,45.3035556 17.0372222,44.3112222 14.8546667,42.8667778 L13.871,42.2153333 L11.7,44.3863333 L7.61366667,40.3 L9.78466667,38.129 L9.13322222,37.1453333 C7.68877778,34.9627778 6.695,32.5751111 6.18366667,30.0458889 L5.94822222,28.8888889 L2.88888889,28.8888889 L2.88888889,23.1111111 L5.94822222,23.1111111 L6.18366667,21.9541111 C6.695,19.4248889 7.68877778,17.0372222 9.13322222,14.8546667 L9.78466667,13.871 L7.61366667,11.7 L11.7,7.61366667 L13.871,9.78466667 L14.8546667,9.13322222 C17.0372222,7.68877778 19.4248889,6.69644444 21.9541111,6.18366667 L23.1111111,5.94822222 L23.1111111,2.88888889 L28.8888889,2.88888889 L28.8888889,5.94822222 L30.0458889,6.18366667 C32.5751111,6.69644444 34.9627778,7.68877778 37.1453333,9.13322222 L38.129,9.78466667 L40.3,7.61366667 L44.3863333,11.7 L42.2153333,13.871 L42.8667778,14.8546667 C44.3112222,17.0372222 45.305,19.4248889 45.8163333,21.9541111 L46.0517778,23.1111111 L49.1111111,23.1111111 L49.1111111,28.8888889 Z" id="Shape" fill="#44A6F6" fill-rule="nonzero"></path>
                    <circle id="Oval-2" stroke="#44A6F6" stroke-width="2" cx="26" cy="26" r="17"></circle>
                    <path d="M27.8,19.5 L27.2,19.5 L27.2,17 L24.8,17 L24.8,19.5 L24.2,19.5 C21.884,19.5 20,21.4625 20,23.875 C20,26.2875 21.884,28.25 24.2,28.25 L27.8,28.25 C28.7924,28.25 29.6,29.09125 29.6,30.125 C29.6,31.15875 28.7924,32 27.8,32 L24.2,32 C23.2076,32 22.4,31.15875 22.4,30.125 L22.4,29.5 L20,29.5 L20,30.125 C20,32.5375 21.884,34.5 24.2,34.5 L24.8,34.5 L24.8,37 L27.2,37 L27.2,34.5 L27.8,34.5 C30.116,34.5 32,32.5375 32,30.125 C32,27.7125 30.116,25.75 27.8,25.75 L24.2,25.75 C23.2076,25.75 22.4,24.90875 22.4,23.875 C22.4,22.84125 23.2076,22 24.2,22 L27.8,22 C28.7924,22 29.6,22.84125 29.6,23.875 L29.6,24.5 L32,24.5 L32,23.875 C32,21.4625 30.116,19.5 27.8,19.5 Z" id="Shape" fill="#326EAA" fill-rule="nonzero"></path>
                </g>
            </g>
        </g>
    </g>
</svg>