<?xml version="1.0" encoding="UTF-8" standalone="no"?>
<svg width="46px" height="54px" viewBox="0 0 46 54" version="1.1" xmlns="http://www.w3.org/2000/svg" xmlns:xlink="http://www.w3.org/1999/xlink">
    <!-- Generator: Sketch 48.1 (47250) - http://www.bohemiancoding.com/sketch -->
    <title>ss-benefit-englishschool</title>
    <desc>Created with Sketch.</desc>
    <defs></defs>
    <g id="Почему-INTShop/03-Условия-работы" stroke="none" stroke-width="1" fill="none" fill-rule="evenodd" transform="translate(-481.000000, -428.000000)">
        <g id="общая">
            <g id="ряд-1" transform="translate(96.000000, 377.000000)">
                <g id="ss-benefit-englishschool" transform="translate(386.000000, 52.000000)">
                    <polyline id="Shape" stroke="#44A6F6" stroke-width="2" stroke-linecap="round" stroke-linejoin="round" points="36.8 2.7 43.2 2.7 43.2 51.6 0.8 51.6 0.8 2.7 24.2 2.7"></polyline>
                    <g id="Group" transform="translate(6.000000, 22.000000)" fill="#326EAA" fill-rule="nonzero">
                        <path d="M2.8,10.2 L2.1,13.7 L0,13.7 L3,0.1 L5.5,0.1 L8.3,13.7 L6.2,13.7 L5.5,10.2 L2.8,10.2 Z M5.3,8.5 L4.7,5.4 C4.5,4.5 4.3,3.3 4.2,2.3 L4.1,2.3 C4,3.3 3.8,4.6 3.6,5.4 L3,8.5 L5.3,8.5 Z" id="Shape"></path>
                        <path d="M12,0.3 C12.7,0.1 13.7,0 14.7,0 C15.9,0 17.1,0.2 17.9,1 C18.6,1.6 18.9,2.5 18.9,3.4 C18.9,4.7 18.2,5.8 16.9,6.4 L16.9,6.5 C18.5,6.9 19.3,8.2 19.3,9.9 C19.3,11 18.9,11.9 18.3,12.6 C17.5,13.5 16.2,13.9 14.2,13.9 C13.2,13.9 12.5,13.8 11.9,13.8 L11.9,0.3 L12,0.3 Z M14.1,5.8 L14.7,5.8 C15.8,5.8 16.7,4.9 16.7,3.7 C16.7,2.6 16.2,1.7 14.8,1.7 C14.5,1.7 14.2,1.7 14,1.8 L14,5.8 L14.1,5.8 Z M14.1,12.1 C14.3,12.1 14.5,12.2 14.8,12.2 C16.1,12.2 17.1,11.4 17.1,9.9 C17.1,8.3 16,7.5 14.8,7.5 L14.2,7.5 L14.2,12.1 L14.1,12.1 Z" id="Shape"></path>
                        <path d="M29.4,13.6 C29,13.8 28.3,13.9 27.4,13.9 C24.3,13.9 22.5,11.4 22.5,7.1 C22.5,1.9 25.3,0 27.7,0 C28.6,0 29.2,0.2 29.5,0.3 L29.1,2.1 C28.8,1.9 28.5,1.8 27.8,1.8 C26.3,1.8 24.8,3.2 24.8,6.9 C24.8,10.6 26.2,11.9 27.8,11.9 C28.3,11.9 28.8,11.8 29.1,11.7 L29.4,13.6 Z" id="Shape"></path>
                    </g>
                    <polygon id="Shape" stroke="#326EAA" stroke-width="2" stroke-linecap="round" stroke-linejoin="round" fill-rule="nonzero" points="30 12 36 16 36 0 24 0 24 16"></polygon>
                </g>
            </g>
        </g>
    </g>
</svg>