<?xml version="1.0" encoding="UTF-8" standalone="no"?>
<svg width="73px" height="53px" viewBox="0 0 73 53" version="1.1" xmlns="http://www.w3.org/2000/svg" xmlns:xlink="http://www.w3.org/1999/xlink">
    <!-- Generator: Sketch 48.1 (47250) - http://www.bohemiancoding.com/sketch -->
    <title>ss-benefit-referal</title>
    <desc>Created with Sketch.</desc>
    <defs></defs>
    <g id="Почему-INTShop/03-Условия-работы" stroke="none" stroke-width="1" fill="none" fill-rule="evenodd" transform="translate(-1012.000000, -631.000000)" stroke-linecap="round" stroke-linejoin="round">
        <g id="общая" fill="#FFFFFF" fill-rule="nonzero" stroke-width="2">
            <g id="ряд-2" transform="translate(96.000000, 577.000000)">
                <g id="ss-benefit-referal" transform="translate(917.000000, 55.000000)">
                    <path d="M70.2604651,6.37674419 L70.2604651,27.5395349 C70.2604651,27.5395349 65.6651163,28.3860465 64.8186047,28.5069767 C63.8511628,28.627907 60.9488372,29.5953488 58.8930233,27.5395349 C55.5069767,24.3953488 43.8976744,12.9069767 43.8976744,12.9069767 C43.8976744,12.9069767 41.8418605,10.972093 38.6976744,12.6651163 C35.7953488,14.2372093 31.3209302,16.5348837 29.5069767,17.3813953 C26,19.1953488 23.2186047,16.2930233 23.2186047,14.1162791 C23.2186047,12.4232558 24.3069767,11.2139535 25.8790698,10.3674419 C29.9906977,7.82790698 38.8186047,2.86976744 42.4465116,0.934883721 C44.6232558,-0.274418605 46.3162791,-0.395348837 49.3395349,2.26511628 C53.0883721,5.40930233 56.4744186,8.31162791 56.4744186,8.31162791 C56.4744186,8.31162791 57.5627907,9.27906977 59.255814,8.91627907 C63.6093023,7.82790698 70.2604651,6.37674419 70.2604651,6.37674419 Z M23.944186,42.2930233 C24.5488372,40.8418605 24.3069767,39.2697674 23.2186047,38.0604651 C22.2511628,37.0930233 20.8,36.8511628 19.4697674,37.0930233 C19.8325581,35.7627907 19.5906977,34.3116279 18.6232558,33.344186 C17.655814,32.3767442 16.2046512,32.1348837 14.8744186,32.3767442 C15.2372093,31.0465116 14.9953488,29.5953488 14.027907,28.627907 C12.455814,27.055814 9.91627907,27.1767442 8.10232558,28.7488372 C6.53023256,30.4418605 5.44186047,33.4651163 7.01395349,35.2790698 C8.58604651,37.0930233 10.2790698,36.0046512 11.6093023,35.6418605 C11.2465116,36.972093 10.1581395,38.1813953 11.4883721,39.9953488 C12.8186047,41.6883721 14.7534884,40.7209302 16.2046512,40.3581395 C15.8418605,41.6883721 14.7534884,43.0186047 16.0837209,44.7116279 C17.4139535,46.2837209 19.5906977,45.4372093 21.0418605,45.0744186 C20.4372093,46.5255814 19.227907,48.0976744 20.8,49.7906977 C22.372093,51.6046512 25.8790698,50.7581395 27.6930233,49.0651163 C29.3860465,47.372093 29.627907,44.8325581 28.055814,43.2604651 C26.9674419,42.0511628 25.3953488,41.8093023 23.944186,42.2930233 Z" id="Shape" stroke="#326EAA"></path>
                    <path d="M55.627907,31.2883721 C43.172093,18.7116279 48.9767442,24.6372093 42.3255814,17.8651163 C42.3255814,17.8651163 40.2697674,15.8093023 37.6093023,17.0186047 C35.6744186,17.8651163 33.255814,18.9534884 31.4418605,19.8 C29.3860465,20.8883721 28.055814,21.1302326 27.3302326,21.1302326 C23.4604651,21.1302326 20.3162791,17.9860465 20.3162791,14.1162791 C20.3162791,11.5767442 21.6465116,9.4 23.5813953,8.19069767 C26.3627907,6.25581395 32.772093,2.86976744 32.772093,2.86976744 C32.772093,2.86976744 30.8372093,0.330232558 26.6046512,0.330232558 C22.372093,0.330232558 13.4232558,6.13488372 13.4232558,6.13488372 C13.4232558,6.13488372 10.8837209,7.82790698 7.25581395,6.37674419 L0.241860465,3.95813953 L0.241860465,28.2651163 C0.241860465,28.2651163 2.17674419,28.8697674 3.99069767,29.5953488 C4.35348837,28.3860465 5.07906977,27.4186047 5.9255814,26.4511628 C8.94883721,23.6697674 13.7860465,23.5488372 16.5674419,26.3302326 C17.4139535,27.1767442 17.8976744,28.144186 18.2604651,29.3534884 C19.3488372,29.7162791 20.3162791,30.3209302 21.1627907,31.0465116 C22.0093023,31.8930233 22.4930233,32.8604651 22.855814,34.0697674 C23.944186,34.4325581 24.9116279,35.0372093 25.7581395,35.7627907 C26.6046512,36.7302326 27.2093023,37.8186047 27.572093,39.027907 C28.6604651,39.3906977 29.7488372,39.9953488 30.5953488,40.8418605 C32.1674419,42.5348837 32.772093,44.8325581 32.4093023,47.0093023 C32.4093023,47.0093023 32.4093023,47.0093023 32.4093023,47.0093023 C32.4093023,47.0093023 33.3767442,48.0976744 33.9813953,48.7023256 C35.1906977,49.9116279 37.1255814,49.9116279 38.3348837,48.7023256 C39.544186,47.4930233 39.544186,45.5581395 38.3348837,44.3488372 C38.3348837,44.3488372 33.9813953,39.8744186 34.344186,39.5116279 C34.7069767,39.1488372 40.1488372,44.8325581 40.2697674,44.9534884 C41.4790698,46.1627907 43.4139535,46.1627907 44.6232558,44.9534884 C45.8325581,43.744186 45.8325581,41.8093023 44.6232558,40.6 C44.6232558,40.6 44.2604651,40.3581395 44.2604651,40.2372093 C44.2604651,40.2372093 38.8186047,35.4 39.3023256,35.0372093 C39.6651163,34.6744186 46.4372093,40.8418605 46.4372093,40.8418605 C47.6465116,41.9302326 49.4604651,41.9302326 50.6697674,40.7209302 C51.7581395,39.6325581 51.8790698,37.8186047 50.7906977,36.6093023 C50.7906977,36.4883721 45.7116279,31.1674419 46.0744186,30.8046512 C46.4372093,30.4418605 51.5162791,35.6418605 51.5162791,35.6418605 C52.7255814,36.8511628 54.6604651,36.8511628 55.8697674,35.6418605 C56.9581395,34.4325581 56.9581395,32.4976744 55.627907,31.2883721 C55.7488372,31.2883721 55.7488372,31.2883721 55.627907,31.2883721 Z" id="Shape" stroke="#44A6F6"></path>
                </g>
            </g>
        </g>
    </g>
</svg>