<?xml version="1.0" encoding="UTF-8" standalone="no"?>
<svg width="50px" height="54px" viewBox="0 0 50 54" version="1.1" xmlns="http://www.w3.org/2000/svg" xmlns:xlink="http://www.w3.org/1999/xlink">
    <!-- Generator: Sketch 48.1 (47250) - http://www.bohemiancoding.com/sketch -->
    <title>ss-benefit-prezent</title>
    <desc>Created with Sketch.</desc>
    <defs></defs>
    <g id="Почему-INTShop/03-Условия-работы" stroke="none" stroke-width="1" fill="none" fill-rule="evenodd" transform="translate(-207.000000, -626.000000)" stroke-linecap="round" stroke-linejoin="round">
        <g id="общая" stroke-width="2">
            <g id="ряд-2" transform="translate(96.000000, 577.000000)">
                <g id="ss-benefit-prezent" transform="translate(112.000000, 50.000000)">
                    <path d="M27,17.9 C27,17.9 42.6,17.6 44.1,6.8 L39.6,5.9 L39.4,6.5 C39.4,6.5 36.8,13 28,13.9" id="Shape" stroke="#326EAA" fill-rule="nonzero"></path>
                    <rect id="Rectangle-path" stroke="#44A6F6" x="3.5" y="29.8" width="41" height="21.3"></rect>
                    <rect id="Rectangle-path" stroke="#44A6F6" x="20.2" y="29.8" width="7.3" height="21.3"></rect>
                    <rect id="Rectangle-path" stroke="#44A6F6" x="0.7" y="19.2" width="46.7" height="10.6"></rect>
                    <rect id="Rectangle-path" stroke="#44A6F6" x="18.5" y="19.2" width="11" height="10.6"></rect>
                    <g id="Group" transform="translate(5.000000, 3.000000)" stroke="#326EAA">
                        <g id="Shape">
                            <path d="M0.8,5.7 L3.7,1 C3.7,1 19.3,-3 19.3,16 L15.3,16 C15.3,16 14.7,1.4 0.8,5.7 Z"></path>
                            <path d="M13.8,11.6 C6.4,10.8 4.5,5 4.5,5 L0.9,5.7 C2.2,14.8 15.4,14.9 15.4,14.9"></path>
                        </g>
                        <g id="Shape">
                            <path d="M0.8,5.7 L3.7,1 C3.7,1 19.3,-3 19.3,16 L15.3,16 C15.3,16 14.7,1.4 0.8,5.7 Z"></path>
                        </g>
                    </g>
                    <path d="M44.2,6.7 L40.8,1 C40.8,1 22.2,-3.1 22.2,18.9 L27,18.9 C26.9,19 27.6,1.6 44.2,6.7 Z" id="Shape" stroke="#326EAA" fill-rule="nonzero"></path>
                </g>
            </g>
        </g>
    </g>
</svg>