<?xml version="1.0" encoding="UTF-8" standalone="no"?>
<svg width="58px" height="52px" viewBox="0 0 58 52" version="1.1" xmlns="http://www.w3.org/2000/svg" xmlns:xlink="http://www.w3.org/1999/xlink">
    <!-- Generator: Sketch 48.1 (47250) - http://www.bohemiancoding.com/sketch -->
    <title>update-arrow (1)</title>
    <desc>Created with Sketch.</desc>
    <defs></defs>
    <g id="Почему-Ossystem/03-Условия-работы" stroke="none" stroke-width="1" fill="none" fill-rule="evenodd" transform="translate(-747.000000, -1039.000000)">
        <g id="общая" fill="#44A6F6" fill-rule="nonzero">
            <g id="ряд-4" transform="translate(96.000000, 977.000000)">
                <g id="update-arrow-(1)" transform="translate(680.000000, 88.000000) scale(-1, 1) translate(-680.000000, -88.000000) translate(651.000000, 62.000000)">
                    <path d="M55.9304804,15.8731286 C54.557719,12.6633918 52.7203889,9.90642843 50.4023791,7.59491578 C48.0987745,5.29795351 45.3228301,3.4542402 42.1248693,2.07670952 C38.9165784,0.694899321 35.5481242,0 32.0332484,0 C27.5258333,0 23.3554248,1.0747307 19.4753007,3.2431171 C15.6168791,5.39876004 12.5017484,8.36323269 10.1485784,12.0900309 C7.7954085,15.8161634 6.46311438,19.9410523 6.20789542,24.4069716 L0,24.4069716 L7.82383987,32.0874778 L15.563049,24.4069716 L9.32672222,24.4069716 C9.52507843,21.4770204 10.2677059,18.7206277 11.5377353,16.1007992 C12.819232,13.4578613 14.4575425,11.2075934 16.4701993,9.30206478 C18.4828562,7.39596554 20.8342255,5.91211251 23.5290458,4.80761536 C26.2486961,3.69275224 29.0850098,3.12899651 32.0332484,3.12899651 C36.1437614,3.12899651 39.9671176,4.15941038 43.4572582,6.20159842 C46.9685327,8.25586423 49.7503529,11.0370782 51.7914412,14.536301 C53.8325294,18.034858 54.8534052,21.846581 54.8534052,25.9714699 C54.8534052,30.0963587 53.8385948,33.9402257 51.7914412,37.4643647 C49.7564183,40.9665356 46.9684379,43.7448015 43.4572582,45.7990673 C39.966549,47.8411602 36.1431928,48.8710035 32.0332484,48.8710035 C28.4898464,48.8710035 25.0881275,48.046292 21.8846699,46.4247334 L20.5523758,49.3261545 C24.2662712,51.1183233 28.093134,52 32.0332484,52 C35.5481242,52 38.9166732,51.3057664 42.1248693,49.9239562 C45.3228301,48.5464255 48.0921405,46.6948189 50.4022843,44.3765541 C52.7125229,42.0583844 54.5570556,39.307983 55.9304804,36.0989118 C57.3075065,32.8787139 58,29.4991276 58,25.9713748 C58,22.4442876 57.3075065,19.0925657 55.9304804,15.8731286 Z" id="Shape"></path>
                </g>
            </g>
        </g>
    </g>
</svg>