<?xml version="1.0" encoding="UTF-8" standalone="no"?>
<svg width="24px" height="20px" viewBox="0 0 24 20" version="1.1" xmlns="http://www.w3.org/2000/svg" xmlns:xlink="http://www.w3.org/1999/xlink">
    <!-- Generator: Sketch 48.1 (47250) - http://www.bohemiancoding.com/sketch -->
    <title>back</title>
    <desc>Created with Sketch.</desc>
    <defs></defs>
    <g id="arrow" stroke="none" stroke-width="1" fill="none" fill-rule="evenodd" transform="translate(0.000000, -1.000000)">
        <g id="back" transform="translate(12.000000, 10.636364) rotate(-180.000000) translate(-12.000000, -10.636364) translate(0.000000, 0.636364)" fill="#FFFFFF" fill-rule="nonzero">
            <path d="M23.3709091,10.0487273 L0.363636364,10.0487273 C0.162909091,10.0487273 0,9.88581818 0,9.68509091 C0,9.48436364 0.162909091,9.32145455 0.363636364,9.32145455 L23.3709091,9.32145455 C23.5716364,9.32145455 23.7345455,9.48436364 23.7345455,9.68509091 C23.7345455,9.88581818 23.5716364,10.0487273 23.3709091,10.0487273 Z" id="Shape"></path>
            <path d="M9.48145455,19.1658182 C9.38836364,19.1658182 9.29527273,19.1301818 9.224,19.0596364 L0.106181818,9.94109091 C0.0385454545,9.87272727 0,9.78036364 0,9.68363636 C0,9.58690909 0.0385454545,9.49454545 0.106181818,9.42618182 L9.22472727,0.312 C9.36654545,0.170181818 9.59709091,0.170181818 9.73890909,0.312 C9.88072727,0.453818182 9.88072727,0.684363636 9.73890909,0.826181818 L0.877818182,9.68363636 L9.73890909,18.5447273 C9.88072727,18.6865455 9.88072727,18.9170909 9.73890909,19.0589091 C9.66763636,19.1301818 9.57454545,19.1658182 9.48145455,19.1658182 Z" id="Shape"></path>
        </g>
    </g>
</svg>