<?xml version="1.0" encoding="UTF-8" standalone="no"?>
<svg width="21px" height="17px" viewBox="0 0 21 17" version="1.1" xmlns="http://www.w3.org/2000/svg" xmlns:xlink="http://www.w3.org/1999/xlink">
    <!-- Generator: Sketch 48.1 (47250) - http://www.bohemiancoding.com/sketch -->
    <title>arrow</title>
    <desc>Created with Sketch.</desc>
    <defs></defs>
    <g id="Главная/04-Вариант-4-Copy" stroke="none" stroke-width="1" fill="none" fill-rule="evenodd" transform="translate(-281.000000, -1799.000000)">
        <g id="общая" fill="#FFFFFF" fill-rule="nonzero" stroke="#FFFFFF">
            <g id="Компания" transform="translate(0.000000, 1453.000000)">
                <g id="текст" transform="translate(96.000000, 74.000000)">
                    <g id="узнать-о-нас-больше" transform="translate(0.000000, 266.000000)">
                        <g id="arrow" transform="translate(186.000000, 6.000000)">
                            <g id="back" transform="translate(9.700000, 8.000000) rotate(-180.000000) translate(-9.700000, -8.000000) translate(0.200000, 0.000000)">
                                <path d="M18.6967273,8.03898182 L0.290909091,8.03898182 C0.130327273,8.03898182 0,7.90865455 0,7.74807273 C0,7.58749091 0.130327273,7.45716364 0.290909091,7.45716364 L18.6967273,7.45716364 C18.8573091,7.45716364 18.9876364,7.58749091 18.9876364,7.74807273 C18.9876364,7.90865455 18.8573091,8.03898182 18.6967273,8.03898182 Z" id="Shape"></path>
                                <path d="M7.58516364,15.3326545 C7.51069091,15.3326545 7.43621818,15.3041455 7.3792,15.2477091 L0.0849454545,7.95287273 C0.0308363636,7.89818182 0,7.82429091 0,7.74690909 C0,7.66952727 0.0308363636,7.59563636 0.0849454545,7.54094545 L7.37978182,0.2496 C7.49323636,0.136145455 7.67767273,0.136145455 7.79112727,0.2496 C7.90458182,0.363054545 7.90458182,0.547490909 7.79112727,0.660945455 L0.702254545,7.74690909 L7.79112727,14.8357818 C7.90458182,14.9492364 7.90458182,15.1336727 7.79112727,15.2471273 C7.73410909,15.3041455 7.65963636,15.3326545 7.58516364,15.3326545 Z" id="Shape"></path>
                            </g>
                        </g>
                    </g>
                </g>
            </g>
        </g>
    </g>
</svg>