<?xml version="1.0" encoding="UTF-8" standalone="no"?>
<svg width="61px" height="48px" viewBox="0 0 61 48" version="1.1" xmlns="http://www.w3.org/2000/svg" xmlns:xlink="http://www.w3.org/1999/xlink">
    <!-- Generator: Sketch 48.1 (47250) - http://www.bohemiancoding.com/sketch -->
    <title>desk (3)</title>
    <desc>Created with Sketch.</desc>
    <defs></defs>
    <g id="Мобильная/Главная/05---Главная" stroke="none" stroke-width="1" fill="none" fill-rule="evenodd" transform="translate(-24.000000, -1460.000000)">
        <g id="общая">
            <g id="мы-предлагаем" transform="translate(23.000000, 1402.000000)">
                <g id="office" transform="translate(0.000000, 58.000000)">
                    <g id="desk-(3)" transform="translate(0.299999, 0.000000)">
                        <rect id="Rectangle-2" fill="#D8D8D8" opacity="0" x="0.700000763" y="0" width="61" height="48"></rect>
                        <path d="M57.5483476,21.5510204 L45.2962056,21.5510204 L45.2962056,19.5918367 L50.9510404,19.5918367 C53.0297812,19.5918367 54.7209302,17.8340816 54.7209302,15.6734694 L54.7209302,3.91836735 C54.7209302,1.7577551 53.0297812,0 50.9510404,0 L32.1015912,0 C30.0228504,0 28.3317013,1.7577551 28.3317013,3.91836735 L28.3317013,15.6734694 C28.3317013,17.8340816 30.0228504,19.5918367 32.1015912,19.5918367 L37.7564259,19.5918367 L37.7564259,21.5510204 L4.76988984,21.5510204 C2.69114902,21.5510204 1,23.3087755 1,25.4693878 L1,47.0204082 C1,47.5613878 1.42199204,48 1.94247246,48 C2.46295288,48 2.88494492,47.5613878 2.88494492,47.0204082 L2.88494492,25.4693878 C2.88494492,24.3891429 3.73057834,23.5102041 4.76988984,23.5102041 L57.5483476,23.5102041 C58.5876591,23.5102041 59.4332925,24.3891429 59.4332925,25.4693878 L59.4332925,47.0204082 C59.4332925,47.5613878 59.8552846,48 60.375765,48 C60.8962454,48 61.3182375,47.5613878 61.3182375,47.0204082 L61.3182375,25.4693878 C61.3182375,23.3087755 59.6270884,21.5510204 57.5483476,21.5510204 Z M32.1015912,1.95918367 L50.9510404,1.95918367 C51.9903519,1.95918367 52.8359853,2.83812245 52.8359853,3.91836735 L52.8359853,13.7142857 L30.2166463,13.7142857 L30.2166463,3.91836735 C30.2166463,2.83812245 31.0622797,1.95918367 32.1015912,1.95918367 Z M30.2166463,15.6734694 L52.8359853,15.6734694 C52.8359853,16.7537143 51.9903519,17.6326531 50.9510404,17.6326531 L32.1015912,17.6326531 C31.0622797,17.6326531 30.2166463,16.7537143 30.2166463,15.6734694 Z M39.6413709,19.5918367 L43.4112607,19.5918367 L43.4112607,21.5510204 L39.6413709,21.5510204 L39.6413709,19.5918367 Z" id="Shape" fill="#44A6F6" fill-rule="nonzero"></path>
                        <path d="M22.6768666,25.6744186 L5.7123623,25.6744186 C5.19188188,25.6744186 4.76988984,26.1090394 4.76988984,26.6450961 L4.76988984,47.0293225 C4.76988984,47.5653792 5.19188188,48 5.7123623,48 C6.23284272,48 6.65483476,47.5653792 6.65483476,47.0293225 L6.65483476,45.0879676 L21.7343941,45.0879676 L21.7343941,47.0293225 C21.7343941,47.5653792 22.1563862,48 22.6768666,48 C23.197347,48 23.619339,47.5653792 23.619339,47.0293225 L23.619339,26.6450961 C23.619339,26.1090394 23.197347,25.6744186 22.6768666,25.6744186 Z M6.65483476,33.4398382 L21.7343941,33.4398382 L21.7343941,37.322548 L6.65483476,37.322548 L6.65483476,33.4398382 Z M21.7343941,27.6157735 L21.7343941,31.4984833 L6.65483476,31.4984833 L6.65483476,27.6157735 L21.7343941,27.6157735 Z M6.65483476,43.1466127 L6.65483476,39.2639029 L21.7343941,39.2639029 L21.7343941,43.1466127 L6.65483476,43.1466127 Z" id="Shape" fill="#44A6F6" fill-rule="nonzero"></path>
                        <path d="M13.252142,30.6976744 L15.1370869,30.6976744 C15.6575673,30.6976744 16.0795594,30.1978605 16.0795594,29.5813953 C16.0795594,28.9649302 15.6575673,28.4651163 15.1370869,28.4651163 L13.252142,28.4651163 C12.7316616,28.4651163 12.3096695,28.9649302 12.3096695,29.5813953 C12.3096695,30.1978605 12.7316616,30.6976744 13.252142,30.6976744 Z" id="Shape" fill="#326EAA" fill-rule="nonzero"></path>
                        <path d="M15.1370869,34.0465116 L13.252142,34.0465116 C12.7316616,34.0465116 12.3096695,34.5463256 12.3096695,35.1627907 C12.3096695,35.7792558 12.7316616,36.2790698 13.252142,36.2790698 L15.1370869,36.2790698 C15.6575673,36.2790698 16.0795594,35.7792558 16.0795594,35.1627907 C16.0795594,34.5463256 15.6575673,34.0465116 15.1370869,34.0465116 Z" id="Shape" fill="#326EAA" fill-rule="nonzero"></path>
                        <path d="M15.1370869,40.1860465 L13.252142,40.1860465 C12.7316616,40.1860465 12.3096695,40.6858605 12.3096695,41.3023256 C12.3096695,41.9187907 12.7316616,42.4186047 13.252142,42.4186047 L15.1370869,42.4186047 C15.6575673,42.4186047 16.0795594,41.9187907 16.0795594,41.3023256 C16.0795594,40.6858605 15.6575673,40.1860465 15.1370869,40.1860465 Z" id="Shape" fill="#326EAA" fill-rule="nonzero"></path>
                        <path d="M8.39290086,20.6511628 L16.7649939,20.6511628 C17.2787148,20.6511628 17.6952264,20.1513488 17.6952264,19.5348837 C17.6952264,18.9184186 17.2787148,18.4186047 16.7649939,18.4186047 L8.39290086,18.4186047 C7.87917993,18.4186047 7.4626683,18.9184186 7.4626683,19.5348837 C7.4626683,20.1513488 7.87917993,20.6511628 8.39290086,20.6511628 Z" id="Shape" fill="#326EAA" fill-rule="nonzero"></path>
                        <path d="M8.39290086,17.8604651 L16.7649939,17.8604651 C17.2787148,17.8604651 17.6952264,17.3606512 17.6952264,16.744186 C17.6952264,16.1277209 17.2787148,15.627907 16.7649939,15.627907 L8.39290086,15.627907 C7.87917993,15.627907 7.4626683,16.1277209 7.4626683,16.744186 C7.4626683,17.3606512 7.87917993,17.8604651 8.39290086,17.8604651 Z" id="Shape" fill="#326EAA" fill-rule="nonzero"></path>
                        <path d="M10.5743234,15.0697674 L17.2763498,15.0697674 C17.8050918,15.0697674 18.2337821,14.5699535 18.2337821,13.9534884 C18.2337821,13.3370233 17.8050918,12.8372093 17.2763498,12.8372093 L10.5743234,12.8372093 C10.0455814,12.8372093 9.61689106,13.3370233 9.61689106,13.9534884 C9.61689106,14.5699535 10.0455814,15.0697674 10.5743234,15.0697674 Z" id="Shape" fill="#326EAA" fill-rule="nonzero"></path>
                        <path d="M38.0525952,12.8372093 C38.300639,12.8372093 38.5488039,12.739129 38.7380781,12.5429684 L46.4932316,4.50565865 C46.8719012,4.11333746 46.8719012,3.47725974 46.4932316,3.08493856 C46.1146831,2.69261738 45.5009355,2.69261738 45.122387,3.08493856 L37.3672335,11.1222483 C36.9885639,11.5145695 36.9885639,12.1506472 37.3672335,12.5429684 C37.5563866,12.739129 37.8045515,12.8372093 38.0525952,12.8372093 Z" id="Shape" fill="#326EAA" fill-rule="nonzero"></path>
                    </g>
                </g>
            </g>
        </g>
    </g>
</svg>