<?xml version="1.0" encoding="UTF-8" standalone="no"?>
<svg width="64px" height="64px" viewBox="0 0 64 64" version="1.1" xmlns="http://www.w3.org/2000/svg" xmlns:xlink="http://www.w3.org/1999/xlink">
    <!-- Generator: Sketch 48.1 (47250) - http://www.bohemiancoding.com/sketch -->
    <title>play-button</title>
    <desc>Created with Sketch.</desc>
    <defs></defs>
    <g id="Что-Нового/02-Мероприятия" stroke="none" stroke-width="1" fill="none" fill-rule="evenodd" transform="translate(-237.000000, -1055.000000)">
        <g id="общая" fill="#FFFFFF" fill-rule="nonzero">
            <g id="ряд-2" transform="translate(92.000000, 949.000000)">
                <g id="Карточка-1">
                    <g id="play-button" transform="translate(145.000000, 106.000000)">
                        <path d="M48.6005333,31.1189333 L25.1338667,15.1189333 C24.8064,14.8970667 24.384,14.8725333 24.0341333,15.0570667 C23.6853333,15.2416 23.4666667,15.6042667 23.4666667,16 L23.4666667,48 C23.4666667,48.3957333 23.6853333,48.7584 24.0352,48.9429333 C24.1909333,49.0261333 24.3626667,49.0666667 24.5333333,49.0666667 C24.7434667,49.0666667 24.9536,49.0037333 25.1338667,48.8810667 L48.6005333,32.8810667 C48.8917333,32.6826667 49.0666667,32.3530667 49.0666667,32 C49.0666667,31.6469333 48.8917333,31.3173333 48.6005333,31.1189333 Z M25.6,45.9808 L25.6,18.0192 L46.1066667,32 L25.6,45.9808 Z" id="Shape"></path>
                        <path d="M32,0 C14.3552,0 0,14.3552 0,32 C0,49.6448 14.3552,64 32,64 C49.6448,64 64,49.6448 64,32 C64,14.3552 49.6448,0 32,0 Z M32,61.8666667 C15.5317333,61.8666667 2.13333333,48.4682667 2.13333333,32 C2.13333333,15.5317333 15.5317333,2.13333333 32,2.13333333 C48.4682667,2.13333333 61.8666667,15.5317333 61.8666667,32 C61.8666667,48.4682667 48.4682667,61.8666667 32,61.8666667 Z" id="Shape"></path>
                    </g>
                </g>
            </g>
        </g>
    </g>
</svg>