<?xml version="1.0" encoding="UTF-8" standalone="no"?>
<svg width="55px" height="50px" viewBox="0 0 55 50" version="1.1" xmlns="http://www.w3.org/2000/svg" xmlns:xlink="http://www.w3.org/1999/xlink">
    <!-- Generator: Sketch 48.1 (47250) - http://www.bohemiancoding.com/sketch -->
    <title>salary</title>
    <desc>Created with Sketch.</desc>
    <defs></defs>
    <g id="Мобильная/Главная/05---Главная" stroke="none" stroke-width="1" fill="none" fill-rule="evenodd" transform="translate(-27.000000, -1732.000000)">
        <g id="общая">
            <g id="мы-предлагаем" transform="translate(23.000000, 1402.000000)">
                <g id="salary" transform="translate(1.099998, 331.000000)">
                    <g>
                        <rect id="Rectangle-2" fill="#D8D8D8" opacity="0" x="0" y="0" width="61" height="48"></rect>
                        <path d="M21.7205479,13.4794521 C23.1671233,13.4794521 24.3243836,14.5315068 24.3243836,15.8465753 C24.3243836,16.569863 24.9753425,17.1616438 25.7709589,17.1616438 C26.5665753,17.1616438 27.2175342,16.569863 27.2175342,15.8465753 C27.2175342,13.5452055 25.4816438,11.6383562 23.1671233,11.0465753 L23.1671233,10.060274 C23.1671233,9.3369863 22.5161644,8.74520548 21.7205479,8.74520548 C20.9249315,8.74520548 20.2739726,9.3369863 20.2739726,10.060274 L20.2739726,11.0465753 C17.9594521,11.6383562 16.2235616,13.5452055 16.2235616,15.8465753 C16.2235616,18.6082192 18.6827397,20.8438356 21.7205479,20.8438356 C23.1671233,20.8438356 24.3243836,21.8958904 24.3243836,23.2109589 C24.3243836,24.5260274 23.1671233,25.5780822 21.7205479,25.5780822 C20.2739726,25.5780822 19.1167123,24.5260274 19.1167123,23.2109589 C19.1167123,22.4876712 18.4657534,21.8958904 17.670137,21.8958904 C16.8745205,21.8958904 16.2235616,22.4876712 16.2235616,23.2109589 C16.2235616,25.5123288 17.9594521,27.4191781 20.2739726,28.0109589 L20.2739726,28.9315068 C20.2739726,29.6547945 20.9249315,30.2465753 21.7205479,30.2465753 C22.5161644,30.2465753 23.1671233,29.6547945 23.1671233,28.9315068 L23.1671233,27.9452055 C25.4816438,27.3534247 27.2175342,25.4465753 27.2175342,23.1452055 C27.2175342,20.3835616 24.7583562,18.1479452 21.7205479,18.1479452 C20.2739726,18.1479452 19.1167123,17.0958904 19.1167123,15.7808219 C19.1167123,14.5315068 20.2739726,13.4794521 21.7205479,13.4794521 Z" id="Shape" fill="#326EAA" fill-rule="nonzero"></path>
                        <path d="M56.0767123,7.75890411 L48.2652055,0.657534247 C47.7589041,0.197260274 46.8909589,0.197260274 46.3846575,0.657534247 L38.8624658,7.56164384 C37.9221918,8.41643836 38.5731507,9.79726027 39.8750685,9.79726027 L41.8279452,9.79726027 L41.8279452,46.4876712 C41.8279452,47.1452055 42.4065753,47.6712329 43.129863,47.6712329 L51.5923288,47.6712329 C52.3156164,47.6712329 52.8942466,47.1452055 52.8942466,46.4876712 L52.8942466,9.79726027 L55.1364384,9.79726027 C56.2936986,9.79726027 56.8723288,8.48219178 56.0767123,7.75890411 Z M50.0010959,8.35068493 L50.0010959,45.0410959 L44.7210959,45.0410959 L44.7210959,8.35068493 C44.7210959,7.69315068 44.1424658,7.16712329 43.4191781,7.16712329 L47.3972603,3.55068493 L51.3753425,7.16712329 C50.579726,7.16712329 50.0010959,7.69315068 50.0010959,8.35068493 Z" id="Shape" stroke="#FFFFFF" fill="#44A6F6" fill-rule="nonzero"></path>
                        <path d="M21.7205479,3.74794521 C12.1731507,3.74794521 4.36164384,10.7835616 4.36164384,19.4630137 C4.36164384,28.1424658 12.1008219,35.1780822 21.7205479,35.1780822 C22.8054795,35.1780822 23.890411,35.1123288 24.9030137,34.9150685 L24.9030137,46.290411 C24.9030137,47.0136986 25.5539726,47.6054795 26.349589,47.6054795 L34.5227397,47.6054795 C35.3183562,47.6054795 35.9693151,47.0136986 35.9693151,46.290411 L35.9693151,28.4054795 C37.9221918,25.8410959 39.0071233,22.8164384 39.0071233,19.4630137 C39.0071233,10.8493151 31.2679452,3.74794521 21.7205479,3.74794521 Z M7.90575342,23.2767123 L9.78630137,23.2767123 C10.5819178,23.2767123 11.2328767,22.6849315 11.2328767,21.9616438 C11.2328767,21.2383562 10.5819178,20.6465753 9.78630137,20.6465753 L7.32712329,20.6465753 C7.25479452,20.2520548 7.25479452,19.8575342 7.25479452,19.4630137 C7.25479452,19.0684932 7.25479452,18.6739726 7.32712329,18.2794521 L12.3178082,18.2794521 C13.1134247,18.2794521 13.7643836,17.6876712 13.7643836,16.9643836 C13.7643836,16.2410959 13.1134247,15.6493151 12.3178082,15.6493151 L7.90575342,15.6493151 C9.64164384,10.3232877 15.2109589,6.37808219 21.7205479,6.37808219 C29.6767123,6.37808219 36.1863014,12.230137 36.1863014,19.4630137 C36.1863014,26.6958904 29.6767123,32.5479452 21.7205479,32.5479452 C15.2109589,32.6136986 9.64164384,28.6684932 7.90575342,23.2767123 Z M27.7238356,45.0410959 L27.7238356,34.2575342 C29.6767123,33.6 31.4849315,32.6136986 33.0038356,31.3643836 L33.0038356,45.0410959 L27.7238356,45.0410959 Z" id="Shape" stroke="#FFFFFF" fill="#44A6F6" fill-rule="nonzero"></path>
                        <path d="M17.3808219,37.939726 L9.20767123,37.939726 C8.41205479,37.939726 7.76109589,38.5315068 7.76109589,39.2547945 L7.76109589,46.3561644 C7.76109589,47.0794521 8.41205479,47.6712329 9.20767123,47.6712329 L17.3808219,47.6712329 C18.1764384,47.6712329 18.8273973,47.0794521 18.8273973,46.3561644 L18.8273973,39.2547945 C18.8273973,38.5315068 18.1764384,37.939726 17.3808219,37.939726 Z M15.9342466,45.0410959 L10.6542466,45.0410959 L10.6542466,40.569863 L15.9342466,40.569863 L15.9342466,45.0410959 Z" id="Shape" stroke="#FFFFFF" fill="#44A6F6" fill-rule="nonzero"></path>
                    </g>
                </g>
            </g>
        </g>
    </g>
</svg>