<?xml version="1.0" encoding="UTF-8" standalone="no"?>
<svg width="46px" height="50px" viewBox="0 0 46 50" version="1.1" xmlns="http://www.w3.org/2000/svg" xmlns:xlink="http://www.w3.org/1999/xlink">
    <!-- Generator: Sketch 48.1 (47250) - http://www.bohemiancoding.com/sketch -->
    <title>ss-benefit-prezent</title>
    <desc>Created with Sketch.</desc>
    <defs></defs>
    <g id="Мобильная/Главная/05---Главная" stroke="none" stroke-width="1" fill="none" fill-rule="evenodd" transform="translate(-32.000000, -1847.000000)">
        <g id="общая">
            <g id="мы-предлагаем" transform="translate(23.000000, 1402.000000)">
                <g id="benefit" transform="translate(1.000000, 446.000000)">
                    <g id="ss-benefit-prezent">
                        <rect id="Rectangle-2" fill="#D8D8D8" opacity="0" x="0" y="0" width="61" height="48"></rect>
                        <path d="M33.975,16.5230769 C33.975,16.5230769 48.405,16.2461538 49.7925,6.27692308 L45.63,5.44615385 L45.445,6 C45.445,6 43.04,12 34.9,12.8307692" id="Shape" stroke="#326EAA" stroke-width="2" stroke-linecap="round" stroke-linejoin="round" fill-rule="nonzero"></path>
                        <rect id="Rectangle-path" stroke="#44A6F6" stroke-width="2" stroke-linecap="round" stroke-linejoin="round" x="12.2375" y="27.5076923" width="37.925" height="19.6615385"></rect>
                        <rect id="Rectangle-path" stroke="#44A6F6" stroke-width="2" stroke-linecap="round" stroke-linejoin="round" x="27.685" y="27.5076923" width="6.7525" height="19.6615385"></rect>
                        <rect id="Rectangle-path" stroke="#44A6F6" stroke-width="2" stroke-linecap="round" stroke-linejoin="round" x="9.6475" y="17.7230769" width="43.1975" height="9.78461538"></rect>
                        <rect id="Rectangle-path" stroke="#44A6F6" stroke-width="2" stroke-linecap="round" stroke-linejoin="round" x="26.1125" y="17.7230769" width="10.175" height="9.78461538"></rect>
                        <g id="Group" transform="translate(13.625000, 2.769231)" stroke="#326EAA" stroke-linecap="round" stroke-linejoin="round" stroke-width="2">
                            <g id="Shape">
                                <path d="M0.74,5.26153846 L3.4225,0.923076923 C3.4225,0.923076923 17.8525,-2.76923077 17.8525,14.7692308 L14.1525,14.7692308 C14.1525,14.7692308 13.5975,1.29230769 0.74,5.26153846 Z"></path>
                                <path d="M12.765,10.7076923 C5.92,9.96923077 4.1625,4.61538462 4.1625,4.61538462 L0.8325,5.26153846 C2.035,13.6615385 14.245,13.7538462 14.245,13.7538462"></path>
                            </g>
                            <g id="Shape">
                                <path d="M0.74,5.26153846 L3.4225,0.923076923 C3.4225,0.923076923 17.8525,-2.76923077 17.8525,14.7692308 L14.1525,14.7692308 C14.1525,14.7692308 13.5975,1.29230769 0.74,5.26153846 Z"></path>
                            </g>
                        </g>
                        <path d="M49.885,6.18461538 L46.74,0.923076923 C46.74,0.923076923 29.535,-2.86153846 29.535,17.4461538 L33.975,17.4461538 C33.8825,17.5384615 34.53,1.47692308 49.885,6.18461538 Z" id="Shape" stroke="#326EAA" stroke-width="2" stroke-linecap="round" stroke-linejoin="round" fill-rule="nonzero"></path>
                    </g>
                </g>
            </g>
        </g>
    </g>
</svg>