<?xml version="1.0" encoding="UTF-8" standalone="no"?>
<svg width="63px" height="50px" viewBox="0 0 63 50" version="1.1" xmlns="http://www.w3.org/2000/svg" xmlns:xlink="http://www.w3.org/1999/xlink">
    <!-- Generator: Sketch 48.1 (47250) - http://www.bohemiancoding.com/sketch -->
    <title>transfer</title>
    <desc>Created with Sketch.</desc>
    <defs></defs>
    <g id="Мобильная/Главная/05---Главная" stroke="none" stroke-width="1" fill="none" fill-rule="evenodd" transform="translate(-23.000000, -1595.000000)">
        <g id="общая">
            <g id="мы-предлагаем" transform="translate(23.000000, 1402.000000)">
                <g id="transfer" transform="translate(1.000000, 194.000000)">
                    <g>
                        <rect id="Rectangle-2" fill="#D8D8D8" opacity="0" x="0" y="0" width="61" height="48"></rect>
                        <path d="M18.3024161,11.6879898 L18.152298,11.6879898 C17.4693434,11.6779906 16.9084627,12.3409412 16.8993897,13.1688796 C16.8911414,13.996818 17.438,14.6767674 18.1209547,14.6877666 C18.1308526,14.6877666 18.1415753,14.6877666 18.1514732,14.6877666 L18.3015913,14.6877666 C18.9845459,14.6977658 19.5454266,14.0348152 19.5544996,13.2068768 C19.5627479,12.3789384 19.0158892,11.698989 18.3329346,11.6879898 C18.3230367,11.6879898 18.3131388,11.6879898 18.3024161,11.6879898 Z" id="Shape" fill="#326EAA" fill-rule="nonzero"></path>
                        <path d="M23.5453645,11.6879898 L23.1420163,11.6879898 C22.5280966,11.6779906 22.0239113,12.3409412 22.0157553,13.1688796 C22.0083409,13.996818 22.4999215,14.6767674 23.1138412,14.6877666 C23.1227386,14.6877666 23.1323774,14.6877666 23.1412748,14.6877666 L23.544623,14.6877666 C24.1585427,14.6977658 24.662728,14.0348152 24.6708839,13.2068768 C24.6782984,12.3789384 24.1867178,11.698989 23.5727981,11.6879898 C23.5639007,11.6879898 23.5550033,11.6879898 23.5453645,11.6879898 Z" id="Shape" fill="#326EAA" fill-rule="nonzero"></path>
                        <path d="M28.4773511,11.6879898 L28.1822573,11.6879898 C27.5392635,11.6779906 27.011201,12.3409412 27.0026588,13.1688796 C26.9948932,13.996818 27.5097541,14.6767674 28.1527479,14.6877666 C28.1620667,14.6877666 28.172162,14.6877666 28.1814808,14.6877666 L28.4765745,14.6877666 C29.1195683,14.6977658 29.6476309,14.0348152 29.6561731,13.2068768 C29.6639387,12.3789384 29.1490777,11.698989 28.5060839,11.6879898 C28.4967652,11.6879898 28.4874464,11.6879898 28.4773511,11.6879898 Z" id="Shape" fill="#326EAA" fill-rule="nonzero"></path>
                        <path d="M43.4709722,0.210545455 C42.7694722,0.187636364 42.1857361,0.901090909 42.1679444,1.80436364 C42.1560833,2.41854545 42.4119444,2.99018182 42.8313194,3.28472727 L54.4492778,11.688 L33.3686944,11.688 C32.6671944,11.6770909 32.0910833,12.4003636 32.0817639,13.3036364 C32.0732917,14.2069091 32.635,14.9487273 33.3365,14.9607273 C33.3466667,14.9607273 33.3576806,14.9607273 33.3678472,14.9607273 L54.4475833,14.9607273 L42.829625,23.364 C42.2162361,23.8036364 41.9959583,24.7996364 42.3365417,25.5894545 C42.677125,26.3792727 43.4514861,26.6629091 44.064875,26.2243636 C44.0682639,26.2221818 44.0716528,26.22 44.0741944,26.2178182 L59.9265694,14.7512727 C60.5382639,14.3083636 60.756,13.3112727 60.4120278,12.5225455 C60.2976528,12.2607273 60.1299028,12.0447273 59.9265694,11.8974545 L44.0767361,0.430909091 C43.8920417,0.293454545 43.683625,0.217090909 43.4709722,0.210545455 Z" id="Shape" stroke="#FFFFFF" fill="#326EAA" fill-rule="nonzero"></path>
                        <path d="M43.6722253,33.0359898 L43.5228878,33.0359898 C42.8397308,33.0259906 42.2786839,33.6889412 42.2696081,34.5168796 C42.2605324,35.344818 42.8083781,36.0247674 43.4915352,36.0357666 C43.5014361,36.0357666 43.5121619,36.0357666 43.5220628,36.0357666 L43.6714003,36.0357666 C44.3545573,36.0457658 44.9156042,35.3828152 44.92468,34.5548768 C44.9337557,33.7269384 44.38591,33.046989 43.7027529,33.0359898 C43.692852,33.0359898 43.6829512,33.0359898 43.6722253,33.0359898 Z" id="Shape" fill="#44A6F6" fill-rule="nonzero"></path>
                        <path d="M38.3761267,33.0359898 L37.9727811,33.0359898 C37.3588653,33.0259906 36.8546833,33.6889412 36.8465274,34.5168796 C36.8383715,35.344818 37.3306904,36.0247674 37.9446062,36.0357666 C37.954245,36.0357666 37.9631423,36.0357666 37.9720396,36.0357666 L38.3753852,36.0357666 C38.989301,36.0457658 39.493483,35.3828152 39.5016389,34.5548768 C39.5090533,33.7269384 39.0174759,33.046989 38.4035601,33.0359898 C38.3946628,33.0359898 38.385024,33.0359898 38.3761267,33.0359898 Z" id="Shape" fill="#44A6F6" fill-rule="nonzero"></path>
                        <path d="M32.2553953,36.0357666 C32.2647442,36.0357666 32.2748721,36.0357666 32.284221,36.0357666 L32.5740365,36.0357666 C33.2191098,36.0457658 33.7488801,35.3828152 33.7574499,34.5548768 C33.7660197,33.7269384 33.2487146,33.046989 32.6036413,33.0359898 C32.5935134,33.0359898 32.5841645,33.0359898 32.5748156,33.0359898 L32.2857792,33.0359898 C31.6407059,33.0259906 31.1109356,33.6889412 31.1023658,34.5168796 C31.093796,35.3458179 31.610322,36.0257673 32.2553953,36.0357666 Z" id="Shape" fill="#44A6F6" fill-rule="nonzero"></path>
                        <path d="M1.07173611,36.0992727 L16.9241111,47.5658182 C17.529875,48.0218182 18.3084722,47.76 18.6626111,46.9789091 C19.01675,46.1989091 18.8125694,45.1963636 18.2068056,44.7403636 C18.1940972,44.7305455 18.1813889,44.7218182 18.1686806,44.7130909 L6.55156944,36.3098182 L27.6313056,36.3098182 C28.3328056,36.3207273 28.9089167,35.5974545 28.9182361,34.6941818 C28.9267083,33.7909091 28.365,33.0490909 27.6635,33.0370909 C27.6533333,33.0370909 27.6423194,33.0370909 27.6321528,33.0370909 L6.55072222,33.0370909 L18.1678333,24.6338182 C18.7846111,24.2029091 19.0133611,23.2090909 18.6778611,22.4149091 C18.4652083,21.9098182 18.0619306,21.5858182 17.6171389,21.5607273 C17.3739861,21.5465455 17.133375,21.6229091 16.9232639,21.78 L1.07173611,33.2465455 C0.459194444,33.6894545 0.242305556,34.6865455 0.586277778,35.4752727 C0.700652778,35.736 0.868402778,35.952 1.07173611,36.0992727 Z" id="Shape" stroke="#FFFFFF" fill="#44A6F6" fill-rule="nonzero"></path>
                    </g>
                </g>
            </g>
        </g>
    </g>
</svg>